G04 #@! TF.FileFunction,Copper,L2,Bot,Signal*
%FSLAX46Y46*%
G04 Gerber Fmt 4.6, Leading zero omitted, Abs format (unit mm)*
G04 Created by KiCad (PCBNEW 4.0.1-stable) date 2016-06-29 05:17:59*
%MOMM*%
G01*
G04 APERTURE LIST*
%ADD10C,0.100000*%
%ADD11C,6.000000*%
%ADD12O,3.000000X2.000000*%
%ADD13C,1.800000*%
%ADD14R,1.500000X1.000000*%
%ADD15R,0.203200X0.508000*%
%ADD16R,2.600000X2.000000*%
%ADD17O,2.600000X2.000000*%
%ADD18C,0.914400*%
%ADD19C,0.584200*%
%ADD20C,0.812800*%
%ADD21C,0.406400*%
%ADD22C,0.203200*%
%ADD23C,0.254000*%
G04 APERTURE END LIST*
D10*
D11*
X5000000Y-25000000D03*
D12*
X6702000Y-14450000D03*
X6702000Y-10950000D03*
D13*
X50980500Y-23288500D03*
X62715500Y-23288500D03*
D14*
X62309000Y-15240000D03*
X62309000Y-13970000D03*
D15*
X62309000Y-14605000D03*
D13*
X9451500Y-23035000D03*
X21186500Y-23035000D03*
D14*
X48085000Y-15367000D03*
X48085000Y-14097000D03*
D15*
X48085000Y-14732000D03*
D14*
X40973000Y-15367000D03*
X40973000Y-14097000D03*
D15*
X40973000Y-14732000D03*
D14*
X33861000Y-15367000D03*
X33861000Y-14097000D03*
D15*
X33861000Y-14732000D03*
D14*
X26749000Y-15240000D03*
X26749000Y-13970000D03*
D15*
X26749000Y-14605000D03*
D14*
X19637000Y-15367000D03*
X19637000Y-14097000D03*
D15*
X19637000Y-14732000D03*
D14*
X55197000Y-15367000D03*
X55197000Y-14097000D03*
D15*
X55197000Y-14732000D03*
D16*
X24653500Y-2349500D03*
D17*
X24653500Y-4889500D03*
X24653500Y-7429500D03*
D16*
X31765500Y-2349500D03*
D17*
X31765500Y-4889500D03*
X31765500Y-7429500D03*
D16*
X38877500Y-2349500D03*
D17*
X38877500Y-4889500D03*
X38877500Y-7429500D03*
D16*
X45989500Y-2349500D03*
D17*
X45989500Y-4889500D03*
X45989500Y-7429500D03*
D16*
X53101500Y-2349500D03*
D17*
X53101500Y-4889500D03*
X53101500Y-7429500D03*
D16*
X60213500Y-2349500D03*
D17*
X60213500Y-4889500D03*
X60213500Y-7429500D03*
D16*
X17541500Y-2349500D03*
D17*
X17541500Y-4889500D03*
X17541500Y-7429500D03*
D18*
X19192500Y-21574500D03*
X44160700Y-22869900D03*
X8890000Y-2623000D03*
X10100000Y-2623000D03*
X10100000Y-1413000D03*
X8890000Y-1413000D03*
X8890000Y-3833000D03*
X10100000Y-3833000D03*
X11310000Y-5043000D03*
X11310000Y-3833000D03*
X8890000Y-5043000D03*
X10100000Y-5043000D03*
X11310000Y-1413000D03*
X12520000Y-3833000D03*
X12520000Y-2623000D03*
X12520000Y-5043000D03*
X12520000Y-1413000D03*
X11310000Y-2623000D03*
X6551000Y-5043000D03*
X5341000Y-5043000D03*
X4131000Y-5043000D03*
X2921000Y-5043000D03*
X6551000Y-3833000D03*
X5341000Y-3833000D03*
X4131000Y-3833000D03*
X2921000Y-3833000D03*
X6551000Y-2623000D03*
X5341000Y-2623000D03*
X4131000Y-2623000D03*
X2921000Y-2623000D03*
X6551000Y-1413000D03*
X5341000Y-1413000D03*
X4131000Y-1413000D03*
X2921000Y-1413000D03*
X17922500Y-16827500D03*
X25034500Y-16827500D03*
X32146500Y-16827500D03*
X39258500Y-16827500D03*
X46370500Y-16827500D03*
X53482500Y-16827500D03*
X60594500Y-16827500D03*
X10668000Y-9271000D03*
X45024300Y-21549100D03*
X12715500Y-18907500D03*
X48085000Y-17018000D03*
X14049000Y-18971000D03*
X63728600Y-8229600D03*
X55477900Y-18082000D03*
X15319000Y-18971000D03*
X55959000Y-10414000D03*
X57991000Y-19050000D03*
X16589000Y-19098020D03*
X49101000Y-10160000D03*
X20447000Y-17970500D03*
X41989000Y-10160000D03*
X32334200Y-24536400D03*
X27765000Y-16764000D03*
X58054500Y-27289500D03*
X16589000Y-27226000D03*
X34623000Y-10414000D03*
X35458400Y-19151600D03*
X30734000Y-26421149D03*
X15319000Y-27226000D03*
X27765000Y-10414000D03*
X41989000Y-16764000D03*
X43438530Y-25564975D03*
X14049000Y-27162500D03*
X20653000Y-10160000D03*
X45544567Y-24432433D03*
X11318500Y-24749500D03*
D19*
X44160700Y-22869900D02*
X33918900Y-22869900D01*
X33918900Y-22869900D02*
X32166301Y-21117301D01*
X32166301Y-21117301D02*
X19649699Y-21117301D01*
X19649699Y-21117301D02*
X19192500Y-21574500D01*
D20*
X15001500Y-11936500D02*
X15001500Y-5316700D01*
X15001500Y-5316700D02*
X15428700Y-4889500D01*
X15428700Y-4889500D02*
X17541500Y-4889500D01*
D19*
X17241500Y-4889500D02*
X17541500Y-4889500D01*
D21*
X19129000Y-2349500D02*
X17541500Y-2349500D01*
X20145000Y-7874000D02*
X20145000Y-3365500D01*
X20145000Y-3365500D02*
X19129000Y-2349500D01*
X17922500Y-10096500D02*
X20145000Y-7874000D01*
X17922500Y-16827500D02*
X17922500Y-10096500D01*
X26495000Y-2349500D02*
X24653500Y-2349500D01*
X27257000Y-7874000D02*
X27257000Y-3111500D01*
X27257000Y-3111500D02*
X26495000Y-2349500D01*
X25034500Y-10096500D02*
X27257000Y-7874000D01*
X25034500Y-16827500D02*
X25034500Y-10096500D01*
X32146500Y-16827500D02*
X32146500Y-10096500D01*
X32146500Y-10096500D02*
X33861000Y-8382000D01*
X33861000Y-8382000D02*
X33861000Y-2738600D01*
X33861000Y-2738600D02*
X33471900Y-2349500D01*
X33471900Y-2349500D02*
X31765500Y-2349500D01*
X39258500Y-10350500D02*
X41227000Y-8382000D01*
X41227000Y-8382000D02*
X41227000Y-3111500D01*
X39258500Y-16827500D02*
X39258500Y-10350500D01*
X40465000Y-2349500D02*
X38877500Y-2349500D01*
X41227000Y-3111500D02*
X40465000Y-2349500D01*
X48339000Y-8382000D02*
X48339000Y-2794000D01*
X48339000Y-2794000D02*
X47894500Y-2349500D01*
X46370500Y-10350500D02*
X48339000Y-8382000D01*
X46370500Y-16827500D02*
X46370500Y-10350500D01*
X54943000Y-2349500D02*
X53101500Y-2349500D01*
X53482500Y-16827500D02*
X53482500Y-11112500D01*
X53482500Y-11112500D02*
X55451000Y-9144000D01*
X55451000Y-9144000D02*
X55451000Y-2857500D01*
X55451000Y-2857500D02*
X54943000Y-2349500D01*
X47894500Y-2349500D02*
X45989500Y-2349500D01*
X60594500Y-16827500D02*
X60594500Y-16180922D01*
X60594500Y-16180922D02*
X60721500Y-16053922D01*
X60721500Y-16053922D02*
X60721500Y-9969500D01*
X60721500Y-9969500D02*
X62245500Y-8445500D01*
X62245500Y-8445500D02*
X62245500Y-2675100D01*
X62245500Y-2675100D02*
X61919900Y-2349500D01*
X61919900Y-2349500D02*
X60213500Y-2349500D01*
D19*
X12715500Y-18260922D02*
X12715500Y-11318500D01*
X12715500Y-11318500D02*
X10668000Y-9271000D01*
X12715500Y-18907500D02*
X12715500Y-19554078D01*
X12715500Y-19554078D02*
X13465922Y-20304500D01*
X13465922Y-20304500D02*
X33362190Y-20304500D01*
X33362190Y-20304500D02*
X34606790Y-21549100D01*
X34606790Y-21549100D02*
X45024300Y-21549100D01*
X12715500Y-18907500D02*
X12715500Y-18260922D01*
D22*
X47627801Y-17475199D02*
X48085000Y-17018000D01*
X35874962Y-19913602D02*
X37643064Y-18145500D01*
X35092638Y-19913602D02*
X35874962Y-19913602D01*
X33324536Y-18145500D02*
X35092638Y-19913602D01*
X20812761Y-18732501D02*
X21399762Y-18145500D01*
X20081239Y-18732501D02*
X20812761Y-18732501D01*
X21399762Y-18145500D02*
X33324536Y-18145500D01*
X19087827Y-17739089D02*
X20081239Y-18732501D01*
X14049000Y-18971000D02*
X15280911Y-17739089D01*
X46957500Y-18145500D02*
X47627801Y-17475199D01*
X37643064Y-18145500D02*
X46957500Y-18145500D01*
X15280911Y-17739089D02*
X19087827Y-17739089D01*
X48085000Y-17018000D02*
X48085000Y-15367000D01*
D21*
X62613801Y-10871199D02*
X62613801Y-9344399D01*
X62613801Y-9344399D02*
X63728600Y-8229600D01*
X62613801Y-10871199D02*
X62613801Y-13665199D01*
X62613801Y-13665199D02*
X62334401Y-13944599D01*
D22*
X55020701Y-18539199D02*
X55477900Y-18082000D01*
X54969900Y-18590000D02*
X55020701Y-18539199D01*
X37773315Y-18590000D02*
X54969900Y-18590000D01*
X36043302Y-20320013D02*
X37773315Y-18590000D01*
X34924298Y-20320013D02*
X36043302Y-20320013D01*
X20981101Y-19138912D02*
X21530013Y-18590000D01*
X19912899Y-19138912D02*
X20981101Y-19138912D01*
X18919487Y-18145500D02*
X19912899Y-19138912D01*
X15319000Y-18971000D02*
X16144500Y-18145500D01*
X16144500Y-18145500D02*
X18919487Y-18145500D01*
X21530013Y-18590000D02*
X33194285Y-18590000D01*
X33194285Y-18590000D02*
X34924298Y-20320013D01*
X55477900Y-18082000D02*
X55477900Y-15647900D01*
X55477900Y-15647900D02*
X55197000Y-15367000D01*
D23*
X55197000Y-14097000D02*
X55197000Y-11176000D01*
X55197000Y-11176000D02*
X55959000Y-10414000D01*
D22*
X57533801Y-19507199D02*
X57991000Y-19050000D01*
X33584753Y-19555219D02*
X34755958Y-20726424D01*
X36186242Y-20701024D02*
X56339976Y-20701024D01*
X56339976Y-20701024D02*
X57533801Y-19507199D01*
X17046199Y-19555219D02*
X33584753Y-19555219D01*
X36160842Y-20726424D02*
X36186242Y-20701024D01*
X34755958Y-20726424D02*
X36160842Y-20726424D01*
X16589000Y-19098020D02*
X17046199Y-19555219D01*
X62309000Y-17018000D02*
X62309000Y-14774801D01*
X62309000Y-17018000D02*
X60277000Y-19050000D01*
X60277000Y-19050000D02*
X57991000Y-19050000D01*
X48085000Y-14097000D02*
X48085000Y-11176000D01*
X48085000Y-11176000D02*
X49101000Y-10160000D01*
X20447000Y-17970500D02*
X19637000Y-17160500D01*
X19637000Y-17160500D02*
X19637000Y-15367000D01*
D23*
X40973000Y-14097000D02*
X40973000Y-11176000D01*
X40973000Y-11176000D02*
X41989000Y-10160000D01*
D22*
X34871400Y-27226000D02*
X34871400Y-27073600D01*
X34871400Y-27073600D02*
X32334200Y-24536400D01*
X37894000Y-27226000D02*
X34871400Y-27226000D01*
X58054500Y-27289500D02*
X57597301Y-27746699D01*
X57597301Y-27746699D02*
X38414699Y-27746699D01*
X38414699Y-27746699D02*
X37894000Y-27226000D01*
X37894000Y-27226000D02*
X16589000Y-27226000D01*
X27765000Y-16764000D02*
X27765000Y-16256000D01*
X27765000Y-16256000D02*
X26749000Y-15240000D01*
D23*
X33861000Y-14097000D02*
X33861000Y-11176000D01*
X33861000Y-11176000D02*
X34623000Y-10414000D01*
D22*
X33861000Y-16070200D02*
X33861000Y-17554200D01*
X33861000Y-17554200D02*
X35458400Y-19151600D01*
X24525240Y-26421149D02*
X30734000Y-26421149D01*
X33861000Y-15367000D02*
X33861000Y-16070200D01*
X24384000Y-26421149D02*
X24525240Y-26421149D01*
X16123851Y-26421149D02*
X24384000Y-26421149D01*
X15319000Y-27226000D02*
X16123851Y-26421149D01*
D23*
X26749000Y-13970000D02*
X26749000Y-11430000D01*
X26749000Y-11430000D02*
X27765000Y-10414000D01*
D22*
X15646525Y-25564975D02*
X14506199Y-26705301D01*
X32699962Y-23774398D02*
X31333438Y-23774398D01*
X29542861Y-25564975D02*
X15646525Y-25564975D01*
X31333438Y-23774398D02*
X29542861Y-25564975D01*
X43438530Y-25564975D02*
X34490539Y-25564975D01*
X14506199Y-26705301D02*
X14049000Y-27162500D01*
X34490539Y-25564975D02*
X32699962Y-23774398D01*
X41989000Y-16764000D02*
X41989000Y-16383000D01*
X41989000Y-16383000D02*
X40973000Y-15367000D01*
D23*
X19637000Y-14097000D02*
X19637000Y-11176000D01*
X19637000Y-11176000D02*
X20653000Y-10160000D01*
D19*
X11965078Y-24749500D02*
X11318500Y-24749500D01*
X29488777Y-24749500D02*
X11965078Y-24749500D01*
X31060790Y-23177487D02*
X29488777Y-24749500D01*
X32972610Y-23177487D02*
X31060790Y-23177487D01*
X45544567Y-24432433D02*
X34227556Y-24432433D01*
X34227556Y-24432433D02*
X32972610Y-23177487D01*
D23*
G36*
X15682356Y-4381145D02*
X15651376Y-4509066D01*
X15770723Y-4762500D01*
X17414500Y-4762500D01*
X17414500Y-4742500D01*
X17668500Y-4742500D01*
X17668500Y-4762500D01*
X17688500Y-4762500D01*
X17688500Y-5016500D01*
X17668500Y-5016500D01*
X17668500Y-5036500D01*
X17414500Y-5036500D01*
X17414500Y-5016500D01*
X15770723Y-5016500D01*
X15651376Y-5269934D01*
X15682356Y-5397855D01*
X15995578Y-5955817D01*
X16237688Y-6146281D01*
X16047471Y-6273380D01*
X15693048Y-6803813D01*
X15568591Y-7429500D01*
X15693048Y-8055187D01*
X16047471Y-8585620D01*
X16577904Y-8940043D01*
X17203591Y-9064500D01*
X17769106Y-9064500D01*
X17329803Y-9503803D01*
X17148104Y-9775734D01*
X17109562Y-9969500D01*
X17084300Y-10096500D01*
X17084300Y-16120981D01*
X16997118Y-16208011D01*
X16830490Y-16609295D01*
X16830147Y-17002489D01*
X15280911Y-17002489D01*
X14999026Y-17058559D01*
X14760056Y-17218234D01*
X14099446Y-17878844D01*
X13832701Y-17878611D01*
X13642600Y-17957159D01*
X13642600Y-11318500D01*
X13572029Y-10963714D01*
X13371059Y-10662941D01*
X11758678Y-9050560D01*
X11594462Y-8653127D01*
X11287489Y-8345618D01*
X10886205Y-8178990D01*
X10451701Y-8178611D01*
X10050127Y-8344538D01*
X9742618Y-8651511D01*
X9575990Y-9052795D01*
X9575611Y-9487299D01*
X9741538Y-9888873D01*
X10048511Y-10196382D01*
X10448251Y-10362369D01*
X11788400Y-11702518D01*
X11788400Y-18292148D01*
X11623490Y-18689295D01*
X11623111Y-19123799D01*
X11788400Y-19523829D01*
X11788400Y-19554078D01*
X11858971Y-19908864D01*
X12059941Y-20209637D01*
X12810363Y-20960059D01*
X13111136Y-21161029D01*
X13465922Y-21231600D01*
X32978172Y-21231600D01*
X33951231Y-22204659D01*
X34252004Y-22405629D01*
X34606790Y-22476200D01*
X44408948Y-22476200D01*
X44806095Y-22641110D01*
X45240599Y-22641489D01*
X45642173Y-22475562D01*
X45949682Y-22168589D01*
X46116310Y-21767305D01*
X46116598Y-21437624D01*
X56339976Y-21437624D01*
X56621861Y-21381554D01*
X56860831Y-21221879D01*
X57940554Y-20142156D01*
X58207299Y-20142389D01*
X58608873Y-19976462D01*
X58799067Y-19786600D01*
X60277000Y-19786600D01*
X60558885Y-19730530D01*
X60797855Y-19570855D01*
X62829855Y-17538855D01*
X62989530Y-17299885D01*
X63045600Y-17018000D01*
X63045600Y-16387440D01*
X63059000Y-16387440D01*
X63294317Y-16343162D01*
X63510441Y-16204090D01*
X63655431Y-15991890D01*
X63706440Y-15740000D01*
X63706440Y-14740000D01*
X63680105Y-14600044D01*
X63706440Y-14470000D01*
X63706440Y-13470000D01*
X63662162Y-13234683D01*
X63523090Y-13018559D01*
X63452001Y-12969986D01*
X63452001Y-9691593D01*
X63821712Y-9321882D01*
X63910000Y-9321959D01*
X63910000Y-22312373D01*
X63586143Y-21987949D01*
X63022170Y-21753767D01*
X62411509Y-21753235D01*
X61847129Y-21986432D01*
X61414949Y-22417857D01*
X61180767Y-22981830D01*
X61180235Y-23592491D01*
X61413432Y-24156871D01*
X61844857Y-24589051D01*
X62408830Y-24823233D01*
X63019491Y-24823765D01*
X63583871Y-24590568D01*
X63910000Y-24265009D01*
X63910000Y-29160000D01*
X685000Y-29160000D01*
X685000Y-25719874D01*
X1364370Y-25719874D01*
X1916600Y-27056372D01*
X2938249Y-28079806D01*
X4273782Y-28634368D01*
X5719874Y-28635630D01*
X7056372Y-28083400D01*
X8079806Y-27061751D01*
X8634368Y-25726218D01*
X8635562Y-24358266D01*
X9144830Y-24569733D01*
X9755491Y-24570265D01*
X10304504Y-24343418D01*
X10226490Y-24531295D01*
X10226111Y-24965799D01*
X10392038Y-25367373D01*
X10699011Y-25674882D01*
X11100295Y-25841510D01*
X11534799Y-25841889D01*
X11934829Y-25676600D01*
X14493190Y-25676600D01*
X14099446Y-26070344D01*
X13832701Y-26070111D01*
X13431127Y-26236038D01*
X13123618Y-26543011D01*
X12956990Y-26944295D01*
X12956611Y-27378799D01*
X13122538Y-27780373D01*
X13429511Y-28087882D01*
X13830795Y-28254510D01*
X14265299Y-28254889D01*
X14645865Y-28097642D01*
X14699511Y-28151382D01*
X15100795Y-28318010D01*
X15535299Y-28318389D01*
X15936873Y-28152462D01*
X15953760Y-28135604D01*
X15969511Y-28151382D01*
X16370795Y-28318010D01*
X16805299Y-28318389D01*
X17206873Y-28152462D01*
X17397067Y-27962600D01*
X37588890Y-27962600D01*
X37893844Y-28267554D01*
X38132814Y-28427229D01*
X38414699Y-28483299D01*
X57597301Y-28483299D01*
X57879186Y-28427229D01*
X57947464Y-28381607D01*
X58270799Y-28381889D01*
X58672373Y-28215962D01*
X58979882Y-27908989D01*
X59146510Y-27507705D01*
X59146889Y-27073201D01*
X58980962Y-26671627D01*
X58673989Y-26364118D01*
X58272705Y-26197490D01*
X57838201Y-26197111D01*
X57436627Y-26363038D01*
X57129118Y-26670011D01*
X56987901Y-27010099D01*
X38719809Y-27010099D01*
X38414855Y-26705145D01*
X38175885Y-26545470D01*
X37894000Y-26489400D01*
X35328910Y-26489400D01*
X35141085Y-26301575D01*
X42630588Y-26301575D01*
X42819041Y-26490357D01*
X43220325Y-26656985D01*
X43654829Y-26657364D01*
X44056403Y-26491437D01*
X44363912Y-26184464D01*
X44530540Y-25783180D01*
X44530910Y-25359533D01*
X44929215Y-25359533D01*
X45326362Y-25524443D01*
X45760866Y-25524822D01*
X46162440Y-25358895D01*
X46469949Y-25051922D01*
X46636577Y-24650638D01*
X46636956Y-24216134D01*
X46471029Y-23814560D01*
X46249348Y-23592491D01*
X49445235Y-23592491D01*
X49678432Y-24156871D01*
X50109857Y-24589051D01*
X50673830Y-24823233D01*
X51284491Y-24823765D01*
X51848871Y-24590568D01*
X52281051Y-24159143D01*
X52515233Y-23595170D01*
X52515765Y-22984509D01*
X52282568Y-22420129D01*
X51851143Y-21987949D01*
X51287170Y-21753767D01*
X50676509Y-21753235D01*
X50112129Y-21986432D01*
X49679949Y-22417857D01*
X49445767Y-22981830D01*
X49445235Y-23592491D01*
X46249348Y-23592491D01*
X46164056Y-23507051D01*
X45762772Y-23340423D01*
X45328268Y-23340044D01*
X44928238Y-23505333D01*
X34611573Y-23505333D01*
X33628169Y-22521928D01*
X33327396Y-22320958D01*
X32972610Y-22250387D01*
X31060790Y-22250387D01*
X30706004Y-22320958D01*
X30405231Y-22521928D01*
X29104759Y-23822400D01*
X22521617Y-23822400D01*
X22721233Y-23341670D01*
X22721765Y-22731009D01*
X22488568Y-22166629D01*
X22057143Y-21734449D01*
X21493170Y-21500267D01*
X20882509Y-21499735D01*
X20318129Y-21732932D01*
X19885949Y-22164357D01*
X19651767Y-22728330D01*
X19651235Y-23338991D01*
X19850975Y-23822400D01*
X11933852Y-23822400D01*
X11536705Y-23657490D01*
X11102201Y-23657111D01*
X10804106Y-23780281D01*
X10986233Y-23341670D01*
X10986765Y-22731009D01*
X10753568Y-22166629D01*
X10322143Y-21734449D01*
X9758170Y-21500267D01*
X9147509Y-21499735D01*
X8583129Y-21732932D01*
X8150949Y-22164357D01*
X7916767Y-22728330D01*
X7916725Y-22776662D01*
X7061751Y-21920194D01*
X5726218Y-21365632D01*
X4280126Y-21364370D01*
X2943628Y-21916600D01*
X1920194Y-22938249D01*
X1365632Y-24273782D01*
X1364370Y-25719874D01*
X685000Y-25719874D01*
X685000Y-14830434D01*
X4611876Y-14830434D01*
X4642856Y-14958355D01*
X4956078Y-15516317D01*
X5458980Y-15911942D01*
X6075000Y-16085000D01*
X6575000Y-16085000D01*
X6575000Y-14577000D01*
X6829000Y-14577000D01*
X6829000Y-16085000D01*
X7329000Y-16085000D01*
X7945020Y-15911942D01*
X8447922Y-15516317D01*
X8761144Y-14958355D01*
X8792124Y-14830434D01*
X8672777Y-14577000D01*
X6829000Y-14577000D01*
X6575000Y-14577000D01*
X4731223Y-14577000D01*
X4611876Y-14830434D01*
X685000Y-14830434D01*
X685000Y-14069566D01*
X4611876Y-14069566D01*
X4731223Y-14323000D01*
X6575000Y-14323000D01*
X6575000Y-12815000D01*
X6829000Y-12815000D01*
X6829000Y-14323000D01*
X8672777Y-14323000D01*
X8792124Y-14069566D01*
X8761144Y-13941645D01*
X8447922Y-13383683D01*
X7945020Y-12988058D01*
X7329000Y-12815000D01*
X6829000Y-12815000D01*
X6575000Y-12815000D01*
X6075000Y-12815000D01*
X5458980Y-12988058D01*
X4956078Y-13383683D01*
X4642856Y-13941645D01*
X4611876Y-14069566D01*
X685000Y-14069566D01*
X685000Y-10950000D01*
X4525173Y-10950000D01*
X4649630Y-11575687D01*
X5004053Y-12106120D01*
X5534486Y-12460543D01*
X6160173Y-12585000D01*
X7243827Y-12585000D01*
X7869514Y-12460543D01*
X8399947Y-12106120D01*
X8754370Y-11575687D01*
X8878827Y-10950000D01*
X8754370Y-10324313D01*
X8399947Y-9793880D01*
X7869514Y-9439457D01*
X7243827Y-9315000D01*
X6160173Y-9315000D01*
X5534486Y-9439457D01*
X5004053Y-9793880D01*
X4649630Y-10324313D01*
X4525173Y-10950000D01*
X685000Y-10950000D01*
X685000Y-6604000D01*
X14351000Y-6604000D01*
X14581795Y-6560573D01*
X14793767Y-6424173D01*
X14935971Y-6216051D01*
X14986000Y-5969000D01*
X14986000Y-4191000D01*
X15789097Y-4191000D01*
X15682356Y-4381145D01*
X15682356Y-4381145D01*
G37*
X15682356Y-4381145D02*
X15651376Y-4509066D01*
X15770723Y-4762500D01*
X17414500Y-4762500D01*
X17414500Y-4742500D01*
X17668500Y-4742500D01*
X17668500Y-4762500D01*
X17688500Y-4762500D01*
X17688500Y-5016500D01*
X17668500Y-5016500D01*
X17668500Y-5036500D01*
X17414500Y-5036500D01*
X17414500Y-5016500D01*
X15770723Y-5016500D01*
X15651376Y-5269934D01*
X15682356Y-5397855D01*
X15995578Y-5955817D01*
X16237688Y-6146281D01*
X16047471Y-6273380D01*
X15693048Y-6803813D01*
X15568591Y-7429500D01*
X15693048Y-8055187D01*
X16047471Y-8585620D01*
X16577904Y-8940043D01*
X17203591Y-9064500D01*
X17769106Y-9064500D01*
X17329803Y-9503803D01*
X17148104Y-9775734D01*
X17109562Y-9969500D01*
X17084300Y-10096500D01*
X17084300Y-16120981D01*
X16997118Y-16208011D01*
X16830490Y-16609295D01*
X16830147Y-17002489D01*
X15280911Y-17002489D01*
X14999026Y-17058559D01*
X14760056Y-17218234D01*
X14099446Y-17878844D01*
X13832701Y-17878611D01*
X13642600Y-17957159D01*
X13642600Y-11318500D01*
X13572029Y-10963714D01*
X13371059Y-10662941D01*
X11758678Y-9050560D01*
X11594462Y-8653127D01*
X11287489Y-8345618D01*
X10886205Y-8178990D01*
X10451701Y-8178611D01*
X10050127Y-8344538D01*
X9742618Y-8651511D01*
X9575990Y-9052795D01*
X9575611Y-9487299D01*
X9741538Y-9888873D01*
X10048511Y-10196382D01*
X10448251Y-10362369D01*
X11788400Y-11702518D01*
X11788400Y-18292148D01*
X11623490Y-18689295D01*
X11623111Y-19123799D01*
X11788400Y-19523829D01*
X11788400Y-19554078D01*
X11858971Y-19908864D01*
X12059941Y-20209637D01*
X12810363Y-20960059D01*
X13111136Y-21161029D01*
X13465922Y-21231600D01*
X32978172Y-21231600D01*
X33951231Y-22204659D01*
X34252004Y-22405629D01*
X34606790Y-22476200D01*
X44408948Y-22476200D01*
X44806095Y-22641110D01*
X45240599Y-22641489D01*
X45642173Y-22475562D01*
X45949682Y-22168589D01*
X46116310Y-21767305D01*
X46116598Y-21437624D01*
X56339976Y-21437624D01*
X56621861Y-21381554D01*
X56860831Y-21221879D01*
X57940554Y-20142156D01*
X58207299Y-20142389D01*
X58608873Y-19976462D01*
X58799067Y-19786600D01*
X60277000Y-19786600D01*
X60558885Y-19730530D01*
X60797855Y-19570855D01*
X62829855Y-17538855D01*
X62989530Y-17299885D01*
X63045600Y-17018000D01*
X63045600Y-16387440D01*
X63059000Y-16387440D01*
X63294317Y-16343162D01*
X63510441Y-16204090D01*
X63655431Y-15991890D01*
X63706440Y-15740000D01*
X63706440Y-14740000D01*
X63680105Y-14600044D01*
X63706440Y-14470000D01*
X63706440Y-13470000D01*
X63662162Y-13234683D01*
X63523090Y-13018559D01*
X63452001Y-12969986D01*
X63452001Y-9691593D01*
X63821712Y-9321882D01*
X63910000Y-9321959D01*
X63910000Y-22312373D01*
X63586143Y-21987949D01*
X63022170Y-21753767D01*
X62411509Y-21753235D01*
X61847129Y-21986432D01*
X61414949Y-22417857D01*
X61180767Y-22981830D01*
X61180235Y-23592491D01*
X61413432Y-24156871D01*
X61844857Y-24589051D01*
X62408830Y-24823233D01*
X63019491Y-24823765D01*
X63583871Y-24590568D01*
X63910000Y-24265009D01*
X63910000Y-29160000D01*
X685000Y-29160000D01*
X685000Y-25719874D01*
X1364370Y-25719874D01*
X1916600Y-27056372D01*
X2938249Y-28079806D01*
X4273782Y-28634368D01*
X5719874Y-28635630D01*
X7056372Y-28083400D01*
X8079806Y-27061751D01*
X8634368Y-25726218D01*
X8635562Y-24358266D01*
X9144830Y-24569733D01*
X9755491Y-24570265D01*
X10304504Y-24343418D01*
X10226490Y-24531295D01*
X10226111Y-24965799D01*
X10392038Y-25367373D01*
X10699011Y-25674882D01*
X11100295Y-25841510D01*
X11534799Y-25841889D01*
X11934829Y-25676600D01*
X14493190Y-25676600D01*
X14099446Y-26070344D01*
X13832701Y-26070111D01*
X13431127Y-26236038D01*
X13123618Y-26543011D01*
X12956990Y-26944295D01*
X12956611Y-27378799D01*
X13122538Y-27780373D01*
X13429511Y-28087882D01*
X13830795Y-28254510D01*
X14265299Y-28254889D01*
X14645865Y-28097642D01*
X14699511Y-28151382D01*
X15100795Y-28318010D01*
X15535299Y-28318389D01*
X15936873Y-28152462D01*
X15953760Y-28135604D01*
X15969511Y-28151382D01*
X16370795Y-28318010D01*
X16805299Y-28318389D01*
X17206873Y-28152462D01*
X17397067Y-27962600D01*
X37588890Y-27962600D01*
X37893844Y-28267554D01*
X38132814Y-28427229D01*
X38414699Y-28483299D01*
X57597301Y-28483299D01*
X57879186Y-28427229D01*
X57947464Y-28381607D01*
X58270799Y-28381889D01*
X58672373Y-28215962D01*
X58979882Y-27908989D01*
X59146510Y-27507705D01*
X59146889Y-27073201D01*
X58980962Y-26671627D01*
X58673989Y-26364118D01*
X58272705Y-26197490D01*
X57838201Y-26197111D01*
X57436627Y-26363038D01*
X57129118Y-26670011D01*
X56987901Y-27010099D01*
X38719809Y-27010099D01*
X38414855Y-26705145D01*
X38175885Y-26545470D01*
X37894000Y-26489400D01*
X35328910Y-26489400D01*
X35141085Y-26301575D01*
X42630588Y-26301575D01*
X42819041Y-26490357D01*
X43220325Y-26656985D01*
X43654829Y-26657364D01*
X44056403Y-26491437D01*
X44363912Y-26184464D01*
X44530540Y-25783180D01*
X44530910Y-25359533D01*
X44929215Y-25359533D01*
X45326362Y-25524443D01*
X45760866Y-25524822D01*
X46162440Y-25358895D01*
X46469949Y-25051922D01*
X46636577Y-24650638D01*
X46636956Y-24216134D01*
X46471029Y-23814560D01*
X46249348Y-23592491D01*
X49445235Y-23592491D01*
X49678432Y-24156871D01*
X50109857Y-24589051D01*
X50673830Y-24823233D01*
X51284491Y-24823765D01*
X51848871Y-24590568D01*
X52281051Y-24159143D01*
X52515233Y-23595170D01*
X52515765Y-22984509D01*
X52282568Y-22420129D01*
X51851143Y-21987949D01*
X51287170Y-21753767D01*
X50676509Y-21753235D01*
X50112129Y-21986432D01*
X49679949Y-22417857D01*
X49445767Y-22981830D01*
X49445235Y-23592491D01*
X46249348Y-23592491D01*
X46164056Y-23507051D01*
X45762772Y-23340423D01*
X45328268Y-23340044D01*
X44928238Y-23505333D01*
X34611573Y-23505333D01*
X33628169Y-22521928D01*
X33327396Y-22320958D01*
X32972610Y-22250387D01*
X31060790Y-22250387D01*
X30706004Y-22320958D01*
X30405231Y-22521928D01*
X29104759Y-23822400D01*
X22521617Y-23822400D01*
X22721233Y-23341670D01*
X22721765Y-22731009D01*
X22488568Y-22166629D01*
X22057143Y-21734449D01*
X21493170Y-21500267D01*
X20882509Y-21499735D01*
X20318129Y-21732932D01*
X19885949Y-22164357D01*
X19651767Y-22728330D01*
X19651235Y-23338991D01*
X19850975Y-23822400D01*
X11933852Y-23822400D01*
X11536705Y-23657490D01*
X11102201Y-23657111D01*
X10804106Y-23780281D01*
X10986233Y-23341670D01*
X10986765Y-22731009D01*
X10753568Y-22166629D01*
X10322143Y-21734449D01*
X9758170Y-21500267D01*
X9147509Y-21499735D01*
X8583129Y-21732932D01*
X8150949Y-22164357D01*
X7916767Y-22728330D01*
X7916725Y-22776662D01*
X7061751Y-21920194D01*
X5726218Y-21365632D01*
X4280126Y-21364370D01*
X2943628Y-21916600D01*
X1920194Y-22938249D01*
X1365632Y-24273782D01*
X1364370Y-25719874D01*
X685000Y-25719874D01*
X685000Y-14830434D01*
X4611876Y-14830434D01*
X4642856Y-14958355D01*
X4956078Y-15516317D01*
X5458980Y-15911942D01*
X6075000Y-16085000D01*
X6575000Y-16085000D01*
X6575000Y-14577000D01*
X6829000Y-14577000D01*
X6829000Y-16085000D01*
X7329000Y-16085000D01*
X7945020Y-15911942D01*
X8447922Y-15516317D01*
X8761144Y-14958355D01*
X8792124Y-14830434D01*
X8672777Y-14577000D01*
X6829000Y-14577000D01*
X6575000Y-14577000D01*
X4731223Y-14577000D01*
X4611876Y-14830434D01*
X685000Y-14830434D01*
X685000Y-14069566D01*
X4611876Y-14069566D01*
X4731223Y-14323000D01*
X6575000Y-14323000D01*
X6575000Y-12815000D01*
X6829000Y-12815000D01*
X6829000Y-14323000D01*
X8672777Y-14323000D01*
X8792124Y-14069566D01*
X8761144Y-13941645D01*
X8447922Y-13383683D01*
X7945020Y-12988058D01*
X7329000Y-12815000D01*
X6829000Y-12815000D01*
X6575000Y-12815000D01*
X6075000Y-12815000D01*
X5458980Y-12988058D01*
X4956078Y-13383683D01*
X4642856Y-13941645D01*
X4611876Y-14069566D01*
X685000Y-14069566D01*
X685000Y-10950000D01*
X4525173Y-10950000D01*
X4649630Y-11575687D01*
X5004053Y-12106120D01*
X5534486Y-12460543D01*
X6160173Y-12585000D01*
X7243827Y-12585000D01*
X7869514Y-12460543D01*
X8399947Y-12106120D01*
X8754370Y-11575687D01*
X8878827Y-10950000D01*
X8754370Y-10324313D01*
X8399947Y-9793880D01*
X7869514Y-9439457D01*
X7243827Y-9315000D01*
X6160173Y-9315000D01*
X5534486Y-9439457D01*
X5004053Y-9793880D01*
X4649630Y-10324313D01*
X4525173Y-10950000D01*
X685000Y-10950000D01*
X685000Y-6604000D01*
X14351000Y-6604000D01*
X14581795Y-6560573D01*
X14793767Y-6424173D01*
X14935971Y-6216051D01*
X14986000Y-5969000D01*
X14986000Y-4191000D01*
X15789097Y-4191000D01*
X15682356Y-4381145D01*
G36*
X58354356Y-4381145D02*
X58323376Y-4509066D01*
X58442723Y-4762500D01*
X60086500Y-4762500D01*
X60086500Y-4742500D01*
X60340500Y-4742500D01*
X60340500Y-4762500D01*
X60360500Y-4762500D01*
X60360500Y-5016500D01*
X60340500Y-5016500D01*
X60340500Y-5036500D01*
X60086500Y-5036500D01*
X60086500Y-5016500D01*
X58442723Y-5016500D01*
X58323376Y-5269934D01*
X58354356Y-5397855D01*
X58667578Y-5955817D01*
X58909688Y-6146281D01*
X58719471Y-6273380D01*
X58365048Y-6803813D01*
X58240591Y-7429500D01*
X58365048Y-8055187D01*
X58719471Y-8585620D01*
X59249904Y-8940043D01*
X59875591Y-9064500D01*
X60441106Y-9064500D01*
X60128803Y-9376803D01*
X59947104Y-9648734D01*
X59946454Y-9652001D01*
X59883300Y-9969500D01*
X59883300Y-15765577D01*
X59820104Y-15860156D01*
X59773865Y-16092618D01*
X59771177Y-16106130D01*
X59669118Y-16208011D01*
X59502490Y-16609295D01*
X59502111Y-17043799D01*
X59668038Y-17445373D01*
X59975011Y-17752882D01*
X60368865Y-17916425D01*
X59971890Y-18313400D01*
X58798942Y-18313400D01*
X58610489Y-18124618D01*
X58209205Y-17957990D01*
X57774701Y-17957611D01*
X57373127Y-18123538D01*
X57065618Y-18430511D01*
X56898990Y-18831795D01*
X56898756Y-19100534D01*
X56034866Y-19964424D01*
X37440601Y-19964424D01*
X38078425Y-19326600D01*
X54969900Y-19326600D01*
X55251785Y-19270530D01*
X55396059Y-19174129D01*
X55694199Y-19174389D01*
X56095773Y-19008462D01*
X56403282Y-18701489D01*
X56569910Y-18300205D01*
X56570289Y-17865701D01*
X56404362Y-17464127D01*
X56214500Y-17273933D01*
X56214500Y-16449453D01*
X56398441Y-16331090D01*
X56543431Y-16118890D01*
X56594440Y-15867000D01*
X56594440Y-14867000D01*
X56568105Y-14727044D01*
X56594440Y-14597000D01*
X56594440Y-13597000D01*
X56550162Y-13361683D01*
X56411090Y-13145559D01*
X56198890Y-13000569D01*
X55959000Y-12951990D01*
X55959000Y-11506200D01*
X56175299Y-11506389D01*
X56576873Y-11340462D01*
X56884382Y-11033489D01*
X57051010Y-10632205D01*
X57051389Y-10197701D01*
X56885462Y-9796127D01*
X56578489Y-9488618D01*
X56247952Y-9351367D01*
X56289200Y-9144000D01*
X56289200Y-4191000D01*
X58461097Y-4191000D01*
X58354356Y-4381145D01*
X58354356Y-4381145D01*
G37*
X58354356Y-4381145D02*
X58323376Y-4509066D01*
X58442723Y-4762500D01*
X60086500Y-4762500D01*
X60086500Y-4742500D01*
X60340500Y-4742500D01*
X60340500Y-4762500D01*
X60360500Y-4762500D01*
X60360500Y-5016500D01*
X60340500Y-5016500D01*
X60340500Y-5036500D01*
X60086500Y-5036500D01*
X60086500Y-5016500D01*
X58442723Y-5016500D01*
X58323376Y-5269934D01*
X58354356Y-5397855D01*
X58667578Y-5955817D01*
X58909688Y-6146281D01*
X58719471Y-6273380D01*
X58365048Y-6803813D01*
X58240591Y-7429500D01*
X58365048Y-8055187D01*
X58719471Y-8585620D01*
X59249904Y-8940043D01*
X59875591Y-9064500D01*
X60441106Y-9064500D01*
X60128803Y-9376803D01*
X59947104Y-9648734D01*
X59946454Y-9652001D01*
X59883300Y-9969500D01*
X59883300Y-15765577D01*
X59820104Y-15860156D01*
X59773865Y-16092618D01*
X59771177Y-16106130D01*
X59669118Y-16208011D01*
X59502490Y-16609295D01*
X59502111Y-17043799D01*
X59668038Y-17445373D01*
X59975011Y-17752882D01*
X60368865Y-17916425D01*
X59971890Y-18313400D01*
X58798942Y-18313400D01*
X58610489Y-18124618D01*
X58209205Y-17957990D01*
X57774701Y-17957611D01*
X57373127Y-18123538D01*
X57065618Y-18430511D01*
X56898990Y-18831795D01*
X56898756Y-19100534D01*
X56034866Y-19964424D01*
X37440601Y-19964424D01*
X38078425Y-19326600D01*
X54969900Y-19326600D01*
X55251785Y-19270530D01*
X55396059Y-19174129D01*
X55694199Y-19174389D01*
X56095773Y-19008462D01*
X56403282Y-18701489D01*
X56569910Y-18300205D01*
X56570289Y-17865701D01*
X56404362Y-17464127D01*
X56214500Y-17273933D01*
X56214500Y-16449453D01*
X56398441Y-16331090D01*
X56543431Y-16118890D01*
X56594440Y-15867000D01*
X56594440Y-14867000D01*
X56568105Y-14727044D01*
X56594440Y-14597000D01*
X56594440Y-13597000D01*
X56550162Y-13361683D01*
X56411090Y-13145559D01*
X56198890Y-13000569D01*
X55959000Y-12951990D01*
X55959000Y-11506200D01*
X56175299Y-11506389D01*
X56576873Y-11340462D01*
X56884382Y-11033489D01*
X57051010Y-10632205D01*
X57051389Y-10197701D01*
X56885462Y-9796127D01*
X56578489Y-9488618D01*
X56247952Y-9351367D01*
X56289200Y-9144000D01*
X56289200Y-4191000D01*
X58461097Y-4191000D01*
X58354356Y-4381145D01*
G36*
X37018356Y-4381145D02*
X36987376Y-4509066D01*
X37106723Y-4762500D01*
X38750500Y-4762500D01*
X38750500Y-4742500D01*
X39004500Y-4742500D01*
X39004500Y-4762500D01*
X39024500Y-4762500D01*
X39024500Y-5016500D01*
X39004500Y-5016500D01*
X39004500Y-5036500D01*
X38750500Y-5036500D01*
X38750500Y-5016500D01*
X37106723Y-5016500D01*
X36987376Y-5269934D01*
X37018356Y-5397855D01*
X37331578Y-5955817D01*
X37573688Y-6146281D01*
X37383471Y-6273380D01*
X37029048Y-6803813D01*
X36904591Y-7429500D01*
X37029048Y-8055187D01*
X37383471Y-8585620D01*
X37913904Y-8940043D01*
X38539591Y-9064500D01*
X39215409Y-9064500D01*
X39394786Y-9028820D01*
X38665803Y-9757803D01*
X38484104Y-10029734D01*
X38435457Y-10274300D01*
X38420300Y-10350500D01*
X38420300Y-16120981D01*
X38333118Y-16208011D01*
X38166490Y-16609295D01*
X38166111Y-17043799D01*
X38316968Y-17408900D01*
X37643064Y-17408900D01*
X37361179Y-17464970D01*
X37122209Y-17624645D01*
X36299069Y-18447785D01*
X36077889Y-18226218D01*
X35676605Y-18059590D01*
X35407866Y-18059356D01*
X34597600Y-17249090D01*
X34597600Y-16514440D01*
X34611000Y-16514440D01*
X34846317Y-16470162D01*
X35062441Y-16331090D01*
X35207431Y-16118890D01*
X35258440Y-15867000D01*
X35258440Y-14867000D01*
X35232105Y-14727044D01*
X35258440Y-14597000D01*
X35258440Y-13597000D01*
X35214162Y-13361683D01*
X35075090Y-13145559D01*
X34862890Y-13000569D01*
X34623000Y-12951990D01*
X34623000Y-11506200D01*
X34839299Y-11506389D01*
X35240873Y-11340462D01*
X35548382Y-11033489D01*
X35715010Y-10632205D01*
X35715389Y-10197701D01*
X35549462Y-9796127D01*
X35242489Y-9488618D01*
X34841205Y-9321990D01*
X34406701Y-9321611D01*
X34005127Y-9487538D01*
X33697618Y-9794511D01*
X33530990Y-10195795D01*
X33530787Y-10428583D01*
X33322185Y-10637185D01*
X33157004Y-10884395D01*
X33099000Y-11176000D01*
X33099000Y-12951818D01*
X32984700Y-12973325D01*
X32984700Y-10443694D01*
X34453697Y-8974697D01*
X34635396Y-8702766D01*
X34699200Y-8382000D01*
X34699200Y-4191000D01*
X37125097Y-4191000D01*
X37018356Y-4381145D01*
X37018356Y-4381145D01*
G37*
X37018356Y-4381145D02*
X36987376Y-4509066D01*
X37106723Y-4762500D01*
X38750500Y-4762500D01*
X38750500Y-4742500D01*
X39004500Y-4742500D01*
X39004500Y-4762500D01*
X39024500Y-4762500D01*
X39024500Y-5016500D01*
X39004500Y-5016500D01*
X39004500Y-5036500D01*
X38750500Y-5036500D01*
X38750500Y-5016500D01*
X37106723Y-5016500D01*
X36987376Y-5269934D01*
X37018356Y-5397855D01*
X37331578Y-5955817D01*
X37573688Y-6146281D01*
X37383471Y-6273380D01*
X37029048Y-6803813D01*
X36904591Y-7429500D01*
X37029048Y-8055187D01*
X37383471Y-8585620D01*
X37913904Y-8940043D01*
X38539591Y-9064500D01*
X39215409Y-9064500D01*
X39394786Y-9028820D01*
X38665803Y-9757803D01*
X38484104Y-10029734D01*
X38435457Y-10274300D01*
X38420300Y-10350500D01*
X38420300Y-16120981D01*
X38333118Y-16208011D01*
X38166490Y-16609295D01*
X38166111Y-17043799D01*
X38316968Y-17408900D01*
X37643064Y-17408900D01*
X37361179Y-17464970D01*
X37122209Y-17624645D01*
X36299069Y-18447785D01*
X36077889Y-18226218D01*
X35676605Y-18059590D01*
X35407866Y-18059356D01*
X34597600Y-17249090D01*
X34597600Y-16514440D01*
X34611000Y-16514440D01*
X34846317Y-16470162D01*
X35062441Y-16331090D01*
X35207431Y-16118890D01*
X35258440Y-15867000D01*
X35258440Y-14867000D01*
X35232105Y-14727044D01*
X35258440Y-14597000D01*
X35258440Y-13597000D01*
X35214162Y-13361683D01*
X35075090Y-13145559D01*
X34862890Y-13000569D01*
X34623000Y-12951990D01*
X34623000Y-11506200D01*
X34839299Y-11506389D01*
X35240873Y-11340462D01*
X35548382Y-11033489D01*
X35715010Y-10632205D01*
X35715389Y-10197701D01*
X35549462Y-9796127D01*
X35242489Y-9488618D01*
X34841205Y-9321990D01*
X34406701Y-9321611D01*
X34005127Y-9487538D01*
X33697618Y-9794511D01*
X33530990Y-10195795D01*
X33530787Y-10428583D01*
X33322185Y-10637185D01*
X33157004Y-10884395D01*
X33099000Y-11176000D01*
X33099000Y-12951818D01*
X32984700Y-12973325D01*
X32984700Y-10443694D01*
X34453697Y-8974697D01*
X34635396Y-8702766D01*
X34699200Y-8382000D01*
X34699200Y-4191000D01*
X37125097Y-4191000D01*
X37018356Y-4381145D01*
G36*
X51242356Y-4381145D02*
X51211376Y-4509066D01*
X51330723Y-4762500D01*
X52974500Y-4762500D01*
X52974500Y-4742500D01*
X53228500Y-4742500D01*
X53228500Y-4762500D01*
X53248500Y-4762500D01*
X53248500Y-5016500D01*
X53228500Y-5016500D01*
X53228500Y-5036500D01*
X52974500Y-5036500D01*
X52974500Y-5016500D01*
X51330723Y-5016500D01*
X51211376Y-5269934D01*
X51242356Y-5397855D01*
X51555578Y-5955817D01*
X51797688Y-6146281D01*
X51607471Y-6273380D01*
X51253048Y-6803813D01*
X51128591Y-7429500D01*
X51253048Y-8055187D01*
X51607471Y-8585620D01*
X52137904Y-8940043D01*
X52763591Y-9064500D01*
X53439409Y-9064500D01*
X54065096Y-8940043D01*
X54595529Y-8585620D01*
X54612800Y-8559772D01*
X54612800Y-8796806D01*
X52889803Y-10519803D01*
X52708104Y-10791734D01*
X52677976Y-10943197D01*
X52644300Y-11112500D01*
X52644300Y-16120981D01*
X52557118Y-16208011D01*
X52390490Y-16609295D01*
X52390111Y-17043799D01*
X52556038Y-17445373D01*
X52863011Y-17752882D01*
X53105085Y-17853400D01*
X48794094Y-17853400D01*
X49010382Y-17637489D01*
X49177010Y-17236205D01*
X49177389Y-16801701D01*
X49042558Y-16475385D01*
X49070317Y-16470162D01*
X49286441Y-16331090D01*
X49431431Y-16118890D01*
X49482440Y-15867000D01*
X49482440Y-14867000D01*
X49456105Y-14727044D01*
X49482440Y-14597000D01*
X49482440Y-13597000D01*
X49438162Y-13361683D01*
X49299090Y-13145559D01*
X49086890Y-13000569D01*
X48835000Y-12949560D01*
X48821600Y-12949560D01*
X48821600Y-11481110D01*
X49050554Y-11252156D01*
X49317299Y-11252389D01*
X49718873Y-11086462D01*
X50026382Y-10779489D01*
X50193010Y-10378205D01*
X50193389Y-9943701D01*
X50027462Y-9542127D01*
X49720489Y-9234618D01*
X49319205Y-9067990D01*
X48884701Y-9067611D01*
X48806451Y-9099943D01*
X48931697Y-8974697D01*
X48970774Y-8916214D01*
X49113396Y-8702765D01*
X49177200Y-8382000D01*
X49177200Y-4191000D01*
X51349097Y-4191000D01*
X51242356Y-4381145D01*
X51242356Y-4381145D01*
G37*
X51242356Y-4381145D02*
X51211376Y-4509066D01*
X51330723Y-4762500D01*
X52974500Y-4762500D01*
X52974500Y-4742500D01*
X53228500Y-4742500D01*
X53228500Y-4762500D01*
X53248500Y-4762500D01*
X53248500Y-5016500D01*
X53228500Y-5016500D01*
X53228500Y-5036500D01*
X52974500Y-5036500D01*
X52974500Y-5016500D01*
X51330723Y-5016500D01*
X51211376Y-5269934D01*
X51242356Y-5397855D01*
X51555578Y-5955817D01*
X51797688Y-6146281D01*
X51607471Y-6273380D01*
X51253048Y-6803813D01*
X51128591Y-7429500D01*
X51253048Y-8055187D01*
X51607471Y-8585620D01*
X52137904Y-8940043D01*
X52763591Y-9064500D01*
X53439409Y-9064500D01*
X54065096Y-8940043D01*
X54595529Y-8585620D01*
X54612800Y-8559772D01*
X54612800Y-8796806D01*
X52889803Y-10519803D01*
X52708104Y-10791734D01*
X52677976Y-10943197D01*
X52644300Y-11112500D01*
X52644300Y-16120981D01*
X52557118Y-16208011D01*
X52390490Y-16609295D01*
X52390111Y-17043799D01*
X52556038Y-17445373D01*
X52863011Y-17752882D01*
X53105085Y-17853400D01*
X48794094Y-17853400D01*
X49010382Y-17637489D01*
X49177010Y-17236205D01*
X49177389Y-16801701D01*
X49042558Y-16475385D01*
X49070317Y-16470162D01*
X49286441Y-16331090D01*
X49431431Y-16118890D01*
X49482440Y-15867000D01*
X49482440Y-14867000D01*
X49456105Y-14727044D01*
X49482440Y-14597000D01*
X49482440Y-13597000D01*
X49438162Y-13361683D01*
X49299090Y-13145559D01*
X49086890Y-13000569D01*
X48835000Y-12949560D01*
X48821600Y-12949560D01*
X48821600Y-11481110D01*
X49050554Y-11252156D01*
X49317299Y-11252389D01*
X49718873Y-11086462D01*
X50026382Y-10779489D01*
X50193010Y-10378205D01*
X50193389Y-9943701D01*
X50027462Y-9542127D01*
X49720489Y-9234618D01*
X49319205Y-9067990D01*
X48884701Y-9067611D01*
X48806451Y-9099943D01*
X48931697Y-8974697D01*
X48970774Y-8916214D01*
X49113396Y-8702765D01*
X49177200Y-8382000D01*
X49177200Y-4191000D01*
X51349097Y-4191000D01*
X51242356Y-4381145D01*
G36*
X22794356Y-4381145D02*
X22763376Y-4509066D01*
X22882723Y-4762500D01*
X24526500Y-4762500D01*
X24526500Y-4742500D01*
X24780500Y-4742500D01*
X24780500Y-4762500D01*
X24800500Y-4762500D01*
X24800500Y-5016500D01*
X24780500Y-5016500D01*
X24780500Y-5036500D01*
X24526500Y-5036500D01*
X24526500Y-5016500D01*
X22882723Y-5016500D01*
X22763376Y-5269934D01*
X22794356Y-5397855D01*
X23107578Y-5955817D01*
X23349688Y-6146281D01*
X23159471Y-6273380D01*
X22805048Y-6803813D01*
X22680591Y-7429500D01*
X22805048Y-8055187D01*
X23159471Y-8585620D01*
X23689904Y-8940043D01*
X24315591Y-9064500D01*
X24881106Y-9064500D01*
X24441803Y-9503803D01*
X24260104Y-9775734D01*
X24221562Y-9969500D01*
X24196300Y-10096500D01*
X24196300Y-16120981D01*
X24109118Y-16208011D01*
X23942490Y-16609295D01*
X23942111Y-17043799D01*
X24092968Y-17408900D01*
X21399762Y-17408900D01*
X21396945Y-17409460D01*
X21373462Y-17352627D01*
X21066489Y-17045118D01*
X20665205Y-16878490D01*
X20396466Y-16878256D01*
X20373600Y-16855390D01*
X20373600Y-16514440D01*
X20387000Y-16514440D01*
X20622317Y-16470162D01*
X20838441Y-16331090D01*
X20983431Y-16118890D01*
X21034440Y-15867000D01*
X21034440Y-14867000D01*
X21008105Y-14727044D01*
X21034440Y-14597000D01*
X21034440Y-13597000D01*
X20990162Y-13361683D01*
X20851090Y-13145559D01*
X20638890Y-13000569D01*
X20399000Y-12951990D01*
X20399000Y-11491630D01*
X20638442Y-11252188D01*
X20869299Y-11252389D01*
X21270873Y-11086462D01*
X21578382Y-10779489D01*
X21745010Y-10378205D01*
X21745389Y-9943701D01*
X21579462Y-9542127D01*
X21272489Y-9234618D01*
X20871205Y-9067990D01*
X20436701Y-9067611D01*
X20035127Y-9233538D01*
X19727618Y-9540511D01*
X19560990Y-9941795D01*
X19560787Y-10174583D01*
X19098185Y-10637185D01*
X18933004Y-10884395D01*
X18875000Y-11176000D01*
X18875000Y-12951818D01*
X18760700Y-12973325D01*
X18760700Y-10443694D01*
X20737697Y-8466697D01*
X20919396Y-8194765D01*
X20983200Y-7874000D01*
X20983200Y-4191000D01*
X22901097Y-4191000D01*
X22794356Y-4381145D01*
X22794356Y-4381145D01*
G37*
X22794356Y-4381145D02*
X22763376Y-4509066D01*
X22882723Y-4762500D01*
X24526500Y-4762500D01*
X24526500Y-4742500D01*
X24780500Y-4742500D01*
X24780500Y-4762500D01*
X24800500Y-4762500D01*
X24800500Y-5016500D01*
X24780500Y-5016500D01*
X24780500Y-5036500D01*
X24526500Y-5036500D01*
X24526500Y-5016500D01*
X22882723Y-5016500D01*
X22763376Y-5269934D01*
X22794356Y-5397855D01*
X23107578Y-5955817D01*
X23349688Y-6146281D01*
X23159471Y-6273380D01*
X22805048Y-6803813D01*
X22680591Y-7429500D01*
X22805048Y-8055187D01*
X23159471Y-8585620D01*
X23689904Y-8940043D01*
X24315591Y-9064500D01*
X24881106Y-9064500D01*
X24441803Y-9503803D01*
X24260104Y-9775734D01*
X24221562Y-9969500D01*
X24196300Y-10096500D01*
X24196300Y-16120981D01*
X24109118Y-16208011D01*
X23942490Y-16609295D01*
X23942111Y-17043799D01*
X24092968Y-17408900D01*
X21399762Y-17408900D01*
X21396945Y-17409460D01*
X21373462Y-17352627D01*
X21066489Y-17045118D01*
X20665205Y-16878490D01*
X20396466Y-16878256D01*
X20373600Y-16855390D01*
X20373600Y-16514440D01*
X20387000Y-16514440D01*
X20622317Y-16470162D01*
X20838441Y-16331090D01*
X20983431Y-16118890D01*
X21034440Y-15867000D01*
X21034440Y-14867000D01*
X21008105Y-14727044D01*
X21034440Y-14597000D01*
X21034440Y-13597000D01*
X20990162Y-13361683D01*
X20851090Y-13145559D01*
X20638890Y-13000569D01*
X20399000Y-12951990D01*
X20399000Y-11491630D01*
X20638442Y-11252188D01*
X20869299Y-11252389D01*
X21270873Y-11086462D01*
X21578382Y-10779489D01*
X21745010Y-10378205D01*
X21745389Y-9943701D01*
X21579462Y-9542127D01*
X21272489Y-9234618D01*
X20871205Y-9067990D01*
X20436701Y-9067611D01*
X20035127Y-9233538D01*
X19727618Y-9540511D01*
X19560990Y-9941795D01*
X19560787Y-10174583D01*
X19098185Y-10637185D01*
X18933004Y-10884395D01*
X18875000Y-11176000D01*
X18875000Y-12951818D01*
X18760700Y-12973325D01*
X18760700Y-10443694D01*
X20737697Y-8466697D01*
X20919396Y-8194765D01*
X20983200Y-7874000D01*
X20983200Y-4191000D01*
X22901097Y-4191000D01*
X22794356Y-4381145D01*
G36*
X44130356Y-4381145D02*
X44099376Y-4509066D01*
X44218723Y-4762500D01*
X45862500Y-4762500D01*
X45862500Y-4742500D01*
X46116500Y-4742500D01*
X46116500Y-4762500D01*
X46136500Y-4762500D01*
X46136500Y-5016500D01*
X46116500Y-5016500D01*
X46116500Y-5036500D01*
X45862500Y-5036500D01*
X45862500Y-5016500D01*
X44218723Y-5016500D01*
X44099376Y-5269934D01*
X44130356Y-5397855D01*
X44443578Y-5955817D01*
X44685688Y-6146281D01*
X44495471Y-6273380D01*
X44141048Y-6803813D01*
X44016591Y-7429500D01*
X44141048Y-8055187D01*
X44495471Y-8585620D01*
X45025904Y-8940043D01*
X45651591Y-9064500D01*
X46327409Y-9064500D01*
X46506786Y-9028820D01*
X45777803Y-9757803D01*
X45596104Y-10029734D01*
X45547457Y-10274300D01*
X45532300Y-10350500D01*
X45532300Y-16120981D01*
X45445118Y-16208011D01*
X45278490Y-16609295D01*
X45278111Y-17043799D01*
X45428968Y-17408900D01*
X42888927Y-17408900D01*
X42914382Y-17383489D01*
X43081010Y-16982205D01*
X43081389Y-16547701D01*
X42915462Y-16146127D01*
X42608489Y-15838618D01*
X42399582Y-15751872D01*
X42370440Y-15722730D01*
X42370440Y-14867000D01*
X42344105Y-14727044D01*
X42370440Y-14597000D01*
X42370440Y-13597000D01*
X42326162Y-13361683D01*
X42187090Y-13145559D01*
X41974890Y-13000569D01*
X41735000Y-12951990D01*
X41735000Y-11491630D01*
X41974442Y-11252188D01*
X42205299Y-11252389D01*
X42606873Y-11086462D01*
X42914382Y-10779489D01*
X43081010Y-10378205D01*
X43081389Y-9943701D01*
X42915462Y-9542127D01*
X42608489Y-9234618D01*
X42207205Y-9067990D01*
X41772701Y-9067611D01*
X41694451Y-9099943D01*
X41819697Y-8974697D01*
X41858774Y-8916214D01*
X42001396Y-8702765D01*
X42065200Y-8382000D01*
X42065200Y-4191000D01*
X44237097Y-4191000D01*
X44130356Y-4381145D01*
X44130356Y-4381145D01*
G37*
X44130356Y-4381145D02*
X44099376Y-4509066D01*
X44218723Y-4762500D01*
X45862500Y-4762500D01*
X45862500Y-4742500D01*
X46116500Y-4742500D01*
X46116500Y-4762500D01*
X46136500Y-4762500D01*
X46136500Y-5016500D01*
X46116500Y-5016500D01*
X46116500Y-5036500D01*
X45862500Y-5036500D01*
X45862500Y-5016500D01*
X44218723Y-5016500D01*
X44099376Y-5269934D01*
X44130356Y-5397855D01*
X44443578Y-5955817D01*
X44685688Y-6146281D01*
X44495471Y-6273380D01*
X44141048Y-6803813D01*
X44016591Y-7429500D01*
X44141048Y-8055187D01*
X44495471Y-8585620D01*
X45025904Y-8940043D01*
X45651591Y-9064500D01*
X46327409Y-9064500D01*
X46506786Y-9028820D01*
X45777803Y-9757803D01*
X45596104Y-10029734D01*
X45547457Y-10274300D01*
X45532300Y-10350500D01*
X45532300Y-16120981D01*
X45445118Y-16208011D01*
X45278490Y-16609295D01*
X45278111Y-17043799D01*
X45428968Y-17408900D01*
X42888927Y-17408900D01*
X42914382Y-17383489D01*
X43081010Y-16982205D01*
X43081389Y-16547701D01*
X42915462Y-16146127D01*
X42608489Y-15838618D01*
X42399582Y-15751872D01*
X42370440Y-15722730D01*
X42370440Y-14867000D01*
X42344105Y-14727044D01*
X42370440Y-14597000D01*
X42370440Y-13597000D01*
X42326162Y-13361683D01*
X42187090Y-13145559D01*
X41974890Y-13000569D01*
X41735000Y-12951990D01*
X41735000Y-11491630D01*
X41974442Y-11252188D01*
X42205299Y-11252389D01*
X42606873Y-11086462D01*
X42914382Y-10779489D01*
X43081010Y-10378205D01*
X43081389Y-9943701D01*
X42915462Y-9542127D01*
X42608489Y-9234618D01*
X42207205Y-9067990D01*
X41772701Y-9067611D01*
X41694451Y-9099943D01*
X41819697Y-8974697D01*
X41858774Y-8916214D01*
X42001396Y-8702765D01*
X42065200Y-8382000D01*
X42065200Y-4191000D01*
X44237097Y-4191000D01*
X44130356Y-4381145D01*
G36*
X29906356Y-4381145D02*
X29875376Y-4509066D01*
X29994723Y-4762500D01*
X31638500Y-4762500D01*
X31638500Y-4742500D01*
X31892500Y-4742500D01*
X31892500Y-4762500D01*
X31912500Y-4762500D01*
X31912500Y-5016500D01*
X31892500Y-5016500D01*
X31892500Y-5036500D01*
X31638500Y-5036500D01*
X31638500Y-5016500D01*
X29994723Y-5016500D01*
X29875376Y-5269934D01*
X29906356Y-5397855D01*
X30219578Y-5955817D01*
X30461688Y-6146281D01*
X30271471Y-6273380D01*
X29917048Y-6803813D01*
X29792591Y-7429500D01*
X29917048Y-8055187D01*
X30271471Y-8585620D01*
X30801904Y-8940043D01*
X31427591Y-9064500D01*
X31993106Y-9064500D01*
X31553803Y-9503803D01*
X31372104Y-9775734D01*
X31333562Y-9969500D01*
X31308300Y-10096500D01*
X31308300Y-16120981D01*
X31221118Y-16208011D01*
X31054490Y-16609295D01*
X31054111Y-17043799D01*
X31204968Y-17408900D01*
X28664927Y-17408900D01*
X28690382Y-17383489D01*
X28857010Y-16982205D01*
X28857389Y-16547701D01*
X28691462Y-16146127D01*
X28384489Y-15838618D01*
X28343668Y-15821667D01*
X28285855Y-15735145D01*
X28146440Y-15595730D01*
X28146440Y-14740000D01*
X28120105Y-14600044D01*
X28146440Y-14470000D01*
X28146440Y-13470000D01*
X28102162Y-13234683D01*
X27963090Y-13018559D01*
X27750890Y-12873569D01*
X27511000Y-12824990D01*
X27511000Y-11745630D01*
X27750442Y-11506188D01*
X27981299Y-11506389D01*
X28382873Y-11340462D01*
X28690382Y-11033489D01*
X28857010Y-10632205D01*
X28857389Y-10197701D01*
X28691462Y-9796127D01*
X28384489Y-9488618D01*
X27983205Y-9321990D01*
X27548701Y-9321611D01*
X27147127Y-9487538D01*
X26839618Y-9794511D01*
X26672990Y-10195795D01*
X26672787Y-10428583D01*
X26210185Y-10891185D01*
X26045004Y-11138395D01*
X25987000Y-11430000D01*
X25987000Y-12824818D01*
X25872700Y-12846325D01*
X25872700Y-10443694D01*
X27849697Y-8466697D01*
X28031396Y-8194765D01*
X28095200Y-7874000D01*
X28095200Y-4191000D01*
X30013097Y-4191000D01*
X29906356Y-4381145D01*
X29906356Y-4381145D01*
G37*
X29906356Y-4381145D02*
X29875376Y-4509066D01*
X29994723Y-4762500D01*
X31638500Y-4762500D01*
X31638500Y-4742500D01*
X31892500Y-4742500D01*
X31892500Y-4762500D01*
X31912500Y-4762500D01*
X31912500Y-5016500D01*
X31892500Y-5016500D01*
X31892500Y-5036500D01*
X31638500Y-5036500D01*
X31638500Y-5016500D01*
X29994723Y-5016500D01*
X29875376Y-5269934D01*
X29906356Y-5397855D01*
X30219578Y-5955817D01*
X30461688Y-6146281D01*
X30271471Y-6273380D01*
X29917048Y-6803813D01*
X29792591Y-7429500D01*
X29917048Y-8055187D01*
X30271471Y-8585620D01*
X30801904Y-8940043D01*
X31427591Y-9064500D01*
X31993106Y-9064500D01*
X31553803Y-9503803D01*
X31372104Y-9775734D01*
X31333562Y-9969500D01*
X31308300Y-10096500D01*
X31308300Y-16120981D01*
X31221118Y-16208011D01*
X31054490Y-16609295D01*
X31054111Y-17043799D01*
X31204968Y-17408900D01*
X28664927Y-17408900D01*
X28690382Y-17383489D01*
X28857010Y-16982205D01*
X28857389Y-16547701D01*
X28691462Y-16146127D01*
X28384489Y-15838618D01*
X28343668Y-15821667D01*
X28285855Y-15735145D01*
X28146440Y-15595730D01*
X28146440Y-14740000D01*
X28120105Y-14600044D01*
X28146440Y-14470000D01*
X28146440Y-13470000D01*
X28102162Y-13234683D01*
X27963090Y-13018559D01*
X27750890Y-12873569D01*
X27511000Y-12824990D01*
X27511000Y-11745630D01*
X27750442Y-11506188D01*
X27981299Y-11506389D01*
X28382873Y-11340462D01*
X28690382Y-11033489D01*
X28857010Y-10632205D01*
X28857389Y-10197701D01*
X28691462Y-9796127D01*
X28384489Y-9488618D01*
X27983205Y-9321990D01*
X27548701Y-9321611D01*
X27147127Y-9487538D01*
X26839618Y-9794511D01*
X26672990Y-10195795D01*
X26672787Y-10428583D01*
X26210185Y-10891185D01*
X26045004Y-11138395D01*
X25987000Y-11430000D01*
X25987000Y-12824818D01*
X25872700Y-12846325D01*
X25872700Y-10443694D01*
X27849697Y-8466697D01*
X28031396Y-8194765D01*
X28095200Y-7874000D01*
X28095200Y-4191000D01*
X30013097Y-4191000D01*
X29906356Y-4381145D01*
G36*
X63910000Y-3429000D02*
X61251991Y-3429000D01*
X61177096Y-3378957D01*
X60551409Y-3254500D01*
X59875591Y-3254500D01*
X59249904Y-3378957D01*
X59175009Y-3429000D01*
X54139991Y-3429000D01*
X54065096Y-3378957D01*
X53439409Y-3254500D01*
X52763591Y-3254500D01*
X52137904Y-3378957D01*
X52063009Y-3429000D01*
X47027991Y-3429000D01*
X46953096Y-3378957D01*
X46327409Y-3254500D01*
X45651591Y-3254500D01*
X45025904Y-3378957D01*
X44951009Y-3429000D01*
X39915991Y-3429000D01*
X39841096Y-3378957D01*
X39215409Y-3254500D01*
X38539591Y-3254500D01*
X37913904Y-3378957D01*
X37839009Y-3429000D01*
X32803991Y-3429000D01*
X32729096Y-3378957D01*
X32103409Y-3254500D01*
X31427591Y-3254500D01*
X30801904Y-3378957D01*
X30727009Y-3429000D01*
X25691991Y-3429000D01*
X25617096Y-3378957D01*
X24991409Y-3254500D01*
X24315591Y-3254500D01*
X23689904Y-3378957D01*
X23615009Y-3429000D01*
X18579991Y-3429000D01*
X18505096Y-3378957D01*
X17879409Y-3254500D01*
X17203591Y-3254500D01*
X16577904Y-3378957D01*
X16503009Y-3429000D01*
X14351000Y-3429000D01*
X14301590Y-3439006D01*
X14259965Y-3467447D01*
X14232685Y-3509841D01*
X14224000Y-3556000D01*
X14224000Y-4641858D01*
X14039372Y-4918173D01*
X13960100Y-5316700D01*
X13960100Y-5842000D01*
X685000Y-5842000D01*
X685000Y-685000D01*
X63910000Y-685000D01*
X63910000Y-3429000D01*
X63910000Y-3429000D01*
G37*
X63910000Y-3429000D02*
X61251991Y-3429000D01*
X61177096Y-3378957D01*
X60551409Y-3254500D01*
X59875591Y-3254500D01*
X59249904Y-3378957D01*
X59175009Y-3429000D01*
X54139991Y-3429000D01*
X54065096Y-3378957D01*
X53439409Y-3254500D01*
X52763591Y-3254500D01*
X52137904Y-3378957D01*
X52063009Y-3429000D01*
X47027991Y-3429000D01*
X46953096Y-3378957D01*
X46327409Y-3254500D01*
X45651591Y-3254500D01*
X45025904Y-3378957D01*
X44951009Y-3429000D01*
X39915991Y-3429000D01*
X39841096Y-3378957D01*
X39215409Y-3254500D01*
X38539591Y-3254500D01*
X37913904Y-3378957D01*
X37839009Y-3429000D01*
X32803991Y-3429000D01*
X32729096Y-3378957D01*
X32103409Y-3254500D01*
X31427591Y-3254500D01*
X30801904Y-3378957D01*
X30727009Y-3429000D01*
X25691991Y-3429000D01*
X25617096Y-3378957D01*
X24991409Y-3254500D01*
X24315591Y-3254500D01*
X23689904Y-3378957D01*
X23615009Y-3429000D01*
X18579991Y-3429000D01*
X18505096Y-3378957D01*
X17879409Y-3254500D01*
X17203591Y-3254500D01*
X16577904Y-3378957D01*
X16503009Y-3429000D01*
X14351000Y-3429000D01*
X14301590Y-3439006D01*
X14259965Y-3467447D01*
X14232685Y-3509841D01*
X14224000Y-3556000D01*
X14224000Y-4641858D01*
X14039372Y-4918173D01*
X13960100Y-5316700D01*
X13960100Y-5842000D01*
X685000Y-5842000D01*
X685000Y-685000D01*
X63910000Y-685000D01*
X63910000Y-3429000D01*
M02*
