G04 #@! TF.FileFunction,Legend,Bot*
%FSLAX46Y46*%
G04 Gerber Fmt 4.6, Leading zero omitted, Abs format (unit mm)*
G04 Created by KiCad (PCBNEW 4.0.1-stable) date 2016-06-28 03:14:43*
%MOMM*%
G01*
G04 APERTURE LIST*
%ADD10C,0.100000*%
%ADD11C,0.300000*%
%ADD12C,0.200000*%
%ADD13C,0.150000*%
G04 APERTURE END LIST*
D10*
D11*
X148766856Y-120820571D02*
X149481142Y-120820571D01*
X149481142Y-119320571D01*
X147695428Y-120749143D02*
X147838285Y-120820571D01*
X148123999Y-120820571D01*
X148266856Y-120749143D01*
X148338285Y-120606286D01*
X148338285Y-120034857D01*
X148266856Y-119892000D01*
X148123999Y-119820571D01*
X147838285Y-119820571D01*
X147695428Y-119892000D01*
X147623999Y-120034857D01*
X147623999Y-120177714D01*
X148338285Y-120320571D01*
X147123999Y-119820571D02*
X146766856Y-120820571D01*
X146409714Y-119820571D01*
X145266857Y-120749143D02*
X145409714Y-120820571D01*
X145695428Y-120820571D01*
X145838285Y-120749143D01*
X145909714Y-120606286D01*
X145909714Y-120034857D01*
X145838285Y-119892000D01*
X145695428Y-119820571D01*
X145409714Y-119820571D01*
X145266857Y-119892000D01*
X145195428Y-120034857D01*
X145195428Y-120177714D01*
X145909714Y-120320571D01*
X144338285Y-120820571D02*
X144481143Y-120749143D01*
X144552571Y-120606286D01*
X144552571Y-119320571D01*
X143766857Y-120249143D02*
X142624000Y-120249143D01*
X141981143Y-120749143D02*
X141838286Y-120820571D01*
X141552571Y-120820571D01*
X141409714Y-120749143D01*
X141338286Y-120606286D01*
X141338286Y-120534857D01*
X141409714Y-120392000D01*
X141552571Y-120320571D01*
X141766857Y-120320571D01*
X141909714Y-120249143D01*
X141981143Y-120106286D01*
X141981143Y-120034857D01*
X141909714Y-119892000D01*
X141766857Y-119820571D01*
X141552571Y-119820571D01*
X141409714Y-119892000D01*
X140695428Y-120820571D02*
X140695428Y-119320571D01*
X140052571Y-120820571D02*
X140052571Y-120034857D01*
X140124000Y-119892000D01*
X140266857Y-119820571D01*
X140481142Y-119820571D01*
X140624000Y-119892000D01*
X140695428Y-119963429D01*
X139338285Y-120820571D02*
X139338285Y-119820571D01*
X139338285Y-119320571D02*
X139409714Y-119392000D01*
X139338285Y-119463429D01*
X139266857Y-119392000D01*
X139338285Y-119320571D01*
X139338285Y-119463429D01*
X138838285Y-119820571D02*
X138266856Y-119820571D01*
X138623999Y-120820571D02*
X138623999Y-119534857D01*
X138552571Y-119392000D01*
X138409713Y-119320571D01*
X138266856Y-119320571D01*
X137981142Y-119820571D02*
X137409713Y-119820571D01*
X137766856Y-119320571D02*
X137766856Y-120606286D01*
X137695428Y-120749143D01*
X137552570Y-120820571D01*
X137409713Y-120820571D01*
X136338285Y-120749143D02*
X136481142Y-120820571D01*
X136766856Y-120820571D01*
X136909713Y-120749143D01*
X136981142Y-120606286D01*
X136981142Y-120034857D01*
X136909713Y-119892000D01*
X136766856Y-119820571D01*
X136481142Y-119820571D01*
X136338285Y-119892000D01*
X136266856Y-120034857D01*
X136266856Y-120177714D01*
X136981142Y-120320571D01*
X135623999Y-120820571D02*
X135623999Y-119820571D01*
X135623999Y-120106286D02*
X135552571Y-119963429D01*
X135481142Y-119892000D01*
X135338285Y-119820571D01*
X135195428Y-119820571D01*
X133552571Y-120820571D02*
X133552571Y-119820571D01*
X133552571Y-119963429D02*
X133481143Y-119892000D01*
X133338285Y-119820571D01*
X133124000Y-119820571D01*
X132981143Y-119892000D01*
X132909714Y-120034857D01*
X132909714Y-120820571D01*
X132909714Y-120034857D02*
X132838285Y-119892000D01*
X132695428Y-119820571D01*
X132481143Y-119820571D01*
X132338285Y-119892000D01*
X132266857Y-120034857D01*
X132266857Y-120820571D01*
X131338285Y-120820571D02*
X131481143Y-120749143D01*
X131552571Y-120677714D01*
X131624000Y-120534857D01*
X131624000Y-120106286D01*
X131552571Y-119963429D01*
X131481143Y-119892000D01*
X131338285Y-119820571D01*
X131124000Y-119820571D01*
X130981143Y-119892000D01*
X130909714Y-119963429D01*
X130838285Y-120106286D01*
X130838285Y-120534857D01*
X130909714Y-120677714D01*
X130981143Y-120749143D01*
X131124000Y-120820571D01*
X131338285Y-120820571D01*
X129552571Y-120820571D02*
X129552571Y-119320571D01*
X129552571Y-120749143D02*
X129695428Y-120820571D01*
X129981142Y-120820571D01*
X130124000Y-120749143D01*
X130195428Y-120677714D01*
X130266857Y-120534857D01*
X130266857Y-120106286D01*
X130195428Y-119963429D01*
X130124000Y-119892000D01*
X129981142Y-119820571D01*
X129695428Y-119820571D01*
X129552571Y-119892000D01*
X128195428Y-119820571D02*
X128195428Y-120820571D01*
X128838285Y-119820571D02*
X128838285Y-120606286D01*
X128766857Y-120749143D01*
X128623999Y-120820571D01*
X128409714Y-120820571D01*
X128266857Y-120749143D01*
X128195428Y-120677714D01*
X127266856Y-120820571D02*
X127409714Y-120749143D01*
X127481142Y-120606286D01*
X127481142Y-119320571D01*
X126124000Y-120749143D02*
X126266857Y-120820571D01*
X126552571Y-120820571D01*
X126695428Y-120749143D01*
X126766857Y-120606286D01*
X126766857Y-120034857D01*
X126695428Y-119892000D01*
X126552571Y-119820571D01*
X126266857Y-119820571D01*
X126124000Y-119892000D01*
X126052571Y-120034857D01*
X126052571Y-120177714D01*
X126766857Y-120320571D01*
X124409714Y-119820571D02*
X124052571Y-120820571D01*
X123695429Y-119820571D01*
X122838286Y-119320571D02*
X122695429Y-119320571D01*
X122552572Y-119392000D01*
X122481143Y-119463429D01*
X122409714Y-119606286D01*
X122338286Y-119892000D01*
X122338286Y-120249143D01*
X122409714Y-120534857D01*
X122481143Y-120677714D01*
X122552572Y-120749143D01*
X122695429Y-120820571D01*
X122838286Y-120820571D01*
X122981143Y-120749143D01*
X123052572Y-120677714D01*
X123124000Y-120534857D01*
X123195429Y-120249143D01*
X123195429Y-119892000D01*
X123124000Y-119606286D01*
X123052572Y-119463429D01*
X122981143Y-119392000D01*
X122838286Y-119320571D01*
X121695429Y-120677714D02*
X121624001Y-120749143D01*
X121695429Y-120820571D01*
X121766858Y-120749143D01*
X121695429Y-120677714D01*
X121695429Y-120820571D01*
X120195429Y-120820571D02*
X121052572Y-120820571D01*
X120624000Y-120820571D02*
X120624000Y-119320571D01*
X120766857Y-119534857D01*
X120909715Y-119677714D01*
X121052572Y-119749143D01*
D12*
X165383999Y-110086857D02*
X165383999Y-111058286D01*
X165326856Y-111172571D01*
X165269713Y-111229714D01*
X165155427Y-111286857D01*
X164926856Y-111286857D01*
X164812570Y-111229714D01*
X164755427Y-111172571D01*
X164698284Y-111058286D01*
X164698284Y-110086857D01*
X164183999Y-111229714D02*
X164069713Y-111286857D01*
X163841141Y-111286857D01*
X163726856Y-111229714D01*
X163669713Y-111115429D01*
X163669713Y-111058286D01*
X163726856Y-110944000D01*
X163841141Y-110886857D01*
X164012570Y-110886857D01*
X164126856Y-110829714D01*
X164183999Y-110715429D01*
X164183999Y-110658286D01*
X164126856Y-110544000D01*
X164012570Y-110486857D01*
X163841141Y-110486857D01*
X163726856Y-110544000D01*
X162698284Y-111229714D02*
X162812570Y-111286857D01*
X163041141Y-111286857D01*
X163155427Y-111229714D01*
X163212570Y-111115429D01*
X163212570Y-110658286D01*
X163155427Y-110544000D01*
X163041141Y-110486857D01*
X162812570Y-110486857D01*
X162698284Y-110544000D01*
X162641141Y-110658286D01*
X162641141Y-110772571D01*
X163212570Y-110886857D01*
X161212570Y-110486857D02*
X161212570Y-111515429D01*
X161269713Y-111629714D01*
X161383998Y-111686857D01*
X161441141Y-111686857D01*
X161212570Y-110086857D02*
X161269713Y-110144000D01*
X161212570Y-110201143D01*
X161155427Y-110144000D01*
X161212570Y-110086857D01*
X161212570Y-110201143D01*
X160126855Y-110486857D02*
X160126855Y-111286857D01*
X160641141Y-110486857D02*
X160641141Y-111115429D01*
X160583998Y-111229714D01*
X160469712Y-111286857D01*
X160298284Y-111286857D01*
X160183998Y-111229714D01*
X160126855Y-111172571D01*
X159555427Y-111286857D02*
X159555427Y-110486857D01*
X159555427Y-110601143D02*
X159498284Y-110544000D01*
X159383998Y-110486857D01*
X159212570Y-110486857D01*
X159098284Y-110544000D01*
X159041141Y-110658286D01*
X159041141Y-111286857D01*
X159041141Y-110658286D02*
X158983998Y-110544000D01*
X158869712Y-110486857D01*
X158698284Y-110486857D01*
X158583998Y-110544000D01*
X158526855Y-110658286D01*
X158526855Y-111286857D01*
X157955427Y-110486857D02*
X157955427Y-111686857D01*
X157955427Y-110544000D02*
X157841141Y-110486857D01*
X157612570Y-110486857D01*
X157498284Y-110544000D01*
X157441141Y-110601143D01*
X157383998Y-110715429D01*
X157383998Y-111058286D01*
X157441141Y-111172571D01*
X157498284Y-111229714D01*
X157612570Y-111286857D01*
X157841141Y-111286857D01*
X157955427Y-111229714D01*
X156412570Y-111229714D02*
X156526856Y-111286857D01*
X156755427Y-111286857D01*
X156869713Y-111229714D01*
X156926856Y-111115429D01*
X156926856Y-110658286D01*
X156869713Y-110544000D01*
X156755427Y-110486857D01*
X156526856Y-110486857D01*
X156412570Y-110544000D01*
X156355427Y-110658286D01*
X156355427Y-110772571D01*
X156926856Y-110886857D01*
X155841142Y-111286857D02*
X155841142Y-110486857D01*
X155841142Y-110715429D02*
X155783999Y-110601143D01*
X155726856Y-110544000D01*
X155612570Y-110486857D01*
X155498285Y-110486857D01*
X155155428Y-111229714D02*
X155041142Y-111286857D01*
X154812570Y-111286857D01*
X154698285Y-111229714D01*
X154641142Y-111115429D01*
X154641142Y-111058286D01*
X154698285Y-110944000D01*
X154812570Y-110886857D01*
X154983999Y-110886857D01*
X155098285Y-110829714D01*
X155155428Y-110715429D01*
X155155428Y-110658286D01*
X155098285Y-110544000D01*
X154983999Y-110486857D01*
X154812570Y-110486857D01*
X154698285Y-110544000D01*
X153383998Y-110486857D02*
X152926855Y-110486857D01*
X153212570Y-110086857D02*
X153212570Y-111115429D01*
X153155427Y-111229714D01*
X153041141Y-111286857D01*
X152926855Y-111286857D01*
X152355427Y-111286857D02*
X152469713Y-111229714D01*
X152526856Y-111172571D01*
X152583999Y-111058286D01*
X152583999Y-110715429D01*
X152526856Y-110601143D01*
X152469713Y-110544000D01*
X152355427Y-110486857D01*
X152183999Y-110486857D01*
X152069713Y-110544000D01*
X152012570Y-110601143D01*
X151955427Y-110715429D01*
X151955427Y-111058286D01*
X152012570Y-111172571D01*
X152069713Y-111229714D01*
X152183999Y-111286857D01*
X152355427Y-111286857D01*
X150012570Y-111286857D02*
X150012570Y-110658286D01*
X150069713Y-110544000D01*
X150183999Y-110486857D01*
X150412570Y-110486857D01*
X150526856Y-110544000D01*
X150012570Y-111229714D02*
X150126856Y-111286857D01*
X150412570Y-111286857D01*
X150526856Y-111229714D01*
X150583999Y-111115429D01*
X150583999Y-111001143D01*
X150526856Y-110886857D01*
X150412570Y-110829714D01*
X150126856Y-110829714D01*
X150012570Y-110772571D01*
X148926856Y-111229714D02*
X149041142Y-111286857D01*
X149269713Y-111286857D01*
X149383999Y-111229714D01*
X149441142Y-111172571D01*
X149498285Y-111058286D01*
X149498285Y-110715429D01*
X149441142Y-110601143D01*
X149383999Y-110544000D01*
X149269713Y-110486857D01*
X149041142Y-110486857D01*
X148926856Y-110544000D01*
X148583999Y-110486857D02*
X148126856Y-110486857D01*
X148412571Y-110086857D02*
X148412571Y-111115429D01*
X148355428Y-111229714D01*
X148241142Y-111286857D01*
X148126856Y-111286857D01*
X147726857Y-111286857D02*
X147726857Y-110486857D01*
X147726857Y-110086857D02*
X147784000Y-110144000D01*
X147726857Y-110201143D01*
X147669714Y-110144000D01*
X147726857Y-110086857D01*
X147726857Y-110201143D01*
X147269713Y-110486857D02*
X146983999Y-111286857D01*
X146698285Y-110486857D01*
X145726856Y-111286857D02*
X145726856Y-110658286D01*
X145783999Y-110544000D01*
X145898285Y-110486857D01*
X146126856Y-110486857D01*
X146241142Y-110544000D01*
X145726856Y-111229714D02*
X145841142Y-111286857D01*
X146126856Y-111286857D01*
X146241142Y-111229714D01*
X146298285Y-111115429D01*
X146298285Y-111001143D01*
X146241142Y-110886857D01*
X146126856Y-110829714D01*
X145841142Y-110829714D01*
X145726856Y-110772571D01*
X145326856Y-110486857D02*
X144869713Y-110486857D01*
X145155428Y-110086857D02*
X145155428Y-111115429D01*
X145098285Y-111229714D01*
X144983999Y-111286857D01*
X144869713Y-111286857D01*
X144012571Y-111229714D02*
X144126857Y-111286857D01*
X144355428Y-111286857D01*
X144469714Y-111229714D01*
X144526857Y-111115429D01*
X144526857Y-110658286D01*
X144469714Y-110544000D01*
X144355428Y-110486857D01*
X144126857Y-110486857D01*
X144012571Y-110544000D01*
X143955428Y-110658286D01*
X143955428Y-110772571D01*
X144526857Y-110886857D01*
X142355428Y-111286857D02*
X142469714Y-111229714D01*
X142526857Y-111172571D01*
X142584000Y-111058286D01*
X142584000Y-110715429D01*
X142526857Y-110601143D01*
X142469714Y-110544000D01*
X142355428Y-110486857D01*
X142184000Y-110486857D01*
X142069714Y-110544000D01*
X142012571Y-110601143D01*
X141955428Y-110715429D01*
X141955428Y-111058286D01*
X142012571Y-111172571D01*
X142069714Y-111229714D01*
X142184000Y-111286857D01*
X142355428Y-111286857D01*
X140926857Y-110486857D02*
X140926857Y-111286857D01*
X141441143Y-110486857D02*
X141441143Y-111115429D01*
X141384000Y-111229714D01*
X141269714Y-111286857D01*
X141098286Y-111286857D01*
X140984000Y-111229714D01*
X140926857Y-111172571D01*
X140526857Y-110486857D02*
X140069714Y-110486857D01*
X140355429Y-110086857D02*
X140355429Y-111115429D01*
X140298286Y-111229714D01*
X140184000Y-111286857D01*
X140069714Y-111286857D01*
X139669715Y-110486857D02*
X139669715Y-111686857D01*
X139669715Y-110544000D02*
X139555429Y-110486857D01*
X139326858Y-110486857D01*
X139212572Y-110544000D01*
X139155429Y-110601143D01*
X139098286Y-110715429D01*
X139098286Y-111058286D01*
X139155429Y-111172571D01*
X139212572Y-111229714D01*
X139326858Y-111286857D01*
X139555429Y-111286857D01*
X139669715Y-111229714D01*
X138069715Y-110486857D02*
X138069715Y-111286857D01*
X138584001Y-110486857D02*
X138584001Y-111115429D01*
X138526858Y-111229714D01*
X138412572Y-111286857D01*
X138241144Y-111286857D01*
X138126858Y-111229714D01*
X138069715Y-111172571D01*
X137669715Y-110486857D02*
X137212572Y-110486857D01*
X137498287Y-110086857D02*
X137498287Y-111115429D01*
X137441144Y-111229714D01*
X137326858Y-111286857D01*
X137212572Y-111286857D01*
D10*
X112045619Y-108981905D02*
X113045619Y-108981905D01*
X113045619Y-108743810D01*
X112998000Y-108600952D01*
X112902762Y-108505714D01*
X112807524Y-108458095D01*
X112617048Y-108410476D01*
X112474190Y-108410476D01*
X112283714Y-108458095D01*
X112188476Y-108505714D01*
X112093238Y-108600952D01*
X112045619Y-108743810D01*
X112045619Y-108981905D01*
X112045619Y-107981905D02*
X112712286Y-107981905D01*
X113045619Y-107981905D02*
X112998000Y-108029524D01*
X112950381Y-107981905D01*
X112998000Y-107934286D01*
X113045619Y-107981905D01*
X112950381Y-107981905D01*
X112712286Y-107077143D02*
X111902762Y-107077143D01*
X111807524Y-107124762D01*
X111759905Y-107172381D01*
X111712286Y-107267620D01*
X111712286Y-107410477D01*
X111759905Y-107505715D01*
X112093238Y-107077143D02*
X112045619Y-107172381D01*
X112045619Y-107362858D01*
X112093238Y-107458096D01*
X112140857Y-107505715D01*
X112236095Y-107553334D01*
X112521810Y-107553334D01*
X112617048Y-107505715D01*
X112664667Y-107458096D01*
X112712286Y-107362858D01*
X112712286Y-107172381D01*
X112664667Y-107077143D01*
X112045619Y-106600953D02*
X112712286Y-106600953D01*
X113045619Y-106600953D02*
X112998000Y-106648572D01*
X112950381Y-106600953D01*
X112998000Y-106553334D01*
X113045619Y-106600953D01*
X112950381Y-106600953D01*
X112712286Y-106267620D02*
X112712286Y-105886668D01*
X113045619Y-106124763D02*
X112188476Y-106124763D01*
X112093238Y-106077144D01*
X112045619Y-105981906D01*
X112045619Y-105886668D01*
X112045619Y-105124762D02*
X112569429Y-105124762D01*
X112664667Y-105172381D01*
X112712286Y-105267619D01*
X112712286Y-105458096D01*
X112664667Y-105553334D01*
X112093238Y-105124762D02*
X112045619Y-105220000D01*
X112045619Y-105458096D01*
X112093238Y-105553334D01*
X112188476Y-105600953D01*
X112283714Y-105600953D01*
X112378952Y-105553334D01*
X112426571Y-105458096D01*
X112426571Y-105220000D01*
X112474190Y-105124762D01*
X112045619Y-104505715D02*
X112093238Y-104600953D01*
X112188476Y-104648572D01*
X113045619Y-104648572D01*
X112093238Y-103410476D02*
X112045619Y-103315238D01*
X112045619Y-103124762D01*
X112093238Y-103029523D01*
X112188476Y-102981904D01*
X112236095Y-102981904D01*
X112331333Y-103029523D01*
X112378952Y-103124762D01*
X112378952Y-103267619D01*
X112426571Y-103362857D01*
X112521810Y-103410476D01*
X112569429Y-103410476D01*
X112664667Y-103362857D01*
X112712286Y-103267619D01*
X112712286Y-103124762D01*
X112664667Y-103029523D01*
X112045619Y-102553333D02*
X112712286Y-102553333D01*
X113045619Y-102553333D02*
X112998000Y-102600952D01*
X112950381Y-102553333D01*
X112998000Y-102505714D01*
X113045619Y-102553333D01*
X112950381Y-102553333D01*
X112712286Y-101648571D02*
X111902762Y-101648571D01*
X111807524Y-101696190D01*
X111759905Y-101743809D01*
X111712286Y-101839048D01*
X111712286Y-101981905D01*
X111759905Y-102077143D01*
X112093238Y-101648571D02*
X112045619Y-101743809D01*
X112045619Y-101934286D01*
X112093238Y-102029524D01*
X112140857Y-102077143D01*
X112236095Y-102124762D01*
X112521810Y-102124762D01*
X112617048Y-102077143D01*
X112664667Y-102029524D01*
X112712286Y-101934286D01*
X112712286Y-101743809D01*
X112664667Y-101648571D01*
X112712286Y-101172381D02*
X112045619Y-101172381D01*
X112617048Y-101172381D02*
X112664667Y-101124762D01*
X112712286Y-101029524D01*
X112712286Y-100886666D01*
X112664667Y-100791428D01*
X112569429Y-100743809D01*
X112045619Y-100743809D01*
X112045619Y-99839047D02*
X112569429Y-99839047D01*
X112664667Y-99886666D01*
X112712286Y-99981904D01*
X112712286Y-100172381D01*
X112664667Y-100267619D01*
X112093238Y-99839047D02*
X112045619Y-99934285D01*
X112045619Y-100172381D01*
X112093238Y-100267619D01*
X112188476Y-100315238D01*
X112283714Y-100315238D01*
X112378952Y-100267619D01*
X112426571Y-100172381D01*
X112426571Y-99934285D01*
X112474190Y-99839047D01*
X112045619Y-99220000D02*
X112093238Y-99315238D01*
X112188476Y-99362857D01*
X113045619Y-99362857D01*
X110545619Y-108981905D02*
X111545619Y-108981905D01*
X111545619Y-108600952D01*
X111498000Y-108505714D01*
X111450381Y-108458095D01*
X111355143Y-108410476D01*
X111212286Y-108410476D01*
X111117048Y-108458095D01*
X111069429Y-108505714D01*
X111021810Y-108600952D01*
X111021810Y-108981905D01*
X111545619Y-108077143D02*
X110545619Y-107839048D01*
X111259905Y-107648571D01*
X110545619Y-107458095D01*
X111545619Y-107220000D01*
X110545619Y-106839048D02*
X111545619Y-106839048D01*
X110831333Y-106505714D01*
X111545619Y-106172381D01*
X110545619Y-106172381D01*
X110593238Y-104505714D02*
X110545619Y-104600952D01*
X110545619Y-104791429D01*
X110593238Y-104886667D01*
X110640857Y-104934286D01*
X110736095Y-104981905D01*
X111021810Y-104981905D01*
X111117048Y-104934286D01*
X111164667Y-104886667D01*
X111212286Y-104791429D01*
X111212286Y-104600952D01*
X111164667Y-104505714D01*
X110545619Y-103648571D02*
X111069429Y-103648571D01*
X111164667Y-103696190D01*
X111212286Y-103791428D01*
X111212286Y-103981905D01*
X111164667Y-104077143D01*
X110593238Y-103648571D02*
X110545619Y-103743809D01*
X110545619Y-103981905D01*
X110593238Y-104077143D01*
X110688476Y-104124762D01*
X110783714Y-104124762D01*
X110878952Y-104077143D01*
X110926571Y-103981905D01*
X110926571Y-103743809D01*
X110974190Y-103648571D01*
X111212286Y-103172381D02*
X110212286Y-103172381D01*
X111164667Y-103172381D02*
X111212286Y-103077143D01*
X111212286Y-102886666D01*
X111164667Y-102791428D01*
X111117048Y-102743809D01*
X111021810Y-102696190D01*
X110736095Y-102696190D01*
X110640857Y-102743809D01*
X110593238Y-102791428D01*
X110545619Y-102886666D01*
X110545619Y-103077143D01*
X110593238Y-103172381D01*
X110545619Y-101839047D02*
X111069429Y-101839047D01*
X111164667Y-101886666D01*
X111212286Y-101981904D01*
X111212286Y-102172381D01*
X111164667Y-102267619D01*
X110593238Y-101839047D02*
X110545619Y-101934285D01*
X110545619Y-102172381D01*
X110593238Y-102267619D01*
X110688476Y-102315238D01*
X110783714Y-102315238D01*
X110878952Y-102267619D01*
X110926571Y-102172381D01*
X110926571Y-101934285D01*
X110974190Y-101839047D01*
X110545619Y-101362857D02*
X111545619Y-101362857D01*
X111164667Y-101362857D02*
X111212286Y-101267619D01*
X111212286Y-101077142D01*
X111164667Y-100981904D01*
X111117048Y-100934285D01*
X111021810Y-100886666D01*
X110736095Y-100886666D01*
X110640857Y-100934285D01*
X110593238Y-100981904D01*
X110545619Y-101077142D01*
X110545619Y-101267619D01*
X110593238Y-101362857D01*
X110545619Y-100315238D02*
X110593238Y-100410476D01*
X110688476Y-100458095D01*
X111545619Y-100458095D01*
X110593238Y-99553332D02*
X110545619Y-99648570D01*
X110545619Y-99839047D01*
X110593238Y-99934285D01*
X110688476Y-99981904D01*
X111069429Y-99981904D01*
X111164667Y-99934285D01*
X111212286Y-99839047D01*
X111212286Y-99648570D01*
X111164667Y-99553332D01*
X111069429Y-99505713D01*
X110974190Y-99505713D01*
X110878952Y-99981904D01*
X109045619Y-108981905D02*
X110045619Y-108981905D01*
X109045619Y-108410476D01*
X110045619Y-108410476D01*
X109045619Y-107791429D02*
X109093238Y-107886667D01*
X109140857Y-107934286D01*
X109236095Y-107981905D01*
X109521810Y-107981905D01*
X109617048Y-107934286D01*
X109664667Y-107886667D01*
X109712286Y-107791429D01*
X109712286Y-107648571D01*
X109664667Y-107553333D01*
X109617048Y-107505714D01*
X109521810Y-107458095D01*
X109236095Y-107458095D01*
X109140857Y-107505714D01*
X109093238Y-107553333D01*
X109045619Y-107648571D01*
X109045619Y-107791429D01*
X109712286Y-107172381D02*
X109712286Y-106791429D01*
X110045619Y-107029524D02*
X109188476Y-107029524D01*
X109093238Y-106981905D01*
X109045619Y-106886667D01*
X109045619Y-106791429D01*
X109140857Y-105124761D02*
X109093238Y-105172380D01*
X109045619Y-105315237D01*
X109045619Y-105410475D01*
X109093238Y-105553333D01*
X109188476Y-105648571D01*
X109283714Y-105696190D01*
X109474190Y-105743809D01*
X109617048Y-105743809D01*
X109807524Y-105696190D01*
X109902762Y-105648571D01*
X109998000Y-105553333D01*
X110045619Y-105410475D01*
X110045619Y-105315237D01*
X109998000Y-105172380D01*
X109950381Y-105124761D01*
X109045619Y-104553333D02*
X109093238Y-104648571D01*
X109140857Y-104696190D01*
X109236095Y-104743809D01*
X109521810Y-104743809D01*
X109617048Y-104696190D01*
X109664667Y-104648571D01*
X109712286Y-104553333D01*
X109712286Y-104410475D01*
X109664667Y-104315237D01*
X109617048Y-104267618D01*
X109521810Y-104219999D01*
X109236095Y-104219999D01*
X109140857Y-104267618D01*
X109093238Y-104315237D01*
X109045619Y-104410475D01*
X109045619Y-104553333D01*
X109712286Y-103791428D02*
X109045619Y-103791428D01*
X109617048Y-103791428D02*
X109664667Y-103743809D01*
X109712286Y-103648571D01*
X109712286Y-103505713D01*
X109664667Y-103410475D01*
X109569429Y-103362856D01*
X109045619Y-103362856D01*
X109712286Y-102886666D02*
X109045619Y-102886666D01*
X109617048Y-102886666D02*
X109664667Y-102839047D01*
X109712286Y-102743809D01*
X109712286Y-102600951D01*
X109664667Y-102505713D01*
X109569429Y-102458094D01*
X109045619Y-102458094D01*
X109093238Y-101600951D02*
X109045619Y-101696189D01*
X109045619Y-101886666D01*
X109093238Y-101981904D01*
X109188476Y-102029523D01*
X109569429Y-102029523D01*
X109664667Y-101981904D01*
X109712286Y-101886666D01*
X109712286Y-101696189D01*
X109664667Y-101600951D01*
X109569429Y-101553332D01*
X109474190Y-101553332D01*
X109378952Y-102029523D01*
X109093238Y-100696189D02*
X109045619Y-100791427D01*
X109045619Y-100981904D01*
X109093238Y-101077142D01*
X109140857Y-101124761D01*
X109236095Y-101172380D01*
X109521810Y-101172380D01*
X109617048Y-101124761D01*
X109664667Y-101077142D01*
X109712286Y-100981904D01*
X109712286Y-100791427D01*
X109664667Y-100696189D01*
X109712286Y-100410475D02*
X109712286Y-100029523D01*
X110045619Y-100267618D02*
X109188476Y-100267618D01*
X109093238Y-100219999D01*
X109045619Y-100124761D01*
X109045619Y-100029523D01*
X109093238Y-99315236D02*
X109045619Y-99410474D01*
X109045619Y-99600951D01*
X109093238Y-99696189D01*
X109188476Y-99743808D01*
X109569429Y-99743808D01*
X109664667Y-99696189D01*
X109712286Y-99600951D01*
X109712286Y-99410474D01*
X109664667Y-99315236D01*
X109569429Y-99267617D01*
X109474190Y-99267617D01*
X109378952Y-99743808D01*
X109045619Y-98410474D02*
X110045619Y-98410474D01*
X109093238Y-98410474D02*
X109045619Y-98505712D01*
X109045619Y-98696189D01*
X109093238Y-98791427D01*
X109140857Y-98839046D01*
X109236095Y-98886665D01*
X109521810Y-98886665D01*
X109617048Y-98839046D01*
X109664667Y-98791427D01*
X109712286Y-98696189D01*
X109712286Y-98505712D01*
X109664667Y-98410474D01*
X109220000Y-109728000D02*
X112776000Y-109728000D01*
X113557619Y-111553714D02*
X113557619Y-112029905D01*
X114557619Y-112029905D01*
X113605238Y-110839428D02*
X113557619Y-110934666D01*
X113557619Y-111125143D01*
X113605238Y-111220381D01*
X113700476Y-111268000D01*
X114081429Y-111268000D01*
X114176667Y-111220381D01*
X114224286Y-111125143D01*
X114224286Y-110934666D01*
X114176667Y-110839428D01*
X114081429Y-110791809D01*
X113986190Y-110791809D01*
X113890952Y-111268000D01*
X114224286Y-109934666D02*
X113414762Y-109934666D01*
X113319524Y-109982285D01*
X113271905Y-110029904D01*
X113224286Y-110125143D01*
X113224286Y-110268000D01*
X113271905Y-110363238D01*
X113605238Y-109934666D02*
X113557619Y-110029904D01*
X113557619Y-110220381D01*
X113605238Y-110315619D01*
X113652857Y-110363238D01*
X113748095Y-110410857D01*
X114033810Y-110410857D01*
X114129048Y-110363238D01*
X114176667Y-110315619D01*
X114224286Y-110220381D01*
X114224286Y-110029904D01*
X114176667Y-109934666D01*
X113605238Y-109077523D02*
X113557619Y-109172761D01*
X113557619Y-109363238D01*
X113605238Y-109458476D01*
X113700476Y-109506095D01*
X114081429Y-109506095D01*
X114176667Y-109458476D01*
X114224286Y-109363238D01*
X114224286Y-109172761D01*
X114176667Y-109077523D01*
X114081429Y-109029904D01*
X113986190Y-109029904D01*
X113890952Y-109506095D01*
X114224286Y-108601333D02*
X113557619Y-108601333D01*
X114129048Y-108601333D02*
X114176667Y-108553714D01*
X114224286Y-108458476D01*
X114224286Y-108315618D01*
X114176667Y-108220380D01*
X114081429Y-108172761D01*
X113557619Y-108172761D01*
X113557619Y-107267999D02*
X114557619Y-107267999D01*
X113605238Y-107267999D02*
X113557619Y-107363237D01*
X113557619Y-107553714D01*
X113605238Y-107648952D01*
X113652857Y-107696571D01*
X113748095Y-107744190D01*
X114033810Y-107744190D01*
X114129048Y-107696571D01*
X114176667Y-107648952D01*
X114224286Y-107553714D01*
X114224286Y-107363237D01*
X114176667Y-107267999D01*
X113652857Y-106791809D02*
X113605238Y-106744190D01*
X113557619Y-106791809D01*
X113605238Y-106839428D01*
X113652857Y-106791809D01*
X113557619Y-106791809D01*
X114176667Y-106791809D02*
X114129048Y-106744190D01*
X114081429Y-106791809D01*
X114129048Y-106839428D01*
X114176667Y-106791809D01*
X114081429Y-106791809D01*
X112057619Y-112029905D02*
X113057619Y-112029905D01*
X113057619Y-111791810D01*
X113010000Y-111648952D01*
X112914762Y-111553714D01*
X112819524Y-111506095D01*
X112629048Y-111458476D01*
X112486190Y-111458476D01*
X112295714Y-111506095D01*
X112200476Y-111553714D01*
X112105238Y-111648952D01*
X112057619Y-111791810D01*
X112057619Y-112029905D01*
X112057619Y-111125143D02*
X112724286Y-110601333D01*
X112724286Y-111125143D02*
X112057619Y-110601333D01*
X110557619Y-112029905D02*
X111557619Y-112029905D01*
X111557619Y-111648952D01*
X111510000Y-111553714D01*
X111462381Y-111506095D01*
X111367143Y-111458476D01*
X111224286Y-111458476D01*
X111129048Y-111506095D01*
X111081429Y-111553714D01*
X111033810Y-111648952D01*
X111033810Y-112029905D01*
X110557619Y-111125143D02*
X111224286Y-110601333D01*
X111224286Y-111125143D02*
X110557619Y-110601333D01*
X109057619Y-112029905D02*
X110057619Y-112029905D01*
X109057619Y-111458476D01*
X110057619Y-111458476D01*
X109152857Y-110410857D02*
X109105238Y-110458476D01*
X109057619Y-110601333D01*
X109057619Y-110696571D01*
X109105238Y-110839429D01*
X109200476Y-110934667D01*
X109295714Y-110982286D01*
X109486190Y-111029905D01*
X109629048Y-111029905D01*
X109819524Y-110982286D01*
X109914762Y-110934667D01*
X110010000Y-110839429D01*
X110057619Y-110696571D01*
X110057619Y-110601333D01*
X110010000Y-110458476D01*
X109962381Y-110410857D01*
D12*
X121472214Y-101634857D02*
X121472214Y-100434857D01*
X121015071Y-100434857D01*
X120900785Y-100492000D01*
X120843642Y-100549143D01*
X120786499Y-100663429D01*
X120786499Y-100834857D01*
X120843642Y-100949143D01*
X120900785Y-101006286D01*
X121015071Y-101063429D01*
X121472214Y-101063429D01*
X120386499Y-100434857D02*
X119643642Y-100434857D01*
X120043642Y-100892000D01*
X119872214Y-100892000D01*
X119757928Y-100949143D01*
X119700785Y-101006286D01*
X119643642Y-101120571D01*
X119643642Y-101406286D01*
X119700785Y-101520571D01*
X119757928Y-101577714D01*
X119872214Y-101634857D01*
X120215071Y-101634857D01*
X120329357Y-101577714D01*
X120386499Y-101520571D01*
X164144214Y-101634857D02*
X164144214Y-100434857D01*
X163687071Y-100434857D01*
X163572785Y-100492000D01*
X163515642Y-100549143D01*
X163458499Y-100663429D01*
X163458499Y-100834857D01*
X163515642Y-100949143D01*
X163572785Y-101006286D01*
X163687071Y-101063429D01*
X164144214Y-101063429D01*
X163001357Y-100549143D02*
X162944214Y-100492000D01*
X162829928Y-100434857D01*
X162544214Y-100434857D01*
X162429928Y-100492000D01*
X162372785Y-100549143D01*
X162315642Y-100663429D01*
X162315642Y-100777714D01*
X162372785Y-100949143D01*
X163058499Y-101634857D01*
X162315642Y-101634857D01*
X128584214Y-101634857D02*
X128584214Y-100434857D01*
X128127071Y-100434857D01*
X128012785Y-100492000D01*
X127955642Y-100549143D01*
X127898499Y-100663429D01*
X127898499Y-100834857D01*
X127955642Y-100949143D01*
X128012785Y-101006286D01*
X128127071Y-101063429D01*
X128584214Y-101063429D01*
X126755642Y-101634857D02*
X127441357Y-101634857D01*
X127098499Y-101634857D02*
X127098499Y-100434857D01*
X127212785Y-100606286D01*
X127327071Y-100720571D01*
X127441357Y-100777714D01*
X136381929Y-101634857D02*
X136381929Y-100434857D01*
X135696214Y-101634857D01*
X135696214Y-100434857D01*
X134267643Y-100377714D02*
X135296214Y-101920571D01*
X133181928Y-101520571D02*
X133239071Y-101577714D01*
X133410500Y-101634857D01*
X133524786Y-101634857D01*
X133696214Y-101577714D01*
X133810500Y-101463429D01*
X133867643Y-101349143D01*
X133924786Y-101120571D01*
X133924786Y-100949143D01*
X133867643Y-100720571D01*
X133810500Y-100606286D01*
X133696214Y-100492000D01*
X133524786Y-100434857D01*
X133410500Y-100434857D01*
X133239071Y-100492000D01*
X133181928Y-100549143D01*
X150605929Y-101634857D02*
X150605929Y-100434857D01*
X149920214Y-101634857D01*
X149920214Y-100434857D01*
X148491643Y-100377714D02*
X149520214Y-101920571D01*
X147405928Y-101520571D02*
X147463071Y-101577714D01*
X147634500Y-101634857D01*
X147748786Y-101634857D01*
X147920214Y-101577714D01*
X148034500Y-101463429D01*
X148091643Y-101349143D01*
X148148786Y-101120571D01*
X148148786Y-100949143D01*
X148091643Y-100720571D01*
X148034500Y-100606286D01*
X147920214Y-100492000D01*
X147748786Y-100434857D01*
X147634500Y-100434857D01*
X147463071Y-100492000D01*
X147405928Y-100549143D01*
X157032214Y-101634857D02*
X157032214Y-100434857D01*
X156746499Y-100434857D01*
X156575071Y-100492000D01*
X156460785Y-100606286D01*
X156403642Y-100720571D01*
X156346499Y-100949143D01*
X156346499Y-101120571D01*
X156403642Y-101349143D01*
X156460785Y-101463429D01*
X156575071Y-101577714D01*
X156746499Y-101634857D01*
X157032214Y-101634857D01*
X155317928Y-100834857D02*
X155317928Y-101634857D01*
X155603642Y-100377714D02*
X155889357Y-101234857D01*
X155146499Y-101234857D01*
X142808214Y-99602857D02*
X142808214Y-98402857D01*
X142522499Y-98402857D01*
X142351071Y-98460000D01*
X142236785Y-98574286D01*
X142179642Y-98688571D01*
X142122499Y-98917143D01*
X142122499Y-99088571D01*
X142179642Y-99317143D01*
X142236785Y-99431429D01*
X142351071Y-99545714D01*
X142522499Y-99602857D01*
X142808214Y-99602857D01*
X140979642Y-99602857D02*
X141665357Y-99602857D01*
X141322499Y-99602857D02*
X141322499Y-98402857D01*
X141436785Y-98574286D01*
X141551071Y-98688571D01*
X141665357Y-98745714D01*
X135696214Y-99602857D02*
X135696214Y-98402857D01*
X135410499Y-98402857D01*
X135239071Y-98460000D01*
X135124785Y-98574286D01*
X135067642Y-98688571D01*
X135010499Y-98917143D01*
X135010499Y-99088571D01*
X135067642Y-99317143D01*
X135124785Y-99431429D01*
X135239071Y-99545714D01*
X135410499Y-99602857D01*
X135696214Y-99602857D01*
X134610499Y-98402857D02*
X133867642Y-98402857D01*
X134267642Y-98860000D01*
X134096214Y-98860000D01*
X133981928Y-98917143D01*
X133924785Y-98974286D01*
X133867642Y-99088571D01*
X133867642Y-99374286D01*
X133924785Y-99488571D01*
X133981928Y-99545714D01*
X134096214Y-99602857D01*
X134439071Y-99602857D01*
X134553357Y-99545714D01*
X134610499Y-99488571D01*
X142808214Y-101634857D02*
X142808214Y-100434857D01*
X142522499Y-100434857D01*
X142351071Y-100492000D01*
X142236785Y-100606286D01*
X142179642Y-100720571D01*
X142122499Y-100949143D01*
X142122499Y-101120571D01*
X142179642Y-101349143D01*
X142236785Y-101463429D01*
X142351071Y-101577714D01*
X142522499Y-101634857D01*
X142808214Y-101634857D01*
X140979642Y-101634857D02*
X141665357Y-101634857D01*
X141322499Y-101634857D02*
X141322499Y-100434857D01*
X141436785Y-100606286D01*
X141551071Y-100720571D01*
X141665357Y-100777714D01*
X149920214Y-99602857D02*
X149920214Y-98402857D01*
X149634499Y-98402857D01*
X149463071Y-98460000D01*
X149348785Y-98574286D01*
X149291642Y-98688571D01*
X149234499Y-98917143D01*
X149234499Y-99088571D01*
X149291642Y-99317143D01*
X149348785Y-99431429D01*
X149463071Y-99545714D01*
X149634499Y-99602857D01*
X149920214Y-99602857D01*
X148777357Y-98517143D02*
X148720214Y-98460000D01*
X148605928Y-98402857D01*
X148320214Y-98402857D01*
X148205928Y-98460000D01*
X148148785Y-98517143D01*
X148091642Y-98631429D01*
X148091642Y-98745714D01*
X148148785Y-98917143D01*
X148834499Y-99602857D01*
X148091642Y-99602857D01*
X157032214Y-99602857D02*
X157032214Y-98402857D01*
X156746499Y-98402857D01*
X156575071Y-98460000D01*
X156460785Y-98574286D01*
X156403642Y-98688571D01*
X156346499Y-98917143D01*
X156346499Y-99088571D01*
X156403642Y-99317143D01*
X156460785Y-99431429D01*
X156575071Y-99545714D01*
X156746499Y-99602857D01*
X157032214Y-99602857D01*
X155317928Y-98802857D02*
X155317928Y-99602857D01*
X155603642Y-98345714D02*
X155889357Y-99202857D01*
X155146499Y-99202857D01*
X164144214Y-99602857D02*
X164144214Y-98402857D01*
X163858499Y-98402857D01*
X163687071Y-98460000D01*
X163572785Y-98574286D01*
X163515642Y-98688571D01*
X163458499Y-98917143D01*
X163458499Y-99088571D01*
X163515642Y-99317143D01*
X163572785Y-99431429D01*
X163687071Y-99545714D01*
X163858499Y-99602857D01*
X164144214Y-99602857D01*
X162429928Y-98402857D02*
X162658499Y-98402857D01*
X162772785Y-98460000D01*
X162829928Y-98517143D01*
X162944214Y-98688571D01*
X163001357Y-98917143D01*
X163001357Y-99374286D01*
X162944214Y-99488571D01*
X162887071Y-99545714D01*
X162772785Y-99602857D01*
X162544214Y-99602857D01*
X162429928Y-99545714D01*
X162372785Y-99488571D01*
X162315642Y-99374286D01*
X162315642Y-99088571D01*
X162372785Y-98974286D01*
X162429928Y-98917143D01*
X162544214Y-98860000D01*
X162772785Y-98860000D01*
X162887071Y-98917143D01*
X162944214Y-98974286D01*
X163001357Y-99088571D01*
D11*
X166449143Y-101770571D02*
X166449143Y-100270571D01*
X165877715Y-100270571D01*
X165734857Y-100342000D01*
X165663429Y-100413429D01*
X165592000Y-100556286D01*
X165592000Y-100770571D01*
X165663429Y-100913429D01*
X165734857Y-100984857D01*
X165877715Y-101056286D01*
X166449143Y-101056286D01*
X164949143Y-101627714D02*
X164877715Y-101699143D01*
X164949143Y-101770571D01*
X165020572Y-101699143D01*
X164949143Y-101627714D01*
X164949143Y-101770571D01*
X164949143Y-100842000D02*
X164877715Y-100913429D01*
X164949143Y-100984857D01*
X165020572Y-100913429D01*
X164949143Y-100842000D01*
X164949143Y-100984857D01*
D12*
X128584214Y-99602857D02*
X128584214Y-98402857D01*
X128298499Y-98402857D01*
X128127071Y-98460000D01*
X128012785Y-98574286D01*
X127955642Y-98688571D01*
X127898499Y-98917143D01*
X127898499Y-99088571D01*
X127955642Y-99317143D01*
X128012785Y-99431429D01*
X128127071Y-99545714D01*
X128298499Y-99602857D01*
X128584214Y-99602857D01*
X126812785Y-98402857D02*
X127384214Y-98402857D01*
X127441357Y-98974286D01*
X127384214Y-98917143D01*
X127269928Y-98860000D01*
X126984214Y-98860000D01*
X126869928Y-98917143D01*
X126812785Y-98974286D01*
X126755642Y-99088571D01*
X126755642Y-99374286D01*
X126812785Y-99488571D01*
X126869928Y-99545714D01*
X126984214Y-99602857D01*
X127269928Y-99602857D01*
X127384214Y-99545714D01*
X127441357Y-99488571D01*
X121472214Y-99602857D02*
X121472214Y-98402857D01*
X121186499Y-98402857D01*
X121015071Y-98460000D01*
X120900785Y-98574286D01*
X120843642Y-98688571D01*
X120786499Y-98917143D01*
X120786499Y-99088571D01*
X120843642Y-99317143D01*
X120900785Y-99431429D01*
X121015071Y-99545714D01*
X121186499Y-99602857D01*
X121472214Y-99602857D01*
X120386499Y-98402857D02*
X119586499Y-98402857D01*
X120100785Y-99602857D01*
D11*
X165949143Y-99024286D02*
X165949143Y-99738571D01*
X166449143Y-98238571D02*
X165949143Y-99024286D01*
X165449143Y-98238571D01*
X164949143Y-99595714D02*
X164877715Y-99667143D01*
X164949143Y-99738571D01*
X165020572Y-99667143D01*
X164949143Y-99595714D01*
X164949143Y-99738571D01*
X164949143Y-98810000D02*
X164877715Y-98881429D01*
X164949143Y-98952857D01*
X165020572Y-98881429D01*
X164949143Y-98810000D01*
X164949143Y-98952857D01*
D13*
X110807405Y-90257381D02*
X110712166Y-90257381D01*
X110616928Y-90305000D01*
X110569309Y-90352619D01*
X110521690Y-90447857D01*
X110474071Y-90638333D01*
X110474071Y-90876429D01*
X110521690Y-91066905D01*
X110569309Y-91162143D01*
X110616928Y-91209762D01*
X110712166Y-91257381D01*
X110807405Y-91257381D01*
X110902643Y-91209762D01*
X110950262Y-91162143D01*
X110997881Y-91066905D01*
X111045500Y-90876429D01*
X111045500Y-90638333D01*
X110997881Y-90447857D01*
X110950262Y-90352619D01*
X110902643Y-90305000D01*
X110807405Y-90257381D01*
X109997881Y-91209762D02*
X109997881Y-91257381D01*
X110045500Y-91352619D01*
X110093119Y-91400238D01*
X109378834Y-90257381D02*
X109283595Y-90257381D01*
X109188357Y-90305000D01*
X109140738Y-90352619D01*
X109093119Y-90447857D01*
X109045500Y-90638333D01*
X109045500Y-90876429D01*
X109093119Y-91066905D01*
X109140738Y-91162143D01*
X109188357Y-91209762D01*
X109283595Y-91257381D01*
X109378834Y-91257381D01*
X109474072Y-91209762D01*
X109521691Y-91162143D01*
X109569310Y-91066905D01*
X109616929Y-90876429D01*
X109616929Y-90638333D01*
X109569310Y-90447857D01*
X109521691Y-90352619D01*
X109474072Y-90305000D01*
X109378834Y-90257381D01*
D12*
X108775500Y-89979500D02*
X108775500Y-90424000D01*
X109029500Y-89979500D02*
X109220000Y-89979500D01*
X108775500Y-89979500D02*
X109029500Y-89979500D01*
D13*
X135111881Y-117657619D02*
X135064262Y-117610000D01*
X134969024Y-117562381D01*
X134730928Y-117562381D01*
X134635690Y-117610000D01*
X134588071Y-117657619D01*
X134540452Y-117752857D01*
X134540452Y-117848095D01*
X134588071Y-117990952D01*
X135159500Y-118562381D01*
X134540452Y-118562381D01*
X133635690Y-117562381D02*
X134111881Y-117562381D01*
X134159500Y-118038571D01*
X134111881Y-117990952D01*
X134016643Y-117943333D01*
X133778547Y-117943333D01*
X133683309Y-117990952D01*
X133635690Y-118038571D01*
X133588071Y-118133810D01*
X133588071Y-118371905D01*
X133635690Y-118467143D01*
X133683309Y-118514762D01*
X133778547Y-118562381D01*
X134016643Y-118562381D01*
X134111881Y-118514762D01*
X134159500Y-118467143D01*
X133111881Y-118514762D02*
X133111881Y-118562381D01*
X133159500Y-118657619D01*
X133207119Y-118705238D01*
X132730929Y-117657619D02*
X132683310Y-117610000D01*
X132588072Y-117562381D01*
X132349976Y-117562381D01*
X132254738Y-117610000D01*
X132207119Y-117657619D01*
X132159500Y-117752857D01*
X132159500Y-117848095D01*
X132207119Y-117990952D01*
X132778548Y-118562381D01*
X132159500Y-118562381D01*
X131254738Y-117562381D02*
X131730929Y-117562381D01*
X131778548Y-118038571D01*
X131730929Y-117990952D01*
X131635691Y-117943333D01*
X131397595Y-117943333D01*
X131302357Y-117990952D01*
X131254738Y-118038571D01*
X131207119Y-118133810D01*
X131207119Y-118371905D01*
X131254738Y-118467143D01*
X131302357Y-118514762D01*
X131397595Y-118562381D01*
X131635691Y-118562381D01*
X131730929Y-118514762D01*
X131778548Y-118467143D01*
M02*
