G04 #@! TF.FileFunction,Copper,L2,Bot,Signal*
%FSLAX46Y46*%
G04 Gerber Fmt 4.6, Leading zero omitted, Abs format (unit mm)*
G04 Created by KiCad (PCBNEW 4.0.1-stable) date 2016-06-28 03:14:43*
%MOMM*%
G01*
G04 APERTURE LIST*
%ADD10C,0.100000*%
%ADD11O,3.000000X2.000000*%
%ADD12C,1.800000*%
%ADD13R,2.600000X2.000000*%
%ADD14O,2.600000X2.000000*%
%ADD15R,2.032000X2.032000*%
%ADD16O,2.032000X2.032000*%
%ADD17C,6.000000*%
%ADD18C,0.914400*%
%ADD19C,0.812800*%
%ADD20C,0.584200*%
%ADD21C,0.406400*%
%ADD22C,0.203200*%
%ADD23C,0.254000*%
G04 APERTURE END LIST*
D10*
D11*
X114969500Y-103413500D03*
X114969500Y-99913500D03*
D12*
X112496500Y-114935000D03*
X124231500Y-114935000D03*
D13*
X127698500Y-91249500D03*
D14*
X127698500Y-93789500D03*
X127698500Y-96329500D03*
D15*
X161988500Y-108140500D03*
D16*
X164528500Y-108140500D03*
D15*
X154876500Y-108140500D03*
D16*
X157416500Y-108140500D03*
D15*
X147764500Y-108140500D03*
D16*
X150304500Y-108140500D03*
D15*
X140652500Y-108140500D03*
D16*
X143192500Y-108140500D03*
D15*
X133540500Y-108140500D03*
D16*
X136080500Y-108140500D03*
D15*
X126428500Y-108140500D03*
D16*
X128968500Y-108140500D03*
D15*
X119316500Y-108140500D03*
D16*
X121856500Y-108140500D03*
D13*
X120586500Y-91249500D03*
D14*
X120586500Y-93789500D03*
X120586500Y-96329500D03*
D13*
X134810500Y-91249500D03*
D14*
X134810500Y-93789500D03*
X134810500Y-96329500D03*
D13*
X141922500Y-91249500D03*
D14*
X141922500Y-93789500D03*
X141922500Y-96329500D03*
D13*
X163258500Y-91249500D03*
D14*
X163258500Y-93789500D03*
X163258500Y-96329500D03*
D13*
X156146500Y-91249500D03*
D14*
X156146500Y-93789500D03*
X156146500Y-96329500D03*
D13*
X149034500Y-91249500D03*
D14*
X149034500Y-93789500D03*
X149034500Y-96329500D03*
D17*
X133140500Y-114344500D03*
D12*
X154025500Y-115188500D03*
X165760500Y-115188500D03*
D18*
X122237500Y-113474500D03*
X147205700Y-114769900D03*
X120967500Y-105727500D03*
X128079500Y-105727500D03*
X135191500Y-105727500D03*
X142303500Y-105727500D03*
X149415500Y-105727500D03*
X156527500Y-105727500D03*
X163639500Y-105727500D03*
X111252000Y-98298000D03*
X148069300Y-113449100D03*
X115760500Y-110807500D03*
X117094000Y-110871000D03*
X118364000Y-110871000D03*
X119634000Y-110998020D03*
X143446500Y-119062500D03*
X161099500Y-119189500D03*
X119634000Y-119126000D03*
X141986000Y-118872000D03*
X118364000Y-119126000D03*
X146483530Y-117464975D03*
X117094000Y-119062500D03*
X148589567Y-116332433D03*
X114363500Y-116649500D03*
D19*
X114969500Y-103413500D02*
X115469500Y-103413500D01*
X115469500Y-103413500D02*
X118046500Y-100836500D01*
X118046500Y-100836500D02*
X118046500Y-94216700D01*
X118046500Y-94216700D02*
X118473700Y-93789500D01*
X118473700Y-93789500D02*
X120586500Y-93789500D01*
D20*
X122237500Y-113474500D02*
X122694699Y-113017301D01*
X122694699Y-113017301D02*
X125424079Y-113017301D01*
X131033989Y-118627211D02*
X135144399Y-118627211D01*
X125424079Y-113017301D02*
X131033989Y-118627211D01*
X135144399Y-118627211D02*
X139001710Y-114769900D01*
X139001710Y-114769900D02*
X147205700Y-114769900D01*
X120286500Y-93789500D02*
X120586500Y-93789500D01*
D21*
X138493500Y-102425500D02*
X138493500Y-93226100D01*
X138493500Y-93226100D02*
X136516900Y-91249500D01*
X136516900Y-91249500D02*
X134810500Y-91249500D01*
X124142500Y-92519500D02*
X122872500Y-91249500D01*
X122872500Y-91249500D02*
X120586500Y-91249500D01*
X124142500Y-103199078D02*
X124142500Y-92519500D01*
X120967500Y-105727500D02*
X121614078Y-105727500D01*
X121614078Y-105727500D02*
X124142500Y-103199078D01*
X128079500Y-105727500D02*
X128726078Y-105727500D01*
X128726078Y-105727500D02*
X131254500Y-103199078D01*
X131254500Y-103199078D02*
X131254500Y-92011500D01*
X131254500Y-92011500D02*
X130492500Y-91249500D01*
X130492500Y-91249500D02*
X127698500Y-91249500D01*
X135191500Y-105727500D02*
X138493500Y-102425500D01*
X144970500Y-91757500D02*
X144462500Y-91249500D01*
X144462500Y-91249500D02*
X141922500Y-91249500D01*
X144970500Y-103060500D02*
X144970500Y-91757500D01*
X142303500Y-105727500D02*
X144970500Y-103060500D01*
X149415500Y-105727500D02*
X152209500Y-102933500D01*
X152209500Y-102933500D02*
X152209500Y-92519500D01*
X150939500Y-91249500D02*
X149034500Y-91249500D01*
X152209500Y-92519500D02*
X150939500Y-91249500D01*
X158813500Y-91376500D02*
X158686500Y-91249500D01*
X158686500Y-91249500D02*
X156146500Y-91249500D01*
X158813500Y-102794922D02*
X158813500Y-91376500D01*
X156527500Y-105727500D02*
X156527500Y-105080922D01*
X156527500Y-105080922D02*
X158813500Y-102794922D01*
X163639500Y-105727500D02*
X163639500Y-105080922D01*
X163639500Y-105080922D02*
X163766500Y-104953922D01*
X163766500Y-104953922D02*
X163766500Y-98869500D01*
X163766500Y-98869500D02*
X165290500Y-97345500D01*
X165290500Y-97345500D02*
X165290500Y-91575100D01*
X165290500Y-91575100D02*
X164964900Y-91249500D01*
X164964900Y-91249500D02*
X163258500Y-91249500D01*
D20*
X111252000Y-98298000D02*
X111252000Y-106299000D01*
X111252000Y-106299000D02*
X115760500Y-110807500D01*
X115760500Y-111454078D02*
X115760500Y-110807500D01*
X116510922Y-112204500D02*
X115760500Y-111454078D01*
X129645199Y-114465089D02*
X127384610Y-112204500D01*
X134818245Y-117839801D02*
X131462755Y-117839801D01*
X136635801Y-114465089D02*
X136635801Y-116022245D01*
X137651790Y-113449100D02*
X136635801Y-114465089D01*
X129645199Y-116022245D02*
X129645199Y-114465089D01*
X131462755Y-117839801D02*
X129645199Y-116022245D01*
X148069300Y-113449100D02*
X137651790Y-113449100D01*
X127384610Y-112204500D02*
X116510922Y-112204500D01*
X136635801Y-116022245D02*
X134818245Y-117839801D01*
D22*
X147764500Y-109359700D02*
X147764500Y-108140500D01*
X122367750Y-110045500D02*
X147510500Y-110045500D01*
X117094000Y-110871000D02*
X118325911Y-109639089D01*
X121961340Y-109639089D02*
X122367750Y-110045500D01*
X147510500Y-110045500D02*
X147764500Y-109791500D01*
X118325911Y-109639089D02*
X121961340Y-109639089D01*
X147764500Y-109791500D02*
X147764500Y-109359700D01*
X154876500Y-109474000D02*
X154876500Y-108140500D01*
X154432000Y-109918500D02*
X154876500Y-109474000D01*
X153860500Y-110490000D02*
X154432000Y-109918500D01*
X118745000Y-110045500D02*
X121793000Y-110045500D01*
X122237500Y-110490000D02*
X153860500Y-110490000D01*
X118364000Y-110426500D02*
X118745000Y-110045500D01*
X121793000Y-110045500D02*
X122237500Y-110490000D01*
X118364000Y-110871000D02*
X118364000Y-110426500D01*
X161163000Y-110617000D02*
X161988500Y-109791500D01*
X160782000Y-110998000D02*
X161163000Y-110617000D01*
X120280598Y-110998000D02*
X160782000Y-110998000D01*
X120280578Y-110998020D02*
X120280598Y-110998000D01*
X119634000Y-110998020D02*
X120280578Y-110998020D01*
X161988500Y-109791500D02*
X161988500Y-108140500D01*
X159435767Y-120853233D02*
X144602233Y-120853233D01*
X144602233Y-120853233D02*
X143903699Y-120154699D01*
X143446500Y-119062500D02*
X143903699Y-119519699D01*
X143903699Y-119519699D02*
X143903699Y-120154699D01*
X160642301Y-119646699D02*
X161099500Y-119189500D01*
X159435767Y-120853233D02*
X160642301Y-119646699D01*
X121361232Y-120853232D02*
X159435767Y-120853233D01*
X119634000Y-119126000D02*
X121361232Y-120853232D01*
X129695913Y-120446822D02*
X140411178Y-120446822D01*
X140411178Y-120446822D02*
X141986000Y-118872000D01*
X118364000Y-119126000D02*
X119168851Y-118321149D01*
X119168851Y-118321149D02*
X127570240Y-118321149D01*
X127570240Y-118321149D02*
X129695913Y-120446822D01*
X118491000Y-117665500D02*
X127489342Y-117665500D01*
X145836952Y-117464975D02*
X146483530Y-117464975D01*
X127489342Y-117665500D02*
X129864253Y-120040411D01*
X129864253Y-120040411D02*
X135688928Y-120040411D01*
X138264364Y-117464975D02*
X145836952Y-117464975D01*
X117094000Y-119062500D02*
X118491000Y-117665500D01*
X135688928Y-120040411D02*
X138264364Y-117464975D01*
D20*
X130082622Y-119414622D02*
X126998301Y-116330301D01*
X126998301Y-116330301D02*
X115329277Y-116330301D01*
X138554876Y-116330301D02*
X135470556Y-119414622D01*
X135470556Y-119414622D02*
X130082622Y-119414622D01*
X147940857Y-116330301D02*
X138554876Y-116330301D01*
X114363500Y-116649500D02*
X115010078Y-116649500D01*
X147940857Y-116330301D02*
X147942989Y-116332433D01*
X115010078Y-116649500D02*
X115329277Y-116330301D01*
X147942989Y-116332433D02*
X148589567Y-116332433D01*
D23*
G36*
X166510500Y-113837854D02*
X166067170Y-113653767D01*
X165456509Y-113653235D01*
X164892129Y-113886432D01*
X164459949Y-114317857D01*
X164225767Y-114881830D01*
X164225235Y-115492491D01*
X164458432Y-116056871D01*
X164889857Y-116489051D01*
X165453830Y-116723233D01*
X166064491Y-116723765D01*
X166510500Y-116539478D01*
X166510500Y-121044500D01*
X160286210Y-121044500D01*
X161049054Y-120281656D01*
X161315799Y-120281889D01*
X161717373Y-120115962D01*
X162024882Y-119808989D01*
X162191510Y-119407705D01*
X162191889Y-118973201D01*
X162025962Y-118571627D01*
X161718989Y-118264118D01*
X161317705Y-118097490D01*
X160883201Y-118097111D01*
X160481627Y-118263038D01*
X160174118Y-118570011D01*
X160007490Y-118971295D01*
X160007256Y-119240034D01*
X159130657Y-120116633D01*
X144907343Y-120116633D01*
X144640299Y-119849589D01*
X144640299Y-119519699D01*
X144584229Y-119237814D01*
X144538607Y-119169536D01*
X144538889Y-118846201D01*
X144372962Y-118444627D01*
X144130334Y-118201575D01*
X145675588Y-118201575D01*
X145864041Y-118390357D01*
X146265325Y-118556985D01*
X146699829Y-118557364D01*
X147101403Y-118391437D01*
X147408912Y-118084464D01*
X147575540Y-117683180D01*
X147575911Y-117257401D01*
X147932271Y-117257401D01*
X147942989Y-117259533D01*
X147974215Y-117259533D01*
X148371362Y-117424443D01*
X148805866Y-117424822D01*
X149207440Y-117258895D01*
X149514949Y-116951922D01*
X149681577Y-116550638D01*
X149681956Y-116116134D01*
X149516029Y-115714560D01*
X149294348Y-115492491D01*
X152490235Y-115492491D01*
X152723432Y-116056871D01*
X153154857Y-116489051D01*
X153718830Y-116723233D01*
X154329491Y-116723765D01*
X154893871Y-116490568D01*
X155326051Y-116059143D01*
X155560233Y-115495170D01*
X155560765Y-114884509D01*
X155327568Y-114320129D01*
X154896143Y-113887949D01*
X154332170Y-113653767D01*
X153721509Y-113653235D01*
X153157129Y-113886432D01*
X152724949Y-114317857D01*
X152490767Y-114881830D01*
X152490235Y-115492491D01*
X149294348Y-115492491D01*
X149209056Y-115407051D01*
X148807772Y-115240423D01*
X148373268Y-115240044D01*
X147973238Y-115405333D01*
X147951575Y-115405333D01*
X147940857Y-115403201D01*
X138554881Y-115403201D01*
X138554876Y-115403200D01*
X138200090Y-115473772D01*
X137899317Y-115674742D01*
X137562901Y-116011158D01*
X137562901Y-114849107D01*
X138035807Y-114376200D01*
X147453948Y-114376200D01*
X147851095Y-114541110D01*
X148285599Y-114541489D01*
X148687173Y-114375562D01*
X148994682Y-114068589D01*
X149161310Y-113667305D01*
X149161689Y-113232801D01*
X148995762Y-112831227D01*
X148688789Y-112523718D01*
X148287505Y-112357090D01*
X147853001Y-112356711D01*
X147452971Y-112522000D01*
X137651790Y-112522000D01*
X137297004Y-112592571D01*
X136996231Y-112793541D01*
X136996229Y-112793544D01*
X136597489Y-113192283D01*
X136223900Y-112288128D01*
X135671337Y-111734600D01*
X160782000Y-111734600D01*
X161063885Y-111678530D01*
X161302855Y-111518855D01*
X162509355Y-110312355D01*
X162669030Y-110073385D01*
X162722626Y-109803940D01*
X163004500Y-109803940D01*
X163239817Y-109759662D01*
X163455941Y-109620590D01*
X163557698Y-109471663D01*
X163896690Y-109698170D01*
X164528500Y-109823845D01*
X165160310Y-109698170D01*
X165695933Y-109340278D01*
X166053825Y-108804655D01*
X166179500Y-108172845D01*
X166179500Y-108108155D01*
X166053825Y-107476345D01*
X165695933Y-106940722D01*
X165160310Y-106582830D01*
X164528500Y-106457155D01*
X164436115Y-106475532D01*
X164564882Y-106346989D01*
X164731510Y-105945705D01*
X164731889Y-105511201D01*
X164571205Y-105122315D01*
X164604700Y-104953922D01*
X164604700Y-99216694D01*
X165883197Y-97938197D01*
X165948781Y-97840043D01*
X166064896Y-97666265D01*
X166128700Y-97345500D01*
X166128700Y-91575100D01*
X166064896Y-91254335D01*
X166064896Y-91254334D01*
X165883197Y-90982403D01*
X165557597Y-90656803D01*
X165285666Y-90475104D01*
X165205940Y-90459246D01*
X165205940Y-90249500D01*
X165164544Y-90029500D01*
X166510500Y-90029500D01*
X166510500Y-113837854D01*
X166510500Y-113837854D01*
G37*
X166510500Y-113837854D02*
X166067170Y-113653767D01*
X165456509Y-113653235D01*
X164892129Y-113886432D01*
X164459949Y-114317857D01*
X164225767Y-114881830D01*
X164225235Y-115492491D01*
X164458432Y-116056871D01*
X164889857Y-116489051D01*
X165453830Y-116723233D01*
X166064491Y-116723765D01*
X166510500Y-116539478D01*
X166510500Y-121044500D01*
X160286210Y-121044500D01*
X161049054Y-120281656D01*
X161315799Y-120281889D01*
X161717373Y-120115962D01*
X162024882Y-119808989D01*
X162191510Y-119407705D01*
X162191889Y-118973201D01*
X162025962Y-118571627D01*
X161718989Y-118264118D01*
X161317705Y-118097490D01*
X160883201Y-118097111D01*
X160481627Y-118263038D01*
X160174118Y-118570011D01*
X160007490Y-118971295D01*
X160007256Y-119240034D01*
X159130657Y-120116633D01*
X144907343Y-120116633D01*
X144640299Y-119849589D01*
X144640299Y-119519699D01*
X144584229Y-119237814D01*
X144538607Y-119169536D01*
X144538889Y-118846201D01*
X144372962Y-118444627D01*
X144130334Y-118201575D01*
X145675588Y-118201575D01*
X145864041Y-118390357D01*
X146265325Y-118556985D01*
X146699829Y-118557364D01*
X147101403Y-118391437D01*
X147408912Y-118084464D01*
X147575540Y-117683180D01*
X147575911Y-117257401D01*
X147932271Y-117257401D01*
X147942989Y-117259533D01*
X147974215Y-117259533D01*
X148371362Y-117424443D01*
X148805866Y-117424822D01*
X149207440Y-117258895D01*
X149514949Y-116951922D01*
X149681577Y-116550638D01*
X149681956Y-116116134D01*
X149516029Y-115714560D01*
X149294348Y-115492491D01*
X152490235Y-115492491D01*
X152723432Y-116056871D01*
X153154857Y-116489051D01*
X153718830Y-116723233D01*
X154329491Y-116723765D01*
X154893871Y-116490568D01*
X155326051Y-116059143D01*
X155560233Y-115495170D01*
X155560765Y-114884509D01*
X155327568Y-114320129D01*
X154896143Y-113887949D01*
X154332170Y-113653767D01*
X153721509Y-113653235D01*
X153157129Y-113886432D01*
X152724949Y-114317857D01*
X152490767Y-114881830D01*
X152490235Y-115492491D01*
X149294348Y-115492491D01*
X149209056Y-115407051D01*
X148807772Y-115240423D01*
X148373268Y-115240044D01*
X147973238Y-115405333D01*
X147951575Y-115405333D01*
X147940857Y-115403201D01*
X138554881Y-115403201D01*
X138554876Y-115403200D01*
X138200090Y-115473772D01*
X137899317Y-115674742D01*
X137562901Y-116011158D01*
X137562901Y-114849107D01*
X138035807Y-114376200D01*
X147453948Y-114376200D01*
X147851095Y-114541110D01*
X148285599Y-114541489D01*
X148687173Y-114375562D01*
X148994682Y-114068589D01*
X149161310Y-113667305D01*
X149161689Y-113232801D01*
X148995762Y-112831227D01*
X148688789Y-112523718D01*
X148287505Y-112357090D01*
X147853001Y-112356711D01*
X147452971Y-112522000D01*
X137651790Y-112522000D01*
X137297004Y-112592571D01*
X136996231Y-112793541D01*
X136996229Y-112793544D01*
X136597489Y-113192283D01*
X136223900Y-112288128D01*
X135671337Y-111734600D01*
X160782000Y-111734600D01*
X161063885Y-111678530D01*
X161302855Y-111518855D01*
X162509355Y-110312355D01*
X162669030Y-110073385D01*
X162722626Y-109803940D01*
X163004500Y-109803940D01*
X163239817Y-109759662D01*
X163455941Y-109620590D01*
X163557698Y-109471663D01*
X163896690Y-109698170D01*
X164528500Y-109823845D01*
X165160310Y-109698170D01*
X165695933Y-109340278D01*
X166053825Y-108804655D01*
X166179500Y-108172845D01*
X166179500Y-108108155D01*
X166053825Y-107476345D01*
X165695933Y-106940722D01*
X165160310Y-106582830D01*
X164528500Y-106457155D01*
X164436115Y-106475532D01*
X164564882Y-106346989D01*
X164731510Y-105945705D01*
X164731889Y-105511201D01*
X164571205Y-105122315D01*
X164604700Y-104953922D01*
X164604700Y-99216694D01*
X165883197Y-97938197D01*
X165948781Y-97840043D01*
X166064896Y-97666265D01*
X166128700Y-97345500D01*
X166128700Y-91575100D01*
X166064896Y-91254335D01*
X166064896Y-91254334D01*
X165883197Y-90982403D01*
X165557597Y-90656803D01*
X165285666Y-90475104D01*
X165205940Y-90459246D01*
X165205940Y-90249500D01*
X165164544Y-90029500D01*
X166510500Y-90029500D01*
X166510500Y-113837854D01*
G36*
X118639060Y-90249500D02*
X118639060Y-92249500D01*
X118683338Y-92484817D01*
X118822410Y-92700941D01*
X118989120Y-92814849D01*
X118727356Y-93281145D01*
X118696376Y-93409066D01*
X118815723Y-93662500D01*
X120459500Y-93662500D01*
X120459500Y-93642500D01*
X120713500Y-93642500D01*
X120713500Y-93662500D01*
X122357277Y-93662500D01*
X122476624Y-93409066D01*
X122445644Y-93281145D01*
X122183005Y-92813289D01*
X122337941Y-92713590D01*
X122482931Y-92501390D01*
X122533940Y-92249500D01*
X122533940Y-92096334D01*
X123304300Y-92866694D01*
X123304300Y-102851884D01*
X121422407Y-104733777D01*
X121185705Y-104635490D01*
X120751201Y-104635111D01*
X120349627Y-104801038D01*
X120042118Y-105108011D01*
X119875490Y-105509295D01*
X119875111Y-105943799D01*
X120041038Y-106345373D01*
X120172495Y-106477060D01*
X118300500Y-106477060D01*
X118065183Y-106521338D01*
X117849059Y-106660410D01*
X117704069Y-106872610D01*
X117653060Y-107124500D01*
X117653060Y-109156500D01*
X117671071Y-109252219D01*
X117144446Y-109778844D01*
X116877701Y-109778611D01*
X116476127Y-109944538D01*
X116459184Y-109961451D01*
X116379989Y-109882118D01*
X115980249Y-109716131D01*
X112179100Y-105914982D01*
X112179100Y-103793934D01*
X112879376Y-103793934D01*
X112910356Y-103921855D01*
X113223578Y-104479817D01*
X113726480Y-104875442D01*
X114342500Y-105048500D01*
X114842500Y-105048500D01*
X114842500Y-103540500D01*
X115096500Y-103540500D01*
X115096500Y-105048500D01*
X115596500Y-105048500D01*
X116212520Y-104875442D01*
X116715422Y-104479817D01*
X117028644Y-103921855D01*
X117059624Y-103793934D01*
X116940277Y-103540500D01*
X115096500Y-103540500D01*
X114842500Y-103540500D01*
X112998723Y-103540500D01*
X112879376Y-103793934D01*
X112179100Y-103793934D01*
X112179100Y-103033066D01*
X112879376Y-103033066D01*
X112998723Y-103286500D01*
X114842500Y-103286500D01*
X114842500Y-101778500D01*
X115096500Y-101778500D01*
X115096500Y-103286500D01*
X116940277Y-103286500D01*
X117059624Y-103033066D01*
X117028644Y-102905145D01*
X116715422Y-102347183D01*
X116212520Y-101951558D01*
X115596500Y-101778500D01*
X115096500Y-101778500D01*
X114842500Y-101778500D01*
X114342500Y-101778500D01*
X113726480Y-101951558D01*
X113223578Y-102347183D01*
X112910356Y-102905145D01*
X112879376Y-103033066D01*
X112179100Y-103033066D01*
X112179100Y-99913500D01*
X112792673Y-99913500D01*
X112917130Y-100539187D01*
X113271553Y-101069620D01*
X113801986Y-101424043D01*
X114427673Y-101548500D01*
X115511327Y-101548500D01*
X116137014Y-101424043D01*
X116667447Y-101069620D01*
X117021870Y-100539187D01*
X117146327Y-99913500D01*
X117021870Y-99287813D01*
X116667447Y-98757380D01*
X116137014Y-98402957D01*
X115511327Y-98278500D01*
X114427673Y-98278500D01*
X113801986Y-98402957D01*
X113271553Y-98757380D01*
X112917130Y-99287813D01*
X112792673Y-99913500D01*
X112179100Y-99913500D01*
X112179100Y-98913352D01*
X112344010Y-98516205D01*
X112344389Y-98081701D01*
X112178462Y-97680127D01*
X111871489Y-97372618D01*
X111470205Y-97205990D01*
X111035701Y-97205611D01*
X110634127Y-97371538D01*
X110326618Y-97678511D01*
X110159990Y-98079795D01*
X110159611Y-98514299D01*
X110324900Y-98914329D01*
X110324900Y-106299000D01*
X110395471Y-106653786D01*
X110596441Y-106954559D01*
X114669822Y-111027940D01*
X114833400Y-111423829D01*
X114833400Y-111454078D01*
X114903971Y-111808864D01*
X115104941Y-112109637D01*
X115855363Y-112860059D01*
X116156136Y-113061029D01*
X116510922Y-113131600D01*
X127000592Y-113131600D01*
X128718099Y-114849106D01*
X128718099Y-116022245D01*
X128788670Y-116377031D01*
X128989640Y-116677804D01*
X130799359Y-118487522D01*
X130466639Y-118487522D01*
X127653860Y-115674742D01*
X127353087Y-115473772D01*
X126998301Y-115403201D01*
X125699159Y-115403201D01*
X125766233Y-115241670D01*
X125766765Y-114631009D01*
X125533568Y-114066629D01*
X125102143Y-113634449D01*
X124538170Y-113400267D01*
X123927509Y-113399735D01*
X123363129Y-113632932D01*
X122930949Y-114064357D01*
X122696767Y-114628330D01*
X122696235Y-115238991D01*
X122764085Y-115403201D01*
X115329282Y-115403201D01*
X115329277Y-115403200D01*
X114974491Y-115473772D01*
X114746677Y-115625992D01*
X114581705Y-115557490D01*
X114147201Y-115557111D01*
X113849106Y-115680281D01*
X114031233Y-115241670D01*
X114031765Y-114631009D01*
X113798568Y-114066629D01*
X113367143Y-113634449D01*
X112803170Y-113400267D01*
X112192509Y-113399735D01*
X111628129Y-113632932D01*
X111195949Y-114064357D01*
X110961767Y-114628330D01*
X110961235Y-115238991D01*
X111194432Y-115803371D01*
X111625857Y-116235551D01*
X112189830Y-116469733D01*
X112800491Y-116470265D01*
X113349504Y-116243418D01*
X113271490Y-116431295D01*
X113271111Y-116865799D01*
X113437038Y-117267373D01*
X113744011Y-117574882D01*
X114145295Y-117741510D01*
X114579799Y-117741889D01*
X114979829Y-117576600D01*
X115010078Y-117576600D01*
X115364864Y-117506029D01*
X115665637Y-117305059D01*
X115713295Y-117257401D01*
X117857389Y-117257401D01*
X117144446Y-117970344D01*
X116877701Y-117970111D01*
X116476127Y-118136038D01*
X116168618Y-118443011D01*
X116001990Y-118844295D01*
X116001611Y-119278799D01*
X116167538Y-119680373D01*
X116474511Y-119987882D01*
X116875795Y-120154510D01*
X117310299Y-120154889D01*
X117690865Y-119997642D01*
X117744511Y-120051382D01*
X118145795Y-120218010D01*
X118580299Y-120218389D01*
X118981873Y-120052462D01*
X118998760Y-120035604D01*
X119014511Y-120051382D01*
X119415795Y-120218010D01*
X119684534Y-120218244D01*
X120510790Y-121044500D01*
X108825500Y-121044500D01*
X108825500Y-96329500D01*
X118613591Y-96329500D01*
X118738048Y-96955187D01*
X119092471Y-97485620D01*
X119622904Y-97840043D01*
X120248591Y-97964500D01*
X120924409Y-97964500D01*
X121550096Y-97840043D01*
X122080529Y-97485620D01*
X122434952Y-96955187D01*
X122559409Y-96329500D01*
X122434952Y-95703813D01*
X122080529Y-95173380D01*
X121890312Y-95046281D01*
X122132422Y-94855817D01*
X122445644Y-94297855D01*
X122476624Y-94169934D01*
X122357277Y-93916500D01*
X120713500Y-93916500D01*
X120713500Y-93936500D01*
X120459500Y-93936500D01*
X120459500Y-93916500D01*
X118815723Y-93916500D01*
X118696376Y-94169934D01*
X118727356Y-94297855D01*
X119040578Y-94855817D01*
X119282688Y-95046281D01*
X119092471Y-95173380D01*
X118738048Y-95703813D01*
X118613591Y-96329500D01*
X108825500Y-96329500D01*
X108825500Y-90029500D01*
X118683611Y-90029500D01*
X118639060Y-90249500D01*
X118639060Y-90249500D01*
G37*
X118639060Y-90249500D02*
X118639060Y-92249500D01*
X118683338Y-92484817D01*
X118822410Y-92700941D01*
X118989120Y-92814849D01*
X118727356Y-93281145D01*
X118696376Y-93409066D01*
X118815723Y-93662500D01*
X120459500Y-93662500D01*
X120459500Y-93642500D01*
X120713500Y-93642500D01*
X120713500Y-93662500D01*
X122357277Y-93662500D01*
X122476624Y-93409066D01*
X122445644Y-93281145D01*
X122183005Y-92813289D01*
X122337941Y-92713590D01*
X122482931Y-92501390D01*
X122533940Y-92249500D01*
X122533940Y-92096334D01*
X123304300Y-92866694D01*
X123304300Y-102851884D01*
X121422407Y-104733777D01*
X121185705Y-104635490D01*
X120751201Y-104635111D01*
X120349627Y-104801038D01*
X120042118Y-105108011D01*
X119875490Y-105509295D01*
X119875111Y-105943799D01*
X120041038Y-106345373D01*
X120172495Y-106477060D01*
X118300500Y-106477060D01*
X118065183Y-106521338D01*
X117849059Y-106660410D01*
X117704069Y-106872610D01*
X117653060Y-107124500D01*
X117653060Y-109156500D01*
X117671071Y-109252219D01*
X117144446Y-109778844D01*
X116877701Y-109778611D01*
X116476127Y-109944538D01*
X116459184Y-109961451D01*
X116379989Y-109882118D01*
X115980249Y-109716131D01*
X112179100Y-105914982D01*
X112179100Y-103793934D01*
X112879376Y-103793934D01*
X112910356Y-103921855D01*
X113223578Y-104479817D01*
X113726480Y-104875442D01*
X114342500Y-105048500D01*
X114842500Y-105048500D01*
X114842500Y-103540500D01*
X115096500Y-103540500D01*
X115096500Y-105048500D01*
X115596500Y-105048500D01*
X116212520Y-104875442D01*
X116715422Y-104479817D01*
X117028644Y-103921855D01*
X117059624Y-103793934D01*
X116940277Y-103540500D01*
X115096500Y-103540500D01*
X114842500Y-103540500D01*
X112998723Y-103540500D01*
X112879376Y-103793934D01*
X112179100Y-103793934D01*
X112179100Y-103033066D01*
X112879376Y-103033066D01*
X112998723Y-103286500D01*
X114842500Y-103286500D01*
X114842500Y-101778500D01*
X115096500Y-101778500D01*
X115096500Y-103286500D01*
X116940277Y-103286500D01*
X117059624Y-103033066D01*
X117028644Y-102905145D01*
X116715422Y-102347183D01*
X116212520Y-101951558D01*
X115596500Y-101778500D01*
X115096500Y-101778500D01*
X114842500Y-101778500D01*
X114342500Y-101778500D01*
X113726480Y-101951558D01*
X113223578Y-102347183D01*
X112910356Y-102905145D01*
X112879376Y-103033066D01*
X112179100Y-103033066D01*
X112179100Y-99913500D01*
X112792673Y-99913500D01*
X112917130Y-100539187D01*
X113271553Y-101069620D01*
X113801986Y-101424043D01*
X114427673Y-101548500D01*
X115511327Y-101548500D01*
X116137014Y-101424043D01*
X116667447Y-101069620D01*
X117021870Y-100539187D01*
X117146327Y-99913500D01*
X117021870Y-99287813D01*
X116667447Y-98757380D01*
X116137014Y-98402957D01*
X115511327Y-98278500D01*
X114427673Y-98278500D01*
X113801986Y-98402957D01*
X113271553Y-98757380D01*
X112917130Y-99287813D01*
X112792673Y-99913500D01*
X112179100Y-99913500D01*
X112179100Y-98913352D01*
X112344010Y-98516205D01*
X112344389Y-98081701D01*
X112178462Y-97680127D01*
X111871489Y-97372618D01*
X111470205Y-97205990D01*
X111035701Y-97205611D01*
X110634127Y-97371538D01*
X110326618Y-97678511D01*
X110159990Y-98079795D01*
X110159611Y-98514299D01*
X110324900Y-98914329D01*
X110324900Y-106299000D01*
X110395471Y-106653786D01*
X110596441Y-106954559D01*
X114669822Y-111027940D01*
X114833400Y-111423829D01*
X114833400Y-111454078D01*
X114903971Y-111808864D01*
X115104941Y-112109637D01*
X115855363Y-112860059D01*
X116156136Y-113061029D01*
X116510922Y-113131600D01*
X127000592Y-113131600D01*
X128718099Y-114849106D01*
X128718099Y-116022245D01*
X128788670Y-116377031D01*
X128989640Y-116677804D01*
X130799359Y-118487522D01*
X130466639Y-118487522D01*
X127653860Y-115674742D01*
X127353087Y-115473772D01*
X126998301Y-115403201D01*
X125699159Y-115403201D01*
X125766233Y-115241670D01*
X125766765Y-114631009D01*
X125533568Y-114066629D01*
X125102143Y-113634449D01*
X124538170Y-113400267D01*
X123927509Y-113399735D01*
X123363129Y-113632932D01*
X122930949Y-114064357D01*
X122696767Y-114628330D01*
X122696235Y-115238991D01*
X122764085Y-115403201D01*
X115329282Y-115403201D01*
X115329277Y-115403200D01*
X114974491Y-115473772D01*
X114746677Y-115625992D01*
X114581705Y-115557490D01*
X114147201Y-115557111D01*
X113849106Y-115680281D01*
X114031233Y-115241670D01*
X114031765Y-114631009D01*
X113798568Y-114066629D01*
X113367143Y-113634449D01*
X112803170Y-113400267D01*
X112192509Y-113399735D01*
X111628129Y-113632932D01*
X111195949Y-114064357D01*
X110961767Y-114628330D01*
X110961235Y-115238991D01*
X111194432Y-115803371D01*
X111625857Y-116235551D01*
X112189830Y-116469733D01*
X112800491Y-116470265D01*
X113349504Y-116243418D01*
X113271490Y-116431295D01*
X113271111Y-116865799D01*
X113437038Y-117267373D01*
X113744011Y-117574882D01*
X114145295Y-117741510D01*
X114579799Y-117741889D01*
X114979829Y-117576600D01*
X115010078Y-117576600D01*
X115364864Y-117506029D01*
X115665637Y-117305059D01*
X115713295Y-117257401D01*
X117857389Y-117257401D01*
X117144446Y-117970344D01*
X116877701Y-117970111D01*
X116476127Y-118136038D01*
X116168618Y-118443011D01*
X116001990Y-118844295D01*
X116001611Y-119278799D01*
X116167538Y-119680373D01*
X116474511Y-119987882D01*
X116875795Y-120154510D01*
X117310299Y-120154889D01*
X117690865Y-119997642D01*
X117744511Y-120051382D01*
X118145795Y-120218010D01*
X118580299Y-120218389D01*
X118981873Y-120052462D01*
X118998760Y-120035604D01*
X119014511Y-120051382D01*
X119415795Y-120218010D01*
X119684534Y-120218244D01*
X120510790Y-121044500D01*
X108825500Y-121044500D01*
X108825500Y-96329500D01*
X118613591Y-96329500D01*
X118738048Y-96955187D01*
X119092471Y-97485620D01*
X119622904Y-97840043D01*
X120248591Y-97964500D01*
X120924409Y-97964500D01*
X121550096Y-97840043D01*
X122080529Y-97485620D01*
X122434952Y-96955187D01*
X122559409Y-96329500D01*
X122434952Y-95703813D01*
X122080529Y-95173380D01*
X121890312Y-95046281D01*
X122132422Y-94855817D01*
X122445644Y-94297855D01*
X122476624Y-94169934D01*
X122357277Y-93916500D01*
X120713500Y-93916500D01*
X120713500Y-93936500D01*
X120459500Y-93936500D01*
X120459500Y-93916500D01*
X118815723Y-93916500D01*
X118696376Y-94169934D01*
X118727356Y-94297855D01*
X119040578Y-94855817D01*
X119282688Y-95046281D01*
X119092471Y-95173380D01*
X118738048Y-95703813D01*
X118613591Y-96329500D01*
X108825500Y-96329500D01*
X108825500Y-90029500D01*
X118683611Y-90029500D01*
X118639060Y-90249500D01*
G36*
X161311060Y-90249500D02*
X161311060Y-92249500D01*
X161355338Y-92484817D01*
X161494410Y-92700941D01*
X161661120Y-92814849D01*
X161399356Y-93281145D01*
X161368376Y-93409066D01*
X161487723Y-93662500D01*
X163131500Y-93662500D01*
X163131500Y-93642500D01*
X163385500Y-93642500D01*
X163385500Y-93662500D01*
X163405500Y-93662500D01*
X163405500Y-93916500D01*
X163385500Y-93916500D01*
X163385500Y-93936500D01*
X163131500Y-93936500D01*
X163131500Y-93916500D01*
X161487723Y-93916500D01*
X161368376Y-94169934D01*
X161399356Y-94297855D01*
X161712578Y-94855817D01*
X161954688Y-95046281D01*
X161764471Y-95173380D01*
X161410048Y-95703813D01*
X161285591Y-96329500D01*
X161410048Y-96955187D01*
X161764471Y-97485620D01*
X162294904Y-97840043D01*
X162920591Y-97964500D01*
X163486106Y-97964500D01*
X163173803Y-98276803D01*
X162992104Y-98548734D01*
X162992104Y-98548735D01*
X162928300Y-98869500D01*
X162928300Y-104665577D01*
X162865104Y-104760156D01*
X162826562Y-104953922D01*
X162816177Y-105006130D01*
X162714118Y-105108011D01*
X162547490Y-105509295D01*
X162547111Y-105943799D01*
X162713038Y-106345373D01*
X162844495Y-106477060D01*
X160972500Y-106477060D01*
X160737183Y-106521338D01*
X160521059Y-106660410D01*
X160376069Y-106872610D01*
X160325060Y-107124500D01*
X160325060Y-109156500D01*
X160369338Y-109391817D01*
X160508410Y-109607941D01*
X160720610Y-109752931D01*
X160940775Y-109797515D01*
X160476890Y-110261400D01*
X155130810Y-110261400D01*
X155397355Y-109994855D01*
X155524921Y-109803940D01*
X155892500Y-109803940D01*
X156127817Y-109759662D01*
X156343941Y-109620590D01*
X156445698Y-109471663D01*
X156784690Y-109698170D01*
X157416500Y-109823845D01*
X158048310Y-109698170D01*
X158583933Y-109340278D01*
X158941825Y-108804655D01*
X159067500Y-108172845D01*
X159067500Y-108108155D01*
X158941825Y-107476345D01*
X158583933Y-106940722D01*
X158048310Y-106582830D01*
X157416500Y-106457155D01*
X157324115Y-106475532D01*
X157452882Y-106346989D01*
X157619510Y-105945705D01*
X157619889Y-105511201D01*
X157521276Y-105272540D01*
X159406197Y-103387619D01*
X159587896Y-103115688D01*
X159651700Y-102794922D01*
X159651700Y-91376500D01*
X159626438Y-91249500D01*
X159587896Y-91055734D01*
X159406197Y-90783803D01*
X159279197Y-90656803D01*
X159007266Y-90475104D01*
X158686500Y-90411300D01*
X158093940Y-90411300D01*
X158093940Y-90249500D01*
X158052544Y-90029500D01*
X161355611Y-90029500D01*
X161311060Y-90249500D01*
X161311060Y-90249500D01*
G37*
X161311060Y-90249500D02*
X161311060Y-92249500D01*
X161355338Y-92484817D01*
X161494410Y-92700941D01*
X161661120Y-92814849D01*
X161399356Y-93281145D01*
X161368376Y-93409066D01*
X161487723Y-93662500D01*
X163131500Y-93662500D01*
X163131500Y-93642500D01*
X163385500Y-93642500D01*
X163385500Y-93662500D01*
X163405500Y-93662500D01*
X163405500Y-93916500D01*
X163385500Y-93916500D01*
X163385500Y-93936500D01*
X163131500Y-93936500D01*
X163131500Y-93916500D01*
X161487723Y-93916500D01*
X161368376Y-94169934D01*
X161399356Y-94297855D01*
X161712578Y-94855817D01*
X161954688Y-95046281D01*
X161764471Y-95173380D01*
X161410048Y-95703813D01*
X161285591Y-96329500D01*
X161410048Y-96955187D01*
X161764471Y-97485620D01*
X162294904Y-97840043D01*
X162920591Y-97964500D01*
X163486106Y-97964500D01*
X163173803Y-98276803D01*
X162992104Y-98548734D01*
X162992104Y-98548735D01*
X162928300Y-98869500D01*
X162928300Y-104665577D01*
X162865104Y-104760156D01*
X162826562Y-104953922D01*
X162816177Y-105006130D01*
X162714118Y-105108011D01*
X162547490Y-105509295D01*
X162547111Y-105943799D01*
X162713038Y-106345373D01*
X162844495Y-106477060D01*
X160972500Y-106477060D01*
X160737183Y-106521338D01*
X160521059Y-106660410D01*
X160376069Y-106872610D01*
X160325060Y-107124500D01*
X160325060Y-109156500D01*
X160369338Y-109391817D01*
X160508410Y-109607941D01*
X160720610Y-109752931D01*
X160940775Y-109797515D01*
X160476890Y-110261400D01*
X155130810Y-110261400D01*
X155397355Y-109994855D01*
X155524921Y-109803940D01*
X155892500Y-109803940D01*
X156127817Y-109759662D01*
X156343941Y-109620590D01*
X156445698Y-109471663D01*
X156784690Y-109698170D01*
X157416500Y-109823845D01*
X158048310Y-109698170D01*
X158583933Y-109340278D01*
X158941825Y-108804655D01*
X159067500Y-108172845D01*
X159067500Y-108108155D01*
X158941825Y-107476345D01*
X158583933Y-106940722D01*
X158048310Y-106582830D01*
X157416500Y-106457155D01*
X157324115Y-106475532D01*
X157452882Y-106346989D01*
X157619510Y-105945705D01*
X157619889Y-105511201D01*
X157521276Y-105272540D01*
X159406197Y-103387619D01*
X159587896Y-103115688D01*
X159651700Y-102794922D01*
X159651700Y-91376500D01*
X159626438Y-91249500D01*
X159587896Y-91055734D01*
X159406197Y-90783803D01*
X159279197Y-90656803D01*
X159007266Y-90475104D01*
X158686500Y-90411300D01*
X158093940Y-90411300D01*
X158093940Y-90249500D01*
X158052544Y-90029500D01*
X161355611Y-90029500D01*
X161311060Y-90249500D01*
G36*
X154199060Y-90249500D02*
X154199060Y-92249500D01*
X154243338Y-92484817D01*
X154382410Y-92700941D01*
X154549120Y-92814849D01*
X154287356Y-93281145D01*
X154256376Y-93409066D01*
X154375723Y-93662500D01*
X156019500Y-93662500D01*
X156019500Y-93642500D01*
X156273500Y-93642500D01*
X156273500Y-93662500D01*
X156293500Y-93662500D01*
X156293500Y-93916500D01*
X156273500Y-93916500D01*
X156273500Y-93936500D01*
X156019500Y-93936500D01*
X156019500Y-93916500D01*
X154375723Y-93916500D01*
X154256376Y-94169934D01*
X154287356Y-94297855D01*
X154600578Y-94855817D01*
X154842688Y-95046281D01*
X154652471Y-95173380D01*
X154298048Y-95703813D01*
X154173591Y-96329500D01*
X154298048Y-96955187D01*
X154652471Y-97485620D01*
X155182904Y-97840043D01*
X155808591Y-97964500D01*
X156484409Y-97964500D01*
X157110096Y-97840043D01*
X157640529Y-97485620D01*
X157975300Y-96984598D01*
X157975300Y-102447728D01*
X155934803Y-104488225D01*
X155753104Y-104760156D01*
X155714562Y-104953922D01*
X155704177Y-105006130D01*
X155602118Y-105108011D01*
X155435490Y-105509295D01*
X155435111Y-105943799D01*
X155601038Y-106345373D01*
X155732495Y-106477060D01*
X153860500Y-106477060D01*
X153625183Y-106521338D01*
X153409059Y-106660410D01*
X153264069Y-106872610D01*
X153213060Y-107124500D01*
X153213060Y-109156500D01*
X153257338Y-109391817D01*
X153396410Y-109607941D01*
X153577272Y-109731518D01*
X153555390Y-109753400D01*
X150658650Y-109753400D01*
X150936310Y-109698170D01*
X151471933Y-109340278D01*
X151829825Y-108804655D01*
X151955500Y-108172845D01*
X151955500Y-108108155D01*
X151829825Y-107476345D01*
X151471933Y-106940722D01*
X150936310Y-106582830D01*
X150304500Y-106457155D01*
X150212115Y-106475532D01*
X150340882Y-106346989D01*
X150507510Y-105945705D01*
X150507619Y-105820775D01*
X152802197Y-103526197D01*
X152983896Y-103254265D01*
X153047700Y-102933500D01*
X153047700Y-92519500D01*
X153010457Y-92332266D01*
X152983896Y-92198734D01*
X152802197Y-91926803D01*
X151532197Y-90656803D01*
X151260266Y-90475104D01*
X150981940Y-90419742D01*
X150981940Y-90249500D01*
X150940544Y-90029500D01*
X154243611Y-90029500D01*
X154199060Y-90249500D01*
X154199060Y-90249500D01*
G37*
X154199060Y-90249500D02*
X154199060Y-92249500D01*
X154243338Y-92484817D01*
X154382410Y-92700941D01*
X154549120Y-92814849D01*
X154287356Y-93281145D01*
X154256376Y-93409066D01*
X154375723Y-93662500D01*
X156019500Y-93662500D01*
X156019500Y-93642500D01*
X156273500Y-93642500D01*
X156273500Y-93662500D01*
X156293500Y-93662500D01*
X156293500Y-93916500D01*
X156273500Y-93916500D01*
X156273500Y-93936500D01*
X156019500Y-93936500D01*
X156019500Y-93916500D01*
X154375723Y-93916500D01*
X154256376Y-94169934D01*
X154287356Y-94297855D01*
X154600578Y-94855817D01*
X154842688Y-95046281D01*
X154652471Y-95173380D01*
X154298048Y-95703813D01*
X154173591Y-96329500D01*
X154298048Y-96955187D01*
X154652471Y-97485620D01*
X155182904Y-97840043D01*
X155808591Y-97964500D01*
X156484409Y-97964500D01*
X157110096Y-97840043D01*
X157640529Y-97485620D01*
X157975300Y-96984598D01*
X157975300Y-102447728D01*
X155934803Y-104488225D01*
X155753104Y-104760156D01*
X155714562Y-104953922D01*
X155704177Y-105006130D01*
X155602118Y-105108011D01*
X155435490Y-105509295D01*
X155435111Y-105943799D01*
X155601038Y-106345373D01*
X155732495Y-106477060D01*
X153860500Y-106477060D01*
X153625183Y-106521338D01*
X153409059Y-106660410D01*
X153264069Y-106872610D01*
X153213060Y-107124500D01*
X153213060Y-109156500D01*
X153257338Y-109391817D01*
X153396410Y-109607941D01*
X153577272Y-109731518D01*
X153555390Y-109753400D01*
X150658650Y-109753400D01*
X150936310Y-109698170D01*
X151471933Y-109340278D01*
X151829825Y-108804655D01*
X151955500Y-108172845D01*
X151955500Y-108108155D01*
X151829825Y-107476345D01*
X151471933Y-106940722D01*
X150936310Y-106582830D01*
X150304500Y-106457155D01*
X150212115Y-106475532D01*
X150340882Y-106346989D01*
X150507510Y-105945705D01*
X150507619Y-105820775D01*
X152802197Y-103526197D01*
X152983896Y-103254265D01*
X153047700Y-102933500D01*
X153047700Y-92519500D01*
X153010457Y-92332266D01*
X152983896Y-92198734D01*
X152802197Y-91926803D01*
X151532197Y-90656803D01*
X151260266Y-90475104D01*
X150981940Y-90419742D01*
X150981940Y-90249500D01*
X150940544Y-90029500D01*
X154243611Y-90029500D01*
X154199060Y-90249500D01*
G36*
X132863060Y-90249500D02*
X132863060Y-92249500D01*
X132907338Y-92484817D01*
X133046410Y-92700941D01*
X133213120Y-92814849D01*
X132951356Y-93281145D01*
X132920376Y-93409066D01*
X133039723Y-93662500D01*
X134683500Y-93662500D01*
X134683500Y-93642500D01*
X134937500Y-93642500D01*
X134937500Y-93662500D01*
X136581277Y-93662500D01*
X136700624Y-93409066D01*
X136669644Y-93281145D01*
X136407005Y-92813289D01*
X136561941Y-92713590D01*
X136656786Y-92574780D01*
X137655300Y-93573294D01*
X137655300Y-102078306D01*
X135098388Y-104635218D01*
X134975201Y-104635111D01*
X134573627Y-104801038D01*
X134266118Y-105108011D01*
X134099490Y-105509295D01*
X134099111Y-105943799D01*
X134265038Y-106345373D01*
X134396495Y-106477060D01*
X132524500Y-106477060D01*
X132289183Y-106521338D01*
X132073059Y-106660410D01*
X131928069Y-106872610D01*
X131877060Y-107124500D01*
X131877060Y-109156500D01*
X131905736Y-109308900D01*
X130156899Y-109308900D01*
X130493825Y-108804655D01*
X130619500Y-108172845D01*
X130619500Y-108108155D01*
X130493825Y-107476345D01*
X130135933Y-106940722D01*
X129600310Y-106582830D01*
X129080471Y-106479427D01*
X129318775Y-106320197D01*
X131847197Y-103791775D01*
X132028896Y-103519843D01*
X132092700Y-103199078D01*
X132092700Y-96329500D01*
X132837591Y-96329500D01*
X132962048Y-96955187D01*
X133316471Y-97485620D01*
X133846904Y-97840043D01*
X134472591Y-97964500D01*
X135148409Y-97964500D01*
X135774096Y-97840043D01*
X136304529Y-97485620D01*
X136658952Y-96955187D01*
X136783409Y-96329500D01*
X136658952Y-95703813D01*
X136304529Y-95173380D01*
X136114312Y-95046281D01*
X136356422Y-94855817D01*
X136669644Y-94297855D01*
X136700624Y-94169934D01*
X136581277Y-93916500D01*
X134937500Y-93916500D01*
X134937500Y-93936500D01*
X134683500Y-93936500D01*
X134683500Y-93916500D01*
X133039723Y-93916500D01*
X132920376Y-94169934D01*
X132951356Y-94297855D01*
X133264578Y-94855817D01*
X133506688Y-95046281D01*
X133316471Y-95173380D01*
X132962048Y-95703813D01*
X132837591Y-96329500D01*
X132092700Y-96329500D01*
X132092700Y-92011500D01*
X132028896Y-91690735D01*
X131847197Y-91418803D01*
X131085197Y-90656803D01*
X130813266Y-90475104D01*
X130492500Y-90411300D01*
X129645940Y-90411300D01*
X129645940Y-90249500D01*
X129604544Y-90029500D01*
X132907611Y-90029500D01*
X132863060Y-90249500D01*
X132863060Y-90249500D01*
G37*
X132863060Y-90249500D02*
X132863060Y-92249500D01*
X132907338Y-92484817D01*
X133046410Y-92700941D01*
X133213120Y-92814849D01*
X132951356Y-93281145D01*
X132920376Y-93409066D01*
X133039723Y-93662500D01*
X134683500Y-93662500D01*
X134683500Y-93642500D01*
X134937500Y-93642500D01*
X134937500Y-93662500D01*
X136581277Y-93662500D01*
X136700624Y-93409066D01*
X136669644Y-93281145D01*
X136407005Y-92813289D01*
X136561941Y-92713590D01*
X136656786Y-92574780D01*
X137655300Y-93573294D01*
X137655300Y-102078306D01*
X135098388Y-104635218D01*
X134975201Y-104635111D01*
X134573627Y-104801038D01*
X134266118Y-105108011D01*
X134099490Y-105509295D01*
X134099111Y-105943799D01*
X134265038Y-106345373D01*
X134396495Y-106477060D01*
X132524500Y-106477060D01*
X132289183Y-106521338D01*
X132073059Y-106660410D01*
X131928069Y-106872610D01*
X131877060Y-107124500D01*
X131877060Y-109156500D01*
X131905736Y-109308900D01*
X130156899Y-109308900D01*
X130493825Y-108804655D01*
X130619500Y-108172845D01*
X130619500Y-108108155D01*
X130493825Y-107476345D01*
X130135933Y-106940722D01*
X129600310Y-106582830D01*
X129080471Y-106479427D01*
X129318775Y-106320197D01*
X131847197Y-103791775D01*
X132028896Y-103519843D01*
X132092700Y-103199078D01*
X132092700Y-96329500D01*
X132837591Y-96329500D01*
X132962048Y-96955187D01*
X133316471Y-97485620D01*
X133846904Y-97840043D01*
X134472591Y-97964500D01*
X135148409Y-97964500D01*
X135774096Y-97840043D01*
X136304529Y-97485620D01*
X136658952Y-96955187D01*
X136783409Y-96329500D01*
X136658952Y-95703813D01*
X136304529Y-95173380D01*
X136114312Y-95046281D01*
X136356422Y-94855817D01*
X136669644Y-94297855D01*
X136700624Y-94169934D01*
X136581277Y-93916500D01*
X134937500Y-93916500D01*
X134937500Y-93936500D01*
X134683500Y-93936500D01*
X134683500Y-93916500D01*
X133039723Y-93916500D01*
X132920376Y-94169934D01*
X132951356Y-94297855D01*
X133264578Y-94855817D01*
X133506688Y-95046281D01*
X133316471Y-95173380D01*
X132962048Y-95703813D01*
X132837591Y-96329500D01*
X132092700Y-96329500D01*
X132092700Y-92011500D01*
X132028896Y-91690735D01*
X131847197Y-91418803D01*
X131085197Y-90656803D01*
X130813266Y-90475104D01*
X130492500Y-90411300D01*
X129645940Y-90411300D01*
X129645940Y-90249500D01*
X129604544Y-90029500D01*
X132907611Y-90029500D01*
X132863060Y-90249500D01*
G36*
X147087060Y-90249500D02*
X147087060Y-92249500D01*
X147131338Y-92484817D01*
X147270410Y-92700941D01*
X147437120Y-92814849D01*
X147175356Y-93281145D01*
X147144376Y-93409066D01*
X147263723Y-93662500D01*
X148907500Y-93662500D01*
X148907500Y-93642500D01*
X149161500Y-93642500D01*
X149161500Y-93662500D01*
X150805277Y-93662500D01*
X150924624Y-93409066D01*
X150893644Y-93281145D01*
X150631005Y-92813289D01*
X150785941Y-92713590D01*
X150930931Y-92501390D01*
X150943572Y-92438966D01*
X151371300Y-92866694D01*
X151371300Y-102586306D01*
X149322388Y-104635218D01*
X149199201Y-104635111D01*
X148797627Y-104801038D01*
X148490118Y-105108011D01*
X148323490Y-105509295D01*
X148323111Y-105943799D01*
X148489038Y-106345373D01*
X148620495Y-106477060D01*
X146748500Y-106477060D01*
X146513183Y-106521338D01*
X146297059Y-106660410D01*
X146152069Y-106872610D01*
X146101060Y-107124500D01*
X146101060Y-109156500D01*
X146129736Y-109308900D01*
X144380899Y-109308900D01*
X144717825Y-108804655D01*
X144843500Y-108172845D01*
X144843500Y-108108155D01*
X144717825Y-107476345D01*
X144359933Y-106940722D01*
X143824310Y-106582830D01*
X143192500Y-106457155D01*
X143100115Y-106475532D01*
X143228882Y-106346989D01*
X143395510Y-105945705D01*
X143395619Y-105820775D01*
X145563197Y-103653197D01*
X145744896Y-103381265D01*
X145808700Y-103060500D01*
X145808700Y-96329500D01*
X147061591Y-96329500D01*
X147186048Y-96955187D01*
X147540471Y-97485620D01*
X148070904Y-97840043D01*
X148696591Y-97964500D01*
X149372409Y-97964500D01*
X149998096Y-97840043D01*
X150528529Y-97485620D01*
X150882952Y-96955187D01*
X151007409Y-96329500D01*
X150882952Y-95703813D01*
X150528529Y-95173380D01*
X150338312Y-95046281D01*
X150580422Y-94855817D01*
X150893644Y-94297855D01*
X150924624Y-94169934D01*
X150805277Y-93916500D01*
X149161500Y-93916500D01*
X149161500Y-93936500D01*
X148907500Y-93936500D01*
X148907500Y-93916500D01*
X147263723Y-93916500D01*
X147144376Y-94169934D01*
X147175356Y-94297855D01*
X147488578Y-94855817D01*
X147730688Y-95046281D01*
X147540471Y-95173380D01*
X147186048Y-95703813D01*
X147061591Y-96329500D01*
X145808700Y-96329500D01*
X145808700Y-91757500D01*
X145744896Y-91436735D01*
X145563197Y-91164803D01*
X145055197Y-90656803D01*
X144783266Y-90475104D01*
X144462500Y-90411300D01*
X143869940Y-90411300D01*
X143869940Y-90249500D01*
X143828544Y-90029500D01*
X147131611Y-90029500D01*
X147087060Y-90249500D01*
X147087060Y-90249500D01*
G37*
X147087060Y-90249500D02*
X147087060Y-92249500D01*
X147131338Y-92484817D01*
X147270410Y-92700941D01*
X147437120Y-92814849D01*
X147175356Y-93281145D01*
X147144376Y-93409066D01*
X147263723Y-93662500D01*
X148907500Y-93662500D01*
X148907500Y-93642500D01*
X149161500Y-93642500D01*
X149161500Y-93662500D01*
X150805277Y-93662500D01*
X150924624Y-93409066D01*
X150893644Y-93281145D01*
X150631005Y-92813289D01*
X150785941Y-92713590D01*
X150930931Y-92501390D01*
X150943572Y-92438966D01*
X151371300Y-92866694D01*
X151371300Y-102586306D01*
X149322388Y-104635218D01*
X149199201Y-104635111D01*
X148797627Y-104801038D01*
X148490118Y-105108011D01*
X148323490Y-105509295D01*
X148323111Y-105943799D01*
X148489038Y-106345373D01*
X148620495Y-106477060D01*
X146748500Y-106477060D01*
X146513183Y-106521338D01*
X146297059Y-106660410D01*
X146152069Y-106872610D01*
X146101060Y-107124500D01*
X146101060Y-109156500D01*
X146129736Y-109308900D01*
X144380899Y-109308900D01*
X144717825Y-108804655D01*
X144843500Y-108172845D01*
X144843500Y-108108155D01*
X144717825Y-107476345D01*
X144359933Y-106940722D01*
X143824310Y-106582830D01*
X143192500Y-106457155D01*
X143100115Y-106475532D01*
X143228882Y-106346989D01*
X143395510Y-105945705D01*
X143395619Y-105820775D01*
X145563197Y-103653197D01*
X145744896Y-103381265D01*
X145808700Y-103060500D01*
X145808700Y-96329500D01*
X147061591Y-96329500D01*
X147186048Y-96955187D01*
X147540471Y-97485620D01*
X148070904Y-97840043D01*
X148696591Y-97964500D01*
X149372409Y-97964500D01*
X149998096Y-97840043D01*
X150528529Y-97485620D01*
X150882952Y-96955187D01*
X151007409Y-96329500D01*
X150882952Y-95703813D01*
X150528529Y-95173380D01*
X150338312Y-95046281D01*
X150580422Y-94855817D01*
X150893644Y-94297855D01*
X150924624Y-94169934D01*
X150805277Y-93916500D01*
X149161500Y-93916500D01*
X149161500Y-93936500D01*
X148907500Y-93936500D01*
X148907500Y-93916500D01*
X147263723Y-93916500D01*
X147144376Y-94169934D01*
X147175356Y-94297855D01*
X147488578Y-94855817D01*
X147730688Y-95046281D01*
X147540471Y-95173380D01*
X147186048Y-95703813D01*
X147061591Y-96329500D01*
X145808700Y-96329500D01*
X145808700Y-91757500D01*
X145744896Y-91436735D01*
X145563197Y-91164803D01*
X145055197Y-90656803D01*
X144783266Y-90475104D01*
X144462500Y-90411300D01*
X143869940Y-90411300D01*
X143869940Y-90249500D01*
X143828544Y-90029500D01*
X147131611Y-90029500D01*
X147087060Y-90249500D01*
G36*
X139975060Y-90249500D02*
X139975060Y-92249500D01*
X140019338Y-92484817D01*
X140158410Y-92700941D01*
X140325120Y-92814849D01*
X140063356Y-93281145D01*
X140032376Y-93409066D01*
X140151723Y-93662500D01*
X141795500Y-93662500D01*
X141795500Y-93642500D01*
X142049500Y-93642500D01*
X142049500Y-93662500D01*
X143693277Y-93662500D01*
X143812624Y-93409066D01*
X143781644Y-93281145D01*
X143519005Y-92813289D01*
X143673941Y-92713590D01*
X143818931Y-92501390D01*
X143869940Y-92249500D01*
X143869940Y-92087700D01*
X144115306Y-92087700D01*
X144132300Y-92104694D01*
X144132300Y-102713306D01*
X142210388Y-104635218D01*
X142087201Y-104635111D01*
X141685627Y-104801038D01*
X141378118Y-105108011D01*
X141211490Y-105509295D01*
X141211111Y-105943799D01*
X141377038Y-106345373D01*
X141508495Y-106477060D01*
X139636500Y-106477060D01*
X139401183Y-106521338D01*
X139185059Y-106660410D01*
X139040069Y-106872610D01*
X138989060Y-107124500D01*
X138989060Y-109156500D01*
X139017736Y-109308900D01*
X137268899Y-109308900D01*
X137605825Y-108804655D01*
X137731500Y-108172845D01*
X137731500Y-108108155D01*
X137605825Y-107476345D01*
X137247933Y-106940722D01*
X136712310Y-106582830D01*
X136080500Y-106457155D01*
X135988115Y-106475532D01*
X136116882Y-106346989D01*
X136283510Y-105945705D01*
X136283619Y-105820775D01*
X139086197Y-103018197D01*
X139267896Y-102746266D01*
X139331700Y-102425500D01*
X139331700Y-96329500D01*
X139949591Y-96329500D01*
X140074048Y-96955187D01*
X140428471Y-97485620D01*
X140958904Y-97840043D01*
X141584591Y-97964500D01*
X142260409Y-97964500D01*
X142886096Y-97840043D01*
X143416529Y-97485620D01*
X143770952Y-96955187D01*
X143895409Y-96329500D01*
X143770952Y-95703813D01*
X143416529Y-95173380D01*
X143226312Y-95046281D01*
X143468422Y-94855817D01*
X143781644Y-94297855D01*
X143812624Y-94169934D01*
X143693277Y-93916500D01*
X142049500Y-93916500D01*
X142049500Y-93936500D01*
X141795500Y-93936500D01*
X141795500Y-93916500D01*
X140151723Y-93916500D01*
X140032376Y-94169934D01*
X140063356Y-94297855D01*
X140376578Y-94855817D01*
X140618688Y-95046281D01*
X140428471Y-95173380D01*
X140074048Y-95703813D01*
X139949591Y-96329500D01*
X139331700Y-96329500D01*
X139331700Y-93226100D01*
X139267896Y-92905335D01*
X139086197Y-92633403D01*
X137109597Y-90656803D01*
X136837666Y-90475104D01*
X136757940Y-90459246D01*
X136757940Y-90249500D01*
X136716544Y-90029500D01*
X140019611Y-90029500D01*
X139975060Y-90249500D01*
X139975060Y-90249500D01*
G37*
X139975060Y-90249500D02*
X139975060Y-92249500D01*
X140019338Y-92484817D01*
X140158410Y-92700941D01*
X140325120Y-92814849D01*
X140063356Y-93281145D01*
X140032376Y-93409066D01*
X140151723Y-93662500D01*
X141795500Y-93662500D01*
X141795500Y-93642500D01*
X142049500Y-93642500D01*
X142049500Y-93662500D01*
X143693277Y-93662500D01*
X143812624Y-93409066D01*
X143781644Y-93281145D01*
X143519005Y-92813289D01*
X143673941Y-92713590D01*
X143818931Y-92501390D01*
X143869940Y-92249500D01*
X143869940Y-92087700D01*
X144115306Y-92087700D01*
X144132300Y-92104694D01*
X144132300Y-102713306D01*
X142210388Y-104635218D01*
X142087201Y-104635111D01*
X141685627Y-104801038D01*
X141378118Y-105108011D01*
X141211490Y-105509295D01*
X141211111Y-105943799D01*
X141377038Y-106345373D01*
X141508495Y-106477060D01*
X139636500Y-106477060D01*
X139401183Y-106521338D01*
X139185059Y-106660410D01*
X139040069Y-106872610D01*
X138989060Y-107124500D01*
X138989060Y-109156500D01*
X139017736Y-109308900D01*
X137268899Y-109308900D01*
X137605825Y-108804655D01*
X137731500Y-108172845D01*
X137731500Y-108108155D01*
X137605825Y-107476345D01*
X137247933Y-106940722D01*
X136712310Y-106582830D01*
X136080500Y-106457155D01*
X135988115Y-106475532D01*
X136116882Y-106346989D01*
X136283510Y-105945705D01*
X136283619Y-105820775D01*
X139086197Y-103018197D01*
X139267896Y-102746266D01*
X139331700Y-102425500D01*
X139331700Y-96329500D01*
X139949591Y-96329500D01*
X140074048Y-96955187D01*
X140428471Y-97485620D01*
X140958904Y-97840043D01*
X141584591Y-97964500D01*
X142260409Y-97964500D01*
X142886096Y-97840043D01*
X143416529Y-97485620D01*
X143770952Y-96955187D01*
X143895409Y-96329500D01*
X143770952Y-95703813D01*
X143416529Y-95173380D01*
X143226312Y-95046281D01*
X143468422Y-94855817D01*
X143781644Y-94297855D01*
X143812624Y-94169934D01*
X143693277Y-93916500D01*
X142049500Y-93916500D01*
X142049500Y-93936500D01*
X141795500Y-93936500D01*
X141795500Y-93916500D01*
X140151723Y-93916500D01*
X140032376Y-94169934D01*
X140063356Y-94297855D01*
X140376578Y-94855817D01*
X140618688Y-95046281D01*
X140428471Y-95173380D01*
X140074048Y-95703813D01*
X139949591Y-96329500D01*
X139331700Y-96329500D01*
X139331700Y-93226100D01*
X139267896Y-92905335D01*
X139086197Y-92633403D01*
X137109597Y-90656803D01*
X136837666Y-90475104D01*
X136757940Y-90459246D01*
X136757940Y-90249500D01*
X136716544Y-90029500D01*
X140019611Y-90029500D01*
X139975060Y-90249500D01*
G36*
X125751060Y-90249500D02*
X125751060Y-92249500D01*
X125795338Y-92484817D01*
X125934410Y-92700941D01*
X126101120Y-92814849D01*
X125839356Y-93281145D01*
X125808376Y-93409066D01*
X125927723Y-93662500D01*
X127571500Y-93662500D01*
X127571500Y-93642500D01*
X127825500Y-93642500D01*
X127825500Y-93662500D01*
X129469277Y-93662500D01*
X129588624Y-93409066D01*
X129557644Y-93281145D01*
X129295005Y-92813289D01*
X129449941Y-92713590D01*
X129594931Y-92501390D01*
X129645940Y-92249500D01*
X129645940Y-92087700D01*
X130145306Y-92087700D01*
X130416300Y-92358694D01*
X130416300Y-102851884D01*
X128534407Y-104733777D01*
X128297705Y-104635490D01*
X127863201Y-104635111D01*
X127461627Y-104801038D01*
X127154118Y-105108011D01*
X126987490Y-105509295D01*
X126987111Y-105943799D01*
X127153038Y-106345373D01*
X127284495Y-106477060D01*
X125412500Y-106477060D01*
X125177183Y-106521338D01*
X124961059Y-106660410D01*
X124816069Y-106872610D01*
X124765060Y-107124500D01*
X124765060Y-109156500D01*
X124793736Y-109308900D01*
X123044899Y-109308900D01*
X123381825Y-108804655D01*
X123507500Y-108172845D01*
X123507500Y-108108155D01*
X123381825Y-107476345D01*
X123023933Y-106940722D01*
X122488310Y-106582830D01*
X121968471Y-106479427D01*
X122206775Y-106320197D01*
X124735197Y-103791775D01*
X124916896Y-103519843D01*
X124980700Y-103199078D01*
X124980700Y-96329500D01*
X125725591Y-96329500D01*
X125850048Y-96955187D01*
X126204471Y-97485620D01*
X126734904Y-97840043D01*
X127360591Y-97964500D01*
X128036409Y-97964500D01*
X128662096Y-97840043D01*
X129192529Y-97485620D01*
X129546952Y-96955187D01*
X129671409Y-96329500D01*
X129546952Y-95703813D01*
X129192529Y-95173380D01*
X129002312Y-95046281D01*
X129244422Y-94855817D01*
X129557644Y-94297855D01*
X129588624Y-94169934D01*
X129469277Y-93916500D01*
X127825500Y-93916500D01*
X127825500Y-93936500D01*
X127571500Y-93936500D01*
X127571500Y-93916500D01*
X125927723Y-93916500D01*
X125808376Y-94169934D01*
X125839356Y-94297855D01*
X126152578Y-94855817D01*
X126394688Y-95046281D01*
X126204471Y-95173380D01*
X125850048Y-95703813D01*
X125725591Y-96329500D01*
X124980700Y-96329500D01*
X124980700Y-92519500D01*
X124943457Y-92332266D01*
X124916896Y-92198734D01*
X124735197Y-91926803D01*
X123465197Y-90656803D01*
X123193266Y-90475104D01*
X122872500Y-90411300D01*
X122533940Y-90411300D01*
X122533940Y-90249500D01*
X122492544Y-90029500D01*
X125795611Y-90029500D01*
X125751060Y-90249500D01*
X125751060Y-90249500D01*
G37*
X125751060Y-90249500D02*
X125751060Y-92249500D01*
X125795338Y-92484817D01*
X125934410Y-92700941D01*
X126101120Y-92814849D01*
X125839356Y-93281145D01*
X125808376Y-93409066D01*
X125927723Y-93662500D01*
X127571500Y-93662500D01*
X127571500Y-93642500D01*
X127825500Y-93642500D01*
X127825500Y-93662500D01*
X129469277Y-93662500D01*
X129588624Y-93409066D01*
X129557644Y-93281145D01*
X129295005Y-92813289D01*
X129449941Y-92713590D01*
X129594931Y-92501390D01*
X129645940Y-92249500D01*
X129645940Y-92087700D01*
X130145306Y-92087700D01*
X130416300Y-92358694D01*
X130416300Y-102851884D01*
X128534407Y-104733777D01*
X128297705Y-104635490D01*
X127863201Y-104635111D01*
X127461627Y-104801038D01*
X127154118Y-105108011D01*
X126987490Y-105509295D01*
X126987111Y-105943799D01*
X127153038Y-106345373D01*
X127284495Y-106477060D01*
X125412500Y-106477060D01*
X125177183Y-106521338D01*
X124961059Y-106660410D01*
X124816069Y-106872610D01*
X124765060Y-107124500D01*
X124765060Y-109156500D01*
X124793736Y-109308900D01*
X123044899Y-109308900D01*
X123381825Y-108804655D01*
X123507500Y-108172845D01*
X123507500Y-108108155D01*
X123381825Y-107476345D01*
X123023933Y-106940722D01*
X122488310Y-106582830D01*
X121968471Y-106479427D01*
X122206775Y-106320197D01*
X124735197Y-103791775D01*
X124916896Y-103519843D01*
X124980700Y-103199078D01*
X124980700Y-96329500D01*
X125725591Y-96329500D01*
X125850048Y-96955187D01*
X126204471Y-97485620D01*
X126734904Y-97840043D01*
X127360591Y-97964500D01*
X128036409Y-97964500D01*
X128662096Y-97840043D01*
X129192529Y-97485620D01*
X129546952Y-96955187D01*
X129671409Y-96329500D01*
X129546952Y-95703813D01*
X129192529Y-95173380D01*
X129002312Y-95046281D01*
X129244422Y-94855817D01*
X129557644Y-94297855D01*
X129588624Y-94169934D01*
X129469277Y-93916500D01*
X127825500Y-93916500D01*
X127825500Y-93936500D01*
X127571500Y-93936500D01*
X127571500Y-93916500D01*
X125927723Y-93916500D01*
X125808376Y-94169934D01*
X125839356Y-94297855D01*
X126152578Y-94855817D01*
X126394688Y-95046281D01*
X126204471Y-95173380D01*
X125850048Y-95703813D01*
X125725591Y-96329500D01*
X124980700Y-96329500D01*
X124980700Y-92519500D01*
X124943457Y-92332266D01*
X124916896Y-92198734D01*
X124735197Y-91926803D01*
X123465197Y-90656803D01*
X123193266Y-90475104D01*
X122872500Y-90411300D01*
X122533940Y-90411300D01*
X122533940Y-90249500D01*
X122492544Y-90029500D01*
X125795611Y-90029500D01*
X125751060Y-90249500D01*
M02*
