G04 #@! TF.FileFunction,Soldermask,Bot*
%FSLAX46Y46*%
G04 Gerber Fmt 4.6, Leading zero omitted, Abs format (unit mm)*
G04 Created by KiCad (PCBNEW 4.0.1-stable) date 2016-06-29 05:17:59*
%MOMM*%
G01*
G04 APERTURE LIST*
%ADD10C,0.100000*%
%ADD11C,6.000000*%
%ADD12O,3.000000X2.000000*%
%ADD13C,1.800000*%
%ADD14R,1.500000X1.000000*%
%ADD15R,0.203200X0.508000*%
%ADD16R,2.600000X2.000000*%
%ADD17O,2.600000X2.000000*%
G04 APERTURE END LIST*
D10*
D11*
X5000000Y-25000000D03*
D12*
X6702000Y-14450000D03*
X6702000Y-10950000D03*
D13*
X50980500Y-23288500D03*
X62715500Y-23288500D03*
D14*
X62309000Y-15240000D03*
X62309000Y-13970000D03*
D15*
X62309000Y-14605000D03*
D13*
X9451500Y-23035000D03*
X21186500Y-23035000D03*
D14*
X48085000Y-15367000D03*
X48085000Y-14097000D03*
D15*
X48085000Y-14732000D03*
D14*
X40973000Y-15367000D03*
X40973000Y-14097000D03*
D15*
X40973000Y-14732000D03*
D14*
X33861000Y-15367000D03*
X33861000Y-14097000D03*
D15*
X33861000Y-14732000D03*
D14*
X26749000Y-15240000D03*
X26749000Y-13970000D03*
D15*
X26749000Y-14605000D03*
D14*
X19637000Y-15367000D03*
X19637000Y-14097000D03*
D15*
X19637000Y-14732000D03*
D14*
X55197000Y-15367000D03*
X55197000Y-14097000D03*
D15*
X55197000Y-14732000D03*
D16*
X24653500Y-2349500D03*
D17*
X24653500Y-4889500D03*
X24653500Y-7429500D03*
D16*
X31765500Y-2349500D03*
D17*
X31765500Y-4889500D03*
X31765500Y-7429500D03*
D16*
X38877500Y-2349500D03*
D17*
X38877500Y-4889500D03*
X38877500Y-7429500D03*
D16*
X45989500Y-2349500D03*
D17*
X45989500Y-4889500D03*
X45989500Y-7429500D03*
D16*
X53101500Y-2349500D03*
D17*
X53101500Y-4889500D03*
X53101500Y-7429500D03*
D16*
X60213500Y-2349500D03*
D17*
X60213500Y-4889500D03*
X60213500Y-7429500D03*
D16*
X17541500Y-2349500D03*
D17*
X17541500Y-4889500D03*
X17541500Y-7429500D03*
M02*
