G04 #@! TF.FileFunction,Soldermask,Bot*
%FSLAX46Y46*%
G04 Gerber Fmt 4.6, Leading zero omitted, Abs format (unit mm)*
G04 Created by KiCad (PCBNEW 4.0.1-stable) date 2016-06-28 03:14:43*
%MOMM*%
G01*
G04 APERTURE LIST*
%ADD10C,0.100000*%
%ADD11C,0.010000*%
%ADD12O,3.000000X2.000000*%
%ADD13C,1.800000*%
%ADD14R,2.600000X2.000000*%
%ADD15O,2.600000X2.000000*%
%ADD16R,2.032000X2.032000*%
%ADD17O,2.032000X2.032000*%
%ADD18C,6.000000*%
G04 APERTURE END LIST*
D10*
D11*
G36*
X158921489Y-112934496D02*
X158860586Y-112948591D01*
X158390757Y-113094845D01*
X157994735Y-113290000D01*
X157674651Y-113532588D01*
X157432632Y-113821144D01*
X157332500Y-114001188D01*
X157280024Y-114120484D01*
X157244889Y-114228099D01*
X157223702Y-114347241D01*
X157213070Y-114501117D01*
X157209599Y-114712935D01*
X157209482Y-114842636D01*
X157218954Y-115192798D01*
X157252611Y-115478411D01*
X157319926Y-115718319D01*
X157430376Y-115931362D01*
X157593434Y-116136382D01*
X157818576Y-116352220D01*
X158076529Y-116566827D01*
X158321282Y-116801631D01*
X158478612Y-117046870D01*
X158553418Y-117310257D01*
X158554514Y-117319155D01*
X158564141Y-117472249D01*
X158544311Y-117563909D01*
X158507020Y-117609191D01*
X158439775Y-117686515D01*
X158460021Y-117734244D01*
X158567749Y-117752362D01*
X158582591Y-117752542D01*
X158708898Y-117772554D01*
X158872400Y-117823471D01*
X158979722Y-117867997D01*
X159113388Y-117929347D01*
X159207884Y-117971069D01*
X159238863Y-117983000D01*
X159240234Y-117943950D01*
X159227527Y-117860394D01*
X159204089Y-117737787D01*
X159464840Y-117768433D01*
X159629804Y-117777265D01*
X159712987Y-117758498D01*
X159718946Y-117717356D01*
X159652234Y-117659061D01*
X159517407Y-117588838D01*
X159319020Y-117511911D01*
X159210294Y-117476520D01*
X159052702Y-117419131D01*
X158932774Y-117359229D01*
X158876209Y-117309678D01*
X158876025Y-117309213D01*
X158859608Y-117221932D01*
X158849586Y-117082865D01*
X158848136Y-117005852D01*
X158858055Y-116849649D01*
X158898662Y-116741210D01*
X158986237Y-116637068D01*
X158986240Y-116637065D01*
X159130892Y-116534849D01*
X159265490Y-116518401D01*
X159382844Y-116581172D01*
X159475766Y-116716611D01*
X159537066Y-116918167D01*
X159559398Y-117159332D01*
X159563059Y-117428818D01*
X159718160Y-117428818D01*
X159859274Y-117456617D01*
X159987672Y-117551903D01*
X160007244Y-117572248D01*
X160141227Y-117715677D01*
X160141227Y-117569136D01*
X160148926Y-117470350D01*
X160185100Y-117441784D01*
X160245136Y-117454105D01*
X160356932Y-117509166D01*
X160452955Y-117580722D01*
X160525122Y-117640855D01*
X160552903Y-117638019D01*
X160556864Y-117595469D01*
X160513920Y-117420077D01*
X160388403Y-117279011D01*
X160185281Y-117177149D01*
X160107352Y-117154299D01*
X160011238Y-117127124D01*
X159946752Y-117091918D01*
X159903930Y-117030265D01*
X159872808Y-116923752D01*
X159843421Y-116753963D01*
X159825292Y-116633033D01*
X159806543Y-116480162D01*
X159809742Y-116395143D01*
X159837589Y-116355491D01*
X159859716Y-116346206D01*
X159926359Y-116331502D01*
X160068758Y-116303539D01*
X160271724Y-116265182D01*
X160520068Y-116219296D01*
X160798600Y-116168747D01*
X160836271Y-116161976D01*
X161355849Y-116062709D01*
X161791321Y-115965470D01*
X162150801Y-115867140D01*
X162442403Y-115764599D01*
X162674241Y-115654731D01*
X162854430Y-115534417D01*
X162991082Y-115400537D01*
X163058382Y-115307965D01*
X163133333Y-115174654D01*
X163180674Y-115061365D01*
X163189227Y-115018322D01*
X163217037Y-114955213D01*
X163312487Y-114935090D01*
X163322989Y-114935000D01*
X163471596Y-114892485D01*
X163602503Y-114779604D01*
X163698498Y-114618353D01*
X163727021Y-114496375D01*
X163677275Y-114496375D01*
X163616284Y-114658547D01*
X163510152Y-114784435D01*
X163375141Y-114862120D01*
X163227514Y-114879681D01*
X163083532Y-114825198D01*
X163032314Y-114782285D01*
X162947954Y-114687044D01*
X162895868Y-114609103D01*
X162865817Y-114565547D01*
X162836041Y-114609103D01*
X162739074Y-114745420D01*
X162601740Y-114847253D01*
X162459225Y-114888774D01*
X162454993Y-114888818D01*
X162288285Y-114849865D01*
X162161787Y-114746860D01*
X162079181Y-114600587D01*
X162044150Y-114431829D01*
X162060380Y-114261371D01*
X162131552Y-114109994D01*
X162261352Y-113998483D01*
X162294429Y-113982895D01*
X162469657Y-113947103D01*
X162627321Y-113997954D01*
X162773793Y-114134915D01*
X162851346Y-114212664D01*
X162895599Y-114215102D01*
X162898955Y-114208254D01*
X162994302Y-114062827D01*
X163142513Y-113960867D01*
X163215458Y-113938138D01*
X163365992Y-113951976D01*
X163510376Y-114036086D01*
X163623601Y-114170321D01*
X163676863Y-114309840D01*
X163677275Y-114496375D01*
X163727021Y-114496375D01*
X163742372Y-114430729D01*
X163743409Y-114397684D01*
X163731582Y-114249818D01*
X163682741Y-114139687D01*
X163586391Y-114029836D01*
X163455315Y-113921466D01*
X163330059Y-113876887D01*
X163265844Y-113872818D01*
X163148439Y-113885733D01*
X163075744Y-113917367D01*
X163071432Y-113922787D01*
X163019640Y-113930523D01*
X162927194Y-113864514D01*
X162918616Y-113856452D01*
X162808900Y-113766816D01*
X162687419Y-113705351D01*
X162534412Y-113667250D01*
X162330117Y-113647709D01*
X162054772Y-113641924D01*
X162036251Y-113641909D01*
X161535834Y-113641909D01*
X161265712Y-113439889D01*
X160827936Y-113160081D01*
X160381010Y-112970942D01*
X159918549Y-112871168D01*
X159434171Y-112859453D01*
X158921489Y-112934496D01*
X158921489Y-112934496D01*
G37*
X158921489Y-112934496D02*
X158860586Y-112948591D01*
X158390757Y-113094845D01*
X157994735Y-113290000D01*
X157674651Y-113532588D01*
X157432632Y-113821144D01*
X157332500Y-114001188D01*
X157280024Y-114120484D01*
X157244889Y-114228099D01*
X157223702Y-114347241D01*
X157213070Y-114501117D01*
X157209599Y-114712935D01*
X157209482Y-114842636D01*
X157218954Y-115192798D01*
X157252611Y-115478411D01*
X157319926Y-115718319D01*
X157430376Y-115931362D01*
X157593434Y-116136382D01*
X157818576Y-116352220D01*
X158076529Y-116566827D01*
X158321282Y-116801631D01*
X158478612Y-117046870D01*
X158553418Y-117310257D01*
X158554514Y-117319155D01*
X158564141Y-117472249D01*
X158544311Y-117563909D01*
X158507020Y-117609191D01*
X158439775Y-117686515D01*
X158460021Y-117734244D01*
X158567749Y-117752362D01*
X158582591Y-117752542D01*
X158708898Y-117772554D01*
X158872400Y-117823471D01*
X158979722Y-117867997D01*
X159113388Y-117929347D01*
X159207884Y-117971069D01*
X159238863Y-117983000D01*
X159240234Y-117943950D01*
X159227527Y-117860394D01*
X159204089Y-117737787D01*
X159464840Y-117768433D01*
X159629804Y-117777265D01*
X159712987Y-117758498D01*
X159718946Y-117717356D01*
X159652234Y-117659061D01*
X159517407Y-117588838D01*
X159319020Y-117511911D01*
X159210294Y-117476520D01*
X159052702Y-117419131D01*
X158932774Y-117359229D01*
X158876209Y-117309678D01*
X158876025Y-117309213D01*
X158859608Y-117221932D01*
X158849586Y-117082865D01*
X158848136Y-117005852D01*
X158858055Y-116849649D01*
X158898662Y-116741210D01*
X158986237Y-116637068D01*
X158986240Y-116637065D01*
X159130892Y-116534849D01*
X159265490Y-116518401D01*
X159382844Y-116581172D01*
X159475766Y-116716611D01*
X159537066Y-116918167D01*
X159559398Y-117159332D01*
X159563059Y-117428818D01*
X159718160Y-117428818D01*
X159859274Y-117456617D01*
X159987672Y-117551903D01*
X160007244Y-117572248D01*
X160141227Y-117715677D01*
X160141227Y-117569136D01*
X160148926Y-117470350D01*
X160185100Y-117441784D01*
X160245136Y-117454105D01*
X160356932Y-117509166D01*
X160452955Y-117580722D01*
X160525122Y-117640855D01*
X160552903Y-117638019D01*
X160556864Y-117595469D01*
X160513920Y-117420077D01*
X160388403Y-117279011D01*
X160185281Y-117177149D01*
X160107352Y-117154299D01*
X160011238Y-117127124D01*
X159946752Y-117091918D01*
X159903930Y-117030265D01*
X159872808Y-116923752D01*
X159843421Y-116753963D01*
X159825292Y-116633033D01*
X159806543Y-116480162D01*
X159809742Y-116395143D01*
X159837589Y-116355491D01*
X159859716Y-116346206D01*
X159926359Y-116331502D01*
X160068758Y-116303539D01*
X160271724Y-116265182D01*
X160520068Y-116219296D01*
X160798600Y-116168747D01*
X160836271Y-116161976D01*
X161355849Y-116062709D01*
X161791321Y-115965470D01*
X162150801Y-115867140D01*
X162442403Y-115764599D01*
X162674241Y-115654731D01*
X162854430Y-115534417D01*
X162991082Y-115400537D01*
X163058382Y-115307965D01*
X163133333Y-115174654D01*
X163180674Y-115061365D01*
X163189227Y-115018322D01*
X163217037Y-114955213D01*
X163312487Y-114935090D01*
X163322989Y-114935000D01*
X163471596Y-114892485D01*
X163602503Y-114779604D01*
X163698498Y-114618353D01*
X163727021Y-114496375D01*
X163677275Y-114496375D01*
X163616284Y-114658547D01*
X163510152Y-114784435D01*
X163375141Y-114862120D01*
X163227514Y-114879681D01*
X163083532Y-114825198D01*
X163032314Y-114782285D01*
X162947954Y-114687044D01*
X162895868Y-114609103D01*
X162865817Y-114565547D01*
X162836041Y-114609103D01*
X162739074Y-114745420D01*
X162601740Y-114847253D01*
X162459225Y-114888774D01*
X162454993Y-114888818D01*
X162288285Y-114849865D01*
X162161787Y-114746860D01*
X162079181Y-114600587D01*
X162044150Y-114431829D01*
X162060380Y-114261371D01*
X162131552Y-114109994D01*
X162261352Y-113998483D01*
X162294429Y-113982895D01*
X162469657Y-113947103D01*
X162627321Y-113997954D01*
X162773793Y-114134915D01*
X162851346Y-114212664D01*
X162895599Y-114215102D01*
X162898955Y-114208254D01*
X162994302Y-114062827D01*
X163142513Y-113960867D01*
X163215458Y-113938138D01*
X163365992Y-113951976D01*
X163510376Y-114036086D01*
X163623601Y-114170321D01*
X163676863Y-114309840D01*
X163677275Y-114496375D01*
X163727021Y-114496375D01*
X163742372Y-114430729D01*
X163743409Y-114397684D01*
X163731582Y-114249818D01*
X163682741Y-114139687D01*
X163586391Y-114029836D01*
X163455315Y-113921466D01*
X163330059Y-113876887D01*
X163265844Y-113872818D01*
X163148439Y-113885733D01*
X163075744Y-113917367D01*
X163071432Y-113922787D01*
X163019640Y-113930523D01*
X162927194Y-113864514D01*
X162918616Y-113856452D01*
X162808900Y-113766816D01*
X162687419Y-113705351D01*
X162534412Y-113667250D01*
X162330117Y-113647709D01*
X162054772Y-113641924D01*
X162036251Y-113641909D01*
X161535834Y-113641909D01*
X161265712Y-113439889D01*
X160827936Y-113160081D01*
X160381010Y-112970942D01*
X159918549Y-112871168D01*
X159434171Y-112859453D01*
X158921489Y-112934496D01*
G36*
X163076770Y-114324303D02*
X162994155Y-114405655D01*
X162958318Y-114492414D01*
X162993401Y-114570681D01*
X163073097Y-114652657D01*
X163159075Y-114701412D01*
X163178020Y-114704091D01*
X163248778Y-114674297D01*
X163301383Y-114631520D01*
X163360267Y-114546484D01*
X163373955Y-114496273D01*
X163337204Y-114405276D01*
X163253588Y-114322707D01*
X163166136Y-114288455D01*
X163076770Y-114324303D01*
X163076770Y-114324303D01*
G37*
X163076770Y-114324303D02*
X162994155Y-114405655D01*
X162958318Y-114492414D01*
X162993401Y-114570681D01*
X163073097Y-114652657D01*
X163159075Y-114701412D01*
X163178020Y-114704091D01*
X163248778Y-114674297D01*
X163301383Y-114631520D01*
X163360267Y-114546484D01*
X163373955Y-114496273D01*
X163337204Y-114405276D01*
X163253588Y-114322707D01*
X163166136Y-114288455D01*
X163076770Y-114324303D01*
G36*
X162459354Y-114331184D02*
X162384041Y-114427808D01*
X162375996Y-114453769D01*
X162379026Y-114583367D01*
X162444720Y-114670620D01*
X162547908Y-114701764D01*
X162663424Y-114663034D01*
X162701020Y-114631520D01*
X162766983Y-114527476D01*
X162743751Y-114426922D01*
X162684537Y-114360722D01*
X162569287Y-114305877D01*
X162459354Y-114331184D01*
X162459354Y-114331184D01*
G37*
X162459354Y-114331184D02*
X162384041Y-114427808D01*
X162375996Y-114453769D01*
X162379026Y-114583367D01*
X162444720Y-114670620D01*
X162547908Y-114701764D01*
X162663424Y-114663034D01*
X162701020Y-114631520D01*
X162766983Y-114527476D01*
X162743751Y-114426922D01*
X162684537Y-114360722D01*
X162569287Y-114305877D01*
X162459354Y-114331184D01*
D12*
X114969500Y-103413500D03*
X114969500Y-99913500D03*
D13*
X112496500Y-114935000D03*
X124231500Y-114935000D03*
D14*
X127698500Y-91249500D03*
D15*
X127698500Y-93789500D03*
X127698500Y-96329500D03*
D16*
X161988500Y-108140500D03*
D17*
X164528500Y-108140500D03*
D16*
X154876500Y-108140500D03*
D17*
X157416500Y-108140500D03*
D16*
X147764500Y-108140500D03*
D17*
X150304500Y-108140500D03*
D16*
X140652500Y-108140500D03*
D17*
X143192500Y-108140500D03*
D16*
X133540500Y-108140500D03*
D17*
X136080500Y-108140500D03*
D16*
X126428500Y-108140500D03*
D17*
X128968500Y-108140500D03*
D16*
X119316500Y-108140500D03*
D17*
X121856500Y-108140500D03*
D14*
X120586500Y-91249500D03*
D15*
X120586500Y-93789500D03*
X120586500Y-96329500D03*
D14*
X134810500Y-91249500D03*
D15*
X134810500Y-93789500D03*
X134810500Y-96329500D03*
D14*
X141922500Y-91249500D03*
D15*
X141922500Y-93789500D03*
X141922500Y-96329500D03*
D14*
X163258500Y-91249500D03*
D15*
X163258500Y-93789500D03*
X163258500Y-96329500D03*
D14*
X156146500Y-91249500D03*
D15*
X156146500Y-93789500D03*
X156146500Y-96329500D03*
D14*
X149034500Y-91249500D03*
D15*
X149034500Y-93789500D03*
X149034500Y-96329500D03*
D18*
X133140500Y-114344500D03*
D13*
X154025500Y-115188500D03*
X165760500Y-115188500D03*
M02*
