G04 #@! TF.FileFunction,Legend,Top*
%FSLAX46Y46*%
G04 Gerber Fmt 4.6, Leading zero omitted, Abs format (unit mm)*
G04 Created by KiCad (PCBNEW 4.0.1-stable) date 2016-06-28 03:14:43*
%MOMM*%
G01*
G04 APERTURE LIST*
%ADD10C,0.100000*%
%ADD11C,0.150000*%
%ADD12C,0.130000*%
G04 APERTURE END LIST*
D10*
D11*
X116169500Y-105863500D02*
X116169500Y-97463500D01*
X106969500Y-97463500D02*
X116169500Y-97463500D01*
X106969500Y-105863500D02*
X106969500Y-97463500D01*
X106969500Y-105863500D02*
X116169500Y-105863500D01*
X112014000Y-112395000D02*
X124714000Y-112395000D01*
X124714000Y-112395000D02*
X124714000Y-117475000D01*
X112014000Y-117475000D02*
X124714000Y-117475000D01*
X112014000Y-112395000D02*
X112014000Y-117475000D01*
X130718500Y-89879500D02*
X124718500Y-89879500D01*
X124718500Y-89879500D02*
X124718500Y-97699500D01*
X124718500Y-97699500D02*
X130718500Y-97699500D01*
X130718500Y-97699500D02*
X130718500Y-89879500D01*
X124718500Y-91249500D02*
X125718500Y-91249500D01*
X125718500Y-91249500D02*
X125718500Y-96329500D01*
X125718500Y-96329500D02*
X124718500Y-96329500D01*
X125718500Y-91249500D02*
X126148500Y-91499500D01*
X126148500Y-91499500D02*
X126148500Y-96079500D01*
X126148500Y-96079500D02*
X125718500Y-96329500D01*
X124718500Y-91499500D02*
X125718500Y-91499500D01*
X124718500Y-96079500D02*
X125718500Y-96079500D01*
X130718500Y-90449500D02*
X130098500Y-90449500D01*
X130098500Y-90449500D02*
X130098500Y-92049500D01*
X130098500Y-92049500D02*
X130718500Y-92049500D01*
X130718500Y-92989500D02*
X130098500Y-92989500D01*
X130098500Y-92989500D02*
X130098500Y-94589500D01*
X130098500Y-94589500D02*
X130718500Y-94589500D01*
X130718500Y-95529500D02*
X130098500Y-95529500D01*
X130098500Y-95529500D02*
X130098500Y-97129500D01*
X130098500Y-97129500D02*
X130718500Y-97129500D01*
X109580500Y-111604500D02*
X110280500Y-111604500D01*
X110280500Y-112804500D02*
X109580500Y-112804500D01*
X110799500Y-109449500D02*
X109799500Y-109449500D01*
X109799500Y-111149500D02*
X110799500Y-111149500D01*
X145534900Y-112493500D02*
X146234900Y-112493500D01*
X146234900Y-113693500D02*
X145534900Y-113693500D01*
X146439000Y-110338500D02*
X145439000Y-110338500D01*
X145439000Y-112038500D02*
X146439000Y-112038500D01*
X113184940Y-91545860D02*
X113535460Y-91545860D01*
X116685060Y-91545860D02*
X116334540Y-91545860D01*
X113184940Y-95595440D02*
X113535460Y-95595440D01*
X113184940Y-91094560D02*
X113535460Y-91094560D01*
X116685060Y-91094560D02*
X116334540Y-91094560D01*
X116685060Y-95595440D02*
X116334540Y-95595440D01*
X113184940Y-91094560D02*
X113184940Y-95595440D01*
X116685060Y-91094560D02*
X116685060Y-95595440D01*
X109103160Y-91545860D02*
X109453680Y-91545860D01*
X112603280Y-91545860D02*
X112252760Y-91545860D01*
X109103160Y-95595440D02*
X109453680Y-95595440D01*
X109103160Y-91094560D02*
X109453680Y-91094560D01*
X112603280Y-91094560D02*
X112252760Y-91094560D01*
X112603280Y-95595440D02*
X112252760Y-95595440D01*
X109103160Y-91094560D02*
X109103160Y-95595440D01*
X112603280Y-91094560D02*
X112603280Y-95595440D01*
X163258500Y-106870500D02*
X165798500Y-106870500D01*
X160438500Y-106590500D02*
X161988500Y-106590500D01*
X163258500Y-106870500D02*
X163258500Y-109410500D01*
X161988500Y-109690500D02*
X160438500Y-109690500D01*
X160438500Y-109690500D02*
X160438500Y-106590500D01*
X163258500Y-109410500D02*
X165798500Y-109410500D01*
X165798500Y-109410500D02*
X165798500Y-106870500D01*
X156146500Y-106870500D02*
X158686500Y-106870500D01*
X153326500Y-106590500D02*
X154876500Y-106590500D01*
X156146500Y-106870500D02*
X156146500Y-109410500D01*
X154876500Y-109690500D02*
X153326500Y-109690500D01*
X153326500Y-109690500D02*
X153326500Y-106590500D01*
X156146500Y-109410500D02*
X158686500Y-109410500D01*
X158686500Y-109410500D02*
X158686500Y-106870500D01*
X149034500Y-106870500D02*
X151574500Y-106870500D01*
X146214500Y-106590500D02*
X147764500Y-106590500D01*
X149034500Y-106870500D02*
X149034500Y-109410500D01*
X147764500Y-109690500D02*
X146214500Y-109690500D01*
X146214500Y-109690500D02*
X146214500Y-106590500D01*
X149034500Y-109410500D02*
X151574500Y-109410500D01*
X151574500Y-109410500D02*
X151574500Y-106870500D01*
X141922500Y-106870500D02*
X144462500Y-106870500D01*
X139102500Y-106590500D02*
X140652500Y-106590500D01*
X141922500Y-106870500D02*
X141922500Y-109410500D01*
X140652500Y-109690500D02*
X139102500Y-109690500D01*
X139102500Y-109690500D02*
X139102500Y-106590500D01*
X141922500Y-109410500D02*
X144462500Y-109410500D01*
X144462500Y-109410500D02*
X144462500Y-106870500D01*
X134810500Y-106870500D02*
X137350500Y-106870500D01*
X131990500Y-106590500D02*
X133540500Y-106590500D01*
X134810500Y-106870500D02*
X134810500Y-109410500D01*
X133540500Y-109690500D02*
X131990500Y-109690500D01*
X131990500Y-109690500D02*
X131990500Y-106590500D01*
X134810500Y-109410500D02*
X137350500Y-109410500D01*
X137350500Y-109410500D02*
X137350500Y-106870500D01*
X127698500Y-106870500D02*
X130238500Y-106870500D01*
X124878500Y-106590500D02*
X126428500Y-106590500D01*
X127698500Y-106870500D02*
X127698500Y-109410500D01*
X126428500Y-109690500D02*
X124878500Y-109690500D01*
X124878500Y-109690500D02*
X124878500Y-106590500D01*
X127698500Y-109410500D02*
X130238500Y-109410500D01*
X130238500Y-109410500D02*
X130238500Y-106870500D01*
X120586500Y-106870500D02*
X123126500Y-106870500D01*
X117766500Y-106590500D02*
X119316500Y-106590500D01*
X120586500Y-106870500D02*
X120586500Y-109410500D01*
X119316500Y-109690500D02*
X117766500Y-109690500D01*
X117766500Y-109690500D02*
X117766500Y-106590500D01*
X120586500Y-109410500D02*
X123126500Y-109410500D01*
X123126500Y-109410500D02*
X123126500Y-106870500D01*
X123606500Y-89879500D02*
X117606500Y-89879500D01*
X117606500Y-89879500D02*
X117606500Y-97699500D01*
X117606500Y-97699500D02*
X123606500Y-97699500D01*
X123606500Y-97699500D02*
X123606500Y-89879500D01*
X117606500Y-91249500D02*
X118606500Y-91249500D01*
X118606500Y-91249500D02*
X118606500Y-96329500D01*
X118606500Y-96329500D02*
X117606500Y-96329500D01*
X118606500Y-91249500D02*
X119036500Y-91499500D01*
X119036500Y-91499500D02*
X119036500Y-96079500D01*
X119036500Y-96079500D02*
X118606500Y-96329500D01*
X117606500Y-91499500D02*
X118606500Y-91499500D01*
X117606500Y-96079500D02*
X118606500Y-96079500D01*
X123606500Y-90449500D02*
X122986500Y-90449500D01*
X122986500Y-90449500D02*
X122986500Y-92049500D01*
X122986500Y-92049500D02*
X123606500Y-92049500D01*
X123606500Y-92989500D02*
X122986500Y-92989500D01*
X122986500Y-92989500D02*
X122986500Y-94589500D01*
X122986500Y-94589500D02*
X123606500Y-94589500D01*
X123606500Y-95529500D02*
X122986500Y-95529500D01*
X122986500Y-95529500D02*
X122986500Y-97129500D01*
X122986500Y-97129500D02*
X123606500Y-97129500D01*
X163483340Y-102458520D02*
X163531600Y-102458520D01*
X166282320Y-101757480D02*
X166282320Y-102458520D01*
X166282320Y-102458520D02*
X166033400Y-102458520D01*
X163483340Y-102458520D02*
X163282680Y-102458520D01*
X163282680Y-102458520D02*
X163282680Y-101757480D01*
X156371340Y-102458520D02*
X156419600Y-102458520D01*
X159170320Y-101757480D02*
X159170320Y-102458520D01*
X159170320Y-102458520D02*
X158921400Y-102458520D01*
X156371340Y-102458520D02*
X156170680Y-102458520D01*
X156170680Y-102458520D02*
X156170680Y-101757480D01*
X149259340Y-102458520D02*
X149307600Y-102458520D01*
X152058320Y-101757480D02*
X152058320Y-102458520D01*
X152058320Y-102458520D02*
X151809400Y-102458520D01*
X149259340Y-102458520D02*
X149058680Y-102458520D01*
X149058680Y-102458520D02*
X149058680Y-101757480D01*
X142147340Y-102458520D02*
X142195600Y-102458520D01*
X144946320Y-101757480D02*
X144946320Y-102458520D01*
X144946320Y-102458520D02*
X144697400Y-102458520D01*
X142147340Y-102458520D02*
X141946680Y-102458520D01*
X141946680Y-102458520D02*
X141946680Y-101757480D01*
X160703260Y-102269340D02*
X160703260Y-102317600D01*
X161404300Y-105068320D02*
X160703260Y-105068320D01*
X160703260Y-105068320D02*
X160703260Y-104819400D01*
X160703260Y-102269340D02*
X160703260Y-102068680D01*
X160703260Y-102068680D02*
X161404300Y-102068680D01*
X160703260Y-98713340D02*
X160703260Y-98761600D01*
X161404300Y-101512320D02*
X160703260Y-101512320D01*
X160703260Y-101512320D02*
X160703260Y-101263400D01*
X160703260Y-98713340D02*
X160703260Y-98512680D01*
X160703260Y-98512680D02*
X161404300Y-98512680D01*
X153591260Y-102269340D02*
X153591260Y-102317600D01*
X154292300Y-105068320D02*
X153591260Y-105068320D01*
X153591260Y-105068320D02*
X153591260Y-104819400D01*
X153591260Y-102269340D02*
X153591260Y-102068680D01*
X153591260Y-102068680D02*
X154292300Y-102068680D01*
X153591260Y-98713340D02*
X153591260Y-98761600D01*
X154292300Y-101512320D02*
X153591260Y-101512320D01*
X153591260Y-101512320D02*
X153591260Y-101263400D01*
X153591260Y-98713340D02*
X153591260Y-98512680D01*
X153591260Y-98512680D02*
X154292300Y-98512680D01*
X146479260Y-102269340D02*
X146479260Y-102317600D01*
X147180300Y-105068320D02*
X146479260Y-105068320D01*
X146479260Y-105068320D02*
X146479260Y-104819400D01*
X146479260Y-102269340D02*
X146479260Y-102068680D01*
X146479260Y-102068680D02*
X147180300Y-102068680D01*
X146494500Y-98715840D02*
X146494500Y-98764100D01*
X147195540Y-101514820D02*
X146494500Y-101514820D01*
X146494500Y-101514820D02*
X146494500Y-101265900D01*
X146494500Y-98715840D02*
X146494500Y-98515180D01*
X146494500Y-98515180D02*
X147195540Y-98515180D01*
X139367260Y-102269340D02*
X139367260Y-102317600D01*
X140068300Y-105068320D02*
X139367260Y-105068320D01*
X139367260Y-105068320D02*
X139367260Y-104819400D01*
X139367260Y-102269340D02*
X139367260Y-102068680D01*
X139367260Y-102068680D02*
X140068300Y-102068680D01*
X139382500Y-98715840D02*
X139382500Y-98764100D01*
X140083540Y-101514820D02*
X139382500Y-101514820D01*
X139382500Y-101514820D02*
X139382500Y-101265900D01*
X139382500Y-98715840D02*
X139382500Y-98515180D01*
X139382500Y-98515180D02*
X140083540Y-98515180D01*
X135035340Y-102458520D02*
X135083600Y-102458520D01*
X137834320Y-101757480D02*
X137834320Y-102458520D01*
X137834320Y-102458520D02*
X137585400Y-102458520D01*
X135035340Y-102458520D02*
X134834680Y-102458520D01*
X134834680Y-102458520D02*
X134834680Y-101757480D01*
X127923340Y-102458520D02*
X127971600Y-102458520D01*
X130722320Y-101757480D02*
X130722320Y-102458520D01*
X130722320Y-102458520D02*
X130473400Y-102458520D01*
X127923340Y-102458520D02*
X127722680Y-102458520D01*
X127722680Y-102458520D02*
X127722680Y-101757480D01*
X120811340Y-102458520D02*
X120859600Y-102458520D01*
X123610320Y-101757480D02*
X123610320Y-102458520D01*
X123610320Y-102458520D02*
X123361400Y-102458520D01*
X120811340Y-102458520D02*
X120610680Y-102458520D01*
X120610680Y-102458520D02*
X120610680Y-101757480D01*
X132255260Y-102269340D02*
X132255260Y-102317600D01*
X132956300Y-105068320D02*
X132255260Y-105068320D01*
X132255260Y-105068320D02*
X132255260Y-104819400D01*
X132255260Y-102269340D02*
X132255260Y-102068680D01*
X132255260Y-102068680D02*
X132956300Y-102068680D01*
X132270500Y-98710840D02*
X132270500Y-98759100D01*
X132971540Y-101509820D02*
X132270500Y-101509820D01*
X132270500Y-101509820D02*
X132270500Y-101260900D01*
X132270500Y-98710840D02*
X132270500Y-98510180D01*
X132270500Y-98510180D02*
X132971540Y-98510180D01*
X125143260Y-102269340D02*
X125143260Y-102317600D01*
X125844300Y-105068320D02*
X125143260Y-105068320D01*
X125143260Y-105068320D02*
X125143260Y-104819400D01*
X125143260Y-102269340D02*
X125143260Y-102068680D01*
X125143260Y-102068680D02*
X125844300Y-102068680D01*
X125158500Y-98710840D02*
X125158500Y-98759100D01*
X125859540Y-101509820D02*
X125158500Y-101509820D01*
X125158500Y-101509820D02*
X125158500Y-101260900D01*
X125158500Y-98710840D02*
X125158500Y-98510180D01*
X125158500Y-98510180D02*
X125859540Y-98510180D01*
X118031260Y-102269340D02*
X118031260Y-102317600D01*
X118732300Y-105068320D02*
X118031260Y-105068320D01*
X118031260Y-105068320D02*
X118031260Y-104819400D01*
X118031260Y-102269340D02*
X118031260Y-102068680D01*
X118031260Y-102068680D02*
X118732300Y-102068680D01*
X118046500Y-98710840D02*
X118046500Y-98759100D01*
X118747540Y-101509820D02*
X118046500Y-101509820D01*
X118046500Y-101509820D02*
X118046500Y-101260900D01*
X118046500Y-98710840D02*
X118046500Y-98510180D01*
X118046500Y-98510180D02*
X118747540Y-98510180D01*
X164901500Y-105069000D02*
X163901500Y-105069000D01*
X163901500Y-103719000D02*
X164901500Y-103719000D01*
X163965000Y-98512000D02*
X164965000Y-98512000D01*
X164965000Y-99862000D02*
X163965000Y-99862000D01*
X156853000Y-98512000D02*
X157853000Y-98512000D01*
X157853000Y-99862000D02*
X156853000Y-99862000D01*
X149741000Y-98512000D02*
X150741000Y-98512000D01*
X150741000Y-99862000D02*
X149741000Y-99862000D01*
X142629000Y-98512000D02*
X143629000Y-98512000D01*
X143629000Y-99862000D02*
X142629000Y-99862000D01*
X157789500Y-105069000D02*
X156789500Y-105069000D01*
X156789500Y-103719000D02*
X157789500Y-103719000D01*
X150677500Y-105069000D02*
X149677500Y-105069000D01*
X149677500Y-103719000D02*
X150677500Y-103719000D01*
X143565500Y-105069000D02*
X142565500Y-105069000D01*
X142565500Y-103719000D02*
X143565500Y-103719000D01*
X135517000Y-98512000D02*
X136517000Y-98512000D01*
X136517000Y-99862000D02*
X135517000Y-99862000D01*
X128405000Y-98512000D02*
X129405000Y-98512000D01*
X129405000Y-99862000D02*
X128405000Y-99862000D01*
X121293000Y-98512000D02*
X122293000Y-98512000D01*
X122293000Y-99862000D02*
X121293000Y-99862000D01*
X136453500Y-105069000D02*
X135453500Y-105069000D01*
X135453500Y-103719000D02*
X136453500Y-103719000D01*
X129341500Y-105069000D02*
X128341500Y-105069000D01*
X128341500Y-103719000D02*
X129341500Y-103719000D01*
X122229500Y-105069000D02*
X121229500Y-105069000D01*
X121229500Y-103719000D02*
X122229500Y-103719000D01*
X150091700Y-113937300D02*
X150091700Y-114637300D01*
X148891700Y-114637300D02*
X148891700Y-113937300D01*
X152170500Y-115142900D02*
X152170500Y-114142900D01*
X150470500Y-114142900D02*
X150470500Y-115142900D01*
X137830500Y-89879500D02*
X131830500Y-89879500D01*
X131830500Y-89879500D02*
X131830500Y-97699500D01*
X131830500Y-97699500D02*
X137830500Y-97699500D01*
X137830500Y-97699500D02*
X137830500Y-89879500D01*
X131830500Y-91249500D02*
X132830500Y-91249500D01*
X132830500Y-91249500D02*
X132830500Y-96329500D01*
X132830500Y-96329500D02*
X131830500Y-96329500D01*
X132830500Y-91249500D02*
X133260500Y-91499500D01*
X133260500Y-91499500D02*
X133260500Y-96079500D01*
X133260500Y-96079500D02*
X132830500Y-96329500D01*
X131830500Y-91499500D02*
X132830500Y-91499500D01*
X131830500Y-96079500D02*
X132830500Y-96079500D01*
X137830500Y-90449500D02*
X137210500Y-90449500D01*
X137210500Y-90449500D02*
X137210500Y-92049500D01*
X137210500Y-92049500D02*
X137830500Y-92049500D01*
X137830500Y-92989500D02*
X137210500Y-92989500D01*
X137210500Y-92989500D02*
X137210500Y-94589500D01*
X137210500Y-94589500D02*
X137830500Y-94589500D01*
X137830500Y-95529500D02*
X137210500Y-95529500D01*
X137210500Y-95529500D02*
X137210500Y-97129500D01*
X137210500Y-97129500D02*
X137830500Y-97129500D01*
X144942500Y-89879500D02*
X138942500Y-89879500D01*
X138942500Y-89879500D02*
X138942500Y-97699500D01*
X138942500Y-97699500D02*
X144942500Y-97699500D01*
X144942500Y-97699500D02*
X144942500Y-89879500D01*
X138942500Y-91249500D02*
X139942500Y-91249500D01*
X139942500Y-91249500D02*
X139942500Y-96329500D01*
X139942500Y-96329500D02*
X138942500Y-96329500D01*
X139942500Y-91249500D02*
X140372500Y-91499500D01*
X140372500Y-91499500D02*
X140372500Y-96079500D01*
X140372500Y-96079500D02*
X139942500Y-96329500D01*
X138942500Y-91499500D02*
X139942500Y-91499500D01*
X138942500Y-96079500D02*
X139942500Y-96079500D01*
X144942500Y-90449500D02*
X144322500Y-90449500D01*
X144322500Y-90449500D02*
X144322500Y-92049500D01*
X144322500Y-92049500D02*
X144942500Y-92049500D01*
X144942500Y-92989500D02*
X144322500Y-92989500D01*
X144322500Y-92989500D02*
X144322500Y-94589500D01*
X144322500Y-94589500D02*
X144942500Y-94589500D01*
X144942500Y-95529500D02*
X144322500Y-95529500D01*
X144322500Y-95529500D02*
X144322500Y-97129500D01*
X144322500Y-97129500D02*
X144942500Y-97129500D01*
X166278500Y-89879500D02*
X160278500Y-89879500D01*
X160278500Y-89879500D02*
X160278500Y-97699500D01*
X160278500Y-97699500D02*
X166278500Y-97699500D01*
X166278500Y-97699500D02*
X166278500Y-89879500D01*
X160278500Y-91249500D02*
X161278500Y-91249500D01*
X161278500Y-91249500D02*
X161278500Y-96329500D01*
X161278500Y-96329500D02*
X160278500Y-96329500D01*
X161278500Y-91249500D02*
X161708500Y-91499500D01*
X161708500Y-91499500D02*
X161708500Y-96079500D01*
X161708500Y-96079500D02*
X161278500Y-96329500D01*
X160278500Y-91499500D02*
X161278500Y-91499500D01*
X160278500Y-96079500D02*
X161278500Y-96079500D01*
X166278500Y-90449500D02*
X165658500Y-90449500D01*
X165658500Y-90449500D02*
X165658500Y-92049500D01*
X165658500Y-92049500D02*
X166278500Y-92049500D01*
X166278500Y-92989500D02*
X165658500Y-92989500D01*
X165658500Y-92989500D02*
X165658500Y-94589500D01*
X165658500Y-94589500D02*
X166278500Y-94589500D01*
X166278500Y-95529500D02*
X165658500Y-95529500D01*
X165658500Y-95529500D02*
X165658500Y-97129500D01*
X165658500Y-97129500D02*
X166278500Y-97129500D01*
X159166500Y-89879500D02*
X153166500Y-89879500D01*
X153166500Y-89879500D02*
X153166500Y-97699500D01*
X153166500Y-97699500D02*
X159166500Y-97699500D01*
X159166500Y-97699500D02*
X159166500Y-89879500D01*
X153166500Y-91249500D02*
X154166500Y-91249500D01*
X154166500Y-91249500D02*
X154166500Y-96329500D01*
X154166500Y-96329500D02*
X153166500Y-96329500D01*
X154166500Y-91249500D02*
X154596500Y-91499500D01*
X154596500Y-91499500D02*
X154596500Y-96079500D01*
X154596500Y-96079500D02*
X154166500Y-96329500D01*
X153166500Y-91499500D02*
X154166500Y-91499500D01*
X153166500Y-96079500D02*
X154166500Y-96079500D01*
X159166500Y-90449500D02*
X158546500Y-90449500D01*
X158546500Y-90449500D02*
X158546500Y-92049500D01*
X158546500Y-92049500D02*
X159166500Y-92049500D01*
X159166500Y-92989500D02*
X158546500Y-92989500D01*
X158546500Y-92989500D02*
X158546500Y-94589500D01*
X158546500Y-94589500D02*
X159166500Y-94589500D01*
X159166500Y-95529500D02*
X158546500Y-95529500D01*
X158546500Y-95529500D02*
X158546500Y-97129500D01*
X158546500Y-97129500D02*
X159166500Y-97129500D01*
X152054500Y-89879500D02*
X146054500Y-89879500D01*
X146054500Y-89879500D02*
X146054500Y-97699500D01*
X146054500Y-97699500D02*
X152054500Y-97699500D01*
X152054500Y-97699500D02*
X152054500Y-89879500D01*
X146054500Y-91249500D02*
X147054500Y-91249500D01*
X147054500Y-91249500D02*
X147054500Y-96329500D01*
X147054500Y-96329500D02*
X146054500Y-96329500D01*
X147054500Y-91249500D02*
X147484500Y-91499500D01*
X147484500Y-91499500D02*
X147484500Y-96079500D01*
X147484500Y-96079500D02*
X147054500Y-96329500D01*
X146054500Y-91499500D02*
X147054500Y-91499500D01*
X146054500Y-96079500D02*
X147054500Y-96079500D01*
X152054500Y-90449500D02*
X151434500Y-90449500D01*
X151434500Y-90449500D02*
X151434500Y-92049500D01*
X151434500Y-92049500D02*
X152054500Y-92049500D01*
X152054500Y-92989500D02*
X151434500Y-92989500D01*
X151434500Y-92989500D02*
X151434500Y-94589500D01*
X151434500Y-94589500D02*
X152054500Y-94589500D01*
X152054500Y-95529500D02*
X151434500Y-95529500D01*
X151434500Y-95529500D02*
X151434500Y-97129500D01*
X151434500Y-97129500D02*
X152054500Y-97129500D01*
X135426500Y-114344500D02*
G75*
G03X135426500Y-114344500I-2286000J0D01*
G01*
X153543000Y-112648500D02*
X166243000Y-112648500D01*
X166243000Y-112648500D02*
X166243000Y-117728500D01*
X153543000Y-117728500D02*
X166243000Y-117728500D01*
X153543000Y-112648500D02*
X153543000Y-117728500D01*
X114577905Y-107132381D02*
X114577905Y-106132381D01*
X114958858Y-106132381D01*
X115054096Y-106180000D01*
X115101715Y-106227619D01*
X115149334Y-106322857D01*
X115149334Y-106465714D01*
X115101715Y-106560952D01*
X115054096Y-106608571D01*
X114958858Y-106656190D01*
X114577905Y-106656190D01*
X115720762Y-106560952D02*
X115625524Y-106513333D01*
X115577905Y-106465714D01*
X115530286Y-106370476D01*
X115530286Y-106322857D01*
X115577905Y-106227619D01*
X115625524Y-106180000D01*
X115720762Y-106132381D01*
X115911239Y-106132381D01*
X116006477Y-106180000D01*
X116054096Y-106227619D01*
X116101715Y-106322857D01*
X116101715Y-106370476D01*
X116054096Y-106465714D01*
X116006477Y-106513333D01*
X115911239Y-106560952D01*
X115720762Y-106560952D01*
X115625524Y-106608571D01*
X115577905Y-106656190D01*
X115530286Y-106751429D01*
X115530286Y-106941905D01*
X115577905Y-107037143D01*
X115625524Y-107084762D01*
X115720762Y-107132381D01*
X115911239Y-107132381D01*
X116006477Y-107084762D01*
X116054096Y-107037143D01*
X116101715Y-106941905D01*
X116101715Y-106751429D01*
X116054096Y-106656190D01*
X116006477Y-106608571D01*
X115911239Y-106560952D01*
X111640881Y-117463795D02*
X110640881Y-117463795D01*
X110640881Y-117082842D01*
X110688500Y-116987604D01*
X110736119Y-116939985D01*
X110831357Y-116892366D01*
X110974214Y-116892366D01*
X111069452Y-116939985D01*
X111117071Y-116987604D01*
X111164690Y-117082842D01*
X111164690Y-117463795D01*
X111640881Y-116416176D02*
X111640881Y-116225700D01*
X111593262Y-116130461D01*
X111545643Y-116082842D01*
X111402786Y-115987604D01*
X111212310Y-115939985D01*
X110831357Y-115939985D01*
X110736119Y-115987604D01*
X110688500Y-116035223D01*
X110640881Y-116130461D01*
X110640881Y-116320938D01*
X110688500Y-116416176D01*
X110736119Y-116463795D01*
X110831357Y-116511414D01*
X111069452Y-116511414D01*
X111164690Y-116463795D01*
X111212310Y-116416176D01*
X111259929Y-116320938D01*
X111259929Y-116130461D01*
X111212310Y-116035223D01*
X111164690Y-115987604D01*
X111069452Y-115939985D01*
D10*
X127128643Y-98505929D02*
X127128643Y-97905929D01*
X127357215Y-97905929D01*
X127414357Y-97934500D01*
X127442929Y-97963071D01*
X127471500Y-98020214D01*
X127471500Y-98105929D01*
X127442929Y-98163071D01*
X127414357Y-98191643D01*
X127357215Y-98220214D01*
X127128643Y-98220214D01*
X127985786Y-97905929D02*
X127871500Y-97905929D01*
X127814357Y-97934500D01*
X127785786Y-97963071D01*
X127728643Y-98048786D01*
X127700072Y-98163071D01*
X127700072Y-98391643D01*
X127728643Y-98448786D01*
X127757215Y-98477357D01*
X127814357Y-98505929D01*
X127928643Y-98505929D01*
X127985786Y-98477357D01*
X128014357Y-98448786D01*
X128042929Y-98391643D01*
X128042929Y-98248786D01*
X128014357Y-98191643D01*
X127985786Y-98163071D01*
X127928643Y-98134500D01*
X127814357Y-98134500D01*
X127757215Y-98163071D01*
X127728643Y-98191643D01*
X127700072Y-98248786D01*
D11*
X109624834Y-114149143D02*
X109577215Y-114196762D01*
X109434358Y-114244381D01*
X109339120Y-114244381D01*
X109196262Y-114196762D01*
X109101024Y-114101524D01*
X109053405Y-114006286D01*
X109005786Y-113815810D01*
X109005786Y-113672952D01*
X109053405Y-113482476D01*
X109101024Y-113387238D01*
X109196262Y-113292000D01*
X109339120Y-113244381D01*
X109434358Y-113244381D01*
X109577215Y-113292000D01*
X109624834Y-113339619D01*
X110577215Y-114244381D02*
X110005786Y-114244381D01*
X110291500Y-114244381D02*
X110291500Y-113244381D01*
X110196262Y-113387238D01*
X110101024Y-113482476D01*
X110005786Y-113530095D01*
X113053834Y-110783643D02*
X113006215Y-110831262D01*
X112863358Y-110878881D01*
X112768120Y-110878881D01*
X112625262Y-110831262D01*
X112530024Y-110736024D01*
X112482405Y-110640786D01*
X112434786Y-110450310D01*
X112434786Y-110307452D01*
X112482405Y-110116976D01*
X112530024Y-110021738D01*
X112625262Y-109926500D01*
X112768120Y-109878881D01*
X112863358Y-109878881D01*
X113006215Y-109926500D01*
X113053834Y-109974119D01*
X113434786Y-109974119D02*
X113482405Y-109926500D01*
X113577643Y-109878881D01*
X113815739Y-109878881D01*
X113910977Y-109926500D01*
X113958596Y-109974119D01*
X114006215Y-110069357D01*
X114006215Y-110164595D01*
X113958596Y-110307452D01*
X113387167Y-110878881D01*
X114006215Y-110878881D01*
X143152834Y-113514143D02*
X143105215Y-113561762D01*
X142962358Y-113609381D01*
X142867120Y-113609381D01*
X142724262Y-113561762D01*
X142629024Y-113466524D01*
X142581405Y-113371286D01*
X142533786Y-113180810D01*
X142533786Y-113037952D01*
X142581405Y-112847476D01*
X142629024Y-112752238D01*
X142724262Y-112657000D01*
X142867120Y-112609381D01*
X142962358Y-112609381D01*
X143105215Y-112657000D01*
X143152834Y-112704619D01*
X143486167Y-112609381D02*
X144105215Y-112609381D01*
X143771881Y-112990333D01*
X143914739Y-112990333D01*
X144009977Y-113037952D01*
X144057596Y-113085571D01*
X144105215Y-113180810D01*
X144105215Y-113418905D01*
X144057596Y-113514143D01*
X144009977Y-113561762D01*
X143914739Y-113609381D01*
X143629024Y-113609381D01*
X143533786Y-113561762D01*
X143486167Y-113514143D01*
X148756643Y-111101166D02*
X148804262Y-111148785D01*
X148851881Y-111291642D01*
X148851881Y-111386880D01*
X148804262Y-111529738D01*
X148709024Y-111624976D01*
X148613786Y-111672595D01*
X148423310Y-111720214D01*
X148280452Y-111720214D01*
X148089976Y-111672595D01*
X147994738Y-111624976D01*
X147899500Y-111529738D01*
X147851881Y-111386880D01*
X147851881Y-111291642D01*
X147899500Y-111148785D01*
X147947119Y-111101166D01*
X148185214Y-110244023D02*
X148851881Y-110244023D01*
X147804262Y-110482119D02*
X148518548Y-110720214D01*
X148518548Y-110101166D01*
D12*
X116333643Y-90695429D02*
X116333643Y-90095429D01*
X116476500Y-90095429D01*
X116562215Y-90124000D01*
X116619357Y-90181143D01*
X116647929Y-90238286D01*
X116676500Y-90352571D01*
X116676500Y-90438286D01*
X116647929Y-90552571D01*
X116619357Y-90609714D01*
X116562215Y-90666857D01*
X116476500Y-90695429D01*
X116333643Y-90695429D01*
X117247929Y-90695429D02*
X116905072Y-90695429D01*
X117076500Y-90695429D02*
X117076500Y-90095429D01*
X117019357Y-90181143D01*
X116962215Y-90238286D01*
X116905072Y-90266857D01*
D11*
X113799881Y-90749405D02*
X112799881Y-90749405D01*
X113799881Y-90177976D02*
X113228452Y-90606548D01*
X112799881Y-90177976D02*
X113371310Y-90749405D01*
X113323667Y-96567595D02*
X113323667Y-96091404D01*
X113609381Y-96662833D02*
X112609381Y-96329500D01*
X113609381Y-95996166D01*
D12*
X108919929Y-93787857D02*
X108319929Y-93787857D01*
X108319929Y-93645000D01*
X108348500Y-93559285D01*
X108405643Y-93502143D01*
X108462786Y-93473571D01*
X108577071Y-93445000D01*
X108662786Y-93445000D01*
X108777071Y-93473571D01*
X108834214Y-93502143D01*
X108891357Y-93559285D01*
X108919929Y-93645000D01*
X108919929Y-93787857D01*
X108377071Y-93216428D02*
X108348500Y-93187857D01*
X108319929Y-93130714D01*
X108319929Y-92987857D01*
X108348500Y-92930714D01*
X108377071Y-92902143D01*
X108434214Y-92873571D01*
X108491357Y-92873571D01*
X108577071Y-92902143D01*
X108919929Y-93245000D01*
X108919929Y-92873571D01*
D11*
X109481881Y-90495405D02*
X108481881Y-90495405D01*
X109481881Y-89923976D02*
X108910452Y-90352548D01*
X108481881Y-89923976D02*
X109053310Y-90495405D01*
X109196167Y-96440595D02*
X109196167Y-95964404D01*
X109481881Y-96535833D02*
X108481881Y-96202500D01*
X109481881Y-95869166D01*
X163441167Y-109878881D02*
X163441167Y-110593167D01*
X163393547Y-110736024D01*
X163298309Y-110831262D01*
X163155452Y-110878881D01*
X163060214Y-110878881D01*
X163917357Y-110878881D02*
X163917357Y-109878881D01*
X164298310Y-109878881D01*
X164393548Y-109926500D01*
X164441167Y-109974119D01*
X164488786Y-110069357D01*
X164488786Y-110212214D01*
X164441167Y-110307452D01*
X164393548Y-110355071D01*
X164298310Y-110402690D01*
X163917357Y-110402690D01*
X165441167Y-110878881D02*
X164869738Y-110878881D01*
X165155452Y-110878881D02*
X165155452Y-109878881D01*
X165060214Y-110021738D01*
X164964976Y-110116976D01*
X164869738Y-110164595D01*
X149598167Y-109878881D02*
X149598167Y-110593167D01*
X149550547Y-110736024D01*
X149455309Y-110831262D01*
X149312452Y-110878881D01*
X149217214Y-110878881D01*
X150074357Y-110878881D02*
X150074357Y-109878881D01*
X150455310Y-109878881D01*
X150550548Y-109926500D01*
X150598167Y-109974119D01*
X150645786Y-110069357D01*
X150645786Y-110212214D01*
X150598167Y-110307452D01*
X150550548Y-110355071D01*
X150455310Y-110402690D01*
X150074357Y-110402690D01*
X151026738Y-109974119D02*
X151074357Y-109926500D01*
X151169595Y-109878881D01*
X151407691Y-109878881D01*
X151502929Y-109926500D01*
X151550548Y-109974119D01*
X151598167Y-110069357D01*
X151598167Y-110164595D01*
X151550548Y-110307452D01*
X150979119Y-110878881D01*
X151598167Y-110878881D01*
X156329167Y-109878881D02*
X156329167Y-110593167D01*
X156281547Y-110736024D01*
X156186309Y-110831262D01*
X156043452Y-110878881D01*
X155948214Y-110878881D01*
X156805357Y-110878881D02*
X156805357Y-109878881D01*
X157186310Y-109878881D01*
X157281548Y-109926500D01*
X157329167Y-109974119D01*
X157376786Y-110069357D01*
X157376786Y-110212214D01*
X157329167Y-110307452D01*
X157281548Y-110355071D01*
X157186310Y-110402690D01*
X156805357Y-110402690D01*
X157710119Y-109878881D02*
X158329167Y-109878881D01*
X157995833Y-110259833D01*
X158138691Y-110259833D01*
X158233929Y-110307452D01*
X158281548Y-110355071D01*
X158329167Y-110450310D01*
X158329167Y-110688405D01*
X158281548Y-110783643D01*
X158233929Y-110831262D01*
X158138691Y-110878881D01*
X157852976Y-110878881D01*
X157757738Y-110831262D01*
X157710119Y-110783643D01*
X142105167Y-109878881D02*
X142105167Y-110593167D01*
X142057547Y-110736024D01*
X141962309Y-110831262D01*
X141819452Y-110878881D01*
X141724214Y-110878881D01*
X142581357Y-110878881D02*
X142581357Y-109878881D01*
X142962310Y-109878881D01*
X143057548Y-109926500D01*
X143105167Y-109974119D01*
X143152786Y-110069357D01*
X143152786Y-110212214D01*
X143105167Y-110307452D01*
X143057548Y-110355071D01*
X142962310Y-110402690D01*
X142581357Y-110402690D01*
X144009929Y-110212214D02*
X144009929Y-110878881D01*
X143771833Y-109831262D02*
X143533738Y-110545548D01*
X144152786Y-110545548D01*
X135247167Y-109878881D02*
X135247167Y-110593167D01*
X135199547Y-110736024D01*
X135104309Y-110831262D01*
X134961452Y-110878881D01*
X134866214Y-110878881D01*
X135723357Y-110878881D02*
X135723357Y-109878881D01*
X136104310Y-109878881D01*
X136199548Y-109926500D01*
X136247167Y-109974119D01*
X136294786Y-110069357D01*
X136294786Y-110212214D01*
X136247167Y-110307452D01*
X136199548Y-110355071D01*
X136104310Y-110402690D01*
X135723357Y-110402690D01*
X137199548Y-109878881D02*
X136723357Y-109878881D01*
X136675738Y-110355071D01*
X136723357Y-110307452D01*
X136818595Y-110259833D01*
X137056691Y-110259833D01*
X137151929Y-110307452D01*
X137199548Y-110355071D01*
X137247167Y-110450310D01*
X137247167Y-110688405D01*
X137199548Y-110783643D01*
X137151929Y-110831262D01*
X137056691Y-110878881D01*
X136818595Y-110878881D01*
X136723357Y-110831262D01*
X136675738Y-110783643D01*
X128135167Y-109878881D02*
X128135167Y-110593167D01*
X128087547Y-110736024D01*
X127992309Y-110831262D01*
X127849452Y-110878881D01*
X127754214Y-110878881D01*
X128611357Y-110878881D02*
X128611357Y-109878881D01*
X128992310Y-109878881D01*
X129087548Y-109926500D01*
X129135167Y-109974119D01*
X129182786Y-110069357D01*
X129182786Y-110212214D01*
X129135167Y-110307452D01*
X129087548Y-110355071D01*
X128992310Y-110402690D01*
X128611357Y-110402690D01*
X130039929Y-109878881D02*
X129849452Y-109878881D01*
X129754214Y-109926500D01*
X129706595Y-109974119D01*
X129611357Y-110116976D01*
X129563738Y-110307452D01*
X129563738Y-110688405D01*
X129611357Y-110783643D01*
X129658976Y-110831262D01*
X129754214Y-110878881D01*
X129944691Y-110878881D01*
X130039929Y-110831262D01*
X130087548Y-110783643D01*
X130135167Y-110688405D01*
X130135167Y-110450310D01*
X130087548Y-110355071D01*
X130039929Y-110307452D01*
X129944691Y-110259833D01*
X129754214Y-110259833D01*
X129658976Y-110307452D01*
X129611357Y-110355071D01*
X129563738Y-110450310D01*
X121023167Y-109878881D02*
X121023167Y-110593167D01*
X120975547Y-110736024D01*
X120880309Y-110831262D01*
X120737452Y-110878881D01*
X120642214Y-110878881D01*
X121499357Y-110878881D02*
X121499357Y-109878881D01*
X121880310Y-109878881D01*
X121975548Y-109926500D01*
X122023167Y-109974119D01*
X122070786Y-110069357D01*
X122070786Y-110212214D01*
X122023167Y-110307452D01*
X121975548Y-110355071D01*
X121880310Y-110402690D01*
X121499357Y-110402690D01*
X122404119Y-109878881D02*
X123070786Y-109878881D01*
X122642214Y-110878881D01*
D10*
X120143643Y-98505929D02*
X120143643Y-97905929D01*
X120372215Y-97905929D01*
X120429357Y-97934500D01*
X120457929Y-97963071D01*
X120486500Y-98020214D01*
X120486500Y-98105929D01*
X120457929Y-98163071D01*
X120429357Y-98191643D01*
X120372215Y-98220214D01*
X120143643Y-98220214D01*
X120686500Y-97905929D02*
X121086500Y-97905929D01*
X120829357Y-98505929D01*
X166381071Y-103244643D02*
X166352500Y-103301786D01*
X166295357Y-103358929D01*
X166209643Y-103444643D01*
X166181071Y-103501786D01*
X166181071Y-103558929D01*
X166323929Y-103530357D02*
X166295357Y-103587500D01*
X166238214Y-103644643D01*
X166123929Y-103673214D01*
X165923929Y-103673214D01*
X165809643Y-103644643D01*
X165752500Y-103587500D01*
X165723929Y-103530357D01*
X165723929Y-103416071D01*
X165752500Y-103358929D01*
X165809643Y-103301786D01*
X165923929Y-103273214D01*
X166123929Y-103273214D01*
X166238214Y-103301786D01*
X166295357Y-103358929D01*
X166323929Y-103416071D01*
X166323929Y-103530357D01*
X166323929Y-102701786D02*
X166323929Y-103044643D01*
X166323929Y-102873215D02*
X165723929Y-102873215D01*
X165809643Y-102930358D01*
X165866786Y-102987500D01*
X165895357Y-103044643D01*
X159269071Y-103371643D02*
X159240500Y-103428786D01*
X159183357Y-103485929D01*
X159097643Y-103571643D01*
X159069071Y-103628786D01*
X159069071Y-103685929D01*
X159211929Y-103657357D02*
X159183357Y-103714500D01*
X159126214Y-103771643D01*
X159011929Y-103800214D01*
X158811929Y-103800214D01*
X158697643Y-103771643D01*
X158640500Y-103714500D01*
X158611929Y-103657357D01*
X158611929Y-103543071D01*
X158640500Y-103485929D01*
X158697643Y-103428786D01*
X158811929Y-103400214D01*
X159011929Y-103400214D01*
X159126214Y-103428786D01*
X159183357Y-103485929D01*
X159211929Y-103543071D01*
X159211929Y-103657357D01*
X158669071Y-103171643D02*
X158640500Y-103143072D01*
X158611929Y-103085929D01*
X158611929Y-102943072D01*
X158640500Y-102885929D01*
X158669071Y-102857358D01*
X158726214Y-102828786D01*
X158783357Y-102828786D01*
X158869071Y-102857358D01*
X159211929Y-103200215D01*
X159211929Y-102828786D01*
X152157071Y-103244643D02*
X152128500Y-103301786D01*
X152071357Y-103358929D01*
X151985643Y-103444643D01*
X151957071Y-103501786D01*
X151957071Y-103558929D01*
X152099929Y-103530357D02*
X152071357Y-103587500D01*
X152014214Y-103644643D01*
X151899929Y-103673214D01*
X151699929Y-103673214D01*
X151585643Y-103644643D01*
X151528500Y-103587500D01*
X151499929Y-103530357D01*
X151499929Y-103416071D01*
X151528500Y-103358929D01*
X151585643Y-103301786D01*
X151699929Y-103273214D01*
X151899929Y-103273214D01*
X152014214Y-103301786D01*
X152071357Y-103358929D01*
X152099929Y-103416071D01*
X152099929Y-103530357D01*
X151499929Y-103073215D02*
X151499929Y-102701786D01*
X151728500Y-102901786D01*
X151728500Y-102816072D01*
X151757071Y-102758929D01*
X151785643Y-102730358D01*
X151842786Y-102701786D01*
X151985643Y-102701786D01*
X152042786Y-102730358D01*
X152071357Y-102758929D01*
X152099929Y-102816072D01*
X152099929Y-102987500D01*
X152071357Y-103044643D01*
X152042786Y-103073215D01*
X145045071Y-103244643D02*
X145016500Y-103301786D01*
X144959357Y-103358929D01*
X144873643Y-103444643D01*
X144845071Y-103501786D01*
X144845071Y-103558929D01*
X144987929Y-103530357D02*
X144959357Y-103587500D01*
X144902214Y-103644643D01*
X144787929Y-103673214D01*
X144587929Y-103673214D01*
X144473643Y-103644643D01*
X144416500Y-103587500D01*
X144387929Y-103530357D01*
X144387929Y-103416071D01*
X144416500Y-103358929D01*
X144473643Y-103301786D01*
X144587929Y-103273214D01*
X144787929Y-103273214D01*
X144902214Y-103301786D01*
X144959357Y-103358929D01*
X144987929Y-103416071D01*
X144987929Y-103530357D01*
X144587929Y-102758929D02*
X144987929Y-102758929D01*
X144359357Y-102901786D02*
X144787929Y-103044643D01*
X144787929Y-102673215D01*
X161296357Y-105929071D02*
X161239214Y-105900500D01*
X161182071Y-105843357D01*
X161096357Y-105757643D01*
X161039214Y-105729071D01*
X160982071Y-105729071D01*
X161010643Y-105871929D02*
X160953500Y-105843357D01*
X160896357Y-105786214D01*
X160867786Y-105671929D01*
X160867786Y-105471929D01*
X160896357Y-105357643D01*
X160953500Y-105300500D01*
X161010643Y-105271929D01*
X161124929Y-105271929D01*
X161182071Y-105300500D01*
X161239214Y-105357643D01*
X161267786Y-105471929D01*
X161267786Y-105671929D01*
X161239214Y-105786214D01*
X161182071Y-105843357D01*
X161124929Y-105871929D01*
X161010643Y-105871929D01*
X161810642Y-105271929D02*
X161524928Y-105271929D01*
X161496357Y-105557643D01*
X161524928Y-105529071D01*
X161582071Y-105500500D01*
X161724928Y-105500500D01*
X161782071Y-105529071D01*
X161810642Y-105557643D01*
X161839214Y-105614786D01*
X161839214Y-105757643D01*
X161810642Y-105814786D01*
X161782071Y-105843357D01*
X161724928Y-105871929D01*
X161582071Y-105871929D01*
X161524928Y-105843357D01*
X161496357Y-105814786D01*
X160539071Y-98672643D02*
X160510500Y-98729786D01*
X160453357Y-98786929D01*
X160367643Y-98872643D01*
X160339071Y-98929786D01*
X160339071Y-98986929D01*
X160481929Y-98958357D02*
X160453357Y-99015500D01*
X160396214Y-99072643D01*
X160281929Y-99101214D01*
X160081929Y-99101214D01*
X159967643Y-99072643D01*
X159910500Y-99015500D01*
X159881929Y-98958357D01*
X159881929Y-98844071D01*
X159910500Y-98786929D01*
X159967643Y-98729786D01*
X160081929Y-98701214D01*
X160281929Y-98701214D01*
X160396214Y-98729786D01*
X160453357Y-98786929D01*
X160481929Y-98844071D01*
X160481929Y-98958357D01*
X159881929Y-98186929D02*
X159881929Y-98301215D01*
X159910500Y-98358358D01*
X159939071Y-98386929D01*
X160024786Y-98444072D01*
X160139071Y-98472643D01*
X160367643Y-98472643D01*
X160424786Y-98444072D01*
X160453357Y-98415500D01*
X160481929Y-98358358D01*
X160481929Y-98244072D01*
X160453357Y-98186929D01*
X160424786Y-98158358D01*
X160367643Y-98129786D01*
X160224786Y-98129786D01*
X160167643Y-98158358D01*
X160139071Y-98186929D01*
X160110500Y-98244072D01*
X160110500Y-98358358D01*
X160139071Y-98415500D01*
X160167643Y-98444072D01*
X160224786Y-98472643D01*
X154184357Y-105929071D02*
X154127214Y-105900500D01*
X154070071Y-105843357D01*
X153984357Y-105757643D01*
X153927214Y-105729071D01*
X153870071Y-105729071D01*
X153898643Y-105871929D02*
X153841500Y-105843357D01*
X153784357Y-105786214D01*
X153755786Y-105671929D01*
X153755786Y-105471929D01*
X153784357Y-105357643D01*
X153841500Y-105300500D01*
X153898643Y-105271929D01*
X154012929Y-105271929D01*
X154070071Y-105300500D01*
X154127214Y-105357643D01*
X154155786Y-105471929D01*
X154155786Y-105671929D01*
X154127214Y-105786214D01*
X154070071Y-105843357D01*
X154012929Y-105871929D01*
X153898643Y-105871929D01*
X154355785Y-105271929D02*
X154755785Y-105271929D01*
X154498642Y-105871929D01*
X153427071Y-98672643D02*
X153398500Y-98729786D01*
X153341357Y-98786929D01*
X153255643Y-98872643D01*
X153227071Y-98929786D01*
X153227071Y-98986929D01*
X153369929Y-98958357D02*
X153341357Y-99015500D01*
X153284214Y-99072643D01*
X153169929Y-99101214D01*
X152969929Y-99101214D01*
X152855643Y-99072643D01*
X152798500Y-99015500D01*
X152769929Y-98958357D01*
X152769929Y-98844071D01*
X152798500Y-98786929D01*
X152855643Y-98729786D01*
X152969929Y-98701214D01*
X153169929Y-98701214D01*
X153284214Y-98729786D01*
X153341357Y-98786929D01*
X153369929Y-98844071D01*
X153369929Y-98958357D01*
X153027071Y-98358358D02*
X152998500Y-98415500D01*
X152969929Y-98444072D01*
X152912786Y-98472643D01*
X152884214Y-98472643D01*
X152827071Y-98444072D01*
X152798500Y-98415500D01*
X152769929Y-98358358D01*
X152769929Y-98244072D01*
X152798500Y-98186929D01*
X152827071Y-98158358D01*
X152884214Y-98129786D01*
X152912786Y-98129786D01*
X152969929Y-98158358D01*
X152998500Y-98186929D01*
X153027071Y-98244072D01*
X153027071Y-98358358D01*
X153055643Y-98415500D01*
X153084214Y-98444072D01*
X153141357Y-98472643D01*
X153255643Y-98472643D01*
X153312786Y-98444072D01*
X153341357Y-98415500D01*
X153369929Y-98358358D01*
X153369929Y-98244072D01*
X153341357Y-98186929D01*
X153312786Y-98158358D01*
X153255643Y-98129786D01*
X153141357Y-98129786D01*
X153084214Y-98158358D01*
X153055643Y-98186929D01*
X153027071Y-98244072D01*
X147072357Y-105929071D02*
X147015214Y-105900500D01*
X146958071Y-105843357D01*
X146872357Y-105757643D01*
X146815214Y-105729071D01*
X146758071Y-105729071D01*
X146786643Y-105871929D02*
X146729500Y-105843357D01*
X146672357Y-105786214D01*
X146643786Y-105671929D01*
X146643786Y-105471929D01*
X146672357Y-105357643D01*
X146729500Y-105300500D01*
X146786643Y-105271929D01*
X146900929Y-105271929D01*
X146958071Y-105300500D01*
X147015214Y-105357643D01*
X147043786Y-105471929D01*
X147043786Y-105671929D01*
X147015214Y-105786214D01*
X146958071Y-105843357D01*
X146900929Y-105871929D01*
X146786643Y-105871929D01*
X147329500Y-105871929D02*
X147443785Y-105871929D01*
X147500928Y-105843357D01*
X147529500Y-105814786D01*
X147586642Y-105729071D01*
X147615214Y-105614786D01*
X147615214Y-105386214D01*
X147586642Y-105329071D01*
X147558071Y-105300500D01*
X147500928Y-105271929D01*
X147386642Y-105271929D01*
X147329500Y-105300500D01*
X147300928Y-105329071D01*
X147272357Y-105386214D01*
X147272357Y-105529071D01*
X147300928Y-105586214D01*
X147329500Y-105614786D01*
X147386642Y-105643357D01*
X147500928Y-105643357D01*
X147558071Y-105614786D01*
X147586642Y-105586214D01*
X147615214Y-105529071D01*
X146315071Y-98958357D02*
X146286500Y-99015500D01*
X146229357Y-99072643D01*
X146143643Y-99158357D01*
X146115071Y-99215500D01*
X146115071Y-99272643D01*
X146257929Y-99244071D02*
X146229357Y-99301214D01*
X146172214Y-99358357D01*
X146057929Y-99386928D01*
X145857929Y-99386928D01*
X145743643Y-99358357D01*
X145686500Y-99301214D01*
X145657929Y-99244071D01*
X145657929Y-99129785D01*
X145686500Y-99072643D01*
X145743643Y-99015500D01*
X145857929Y-98986928D01*
X146057929Y-98986928D01*
X146172214Y-99015500D01*
X146229357Y-99072643D01*
X146257929Y-99129785D01*
X146257929Y-99244071D01*
X146257929Y-98415500D02*
X146257929Y-98758357D01*
X146257929Y-98586929D02*
X145657929Y-98586929D01*
X145743643Y-98644072D01*
X145800786Y-98701214D01*
X145829357Y-98758357D01*
X145657929Y-98044071D02*
X145657929Y-97986928D01*
X145686500Y-97929785D01*
X145715071Y-97901214D01*
X145772214Y-97872643D01*
X145886500Y-97844071D01*
X146029357Y-97844071D01*
X146143643Y-97872643D01*
X146200786Y-97901214D01*
X146229357Y-97929785D01*
X146257929Y-97986928D01*
X146257929Y-98044071D01*
X146229357Y-98101214D01*
X146200786Y-98129785D01*
X146143643Y-98158357D01*
X146029357Y-98186928D01*
X145886500Y-98186928D01*
X145772214Y-98158357D01*
X145715071Y-98129785D01*
X145686500Y-98101214D01*
X145657929Y-98044071D01*
X139674643Y-105929071D02*
X139617500Y-105900500D01*
X139560357Y-105843357D01*
X139474643Y-105757643D01*
X139417500Y-105729071D01*
X139360357Y-105729071D01*
X139388929Y-105871929D02*
X139331786Y-105843357D01*
X139274643Y-105786214D01*
X139246072Y-105671929D01*
X139246072Y-105471929D01*
X139274643Y-105357643D01*
X139331786Y-105300500D01*
X139388929Y-105271929D01*
X139503215Y-105271929D01*
X139560357Y-105300500D01*
X139617500Y-105357643D01*
X139646072Y-105471929D01*
X139646072Y-105671929D01*
X139617500Y-105786214D01*
X139560357Y-105843357D01*
X139503215Y-105871929D01*
X139388929Y-105871929D01*
X140217500Y-105871929D02*
X139874643Y-105871929D01*
X140046071Y-105871929D02*
X140046071Y-105271929D01*
X139988928Y-105357643D01*
X139931786Y-105414786D01*
X139874643Y-105443357D01*
X140788929Y-105871929D02*
X140446072Y-105871929D01*
X140617500Y-105871929D02*
X140617500Y-105271929D01*
X140560357Y-105357643D01*
X140503215Y-105414786D01*
X140446072Y-105443357D01*
X139203071Y-98958357D02*
X139174500Y-99015500D01*
X139117357Y-99072643D01*
X139031643Y-99158357D01*
X139003071Y-99215500D01*
X139003071Y-99272643D01*
X139145929Y-99244071D02*
X139117357Y-99301214D01*
X139060214Y-99358357D01*
X138945929Y-99386928D01*
X138745929Y-99386928D01*
X138631643Y-99358357D01*
X138574500Y-99301214D01*
X138545929Y-99244071D01*
X138545929Y-99129785D01*
X138574500Y-99072643D01*
X138631643Y-99015500D01*
X138745929Y-98986928D01*
X138945929Y-98986928D01*
X139060214Y-99015500D01*
X139117357Y-99072643D01*
X139145929Y-99129785D01*
X139145929Y-99244071D01*
X139145929Y-98415500D02*
X139145929Y-98758357D01*
X139145929Y-98586929D02*
X138545929Y-98586929D01*
X138631643Y-98644072D01*
X138688786Y-98701214D01*
X138717357Y-98758357D01*
X138603071Y-98186928D02*
X138574500Y-98158357D01*
X138545929Y-98101214D01*
X138545929Y-97958357D01*
X138574500Y-97901214D01*
X138603071Y-97872643D01*
X138660214Y-97844071D01*
X138717357Y-97844071D01*
X138803071Y-97872643D01*
X139145929Y-98215500D01*
X139145929Y-97844071D01*
X137933071Y-104038357D02*
X137904500Y-104095500D01*
X137847357Y-104152643D01*
X137761643Y-104238357D01*
X137733071Y-104295500D01*
X137733071Y-104352643D01*
X137875929Y-104324071D02*
X137847357Y-104381214D01*
X137790214Y-104438357D01*
X137675929Y-104466928D01*
X137475929Y-104466928D01*
X137361643Y-104438357D01*
X137304500Y-104381214D01*
X137275929Y-104324071D01*
X137275929Y-104209785D01*
X137304500Y-104152643D01*
X137361643Y-104095500D01*
X137475929Y-104066928D01*
X137675929Y-104066928D01*
X137790214Y-104095500D01*
X137847357Y-104152643D01*
X137875929Y-104209785D01*
X137875929Y-104324071D01*
X137875929Y-103495500D02*
X137875929Y-103838357D01*
X137875929Y-103666929D02*
X137275929Y-103666929D01*
X137361643Y-103724072D01*
X137418786Y-103781214D01*
X137447357Y-103838357D01*
X137275929Y-103295500D02*
X137275929Y-102924071D01*
X137504500Y-103124071D01*
X137504500Y-103038357D01*
X137533071Y-102981214D01*
X137561643Y-102952643D01*
X137618786Y-102924071D01*
X137761643Y-102924071D01*
X137818786Y-102952643D01*
X137847357Y-102981214D01*
X137875929Y-103038357D01*
X137875929Y-103209785D01*
X137847357Y-103266928D01*
X137818786Y-103295500D01*
X130948071Y-103911357D02*
X130919500Y-103968500D01*
X130862357Y-104025643D01*
X130776643Y-104111357D01*
X130748071Y-104168500D01*
X130748071Y-104225643D01*
X130890929Y-104197071D02*
X130862357Y-104254214D01*
X130805214Y-104311357D01*
X130690929Y-104339928D01*
X130490929Y-104339928D01*
X130376643Y-104311357D01*
X130319500Y-104254214D01*
X130290929Y-104197071D01*
X130290929Y-104082785D01*
X130319500Y-104025643D01*
X130376643Y-103968500D01*
X130490929Y-103939928D01*
X130690929Y-103939928D01*
X130805214Y-103968500D01*
X130862357Y-104025643D01*
X130890929Y-104082785D01*
X130890929Y-104197071D01*
X130890929Y-103368500D02*
X130890929Y-103711357D01*
X130890929Y-103539929D02*
X130290929Y-103539929D01*
X130376643Y-103597072D01*
X130433786Y-103654214D01*
X130462357Y-103711357D01*
X130490929Y-102854214D02*
X130890929Y-102854214D01*
X130262357Y-102997071D02*
X130690929Y-103139928D01*
X130690929Y-102768500D01*
X123709071Y-103911357D02*
X123680500Y-103968500D01*
X123623357Y-104025643D01*
X123537643Y-104111357D01*
X123509071Y-104168500D01*
X123509071Y-104225643D01*
X123651929Y-104197071D02*
X123623357Y-104254214D01*
X123566214Y-104311357D01*
X123451929Y-104339928D01*
X123251929Y-104339928D01*
X123137643Y-104311357D01*
X123080500Y-104254214D01*
X123051929Y-104197071D01*
X123051929Y-104082785D01*
X123080500Y-104025643D01*
X123137643Y-103968500D01*
X123251929Y-103939928D01*
X123451929Y-103939928D01*
X123566214Y-103968500D01*
X123623357Y-104025643D01*
X123651929Y-104082785D01*
X123651929Y-104197071D01*
X123651929Y-103368500D02*
X123651929Y-103711357D01*
X123651929Y-103539929D02*
X123051929Y-103539929D01*
X123137643Y-103597072D01*
X123194786Y-103654214D01*
X123223357Y-103711357D01*
X123051929Y-102825643D02*
X123051929Y-103111357D01*
X123337643Y-103139928D01*
X123309071Y-103111357D01*
X123280500Y-103054214D01*
X123280500Y-102911357D01*
X123309071Y-102854214D01*
X123337643Y-102825643D01*
X123394786Y-102797071D01*
X123537643Y-102797071D01*
X123594786Y-102825643D01*
X123623357Y-102854214D01*
X123651929Y-102911357D01*
X123651929Y-103054214D01*
X123623357Y-103111357D01*
X123594786Y-103139928D01*
X132091071Y-105435357D02*
X132062500Y-105492500D01*
X132005357Y-105549643D01*
X131919643Y-105635357D01*
X131891071Y-105692500D01*
X131891071Y-105749643D01*
X132033929Y-105721071D02*
X132005357Y-105778214D01*
X131948214Y-105835357D01*
X131833929Y-105863928D01*
X131633929Y-105863928D01*
X131519643Y-105835357D01*
X131462500Y-105778214D01*
X131433929Y-105721071D01*
X131433929Y-105606785D01*
X131462500Y-105549643D01*
X131519643Y-105492500D01*
X131633929Y-105463928D01*
X131833929Y-105463928D01*
X131948214Y-105492500D01*
X132005357Y-105549643D01*
X132033929Y-105606785D01*
X132033929Y-105721071D01*
X132033929Y-104892500D02*
X132033929Y-105235357D01*
X132033929Y-105063929D02*
X131433929Y-105063929D01*
X131519643Y-105121072D01*
X131576786Y-105178214D01*
X131605357Y-105235357D01*
X131433929Y-104378214D02*
X131433929Y-104492500D01*
X131462500Y-104549643D01*
X131491071Y-104578214D01*
X131576786Y-104635357D01*
X131691071Y-104663928D01*
X131919643Y-104663928D01*
X131976786Y-104635357D01*
X132005357Y-104606785D01*
X132033929Y-104549643D01*
X132033929Y-104435357D01*
X132005357Y-104378214D01*
X131976786Y-104349643D01*
X131919643Y-104321071D01*
X131776786Y-104321071D01*
X131719643Y-104349643D01*
X131691071Y-104378214D01*
X131662500Y-104435357D01*
X131662500Y-104549643D01*
X131691071Y-104606785D01*
X131719643Y-104635357D01*
X131776786Y-104663928D01*
X132091071Y-98958357D02*
X132062500Y-99015500D01*
X132005357Y-99072643D01*
X131919643Y-99158357D01*
X131891071Y-99215500D01*
X131891071Y-99272643D01*
X132033929Y-99244071D02*
X132005357Y-99301214D01*
X131948214Y-99358357D01*
X131833929Y-99386928D01*
X131633929Y-99386928D01*
X131519643Y-99358357D01*
X131462500Y-99301214D01*
X131433929Y-99244071D01*
X131433929Y-99129785D01*
X131462500Y-99072643D01*
X131519643Y-99015500D01*
X131633929Y-98986928D01*
X131833929Y-98986928D01*
X131948214Y-99015500D01*
X132005357Y-99072643D01*
X132033929Y-99129785D01*
X132033929Y-99244071D01*
X132033929Y-98415500D02*
X132033929Y-98758357D01*
X132033929Y-98586929D02*
X131433929Y-98586929D01*
X131519643Y-98644072D01*
X131576786Y-98701214D01*
X131605357Y-98758357D01*
X131433929Y-98215500D02*
X131433929Y-97815500D01*
X132033929Y-98072643D01*
X125425243Y-105903671D02*
X125368100Y-105875100D01*
X125310957Y-105817957D01*
X125225243Y-105732243D01*
X125168100Y-105703671D01*
X125110957Y-105703671D01*
X125139529Y-105846529D02*
X125082386Y-105817957D01*
X125025243Y-105760814D01*
X124996672Y-105646529D01*
X124996672Y-105446529D01*
X125025243Y-105332243D01*
X125082386Y-105275100D01*
X125139529Y-105246529D01*
X125253815Y-105246529D01*
X125310957Y-105275100D01*
X125368100Y-105332243D01*
X125396672Y-105446529D01*
X125396672Y-105646529D01*
X125368100Y-105760814D01*
X125310957Y-105817957D01*
X125253815Y-105846529D01*
X125139529Y-105846529D01*
X125968100Y-105846529D02*
X125625243Y-105846529D01*
X125796671Y-105846529D02*
X125796671Y-105246529D01*
X125739528Y-105332243D01*
X125682386Y-105389386D01*
X125625243Y-105417957D01*
X126310957Y-105503671D02*
X126253815Y-105475100D01*
X126225243Y-105446529D01*
X126196672Y-105389386D01*
X126196672Y-105360814D01*
X126225243Y-105303671D01*
X126253815Y-105275100D01*
X126310957Y-105246529D01*
X126425243Y-105246529D01*
X126482386Y-105275100D01*
X126510957Y-105303671D01*
X126539529Y-105360814D01*
X126539529Y-105389386D01*
X126510957Y-105446529D01*
X126482386Y-105475100D01*
X126425243Y-105503671D01*
X126310957Y-105503671D01*
X126253815Y-105532243D01*
X126225243Y-105560814D01*
X126196672Y-105617957D01*
X126196672Y-105732243D01*
X126225243Y-105789386D01*
X126253815Y-105817957D01*
X126310957Y-105846529D01*
X126425243Y-105846529D01*
X126482386Y-105817957D01*
X126510957Y-105789386D01*
X126539529Y-105732243D01*
X126539529Y-105617957D01*
X126510957Y-105560814D01*
X126482386Y-105532243D01*
X126425243Y-105503671D01*
X125029871Y-99009157D02*
X125001300Y-99066300D01*
X124944157Y-99123443D01*
X124858443Y-99209157D01*
X124829871Y-99266300D01*
X124829871Y-99323443D01*
X124972729Y-99294871D02*
X124944157Y-99352014D01*
X124887014Y-99409157D01*
X124772729Y-99437728D01*
X124572729Y-99437728D01*
X124458443Y-99409157D01*
X124401300Y-99352014D01*
X124372729Y-99294871D01*
X124372729Y-99180585D01*
X124401300Y-99123443D01*
X124458443Y-99066300D01*
X124572729Y-99037728D01*
X124772729Y-99037728D01*
X124887014Y-99066300D01*
X124944157Y-99123443D01*
X124972729Y-99180585D01*
X124972729Y-99294871D01*
X124972729Y-98466300D02*
X124972729Y-98809157D01*
X124972729Y-98637729D02*
X124372729Y-98637729D01*
X124458443Y-98694872D01*
X124515586Y-98752014D01*
X124544157Y-98809157D01*
X124972729Y-98180585D02*
X124972729Y-98066300D01*
X124944157Y-98009157D01*
X124915586Y-97980585D01*
X124829871Y-97923443D01*
X124715586Y-97894871D01*
X124487014Y-97894871D01*
X124429871Y-97923443D01*
X124401300Y-97952014D01*
X124372729Y-98009157D01*
X124372729Y-98123443D01*
X124401300Y-98180585D01*
X124429871Y-98209157D01*
X124487014Y-98237728D01*
X124629871Y-98237728D01*
X124687014Y-98209157D01*
X124715586Y-98180585D01*
X124744157Y-98123443D01*
X124744157Y-98009157D01*
X124715586Y-97952014D01*
X124687014Y-97923443D01*
X124629871Y-97894871D01*
X118364043Y-105929071D02*
X118306900Y-105900500D01*
X118249757Y-105843357D01*
X118164043Y-105757643D01*
X118106900Y-105729071D01*
X118049757Y-105729071D01*
X118078329Y-105871929D02*
X118021186Y-105843357D01*
X117964043Y-105786214D01*
X117935472Y-105671929D01*
X117935472Y-105471929D01*
X117964043Y-105357643D01*
X118021186Y-105300500D01*
X118078329Y-105271929D01*
X118192615Y-105271929D01*
X118249757Y-105300500D01*
X118306900Y-105357643D01*
X118335472Y-105471929D01*
X118335472Y-105671929D01*
X118306900Y-105786214D01*
X118249757Y-105843357D01*
X118192615Y-105871929D01*
X118078329Y-105871929D01*
X118564043Y-105329071D02*
X118592614Y-105300500D01*
X118649757Y-105271929D01*
X118792614Y-105271929D01*
X118849757Y-105300500D01*
X118878328Y-105329071D01*
X118906900Y-105386214D01*
X118906900Y-105443357D01*
X118878328Y-105529071D01*
X118535471Y-105871929D01*
X118906900Y-105871929D01*
X119278329Y-105271929D02*
X119335472Y-105271929D01*
X119392615Y-105300500D01*
X119421186Y-105329071D01*
X119449757Y-105386214D01*
X119478329Y-105500500D01*
X119478329Y-105643357D01*
X119449757Y-105757643D01*
X119421186Y-105814786D01*
X119392615Y-105843357D01*
X119335472Y-105871929D01*
X119278329Y-105871929D01*
X119221186Y-105843357D01*
X119192615Y-105814786D01*
X119164043Y-105757643D01*
X119135472Y-105643357D01*
X119135472Y-105500500D01*
X119164043Y-105386214D01*
X119192615Y-105329071D01*
X119221186Y-105300500D01*
X119278329Y-105271929D01*
X117867071Y-98958357D02*
X117838500Y-99015500D01*
X117781357Y-99072643D01*
X117695643Y-99158357D01*
X117667071Y-99215500D01*
X117667071Y-99272643D01*
X117809929Y-99244071D02*
X117781357Y-99301214D01*
X117724214Y-99358357D01*
X117609929Y-99386928D01*
X117409929Y-99386928D01*
X117295643Y-99358357D01*
X117238500Y-99301214D01*
X117209929Y-99244071D01*
X117209929Y-99129785D01*
X117238500Y-99072643D01*
X117295643Y-99015500D01*
X117409929Y-98986928D01*
X117609929Y-98986928D01*
X117724214Y-99015500D01*
X117781357Y-99072643D01*
X117809929Y-99129785D01*
X117809929Y-99244071D01*
X117267071Y-98758357D02*
X117238500Y-98729786D01*
X117209929Y-98672643D01*
X117209929Y-98529786D01*
X117238500Y-98472643D01*
X117267071Y-98444072D01*
X117324214Y-98415500D01*
X117381357Y-98415500D01*
X117467071Y-98444072D01*
X117809929Y-98786929D01*
X117809929Y-98415500D01*
X117809929Y-97844071D02*
X117809929Y-98186928D01*
X117809929Y-98015500D02*
X117209929Y-98015500D01*
X117295643Y-98072643D01*
X117352786Y-98129785D01*
X117381357Y-98186928D01*
X165317500Y-105871929D02*
X165117500Y-105586214D01*
X164974643Y-105871929D02*
X164974643Y-105271929D01*
X165203215Y-105271929D01*
X165260357Y-105300500D01*
X165288929Y-105329071D01*
X165317500Y-105386214D01*
X165317500Y-105471929D01*
X165288929Y-105529071D01*
X165260357Y-105557643D01*
X165203215Y-105586214D01*
X164974643Y-105586214D01*
X165888929Y-105871929D02*
X165546072Y-105871929D01*
X165717500Y-105871929D02*
X165717500Y-105271929D01*
X165660357Y-105357643D01*
X165603215Y-105414786D01*
X165546072Y-105443357D01*
X166450929Y-99223500D02*
X166165214Y-99423500D01*
X166450929Y-99566357D02*
X165850929Y-99566357D01*
X165850929Y-99337785D01*
X165879500Y-99280643D01*
X165908071Y-99252071D01*
X165965214Y-99223500D01*
X166050929Y-99223500D01*
X166108071Y-99252071D01*
X166136643Y-99280643D01*
X166165214Y-99337785D01*
X166165214Y-99566357D01*
X165908071Y-98994928D02*
X165879500Y-98966357D01*
X165850929Y-98909214D01*
X165850929Y-98766357D01*
X165879500Y-98709214D01*
X165908071Y-98680643D01*
X165965214Y-98652071D01*
X166022357Y-98652071D01*
X166108071Y-98680643D01*
X166450929Y-99023500D01*
X166450929Y-98652071D01*
X159211929Y-99223500D02*
X158926214Y-99423500D01*
X159211929Y-99566357D02*
X158611929Y-99566357D01*
X158611929Y-99337785D01*
X158640500Y-99280643D01*
X158669071Y-99252071D01*
X158726214Y-99223500D01*
X158811929Y-99223500D01*
X158869071Y-99252071D01*
X158897643Y-99280643D01*
X158926214Y-99337785D01*
X158926214Y-99566357D01*
X158611929Y-99023500D02*
X158611929Y-98652071D01*
X158840500Y-98852071D01*
X158840500Y-98766357D01*
X158869071Y-98709214D01*
X158897643Y-98680643D01*
X158954786Y-98652071D01*
X159097643Y-98652071D01*
X159154786Y-98680643D01*
X159183357Y-98709214D01*
X159211929Y-98766357D01*
X159211929Y-98937785D01*
X159183357Y-98994928D01*
X159154786Y-99023500D01*
X152226929Y-99223500D02*
X151941214Y-99423500D01*
X152226929Y-99566357D02*
X151626929Y-99566357D01*
X151626929Y-99337785D01*
X151655500Y-99280643D01*
X151684071Y-99252071D01*
X151741214Y-99223500D01*
X151826929Y-99223500D01*
X151884071Y-99252071D01*
X151912643Y-99280643D01*
X151941214Y-99337785D01*
X151941214Y-99566357D01*
X151826929Y-98709214D02*
X152226929Y-98709214D01*
X151598357Y-98852071D02*
X152026929Y-98994928D01*
X152026929Y-98623500D01*
X145114929Y-99223500D02*
X144829214Y-99423500D01*
X145114929Y-99566357D02*
X144514929Y-99566357D01*
X144514929Y-99337785D01*
X144543500Y-99280643D01*
X144572071Y-99252071D01*
X144629214Y-99223500D01*
X144714929Y-99223500D01*
X144772071Y-99252071D01*
X144800643Y-99280643D01*
X144829214Y-99337785D01*
X144829214Y-99566357D01*
X144514929Y-98680643D02*
X144514929Y-98966357D01*
X144800643Y-98994928D01*
X144772071Y-98966357D01*
X144743500Y-98909214D01*
X144743500Y-98766357D01*
X144772071Y-98709214D01*
X144800643Y-98680643D01*
X144857786Y-98652071D01*
X145000643Y-98652071D01*
X145057786Y-98680643D01*
X145086357Y-98709214D01*
X145114929Y-98766357D01*
X145114929Y-98909214D01*
X145086357Y-98966357D01*
X145057786Y-98994928D01*
X158078500Y-105871929D02*
X157878500Y-105586214D01*
X157735643Y-105871929D02*
X157735643Y-105271929D01*
X157964215Y-105271929D01*
X158021357Y-105300500D01*
X158049929Y-105329071D01*
X158078500Y-105386214D01*
X158078500Y-105471929D01*
X158049929Y-105529071D01*
X158021357Y-105557643D01*
X157964215Y-105586214D01*
X157735643Y-105586214D01*
X158592786Y-105271929D02*
X158478500Y-105271929D01*
X158421357Y-105300500D01*
X158392786Y-105329071D01*
X158335643Y-105414786D01*
X158307072Y-105529071D01*
X158307072Y-105757643D01*
X158335643Y-105814786D01*
X158364215Y-105843357D01*
X158421357Y-105871929D01*
X158535643Y-105871929D01*
X158592786Y-105843357D01*
X158621357Y-105814786D01*
X158649929Y-105757643D01*
X158649929Y-105614786D01*
X158621357Y-105557643D01*
X158592786Y-105529071D01*
X158535643Y-105500500D01*
X158421357Y-105500500D01*
X158364215Y-105529071D01*
X158335643Y-105557643D01*
X158307072Y-105614786D01*
X150966500Y-105871929D02*
X150766500Y-105586214D01*
X150623643Y-105871929D02*
X150623643Y-105271929D01*
X150852215Y-105271929D01*
X150909357Y-105300500D01*
X150937929Y-105329071D01*
X150966500Y-105386214D01*
X150966500Y-105471929D01*
X150937929Y-105529071D01*
X150909357Y-105557643D01*
X150852215Y-105586214D01*
X150623643Y-105586214D01*
X151166500Y-105271929D02*
X151566500Y-105271929D01*
X151309357Y-105871929D01*
X143727500Y-105871929D02*
X143527500Y-105586214D01*
X143384643Y-105871929D02*
X143384643Y-105271929D01*
X143613215Y-105271929D01*
X143670357Y-105300500D01*
X143698929Y-105329071D01*
X143727500Y-105386214D01*
X143727500Y-105471929D01*
X143698929Y-105529071D01*
X143670357Y-105557643D01*
X143613215Y-105586214D01*
X143384643Y-105586214D01*
X144070357Y-105529071D02*
X144013215Y-105500500D01*
X143984643Y-105471929D01*
X143956072Y-105414786D01*
X143956072Y-105386214D01*
X143984643Y-105329071D01*
X144013215Y-105300500D01*
X144070357Y-105271929D01*
X144184643Y-105271929D01*
X144241786Y-105300500D01*
X144270357Y-105329071D01*
X144298929Y-105386214D01*
X144298929Y-105414786D01*
X144270357Y-105471929D01*
X144241786Y-105500500D01*
X144184643Y-105529071D01*
X144070357Y-105529071D01*
X144013215Y-105557643D01*
X143984643Y-105586214D01*
X143956072Y-105643357D01*
X143956072Y-105757643D01*
X143984643Y-105814786D01*
X144013215Y-105843357D01*
X144070357Y-105871929D01*
X144184643Y-105871929D01*
X144241786Y-105843357D01*
X144270357Y-105814786D01*
X144298929Y-105757643D01*
X144298929Y-105643357D01*
X144270357Y-105586214D01*
X144241786Y-105557643D01*
X144184643Y-105529071D01*
X137875929Y-99223500D02*
X137590214Y-99423500D01*
X137875929Y-99566357D02*
X137275929Y-99566357D01*
X137275929Y-99337785D01*
X137304500Y-99280643D01*
X137333071Y-99252071D01*
X137390214Y-99223500D01*
X137475929Y-99223500D01*
X137533071Y-99252071D01*
X137561643Y-99280643D01*
X137590214Y-99337785D01*
X137590214Y-99566357D01*
X137875929Y-98937785D02*
X137875929Y-98823500D01*
X137847357Y-98766357D01*
X137818786Y-98737785D01*
X137733071Y-98680643D01*
X137618786Y-98652071D01*
X137390214Y-98652071D01*
X137333071Y-98680643D01*
X137304500Y-98709214D01*
X137275929Y-98766357D01*
X137275929Y-98880643D01*
X137304500Y-98937785D01*
X137333071Y-98966357D01*
X137390214Y-98994928D01*
X137533071Y-98994928D01*
X137590214Y-98966357D01*
X137618786Y-98937785D01*
X137647357Y-98880643D01*
X137647357Y-98766357D01*
X137618786Y-98709214D01*
X137590214Y-98680643D01*
X137533071Y-98652071D01*
X130890929Y-99509215D02*
X130605214Y-99709215D01*
X130890929Y-99852072D02*
X130290929Y-99852072D01*
X130290929Y-99623500D01*
X130319500Y-99566358D01*
X130348071Y-99537786D01*
X130405214Y-99509215D01*
X130490929Y-99509215D01*
X130548071Y-99537786D01*
X130576643Y-99566358D01*
X130605214Y-99623500D01*
X130605214Y-99852072D01*
X130890929Y-98937786D02*
X130890929Y-99280643D01*
X130890929Y-99109215D02*
X130290929Y-99109215D01*
X130376643Y-99166358D01*
X130433786Y-99223500D01*
X130462357Y-99280643D01*
X130290929Y-98566357D02*
X130290929Y-98509214D01*
X130319500Y-98452071D01*
X130348071Y-98423500D01*
X130405214Y-98394929D01*
X130519500Y-98366357D01*
X130662357Y-98366357D01*
X130776643Y-98394929D01*
X130833786Y-98423500D01*
X130862357Y-98452071D01*
X130890929Y-98509214D01*
X130890929Y-98566357D01*
X130862357Y-98623500D01*
X130833786Y-98652071D01*
X130776643Y-98680643D01*
X130662357Y-98709214D01*
X130519500Y-98709214D01*
X130405214Y-98680643D01*
X130348071Y-98652071D01*
X130319500Y-98623500D01*
X130290929Y-98566357D01*
X123651929Y-99445715D02*
X123366214Y-99645715D01*
X123651929Y-99788572D02*
X123051929Y-99788572D01*
X123051929Y-99560000D01*
X123080500Y-99502858D01*
X123109071Y-99474286D01*
X123166214Y-99445715D01*
X123251929Y-99445715D01*
X123309071Y-99474286D01*
X123337643Y-99502858D01*
X123366214Y-99560000D01*
X123366214Y-99788572D01*
X123651929Y-98874286D02*
X123651929Y-99217143D01*
X123651929Y-99045715D02*
X123051929Y-99045715D01*
X123137643Y-99102858D01*
X123194786Y-99160000D01*
X123223357Y-99217143D01*
X123651929Y-98302857D02*
X123651929Y-98645714D01*
X123651929Y-98474286D02*
X123051929Y-98474286D01*
X123137643Y-98531429D01*
X123194786Y-98588571D01*
X123223357Y-98645714D01*
X136202785Y-105871929D02*
X136002785Y-105586214D01*
X135859928Y-105871929D02*
X135859928Y-105271929D01*
X136088500Y-105271929D01*
X136145642Y-105300500D01*
X136174214Y-105329071D01*
X136202785Y-105386214D01*
X136202785Y-105471929D01*
X136174214Y-105529071D01*
X136145642Y-105557643D01*
X136088500Y-105586214D01*
X135859928Y-105586214D01*
X136774214Y-105871929D02*
X136431357Y-105871929D01*
X136602785Y-105871929D02*
X136602785Y-105271929D01*
X136545642Y-105357643D01*
X136488500Y-105414786D01*
X136431357Y-105443357D01*
X137002786Y-105329071D02*
X137031357Y-105300500D01*
X137088500Y-105271929D01*
X137231357Y-105271929D01*
X137288500Y-105300500D01*
X137317071Y-105329071D01*
X137345643Y-105386214D01*
X137345643Y-105443357D01*
X137317071Y-105529071D01*
X136974214Y-105871929D01*
X137345643Y-105871929D01*
X129090785Y-105871929D02*
X128890785Y-105586214D01*
X128747928Y-105871929D02*
X128747928Y-105271929D01*
X128976500Y-105271929D01*
X129033642Y-105300500D01*
X129062214Y-105329071D01*
X129090785Y-105386214D01*
X129090785Y-105471929D01*
X129062214Y-105529071D01*
X129033642Y-105557643D01*
X128976500Y-105586214D01*
X128747928Y-105586214D01*
X129662214Y-105871929D02*
X129319357Y-105871929D01*
X129490785Y-105871929D02*
X129490785Y-105271929D01*
X129433642Y-105357643D01*
X129376500Y-105414786D01*
X129319357Y-105443357D01*
X129862214Y-105271929D02*
X130233643Y-105271929D01*
X130033643Y-105500500D01*
X130119357Y-105500500D01*
X130176500Y-105529071D01*
X130205071Y-105557643D01*
X130233643Y-105614786D01*
X130233643Y-105757643D01*
X130205071Y-105814786D01*
X130176500Y-105843357D01*
X130119357Y-105871929D01*
X129947929Y-105871929D01*
X129890786Y-105843357D01*
X129862214Y-105814786D01*
X121978785Y-105846529D02*
X121778785Y-105560814D01*
X121635928Y-105846529D02*
X121635928Y-105246529D01*
X121864500Y-105246529D01*
X121921642Y-105275100D01*
X121950214Y-105303671D01*
X121978785Y-105360814D01*
X121978785Y-105446529D01*
X121950214Y-105503671D01*
X121921642Y-105532243D01*
X121864500Y-105560814D01*
X121635928Y-105560814D01*
X122550214Y-105846529D02*
X122207357Y-105846529D01*
X122378785Y-105846529D02*
X122378785Y-105246529D01*
X122321642Y-105332243D01*
X122264500Y-105389386D01*
X122207357Y-105417957D01*
X123064500Y-105446529D02*
X123064500Y-105846529D01*
X122921643Y-105217957D02*
X122778786Y-105646529D01*
X123150214Y-105646529D01*
D11*
X149248834Y-112688643D02*
X149201215Y-112736262D01*
X149058358Y-112783881D01*
X148963120Y-112783881D01*
X148820262Y-112736262D01*
X148725024Y-112641024D01*
X148677405Y-112545786D01*
X148629786Y-112355310D01*
X148629786Y-112212452D01*
X148677405Y-112021976D01*
X148725024Y-111926738D01*
X148820262Y-111831500D01*
X148963120Y-111783881D01*
X149058358Y-111783881D01*
X149201215Y-111831500D01*
X149248834Y-111879119D01*
X150153596Y-111783881D02*
X149677405Y-111783881D01*
X149629786Y-112260071D01*
X149677405Y-112212452D01*
X149772643Y-112164833D01*
X150010739Y-112164833D01*
X150105977Y-112212452D01*
X150153596Y-112260071D01*
X150201215Y-112355310D01*
X150201215Y-112593405D01*
X150153596Y-112688643D01*
X150105977Y-112736262D01*
X150010739Y-112783881D01*
X149772643Y-112783881D01*
X149677405Y-112736262D01*
X149629786Y-112688643D01*
X151217334Y-112688643D02*
X151169715Y-112736262D01*
X151026858Y-112783881D01*
X150931620Y-112783881D01*
X150788762Y-112736262D01*
X150693524Y-112641024D01*
X150645905Y-112545786D01*
X150598286Y-112355310D01*
X150598286Y-112212452D01*
X150645905Y-112021976D01*
X150693524Y-111926738D01*
X150788762Y-111831500D01*
X150931620Y-111783881D01*
X151026858Y-111783881D01*
X151169715Y-111831500D01*
X151217334Y-111879119D01*
X152074477Y-111783881D02*
X151884000Y-111783881D01*
X151788762Y-111831500D01*
X151741143Y-111879119D01*
X151645905Y-112021976D01*
X151598286Y-112212452D01*
X151598286Y-112593405D01*
X151645905Y-112688643D01*
X151693524Y-112736262D01*
X151788762Y-112783881D01*
X151979239Y-112783881D01*
X152074477Y-112736262D01*
X152122096Y-112688643D01*
X152169715Y-112593405D01*
X152169715Y-112355310D01*
X152122096Y-112260071D01*
X152074477Y-112212452D01*
X151979239Y-112164833D01*
X151788762Y-112164833D01*
X151693524Y-112212452D01*
X151645905Y-112260071D01*
X151598286Y-112355310D01*
D10*
X134240643Y-98505929D02*
X134240643Y-97905929D01*
X134469215Y-97905929D01*
X134526357Y-97934500D01*
X134554929Y-97963071D01*
X134583500Y-98020214D01*
X134583500Y-98105929D01*
X134554929Y-98163071D01*
X134526357Y-98191643D01*
X134469215Y-98220214D01*
X134240643Y-98220214D01*
X135126357Y-97905929D02*
X134840643Y-97905929D01*
X134812072Y-98191643D01*
X134840643Y-98163071D01*
X134897786Y-98134500D01*
X135040643Y-98134500D01*
X135097786Y-98163071D01*
X135126357Y-98191643D01*
X135154929Y-98248786D01*
X135154929Y-98391643D01*
X135126357Y-98448786D01*
X135097786Y-98477357D01*
X135040643Y-98505929D01*
X134897786Y-98505929D01*
X134840643Y-98477357D01*
X134812072Y-98448786D01*
X141352643Y-98505929D02*
X141352643Y-97905929D01*
X141581215Y-97905929D01*
X141638357Y-97934500D01*
X141666929Y-97963071D01*
X141695500Y-98020214D01*
X141695500Y-98105929D01*
X141666929Y-98163071D01*
X141638357Y-98191643D01*
X141581215Y-98220214D01*
X141352643Y-98220214D01*
X142209786Y-98105929D02*
X142209786Y-98505929D01*
X142066929Y-97877357D02*
X141924072Y-98305929D01*
X142295500Y-98305929D01*
X162688643Y-98505929D02*
X162688643Y-97905929D01*
X162917215Y-97905929D01*
X162974357Y-97934500D01*
X163002929Y-97963071D01*
X163031500Y-98020214D01*
X163031500Y-98105929D01*
X163002929Y-98163071D01*
X162974357Y-98191643D01*
X162917215Y-98220214D01*
X162688643Y-98220214D01*
X163602929Y-98505929D02*
X163260072Y-98505929D01*
X163431500Y-98505929D02*
X163431500Y-97905929D01*
X163374357Y-97991643D01*
X163317215Y-98048786D01*
X163260072Y-98077357D01*
X155576643Y-98505929D02*
X155576643Y-97905929D01*
X155805215Y-97905929D01*
X155862357Y-97934500D01*
X155890929Y-97963071D01*
X155919500Y-98020214D01*
X155919500Y-98105929D01*
X155890929Y-98163071D01*
X155862357Y-98191643D01*
X155805215Y-98220214D01*
X155576643Y-98220214D01*
X156148072Y-97963071D02*
X156176643Y-97934500D01*
X156233786Y-97905929D01*
X156376643Y-97905929D01*
X156433786Y-97934500D01*
X156462357Y-97963071D01*
X156490929Y-98020214D01*
X156490929Y-98077357D01*
X156462357Y-98163071D01*
X156119500Y-98505929D01*
X156490929Y-98505929D01*
X148464643Y-98505929D02*
X148464643Y-97905929D01*
X148693215Y-97905929D01*
X148750357Y-97934500D01*
X148778929Y-97963071D01*
X148807500Y-98020214D01*
X148807500Y-98105929D01*
X148778929Y-98163071D01*
X148750357Y-98191643D01*
X148693215Y-98220214D01*
X148464643Y-98220214D01*
X149007500Y-97905929D02*
X149378929Y-97905929D01*
X149178929Y-98134500D01*
X149264643Y-98134500D01*
X149321786Y-98163071D01*
X149350357Y-98191643D01*
X149378929Y-98248786D01*
X149378929Y-98391643D01*
X149350357Y-98448786D01*
X149321786Y-98477357D01*
X149264643Y-98505929D01*
X149093215Y-98505929D01*
X149036072Y-98477357D01*
X149007500Y-98448786D01*
D11*
X153169881Y-118193486D02*
X152169881Y-118193486D01*
X152169881Y-117812533D01*
X152217500Y-117717295D01*
X152265119Y-117669676D01*
X152360357Y-117622057D01*
X152503214Y-117622057D01*
X152598452Y-117669676D01*
X152646071Y-117717295D01*
X152693690Y-117812533D01*
X152693690Y-118193486D01*
X153169881Y-116669676D02*
X153169881Y-117241105D01*
X153169881Y-116955391D02*
X152169881Y-116955391D01*
X152312738Y-117050629D01*
X152407976Y-117145867D01*
X152455595Y-117241105D01*
X152169881Y-116050629D02*
X152169881Y-115955390D01*
X152217500Y-115860152D01*
X152265119Y-115812533D01*
X152360357Y-115764914D01*
X152550833Y-115717295D01*
X152788929Y-115717295D01*
X152979405Y-115764914D01*
X153074643Y-115812533D01*
X153122262Y-115860152D01*
X153169881Y-115955390D01*
X153169881Y-116050629D01*
X153122262Y-116145867D01*
X153074643Y-116193486D01*
X152979405Y-116241105D01*
X152788929Y-116288724D01*
X152550833Y-116288724D01*
X152360357Y-116241105D01*
X152265119Y-116193486D01*
X152217500Y-116145867D01*
X152169881Y-116050629D01*
M02*
