M48
;DRILL file {KiCad 4.0.1-stable} date 2016-06-28 03:15:18
;FORMAT={-:-/ absolute / inch / decimal}
FMAT,2
INCH,TZ
T1C0.020
T2C0.040
T3C0.047
T4C0.055
T5C0.126
%
G90
G05
M72
T1
X4.38Y-3.87
X4.5025Y-4.5925
X4.5575Y-4.3625
X4.61Y-4.365
X4.61Y-4.6875
X4.66Y-4.365
X4.66Y-4.69
X4.71Y-4.37
X4.71Y-4.69
X4.7625Y-4.1625
X4.8125Y-4.4675
X5.0425Y-4.1625
X5.3225Y-4.1625
X5.59Y-4.68
X5.6025Y-4.1625
X5.6475Y-4.6875
X5.7671Y-4.6246
X5.7955Y-4.5185
X5.8295Y-4.4665
X5.85Y-4.58
X5.8825Y-4.1625
X6.1625Y-4.1625
X6.3425Y-4.6925
X6.4425Y-4.1625
T2
X4.6975Y-4.2575
X4.7975Y-4.2575
X4.9775Y-4.2575
X5.0775Y-4.2575
X5.2575Y-4.2575
X5.3575Y-4.2575
X5.5375Y-4.2575
X5.6375Y-4.2575
X5.8175Y-4.2575
X5.9175Y-4.2575
X6.0975Y-4.2575
X6.1975Y-4.2575
X6.3775Y-4.2575
X6.4775Y-4.2575
T3
X4.429Y-4.525
X4.7475Y-3.5925
X4.7475Y-3.6925
X4.7475Y-3.7925
X4.891Y-4.525
X5.0275Y-3.5925
X5.0275Y-3.6925
X5.0275Y-3.7925
X5.3075Y-3.5925
X5.3075Y-3.6925
X5.3075Y-3.7925
X5.5875Y-3.5925
X5.5875Y-3.6925
X5.5875Y-3.7925
X5.8675Y-3.5925
X5.8675Y-3.6925
X5.8675Y-3.7925
X6.064Y-4.535
X6.1475Y-3.5925
X6.1475Y-3.6925
X6.1475Y-3.7925
X6.4275Y-3.5925
X6.4275Y-3.6925
X6.4275Y-3.7925
X6.526Y-4.535
T4
X4.5264Y-3.9336
X4.5264Y-4.0714
T5
X5.2418Y-4.5018
T0
M30
