M48
;DRILL file {KiCad 4.0.1-stable} date 2016-06-29 05:18:01
;FORMAT={-:-/ absolute / inch / decimal}
FMAT,2
INCH,TZ
T1C0.020
T2C0.047
T3C0.055
T4C0.126
%
G90
G05
M72
T1
X0.115Y-0.0556
X0.115Y-0.1033
X0.115Y-0.1509
X0.115Y-0.1985
X0.1626Y-0.0556
X0.1626Y-0.1033
X0.1626Y-0.1509
X0.1626Y-0.1985
X0.2103Y-0.0556
X0.2103Y-0.1033
X0.2103Y-0.1509
X0.2103Y-0.1985
X0.2579Y-0.0556
X0.2579Y-0.1033
X0.2579Y-0.1509
X0.2579Y-0.1985
X0.35Y-0.0556
X0.35Y-0.1033
X0.35Y-0.1509
X0.35Y-0.1985
X0.3976Y-0.0556
X0.3976Y-0.1033
X0.3976Y-0.1509
X0.3976Y-0.1985
X0.42Y-0.365
X0.4453Y-0.0556
X0.4453Y-0.1033
X0.4453Y-0.1509
X0.4453Y-0.1985
X0.4456Y-0.9744
X0.4929Y-0.0556
X0.4929Y-0.1033
X0.4929Y-0.1509
X0.4929Y-0.1985
X0.5006Y-0.7444
X0.5531Y-0.7469
X0.5531Y-1.0694
X0.6031Y-0.7469
X0.6031Y-1.0719
X0.6531Y-0.7519
X0.6531Y-1.0719
X0.7056Y-0.6625
X0.7556Y-0.8494
X0.805Y-0.7075
X0.8131Y-0.4
X0.9856Y-0.6625
X1.0931Y-0.41
X1.0931Y-0.66
X1.21Y-1.0402
X1.2656Y-0.6625
X1.273Y-0.966
X1.3631Y-0.41
X1.396Y-0.754
X1.5456Y-0.6625
X1.6531Y-0.4
X1.6531Y-0.66
X1.7102Y-1.0065
X1.7386Y-0.9004
X1.7726Y-0.8484
X1.7931Y-0.9619
X1.8256Y-0.6625
X1.8931Y-0.67
X1.9331Y-0.4
X2.1056Y-0.6625
X2.1842Y-0.7119
X2.2031Y-0.41
X2.2831Y-0.75
X2.2856Y-1.0744
X2.3856Y-0.6625
X2.509Y-0.324
T2
X0.3721Y-0.9069
X0.6906Y-0.0925
X0.6906Y-0.1925
X0.6906Y-0.2925
X0.8341Y-0.9069
X0.9706Y-0.0925
X0.9706Y-0.1925
X0.9706Y-0.2925
X1.2506Y-0.0925
X1.2506Y-0.1925
X1.2506Y-0.2925
X1.5306Y-0.0925
X1.5306Y-0.1925
X1.5306Y-0.2925
X1.8106Y-0.0925
X1.8106Y-0.1925
X1.8106Y-0.2925
X2.0071Y-0.9169
X2.0906Y-0.0925
X2.0906Y-0.1925
X2.0906Y-0.2925
X2.3706Y-0.0925
X2.3706Y-0.1925
X2.3706Y-0.2925
X2.4691Y-0.9169
T3
X0.2639Y-0.4311
X0.2639Y-0.5689
T4
X0.1969Y-0.9843
T0
M30
