M48
METRIC,TZ
T1C0.400
T2C1.016
T3C3.200
%
G90
G05
T1
X6.409Y12.93
X6.512Y13.748
X15.814Y13.73
X18.672Y18.645
X19.235Y15.682
X19.878Y16.632
X20.831Y16.665
X29.947Y21.196
X35.151Y18.437
T2
X11.Y25.
X13.54Y25.
X16.08Y25.
X18.62Y25.
X21.16Y25.
X23.7Y25.
X26.24Y25.
X28.78Y25.
X31.32Y25.
X33.86Y25.
T3
X5.Y25.
X5.Y5.
X40.Y25.
X40.Y5.
T0
M30
