G04 #@! TF.FileFunction,Copper,L1,Top,Signal*
%FSLAX46Y46*%
G04 Gerber Fmt 4.6, Leading zero omitted, Abs format (unit mm)*
G04 Created by KiCad (PCBNEW 4.0.2-stable) date 19/05/2016 22:01:24*
%MOMM*%
G01*
G04 APERTURE LIST*
%ADD10C,0.100000*%
%ADD11C,0.150000*%
%ADD12R,1.727200X2.032000*%
%ADD13O,1.727200X2.032000*%
%ADD14C,7.000000*%
%ADD15R,2.400000X0.760000*%
%ADD16C,0.250000*%
G04 APERTURE END LIST*
D10*
D11*
X10000000Y1500000D02*
X40000000Y1500000D01*
X10000000Y28500000D02*
X40000000Y28500000D01*
X6500000Y5000000D02*
G75*
G03X10000000Y1500000I3500000J0D01*
G01*
X6500000Y5000000D02*
X6500000Y25000000D01*
X43500000Y25000000D02*
X43500000Y5000000D01*
X43500000Y25000000D02*
G75*
G03X40000000Y28500000I-3500000J0D01*
G01*
X40000000Y1500000D02*
G75*
G03X43500000Y5000000I0J3500000D01*
G01*
X10000000Y28500000D02*
G75*
G03X6500000Y25000000I0J-3500000D01*
G01*
D12*
X14000000Y25000000D03*
D13*
X16540000Y25000000D03*
X19080000Y25000000D03*
X21620000Y25000000D03*
X24160000Y25000000D03*
X26700000Y25000000D03*
X29240000Y25000000D03*
X31780000Y25000000D03*
X34320000Y25000000D03*
X36860000Y25000000D03*
D14*
X10000000Y5000000D03*
X40000000Y5000000D03*
D15*
X29340000Y12270000D03*
X34660000Y12270000D03*
X29340000Y11000000D03*
X34660000Y11000000D03*
X34660000Y8460000D03*
X29340000Y8460000D03*
X34660000Y9730000D03*
X29340000Y9730000D03*
X29340000Y13540000D03*
X34660000Y13540000D03*
X15340000Y12270000D03*
X20660000Y12270000D03*
X15340000Y11000000D03*
X20660000Y11000000D03*
X20660000Y8460000D03*
X15340000Y8460000D03*
X20660000Y9730000D03*
X15340000Y9730000D03*
X15340000Y13540000D03*
X20660000Y13540000D03*
D16*
X15340000Y12270000D02*
X16865300Y12270000D01*
X27326500Y12270000D02*
X29340000Y12270000D01*
X23974900Y15621600D02*
X27326500Y12270000D01*
X18771700Y15621600D02*
X23974900Y15621600D01*
X17315600Y14165500D02*
X18771700Y15621600D01*
X17315600Y12720300D02*
X17315600Y14165500D01*
X16865300Y12270000D02*
X17315600Y12720300D01*
X31780000Y13184700D02*
X31780000Y25000000D01*
X30865300Y12270000D02*
X31780000Y13184700D01*
X29340000Y12270000D02*
X30865300Y12270000D01*
X34660000Y12270000D02*
X36185300Y12270000D01*
X20660000Y12270000D02*
X22185300Y12270000D01*
X34660000Y12270000D02*
X33134700Y12270000D01*
X38092900Y14177600D02*
X36185300Y12270000D01*
X38092900Y25634600D02*
X38092900Y14177600D01*
X36929700Y26797800D02*
X38092900Y25634600D01*
X31037800Y26797800D02*
X36929700Y26797800D01*
X29240000Y25000000D02*
X31037800Y26797800D01*
X27185600Y7269700D02*
X22185300Y12270000D01*
X30896300Y7269700D02*
X27185600Y7269700D01*
X31315800Y7689200D02*
X30896300Y7269700D01*
X31315800Y10451100D02*
X31315800Y7689200D01*
X33134700Y12270000D02*
X31315800Y10451100D01*
X16102700Y11000000D02*
X16865300Y11000000D01*
X29340000Y11000000D02*
X27814700Y11000000D01*
X16102700Y11000000D02*
X15340000Y11000000D01*
X25511100Y24479900D02*
X25511100Y25000000D01*
X15374700Y14343500D02*
X25511100Y24479900D01*
X14100800Y14343500D02*
X15374700Y14343500D01*
X13814700Y14057400D02*
X14100800Y14343500D01*
X13814700Y11000000D02*
X13814700Y14057400D01*
X15340000Y11000000D02*
X13814700Y11000000D01*
X26700000Y25000000D02*
X25511100Y25000000D01*
X18064900Y12199600D02*
X16865300Y11000000D01*
X18064900Y14274200D02*
X18064900Y12199600D01*
X18962000Y15171300D02*
X18064900Y14274200D01*
X23643400Y15171300D02*
X18962000Y15171300D01*
X27814700Y11000000D02*
X23643400Y15171300D01*
X34660000Y11000000D02*
X36185300Y11000000D01*
X20660000Y11000000D02*
X22185300Y11000000D01*
X34660000Y11000000D02*
X33134700Y11000000D01*
X38563000Y13377700D02*
X36185300Y11000000D01*
X38563000Y25815900D02*
X38563000Y13377700D01*
X37077000Y27301900D02*
X38563000Y25815900D01*
X26461900Y27301900D02*
X37077000Y27301900D01*
X24160000Y25000000D02*
X26461900Y27301900D01*
X26366000Y6819300D02*
X22185300Y11000000D01*
X31082800Y6819300D02*
X26366000Y6819300D01*
X32216400Y7952900D02*
X31082800Y6819300D01*
X32216400Y10081700D02*
X32216400Y7952900D01*
X33134700Y11000000D02*
X32216400Y10081700D01*
X32065700Y5865700D02*
X34660000Y8460000D01*
X24779600Y5865700D02*
X32065700Y5865700D01*
X22185300Y8460000D02*
X24779600Y5865700D01*
X21422700Y8460000D02*
X22185300Y8460000D01*
X21422700Y8460000D02*
X20660000Y8460000D01*
X12424000Y24612900D02*
X12811100Y25000000D01*
X12424000Y9203400D02*
X12424000Y24612900D01*
X13872800Y7754600D02*
X12424000Y9203400D01*
X18429300Y7754600D02*
X13872800Y7754600D01*
X19134700Y8460000D02*
X18429300Y7754600D01*
X20660000Y8460000D02*
X19134700Y8460000D01*
X14000000Y25000000D02*
X12811100Y25000000D01*
X15351100Y23811100D02*
X15351100Y25000000D01*
X12880600Y21340600D02*
X15351100Y23811100D01*
X12880600Y9394100D02*
X12880600Y21340600D01*
X13814700Y8460000D02*
X12880600Y9394100D01*
X16540000Y25000000D02*
X15351100Y25000000D01*
X14577400Y8460000D02*
X13814700Y8460000D01*
X14577400Y8460000D02*
X15340000Y8460000D01*
X27902300Y8460000D02*
X29340000Y8460000D01*
X22091700Y14270600D02*
X27902300Y8460000D01*
X19335100Y14270600D02*
X22091700Y14270600D01*
X19016400Y13951900D02*
X19335100Y14270600D01*
X19016400Y10611100D02*
X19016400Y13951900D01*
X16865300Y8460000D02*
X19016400Y10611100D01*
X15340000Y8460000D02*
X16865300Y8460000D01*
X20268900Y25520100D02*
X20268900Y25000000D01*
X22542300Y27793500D02*
X20268900Y25520100D01*
X37222300Y27793500D02*
X22542300Y27793500D01*
X39020500Y25995300D02*
X37222300Y27793500D01*
X39020500Y12565200D02*
X39020500Y25995300D01*
X36185300Y9730000D02*
X39020500Y12565200D01*
X34660000Y9730000D02*
X36185300Y9730000D01*
X19080000Y25000000D02*
X20268900Y25000000D01*
X33134700Y8218400D02*
X33134700Y9730000D01*
X31232400Y6316100D02*
X33134700Y8218400D01*
X25599200Y6316100D02*
X31232400Y6316100D01*
X22185300Y9730000D02*
X25599200Y6316100D01*
X20660000Y9730000D02*
X22185300Y9730000D01*
X34660000Y9730000D02*
X33134700Y9730000D01*
X13350400Y15389100D02*
X21620000Y23658700D01*
X13350400Y10194300D02*
X13350400Y15389100D01*
X13814700Y9730000D02*
X13350400Y10194300D01*
X21620000Y25000000D02*
X21620000Y23658700D01*
X14577400Y9730000D02*
X13814700Y9730000D01*
X14577400Y9730000D02*
X15340000Y9730000D01*
X27312300Y9730000D02*
X29340000Y9730000D01*
X22321300Y14721000D02*
X27312300Y9730000D01*
X19148600Y14721000D02*
X22321300Y14721000D01*
X18540400Y14112800D02*
X19148600Y14721000D01*
X18540400Y11405100D02*
X18540400Y14112800D01*
X16865300Y9730000D02*
X18540400Y11405100D01*
X15340000Y9730000D02*
X16865300Y9730000D01*
X30865400Y11270700D02*
X33134700Y13540000D01*
X30865400Y7875700D02*
X30865400Y11270700D01*
X30744300Y7754600D02*
X30865400Y7875700D01*
X27970700Y7754600D02*
X30744300Y7754600D01*
X22185300Y13540000D02*
X27970700Y7754600D01*
X20660000Y13540000D02*
X22185300Y13540000D01*
X34660000Y13540000D02*
X33897400Y13540000D01*
X33897400Y13540000D02*
X33134700Y13540000D01*
X33897400Y23236100D02*
X34320000Y23658700D01*
X33897400Y13540000D02*
X33897400Y23236100D01*
X34320000Y25000000D02*
X34320000Y23658700D01*
X15340000Y13540000D02*
X16865300Y13540000D01*
X29340000Y13540000D02*
X27814700Y13540000D01*
X36860000Y25000000D02*
X35671100Y25000000D01*
X35671100Y25520100D02*
X35671100Y25000000D01*
X34843800Y26347400D02*
X35671100Y25520100D01*
X31224300Y26347400D02*
X34843800Y26347400D01*
X30510000Y25633100D02*
X31224300Y26347400D01*
X30510000Y21299100D02*
X30510000Y25633100D01*
X25282800Y16071900D02*
X30510000Y21299100D01*
X27814700Y13540000D02*
X25282800Y16071900D01*
X16865300Y14353000D02*
X16865300Y13540000D01*
X18584200Y16071900D02*
X16865300Y14353000D01*
X25282800Y16071900D02*
X18584200Y16071900D01*
M02*
