G04 #@! TF.FileFunction,Legend,Top*
%FSLAX46Y46*%
G04 Gerber Fmt 4.6, Leading zero omitted, Abs format (unit mm)*
G04 Created by KiCad (PCBNEW 4.0.2-stable) date 19/05/2016 22:01:24*
%MOMM*%
G01*
G04 APERTURE LIST*
%ADD10C,0.100000*%
%ADD11C,0.150000*%
%ADD12C,0.200000*%
%ADD13C,0.300000*%
%ADD14C,0.500000*%
G04 APERTURE END LIST*
D10*
D11*
X10000000Y1500000D02*
X40000000Y1500000D01*
X10000000Y28500000D02*
X40000000Y28500000D01*
D12*
X38000000Y12095238D02*
X38000000Y11619048D01*
X37523809Y11809524D02*
X38000000Y11619048D01*
X38476190Y11809524D01*
X37714285Y11238095D02*
X38000000Y11619048D01*
X38285714Y11238095D01*
X39500000Y10000000D02*
X39500000Y13000000D01*
X36500000Y10000000D02*
X39500000Y10000000D01*
X36500000Y10000000D02*
X36500000Y13000000D01*
X39500000Y13000000D02*
X36500000Y13000000D01*
X12000000Y12095238D02*
X12000000Y11619048D01*
X11523809Y11809524D02*
X12000000Y11619048D01*
X12476190Y11809524D01*
X11714285Y11238095D02*
X12000000Y11619048D01*
X12285714Y11238095D01*
X10500000Y13000000D02*
X10500000Y10000000D01*
X13500000Y13000000D02*
X10500000Y13000000D01*
X13500000Y10000000D02*
X13500000Y13000000D01*
X10500000Y10000000D02*
X13500000Y10000000D01*
D11*
X6500000Y5000000D02*
G75*
G03X10000000Y1500000I3500000J0D01*
G01*
X6500000Y5000000D02*
X6500000Y25000000D01*
X43500000Y25000000D02*
X43500000Y5000000D01*
X43500000Y25000000D02*
G75*
G03X40000000Y28500000I-3500000J0D01*
G01*
X40000000Y1500000D02*
G75*
G03X43500000Y5000000I0J3500000D01*
G01*
X10000000Y28500000D02*
G75*
G03X6500000Y25000000I0J-3500000D01*
G01*
D12*
X15535714Y2321429D02*
X15035714Y3035714D01*
X14678571Y2321429D02*
X14678571Y3821429D01*
X15249999Y3821429D01*
X15392857Y3750000D01*
X15464285Y3678571D01*
X15535714Y3535714D01*
X15535714Y3321429D01*
X15464285Y3178571D01*
X15392857Y3107143D01*
X15249999Y3035714D01*
X14678571Y3035714D01*
X16821428Y2321429D02*
X16821428Y3107143D01*
X16749999Y3250000D01*
X16607142Y3321429D01*
X16321428Y3321429D01*
X16178571Y3250000D01*
X16821428Y2392857D02*
X16678571Y2321429D01*
X16321428Y2321429D01*
X16178571Y2392857D01*
X16107142Y2535714D01*
X16107142Y2678571D01*
X16178571Y2821429D01*
X16321428Y2892857D01*
X16678571Y2892857D01*
X16821428Y2964286D01*
X17392857Y3321429D02*
X17678571Y2321429D01*
X17964285Y3035714D01*
X18250000Y2321429D01*
X18535714Y3321429D01*
X20250000Y2321429D02*
X20250000Y3821429D01*
X20821428Y3821429D01*
X20964286Y3750000D01*
X21035714Y3678571D01*
X21107143Y3535714D01*
X21107143Y3321429D01*
X21035714Y3178571D01*
X20964286Y3107143D01*
X20821428Y3035714D01*
X20250000Y3035714D01*
X21750000Y2321429D02*
X21750000Y3321429D01*
X21750000Y3821429D02*
X21678571Y3750000D01*
X21750000Y3678571D01*
X21821428Y3750000D01*
X21750000Y3821429D01*
X21750000Y3678571D01*
X22464286Y3321429D02*
X22464286Y2321429D01*
X22464286Y3178571D02*
X22535714Y3250000D01*
X22678572Y3321429D01*
X22892857Y3321429D01*
X23035714Y3250000D01*
X23107143Y3107143D01*
X23107143Y2321429D01*
X23750000Y2392857D02*
X23892857Y2321429D01*
X24178572Y2321429D01*
X24321429Y2392857D01*
X24392857Y2535714D01*
X24392857Y2607143D01*
X24321429Y2750000D01*
X24178572Y2821429D01*
X23964286Y2821429D01*
X23821429Y2892857D01*
X23750000Y3035714D01*
X23750000Y3107143D01*
X23821429Y3250000D01*
X23964286Y3321429D01*
X24178572Y3321429D01*
X24321429Y3250000D01*
X26678572Y3107143D02*
X26892858Y3035714D01*
X26964286Y2964286D01*
X27035715Y2821429D01*
X27035715Y2607143D01*
X26964286Y2464286D01*
X26892858Y2392857D01*
X26750000Y2321429D01*
X26178572Y2321429D01*
X26178572Y3821429D01*
X26678572Y3821429D01*
X26821429Y3750000D01*
X26892858Y3678571D01*
X26964286Y3535714D01*
X26964286Y3392857D01*
X26892858Y3250000D01*
X26821429Y3178571D01*
X26678572Y3107143D01*
X26178572Y3107143D01*
X27678572Y2321429D02*
X27678572Y3321429D01*
X27678572Y3035714D02*
X27750000Y3178571D01*
X27821429Y3250000D01*
X27964286Y3321429D01*
X28107143Y3321429D01*
X29178571Y2392857D02*
X29035714Y2321429D01*
X28750000Y2321429D01*
X28607143Y2392857D01*
X28535714Y2535714D01*
X28535714Y3107143D01*
X28607143Y3250000D01*
X28750000Y3321429D01*
X29035714Y3321429D01*
X29178571Y3250000D01*
X29250000Y3107143D01*
X29250000Y2964286D01*
X28535714Y2821429D01*
X30535714Y2321429D02*
X30535714Y3107143D01*
X30464285Y3250000D01*
X30321428Y3321429D01*
X30035714Y3321429D01*
X29892857Y3250000D01*
X30535714Y2392857D02*
X30392857Y2321429D01*
X30035714Y2321429D01*
X29892857Y2392857D01*
X29821428Y2535714D01*
X29821428Y2678571D01*
X29892857Y2821429D01*
X30035714Y2892857D01*
X30392857Y2892857D01*
X30535714Y2964286D01*
X31250000Y2321429D02*
X31250000Y3821429D01*
X31392857Y2892857D02*
X31821428Y2321429D01*
X31821428Y3321429D02*
X31250000Y2750000D01*
X32678572Y2321429D02*
X32535714Y2392857D01*
X32464286Y2464286D01*
X32392857Y2607143D01*
X32392857Y3035714D01*
X32464286Y3178571D01*
X32535714Y3250000D01*
X32678572Y3321429D01*
X32892857Y3321429D01*
X33035714Y3250000D01*
X33107143Y3178571D01*
X33178572Y3035714D01*
X33178572Y2607143D01*
X33107143Y2464286D01*
X33035714Y2392857D01*
X32892857Y2321429D01*
X32678572Y2321429D01*
X34464286Y3321429D02*
X34464286Y2321429D01*
X33821429Y3321429D02*
X33821429Y2535714D01*
X33892857Y2392857D01*
X34035715Y2321429D01*
X34250000Y2321429D01*
X34392857Y2392857D01*
X34464286Y2464286D01*
X34964286Y3321429D02*
X35535715Y3321429D01*
X35178572Y3821429D02*
X35178572Y2535714D01*
X35250000Y2392857D01*
X35392858Y2321429D01*
X35535715Y2321429D01*
D13*
X36110000Y19031428D02*
X36038571Y18888571D01*
X36038571Y18674285D01*
X36110000Y18460000D01*
X36252857Y18317142D01*
X36395714Y18245714D01*
X36681429Y18174285D01*
X36895714Y18174285D01*
X37181429Y18245714D01*
X37324286Y18317142D01*
X37467143Y18460000D01*
X37538571Y18674285D01*
X37538571Y18817142D01*
X37467143Y19031428D01*
X37395714Y19102857D01*
X36895714Y19102857D01*
X36895714Y18817142D01*
X37538571Y19745714D02*
X36038571Y19745714D01*
X37538571Y20602857D01*
X36038571Y20602857D01*
X37538571Y21317143D02*
X36038571Y21317143D01*
X36038571Y21674286D01*
X36110000Y21888571D01*
X36252857Y22031429D01*
X36395714Y22102857D01*
X36681429Y22174286D01*
X36895714Y22174286D01*
X37181429Y22102857D01*
X37324286Y22031429D01*
X37467143Y21888571D01*
X37538571Y21674286D01*
X37538571Y21317143D01*
X34998571Y19888572D02*
X33498571Y19888572D01*
X33498571Y20460000D01*
X33570000Y20602858D01*
X33641429Y20674286D01*
X33784286Y20745715D01*
X33998571Y20745715D01*
X34141429Y20674286D01*
X34212857Y20602858D01*
X34284286Y20460000D01*
X34284286Y19888572D01*
X34998571Y21460000D02*
X34998571Y21745715D01*
X34927143Y21888572D01*
X34855714Y21960000D01*
X34641429Y22102858D01*
X34355714Y22174286D01*
X33784286Y22174286D01*
X33641429Y22102858D01*
X33570000Y22031429D01*
X33498571Y21888572D01*
X33498571Y21602858D01*
X33570000Y21460000D01*
X33641429Y21388572D01*
X33784286Y21317143D01*
X34141429Y21317143D01*
X34284286Y21388572D01*
X34355714Y21460000D01*
X34427143Y21602858D01*
X34427143Y21888572D01*
X34355714Y22031429D01*
X34284286Y22102858D01*
X34141429Y22174286D01*
X32458571Y19888572D02*
X30958571Y19888572D01*
X30958571Y20460000D01*
X31030000Y20602858D01*
X31101429Y20674286D01*
X31244286Y20745715D01*
X31458571Y20745715D01*
X31601429Y20674286D01*
X31672857Y20602858D01*
X31744286Y20460000D01*
X31744286Y19888572D01*
X31601429Y21602858D02*
X31530000Y21460000D01*
X31458571Y21388572D01*
X31315714Y21317143D01*
X31244286Y21317143D01*
X31101429Y21388572D01*
X31030000Y21460000D01*
X30958571Y21602858D01*
X30958571Y21888572D01*
X31030000Y22031429D01*
X31101429Y22102858D01*
X31244286Y22174286D01*
X31315714Y22174286D01*
X31458571Y22102858D01*
X31530000Y22031429D01*
X31601429Y21888572D01*
X31601429Y21602858D01*
X31672857Y21460000D01*
X31744286Y21388572D01*
X31887143Y21317143D01*
X32172857Y21317143D01*
X32315714Y21388572D01*
X32387143Y21460000D01*
X32458571Y21602858D01*
X32458571Y21888572D01*
X32387143Y22031429D01*
X32315714Y22102858D01*
X32172857Y22174286D01*
X31887143Y22174286D01*
X31744286Y22102858D01*
X31672857Y22031429D01*
X31601429Y21888572D01*
X29918571Y19888572D02*
X28418571Y19888572D01*
X28418571Y20460000D01*
X28490000Y20602858D01*
X28561429Y20674286D01*
X28704286Y20745715D01*
X28918571Y20745715D01*
X29061429Y20674286D01*
X29132857Y20602858D01*
X29204286Y20460000D01*
X29204286Y19888572D01*
X28418571Y21245715D02*
X28418571Y22245715D01*
X29918571Y21602858D01*
X27378571Y19888572D02*
X25878571Y19888572D01*
X25878571Y20460000D01*
X25950000Y20602858D01*
X26021429Y20674286D01*
X26164286Y20745715D01*
X26378571Y20745715D01*
X26521429Y20674286D01*
X26592857Y20602858D01*
X26664286Y20460000D01*
X26664286Y19888572D01*
X25878571Y22031429D02*
X25878571Y21745715D01*
X25950000Y21602858D01*
X26021429Y21531429D01*
X26235714Y21388572D01*
X26521429Y21317143D01*
X27092857Y21317143D01*
X27235714Y21388572D01*
X27307143Y21460000D01*
X27378571Y21602858D01*
X27378571Y21888572D01*
X27307143Y22031429D01*
X27235714Y22102858D01*
X27092857Y22174286D01*
X26735714Y22174286D01*
X26592857Y22102858D01*
X26521429Y22031429D01*
X26450000Y21888572D01*
X26450000Y21602858D01*
X26521429Y21460000D01*
X26592857Y21388572D01*
X26735714Y21317143D01*
X24838571Y19888572D02*
X23338571Y19888572D01*
X23338571Y20460000D01*
X23410000Y20602858D01*
X23481429Y20674286D01*
X23624286Y20745715D01*
X23838571Y20745715D01*
X23981429Y20674286D01*
X24052857Y20602858D01*
X24124286Y20460000D01*
X24124286Y19888572D01*
X23338571Y22102858D02*
X23338571Y21388572D01*
X24052857Y21317143D01*
X23981429Y21388572D01*
X23910000Y21531429D01*
X23910000Y21888572D01*
X23981429Y22031429D01*
X24052857Y22102858D01*
X24195714Y22174286D01*
X24552857Y22174286D01*
X24695714Y22102858D01*
X24767143Y22031429D01*
X24838571Y21888572D01*
X24838571Y21531429D01*
X24767143Y21388572D01*
X24695714Y21317143D01*
X22298571Y19888572D02*
X20798571Y19888572D01*
X20798571Y20460000D01*
X20870000Y20602858D01*
X20941429Y20674286D01*
X21084286Y20745715D01*
X21298571Y20745715D01*
X21441429Y20674286D01*
X21512857Y20602858D01*
X21584286Y20460000D01*
X21584286Y19888572D01*
X21298571Y22031429D02*
X22298571Y22031429D01*
X20727143Y21674286D02*
X21798571Y21317143D01*
X21798571Y22245715D01*
X19758571Y19888572D02*
X18258571Y19888572D01*
X18258571Y20460000D01*
X18330000Y20602858D01*
X18401429Y20674286D01*
X18544286Y20745715D01*
X18758571Y20745715D01*
X18901429Y20674286D01*
X18972857Y20602858D01*
X19044286Y20460000D01*
X19044286Y19888572D01*
X18258571Y21245715D02*
X18258571Y22174286D01*
X18830000Y21674286D01*
X18830000Y21888572D01*
X18901429Y22031429D01*
X18972857Y22102858D01*
X19115714Y22174286D01*
X19472857Y22174286D01*
X19615714Y22102858D01*
X19687143Y22031429D01*
X19758571Y21888572D01*
X19758571Y21460000D01*
X19687143Y21317143D01*
X19615714Y21245715D01*
X16647143Y18245715D02*
X16647143Y19388572D01*
X17218571Y18817143D02*
X16075714Y18817143D01*
X15718571Y20817144D02*
X15718571Y20102858D01*
X16432857Y20031429D01*
X16361429Y20102858D01*
X16290000Y20245715D01*
X16290000Y20602858D01*
X16361429Y20745715D01*
X16432857Y20817144D01*
X16575714Y20888572D01*
X16932857Y20888572D01*
X17075714Y20817144D01*
X17147143Y20745715D01*
X17218571Y20602858D01*
X17218571Y20245715D01*
X17147143Y20102858D01*
X17075714Y20031429D01*
X15718571Y21317143D02*
X17218571Y21817143D01*
X15718571Y22317143D01*
X14107143Y16102858D02*
X14107143Y17245715D01*
X14678571Y16674286D02*
X13535714Y16674286D01*
X13178571Y17817144D02*
X13178571Y18745715D01*
X13750000Y18245715D01*
X13750000Y18460001D01*
X13821429Y18602858D01*
X13892857Y18674287D01*
X14035714Y18745715D01*
X14392857Y18745715D01*
X14535714Y18674287D01*
X14607143Y18602858D01*
X14678571Y18460001D01*
X14678571Y18031429D01*
X14607143Y17888572D01*
X14535714Y17817144D01*
X14535714Y19388572D02*
X14607143Y19460000D01*
X14678571Y19388572D01*
X14607143Y19317143D01*
X14535714Y19388572D01*
X14678571Y19388572D01*
X13178571Y19960001D02*
X13178571Y20888572D01*
X13750000Y20388572D01*
X13750000Y20602858D01*
X13821429Y20745715D01*
X13892857Y20817144D01*
X14035714Y20888572D01*
X14392857Y20888572D01*
X14535714Y20817144D01*
X14607143Y20745715D01*
X14678571Y20602858D01*
X14678571Y20174286D01*
X14607143Y20031429D01*
X14535714Y19960001D01*
X13178571Y21317143D02*
X14678571Y21817143D01*
X13178571Y22317143D01*
D11*
X15270000Y23730000D02*
X38130000Y23730000D01*
X38130000Y23730000D02*
X38130000Y26270000D01*
X38130000Y26270000D02*
X15270000Y26270000D01*
X12450000Y23450000D02*
X14000000Y23450000D01*
X15270000Y23730000D02*
X15270000Y26270000D01*
X14000000Y26550000D02*
X12450000Y26550000D01*
X12450000Y26550000D02*
X12450000Y23450000D01*
D14*
X23000000Y13000000D02*
X27000000Y13000000D01*
X27000000Y13000000D02*
X27000000Y9000000D01*
X27000000Y9000000D02*
X23000000Y9000000D01*
X23000000Y9000000D02*
X23000000Y13000000D01*
X26000000Y12000000D02*
X24000000Y12000000D01*
X24000000Y12000000D02*
X24000000Y10000000D01*
X24000000Y10000000D02*
X26000000Y10000000D01*
X26000000Y10000000D02*
X26000000Y11000000D01*
X26000000Y11000000D02*
X25000000Y11000000D01*
D12*
X32452381Y5261905D02*
X31452381Y5261905D01*
X31452381Y5642858D01*
X31500000Y5738096D01*
X31547619Y5785715D01*
X31642857Y5833334D01*
X31785714Y5833334D01*
X31880952Y5785715D01*
X31928571Y5738096D01*
X31976190Y5642858D01*
X31976190Y5261905D01*
X31452381Y6166667D02*
X31452381Y6785715D01*
X31833333Y6452381D01*
X31833333Y6595239D01*
X31880952Y6690477D01*
X31928571Y6738096D01*
X32023810Y6785715D01*
X32261905Y6785715D01*
X32357143Y6738096D01*
X32404762Y6690477D01*
X32452381Y6595239D01*
X32452381Y6309524D01*
X32404762Y6214286D01*
X32357143Y6166667D01*
X17952381Y5761905D02*
X16952381Y5761905D01*
X16952381Y6142858D01*
X17000000Y6238096D01*
X17047619Y6285715D01*
X17142857Y6333334D01*
X17285714Y6333334D01*
X17380952Y6285715D01*
X17428571Y6238096D01*
X17476190Y6142858D01*
X17476190Y5761905D01*
X17952381Y7285715D02*
X17952381Y6714286D01*
X17952381Y7000000D02*
X16952381Y7000000D01*
X17095238Y6904762D01*
X17190476Y6809524D01*
X17238095Y6714286D01*
M02*
