G04 #@! TF.FileFunction,Legend,Top*
%FSLAX46Y46*%
G04 Gerber Fmt 4.6, Leading zero omitted, Abs format (unit mm)*
G04 Created by KiCad (PCBNEW 4.0.2-stable) date 04/06/2016 14:34:18*
%MOMM*%
G01*
G04 APERTURE LIST*
%ADD10C,0.100000*%
%ADD11C,0.304800*%
%ADD12C,0.101600*%
%ADD13C,0.134112*%
%ADD14C,0.142240*%
%ADD15C,0.065024*%
%ADD16C,0.081280*%
%ADD17C,0.150000*%
G04 APERTURE END LIST*
D10*
D11*
X152111786Y-109448786D02*
X154869500Y-109448786D01*
X152111786Y-105948786D02*
X154869500Y-105948786D01*
X153490643Y-107327643D02*
X153490643Y-104569929D01*
D12*
X135961362Y-99792148D02*
X135961362Y-98585648D01*
X136420981Y-98585648D01*
X136535886Y-98643100D01*
X136593338Y-98700552D01*
X136650790Y-98815457D01*
X136650790Y-98987814D01*
X136593338Y-99102719D01*
X136535886Y-99160171D01*
X136420981Y-99217624D01*
X135961362Y-99217624D01*
X137052957Y-98585648D02*
X137340219Y-99792148D01*
X137570029Y-98930362D01*
X137799838Y-99792148D01*
X138087100Y-98585648D01*
X139236147Y-99792148D02*
X138833981Y-99217624D01*
X138546719Y-99792148D02*
X138546719Y-98585648D01*
X139006338Y-98585648D01*
X139121243Y-98643100D01*
X139178695Y-98700552D01*
X139236147Y-98815457D01*
X139236147Y-98987814D01*
X139178695Y-99102719D01*
X139121243Y-99160171D01*
X139006338Y-99217624D01*
X138546719Y-99217624D01*
X140672457Y-99792148D02*
X140672457Y-98585648D01*
X141246981Y-99792148D02*
X141246981Y-98585648D01*
X141936409Y-99792148D01*
X141936409Y-98585648D01*
D13*
X135977449Y-100332857D02*
X136053286Y-100257020D01*
X136204960Y-100181183D01*
X136584146Y-100181183D01*
X136735820Y-100257020D01*
X136811657Y-100332857D01*
X136887494Y-100484531D01*
X136887494Y-100636206D01*
X136811657Y-100863717D01*
X135901611Y-101773763D01*
X136887494Y-101773763D01*
X138252563Y-100712043D02*
X138252563Y-101773763D01*
X137873377Y-100105346D02*
X137494192Y-101242903D01*
X138480074Y-101242903D01*
X138859260Y-100181183D02*
X139390120Y-101773763D01*
X139920980Y-100181183D01*
D14*
X157223900Y-99980467D02*
X157545633Y-99980467D01*
X157706500Y-100060900D01*
X157867367Y-100221767D01*
X157947800Y-100543500D01*
X157947800Y-101106533D01*
X157867367Y-101428267D01*
X157706500Y-101589133D01*
X157545633Y-101669567D01*
X157223900Y-101669567D01*
X157063033Y-101589133D01*
X156902167Y-101428267D01*
X156821733Y-101106533D01*
X156821733Y-100543500D01*
X156902167Y-100221767D01*
X157063033Y-100060900D01*
X157223900Y-99980467D01*
X158671700Y-99980467D02*
X158671700Y-101347833D01*
X158752133Y-101508700D01*
X158832566Y-101589133D01*
X158993433Y-101669567D01*
X159315166Y-101669567D01*
X159476033Y-101589133D01*
X159556466Y-101508700D01*
X159636900Y-101347833D01*
X159636900Y-99980467D01*
X160199933Y-99980467D02*
X161165133Y-99980467D01*
X160682533Y-101669567D02*
X160682533Y-99980467D01*
D13*
X138345286Y-103646763D02*
X138345286Y-102054183D01*
X138876146Y-103191740D01*
X139407006Y-102054183D01*
X139407006Y-103646763D01*
X140089540Y-103191740D02*
X140847911Y-103191740D01*
X139937865Y-103646763D02*
X140468725Y-102054183D01*
X140999585Y-103646763D01*
X141378771Y-102054183D02*
X142440491Y-103646763D01*
X142440491Y-102054183D02*
X141378771Y-103646763D01*
D12*
X144419238Y-98793500D02*
X144304333Y-98736048D01*
X144131976Y-98736048D01*
X143959619Y-98793500D01*
X143844714Y-98908405D01*
X143787262Y-99023310D01*
X143729810Y-99253119D01*
X143729810Y-99425476D01*
X143787262Y-99655286D01*
X143844714Y-99770190D01*
X143959619Y-99885095D01*
X144131976Y-99942548D01*
X144246881Y-99942548D01*
X144419238Y-99885095D01*
X144476690Y-99827643D01*
X144476690Y-99425476D01*
X144246881Y-99425476D01*
X144993762Y-99138214D02*
X144993762Y-99942548D01*
X144993762Y-99253119D02*
X145051214Y-99195667D01*
X145166119Y-99138214D01*
X145338476Y-99138214D01*
X145453381Y-99195667D01*
X145510833Y-99310571D01*
X145510833Y-99942548D01*
X146602428Y-99942548D02*
X146602428Y-98736048D01*
X146602428Y-99885095D02*
X146487524Y-99942548D01*
X146257714Y-99942548D01*
X146142809Y-99885095D01*
X146085357Y-99827643D01*
X146027905Y-99712738D01*
X146027905Y-99368024D01*
X146085357Y-99253119D01*
X146142809Y-99195667D01*
X146257714Y-99138214D01*
X146487524Y-99138214D01*
X146602428Y-99195667D01*
D15*
X152933848Y-102169074D02*
X153522160Y-102169074D01*
X153228004Y-102463230D02*
X153228004Y-101874918D01*
X152933848Y-100669074D02*
X153522160Y-100669074D01*
D12*
X148520191Y-98736048D02*
X147945667Y-98736048D01*
X147888215Y-99310571D01*
X147945667Y-99253119D01*
X148060572Y-99195667D01*
X148347834Y-99195667D01*
X148462738Y-99253119D01*
X148520191Y-99310571D01*
X148577643Y-99425476D01*
X148577643Y-99712738D01*
X148520191Y-99827643D01*
X148462738Y-99885095D01*
X148347834Y-99942548D01*
X148060572Y-99942548D01*
X147945667Y-99885095D01*
X147888215Y-99827643D01*
X148922358Y-98736048D02*
X149324524Y-99942548D01*
X149726691Y-98736048D01*
X151229810Y-99885095D02*
X151402167Y-99942548D01*
X151689429Y-99942548D01*
X151804333Y-99885095D01*
X151861786Y-99827643D01*
X151919238Y-99712738D01*
X151919238Y-99597833D01*
X151861786Y-99482929D01*
X151804333Y-99425476D01*
X151689429Y-99368024D01*
X151459619Y-99310571D01*
X151344714Y-99253119D01*
X151287262Y-99195667D01*
X151229810Y-99080762D01*
X151229810Y-98965857D01*
X151287262Y-98850952D01*
X151344714Y-98793500D01*
X151459619Y-98736048D01*
X151746881Y-98736048D01*
X151919238Y-98793500D01*
X152436310Y-99942548D02*
X152436310Y-99138214D01*
X152436310Y-98736048D02*
X152378858Y-98793500D01*
X152436310Y-98850952D01*
X152493762Y-98793500D01*
X152436310Y-98736048D01*
X152436310Y-98850952D01*
X153527905Y-99138214D02*
X153527905Y-100114905D01*
X153470453Y-100229810D01*
X153413001Y-100287262D01*
X153298096Y-100344714D01*
X153125739Y-100344714D01*
X153010834Y-100287262D01*
X153527905Y-99885095D02*
X153413001Y-99942548D01*
X153183191Y-99942548D01*
X153068286Y-99885095D01*
X153010834Y-99827643D01*
X152953382Y-99712738D01*
X152953382Y-99368024D01*
X153010834Y-99253119D01*
X153068286Y-99195667D01*
X153183191Y-99138214D01*
X153413001Y-99138214D01*
X153527905Y-99195667D01*
X154102429Y-99138214D02*
X154102429Y-99942548D01*
X154102429Y-99253119D02*
X154159881Y-99195667D01*
X154274786Y-99138214D01*
X154447143Y-99138214D01*
X154562048Y-99195667D01*
X154619500Y-99310571D01*
X154619500Y-99942548D01*
X155711095Y-99942548D02*
X155711095Y-99310571D01*
X155653643Y-99195667D01*
X155538738Y-99138214D01*
X155308929Y-99138214D01*
X155194024Y-99195667D01*
X155711095Y-99885095D02*
X155596191Y-99942548D01*
X155308929Y-99942548D01*
X155194024Y-99885095D01*
X155136572Y-99770190D01*
X155136572Y-99655286D01*
X155194024Y-99540381D01*
X155308929Y-99482929D01*
X155596191Y-99482929D01*
X155711095Y-99425476D01*
X156457976Y-99942548D02*
X156343071Y-99885095D01*
X156285619Y-99770190D01*
X156285619Y-98736048D01*
X142276910Y-116263695D02*
X142449267Y-116321148D01*
X142736529Y-116321148D01*
X142851433Y-116263695D01*
X142908886Y-116206243D01*
X142966338Y-116091338D01*
X142966338Y-115976433D01*
X142908886Y-115861529D01*
X142851433Y-115804076D01*
X142736529Y-115746624D01*
X142506719Y-115689171D01*
X142391814Y-115631719D01*
X142334362Y-115574267D01*
X142276910Y-115459362D01*
X142276910Y-115344457D01*
X142334362Y-115229552D01*
X142391814Y-115172100D01*
X142506719Y-115114648D01*
X142793981Y-115114648D01*
X142966338Y-115172100D01*
X143483410Y-116321148D02*
X143483410Y-115516814D01*
X143483410Y-115631719D02*
X143540862Y-115574267D01*
X143655767Y-115516814D01*
X143828124Y-115516814D01*
X143943029Y-115574267D01*
X144000481Y-115689171D01*
X144000481Y-116321148D01*
X144000481Y-115689171D02*
X144057934Y-115574267D01*
X144172838Y-115516814D01*
X144345196Y-115516814D01*
X144460100Y-115574267D01*
X144517553Y-115689171D01*
X144517553Y-116321148D01*
X145609148Y-116321148D02*
X145609148Y-115689171D01*
X145551696Y-115574267D01*
X145436791Y-115516814D01*
X145206982Y-115516814D01*
X145092077Y-115574267D01*
X145609148Y-116263695D02*
X145494244Y-116321148D01*
X145206982Y-116321148D01*
X145092077Y-116263695D01*
X145034625Y-116148790D01*
X145034625Y-116033886D01*
X145092077Y-115918981D01*
X145206982Y-115861529D01*
X145494244Y-115861529D01*
X145609148Y-115804076D01*
X146356029Y-116321148D02*
X146241124Y-116263695D01*
X146183672Y-116148790D01*
X146183672Y-115114648D01*
X146988005Y-116321148D02*
X146873100Y-116263695D01*
X146815648Y-116148790D01*
X146815648Y-115114648D01*
X148366862Y-116321148D02*
X148366862Y-115114648D01*
X148769029Y-115976433D01*
X149171195Y-115114648D01*
X149171195Y-116321148D01*
X149975528Y-115114648D02*
X150205338Y-115114648D01*
X150320243Y-115172100D01*
X150435147Y-115287005D01*
X150492600Y-115516814D01*
X150492600Y-115918981D01*
X150435147Y-116148790D01*
X150320243Y-116263695D01*
X150205338Y-116321148D01*
X149975528Y-116321148D01*
X149860624Y-116263695D01*
X149745719Y-116148790D01*
X149688267Y-115918981D01*
X149688267Y-115516814D01*
X149745719Y-115287005D01*
X149860624Y-115172100D01*
X149975528Y-115114648D01*
X150952219Y-116263695D02*
X151124576Y-116321148D01*
X151411838Y-116321148D01*
X151526742Y-116263695D01*
X151584195Y-116206243D01*
X151641647Y-116091338D01*
X151641647Y-115976433D01*
X151584195Y-115861529D01*
X151526742Y-115804076D01*
X151411838Y-115746624D01*
X151182028Y-115689171D01*
X151067123Y-115631719D01*
X151009671Y-115574267D01*
X150952219Y-115459362D01*
X150952219Y-115344457D01*
X151009671Y-115229552D01*
X151067123Y-115172100D01*
X151182028Y-115114648D01*
X151469290Y-115114648D01*
X151641647Y-115172100D01*
X152560886Y-115689171D02*
X152158719Y-115689171D01*
X152158719Y-116321148D02*
X152158719Y-115114648D01*
X152733243Y-115114648D01*
X153192862Y-115689171D02*
X153595029Y-115689171D01*
X153767386Y-116321148D02*
X153192862Y-116321148D01*
X153192862Y-115114648D01*
X153767386Y-115114648D01*
X154112100Y-115114648D02*
X154801528Y-115114648D01*
X154456814Y-116321148D02*
X154456814Y-115114648D01*
D16*
X140960948Y-117556676D02*
X141098833Y-117602638D01*
X141328643Y-117602638D01*
X141420567Y-117556676D01*
X141466529Y-117510714D01*
X141512490Y-117418790D01*
X141512490Y-117326867D01*
X141466529Y-117234943D01*
X141420567Y-117188981D01*
X141328643Y-117143019D01*
X141144795Y-117097057D01*
X141052871Y-117051095D01*
X141006910Y-117005133D01*
X140960948Y-116913210D01*
X140960948Y-116821286D01*
X141006910Y-116729362D01*
X141052871Y-116683400D01*
X141144795Y-116637438D01*
X141374605Y-116637438D01*
X141512490Y-116683400D01*
X141926148Y-117602638D02*
X141926148Y-116959171D01*
X141926148Y-117051095D02*
X141972109Y-117005133D01*
X142064033Y-116959171D01*
X142201919Y-116959171D01*
X142293843Y-117005133D01*
X142339805Y-117097057D01*
X142339805Y-117602638D01*
X142339805Y-117097057D02*
X142385767Y-117005133D01*
X142477690Y-116959171D01*
X142615576Y-116959171D01*
X142707500Y-117005133D01*
X142753462Y-117097057D01*
X142753462Y-117602638D01*
X143350966Y-117602638D02*
X143259042Y-117556676D01*
X143213081Y-117510714D01*
X143167119Y-117418790D01*
X143167119Y-117143019D01*
X143213081Y-117051095D01*
X143259042Y-117005133D01*
X143350966Y-116959171D01*
X143488852Y-116959171D01*
X143580776Y-117005133D01*
X143626738Y-117051095D01*
X143672700Y-117143019D01*
X143672700Y-117418790D01*
X143626738Y-117510714D01*
X143580776Y-117556676D01*
X143488852Y-117602638D01*
X143350966Y-117602638D01*
X144224242Y-117602638D02*
X144132318Y-117556676D01*
X144086357Y-117510714D01*
X144040395Y-117418790D01*
X144040395Y-117143019D01*
X144086357Y-117051095D01*
X144132318Y-117005133D01*
X144224242Y-116959171D01*
X144362128Y-116959171D01*
X144454052Y-117005133D01*
X144500014Y-117051095D01*
X144545976Y-117143019D01*
X144545976Y-117418790D01*
X144500014Y-117510714D01*
X144454052Y-117556676D01*
X144362128Y-117602638D01*
X144224242Y-117602638D01*
X144821747Y-116959171D02*
X145189442Y-116959171D01*
X144959633Y-116637438D02*
X144959633Y-117464752D01*
X145005594Y-117556676D01*
X145097518Y-117602638D01*
X145189442Y-117602638D01*
X145511176Y-117602638D02*
X145511176Y-116637438D01*
X145924833Y-117602638D02*
X145924833Y-117097057D01*
X145878871Y-117005133D01*
X145786947Y-116959171D01*
X145649061Y-116959171D01*
X145557137Y-117005133D01*
X145511176Y-117051095D01*
X146384452Y-117602638D02*
X146384452Y-116959171D01*
X146384452Y-116637438D02*
X146338490Y-116683400D01*
X146384452Y-116729362D01*
X146430413Y-116683400D01*
X146384452Y-116637438D01*
X146384452Y-116729362D01*
X147211766Y-117556676D02*
X147119842Y-117602638D01*
X146935994Y-117602638D01*
X146844071Y-117556676D01*
X146798109Y-117464752D01*
X146798109Y-117097057D01*
X146844071Y-117005133D01*
X146935994Y-116959171D01*
X147119842Y-116959171D01*
X147211766Y-117005133D01*
X147257728Y-117097057D01*
X147257728Y-117188981D01*
X146798109Y-117280905D01*
X148406775Y-117097057D02*
X148728508Y-117097057D01*
X148866394Y-117602638D02*
X148406775Y-117602638D01*
X148406775Y-116637438D01*
X148866394Y-116637438D01*
X149188127Y-117602638D02*
X149693708Y-116959171D01*
X149188127Y-116959171D02*
X149693708Y-117602638D01*
X150061403Y-116959171D02*
X150061403Y-117924371D01*
X150061403Y-117005133D02*
X150153326Y-116959171D01*
X150337174Y-116959171D01*
X150429098Y-117005133D01*
X150475060Y-117051095D01*
X150521022Y-117143019D01*
X150521022Y-117418790D01*
X150475060Y-117510714D01*
X150429098Y-117556676D01*
X150337174Y-117602638D01*
X150153326Y-117602638D01*
X150061403Y-117556676D01*
X151348336Y-117602638D02*
X151348336Y-117097057D01*
X151302374Y-117005133D01*
X151210450Y-116959171D01*
X151026602Y-116959171D01*
X150934679Y-117005133D01*
X151348336Y-117556676D02*
X151256412Y-117602638D01*
X151026602Y-117602638D01*
X150934679Y-117556676D01*
X150888717Y-117464752D01*
X150888717Y-117372829D01*
X150934679Y-117280905D01*
X151026602Y-117234943D01*
X151256412Y-117234943D01*
X151348336Y-117188981D01*
X151807955Y-116959171D02*
X151807955Y-117602638D01*
X151807955Y-117051095D02*
X151853916Y-117005133D01*
X151945840Y-116959171D01*
X152083726Y-116959171D01*
X152175650Y-117005133D01*
X152221612Y-117097057D01*
X152221612Y-117602638D01*
X152635269Y-117556676D02*
X152727192Y-117602638D01*
X152911040Y-117602638D01*
X153002964Y-117556676D01*
X153048926Y-117464752D01*
X153048926Y-117418790D01*
X153002964Y-117326867D01*
X152911040Y-117280905D01*
X152773154Y-117280905D01*
X152681231Y-117234943D01*
X152635269Y-117143019D01*
X152635269Y-117097057D01*
X152681231Y-117005133D01*
X152773154Y-116959171D01*
X152911040Y-116959171D01*
X153002964Y-117005133D01*
X153462583Y-117602638D02*
X153462583Y-116959171D01*
X153462583Y-116637438D02*
X153416621Y-116683400D01*
X153462583Y-116729362D01*
X153508544Y-116683400D01*
X153462583Y-116637438D01*
X153462583Y-116729362D01*
X154060087Y-117602638D02*
X153968163Y-117556676D01*
X153922202Y-117510714D01*
X153876240Y-117418790D01*
X153876240Y-117143019D01*
X153922202Y-117051095D01*
X153968163Y-117005133D01*
X154060087Y-116959171D01*
X154197973Y-116959171D01*
X154289897Y-117005133D01*
X154335859Y-117051095D01*
X154381821Y-117143019D01*
X154381821Y-117418790D01*
X154335859Y-117510714D01*
X154289897Y-117556676D01*
X154197973Y-117602638D01*
X154060087Y-117602638D01*
X154795478Y-116959171D02*
X154795478Y-117602638D01*
X154795478Y-117051095D02*
X154841439Y-117005133D01*
X154933363Y-116959171D01*
X155071249Y-116959171D01*
X155163173Y-117005133D01*
X155209135Y-117097057D01*
X155209135Y-117602638D01*
D12*
X154442548Y-96962738D02*
X153236048Y-96962738D01*
X153638214Y-96388214D02*
X154442548Y-96388214D01*
X153753119Y-96388214D02*
X153695667Y-96330762D01*
X153638214Y-96215857D01*
X153638214Y-96043500D01*
X153695667Y-95928595D01*
X153810571Y-95871143D01*
X154442548Y-95871143D01*
X153638214Y-95296619D02*
X154844714Y-95296619D01*
X153695667Y-95296619D02*
X153638214Y-95181714D01*
X153638214Y-94951905D01*
X153695667Y-94837000D01*
X153753119Y-94779548D01*
X153868024Y-94722095D01*
X154212738Y-94722095D01*
X154327643Y-94779548D01*
X154385095Y-94837000D01*
X154442548Y-94951905D01*
X154442548Y-95181714D01*
X154385095Y-95296619D01*
X153638214Y-93687953D02*
X154442548Y-93687953D01*
X153638214Y-94205024D02*
X154270190Y-94205024D01*
X154385095Y-94147572D01*
X154442548Y-94032667D01*
X154442548Y-93860310D01*
X154385095Y-93745405D01*
X154327643Y-93687953D01*
X153638214Y-93285786D02*
X153638214Y-92826167D01*
X153236048Y-93113429D02*
X154270190Y-93113429D01*
X154385095Y-93055977D01*
X154442548Y-92941072D01*
X154442548Y-92826167D01*
D13*
X140600611Y-100181183D02*
X141662331Y-100181183D01*
X140979797Y-101773763D01*
X142193192Y-101318740D02*
X142951563Y-101318740D01*
X142041517Y-101773763D02*
X142572377Y-100181183D01*
X143103237Y-101773763D01*
D11*
X142121143Y-105948786D02*
X144878857Y-105948786D01*
X143500000Y-107327643D02*
X143500000Y-104569929D01*
X142121143Y-109448786D02*
X144878857Y-109448786D01*
D17*
X158250000Y-103000000D02*
X158000000Y-103000000D01*
X158750000Y-103000000D02*
X159000000Y-103000000D01*
X158750000Y-103000000D02*
X158250000Y-103350000D01*
X158250000Y-103350000D02*
X158250000Y-102650000D01*
X158250000Y-102650000D02*
X158750000Y-103000000D01*
X158750000Y-103350000D02*
X158750000Y-102650000D01*
X159800000Y-102200000D02*
X157400000Y-102200000D01*
X159800000Y-103800000D02*
X157400000Y-103800000D01*
X152560000Y-97790000D02*
X144940000Y-97790000D01*
X152560000Y-97155000D02*
X152560000Y-98425000D01*
X144940000Y-93345000D02*
X144940000Y-92075000D01*
X144940000Y-92075000D02*
X152560000Y-92075000D01*
X152560000Y-92075000D02*
X152560000Y-93345000D01*
X152560000Y-98425000D02*
X144940000Y-98425000D01*
X144940000Y-98425000D02*
X144940000Y-97155000D01*
X151450000Y-100400000D02*
X151450000Y-102300000D01*
X152550000Y-100400000D02*
X152550000Y-102300000D01*
X152000000Y-101300000D02*
X152000000Y-101750000D01*
X152250000Y-101250000D02*
X151750000Y-101250000D01*
X152000000Y-101250000D02*
X152250000Y-101500000D01*
X152250000Y-101500000D02*
X151750000Y-101500000D01*
X151750000Y-101500000D02*
X152000000Y-101250000D01*
X147103000Y-107024000D02*
X147103000Y-103849000D01*
X147103000Y-103849000D02*
X145325000Y-103849000D01*
X145325000Y-103849000D02*
X145325000Y-107024000D01*
X151675000Y-107024000D02*
X151675000Y-103849000D01*
X151675000Y-103849000D02*
X149897000Y-103849000D01*
X149897000Y-103849000D02*
X149897000Y-107024000D01*
X145071000Y-113120000D02*
X145071000Y-107024000D01*
X145071000Y-107024000D02*
X151929000Y-107024000D01*
X151929000Y-107024000D02*
X151929000Y-114898000D01*
X151929000Y-115025000D02*
X145071000Y-115025000D01*
X145071000Y-114898000D02*
X145071000Y-113120000D01*
X148925000Y-101000000D02*
X148925000Y-102000000D01*
X147575000Y-102000000D02*
X147575000Y-101000000D01*
X145825000Y-102000000D02*
X145825000Y-101000000D01*
X147175000Y-101000000D02*
X147175000Y-102000000D01*
X150925000Y-101000000D02*
X150925000Y-102000000D01*
X149575000Y-102000000D02*
X149575000Y-101000000D01*
X134400000Y-107750000D02*
X134000000Y-107750000D01*
X135500000Y-104250000D02*
X135500000Y-111250000D01*
X134400000Y-104250000D02*
X134400000Y-111250000D01*
X141600000Y-104250000D02*
X134000000Y-104250000D01*
X134000000Y-111250000D02*
X141600000Y-111250000D01*
X141600000Y-111250000D02*
X141600000Y-104250000D01*
X162600000Y-107750000D02*
X163000000Y-107750000D01*
X161500000Y-111250000D02*
X161500000Y-104250000D01*
X162600000Y-111250000D02*
X162600000Y-104250000D01*
X155400000Y-111250000D02*
X163000000Y-111250000D01*
X163000000Y-104250000D02*
X155400000Y-104250000D01*
X155400000Y-104250000D02*
X155400000Y-111250000D01*
X141916667Y-111452381D02*
X141916667Y-112166667D01*
X141869047Y-112309524D01*
X141773809Y-112404762D01*
X141630952Y-112452381D01*
X141535714Y-112452381D01*
X142392857Y-112452381D02*
X142392857Y-111452381D01*
X142773810Y-111452381D01*
X142869048Y-111500000D01*
X142916667Y-111547619D01*
X142964286Y-111642857D01*
X142964286Y-111785714D01*
X142916667Y-111880952D01*
X142869048Y-111928571D01*
X142773810Y-111976190D01*
X142392857Y-111976190D01*
X143345238Y-111547619D02*
X143392857Y-111500000D01*
X143488095Y-111452381D01*
X143726191Y-111452381D01*
X143821429Y-111500000D01*
X143869048Y-111547619D01*
X143916667Y-111642857D01*
X143916667Y-111738095D01*
X143869048Y-111880952D01*
X143297619Y-112452381D01*
X143916667Y-112452381D01*
X153166667Y-111202381D02*
X153166667Y-111916667D01*
X153119047Y-112059524D01*
X153023809Y-112154762D01*
X152880952Y-112202381D01*
X152785714Y-112202381D01*
X153642857Y-112202381D02*
X153642857Y-111202381D01*
X154023810Y-111202381D01*
X154119048Y-111250000D01*
X154166667Y-111297619D01*
X154214286Y-111392857D01*
X154214286Y-111535714D01*
X154166667Y-111630952D01*
X154119048Y-111678571D01*
X154023810Y-111726190D01*
X153642857Y-111726190D01*
X154547619Y-111202381D02*
X155166667Y-111202381D01*
X154833333Y-111583333D01*
X154976191Y-111583333D01*
X155071429Y-111630952D01*
X155119048Y-111678571D01*
X155166667Y-111773810D01*
X155166667Y-112011905D01*
X155119048Y-112107143D01*
X155071429Y-112154762D01*
X154976191Y-112202381D01*
X154690476Y-112202381D01*
X154595238Y-112154762D01*
X154547619Y-112107143D01*
M02*
