G04 #@! TF.FileFunction,Copper,L2,Bot,Signal*
%FSLAX46Y46*%
G04 Gerber Fmt 4.6, Leading zero omitted, Abs format (unit mm)*
G04 Created by KiCad (PCBNEW 4.0.2-stable) date 04/06/2016 14:34:18*
%MOMM*%
G01*
G04 APERTURE LIST*
%ADD10C,0.100000*%
%ADD11O,1.800860X3.500120*%
%ADD12C,6.000000*%
%ADD13C,0.860000*%
%ADD14C,2.400000*%
%ADD15R,2.400000X2.400000*%
%ADD16C,3.810000*%
%ADD17C,0.254000*%
G04 APERTURE END LIST*
D10*
D11*
X146210000Y-95250000D03*
X148750000Y-95250000D03*
X151290000Y-95250000D03*
D12*
X138500000Y-115000000D03*
X158500000Y-115000000D03*
X158500000Y-95000000D03*
X138500000Y-95000000D03*
D13*
X143750000Y-102250000D03*
X144500000Y-103250000D03*
X143750000Y-101000000D03*
X145000000Y-102250000D03*
X148250000Y-103250000D03*
X147000000Y-103250000D03*
X145750000Y-103250000D03*
X145000000Y-101000000D03*
X143250000Y-103250000D03*
D14*
X138500000Y-109500000D03*
D15*
X138500000Y-106000000D03*
D14*
X158500000Y-106000000D03*
D15*
X158500000Y-109500000D03*
D16*
X138501100Y-106003600D02*
X158501100Y-106003600D01*
D17*
G36*
X156917157Y-110700000D02*
X156921995Y-110760673D01*
X156953864Y-110863580D01*
X157013140Y-110953535D01*
X157095130Y-111023415D01*
X157193342Y-111067686D01*
X157300000Y-111082843D01*
X159700000Y-111082843D01*
X159760673Y-111078005D01*
X159863580Y-111046136D01*
X159953535Y-110986860D01*
X160023415Y-110904870D01*
X160067686Y-110806658D01*
X160082843Y-110700000D01*
X160082843Y-108384600D01*
X161045100Y-108384600D01*
X161045100Y-112764491D01*
X160665558Y-112382290D01*
X160115866Y-112011518D01*
X159504626Y-111754576D01*
X158855121Y-111621252D01*
X158192089Y-111616623D01*
X157540785Y-111740866D01*
X156926017Y-111989248D01*
X156371202Y-112352309D01*
X155897472Y-112816220D01*
X155522872Y-113363310D01*
X155261669Y-113972741D01*
X155123814Y-114621300D01*
X155114556Y-115284284D01*
X155234249Y-115936439D01*
X155478333Y-116552926D01*
X155837512Y-117110262D01*
X156259844Y-117547600D01*
X140727669Y-117547600D01*
X141071784Y-117219904D01*
X141453986Y-116678098D01*
X141723672Y-116072373D01*
X141870570Y-115425802D01*
X141881145Y-114668476D01*
X141752358Y-114018055D01*
X141499690Y-113405037D01*
X141132765Y-112852770D01*
X140665558Y-112382290D01*
X140115866Y-112011518D01*
X139504626Y-111754576D01*
X138855121Y-111621252D01*
X138192089Y-111616623D01*
X137540785Y-111740866D01*
X136926017Y-111989248D01*
X136371202Y-112352309D01*
X135957100Y-112757828D01*
X135957100Y-108384600D01*
X156917157Y-108384600D01*
X156917157Y-110700000D01*
X156917157Y-110700000D01*
G37*
X156917157Y-110700000D02*
X156921995Y-110760673D01*
X156953864Y-110863580D01*
X157013140Y-110953535D01*
X157095130Y-111023415D01*
X157193342Y-111067686D01*
X157300000Y-111082843D01*
X159700000Y-111082843D01*
X159760673Y-111078005D01*
X159863580Y-111046136D01*
X159953535Y-110986860D01*
X160023415Y-110904870D01*
X160067686Y-110806658D01*
X160082843Y-110700000D01*
X160082843Y-108384600D01*
X161045100Y-108384600D01*
X161045100Y-112764491D01*
X160665558Y-112382290D01*
X160115866Y-112011518D01*
X159504626Y-111754576D01*
X158855121Y-111621252D01*
X158192089Y-111616623D01*
X157540785Y-111740866D01*
X156926017Y-111989248D01*
X156371202Y-112352309D01*
X155897472Y-112816220D01*
X155522872Y-113363310D01*
X155261669Y-113972741D01*
X155123814Y-114621300D01*
X155114556Y-115284284D01*
X155234249Y-115936439D01*
X155478333Y-116552926D01*
X155837512Y-117110262D01*
X156259844Y-117547600D01*
X140727669Y-117547600D01*
X141071784Y-117219904D01*
X141453986Y-116678098D01*
X141723672Y-116072373D01*
X141870570Y-115425802D01*
X141881145Y-114668476D01*
X141752358Y-114018055D01*
X141499690Y-113405037D01*
X141132765Y-112852770D01*
X140665558Y-112382290D01*
X140115866Y-112011518D01*
X139504626Y-111754576D01*
X138855121Y-111621252D01*
X138192089Y-111616623D01*
X137540785Y-111740866D01*
X136926017Y-111989248D01*
X136371202Y-112352309D01*
X135957100Y-112757828D01*
X135957100Y-108384600D01*
X156917157Y-108384600D01*
X156917157Y-110700000D01*
G36*
X155897472Y-92816220D02*
X155522872Y-93363310D01*
X155261669Y-93972741D01*
X155123814Y-94621300D01*
X155114556Y-95284284D01*
X155234249Y-95936439D01*
X155478333Y-96552926D01*
X155837512Y-97110262D01*
X156298104Y-97587219D01*
X156842566Y-97965630D01*
X157450158Y-98231080D01*
X158097739Y-98373460D01*
X158760642Y-98387346D01*
X159413617Y-98272209D01*
X160031793Y-98032434D01*
X160591623Y-97677155D01*
X161045100Y-97245315D01*
X161045100Y-103622600D01*
X135957100Y-103622600D01*
X135957100Y-97234099D01*
X136298104Y-97587219D01*
X136842566Y-97965630D01*
X137450158Y-98231080D01*
X138097739Y-98373460D01*
X138760642Y-98387346D01*
X139413617Y-98272209D01*
X140031793Y-98032434D01*
X140591623Y-97677155D01*
X141071784Y-97219904D01*
X141453986Y-96678098D01*
X141723672Y-96072373D01*
X141870570Y-95425802D01*
X141881145Y-94668476D01*
X141826017Y-94390059D01*
X147468570Y-94390059D01*
X147468570Y-96109941D01*
X147492975Y-96358839D01*
X147565259Y-96598256D01*
X147682670Y-96819074D01*
X147840735Y-97012880D01*
X148033433Y-97172295D01*
X148253426Y-97291244D01*
X148492333Y-97365198D01*
X148741054Y-97391340D01*
X148990116Y-97368673D01*
X149230032Y-97298062D01*
X149451664Y-97182196D01*
X149646570Y-97025488D01*
X149807325Y-96833907D01*
X149927808Y-96614750D01*
X150003428Y-96376365D01*
X150020110Y-96227637D01*
X150032975Y-96358839D01*
X150105259Y-96598256D01*
X150222670Y-96819074D01*
X150380735Y-97012880D01*
X150573433Y-97172295D01*
X150793426Y-97291244D01*
X151032333Y-97365198D01*
X151281054Y-97391340D01*
X151530116Y-97368673D01*
X151770032Y-97298062D01*
X151991664Y-97182196D01*
X152186570Y-97025488D01*
X152347325Y-96833907D01*
X152467808Y-96614750D01*
X152543428Y-96376365D01*
X152571305Y-96127833D01*
X152571430Y-96109941D01*
X152571430Y-94390059D01*
X152547025Y-94141161D01*
X152474741Y-93901744D01*
X152357330Y-93680926D01*
X152199265Y-93487120D01*
X152006567Y-93327705D01*
X151786574Y-93208756D01*
X151547667Y-93134802D01*
X151298946Y-93108660D01*
X151049884Y-93131327D01*
X150809968Y-93201938D01*
X150588336Y-93317804D01*
X150393430Y-93474512D01*
X150232675Y-93666093D01*
X150112192Y-93885250D01*
X150036572Y-94123635D01*
X150019890Y-94272363D01*
X150007025Y-94141161D01*
X149934741Y-93901744D01*
X149817330Y-93680926D01*
X149659265Y-93487120D01*
X149466567Y-93327705D01*
X149246574Y-93208756D01*
X149007667Y-93134802D01*
X148758946Y-93108660D01*
X148509884Y-93131327D01*
X148269968Y-93201938D01*
X148048336Y-93317804D01*
X147853430Y-93474512D01*
X147692675Y-93666093D01*
X147572192Y-93885250D01*
X147496572Y-94123635D01*
X147468695Y-94372167D01*
X147468570Y-94390059D01*
X141826017Y-94390059D01*
X141752358Y-94018055D01*
X141499690Y-93405037D01*
X141132765Y-92852770D01*
X140742330Y-92459600D01*
X156261640Y-92459600D01*
X155897472Y-92816220D01*
X155897472Y-92816220D01*
G37*
X155897472Y-92816220D02*
X155522872Y-93363310D01*
X155261669Y-93972741D01*
X155123814Y-94621300D01*
X155114556Y-95284284D01*
X155234249Y-95936439D01*
X155478333Y-96552926D01*
X155837512Y-97110262D01*
X156298104Y-97587219D01*
X156842566Y-97965630D01*
X157450158Y-98231080D01*
X158097739Y-98373460D01*
X158760642Y-98387346D01*
X159413617Y-98272209D01*
X160031793Y-98032434D01*
X160591623Y-97677155D01*
X161045100Y-97245315D01*
X161045100Y-103622600D01*
X135957100Y-103622600D01*
X135957100Y-97234099D01*
X136298104Y-97587219D01*
X136842566Y-97965630D01*
X137450158Y-98231080D01*
X138097739Y-98373460D01*
X138760642Y-98387346D01*
X139413617Y-98272209D01*
X140031793Y-98032434D01*
X140591623Y-97677155D01*
X141071784Y-97219904D01*
X141453986Y-96678098D01*
X141723672Y-96072373D01*
X141870570Y-95425802D01*
X141881145Y-94668476D01*
X141826017Y-94390059D01*
X147468570Y-94390059D01*
X147468570Y-96109941D01*
X147492975Y-96358839D01*
X147565259Y-96598256D01*
X147682670Y-96819074D01*
X147840735Y-97012880D01*
X148033433Y-97172295D01*
X148253426Y-97291244D01*
X148492333Y-97365198D01*
X148741054Y-97391340D01*
X148990116Y-97368673D01*
X149230032Y-97298062D01*
X149451664Y-97182196D01*
X149646570Y-97025488D01*
X149807325Y-96833907D01*
X149927808Y-96614750D01*
X150003428Y-96376365D01*
X150020110Y-96227637D01*
X150032975Y-96358839D01*
X150105259Y-96598256D01*
X150222670Y-96819074D01*
X150380735Y-97012880D01*
X150573433Y-97172295D01*
X150793426Y-97291244D01*
X151032333Y-97365198D01*
X151281054Y-97391340D01*
X151530116Y-97368673D01*
X151770032Y-97298062D01*
X151991664Y-97182196D01*
X152186570Y-97025488D01*
X152347325Y-96833907D01*
X152467808Y-96614750D01*
X152543428Y-96376365D01*
X152571305Y-96127833D01*
X152571430Y-96109941D01*
X152571430Y-94390059D01*
X152547025Y-94141161D01*
X152474741Y-93901744D01*
X152357330Y-93680926D01*
X152199265Y-93487120D01*
X152006567Y-93327705D01*
X151786574Y-93208756D01*
X151547667Y-93134802D01*
X151298946Y-93108660D01*
X151049884Y-93131327D01*
X150809968Y-93201938D01*
X150588336Y-93317804D01*
X150393430Y-93474512D01*
X150232675Y-93666093D01*
X150112192Y-93885250D01*
X150036572Y-94123635D01*
X150019890Y-94272363D01*
X150007025Y-94141161D01*
X149934741Y-93901744D01*
X149817330Y-93680926D01*
X149659265Y-93487120D01*
X149466567Y-93327705D01*
X149246574Y-93208756D01*
X149007667Y-93134802D01*
X148758946Y-93108660D01*
X148509884Y-93131327D01*
X148269968Y-93201938D01*
X148048336Y-93317804D01*
X147853430Y-93474512D01*
X147692675Y-93666093D01*
X147572192Y-93885250D01*
X147496572Y-94123635D01*
X147468695Y-94372167D01*
X147468570Y-94390059D01*
X141826017Y-94390059D01*
X141752358Y-94018055D01*
X141499690Y-93405037D01*
X141132765Y-92852770D01*
X140742330Y-92459600D01*
X156261640Y-92459600D01*
X155897472Y-92816220D01*
G36*
X161045100Y-107876600D02*
X135957100Y-107876600D01*
X135957100Y-106132750D01*
X136869000Y-106132750D01*
X136869000Y-107242450D01*
X136885563Y-107325718D01*
X136918053Y-107404155D01*
X136965221Y-107474747D01*
X137025254Y-107534780D01*
X137095845Y-107581947D01*
X137174282Y-107614437D01*
X137257550Y-107631000D01*
X138367250Y-107631000D01*
X138475000Y-107523250D01*
X138475000Y-106025000D01*
X138525000Y-106025000D01*
X138525000Y-107523250D01*
X138632750Y-107631000D01*
X139742450Y-107631000D01*
X139825718Y-107614437D01*
X139904155Y-107581947D01*
X139974746Y-107534780D01*
X140034779Y-107474747D01*
X140081947Y-107404155D01*
X140114437Y-107325718D01*
X140131000Y-107242450D01*
X140131000Y-107100214D01*
X157435141Y-107100214D01*
X157557021Y-107340432D01*
X157836646Y-107498642D01*
X158141763Y-107599261D01*
X158460647Y-107638420D01*
X158781042Y-107614616D01*
X159090639Y-107528763D01*
X159377536Y-107384160D01*
X159442979Y-107340432D01*
X159564859Y-107100214D01*
X158500000Y-106035355D01*
X157435141Y-107100214D01*
X140131000Y-107100214D01*
X140131000Y-106132750D01*
X140023250Y-106025000D01*
X138525000Y-106025000D01*
X138475000Y-106025000D01*
X136976750Y-106025000D01*
X136869000Y-106132750D01*
X135957100Y-106132750D01*
X135957100Y-104757550D01*
X136869000Y-104757550D01*
X136869000Y-105867250D01*
X136976750Y-105975000D01*
X138475000Y-105975000D01*
X138475000Y-104476750D01*
X138525000Y-104476750D01*
X138525000Y-105975000D01*
X140023250Y-105975000D01*
X140037603Y-105960647D01*
X156861580Y-105960647D01*
X156885384Y-106281042D01*
X156971237Y-106590639D01*
X157115840Y-106877536D01*
X157159568Y-106942979D01*
X157399786Y-107064859D01*
X158464645Y-106000000D01*
X158535355Y-106000000D01*
X159600214Y-107064859D01*
X159840432Y-106942979D01*
X159998642Y-106663354D01*
X160099261Y-106358237D01*
X160138420Y-106039353D01*
X160114616Y-105718958D01*
X160028763Y-105409361D01*
X159884160Y-105122464D01*
X159840432Y-105057021D01*
X159600214Y-104935141D01*
X158535355Y-106000000D01*
X158464645Y-106000000D01*
X157399786Y-104935141D01*
X157159568Y-105057021D01*
X157001358Y-105336646D01*
X156900739Y-105641763D01*
X156861580Y-105960647D01*
X140037603Y-105960647D01*
X140131000Y-105867250D01*
X140131000Y-104899786D01*
X157435141Y-104899786D01*
X158500000Y-105964645D01*
X159564859Y-104899786D01*
X159442979Y-104659568D01*
X159163354Y-104501358D01*
X158858237Y-104400739D01*
X158539353Y-104361580D01*
X158218958Y-104385384D01*
X157909361Y-104471237D01*
X157622464Y-104615840D01*
X157557021Y-104659568D01*
X157435141Y-104899786D01*
X140131000Y-104899786D01*
X140131000Y-104757550D01*
X140114437Y-104674282D01*
X140081947Y-104595845D01*
X140034779Y-104525253D01*
X139974746Y-104465220D01*
X139904155Y-104418053D01*
X139825718Y-104385563D01*
X139742450Y-104369000D01*
X138632750Y-104369000D01*
X138525000Y-104476750D01*
X138475000Y-104476750D01*
X138367250Y-104369000D01*
X137257550Y-104369000D01*
X137174282Y-104385563D01*
X137095845Y-104418053D01*
X137025254Y-104465220D01*
X136965221Y-104525253D01*
X136918053Y-104595845D01*
X136885563Y-104674282D01*
X136869000Y-104757550D01*
X135957100Y-104757550D01*
X135957100Y-104130600D01*
X161045100Y-104130600D01*
X161045100Y-107876600D01*
X161045100Y-107876600D01*
G37*
X161045100Y-107876600D02*
X135957100Y-107876600D01*
X135957100Y-106132750D01*
X136869000Y-106132750D01*
X136869000Y-107242450D01*
X136885563Y-107325718D01*
X136918053Y-107404155D01*
X136965221Y-107474747D01*
X137025254Y-107534780D01*
X137095845Y-107581947D01*
X137174282Y-107614437D01*
X137257550Y-107631000D01*
X138367250Y-107631000D01*
X138475000Y-107523250D01*
X138475000Y-106025000D01*
X138525000Y-106025000D01*
X138525000Y-107523250D01*
X138632750Y-107631000D01*
X139742450Y-107631000D01*
X139825718Y-107614437D01*
X139904155Y-107581947D01*
X139974746Y-107534780D01*
X140034779Y-107474747D01*
X140081947Y-107404155D01*
X140114437Y-107325718D01*
X140131000Y-107242450D01*
X140131000Y-107100214D01*
X157435141Y-107100214D01*
X157557021Y-107340432D01*
X157836646Y-107498642D01*
X158141763Y-107599261D01*
X158460647Y-107638420D01*
X158781042Y-107614616D01*
X159090639Y-107528763D01*
X159377536Y-107384160D01*
X159442979Y-107340432D01*
X159564859Y-107100214D01*
X158500000Y-106035355D01*
X157435141Y-107100214D01*
X140131000Y-107100214D01*
X140131000Y-106132750D01*
X140023250Y-106025000D01*
X138525000Y-106025000D01*
X138475000Y-106025000D01*
X136976750Y-106025000D01*
X136869000Y-106132750D01*
X135957100Y-106132750D01*
X135957100Y-104757550D01*
X136869000Y-104757550D01*
X136869000Y-105867250D01*
X136976750Y-105975000D01*
X138475000Y-105975000D01*
X138475000Y-104476750D01*
X138525000Y-104476750D01*
X138525000Y-105975000D01*
X140023250Y-105975000D01*
X140037603Y-105960647D01*
X156861580Y-105960647D01*
X156885384Y-106281042D01*
X156971237Y-106590639D01*
X157115840Y-106877536D01*
X157159568Y-106942979D01*
X157399786Y-107064859D01*
X158464645Y-106000000D01*
X158535355Y-106000000D01*
X159600214Y-107064859D01*
X159840432Y-106942979D01*
X159998642Y-106663354D01*
X160099261Y-106358237D01*
X160138420Y-106039353D01*
X160114616Y-105718958D01*
X160028763Y-105409361D01*
X159884160Y-105122464D01*
X159840432Y-105057021D01*
X159600214Y-104935141D01*
X158535355Y-106000000D01*
X158464645Y-106000000D01*
X157399786Y-104935141D01*
X157159568Y-105057021D01*
X157001358Y-105336646D01*
X156900739Y-105641763D01*
X156861580Y-105960647D01*
X140037603Y-105960647D01*
X140131000Y-105867250D01*
X140131000Y-104899786D01*
X157435141Y-104899786D01*
X158500000Y-105964645D01*
X159564859Y-104899786D01*
X159442979Y-104659568D01*
X159163354Y-104501358D01*
X158858237Y-104400739D01*
X158539353Y-104361580D01*
X158218958Y-104385384D01*
X157909361Y-104471237D01*
X157622464Y-104615840D01*
X157557021Y-104659568D01*
X157435141Y-104899786D01*
X140131000Y-104899786D01*
X140131000Y-104757550D01*
X140114437Y-104674282D01*
X140081947Y-104595845D01*
X140034779Y-104525253D01*
X139974746Y-104465220D01*
X139904155Y-104418053D01*
X139825718Y-104385563D01*
X139742450Y-104369000D01*
X138632750Y-104369000D01*
X138525000Y-104476750D01*
X138475000Y-104476750D01*
X138367250Y-104369000D01*
X137257550Y-104369000D01*
X137174282Y-104385563D01*
X137095845Y-104418053D01*
X137025254Y-104465220D01*
X136965221Y-104525253D01*
X136918053Y-104595845D01*
X136885563Y-104674282D01*
X136869000Y-104757550D01*
X135957100Y-104757550D01*
X135957100Y-104130600D01*
X161045100Y-104130600D01*
X161045100Y-107876600D01*
M02*
