G04 #@! TF.FileFunction,Legend,Bot*
%FSLAX46Y46*%
G04 Gerber Fmt 4.6, Leading zero omitted, Abs format (unit mm)*
G04 Created by KiCad (PCBNEW 4.0.2-stable) date 04/06/2016 14:34:18*
%MOMM*%
G01*
G04 APERTURE LIST*
%ADD10C,0.100000*%
%ADD11C,0.081280*%
G04 APERTURE END LIST*
D10*
D11*
X155903290Y-105410638D02*
X155903290Y-104445438D01*
X155673481Y-104445438D01*
X155535595Y-104491400D01*
X155443671Y-104583324D01*
X155397710Y-104675248D01*
X155351748Y-104859095D01*
X155351748Y-104996981D01*
X155397710Y-105180829D01*
X155443671Y-105272752D01*
X155535595Y-105364676D01*
X155673481Y-105410638D01*
X155903290Y-105410638D01*
X154570395Y-105364676D02*
X154662319Y-105410638D01*
X154846167Y-105410638D01*
X154938090Y-105364676D01*
X154984052Y-105272752D01*
X154984052Y-104905057D01*
X154938090Y-104813133D01*
X154846167Y-104767171D01*
X154662319Y-104767171D01*
X154570395Y-104813133D01*
X154524433Y-104905057D01*
X154524433Y-104996981D01*
X154984052Y-105088905D01*
X154156738Y-105364676D02*
X154064815Y-105410638D01*
X153880967Y-105410638D01*
X153789043Y-105364676D01*
X153743081Y-105272752D01*
X153743081Y-105226790D01*
X153789043Y-105134867D01*
X153880967Y-105088905D01*
X154018853Y-105088905D01*
X154110776Y-105042943D01*
X154156738Y-104951019D01*
X154156738Y-104905057D01*
X154110776Y-104813133D01*
X154018853Y-104767171D01*
X153880967Y-104767171D01*
X153789043Y-104813133D01*
X153329424Y-105410638D02*
X153329424Y-104767171D01*
X153329424Y-104445438D02*
X153375386Y-104491400D01*
X153329424Y-104537362D01*
X153283463Y-104491400D01*
X153329424Y-104445438D01*
X153329424Y-104537362D01*
X152456148Y-104767171D02*
X152456148Y-105548524D01*
X152502110Y-105640448D01*
X152548072Y-105686410D01*
X152639996Y-105732371D01*
X152777882Y-105732371D01*
X152869805Y-105686410D01*
X152456148Y-105364676D02*
X152548072Y-105410638D01*
X152731920Y-105410638D01*
X152823844Y-105364676D01*
X152869805Y-105318714D01*
X152915767Y-105226790D01*
X152915767Y-104951019D01*
X152869805Y-104859095D01*
X152823844Y-104813133D01*
X152731920Y-104767171D01*
X152548072Y-104767171D01*
X152456148Y-104813133D01*
X151996529Y-104767171D02*
X151996529Y-105410638D01*
X151996529Y-104859095D02*
X151950568Y-104813133D01*
X151858644Y-104767171D01*
X151720758Y-104767171D01*
X151628834Y-104813133D01*
X151582872Y-104905057D01*
X151582872Y-105410638D01*
X150755558Y-105364676D02*
X150847482Y-105410638D01*
X151031330Y-105410638D01*
X151123253Y-105364676D01*
X151169215Y-105272752D01*
X151169215Y-104905057D01*
X151123253Y-104813133D01*
X151031330Y-104767171D01*
X150847482Y-104767171D01*
X150755558Y-104813133D01*
X150709596Y-104905057D01*
X150709596Y-104996981D01*
X151169215Y-105088905D01*
X149882282Y-105410638D02*
X149882282Y-104445438D01*
X149882282Y-105364676D02*
X149974206Y-105410638D01*
X150158054Y-105410638D01*
X150249978Y-105364676D01*
X150295939Y-105318714D01*
X150341901Y-105226790D01*
X150341901Y-104951019D01*
X150295939Y-104859095D01*
X150249978Y-104813133D01*
X150158054Y-104767171D01*
X149974206Y-104767171D01*
X149882282Y-104813133D01*
X148687273Y-105410638D02*
X148687273Y-104445438D01*
X148687273Y-104813133D02*
X148595350Y-104767171D01*
X148411502Y-104767171D01*
X148319578Y-104813133D01*
X148273616Y-104859095D01*
X148227654Y-104951019D01*
X148227654Y-105226790D01*
X148273616Y-105318714D01*
X148319578Y-105364676D01*
X148411502Y-105410638D01*
X148595350Y-105410638D01*
X148687273Y-105364676D01*
X147905921Y-104767171D02*
X147676112Y-105410638D01*
X147446302Y-104767171D02*
X147676112Y-105410638D01*
X147768036Y-105640448D01*
X147813997Y-105686410D01*
X147905921Y-105732371D01*
X155351748Y-106807638D02*
X155673481Y-106348019D01*
X155903290Y-106807638D02*
X155903290Y-105842438D01*
X155535595Y-105842438D01*
X155443671Y-105888400D01*
X155397710Y-105934362D01*
X155351748Y-106026286D01*
X155351748Y-106164171D01*
X155397710Y-106256095D01*
X155443671Y-106302057D01*
X155535595Y-106348019D01*
X155903290Y-106348019D01*
X154524433Y-106807638D02*
X154524433Y-106302057D01*
X154570395Y-106210133D01*
X154662319Y-106164171D01*
X154846167Y-106164171D01*
X154938090Y-106210133D01*
X154524433Y-106761676D02*
X154616357Y-106807638D01*
X154846167Y-106807638D01*
X154938090Y-106761676D01*
X154984052Y-106669752D01*
X154984052Y-106577829D01*
X154938090Y-106485905D01*
X154846167Y-106439943D01*
X154616357Y-106439943D01*
X154524433Y-106393981D01*
X154156738Y-106164171D02*
X153926929Y-106807638D01*
X153697119Y-106164171D02*
X153926929Y-106807638D01*
X154018853Y-107037448D01*
X154064814Y-107083410D01*
X154156738Y-107129371D01*
X152594034Y-106807638D02*
X152594034Y-105842438D01*
X152042492Y-106807638D02*
X152456149Y-106256095D01*
X152042492Y-105842438D02*
X152594034Y-106393981D01*
X151628834Y-106807638D02*
X151628834Y-105842438D01*
X151215177Y-106807638D02*
X151215177Y-106302057D01*
X151261139Y-106210133D01*
X151353063Y-106164171D01*
X151490949Y-106164171D01*
X151582873Y-106210133D01*
X151628834Y-106256095D01*
X150617673Y-106807638D02*
X150709597Y-106761676D01*
X150755558Y-106715714D01*
X150801520Y-106623790D01*
X150801520Y-106348019D01*
X150755558Y-106256095D01*
X150709597Y-106210133D01*
X150617673Y-106164171D01*
X150479787Y-106164171D01*
X150387863Y-106210133D01*
X150341901Y-106256095D01*
X150295939Y-106348019D01*
X150295939Y-106623790D01*
X150341901Y-106715714D01*
X150387863Y-106761676D01*
X150479787Y-106807638D01*
X150617673Y-106807638D01*
X149744397Y-106807638D02*
X149836321Y-106761676D01*
X149882282Y-106669752D01*
X149882282Y-105842438D01*
X149238816Y-106807638D02*
X149330740Y-106761676D01*
X149376701Y-106715714D01*
X149422663Y-106623790D01*
X149422663Y-106348019D01*
X149376701Y-106256095D01*
X149330740Y-106210133D01*
X149238816Y-106164171D01*
X149100930Y-106164171D01*
X149009006Y-106210133D01*
X148963044Y-106256095D01*
X148917082Y-106348019D01*
X148917082Y-106623790D01*
X148963044Y-106715714D01*
X149009006Y-106761676D01*
X149100930Y-106807638D01*
X149238816Y-106807638D01*
X148089768Y-106807638D02*
X148089768Y-105842438D01*
X148089768Y-106761676D02*
X148181692Y-106807638D01*
X148365540Y-106807638D01*
X148457464Y-106761676D01*
X148503425Y-106715714D01*
X148549387Y-106623790D01*
X148549387Y-106348019D01*
X148503425Y-106256095D01*
X148457464Y-106210133D01*
X148365540Y-106164171D01*
X148181692Y-106164171D01*
X148089768Y-106210133D01*
X147492264Y-106807638D02*
X147584188Y-106761676D01*
X147630149Y-106715714D01*
X147676111Y-106623790D01*
X147676111Y-106348019D01*
X147630149Y-106256095D01*
X147584188Y-106210133D01*
X147492264Y-106164171D01*
X147354378Y-106164171D01*
X147262454Y-106210133D01*
X147216492Y-106256095D01*
X147170530Y-106348019D01*
X147170530Y-106623790D01*
X147216492Y-106715714D01*
X147262454Y-106761676D01*
X147354378Y-106807638D01*
X147492264Y-106807638D01*
X146848797Y-106164171D02*
X146618988Y-106807638D01*
X146389178Y-106164171D01*
X146067445Y-106761676D02*
X145975522Y-106807638D01*
X145791674Y-106807638D01*
X145699750Y-106761676D01*
X145653788Y-106669752D01*
X145653788Y-106623790D01*
X145699750Y-106531867D01*
X145791674Y-106485905D01*
X145929560Y-106485905D01*
X146021483Y-106439943D01*
X146067445Y-106348019D01*
X146067445Y-106302057D01*
X146021483Y-106210133D01*
X145929560Y-106164171D01*
X145791674Y-106164171D01*
X145699750Y-106210133D01*
X145240131Y-106807638D02*
X145240131Y-105842438D01*
X145148208Y-106439943D02*
X144872436Y-106807638D01*
X144872436Y-106164171D02*
X145240131Y-106531867D01*
X144550703Y-106164171D02*
X144320894Y-106807638D01*
X144091084Y-106164171D02*
X144320894Y-106807638D01*
X144412818Y-107037448D01*
X144458779Y-107083410D01*
X144550703Y-107129371D01*
M02*
