G04 #@! TF.FileFunction,Copper,L1,Top,Signal*
%FSLAX46Y46*%
G04 Gerber Fmt 4.6, Leading zero omitted, Abs format (unit mm)*
G04 Created by KiCad (PCBNEW 4.0.2-stable) date 04/06/2016 14:34:18*
%MOMM*%
G01*
G04 APERTURE LIST*
%ADD10C,0.100000*%
%ADD11R,0.590000X0.450000*%
%ADD12O,1.800860X3.500120*%
%ADD13R,0.797560X0.797560*%
%ADD14C,6.000000*%
%ADD15R,1.651000X3.048000*%
%ADD16R,6.096000X6.096000*%
%ADD17R,0.900000X0.500000*%
%ADD18C,0.860000*%
%ADD19C,2.400000*%
%ADD20R,2.400000X2.400000*%
%ADD21C,0.600000*%
%ADD22C,0.250000*%
%ADD23C,0.609600*%
%ADD24C,3.810000*%
%ADD25C,0.254000*%
%ADD26C,0.400000*%
G04 APERTURE END LIST*
D10*
D11*
X159555000Y-103000000D03*
X157445000Y-103000000D03*
D12*
X146210000Y-95250000D03*
X148750000Y-95250000D03*
X151290000Y-95250000D03*
D13*
X152000000Y-102249300D03*
X152000000Y-100750700D03*
D14*
X138500000Y-115000000D03*
X158500000Y-115000000D03*
X158500000Y-95000000D03*
X138500000Y-95000000D03*
D15*
X150786000Y-105500000D03*
D16*
X148500000Y-111850000D03*
D15*
X146214000Y-105500000D03*
D17*
X148250000Y-102250000D03*
X148250000Y-100750000D03*
X146500000Y-100750000D03*
X146500000Y-102250000D03*
X150250000Y-102250000D03*
X150250000Y-100750000D03*
D18*
X143750000Y-102250000D03*
X144500000Y-103250000D03*
X143750000Y-101000000D03*
X145000000Y-102250000D03*
X148250000Y-103250000D03*
X147000000Y-103250000D03*
X145750000Y-103250000D03*
X145000000Y-101000000D03*
X143250000Y-103250000D03*
D19*
X138500000Y-109500000D03*
D20*
X138500000Y-106000000D03*
D19*
X158500000Y-106000000D03*
D20*
X158500000Y-109500000D03*
D21*
X146500000Y-102250000D02*
X144750000Y-102250000D01*
X144750000Y-102250000D02*
X144500000Y-102000000D01*
X144500000Y-102000000D02*
X144500000Y-96960000D01*
X144500000Y-96960000D02*
X146210000Y-95250000D01*
X138501100Y-109503600D02*
X140001100Y-109503600D01*
X140001100Y-109503600D02*
X144951100Y-104553600D01*
X146271100Y-104553600D02*
X144951100Y-104553600D01*
D22*
X151290000Y-95250000D02*
X151290000Y-96460000D01*
D21*
X151290000Y-96460000D02*
X148250000Y-99500000D01*
X148250000Y-99500000D02*
X148250000Y-100750000D01*
X148250000Y-100750000D02*
X146500000Y-100750000D01*
X159555000Y-103000000D02*
X159555000Y-102305000D01*
X156000700Y-102249300D02*
X152000000Y-102249300D01*
X156000700Y-102249300D02*
X156500000Y-101750000D01*
X156500000Y-101750000D02*
X159000000Y-101750000D01*
X159000000Y-101750000D02*
X159555000Y-102305000D01*
X159555000Y-103000000D02*
X159555000Y-104945000D01*
X159555000Y-104945000D02*
X158500000Y-106000000D01*
X150250000Y-102250000D02*
X150250000Y-102750000D01*
X155747500Y-103250000D02*
X156501100Y-104003600D01*
X150750000Y-103250000D02*
X155747500Y-103250000D01*
X150250000Y-102750000D02*
X150750000Y-103250000D01*
D23*
X157351100Y-103003600D02*
X157351100Y-103153600D01*
X157351100Y-103153600D02*
X156501100Y-104003600D01*
X156501100Y-104003600D02*
X156501100Y-109203600D01*
D24*
X156501100Y-109503600D02*
X155001100Y-109503600D01*
D25*
X154501100Y-108503600D02*
X156301100Y-109403600D01*
X156301100Y-109403600D02*
X156501100Y-109503600D01*
D23*
X156501100Y-109203600D02*
X156301100Y-109403600D01*
D24*
X155001100Y-109503600D02*
X152651100Y-111853600D01*
X148551100Y-111853600D02*
X152651100Y-111853600D01*
X158501100Y-109503600D02*
X156501100Y-109503600D01*
D25*
X158501100Y-109503600D02*
X159001100Y-109503600D01*
D22*
X148250000Y-102250000D02*
X148500000Y-102250000D01*
D21*
X148500000Y-102250000D02*
X150786000Y-104536000D01*
D22*
X150786000Y-104536000D02*
X150786000Y-105500000D01*
D21*
X152000000Y-100750700D02*
X150250700Y-100750700D01*
X150250700Y-100750700D02*
X150250000Y-100750000D01*
D26*
G36*
X155805871Y-92739358D02*
X155418086Y-93305704D01*
X155147690Y-93936585D01*
X155004983Y-94607971D01*
X154995399Y-95294290D01*
X155119305Y-95969399D01*
X155371980Y-96607584D01*
X155743801Y-97184536D01*
X156220604Y-97678281D01*
X156784229Y-98070010D01*
X157413207Y-98344804D01*
X158083581Y-98492195D01*
X158769816Y-98506570D01*
X159445774Y-98387380D01*
X160085707Y-98139166D01*
X160665241Y-97771383D01*
X160926100Y-97522970D01*
X160926100Y-106758458D01*
X160859504Y-106654965D01*
X160695628Y-106542993D01*
X160501100Y-106503600D01*
X160128983Y-106503600D01*
X160194756Y-106214097D01*
X160200073Y-105833306D01*
X160135318Y-105506268D01*
X160131641Y-105497348D01*
X160167570Y-105453607D01*
X160215091Y-105396974D01*
X160217119Y-105393285D01*
X160219787Y-105390037D01*
X160254698Y-105324929D01*
X160290308Y-105260154D01*
X160291580Y-105256145D01*
X160293568Y-105252437D01*
X160315180Y-105181747D01*
X160337518Y-105111329D01*
X160337987Y-105107150D01*
X160339217Y-105103126D01*
X160346685Y-105029602D01*
X160354922Y-104956170D01*
X160354979Y-104947946D01*
X160354995Y-104947793D01*
X160354981Y-104947650D01*
X160355000Y-104945000D01*
X160355000Y-102305000D01*
X160347797Y-102231539D01*
X160341349Y-102157839D01*
X160340174Y-102153795D01*
X160339764Y-102149613D01*
X160318416Y-102078906D01*
X160297789Y-102007907D01*
X160295853Y-102004173D01*
X160294637Y-102000144D01*
X160259928Y-101934866D01*
X160225936Y-101869289D01*
X160223313Y-101866003D01*
X160221337Y-101862287D01*
X160174631Y-101805019D01*
X160128529Y-101747268D01*
X160122754Y-101741412D01*
X160122657Y-101741293D01*
X160122546Y-101741202D01*
X160120686Y-101739315D01*
X159565685Y-101184315D01*
X159508631Y-101137450D01*
X159451974Y-101089909D01*
X159448285Y-101087881D01*
X159445037Y-101085213D01*
X159379929Y-101050302D01*
X159315154Y-101014692D01*
X159311145Y-101013420D01*
X159307437Y-101011432D01*
X159236747Y-100989820D01*
X159166329Y-100967482D01*
X159162150Y-100967013D01*
X159158126Y-100965783D01*
X159084602Y-100958315D01*
X159011170Y-100950078D01*
X159002946Y-100950021D01*
X159002793Y-100950005D01*
X159002650Y-100950019D01*
X159000000Y-100950000D01*
X156500000Y-100950000D01*
X156426494Y-100957207D01*
X156352839Y-100963651D01*
X156348795Y-100964826D01*
X156344613Y-100965236D01*
X156273919Y-100986580D01*
X156202906Y-101007211D01*
X156199170Y-101009147D01*
X156195144Y-101010363D01*
X156129884Y-101045062D01*
X156064289Y-101079064D01*
X156061003Y-101081687D01*
X156057287Y-101083663D01*
X156000019Y-101130369D01*
X155942268Y-101176471D01*
X155936412Y-101182246D01*
X155936293Y-101182343D01*
X155936202Y-101182454D01*
X155934315Y-101184314D01*
X155669330Y-101449300D01*
X152796821Y-101449300D01*
X152823209Y-101418338D01*
X152881308Y-101289451D01*
X152901199Y-101149480D01*
X152901199Y-100351920D01*
X152894850Y-100272297D01*
X152853027Y-100137248D01*
X152775237Y-100019196D01*
X152667638Y-99927491D01*
X152538751Y-99869392D01*
X152398780Y-99849501D01*
X151601220Y-99849501D01*
X151521597Y-99855850D01*
X151386548Y-99897673D01*
X151306076Y-99950700D01*
X150259635Y-99950700D01*
X150252793Y-99950005D01*
X150097353Y-99964699D01*
X149987051Y-99997581D01*
X149800000Y-99997581D01*
X149720377Y-100003930D01*
X149585328Y-100045753D01*
X149467276Y-100123543D01*
X149375571Y-100231142D01*
X149317472Y-100360029D01*
X149297581Y-100500000D01*
X149297581Y-101000000D01*
X149303930Y-101079623D01*
X149345753Y-101214672D01*
X149423543Y-101332724D01*
X149531142Y-101424429D01*
X149660029Y-101482528D01*
X149778192Y-101499320D01*
X149720377Y-101503930D01*
X149585328Y-101545753D01*
X149467276Y-101623543D01*
X149375571Y-101731142D01*
X149317472Y-101860029D01*
X149308007Y-101926636D01*
X149130190Y-101748820D01*
X149076457Y-101667276D01*
X148968858Y-101575571D01*
X148839971Y-101517472D01*
X148811032Y-101513360D01*
X148807437Y-101511432D01*
X148761831Y-101497489D01*
X148779623Y-101496070D01*
X148914672Y-101454247D01*
X149032724Y-101376457D01*
X149124429Y-101268858D01*
X149182528Y-101139971D01*
X149202419Y-101000000D01*
X149202419Y-100500000D01*
X149196070Y-100420377D01*
X149154247Y-100285328D01*
X149076457Y-100167276D01*
X149050000Y-100144727D01*
X149050000Y-99831370D01*
X151379492Y-97501879D01*
X151552414Y-97486142D01*
X151814610Y-97408973D01*
X152056824Y-97282347D01*
X152269830Y-97111086D01*
X152445514Y-96901714D01*
X152577185Y-96662205D01*
X152659827Y-96401683D01*
X152690293Y-96130070D01*
X152690430Y-96110517D01*
X152690430Y-94389483D01*
X152663759Y-94117471D01*
X152584762Y-93855821D01*
X152456448Y-93614497D01*
X152283704Y-93402692D01*
X152073111Y-93228474D01*
X151832688Y-93098478D01*
X151571596Y-93017656D01*
X151299777Y-92989087D01*
X151027586Y-93013858D01*
X150765390Y-93091027D01*
X150523176Y-93217653D01*
X150310170Y-93388914D01*
X150134486Y-93598286D01*
X150019266Y-93807870D01*
X149916448Y-93614497D01*
X149743704Y-93402692D01*
X149533111Y-93228474D01*
X149292688Y-93098478D01*
X149031596Y-93017656D01*
X148759777Y-92989087D01*
X148487586Y-93013858D01*
X148225390Y-93091027D01*
X147983176Y-93217653D01*
X147770170Y-93388914D01*
X147594486Y-93598286D01*
X147462815Y-93837795D01*
X147380173Y-94098317D01*
X147349707Y-94369930D01*
X147349570Y-94389483D01*
X147349570Y-96110517D01*
X147376241Y-96382529D01*
X147455238Y-96644179D01*
X147583552Y-96885503D01*
X147756296Y-97097308D01*
X147966889Y-97271526D01*
X148207312Y-97401522D01*
X148468404Y-97482344D01*
X148740223Y-97510913D01*
X149012414Y-97486142D01*
X149182566Y-97436063D01*
X147684315Y-98934315D01*
X147637450Y-98991369D01*
X147589909Y-99048026D01*
X147587881Y-99051715D01*
X147585213Y-99054963D01*
X147550302Y-99120071D01*
X147514692Y-99184846D01*
X147513420Y-99188855D01*
X147511432Y-99192563D01*
X147489820Y-99263253D01*
X147467482Y-99333671D01*
X147467013Y-99337850D01*
X147465783Y-99341874D01*
X147458315Y-99415398D01*
X147450078Y-99488830D01*
X147450021Y-99497054D01*
X147450005Y-99497207D01*
X147450019Y-99497350D01*
X147450000Y-99500000D01*
X147450000Y-99950000D01*
X146500000Y-99950000D01*
X146344613Y-99965236D01*
X146237480Y-99997581D01*
X146050000Y-99997581D01*
X145970377Y-100003930D01*
X145835328Y-100045753D01*
X145717276Y-100123543D01*
X145625571Y-100231142D01*
X145567472Y-100360029D01*
X145547581Y-100500000D01*
X145547581Y-101000000D01*
X145553930Y-101079623D01*
X145595753Y-101214672D01*
X145673543Y-101332724D01*
X145781142Y-101424429D01*
X145910029Y-101482528D01*
X146050000Y-101502419D01*
X146238787Y-101502419D01*
X146333671Y-101532518D01*
X146488830Y-101549922D01*
X146500000Y-101550000D01*
X147578883Y-101550000D01*
X147467276Y-101623543D01*
X147375571Y-101731142D01*
X147317472Y-101860029D01*
X147297581Y-102000000D01*
X147297581Y-102500000D01*
X147303930Y-102579623D01*
X147345753Y-102714672D01*
X147423543Y-102832724D01*
X147531142Y-102924429D01*
X147660029Y-102982528D01*
X147800000Y-103002419D01*
X148121049Y-103002419D01*
X149458081Y-104339452D01*
X149458081Y-106503600D01*
X144501100Y-106503600D01*
X144319371Y-106537795D01*
X144152465Y-106645196D01*
X144040493Y-106809072D01*
X144001100Y-107003600D01*
X144001100Y-117003600D01*
X144035295Y-117185329D01*
X144142696Y-117352235D01*
X144254460Y-117428600D01*
X141025198Y-117428600D01*
X141162302Y-117298038D01*
X141557957Y-116737161D01*
X141837135Y-116110117D01*
X141989203Y-115440789D01*
X142000150Y-114656807D01*
X141866830Y-113983494D01*
X141605269Y-113348899D01*
X141225429Y-112777194D01*
X140741779Y-112290155D01*
X140172739Y-111906333D01*
X139539986Y-111640348D01*
X138867620Y-111502331D01*
X138181251Y-111497539D01*
X137507023Y-111626155D01*
X136870618Y-111883280D01*
X136296275Y-112259119D01*
X136076100Y-112474730D01*
X136076100Y-104800000D01*
X136797581Y-104800000D01*
X136797581Y-107200000D01*
X136803930Y-107279623D01*
X136845753Y-107414672D01*
X136923543Y-107532724D01*
X137031142Y-107624429D01*
X137160029Y-107682528D01*
X137300000Y-107702419D01*
X139700000Y-107702419D01*
X139779623Y-107696070D01*
X139914672Y-107654247D01*
X140032724Y-107576457D01*
X140124429Y-107468858D01*
X140182528Y-107339971D01*
X140202419Y-107200000D01*
X140202419Y-104800000D01*
X140196070Y-104720377D01*
X140154247Y-104585328D01*
X140076457Y-104467276D01*
X139968858Y-104375571D01*
X139839971Y-104317472D01*
X139700000Y-104297581D01*
X137300000Y-104297581D01*
X137220377Y-104303930D01*
X137085328Y-104345753D01*
X136967276Y-104423543D01*
X136875571Y-104531142D01*
X136817472Y-104660029D01*
X136797581Y-104800000D01*
X136076100Y-104800000D01*
X136076100Y-97528642D01*
X136220604Y-97678281D01*
X136784229Y-98070010D01*
X137413207Y-98344804D01*
X138083581Y-98492195D01*
X138769816Y-98506570D01*
X139445774Y-98387380D01*
X140085707Y-98139166D01*
X140665241Y-97771383D01*
X141162302Y-97298038D01*
X141557957Y-96737161D01*
X141837135Y-96110117D01*
X141989203Y-95440789D01*
X142000150Y-94656807D01*
X141866830Y-93983494D01*
X141605269Y-93348899D01*
X141225429Y-92777194D01*
X141028217Y-92578600D01*
X155970032Y-92578600D01*
X155805871Y-92739358D01*
X155805871Y-92739358D01*
G37*
X155805871Y-92739358D02*
X155418086Y-93305704D01*
X155147690Y-93936585D01*
X155004983Y-94607971D01*
X154995399Y-95294290D01*
X155119305Y-95969399D01*
X155371980Y-96607584D01*
X155743801Y-97184536D01*
X156220604Y-97678281D01*
X156784229Y-98070010D01*
X157413207Y-98344804D01*
X158083581Y-98492195D01*
X158769816Y-98506570D01*
X159445774Y-98387380D01*
X160085707Y-98139166D01*
X160665241Y-97771383D01*
X160926100Y-97522970D01*
X160926100Y-106758458D01*
X160859504Y-106654965D01*
X160695628Y-106542993D01*
X160501100Y-106503600D01*
X160128983Y-106503600D01*
X160194756Y-106214097D01*
X160200073Y-105833306D01*
X160135318Y-105506268D01*
X160131641Y-105497348D01*
X160167570Y-105453607D01*
X160215091Y-105396974D01*
X160217119Y-105393285D01*
X160219787Y-105390037D01*
X160254698Y-105324929D01*
X160290308Y-105260154D01*
X160291580Y-105256145D01*
X160293568Y-105252437D01*
X160315180Y-105181747D01*
X160337518Y-105111329D01*
X160337987Y-105107150D01*
X160339217Y-105103126D01*
X160346685Y-105029602D01*
X160354922Y-104956170D01*
X160354979Y-104947946D01*
X160354995Y-104947793D01*
X160354981Y-104947650D01*
X160355000Y-104945000D01*
X160355000Y-102305000D01*
X160347797Y-102231539D01*
X160341349Y-102157839D01*
X160340174Y-102153795D01*
X160339764Y-102149613D01*
X160318416Y-102078906D01*
X160297789Y-102007907D01*
X160295853Y-102004173D01*
X160294637Y-102000144D01*
X160259928Y-101934866D01*
X160225936Y-101869289D01*
X160223313Y-101866003D01*
X160221337Y-101862287D01*
X160174631Y-101805019D01*
X160128529Y-101747268D01*
X160122754Y-101741412D01*
X160122657Y-101741293D01*
X160122546Y-101741202D01*
X160120686Y-101739315D01*
X159565685Y-101184315D01*
X159508631Y-101137450D01*
X159451974Y-101089909D01*
X159448285Y-101087881D01*
X159445037Y-101085213D01*
X159379929Y-101050302D01*
X159315154Y-101014692D01*
X159311145Y-101013420D01*
X159307437Y-101011432D01*
X159236747Y-100989820D01*
X159166329Y-100967482D01*
X159162150Y-100967013D01*
X159158126Y-100965783D01*
X159084602Y-100958315D01*
X159011170Y-100950078D01*
X159002946Y-100950021D01*
X159002793Y-100950005D01*
X159002650Y-100950019D01*
X159000000Y-100950000D01*
X156500000Y-100950000D01*
X156426494Y-100957207D01*
X156352839Y-100963651D01*
X156348795Y-100964826D01*
X156344613Y-100965236D01*
X156273919Y-100986580D01*
X156202906Y-101007211D01*
X156199170Y-101009147D01*
X156195144Y-101010363D01*
X156129884Y-101045062D01*
X156064289Y-101079064D01*
X156061003Y-101081687D01*
X156057287Y-101083663D01*
X156000019Y-101130369D01*
X155942268Y-101176471D01*
X155936412Y-101182246D01*
X155936293Y-101182343D01*
X155936202Y-101182454D01*
X155934315Y-101184314D01*
X155669330Y-101449300D01*
X152796821Y-101449300D01*
X152823209Y-101418338D01*
X152881308Y-101289451D01*
X152901199Y-101149480D01*
X152901199Y-100351920D01*
X152894850Y-100272297D01*
X152853027Y-100137248D01*
X152775237Y-100019196D01*
X152667638Y-99927491D01*
X152538751Y-99869392D01*
X152398780Y-99849501D01*
X151601220Y-99849501D01*
X151521597Y-99855850D01*
X151386548Y-99897673D01*
X151306076Y-99950700D01*
X150259635Y-99950700D01*
X150252793Y-99950005D01*
X150097353Y-99964699D01*
X149987051Y-99997581D01*
X149800000Y-99997581D01*
X149720377Y-100003930D01*
X149585328Y-100045753D01*
X149467276Y-100123543D01*
X149375571Y-100231142D01*
X149317472Y-100360029D01*
X149297581Y-100500000D01*
X149297581Y-101000000D01*
X149303930Y-101079623D01*
X149345753Y-101214672D01*
X149423543Y-101332724D01*
X149531142Y-101424429D01*
X149660029Y-101482528D01*
X149778192Y-101499320D01*
X149720377Y-101503930D01*
X149585328Y-101545753D01*
X149467276Y-101623543D01*
X149375571Y-101731142D01*
X149317472Y-101860029D01*
X149308007Y-101926636D01*
X149130190Y-101748820D01*
X149076457Y-101667276D01*
X148968858Y-101575571D01*
X148839971Y-101517472D01*
X148811032Y-101513360D01*
X148807437Y-101511432D01*
X148761831Y-101497489D01*
X148779623Y-101496070D01*
X148914672Y-101454247D01*
X149032724Y-101376457D01*
X149124429Y-101268858D01*
X149182528Y-101139971D01*
X149202419Y-101000000D01*
X149202419Y-100500000D01*
X149196070Y-100420377D01*
X149154247Y-100285328D01*
X149076457Y-100167276D01*
X149050000Y-100144727D01*
X149050000Y-99831370D01*
X151379492Y-97501879D01*
X151552414Y-97486142D01*
X151814610Y-97408973D01*
X152056824Y-97282347D01*
X152269830Y-97111086D01*
X152445514Y-96901714D01*
X152577185Y-96662205D01*
X152659827Y-96401683D01*
X152690293Y-96130070D01*
X152690430Y-96110517D01*
X152690430Y-94389483D01*
X152663759Y-94117471D01*
X152584762Y-93855821D01*
X152456448Y-93614497D01*
X152283704Y-93402692D01*
X152073111Y-93228474D01*
X151832688Y-93098478D01*
X151571596Y-93017656D01*
X151299777Y-92989087D01*
X151027586Y-93013858D01*
X150765390Y-93091027D01*
X150523176Y-93217653D01*
X150310170Y-93388914D01*
X150134486Y-93598286D01*
X150019266Y-93807870D01*
X149916448Y-93614497D01*
X149743704Y-93402692D01*
X149533111Y-93228474D01*
X149292688Y-93098478D01*
X149031596Y-93017656D01*
X148759777Y-92989087D01*
X148487586Y-93013858D01*
X148225390Y-93091027D01*
X147983176Y-93217653D01*
X147770170Y-93388914D01*
X147594486Y-93598286D01*
X147462815Y-93837795D01*
X147380173Y-94098317D01*
X147349707Y-94369930D01*
X147349570Y-94389483D01*
X147349570Y-96110517D01*
X147376241Y-96382529D01*
X147455238Y-96644179D01*
X147583552Y-96885503D01*
X147756296Y-97097308D01*
X147966889Y-97271526D01*
X148207312Y-97401522D01*
X148468404Y-97482344D01*
X148740223Y-97510913D01*
X149012414Y-97486142D01*
X149182566Y-97436063D01*
X147684315Y-98934315D01*
X147637450Y-98991369D01*
X147589909Y-99048026D01*
X147587881Y-99051715D01*
X147585213Y-99054963D01*
X147550302Y-99120071D01*
X147514692Y-99184846D01*
X147513420Y-99188855D01*
X147511432Y-99192563D01*
X147489820Y-99263253D01*
X147467482Y-99333671D01*
X147467013Y-99337850D01*
X147465783Y-99341874D01*
X147458315Y-99415398D01*
X147450078Y-99488830D01*
X147450021Y-99497054D01*
X147450005Y-99497207D01*
X147450019Y-99497350D01*
X147450000Y-99500000D01*
X147450000Y-99950000D01*
X146500000Y-99950000D01*
X146344613Y-99965236D01*
X146237480Y-99997581D01*
X146050000Y-99997581D01*
X145970377Y-100003930D01*
X145835328Y-100045753D01*
X145717276Y-100123543D01*
X145625571Y-100231142D01*
X145567472Y-100360029D01*
X145547581Y-100500000D01*
X145547581Y-101000000D01*
X145553930Y-101079623D01*
X145595753Y-101214672D01*
X145673543Y-101332724D01*
X145781142Y-101424429D01*
X145910029Y-101482528D01*
X146050000Y-101502419D01*
X146238787Y-101502419D01*
X146333671Y-101532518D01*
X146488830Y-101549922D01*
X146500000Y-101550000D01*
X147578883Y-101550000D01*
X147467276Y-101623543D01*
X147375571Y-101731142D01*
X147317472Y-101860029D01*
X147297581Y-102000000D01*
X147297581Y-102500000D01*
X147303930Y-102579623D01*
X147345753Y-102714672D01*
X147423543Y-102832724D01*
X147531142Y-102924429D01*
X147660029Y-102982528D01*
X147800000Y-103002419D01*
X148121049Y-103002419D01*
X149458081Y-104339452D01*
X149458081Y-106503600D01*
X144501100Y-106503600D01*
X144319371Y-106537795D01*
X144152465Y-106645196D01*
X144040493Y-106809072D01*
X144001100Y-107003600D01*
X144001100Y-117003600D01*
X144035295Y-117185329D01*
X144142696Y-117352235D01*
X144254460Y-117428600D01*
X141025198Y-117428600D01*
X141162302Y-117298038D01*
X141557957Y-116737161D01*
X141837135Y-116110117D01*
X141989203Y-115440789D01*
X142000150Y-114656807D01*
X141866830Y-113983494D01*
X141605269Y-113348899D01*
X141225429Y-112777194D01*
X140741779Y-112290155D01*
X140172739Y-111906333D01*
X139539986Y-111640348D01*
X138867620Y-111502331D01*
X138181251Y-111497539D01*
X137507023Y-111626155D01*
X136870618Y-111883280D01*
X136296275Y-112259119D01*
X136076100Y-112474730D01*
X136076100Y-104800000D01*
X136797581Y-104800000D01*
X136797581Y-107200000D01*
X136803930Y-107279623D01*
X136845753Y-107414672D01*
X136923543Y-107532724D01*
X137031142Y-107624429D01*
X137160029Y-107682528D01*
X137300000Y-107702419D01*
X139700000Y-107702419D01*
X139779623Y-107696070D01*
X139914672Y-107654247D01*
X140032724Y-107576457D01*
X140124429Y-107468858D01*
X140182528Y-107339971D01*
X140202419Y-107200000D01*
X140202419Y-104800000D01*
X140196070Y-104720377D01*
X140154247Y-104585328D01*
X140076457Y-104467276D01*
X139968858Y-104375571D01*
X139839971Y-104317472D01*
X139700000Y-104297581D01*
X137300000Y-104297581D01*
X137220377Y-104303930D01*
X137085328Y-104345753D01*
X136967276Y-104423543D01*
X136875571Y-104531142D01*
X136817472Y-104660029D01*
X136797581Y-104800000D01*
X136076100Y-104800000D01*
X136076100Y-97528642D01*
X136220604Y-97678281D01*
X136784229Y-98070010D01*
X137413207Y-98344804D01*
X138083581Y-98492195D01*
X138769816Y-98506570D01*
X139445774Y-98387380D01*
X140085707Y-98139166D01*
X140665241Y-97771383D01*
X141162302Y-97298038D01*
X141557957Y-96737161D01*
X141837135Y-96110117D01*
X141989203Y-95440789D01*
X142000150Y-94656807D01*
X141866830Y-93983494D01*
X141605269Y-93348899D01*
X141225429Y-92777194D01*
X141028217Y-92578600D01*
X155970032Y-92578600D01*
X155805871Y-92739358D01*
D25*
G36*
X145042364Y-107187580D02*
X145101640Y-107277535D01*
X145183630Y-107347415D01*
X145281842Y-107391686D01*
X145388500Y-107406843D01*
X147039500Y-107406843D01*
X147100173Y-107402005D01*
X147203080Y-107370136D01*
X147293035Y-107310860D01*
X147362915Y-107228870D01*
X147407186Y-107130658D01*
X147407194Y-107130600D01*
X149596718Y-107130600D01*
X149614364Y-107187580D01*
X149673640Y-107277535D01*
X149755630Y-107347415D01*
X149853842Y-107391686D01*
X149960500Y-107406843D01*
X151611500Y-107406843D01*
X151672173Y-107402005D01*
X151775080Y-107370136D01*
X151865035Y-107310860D01*
X151934915Y-107228870D01*
X151979186Y-107130658D01*
X151979194Y-107130600D01*
X157393864Y-107130600D01*
X157470364Y-107209818D01*
X157724962Y-107386768D01*
X158009080Y-107510896D01*
X158311898Y-107577475D01*
X158621880Y-107583968D01*
X158927219Y-107530128D01*
X159216287Y-107418006D01*
X159478071Y-107251873D01*
X159605420Y-107130600D01*
X160374100Y-107130600D01*
X160374100Y-112185699D01*
X160115866Y-112011518D01*
X159504626Y-111754576D01*
X158855121Y-111621252D01*
X158192089Y-111616623D01*
X157540785Y-111740866D01*
X156926017Y-111989248D01*
X156371202Y-112352309D01*
X155897472Y-112816220D01*
X155522872Y-113363310D01*
X155261669Y-113972741D01*
X155123814Y-114621300D01*
X155114556Y-115284284D01*
X155234249Y-115936439D01*
X155478333Y-116552926D01*
X155686927Y-116876600D01*
X144628100Y-116876600D01*
X144628100Y-107130600D01*
X145024718Y-107130600D01*
X145042364Y-107187580D01*
X145042364Y-107187580D01*
G37*
X145042364Y-107187580D02*
X145101640Y-107277535D01*
X145183630Y-107347415D01*
X145281842Y-107391686D01*
X145388500Y-107406843D01*
X147039500Y-107406843D01*
X147100173Y-107402005D01*
X147203080Y-107370136D01*
X147293035Y-107310860D01*
X147362915Y-107228870D01*
X147407186Y-107130658D01*
X147407194Y-107130600D01*
X149596718Y-107130600D01*
X149614364Y-107187580D01*
X149673640Y-107277535D01*
X149755630Y-107347415D01*
X149853842Y-107391686D01*
X149960500Y-107406843D01*
X151611500Y-107406843D01*
X151672173Y-107402005D01*
X151775080Y-107370136D01*
X151865035Y-107310860D01*
X151934915Y-107228870D01*
X151979186Y-107130658D01*
X151979194Y-107130600D01*
X157393864Y-107130600D01*
X157470364Y-107209818D01*
X157724962Y-107386768D01*
X158009080Y-107510896D01*
X158311898Y-107577475D01*
X158621880Y-107583968D01*
X158927219Y-107530128D01*
X159216287Y-107418006D01*
X159478071Y-107251873D01*
X159605420Y-107130600D01*
X160374100Y-107130600D01*
X160374100Y-112185699D01*
X160115866Y-112011518D01*
X159504626Y-111754576D01*
X158855121Y-111621252D01*
X158192089Y-111616623D01*
X157540785Y-111740866D01*
X156926017Y-111989248D01*
X156371202Y-112352309D01*
X155897472Y-112816220D01*
X155522872Y-113363310D01*
X155261669Y-113972741D01*
X155123814Y-114621300D01*
X155114556Y-115284284D01*
X155234249Y-115936439D01*
X155478333Y-116552926D01*
X155686927Y-116876600D01*
X144628100Y-116876600D01*
X144628100Y-107130600D01*
X145024718Y-107130600D01*
X145042364Y-107187580D01*
M02*
