M48
METRIC,TZ
T1C0.500
T2C1.199
T3C1.200
T4C3.200
%
G90
G05
T1
X143.25Y-103.25
X143.75Y-101.
X143.75Y-102.25
X144.5Y-103.25
X145.Y-101.
X145.Y-102.25
X145.75Y-103.25
X147.Y-103.25
X148.25Y-103.25
T2
X146.21Y-95.25
X148.75Y-95.25
X151.29Y-95.25
T3
X138.5Y-106.
X138.5Y-109.5
X158.5Y-106.
X158.5Y-109.5
T4
X138.5Y-95.
X138.5Y-115.
X158.5Y-95.
X158.5Y-115.
T0
M30
