G04 #@! TF.FileFunction,Copper,L2,Bot,Signal*
%FSLAX46Y46*%
G04 Gerber Fmt 4.6, Leading zero omitted, Abs format (unit mm)*
G04 Created by KiCad (PCBNEW 4.0.2-stable) date 21/05/2016 00:23:07*
%MOMM*%
G01*
G04 APERTURE LIST*
%ADD10C,0.100000*%
%ADD11C,0.150000*%
%ADD12C,2.400000*%
%ADD13R,2.400000X2.400000*%
%ADD14C,7.000000*%
%ADD15C,0.600000*%
%ADD16C,0.250000*%
%ADD17C,0.149860*%
G04 APERTURE END LIST*
D10*
D11*
X0Y28500000D02*
X0Y3500000D01*
X37000000Y28500000D02*
X0Y28500000D01*
X37000000Y3500000D02*
X37000000Y28500000D01*
X3500000Y0D02*
X33500000Y0D01*
X33500000Y0D02*
G75*
G03X37000000Y3500000I0J3500000D01*
G01*
X0Y3500000D02*
G75*
G03X3500000Y0I3500000J0D01*
G01*
D12*
X27500000Y23500000D03*
X31000000Y23500000D03*
X24000000Y23500000D03*
X20500000Y23500000D03*
X17000000Y23500000D03*
X13500000Y23531729D03*
D13*
X34500000Y23500000D03*
D12*
X10000000Y23500000D03*
X6500000Y23500000D03*
X3000000Y23500000D03*
D14*
X3500000Y3500000D03*
X33500000Y3500000D03*
D15*
X16558800Y10770000D03*
D16*
X16558800Y16058800D02*
X16558800Y10770000D01*
X24000000Y23500000D02*
X16558800Y16058800D01*
D17*
G36*
X36596070Y5818177D02*
X35671746Y6744116D01*
X34264963Y7328264D01*
X32741720Y7329593D01*
X31333919Y6747901D01*
X30255884Y5671746D01*
X29671736Y4264963D01*
X29670407Y2741720D01*
X30252099Y1333919D01*
X31180466Y403930D01*
X5818177Y403930D01*
X6744116Y1328254D01*
X7328264Y2735037D01*
X7329593Y4258280D01*
X6747901Y5666081D01*
X5671746Y6744116D01*
X4264963Y7328264D01*
X2741720Y7329593D01*
X1333919Y6747901D01*
X403930Y5819534D01*
X403930Y10645447D01*
X15929762Y10645447D01*
X16025309Y10414205D01*
X16202075Y10237130D01*
X16433149Y10141180D01*
X16683353Y10140962D01*
X16914595Y10236509D01*
X17091670Y10413275D01*
X17187620Y10644349D01*
X17187838Y10894553D01*
X17092291Y11125795D01*
X17012730Y11205495D01*
X17012730Y15870776D01*
X23283832Y22141878D01*
X23694543Y21971335D01*
X24302789Y21970805D01*
X24864938Y22203080D01*
X25295408Y22632800D01*
X25528665Y23194543D01*
X25528667Y23197211D01*
X25970805Y23197211D01*
X26203080Y22635062D01*
X26632800Y22204592D01*
X27194543Y21971335D01*
X27802789Y21970805D01*
X28364938Y22203080D01*
X28795408Y22632800D01*
X29028665Y23194543D01*
X29028667Y23197211D01*
X29470805Y23197211D01*
X29703080Y22635062D01*
X30132800Y22204592D01*
X30694543Y21971335D01*
X31302789Y21970805D01*
X31864938Y22203080D01*
X32295408Y22632800D01*
X32528665Y23194543D01*
X32528881Y23442533D01*
X33075210Y23442533D01*
X33075210Y22255287D01*
X33109432Y22172667D01*
X33172666Y22109432D01*
X33255286Y22075210D01*
X34442533Y22075210D01*
X34498730Y22131407D01*
X34498730Y23498730D01*
X34501270Y23498730D01*
X34501270Y22131407D01*
X34557467Y22075210D01*
X35744714Y22075210D01*
X35827334Y22109432D01*
X35890568Y22172667D01*
X35924790Y22255287D01*
X35924790Y23442533D01*
X35868593Y23498730D01*
X34501270Y23498730D01*
X34498730Y23498730D01*
X33131407Y23498730D01*
X33075210Y23442533D01*
X32528881Y23442533D01*
X32529195Y23802789D01*
X32296920Y24364938D01*
X31917807Y24744713D01*
X33075210Y24744713D01*
X33075210Y23557467D01*
X33131407Y23501270D01*
X34498730Y23501270D01*
X34498730Y24868593D01*
X34501270Y24868593D01*
X34501270Y23501270D01*
X35868593Y23501270D01*
X35924790Y23557467D01*
X35924790Y24744713D01*
X35890568Y24827333D01*
X35827334Y24890568D01*
X35744714Y24924790D01*
X34557467Y24924790D01*
X34501270Y24868593D01*
X34498730Y24868593D01*
X34442533Y24924790D01*
X33255286Y24924790D01*
X33172666Y24890568D01*
X33109432Y24827333D01*
X33075210Y24744713D01*
X31917807Y24744713D01*
X31867200Y24795408D01*
X31305457Y25028665D01*
X30697211Y25029195D01*
X30135062Y24796920D01*
X29704592Y24367200D01*
X29471335Y23805457D01*
X29470805Y23197211D01*
X29028667Y23197211D01*
X29029195Y23802789D01*
X28796920Y24364938D01*
X28367200Y24795408D01*
X27805457Y25028665D01*
X27197211Y25029195D01*
X26635062Y24796920D01*
X26204592Y24367200D01*
X25971335Y23805457D01*
X25970805Y23197211D01*
X25528667Y23197211D01*
X25529195Y23802789D01*
X25296920Y24364938D01*
X24867200Y24795408D01*
X24305457Y25028665D01*
X23697211Y25029195D01*
X23135062Y24796920D01*
X22704592Y24367200D01*
X22471335Y23805457D01*
X22470805Y23197211D01*
X22641688Y22783642D01*
X16237823Y16379777D01*
X16139423Y16232512D01*
X16139423Y16232511D01*
X16104870Y16058800D01*
X16104870Y11205527D01*
X16025930Y11126725D01*
X15929980Y10895651D01*
X15929762Y10645447D01*
X403930Y10645447D01*
X403930Y23197211D01*
X1470805Y23197211D01*
X1703080Y22635062D01*
X2132800Y22204592D01*
X2694543Y21971335D01*
X3302789Y21970805D01*
X3864938Y22203080D01*
X4295408Y22632800D01*
X4528665Y23194543D01*
X4528667Y23197211D01*
X4970805Y23197211D01*
X5203080Y22635062D01*
X5632800Y22204592D01*
X6194543Y21971335D01*
X6802789Y21970805D01*
X7364938Y22203080D01*
X7795408Y22632800D01*
X8028665Y23194543D01*
X8028667Y23197211D01*
X8470805Y23197211D01*
X8703080Y22635062D01*
X9132800Y22204592D01*
X9694543Y21971335D01*
X10302789Y21970805D01*
X10864938Y22203080D01*
X11295408Y22632800D01*
X11528665Y23194543D01*
X11528694Y23228940D01*
X11970805Y23228940D01*
X12203080Y22666791D01*
X12632800Y22236321D01*
X13194543Y22003064D01*
X13802789Y22002534D01*
X14364938Y22234809D01*
X14795408Y22664529D01*
X15016597Y23197211D01*
X15470805Y23197211D01*
X15703080Y22635062D01*
X16132800Y22204592D01*
X16694543Y21971335D01*
X17302789Y21970805D01*
X17864938Y22203080D01*
X18295408Y22632800D01*
X18528665Y23194543D01*
X18528667Y23197211D01*
X18970805Y23197211D01*
X19203080Y22635062D01*
X19632800Y22204592D01*
X20194543Y21971335D01*
X20802789Y21970805D01*
X21364938Y22203080D01*
X21795408Y22632800D01*
X22028665Y23194543D01*
X22029195Y23802789D01*
X21796920Y24364938D01*
X21367200Y24795408D01*
X20805457Y25028665D01*
X20197211Y25029195D01*
X19635062Y24796920D01*
X19204592Y24367200D01*
X18971335Y23805457D01*
X18970805Y23197211D01*
X18528667Y23197211D01*
X18529195Y23802789D01*
X18296920Y24364938D01*
X17867200Y24795408D01*
X17305457Y25028665D01*
X16697211Y25029195D01*
X16135062Y24796920D01*
X15704592Y24367200D01*
X15471335Y23805457D01*
X15470805Y23197211D01*
X15016597Y23197211D01*
X15028665Y23226272D01*
X15029195Y23834518D01*
X14796920Y24396667D01*
X14367200Y24827137D01*
X13805457Y25060394D01*
X13197211Y25060924D01*
X12635062Y24828649D01*
X12204592Y24398929D01*
X11971335Y23837186D01*
X11970805Y23228940D01*
X11528694Y23228940D01*
X11529195Y23802789D01*
X11296920Y24364938D01*
X10867200Y24795408D01*
X10305457Y25028665D01*
X9697211Y25029195D01*
X9135062Y24796920D01*
X8704592Y24367200D01*
X8471335Y23805457D01*
X8470805Y23197211D01*
X8028667Y23197211D01*
X8029195Y23802789D01*
X7796920Y24364938D01*
X7367200Y24795408D01*
X6805457Y25028665D01*
X6197211Y25029195D01*
X5635062Y24796920D01*
X5204592Y24367200D01*
X4971335Y23805457D01*
X4970805Y23197211D01*
X4528667Y23197211D01*
X4529195Y23802789D01*
X4296920Y24364938D01*
X3867200Y24795408D01*
X3305457Y25028665D01*
X2697211Y25029195D01*
X2135062Y24796920D01*
X1704592Y24367200D01*
X1471335Y23805457D01*
X1470805Y23197211D01*
X403930Y23197211D01*
X403930Y28096070D01*
X36596070Y28096070D01*
X36596070Y5818177D01*
X36596070Y5818177D01*
G37*
X36596070Y5818177D02*
X35671746Y6744116D01*
X34264963Y7328264D01*
X32741720Y7329593D01*
X31333919Y6747901D01*
X30255884Y5671746D01*
X29671736Y4264963D01*
X29670407Y2741720D01*
X30252099Y1333919D01*
X31180466Y403930D01*
X5818177Y403930D01*
X6744116Y1328254D01*
X7328264Y2735037D01*
X7329593Y4258280D01*
X6747901Y5666081D01*
X5671746Y6744116D01*
X4264963Y7328264D01*
X2741720Y7329593D01*
X1333919Y6747901D01*
X403930Y5819534D01*
X403930Y10645447D01*
X15929762Y10645447D01*
X16025309Y10414205D01*
X16202075Y10237130D01*
X16433149Y10141180D01*
X16683353Y10140962D01*
X16914595Y10236509D01*
X17091670Y10413275D01*
X17187620Y10644349D01*
X17187838Y10894553D01*
X17092291Y11125795D01*
X17012730Y11205495D01*
X17012730Y15870776D01*
X23283832Y22141878D01*
X23694543Y21971335D01*
X24302789Y21970805D01*
X24864938Y22203080D01*
X25295408Y22632800D01*
X25528665Y23194543D01*
X25528667Y23197211D01*
X25970805Y23197211D01*
X26203080Y22635062D01*
X26632800Y22204592D01*
X27194543Y21971335D01*
X27802789Y21970805D01*
X28364938Y22203080D01*
X28795408Y22632800D01*
X29028665Y23194543D01*
X29028667Y23197211D01*
X29470805Y23197211D01*
X29703080Y22635062D01*
X30132800Y22204592D01*
X30694543Y21971335D01*
X31302789Y21970805D01*
X31864938Y22203080D01*
X32295408Y22632800D01*
X32528665Y23194543D01*
X32528881Y23442533D01*
X33075210Y23442533D01*
X33075210Y22255287D01*
X33109432Y22172667D01*
X33172666Y22109432D01*
X33255286Y22075210D01*
X34442533Y22075210D01*
X34498730Y22131407D01*
X34498730Y23498730D01*
X34501270Y23498730D01*
X34501270Y22131407D01*
X34557467Y22075210D01*
X35744714Y22075210D01*
X35827334Y22109432D01*
X35890568Y22172667D01*
X35924790Y22255287D01*
X35924790Y23442533D01*
X35868593Y23498730D01*
X34501270Y23498730D01*
X34498730Y23498730D01*
X33131407Y23498730D01*
X33075210Y23442533D01*
X32528881Y23442533D01*
X32529195Y23802789D01*
X32296920Y24364938D01*
X31917807Y24744713D01*
X33075210Y24744713D01*
X33075210Y23557467D01*
X33131407Y23501270D01*
X34498730Y23501270D01*
X34498730Y24868593D01*
X34501270Y24868593D01*
X34501270Y23501270D01*
X35868593Y23501270D01*
X35924790Y23557467D01*
X35924790Y24744713D01*
X35890568Y24827333D01*
X35827334Y24890568D01*
X35744714Y24924790D01*
X34557467Y24924790D01*
X34501270Y24868593D01*
X34498730Y24868593D01*
X34442533Y24924790D01*
X33255286Y24924790D01*
X33172666Y24890568D01*
X33109432Y24827333D01*
X33075210Y24744713D01*
X31917807Y24744713D01*
X31867200Y24795408D01*
X31305457Y25028665D01*
X30697211Y25029195D01*
X30135062Y24796920D01*
X29704592Y24367200D01*
X29471335Y23805457D01*
X29470805Y23197211D01*
X29028667Y23197211D01*
X29029195Y23802789D01*
X28796920Y24364938D01*
X28367200Y24795408D01*
X27805457Y25028665D01*
X27197211Y25029195D01*
X26635062Y24796920D01*
X26204592Y24367200D01*
X25971335Y23805457D01*
X25970805Y23197211D01*
X25528667Y23197211D01*
X25529195Y23802789D01*
X25296920Y24364938D01*
X24867200Y24795408D01*
X24305457Y25028665D01*
X23697211Y25029195D01*
X23135062Y24796920D01*
X22704592Y24367200D01*
X22471335Y23805457D01*
X22470805Y23197211D01*
X22641688Y22783642D01*
X16237823Y16379777D01*
X16139423Y16232512D01*
X16139423Y16232511D01*
X16104870Y16058800D01*
X16104870Y11205527D01*
X16025930Y11126725D01*
X15929980Y10895651D01*
X15929762Y10645447D01*
X403930Y10645447D01*
X403930Y23197211D01*
X1470805Y23197211D01*
X1703080Y22635062D01*
X2132800Y22204592D01*
X2694543Y21971335D01*
X3302789Y21970805D01*
X3864938Y22203080D01*
X4295408Y22632800D01*
X4528665Y23194543D01*
X4528667Y23197211D01*
X4970805Y23197211D01*
X5203080Y22635062D01*
X5632800Y22204592D01*
X6194543Y21971335D01*
X6802789Y21970805D01*
X7364938Y22203080D01*
X7795408Y22632800D01*
X8028665Y23194543D01*
X8028667Y23197211D01*
X8470805Y23197211D01*
X8703080Y22635062D01*
X9132800Y22204592D01*
X9694543Y21971335D01*
X10302789Y21970805D01*
X10864938Y22203080D01*
X11295408Y22632800D01*
X11528665Y23194543D01*
X11528694Y23228940D01*
X11970805Y23228940D01*
X12203080Y22666791D01*
X12632800Y22236321D01*
X13194543Y22003064D01*
X13802789Y22002534D01*
X14364938Y22234809D01*
X14795408Y22664529D01*
X15016597Y23197211D01*
X15470805Y23197211D01*
X15703080Y22635062D01*
X16132800Y22204592D01*
X16694543Y21971335D01*
X17302789Y21970805D01*
X17864938Y22203080D01*
X18295408Y22632800D01*
X18528665Y23194543D01*
X18528667Y23197211D01*
X18970805Y23197211D01*
X19203080Y22635062D01*
X19632800Y22204592D01*
X20194543Y21971335D01*
X20802789Y21970805D01*
X21364938Y22203080D01*
X21795408Y22632800D01*
X22028665Y23194543D01*
X22029195Y23802789D01*
X21796920Y24364938D01*
X21367200Y24795408D01*
X20805457Y25028665D01*
X20197211Y25029195D01*
X19635062Y24796920D01*
X19204592Y24367200D01*
X18971335Y23805457D01*
X18970805Y23197211D01*
X18528667Y23197211D01*
X18529195Y23802789D01*
X18296920Y24364938D01*
X17867200Y24795408D01*
X17305457Y25028665D01*
X16697211Y25029195D01*
X16135062Y24796920D01*
X15704592Y24367200D01*
X15471335Y23805457D01*
X15470805Y23197211D01*
X15016597Y23197211D01*
X15028665Y23226272D01*
X15029195Y23834518D01*
X14796920Y24396667D01*
X14367200Y24827137D01*
X13805457Y25060394D01*
X13197211Y25060924D01*
X12635062Y24828649D01*
X12204592Y24398929D01*
X11971335Y23837186D01*
X11970805Y23228940D01*
X11528694Y23228940D01*
X11529195Y23802789D01*
X11296920Y24364938D01*
X10867200Y24795408D01*
X10305457Y25028665D01*
X9697211Y25029195D01*
X9135062Y24796920D01*
X8704592Y24367200D01*
X8471335Y23805457D01*
X8470805Y23197211D01*
X8028667Y23197211D01*
X8029195Y23802789D01*
X7796920Y24364938D01*
X7367200Y24795408D01*
X6805457Y25028665D01*
X6197211Y25029195D01*
X5635062Y24796920D01*
X5204592Y24367200D01*
X4971335Y23805457D01*
X4970805Y23197211D01*
X4528667Y23197211D01*
X4529195Y23802789D01*
X4296920Y24364938D01*
X3867200Y24795408D01*
X3305457Y25028665D01*
X2697211Y25029195D01*
X2135062Y24796920D01*
X1704592Y24367200D01*
X1471335Y23805457D01*
X1470805Y23197211D01*
X403930Y23197211D01*
X403930Y28096070D01*
X36596070Y28096070D01*
X36596070Y5818177D01*
M02*
