G04 #@! TF.FileFunction,Legend,Bot*
%FSLAX46Y46*%
G04 Gerber Fmt 4.6, Leading zero omitted, Abs format (unit mm)*
G04 Created by KiCad (PCBNEW 4.0.2-stable) date 21/05/2016 00:23:07*
%MOMM*%
G01*
G04 APERTURE LIST*
%ADD10C,0.100000*%
%ADD11C,0.150000*%
%ADD12C,0.002540*%
G04 APERTURE END LIST*
D10*
D11*
X0Y28500000D02*
X0Y3500000D01*
X37000000Y28500000D02*
X0Y28500000D01*
X37000000Y3500000D02*
X37000000Y28500000D01*
X3500000Y0D02*
X33500000Y0D01*
X33500000Y0D02*
G75*
G03X37000000Y3500000I0J3500000D01*
G01*
X0Y3500000D02*
G75*
G03X3500000Y0I3500000J0D01*
G01*
X12790000Y6890000D02*
X12690000Y6960000D01*
X12970000Y6890000D02*
X12790000Y6890000D01*
X13070000Y6960000D02*
X12970000Y6890000D01*
X13120000Y7100000D02*
X13070000Y6960000D01*
X13120000Y7680000D02*
X13120000Y7100000D01*
X13060000Y7830000D02*
X13120000Y7680000D01*
X12960000Y7900000D02*
X13060000Y7830000D01*
X12790000Y7900000D02*
X12960000Y7900000D01*
X12690000Y7810000D02*
X12790000Y7900000D01*
X12640000Y7680000D02*
X12690000Y7810000D01*
X12640000Y7410000D02*
X12640000Y7680000D01*
X13120000Y7410000D02*
X12640000Y7410000D01*
X13690000Y7890000D02*
X13690000Y6890000D01*
X13640000Y7750000D02*
X13690000Y7580000D01*
X13600000Y7810000D02*
X13640000Y7750000D01*
X13500000Y7890000D02*
X13600000Y7810000D01*
X13390000Y7890000D02*
X13500000Y7890000D01*
X15740000Y7900000D02*
X15550000Y6890000D01*
X15550000Y6890000D02*
X15360000Y7610000D01*
X15360000Y7610000D02*
X15170000Y6890000D01*
X15170000Y6890000D02*
X14970000Y7900000D01*
X16120000Y6970000D02*
X16210000Y6890000D01*
X16210000Y6890000D02*
X16400000Y6890000D01*
X16400000Y6890000D02*
X16470000Y6940000D01*
X16470000Y6940000D02*
X16540000Y7020000D01*
X16540000Y7020000D02*
X16600000Y7180000D01*
X16600000Y7180000D02*
X16600000Y7600000D01*
X16600000Y7600000D02*
X16550000Y7750000D01*
X16550000Y7750000D02*
X16480000Y7840000D01*
X16480000Y7840000D02*
X16400000Y7890000D01*
X16400000Y7890000D02*
X16220000Y7890000D01*
X16220000Y7890000D02*
X16120000Y7810000D01*
X16120000Y8390000D02*
X16120000Y6890000D01*
X16870000Y7890000D02*
X16980000Y7890000D01*
X16980000Y7890000D02*
X17080000Y7810000D01*
X17080000Y7810000D02*
X17120000Y7750000D01*
X17120000Y7750000D02*
X17170000Y7580000D01*
X17170000Y7890000D02*
X17170000Y6890000D01*
X14160000Y7680000D02*
X14160000Y6890000D01*
X14220000Y7830000D02*
X14160000Y7680000D01*
X14310000Y7900000D02*
X14220000Y7830000D01*
X14490000Y7900000D02*
X14310000Y7900000D01*
X14600000Y7820000D02*
X14490000Y7900000D01*
X14640000Y7120000D02*
X14600000Y6980000D01*
X14640000Y7250000D02*
X14640000Y7120000D01*
X14590000Y7390000D02*
X14640000Y7250000D01*
X14490000Y7470000D02*
X14590000Y7390000D01*
X14250000Y7470000D02*
X14490000Y7470000D01*
X14160000Y7540000D02*
X14250000Y7470000D01*
X14260000Y6890000D02*
X14160000Y6970000D01*
X14490000Y6890000D02*
X14260000Y6890000D01*
X14600000Y6980000D02*
X14490000Y6890000D01*
X18080000Y6980000D02*
X17970000Y6890000D01*
X17970000Y6890000D02*
X17740000Y6890000D01*
X17740000Y6890000D02*
X17640000Y6970000D01*
X17640000Y7540000D02*
X17730000Y7470000D01*
X17730000Y7470000D02*
X17970000Y7470000D01*
X17970000Y7470000D02*
X18070000Y7390000D01*
X18070000Y7390000D02*
X18120000Y7250000D01*
X18120000Y7250000D02*
X18120000Y7120000D01*
X18120000Y7120000D02*
X18080000Y6980000D01*
X18080000Y7820000D02*
X17970000Y7900000D01*
X17970000Y7900000D02*
X17790000Y7900000D01*
X17790000Y7900000D02*
X17700000Y7830000D01*
X17700000Y7830000D02*
X17640000Y7680000D01*
X17640000Y7680000D02*
X17640000Y6890000D01*
X18980000Y6890000D02*
X18980000Y8390000D01*
X18920000Y7830000D02*
X18980000Y7760000D01*
X18840000Y7890000D02*
X18920000Y7830000D01*
X18700000Y7890000D02*
X18840000Y7890000D01*
X18600000Y7820000D02*
X18700000Y7890000D01*
X18550000Y7670000D02*
X18600000Y7820000D01*
X18550000Y6890000D02*
X18550000Y7670000D01*
X20210000Y6890000D02*
X20210000Y7670000D01*
X20210000Y7670000D02*
X20260000Y7820000D01*
X20260000Y7820000D02*
X20360000Y7890000D01*
X20360000Y7890000D02*
X20500000Y7890000D01*
X20500000Y7890000D02*
X20580000Y7830000D01*
X20580000Y7830000D02*
X20640000Y7760000D01*
X20640000Y7890000D02*
X20640000Y6890000D01*
X21550000Y7410000D02*
X21070000Y7410000D01*
X21070000Y7410000D02*
X21070000Y7680000D01*
X21070000Y7680000D02*
X21120000Y7810000D01*
X21120000Y7810000D02*
X21220000Y7900000D01*
X21220000Y7900000D02*
X21390000Y7900000D01*
X21390000Y7900000D02*
X21490000Y7830000D01*
X21490000Y7830000D02*
X21550000Y7680000D01*
X21550000Y7680000D02*
X21550000Y7100000D01*
X21550000Y7100000D02*
X21500000Y6960000D01*
X21500000Y6960000D02*
X21400000Y6890000D01*
X21400000Y6890000D02*
X21220000Y6890000D01*
X21220000Y6890000D02*
X21120000Y6960000D01*
X22410000Y7900000D02*
X22410000Y6390000D01*
X22300000Y7900000D02*
X22120000Y7900000D01*
X22300000Y6900000D02*
X22110000Y6900000D01*
X22300000Y7900000D02*
X22380000Y7840000D01*
X22030000Y7830000D02*
X22120000Y7900000D01*
X21980000Y7760000D02*
X22030000Y7830000D01*
X21930000Y7600000D02*
X21980000Y7760000D01*
X21930000Y7190000D02*
X21930000Y7600000D01*
X21980000Y7050000D02*
X21930000Y7190000D01*
X22020000Y6980000D02*
X21980000Y7050000D01*
X22120000Y6900000D02*
X22020000Y6980000D01*
X22400000Y6970000D02*
X22300000Y6900000D01*
X23360000Y7600000D02*
X23360000Y7190000D01*
X23360000Y7190000D02*
X23310000Y7050000D01*
X23310000Y7050000D02*
X23260000Y6960000D01*
X23260000Y6960000D02*
X23160000Y6890000D01*
X23160000Y6890000D02*
X23020000Y6890000D01*
X23020000Y6890000D02*
X22920000Y6970000D01*
X22920000Y6970000D02*
X22880000Y7040000D01*
X22880000Y7040000D02*
X22830000Y7180000D01*
X22830000Y7180000D02*
X22830000Y7590000D01*
X22830000Y7590000D02*
X22880000Y7750000D01*
X22880000Y7750000D02*
X22930000Y7820000D01*
X22930000Y7820000D02*
X23020000Y7890000D01*
X23020000Y7890000D02*
X23170000Y7890000D01*
X23170000Y7890000D02*
X23250000Y7830000D01*
X23250000Y7830000D02*
X23310000Y7750000D01*
X23310000Y7750000D02*
X23360000Y7600000D01*
D12*
G36*
X21637280Y8610120D02*
X21573780Y8643140D01*
X21434080Y8732040D01*
X21233420Y8861580D01*
X20997200Y9021600D01*
X20758440Y9181620D01*
X20562860Y9313700D01*
X20425700Y9400060D01*
X20369820Y9433080D01*
X20339340Y9422920D01*
X20225040Y9367040D01*
X20062480Y9280680D01*
X19965960Y9232420D01*
X19816100Y9166380D01*
X19742440Y9153680D01*
X19729740Y9174000D01*
X19673860Y9290840D01*
X19587500Y9486420D01*
X19473200Y9748040D01*
X19343660Y10050300D01*
X19206500Y10380500D01*
X19066800Y10715780D01*
X18934720Y11033280D01*
X18815340Y11320300D01*
X18721360Y11553980D01*
X18660400Y11716540D01*
X18637540Y11787660D01*
X18645160Y11802900D01*
X18718820Y11874020D01*
X18850900Y11973080D01*
X19135380Y12204220D01*
X19414780Y12554740D01*
X19584960Y12950980D01*
X19643380Y13392940D01*
X19595120Y13801880D01*
X19432560Y14195580D01*
X19158240Y14548640D01*
X18825500Y14812800D01*
X18436880Y14977900D01*
X18000000Y15033780D01*
X17580900Y14985520D01*
X17179580Y14828040D01*
X16826520Y14558800D01*
X16676660Y14386080D01*
X16470920Y14027940D01*
X16354080Y13641860D01*
X16341380Y13545340D01*
X16359160Y13123700D01*
X16483620Y12719840D01*
X16704600Y12359160D01*
X17014480Y12061980D01*
X17052580Y12034040D01*
X17197360Y11927360D01*
X17291340Y11853700D01*
X17367540Y11792740D01*
X16831600Y10499880D01*
X16745240Y10294140D01*
X16597920Y9943620D01*
X16468380Y9638820D01*
X16364240Y9394980D01*
X16293120Y9234960D01*
X16262640Y9168920D01*
X16257560Y9166380D01*
X16211840Y9158760D01*
X16112780Y9194320D01*
X15932440Y9280680D01*
X15813060Y9341640D01*
X15675900Y9407680D01*
X15614940Y9433080D01*
X15561600Y9405140D01*
X15429520Y9318780D01*
X15239020Y9189240D01*
X15007880Y9034300D01*
X14786900Y8884440D01*
X14583700Y8749820D01*
X14436380Y8655840D01*
X14365260Y8617740D01*
X14355100Y8617740D01*
X14291600Y8653300D01*
X14174760Y8749820D01*
X13999500Y8917460D01*
X13750580Y9161300D01*
X13712480Y9199400D01*
X13506740Y9407680D01*
X13341640Y9582940D01*
X13229880Y9707400D01*
X13189240Y9763280D01*
X13189240Y9763280D01*
X13227340Y9834400D01*
X13318780Y9981720D01*
X13453400Y10184920D01*
X13615960Y10426220D01*
X14045220Y11045980D01*
X13809000Y11632720D01*
X13737880Y11813060D01*
X13646440Y12031500D01*
X13577860Y12186440D01*
X13542300Y12255020D01*
X13478800Y12277880D01*
X13318780Y12315980D01*
X13085100Y12364240D01*
X12808240Y12415040D01*
X12544080Y12463300D01*
X12305320Y12509020D01*
X12132600Y12542040D01*
X12053860Y12557280D01*
X12036080Y12569980D01*
X12020840Y12608080D01*
X12010680Y12689360D01*
X12005600Y12834140D01*
X12000520Y13062740D01*
X12000520Y13392940D01*
X12000520Y13428500D01*
X12005600Y13743460D01*
X12010680Y13994920D01*
X12018300Y14160020D01*
X12031000Y14226060D01*
X12031000Y14226060D01*
X12104660Y14243840D01*
X12274840Y14279400D01*
X12513600Y14327660D01*
X12798080Y14381000D01*
X12815860Y14383540D01*
X13100340Y14439420D01*
X13336560Y14487680D01*
X13504200Y14525780D01*
X13572780Y14548640D01*
X13588020Y14568960D01*
X13646440Y14680720D01*
X13727720Y14855980D01*
X13821700Y15069340D01*
X13913140Y15292860D01*
X13994420Y15493520D01*
X14047760Y15643380D01*
X14063000Y15711960D01*
X14063000Y15711960D01*
X14019820Y15780540D01*
X13923300Y15927860D01*
X13783600Y16131060D01*
X13618500Y16372360D01*
X13605800Y16392680D01*
X13443240Y16631440D01*
X13311160Y16834640D01*
X13222260Y16979420D01*
X13189240Y17042920D01*
X13189240Y17048000D01*
X13245120Y17119120D01*
X13367040Y17256280D01*
X13542300Y17439160D01*
X13750580Y17649980D01*
X13819160Y17716020D01*
X14050300Y17944620D01*
X14212860Y18091940D01*
X14314460Y18173220D01*
X14362720Y18191000D01*
X14365260Y18188460D01*
X14436380Y18145280D01*
X14588780Y18046220D01*
X14794520Y17906520D01*
X15038360Y17741420D01*
X15053600Y17731260D01*
X15294900Y17568700D01*
X15493020Y17431540D01*
X15635260Y17337560D01*
X15698760Y17302000D01*
X15708920Y17302000D01*
X15805440Y17329940D01*
X15975620Y17388360D01*
X16186440Y17469640D01*
X16407420Y17558540D01*
X16610620Y17644900D01*
X16760480Y17713480D01*
X16831600Y17754120D01*
X16834140Y17756660D01*
X16859540Y17843020D01*
X16900180Y18023360D01*
X16953520Y18269740D01*
X17006860Y18564380D01*
X17017020Y18610100D01*
X17070360Y18897120D01*
X17116080Y19133340D01*
X17151640Y19295900D01*
X17166880Y19364480D01*
X17207520Y19372100D01*
X17347220Y19382260D01*
X17560580Y19389880D01*
X17819660Y19392420D01*
X18091440Y19389880D01*
X18355600Y19384800D01*
X18581660Y19377180D01*
X18744220Y19364480D01*
X18812800Y19351780D01*
X18815340Y19346700D01*
X18838200Y19257800D01*
X18878840Y19080000D01*
X18929640Y18831080D01*
X18985520Y18536440D01*
X18995680Y18483100D01*
X19049020Y18198620D01*
X19097280Y17964940D01*
X19132840Y17804920D01*
X19150620Y17741420D01*
X19176020Y17728720D01*
X19292860Y17675380D01*
X19483360Y17596640D01*
X19722120Y17500120D01*
X20270760Y17279140D01*
X20943860Y17741420D01*
X21004820Y17782060D01*
X21248660Y17947160D01*
X21446780Y18079240D01*
X21586480Y18168140D01*
X21642360Y18201160D01*
X21647440Y18198620D01*
X21716020Y18140200D01*
X21848100Y18015740D01*
X22030980Y17837940D01*
X22241800Y17627120D01*
X22399280Y17469640D01*
X22584700Y17281680D01*
X22701540Y17154680D01*
X22767580Y17073400D01*
X22790440Y17022600D01*
X22782820Y16989580D01*
X22739640Y16921000D01*
X22640580Y16773680D01*
X22503420Y16567940D01*
X22338320Y16331720D01*
X22203700Y16131060D01*
X22056380Y15905000D01*
X21962400Y15744980D01*
X21929380Y15666240D01*
X21937000Y15633220D01*
X21985260Y15501140D01*
X22064000Y15300480D01*
X22165600Y15064260D01*
X22399280Y14530860D01*
X22749800Y14464820D01*
X22960620Y14424180D01*
X23257800Y14365760D01*
X23542280Y14312420D01*
X23984240Y14226060D01*
X23999480Y12600460D01*
X23930900Y12569980D01*
X23864860Y12552200D01*
X23702300Y12516640D01*
X23468620Y12470920D01*
X23191760Y12417580D01*
X22955540Y12374400D01*
X22719320Y12328680D01*
X22549140Y12295660D01*
X22472940Y12280420D01*
X22455160Y12255020D01*
X22394200Y12138180D01*
X22310380Y11957840D01*
X22216400Y11736860D01*
X22122420Y11510800D01*
X22038600Y11299980D01*
X21980180Y11139960D01*
X21957320Y11056140D01*
X21990340Y10995180D01*
X22079240Y10855480D01*
X22211320Y10657360D01*
X22371340Y10421140D01*
X22533900Y10184920D01*
X22668520Y9984260D01*
X22765040Y9839480D01*
X22803140Y9773440D01*
X22782820Y9727720D01*
X22688840Y9613420D01*
X22511040Y9430540D01*
X22246880Y9168920D01*
X22203700Y9125740D01*
X21992880Y8925080D01*
X21815080Y8759980D01*
X21693160Y8650760D01*
X21637280Y8610120D01*
X21637280Y8610120D01*
G37*
X21637280Y8610120D02*
X21573780Y8643140D01*
X21434080Y8732040D01*
X21233420Y8861580D01*
X20997200Y9021600D01*
X20758440Y9181620D01*
X20562860Y9313700D01*
X20425700Y9400060D01*
X20369820Y9433080D01*
X20339340Y9422920D01*
X20225040Y9367040D01*
X20062480Y9280680D01*
X19965960Y9232420D01*
X19816100Y9166380D01*
X19742440Y9153680D01*
X19729740Y9174000D01*
X19673860Y9290840D01*
X19587500Y9486420D01*
X19473200Y9748040D01*
X19343660Y10050300D01*
X19206500Y10380500D01*
X19066800Y10715780D01*
X18934720Y11033280D01*
X18815340Y11320300D01*
X18721360Y11553980D01*
X18660400Y11716540D01*
X18637540Y11787660D01*
X18645160Y11802900D01*
X18718820Y11874020D01*
X18850900Y11973080D01*
X19135380Y12204220D01*
X19414780Y12554740D01*
X19584960Y12950980D01*
X19643380Y13392940D01*
X19595120Y13801880D01*
X19432560Y14195580D01*
X19158240Y14548640D01*
X18825500Y14812800D01*
X18436880Y14977900D01*
X18000000Y15033780D01*
X17580900Y14985520D01*
X17179580Y14828040D01*
X16826520Y14558800D01*
X16676660Y14386080D01*
X16470920Y14027940D01*
X16354080Y13641860D01*
X16341380Y13545340D01*
X16359160Y13123700D01*
X16483620Y12719840D01*
X16704600Y12359160D01*
X17014480Y12061980D01*
X17052580Y12034040D01*
X17197360Y11927360D01*
X17291340Y11853700D01*
X17367540Y11792740D01*
X16831600Y10499880D01*
X16745240Y10294140D01*
X16597920Y9943620D01*
X16468380Y9638820D01*
X16364240Y9394980D01*
X16293120Y9234960D01*
X16262640Y9168920D01*
X16257560Y9166380D01*
X16211840Y9158760D01*
X16112780Y9194320D01*
X15932440Y9280680D01*
X15813060Y9341640D01*
X15675900Y9407680D01*
X15614940Y9433080D01*
X15561600Y9405140D01*
X15429520Y9318780D01*
X15239020Y9189240D01*
X15007880Y9034300D01*
X14786900Y8884440D01*
X14583700Y8749820D01*
X14436380Y8655840D01*
X14365260Y8617740D01*
X14355100Y8617740D01*
X14291600Y8653300D01*
X14174760Y8749820D01*
X13999500Y8917460D01*
X13750580Y9161300D01*
X13712480Y9199400D01*
X13506740Y9407680D01*
X13341640Y9582940D01*
X13229880Y9707400D01*
X13189240Y9763280D01*
X13189240Y9763280D01*
X13227340Y9834400D01*
X13318780Y9981720D01*
X13453400Y10184920D01*
X13615960Y10426220D01*
X14045220Y11045980D01*
X13809000Y11632720D01*
X13737880Y11813060D01*
X13646440Y12031500D01*
X13577860Y12186440D01*
X13542300Y12255020D01*
X13478800Y12277880D01*
X13318780Y12315980D01*
X13085100Y12364240D01*
X12808240Y12415040D01*
X12544080Y12463300D01*
X12305320Y12509020D01*
X12132600Y12542040D01*
X12053860Y12557280D01*
X12036080Y12569980D01*
X12020840Y12608080D01*
X12010680Y12689360D01*
X12005600Y12834140D01*
X12000520Y13062740D01*
X12000520Y13392940D01*
X12000520Y13428500D01*
X12005600Y13743460D01*
X12010680Y13994920D01*
X12018300Y14160020D01*
X12031000Y14226060D01*
X12031000Y14226060D01*
X12104660Y14243840D01*
X12274840Y14279400D01*
X12513600Y14327660D01*
X12798080Y14381000D01*
X12815860Y14383540D01*
X13100340Y14439420D01*
X13336560Y14487680D01*
X13504200Y14525780D01*
X13572780Y14548640D01*
X13588020Y14568960D01*
X13646440Y14680720D01*
X13727720Y14855980D01*
X13821700Y15069340D01*
X13913140Y15292860D01*
X13994420Y15493520D01*
X14047760Y15643380D01*
X14063000Y15711960D01*
X14063000Y15711960D01*
X14019820Y15780540D01*
X13923300Y15927860D01*
X13783600Y16131060D01*
X13618500Y16372360D01*
X13605800Y16392680D01*
X13443240Y16631440D01*
X13311160Y16834640D01*
X13222260Y16979420D01*
X13189240Y17042920D01*
X13189240Y17048000D01*
X13245120Y17119120D01*
X13367040Y17256280D01*
X13542300Y17439160D01*
X13750580Y17649980D01*
X13819160Y17716020D01*
X14050300Y17944620D01*
X14212860Y18091940D01*
X14314460Y18173220D01*
X14362720Y18191000D01*
X14365260Y18188460D01*
X14436380Y18145280D01*
X14588780Y18046220D01*
X14794520Y17906520D01*
X15038360Y17741420D01*
X15053600Y17731260D01*
X15294900Y17568700D01*
X15493020Y17431540D01*
X15635260Y17337560D01*
X15698760Y17302000D01*
X15708920Y17302000D01*
X15805440Y17329940D01*
X15975620Y17388360D01*
X16186440Y17469640D01*
X16407420Y17558540D01*
X16610620Y17644900D01*
X16760480Y17713480D01*
X16831600Y17754120D01*
X16834140Y17756660D01*
X16859540Y17843020D01*
X16900180Y18023360D01*
X16953520Y18269740D01*
X17006860Y18564380D01*
X17017020Y18610100D01*
X17070360Y18897120D01*
X17116080Y19133340D01*
X17151640Y19295900D01*
X17166880Y19364480D01*
X17207520Y19372100D01*
X17347220Y19382260D01*
X17560580Y19389880D01*
X17819660Y19392420D01*
X18091440Y19389880D01*
X18355600Y19384800D01*
X18581660Y19377180D01*
X18744220Y19364480D01*
X18812800Y19351780D01*
X18815340Y19346700D01*
X18838200Y19257800D01*
X18878840Y19080000D01*
X18929640Y18831080D01*
X18985520Y18536440D01*
X18995680Y18483100D01*
X19049020Y18198620D01*
X19097280Y17964940D01*
X19132840Y17804920D01*
X19150620Y17741420D01*
X19176020Y17728720D01*
X19292860Y17675380D01*
X19483360Y17596640D01*
X19722120Y17500120D01*
X20270760Y17279140D01*
X20943860Y17741420D01*
X21004820Y17782060D01*
X21248660Y17947160D01*
X21446780Y18079240D01*
X21586480Y18168140D01*
X21642360Y18201160D01*
X21647440Y18198620D01*
X21716020Y18140200D01*
X21848100Y18015740D01*
X22030980Y17837940D01*
X22241800Y17627120D01*
X22399280Y17469640D01*
X22584700Y17281680D01*
X22701540Y17154680D01*
X22767580Y17073400D01*
X22790440Y17022600D01*
X22782820Y16989580D01*
X22739640Y16921000D01*
X22640580Y16773680D01*
X22503420Y16567940D01*
X22338320Y16331720D01*
X22203700Y16131060D01*
X22056380Y15905000D01*
X21962400Y15744980D01*
X21929380Y15666240D01*
X21937000Y15633220D01*
X21985260Y15501140D01*
X22064000Y15300480D01*
X22165600Y15064260D01*
X22399280Y14530860D01*
X22749800Y14464820D01*
X22960620Y14424180D01*
X23257800Y14365760D01*
X23542280Y14312420D01*
X23984240Y14226060D01*
X23999480Y12600460D01*
X23930900Y12569980D01*
X23864860Y12552200D01*
X23702300Y12516640D01*
X23468620Y12470920D01*
X23191760Y12417580D01*
X22955540Y12374400D01*
X22719320Y12328680D01*
X22549140Y12295660D01*
X22472940Y12280420D01*
X22455160Y12255020D01*
X22394200Y12138180D01*
X22310380Y11957840D01*
X22216400Y11736860D01*
X22122420Y11510800D01*
X22038600Y11299980D01*
X21980180Y11139960D01*
X21957320Y11056140D01*
X21990340Y10995180D01*
X22079240Y10855480D01*
X22211320Y10657360D01*
X22371340Y10421140D01*
X22533900Y10184920D01*
X22668520Y9984260D01*
X22765040Y9839480D01*
X22803140Y9773440D01*
X22782820Y9727720D01*
X22688840Y9613420D01*
X22511040Y9430540D01*
X22246880Y9168920D01*
X22203700Y9125740D01*
X21992880Y8925080D01*
X21815080Y8759980D01*
X21693160Y8650760D01*
X21637280Y8610120D01*
M02*
