G04 #@! TF.FileFunction,Copper,L1,Top,Signal*
%FSLAX46Y46*%
G04 Gerber Fmt 4.6, Leading zero omitted, Abs format (unit mm)*
G04 Created by KiCad (PCBNEW 4.0.2-stable) date 21/05/2016 00:23:07*
%MOMM*%
G01*
G04 APERTURE LIST*
%ADD10C,0.100000*%
%ADD11C,0.150000*%
%ADD12C,2.400000*%
%ADD13R,2.400000X2.400000*%
%ADD14C,7.000000*%
%ADD15R,2.790000X0.740000*%
%ADD16C,0.600000*%
%ADD17C,0.250000*%
G04 APERTURE END LIST*
D10*
D11*
X0Y28500000D02*
X0Y3500000D01*
X37000000Y28500000D02*
X0Y28500000D01*
X37000000Y3500000D02*
X37000000Y28500000D01*
X3500000Y0D02*
X33500000Y0D01*
X33500000Y0D02*
G75*
G03X37000000Y3500000I0J3500000D01*
G01*
X0Y3500000D02*
G75*
G03X3500000Y0I3500000J0D01*
G01*
D12*
X27500000Y23500000D03*
X31000000Y23500000D03*
X24000000Y23500000D03*
X20500000Y23500000D03*
X17000000Y23500000D03*
X13500000Y23531729D03*
D13*
X34500000Y23500000D03*
D12*
X10000000Y23500000D03*
X6500000Y23500000D03*
X3000000Y23500000D03*
D14*
X3500000Y3500000D03*
X33500000Y3500000D03*
D15*
X9340000Y10770000D03*
X14660000Y10770000D03*
X9340000Y9500000D03*
X14660000Y9500000D03*
X14660000Y6960000D03*
X9340000Y6960000D03*
X14660000Y8230000D03*
X9340000Y8230000D03*
X9340000Y12040000D03*
X14660000Y12040000D03*
X22340000Y10770000D03*
X27660000Y10770000D03*
X22340000Y9500000D03*
X27660000Y9500000D03*
X27660000Y6960000D03*
X22340000Y6960000D03*
X27660000Y8230000D03*
X22340000Y8230000D03*
X22340000Y12040000D03*
X27660000Y12040000D03*
D16*
X16558800Y10770000D03*
D17*
X9340000Y10770000D02*
X11060300Y10770000D01*
X24060300Y20060300D02*
X24060300Y10770000D01*
X27500000Y23500000D02*
X24060300Y20060300D01*
X22340000Y10770000D02*
X24060300Y10770000D01*
X22340000Y10770000D02*
X20619700Y10770000D01*
X11588700Y11298400D02*
X11060300Y10770000D01*
X11588700Y13156900D02*
X11588700Y11298400D01*
X12518100Y14086300D02*
X11588700Y13156900D01*
X17303400Y14086300D02*
X12518100Y14086300D01*
X20619700Y10770000D02*
X17303400Y14086300D01*
X26022000Y25522000D02*
X24000000Y23500000D01*
X35338200Y25522000D02*
X26022000Y25522000D01*
X36025400Y24834800D02*
X35338200Y25522000D01*
X36025400Y17415100D02*
X36025400Y24834800D01*
X29380300Y10770000D02*
X36025400Y17415100D01*
X27660000Y10770000D02*
X29380300Y10770000D01*
X14660000Y10770000D02*
X16380300Y10770000D01*
X16380300Y10770000D02*
X16558800Y10770000D01*
X8384900Y9500000D02*
X9340000Y9500000D01*
X7619700Y10265200D02*
X8384900Y9500000D01*
X7619700Y12601200D02*
X7619700Y10265200D01*
X8520200Y13501700D02*
X7619700Y12601200D01*
X10501700Y13501700D02*
X8520200Y13501700D01*
X20500000Y23500000D02*
X10501700Y13501700D01*
X22340000Y9500000D02*
X20619700Y9500000D01*
X9340000Y9500000D02*
X11060300Y9500000D01*
X12039000Y10478700D02*
X11060300Y9500000D01*
X12039000Y12970300D02*
X12039000Y10478700D01*
X12704700Y13636000D02*
X12039000Y12970300D01*
X16585900Y13636000D02*
X12704700Y13636000D01*
X20619700Y9602200D02*
X16585900Y13636000D01*
X20619700Y9500000D02*
X20619700Y9602200D01*
X19472300Y25972300D02*
X17000000Y23500000D01*
X35524800Y25972300D02*
X19472300Y25972300D01*
X36475700Y25021400D02*
X35524800Y25972300D01*
X36475700Y16595400D02*
X36475700Y25021400D01*
X29380300Y9500000D02*
X36475700Y16595400D01*
X28520200Y9500000D02*
X29380300Y9500000D01*
X28520200Y9500000D02*
X27660000Y9500000D01*
X27660000Y9500000D02*
X25939700Y9500000D01*
X14660000Y9500000D02*
X16380300Y9500000D01*
X24735700Y8296000D02*
X25939700Y9500000D01*
X24735700Y6493600D02*
X24735700Y8296000D01*
X24056400Y5814300D02*
X24735700Y6493600D01*
X20066000Y5814300D02*
X24056400Y5814300D01*
X16380300Y9500000D02*
X20066000Y5814300D01*
X14660000Y6960000D02*
X12939700Y6960000D01*
X11794100Y5814400D02*
X12939700Y6960000D01*
X7577400Y5814400D02*
X11794100Y5814400D01*
X3000000Y10391800D02*
X7577400Y5814400D01*
X3000000Y23500000D02*
X3000000Y10391800D01*
X27660000Y6960000D02*
X25939700Y6960000D01*
X14660000Y6960000D02*
X16380300Y6960000D01*
X25939700Y6423800D02*
X25939700Y6960000D01*
X24429600Y4913700D02*
X25939700Y6423800D01*
X18426600Y4913700D02*
X24429600Y4913700D01*
X16380300Y6960000D02*
X18426600Y4913700D01*
X6500000Y8831600D02*
X6500000Y23500000D01*
X8371600Y6960000D02*
X6500000Y8831600D01*
X9340000Y6960000D02*
X8371600Y6960000D01*
X22340000Y6960000D02*
X20619700Y6960000D01*
X10431100Y6960000D02*
X9340000Y6960000D01*
X12939600Y9468500D02*
X10431100Y6960000D01*
X12939600Y12597100D02*
X12939600Y9468500D01*
X13077900Y12735400D02*
X12939600Y12597100D01*
X16201100Y12735400D02*
X13077900Y12735400D01*
X18272000Y10664500D02*
X16201100Y12735400D01*
X18272000Y9307700D02*
X18272000Y10664500D01*
X20619700Y6960000D02*
X18272000Y9307700D01*
X27660000Y8230000D02*
X25939700Y8230000D01*
X15520200Y8230000D02*
X16380300Y8230000D01*
X15520200Y8230000D02*
X14660000Y8230000D01*
X8463300Y25036700D02*
X10000000Y23500000D01*
X5817500Y25036700D02*
X8463300Y25036700D01*
X4956600Y24175800D02*
X5817500Y25036700D01*
X4956600Y9072100D02*
X4956600Y24175800D01*
X7764000Y6264700D02*
X4956600Y9072100D01*
X10974400Y6264700D02*
X7764000Y6264700D01*
X12939700Y8230000D02*
X10974400Y6264700D01*
X14660000Y8230000D02*
X12939700Y8230000D01*
X25186100Y7476400D02*
X25939700Y8230000D01*
X25186100Y6307100D02*
X25186100Y7476400D01*
X24243000Y5364000D02*
X25186100Y6307100D01*
X19246300Y5364000D02*
X24243000Y5364000D01*
X16380300Y8230000D02*
X19246300Y5364000D01*
X8337400Y8230000D02*
X9340000Y8230000D01*
X7169300Y9398100D02*
X8337400Y8230000D01*
X7169300Y17201000D02*
X7169300Y9398100D01*
X13500000Y23531700D02*
X7169300Y17201000D01*
X22340000Y8230000D02*
X20619700Y8230000D01*
X9340000Y8230000D02*
X11060300Y8230000D01*
X12489300Y9659000D02*
X11060300Y8230000D01*
X12489300Y12783700D02*
X12489300Y9659000D01*
X12891300Y13185700D02*
X12489300Y12783700D01*
X16393300Y13185700D02*
X12891300Y13185700D01*
X18722400Y10856600D02*
X16393300Y13185700D01*
X18722400Y10127300D02*
X18722400Y10856600D01*
X20619700Y8230000D02*
X18722400Y10127300D01*
X22340000Y12040000D02*
X20619700Y12040000D01*
X9340000Y12040000D02*
X11060300Y12040000D01*
X34500000Y23500000D02*
X32974700Y23500000D01*
X11060300Y13265400D02*
X11060300Y12040000D01*
X12331500Y14536600D02*
X11060300Y13265400D01*
X19023800Y14536600D02*
X12331500Y14536600D01*
X19023800Y13635900D02*
X19023800Y14536600D01*
X20619700Y12040000D02*
X19023800Y13635900D01*
X32974700Y23690800D02*
X32974700Y23500000D01*
X31640200Y25025300D02*
X32974700Y23690800D01*
X26851100Y25025300D02*
X31640200Y25025300D01*
X25750100Y23924300D02*
X26851100Y25025300D01*
X25750100Y22823100D02*
X25750100Y23924300D01*
X19023800Y16096800D02*
X25750100Y22823100D01*
X19023800Y14536600D02*
X19023800Y16096800D01*
X16174800Y12040000D02*
X14660000Y12040000D01*
X17821700Y10393100D02*
X16174800Y12040000D01*
X17821700Y9121000D02*
X17821700Y10393100D01*
X20678100Y6264600D02*
X17821700Y9121000D01*
X23869800Y6264600D02*
X20678100Y6264600D01*
X24126300Y6521100D02*
X23869800Y6264600D01*
X24126300Y9564300D02*
X24126300Y6521100D01*
X25939700Y11377700D02*
X24126300Y9564300D01*
X25939700Y12040000D02*
X25939700Y11377700D01*
X27660000Y12040000D02*
X26799900Y12040000D01*
X26799900Y12040000D02*
X25939700Y12040000D01*
X26799900Y19299900D02*
X31000000Y23500000D01*
X26799900Y12040000D02*
X26799900Y19299900D01*
M02*
