  0
SECTION
  2
HEADER
  9
$ANGBASE
  50
0.0
  9
$ANGDIR
  70
  1
  9
$MEASUREMENT
  70
0
  0
ENDSEC
  0
SECTION
  2
TABLES
  0
TABLE
  2
LTYPE
  70
1
  0
LTYPE
  2
CONTINUOUS
  70
0
  3
Solid line
  72
65
  73
0
  40
0.0
  0
ENDTAB
  0
TABLE
  2
STYLE
  70
4
  0
STYLE
  2
KICAD
  70
0
  40
0
  41
1
  42
1
  50
0
  71
0
  3
isocp.shx
  0
STYLE
  2
KICADB
  70
0
  40
0
  41
1
  42
1
  50
0
  71
0
  3
isocp.shx
  0
STYLE
  2
KICADI
  70
0
  40
0
  41
1
  42
1
  50
15
  71
0
  3
isocp.shx
  0
STYLE
  2
KICADBI
  70
0
  40
0
  41
1
  42
1
  50
15
  71
0
  3
isocp.shx
  0
ENDTAB
  0
TABLE
  2
LAYER
  70
30
  0
LAYER
  2
BLACK
  70
0
  62
7
  6
CONTINUOUS
  0
LAYER
  2
GRAY1
  70
0
  62
251
  6
CONTINUOUS
  0
LAYER
  2
GRAY2
  70
0
  62
8
  6
CONTINUOUS
  0
LAYER
  2
GRAY3
  70
0
  62
9
  6
CONTINUOUS
  0
LAYER
  2
WHITE
  70
0
  62
7
  6
CONTINUOUS
  0
LAYER
  2
LYELLOW
  70
0
  62
51
  6
CONTINUOUS
  0
LAYER
  2
BLUE1
  70
0
  62
178
  6
CONTINUOUS
  0
LAYER
  2
GREEN1
  70
0
  62
98
  6
CONTINUOUS
  0
LAYER
  2
CYAN1
  70
0
  62
138
  6
CONTINUOUS
  0
LAYER
  2
RED1
  70
0
  62
18
  6
CONTINUOUS
  0
LAYER
  2
MAGENTA1
  70
0
  62
228
  6
CONTINUOUS
  0
LAYER
  2
BROWN1
  70
0
  62
58
  6
CONTINUOUS
  0
LAYER
  2
BLUE2
  70
0
  62
5
  6
CONTINUOUS
  0
LAYER
  2
GREEN2
  70
0
  62
3
  6
CONTINUOUS
  0
LAYER
  2
CYAN2
  70
0
  62
4
  6
CONTINUOUS
  0
LAYER
  2
RED2
  70
0
  62
1
  6
CONTINUOUS
  0
LAYER
  2
MAGENTA2
  70
0
  62
6
  6
CONTINUOUS
  0
LAYER
  2
BROWN2
  70
0
  62
54
  6
CONTINUOUS
  0
LAYER
  2
BLUE3
  70
0
  62
171
  6
CONTINUOUS
  0
LAYER
  2
GREEN3
  70
0
  62
91
  6
CONTINUOUS
  0
LAYER
  2
CYAN3
  70
0
  62
131
  6
CONTINUOUS
  0
LAYER
  2
RED3
  70
0
  62
11
  6
CONTINUOUS
  0
LAYER
  2
MAGENTA3
  70
0
  62
221
  6
CONTINUOUS
  0
LAYER
  2
YELLOW3
  70
0
  62
2
  6
CONTINUOUS
  0
LAYER
  2
BLUE4
  70
0
  62
5
  6
CONTINUOUS
  0
LAYER
  2
GREEN4
  70
0
  62
3
  6
CONTINUOUS
  0
LAYER
  2
CYAN4
  70
0
  62
4
  6
CONTINUOUS
  0
LAYER
  2
RED4
  70
0
  62
1
  6
CONTINUOUS
  0
LAYER
  2
MAGENTA4
  70
0
  62
6
  6
CONTINUOUS
  0
LAYER
  2
YELLOW4
  70
0
  62
2
  6
CONTINUOUS
  0
ENDTAB
  0
ENDSEC
  0
SECTION
  2
ENTITIES
0
LINE
8
Black
10
-71.2998
20
11.2322
11
-71.3264
21
11.2546
0
LINE
8
Black
10
-71.3264
20
11.2546
11
-71.3264
21
11.2546
0
LINE
8
Black
10
-71.3264
20
11.2546
11
-72.1077
21
12.1857
0
LINE
8
Black
10
-72.1077
20
12.1857
11
-72.1251
21
12.2158
0
LINE
8
Black
10
-72.1251
20
12.2158
11
-72.5408
21
13.358
0
LINE
8
Black
10
-72.5408
20
13.358
11
-72.5431
21
13.3709
0
LINE
8
Black
10
-72.5431
20
13.3709
11
-72.5464
21
13.3835
0
LINE
8
Black
10
-72.5464
20
13.3835
11
-72.5996
21
13.9913
0
LINE
8
Black
10
-72.5996
20
13.9913
11
-72.5992
21
13.9957
0
LINE
8
Black
10
-72.5992
20
13.9957
11
-72.6
21
14
0
LINE
8
Black
10
-72.6
20
14
11
-72.6
21
56.5
0
LINE
8
Black
10
-72.6
20
56.5
11
-72.5985
21
56.5086
0
LINE
8
Black
10
-72.5985
20
56.5086
11
-72.5985
21
56.5174
0
LINE
8
Black
10
-72.5985
20
56.5174
11
-72.3874
21
57.7144
0
LINE
8
Black
10
-72.3874
20
57.7144
11
-72.3755
21
57.7471
0
LINE
8
Black
10
-72.3755
20
57.7471
11
-71.7678
21
58.7998
0
LINE
8
Black
10
-71.7678
20
58.7998
11
-71.7678
21
58.7998
0
LINE
8
Black
10
-71.7678
20
58.7998
11
-71.7454
21
58.8264
0
LINE
8
Black
10
-71.7454
20
58.8264
11
-70.8143
21
59.6077
0
LINE
8
Black
10
-70.8143
20
59.6077
11
-70.7842
21
59.6251
0
LINE
8
Black
10
-70.7842
20
59.6251
11
-69.642
21
60.0408
0
LINE
8
Black
10
-69.642
20
60.0408
11
-69.6291
21
60.0431
0
LINE
8
Black
10
-69.6291
20
60.0431
11
-69.6165
21
60.0464
0
LINE
8
Black
10
-69.6165
20
60.0464
11
-69.0087
21
60.0996
0
LINE
8
Black
10
-69.0087
20
60.0996
11
-69.0043
21
60.0992
0
LINE
8
Black
10
-69.0043
20
60.0992
11
-69
21
60.1
0
LINE
8
Black
10
-69
20
60.1
11
-10.365
21
60.1
0
LINE
8
Black
10
-10.365
20
60.1
11
-10.3564
21
60.0985
0
LINE
8
Black
10
-10.3564
20
60.0985
11
-10.3476
21
60.0985
0
LINE
8
Black
10
-10.3476
20
60.0985
11
-9.15056
21
59.8874
0
LINE
8
Black
10
-9.15056
20
59.8874
11
-9.11793
21
59.8755
0
LINE
8
Black
10
-9.11793
20
59.8755
11
-8.06524
21
59.2678
0
LINE
8
Black
10
-8.06524
20
59.2678
11
-8.03864
21
59.2454
0
LINE
8
Black
10
-8.03864
20
59.2454
11
-7.25731
21
58.3143
0
LINE
8
Black
10
-7.25731
20
58.3143
11
-7.23994
21
58.2842
0
LINE
8
Black
10
-7.23994
20
58.2842
11
-6.8242
21
57.142
0
LINE
8
Black
10
-6.8242
20
57.142
11
-6.82193
21
57.1291
0
LINE
8
Black
10
-6.82193
20
57.1291
11
-6.81855
21
57.1165
0
LINE
8
Black
10
-6.81855
20
57.1165
11
-6.76538
21
56.5087
0
LINE
8
Black
10
-6.76538
20
56.5087
11
-6.76576
21
56.5043
0
LINE
8
Black
10
-6.76576
20
56.5043
11
-6.765
21
56.5
0
LINE
8
Black
10
-6.765
20
56.5
11
-6.765
21
14
0
LINE
8
Black
10
-6.765
20
14
11
-6.76652
21
13.9914
0
LINE
8
Black
10
-6.76652
20
13.9914
11
-6.76652
21
13.9826
0
LINE
8
Black
10
-6.76652
20
13.9826
11
-6.97759
21
12.7856
0
LINE
8
Black
10
-6.97759
20
12.7856
11
-6.98947
21
12.7529
0
LINE
8
Black
10
-6.98947
20
12.7529
11
-7.59724
21
11.7002
0
LINE
8
Black
10
-7.59724
20
11.7002
11
-7.61956
21
11.6736
0
LINE
8
Black
10
-7.61956
20
11.6736
11
-7.61957
21
11.6736
0
LINE
8
Black
10
-7.61957
20
11.6736
11
-8.55072
21
10.8923
0
LINE
8
Black
10
-8.55072
20
10.8923
11
-8.5808
21
10.8749
0
LINE
8
Black
10
-8.5808
20
10.8749
11
-9.72303
21
10.4592
0
LINE
8
Black
10
-9.72303
20
10.4592
11
-9.7359
21
10.4569
0
LINE
8
Black
10
-9.7359
20
10.4569
11
-9.74851
21
10.4536
0
LINE
8
Black
10
-9.74851
20
10.4536
11
-10.3563
21
10.4004
0
LINE
8
Black
10
-10.3563
20
10.4004
11
-10.3607
21
10.4008
0
LINE
8
Black
10
-10.3607
20
10.4008
11
-10.365
21
10.4
0
LINE
8
Black
10
-10.365
20
10.4
11
-69
21
10.4
0
LINE
8
Black
10
-69
20
10.4
11
-69.0086
21
10.4015
0
LINE
8
Black
10
-69.0086
20
10.4015
11
-69.0174
21
10.4015
0
LINE
8
Black
10
-69.0174
20
10.4015
11
-70.2144
21
10.6126
0
LINE
8
Black
10
-70.2144
20
10.6126
11
-70.2471
21
10.6245
0
LINE
8
Black
10
-70.2471
20
10.6245
11
-71.2998
21
11.2322
0
LINE
8
Black
10
-68.9956
20
59.9
11
-69.5859
21
59.8484
0
LINE
8
Black
10
-69.5859
20
59.8484
11
-70.6992
21
59.4432
0
LINE
8
Black
10
-70.6992
20
59.4432
11
-71.6034
21
58.6845
0
LINE
8
Black
10
-71.6034
20
58.6845
11
-72.1935
21
57.6623
0
LINE
8
Black
10
-72.1935
20
57.6623
11
-72.4
21
56.4913
0
LINE
8
Black
10
-72.4
20
56.4913
11
-72.4
21
14.0044
0
LINE
8
Black
10
-72.4
20
14.0044
11
-72.3484
21
13.4141
0
LINE
8
Black
10
-72.3484
20
13.4141
11
-71.9432
21
12.3008
0
LINE
8
Black
10
-71.9432
20
12.3008
11
-71.1845
21
11.3966
0
LINE
8
Black
10
-71.1845
20
11.3966
11
-70.1623
21
10.8065
0
LINE
8
Black
10
-70.1623
20
10.8065
11
-68.9912
21
10.6
0
LINE
8
Black
10
-68.9912
20
10.6
11
-10.3694
21
10.6
0
LINE
8
Black
10
-10.3694
20
10.6
11
-9.77906
21
10.6516
0
LINE
8
Black
10
-9.77906
20
10.6516
11
-8.66577
21
11.0568
0
LINE
8
Black
10
-8.66577
20
11.0568
11
-7.76163
21
11.8155
0
LINE
8
Black
10
-7.76163
20
11.8155
11
-7.17149
21
12.8377
0
LINE
8
Black
10
-7.17149
20
12.8377
11
-6.965
21
14.0087
0
LINE
8
Black
10
-6.965
20
14.0087
11
-6.965
21
56.4956
0
LINE
8
Black
10
-6.965
20
56.4956
11
-7.01664
21
57.0859
0
LINE
8
Black
10
-7.01664
20
57.0859
11
-7.42185
21
58.1992
0
LINE
8
Black
10
-7.42185
20
58.1992
11
-8.18051
21
59.1034
0
LINE
8
Black
10
-8.18051
20
59.1034
11
-9.20266
21
59.6935
0
LINE
8
Black
10
-9.20266
20
59.6935
11
-10.3737
21
59.9
0
LINE
8
Black
10
-10.3737
20
59.9
11
-68.9956
21
59.9
  0
ENDSEC
  0
EOF
