G04 #@! TF.FileFunction,Legend,Bot*
%FSLAX46Y46*%
G04 Gerber Fmt 4.6, Leading zero omitted, Abs format (unit mm)*
G04 Created by KiCad (PCBNEW 4.0.2-stable) date 28/05/2016 23:34:47*
%MOMM*%
G01*
G04 APERTURE LIST*
%ADD10C,0.100000*%
%ADD11C,0.150000*%
%ADD12C,0.002540*%
G04 APERTURE END LIST*
D10*
D11*
X0Y16000000D02*
X0Y0D01*
X40000000Y16000000D02*
X0Y16000000D01*
X40000000Y0D02*
X40000000Y16000000D01*
X0Y0D02*
X40000000Y0D01*
X790000Y2390000D02*
X690000Y2460000D01*
X970000Y2390000D02*
X790000Y2390000D01*
X1070000Y2460000D02*
X970000Y2390000D01*
X1120000Y2600000D02*
X1070000Y2460000D01*
X1120000Y3180000D02*
X1120000Y2600000D01*
X1060000Y3330000D02*
X1120000Y3180000D01*
X960000Y3400000D02*
X1060000Y3330000D01*
X790000Y3400000D02*
X960000Y3400000D01*
X690000Y3310000D02*
X790000Y3400000D01*
X640000Y3180000D02*
X690000Y3310000D01*
X640000Y2910000D02*
X640000Y3180000D01*
X1120000Y2910000D02*
X640000Y2910000D01*
X1690000Y3390000D02*
X1690000Y2390000D01*
X1640000Y3250000D02*
X1690000Y3080000D01*
X1600000Y3310000D02*
X1640000Y3250000D01*
X1500000Y3390000D02*
X1600000Y3310000D01*
X1390000Y3390000D02*
X1500000Y3390000D01*
X3740000Y3400000D02*
X3550000Y2390000D01*
X3550000Y2390000D02*
X3360000Y3110000D01*
X3360000Y3110000D02*
X3170000Y2390000D01*
X3170000Y2390000D02*
X2970000Y3400000D01*
X4120000Y2470000D02*
X4210000Y2390000D01*
X4210000Y2390000D02*
X4400000Y2390000D01*
X4400000Y2390000D02*
X4470000Y2440000D01*
X4470000Y2440000D02*
X4540000Y2520000D01*
X4540000Y2520000D02*
X4600000Y2680000D01*
X4600000Y2680000D02*
X4600000Y3100000D01*
X4600000Y3100000D02*
X4550000Y3250000D01*
X4550000Y3250000D02*
X4480000Y3340000D01*
X4480000Y3340000D02*
X4400000Y3390000D01*
X4400000Y3390000D02*
X4220000Y3390000D01*
X4220000Y3390000D02*
X4120000Y3310000D01*
X4120000Y3890000D02*
X4120000Y2390000D01*
X4870000Y3390000D02*
X4980000Y3390000D01*
X4980000Y3390000D02*
X5080000Y3310000D01*
X5080000Y3310000D02*
X5120000Y3250000D01*
X5120000Y3250000D02*
X5170000Y3080000D01*
X5170000Y3390000D02*
X5170000Y2390000D01*
X2160000Y3180000D02*
X2160000Y2390000D01*
X2220000Y3330000D02*
X2160000Y3180000D01*
X2310000Y3400000D02*
X2220000Y3330000D01*
X2490000Y3400000D02*
X2310000Y3400000D01*
X2600000Y3320000D02*
X2490000Y3400000D01*
X2640000Y2620000D02*
X2600000Y2480000D01*
X2640000Y2750000D02*
X2640000Y2620000D01*
X2590000Y2890000D02*
X2640000Y2750000D01*
X2490000Y2970000D02*
X2590000Y2890000D01*
X2250000Y2970000D02*
X2490000Y2970000D01*
X2160000Y3040000D02*
X2250000Y2970000D01*
X2260000Y2390000D02*
X2160000Y2470000D01*
X2490000Y2390000D02*
X2260000Y2390000D01*
X2600000Y2480000D02*
X2490000Y2390000D01*
X6080000Y2480000D02*
X5970000Y2390000D01*
X5970000Y2390000D02*
X5740000Y2390000D01*
X5740000Y2390000D02*
X5640000Y2470000D01*
X5640000Y3040000D02*
X5730000Y2970000D01*
X5730000Y2970000D02*
X5970000Y2970000D01*
X5970000Y2970000D02*
X6070000Y2890000D01*
X6070000Y2890000D02*
X6120000Y2750000D01*
X6120000Y2750000D02*
X6120000Y2620000D01*
X6120000Y2620000D02*
X6080000Y2480000D01*
X6080000Y3320000D02*
X5970000Y3400000D01*
X5970000Y3400000D02*
X5790000Y3400000D01*
X5790000Y3400000D02*
X5700000Y3330000D01*
X5700000Y3330000D02*
X5640000Y3180000D01*
X5640000Y3180000D02*
X5640000Y2390000D01*
X6980000Y2390000D02*
X6980000Y3890000D01*
X6920000Y3330000D02*
X6980000Y3260000D01*
X6840000Y3390000D02*
X6920000Y3330000D01*
X6700000Y3390000D02*
X6840000Y3390000D01*
X6600000Y3320000D02*
X6700000Y3390000D01*
X6550000Y3170000D02*
X6600000Y3320000D01*
X6550000Y2390000D02*
X6550000Y3170000D01*
X8210000Y2390000D02*
X8210000Y3170000D01*
X8210000Y3170000D02*
X8260000Y3320000D01*
X8260000Y3320000D02*
X8360000Y3390000D01*
X8360000Y3390000D02*
X8500000Y3390000D01*
X8500000Y3390000D02*
X8580000Y3330000D01*
X8580000Y3330000D02*
X8640000Y3260000D01*
X8640000Y3390000D02*
X8640000Y2390000D01*
X9550000Y2910000D02*
X9070000Y2910000D01*
X9070000Y2910000D02*
X9070000Y3180000D01*
X9070000Y3180000D02*
X9120000Y3310000D01*
X9120000Y3310000D02*
X9220000Y3400000D01*
X9220000Y3400000D02*
X9390000Y3400000D01*
X9390000Y3400000D02*
X9490000Y3330000D01*
X9490000Y3330000D02*
X9550000Y3180000D01*
X9550000Y3180000D02*
X9550000Y2600000D01*
X9550000Y2600000D02*
X9500000Y2460000D01*
X9500000Y2460000D02*
X9400000Y2390000D01*
X9400000Y2390000D02*
X9220000Y2390000D01*
X9220000Y2390000D02*
X9120000Y2460000D01*
X10410000Y3400000D02*
X10410000Y1890000D01*
X10300000Y3400000D02*
X10120000Y3400000D01*
X10300000Y2400000D02*
X10110000Y2400000D01*
X10300000Y3400000D02*
X10380000Y3340000D01*
X10030000Y3330000D02*
X10120000Y3400000D01*
X9980000Y3260000D02*
X10030000Y3330000D01*
X9930000Y3100000D02*
X9980000Y3260000D01*
X9930000Y2690000D02*
X9930000Y3100000D01*
X9980000Y2550000D02*
X9930000Y2690000D01*
X10020000Y2480000D02*
X9980000Y2550000D01*
X10120000Y2400000D02*
X10020000Y2480000D01*
X10400000Y2470000D02*
X10300000Y2400000D01*
X11360000Y3100000D02*
X11360000Y2690000D01*
X11360000Y2690000D02*
X11310000Y2550000D01*
X11310000Y2550000D02*
X11260000Y2460000D01*
X11260000Y2460000D02*
X11160000Y2390000D01*
X11160000Y2390000D02*
X11020000Y2390000D01*
X11020000Y2390000D02*
X10920000Y2470000D01*
X10920000Y2470000D02*
X10880000Y2540000D01*
X10880000Y2540000D02*
X10830000Y2680000D01*
X10830000Y2680000D02*
X10830000Y3090000D01*
X10830000Y3090000D02*
X10880000Y3250000D01*
X10880000Y3250000D02*
X10930000Y3320000D01*
X10930000Y3320000D02*
X11020000Y3390000D01*
X11020000Y3390000D02*
X11170000Y3390000D01*
X11170000Y3390000D02*
X11250000Y3330000D01*
X11250000Y3330000D02*
X11310000Y3250000D01*
X11310000Y3250000D02*
X11360000Y3100000D01*
D12*
G36*
X9637280Y4110120D02*
X9573780Y4143140D01*
X9434080Y4232040D01*
X9233420Y4361580D01*
X8997200Y4521600D01*
X8758440Y4681620D01*
X8562860Y4813700D01*
X8425700Y4900060D01*
X8369820Y4933080D01*
X8339340Y4922920D01*
X8225040Y4867040D01*
X8062480Y4780680D01*
X7965960Y4732420D01*
X7816100Y4666380D01*
X7742440Y4653680D01*
X7729740Y4674000D01*
X7673860Y4790840D01*
X7587500Y4986420D01*
X7473200Y5248040D01*
X7343660Y5550300D01*
X7206500Y5880500D01*
X7066800Y6215780D01*
X6934720Y6533280D01*
X6815340Y6820300D01*
X6721360Y7053980D01*
X6660400Y7216540D01*
X6637540Y7287660D01*
X6645160Y7302900D01*
X6718820Y7374020D01*
X6850900Y7473080D01*
X7135380Y7704220D01*
X7414780Y8054740D01*
X7584960Y8450980D01*
X7643380Y8892940D01*
X7595120Y9301880D01*
X7432560Y9695580D01*
X7158240Y10048640D01*
X6825500Y10312800D01*
X6436880Y10477900D01*
X6000000Y10533780D01*
X5580900Y10485520D01*
X5179580Y10328040D01*
X4826520Y10058800D01*
X4676660Y9886080D01*
X4470920Y9527940D01*
X4354080Y9141860D01*
X4341380Y9045340D01*
X4359160Y8623700D01*
X4483620Y8219840D01*
X4704600Y7859160D01*
X5014480Y7561980D01*
X5052580Y7534040D01*
X5197360Y7427360D01*
X5291340Y7353700D01*
X5367540Y7292740D01*
X4831600Y5999880D01*
X4745240Y5794140D01*
X4597920Y5443620D01*
X4468380Y5138820D01*
X4364240Y4894980D01*
X4293120Y4734960D01*
X4262640Y4668920D01*
X4257560Y4666380D01*
X4211840Y4658760D01*
X4112780Y4694320D01*
X3932440Y4780680D01*
X3813060Y4841640D01*
X3675900Y4907680D01*
X3614940Y4933080D01*
X3561600Y4905140D01*
X3429520Y4818780D01*
X3239020Y4689240D01*
X3007880Y4534300D01*
X2786900Y4384440D01*
X2583700Y4249820D01*
X2436380Y4155840D01*
X2365260Y4117740D01*
X2355100Y4117740D01*
X2291600Y4153300D01*
X2174760Y4249820D01*
X1999500Y4417460D01*
X1750580Y4661300D01*
X1712480Y4699400D01*
X1506740Y4907680D01*
X1341640Y5082940D01*
X1229880Y5207400D01*
X1189240Y5263280D01*
X1189240Y5263280D01*
X1227340Y5334400D01*
X1318780Y5481720D01*
X1453400Y5684920D01*
X1615960Y5926220D01*
X2045220Y6545980D01*
X1809000Y7132720D01*
X1737880Y7313060D01*
X1646440Y7531500D01*
X1577860Y7686440D01*
X1542300Y7755020D01*
X1478800Y7777880D01*
X1318780Y7815980D01*
X1085100Y7864240D01*
X808240Y7915040D01*
X544080Y7963300D01*
X305320Y8009020D01*
X132600Y8042040D01*
X53860Y8057280D01*
X36080Y8069980D01*
X20840Y8108080D01*
X10680Y8189360D01*
X5600Y8334140D01*
X520Y8562740D01*
X520Y8892940D01*
X520Y8928500D01*
X5600Y9243460D01*
X10680Y9494920D01*
X18300Y9660020D01*
X31000Y9726060D01*
X31000Y9726060D01*
X104660Y9743840D01*
X274840Y9779400D01*
X513600Y9827660D01*
X798080Y9881000D01*
X815860Y9883540D01*
X1100340Y9939420D01*
X1336560Y9987680D01*
X1504200Y10025780D01*
X1572780Y10048640D01*
X1588020Y10068960D01*
X1646440Y10180720D01*
X1727720Y10355980D01*
X1821700Y10569340D01*
X1913140Y10792860D01*
X1994420Y10993520D01*
X2047760Y11143380D01*
X2063000Y11211960D01*
X2063000Y11211960D01*
X2019820Y11280540D01*
X1923300Y11427860D01*
X1783600Y11631060D01*
X1618500Y11872360D01*
X1605800Y11892680D01*
X1443240Y12131440D01*
X1311160Y12334640D01*
X1222260Y12479420D01*
X1189240Y12542920D01*
X1189240Y12548000D01*
X1245120Y12619120D01*
X1367040Y12756280D01*
X1542300Y12939160D01*
X1750580Y13149980D01*
X1819160Y13216020D01*
X2050300Y13444620D01*
X2212860Y13591940D01*
X2314460Y13673220D01*
X2362720Y13691000D01*
X2365260Y13688460D01*
X2436380Y13645280D01*
X2588780Y13546220D01*
X2794520Y13406520D01*
X3038360Y13241420D01*
X3053600Y13231260D01*
X3294900Y13068700D01*
X3493020Y12931540D01*
X3635260Y12837560D01*
X3698760Y12802000D01*
X3708920Y12802000D01*
X3805440Y12829940D01*
X3975620Y12888360D01*
X4186440Y12969640D01*
X4407420Y13058540D01*
X4610620Y13144900D01*
X4760480Y13213480D01*
X4831600Y13254120D01*
X4834140Y13256660D01*
X4859540Y13343020D01*
X4900180Y13523360D01*
X4953520Y13769740D01*
X5006860Y14064380D01*
X5017020Y14110100D01*
X5070360Y14397120D01*
X5116080Y14633340D01*
X5151640Y14795900D01*
X5166880Y14864480D01*
X5207520Y14872100D01*
X5347220Y14882260D01*
X5560580Y14889880D01*
X5819660Y14892420D01*
X6091440Y14889880D01*
X6355600Y14884800D01*
X6581660Y14877180D01*
X6744220Y14864480D01*
X6812800Y14851780D01*
X6815340Y14846700D01*
X6838200Y14757800D01*
X6878840Y14580000D01*
X6929640Y14331080D01*
X6985520Y14036440D01*
X6995680Y13983100D01*
X7049020Y13698620D01*
X7097280Y13464940D01*
X7132840Y13304920D01*
X7150620Y13241420D01*
X7176020Y13228720D01*
X7292860Y13175380D01*
X7483360Y13096640D01*
X7722120Y13000120D01*
X8270760Y12779140D01*
X8943860Y13241420D01*
X9004820Y13282060D01*
X9248660Y13447160D01*
X9446780Y13579240D01*
X9586480Y13668140D01*
X9642360Y13701160D01*
X9647440Y13698620D01*
X9716020Y13640200D01*
X9848100Y13515740D01*
X10030980Y13337940D01*
X10241800Y13127120D01*
X10399280Y12969640D01*
X10584700Y12781680D01*
X10701540Y12654680D01*
X10767580Y12573400D01*
X10790440Y12522600D01*
X10782820Y12489580D01*
X10739640Y12421000D01*
X10640580Y12273680D01*
X10503420Y12067940D01*
X10338320Y11831720D01*
X10203700Y11631060D01*
X10056380Y11405000D01*
X9962400Y11244980D01*
X9929380Y11166240D01*
X9937000Y11133220D01*
X9985260Y11001140D01*
X10064000Y10800480D01*
X10165600Y10564260D01*
X10399280Y10030860D01*
X10749800Y9964820D01*
X10960620Y9924180D01*
X11257800Y9865760D01*
X11542280Y9812420D01*
X11984240Y9726060D01*
X11999480Y8100460D01*
X11930900Y8069980D01*
X11864860Y8052200D01*
X11702300Y8016640D01*
X11468620Y7970920D01*
X11191760Y7917580D01*
X10955540Y7874400D01*
X10719320Y7828680D01*
X10549140Y7795660D01*
X10472940Y7780420D01*
X10455160Y7755020D01*
X10394200Y7638180D01*
X10310380Y7457840D01*
X10216400Y7236860D01*
X10122420Y7010800D01*
X10038600Y6799980D01*
X9980180Y6639960D01*
X9957320Y6556140D01*
X9990340Y6495180D01*
X10079240Y6355480D01*
X10211320Y6157360D01*
X10371340Y5921140D01*
X10533900Y5684920D01*
X10668520Y5484260D01*
X10765040Y5339480D01*
X10803140Y5273440D01*
X10782820Y5227720D01*
X10688840Y5113420D01*
X10511040Y4930540D01*
X10246880Y4668920D01*
X10203700Y4625740D01*
X9992880Y4425080D01*
X9815080Y4259980D01*
X9693160Y4150760D01*
X9637280Y4110120D01*
X9637280Y4110120D01*
G37*
X9637280Y4110120D02*
X9573780Y4143140D01*
X9434080Y4232040D01*
X9233420Y4361580D01*
X8997200Y4521600D01*
X8758440Y4681620D01*
X8562860Y4813700D01*
X8425700Y4900060D01*
X8369820Y4933080D01*
X8339340Y4922920D01*
X8225040Y4867040D01*
X8062480Y4780680D01*
X7965960Y4732420D01*
X7816100Y4666380D01*
X7742440Y4653680D01*
X7729740Y4674000D01*
X7673860Y4790840D01*
X7587500Y4986420D01*
X7473200Y5248040D01*
X7343660Y5550300D01*
X7206500Y5880500D01*
X7066800Y6215780D01*
X6934720Y6533280D01*
X6815340Y6820300D01*
X6721360Y7053980D01*
X6660400Y7216540D01*
X6637540Y7287660D01*
X6645160Y7302900D01*
X6718820Y7374020D01*
X6850900Y7473080D01*
X7135380Y7704220D01*
X7414780Y8054740D01*
X7584960Y8450980D01*
X7643380Y8892940D01*
X7595120Y9301880D01*
X7432560Y9695580D01*
X7158240Y10048640D01*
X6825500Y10312800D01*
X6436880Y10477900D01*
X6000000Y10533780D01*
X5580900Y10485520D01*
X5179580Y10328040D01*
X4826520Y10058800D01*
X4676660Y9886080D01*
X4470920Y9527940D01*
X4354080Y9141860D01*
X4341380Y9045340D01*
X4359160Y8623700D01*
X4483620Y8219840D01*
X4704600Y7859160D01*
X5014480Y7561980D01*
X5052580Y7534040D01*
X5197360Y7427360D01*
X5291340Y7353700D01*
X5367540Y7292740D01*
X4831600Y5999880D01*
X4745240Y5794140D01*
X4597920Y5443620D01*
X4468380Y5138820D01*
X4364240Y4894980D01*
X4293120Y4734960D01*
X4262640Y4668920D01*
X4257560Y4666380D01*
X4211840Y4658760D01*
X4112780Y4694320D01*
X3932440Y4780680D01*
X3813060Y4841640D01*
X3675900Y4907680D01*
X3614940Y4933080D01*
X3561600Y4905140D01*
X3429520Y4818780D01*
X3239020Y4689240D01*
X3007880Y4534300D01*
X2786900Y4384440D01*
X2583700Y4249820D01*
X2436380Y4155840D01*
X2365260Y4117740D01*
X2355100Y4117740D01*
X2291600Y4153300D01*
X2174760Y4249820D01*
X1999500Y4417460D01*
X1750580Y4661300D01*
X1712480Y4699400D01*
X1506740Y4907680D01*
X1341640Y5082940D01*
X1229880Y5207400D01*
X1189240Y5263280D01*
X1189240Y5263280D01*
X1227340Y5334400D01*
X1318780Y5481720D01*
X1453400Y5684920D01*
X1615960Y5926220D01*
X2045220Y6545980D01*
X1809000Y7132720D01*
X1737880Y7313060D01*
X1646440Y7531500D01*
X1577860Y7686440D01*
X1542300Y7755020D01*
X1478800Y7777880D01*
X1318780Y7815980D01*
X1085100Y7864240D01*
X808240Y7915040D01*
X544080Y7963300D01*
X305320Y8009020D01*
X132600Y8042040D01*
X53860Y8057280D01*
X36080Y8069980D01*
X20840Y8108080D01*
X10680Y8189360D01*
X5600Y8334140D01*
X520Y8562740D01*
X520Y8892940D01*
X520Y8928500D01*
X5600Y9243460D01*
X10680Y9494920D01*
X18300Y9660020D01*
X31000Y9726060D01*
X31000Y9726060D01*
X104660Y9743840D01*
X274840Y9779400D01*
X513600Y9827660D01*
X798080Y9881000D01*
X815860Y9883540D01*
X1100340Y9939420D01*
X1336560Y9987680D01*
X1504200Y10025780D01*
X1572780Y10048640D01*
X1588020Y10068960D01*
X1646440Y10180720D01*
X1727720Y10355980D01*
X1821700Y10569340D01*
X1913140Y10792860D01*
X1994420Y10993520D01*
X2047760Y11143380D01*
X2063000Y11211960D01*
X2063000Y11211960D01*
X2019820Y11280540D01*
X1923300Y11427860D01*
X1783600Y11631060D01*
X1618500Y11872360D01*
X1605800Y11892680D01*
X1443240Y12131440D01*
X1311160Y12334640D01*
X1222260Y12479420D01*
X1189240Y12542920D01*
X1189240Y12548000D01*
X1245120Y12619120D01*
X1367040Y12756280D01*
X1542300Y12939160D01*
X1750580Y13149980D01*
X1819160Y13216020D01*
X2050300Y13444620D01*
X2212860Y13591940D01*
X2314460Y13673220D01*
X2362720Y13691000D01*
X2365260Y13688460D01*
X2436380Y13645280D01*
X2588780Y13546220D01*
X2794520Y13406520D01*
X3038360Y13241420D01*
X3053600Y13231260D01*
X3294900Y13068700D01*
X3493020Y12931540D01*
X3635260Y12837560D01*
X3698760Y12802000D01*
X3708920Y12802000D01*
X3805440Y12829940D01*
X3975620Y12888360D01*
X4186440Y12969640D01*
X4407420Y13058540D01*
X4610620Y13144900D01*
X4760480Y13213480D01*
X4831600Y13254120D01*
X4834140Y13256660D01*
X4859540Y13343020D01*
X4900180Y13523360D01*
X4953520Y13769740D01*
X5006860Y14064380D01*
X5017020Y14110100D01*
X5070360Y14397120D01*
X5116080Y14633340D01*
X5151640Y14795900D01*
X5166880Y14864480D01*
X5207520Y14872100D01*
X5347220Y14882260D01*
X5560580Y14889880D01*
X5819660Y14892420D01*
X6091440Y14889880D01*
X6355600Y14884800D01*
X6581660Y14877180D01*
X6744220Y14864480D01*
X6812800Y14851780D01*
X6815340Y14846700D01*
X6838200Y14757800D01*
X6878840Y14580000D01*
X6929640Y14331080D01*
X6985520Y14036440D01*
X6995680Y13983100D01*
X7049020Y13698620D01*
X7097280Y13464940D01*
X7132840Y13304920D01*
X7150620Y13241420D01*
X7176020Y13228720D01*
X7292860Y13175380D01*
X7483360Y13096640D01*
X7722120Y13000120D01*
X8270760Y12779140D01*
X8943860Y13241420D01*
X9004820Y13282060D01*
X9248660Y13447160D01*
X9446780Y13579240D01*
X9586480Y13668140D01*
X9642360Y13701160D01*
X9647440Y13698620D01*
X9716020Y13640200D01*
X9848100Y13515740D01*
X10030980Y13337940D01*
X10241800Y13127120D01*
X10399280Y12969640D01*
X10584700Y12781680D01*
X10701540Y12654680D01*
X10767580Y12573400D01*
X10790440Y12522600D01*
X10782820Y12489580D01*
X10739640Y12421000D01*
X10640580Y12273680D01*
X10503420Y12067940D01*
X10338320Y11831720D01*
X10203700Y11631060D01*
X10056380Y11405000D01*
X9962400Y11244980D01*
X9929380Y11166240D01*
X9937000Y11133220D01*
X9985260Y11001140D01*
X10064000Y10800480D01*
X10165600Y10564260D01*
X10399280Y10030860D01*
X10749800Y9964820D01*
X10960620Y9924180D01*
X11257800Y9865760D01*
X11542280Y9812420D01*
X11984240Y9726060D01*
X11999480Y8100460D01*
X11930900Y8069980D01*
X11864860Y8052200D01*
X11702300Y8016640D01*
X11468620Y7970920D01*
X11191760Y7917580D01*
X10955540Y7874400D01*
X10719320Y7828680D01*
X10549140Y7795660D01*
X10472940Y7780420D01*
X10455160Y7755020D01*
X10394200Y7638180D01*
X10310380Y7457840D01*
X10216400Y7236860D01*
X10122420Y7010800D01*
X10038600Y6799980D01*
X9980180Y6639960D01*
X9957320Y6556140D01*
X9990340Y6495180D01*
X10079240Y6355480D01*
X10211320Y6157360D01*
X10371340Y5921140D01*
X10533900Y5684920D01*
X10668520Y5484260D01*
X10765040Y5339480D01*
X10803140Y5273440D01*
X10782820Y5227720D01*
X10688840Y5113420D01*
X10511040Y4930540D01*
X10246880Y4668920D01*
X10203700Y4625740D01*
X9992880Y4425080D01*
X9815080Y4259980D01*
X9693160Y4150760D01*
X9637280Y4110120D01*
M02*
