G04 #@! TF.FileFunction,Copper,L2,Bot,Signal*
%FSLAX46Y46*%
G04 Gerber Fmt 4.6, Leading zero omitted, Abs format (unit mm)*
G04 Created by KiCad (PCBNEW 4.0.2-stable) date 28/05/2016 23:34:47*
%MOMM*%
G01*
G04 APERTURE LIST*
%ADD10C,0.100000*%
%ADD11C,0.150000*%
%ADD12C,6.000000*%
%ADD13O,2.000000X3.500000*%
%ADD14R,2.000000X2.000000*%
%ADD15C,2.000000*%
%ADD16C,0.800000*%
%ADD17C,0.149860*%
G04 APERTURE END LIST*
D10*
D11*
X0Y16000000D02*
X0Y0D01*
X40000000Y16000000D02*
X0Y16000000D01*
X40000000Y0D02*
X40000000Y16000000D01*
X0Y0D02*
X40000000Y0D01*
D12*
X17000000Y13000000D03*
X36000000Y13000000D03*
D13*
X21420000Y6900000D03*
X26500000Y6900000D03*
X31580000Y6900000D03*
D14*
X13000000Y5460000D03*
D15*
X13000000Y8000000D03*
X13000000Y10540000D03*
D16*
X26500000Y6900000D02*
X26500000Y5500000D01*
X26500000Y5500000D02*
X24500000Y3500000D01*
X14400000Y8000000D02*
X13000000Y8000000D01*
X18900000Y3500000D02*
X14400000Y8000000D01*
X24500000Y3500000D02*
X18900000Y3500000D01*
X26500000Y6900000D02*
X26500000Y6500000D01*
X13000000Y5460000D02*
X13000000Y5300000D01*
X13000000Y5300000D02*
X16400000Y1900000D01*
X31580000Y3180000D02*
X31580000Y6900000D01*
X30300000Y1900000D02*
X31580000Y3180000D01*
X16400000Y1900000D02*
X30300000Y1900000D01*
D17*
G36*
X14179516Y14888150D02*
X13671649Y13665070D01*
X13670493Y12340740D01*
X14087411Y11331723D01*
X13753761Y11665955D01*
X13265500Y11868699D01*
X12736819Y11869160D01*
X12248205Y11667269D01*
X11874045Y11293761D01*
X11671301Y10805500D01*
X11670840Y10276819D01*
X11872731Y9788205D01*
X12246239Y9414045D01*
X12734500Y9211301D01*
X12744168Y9211293D01*
X12346430Y9064100D01*
X12267010Y9011034D01*
X12157612Y8844184D01*
X13000000Y8001796D01*
X13842388Y8844184D01*
X13732990Y9011034D01*
X13290288Y9214577D01*
X13273756Y9215210D01*
X13751795Y9412731D01*
X14125955Y9786239D01*
X14328699Y10274500D01*
X14329160Y10803181D01*
X14216083Y11076848D01*
X15111850Y10179516D01*
X16334930Y9671649D01*
X17659260Y9670493D01*
X18883224Y10176225D01*
X19424959Y10717015D01*
X21820823Y10717015D01*
X22037906Y10191634D01*
X22439520Y9789319D01*
X22964521Y9571319D01*
X23532985Y9570823D01*
X24058366Y9787906D01*
X24460681Y10189520D01*
X24678681Y10714521D01*
X24678683Y10717015D01*
X28320823Y10717015D01*
X28537906Y10191634D01*
X28939520Y9789319D01*
X29464521Y9571319D01*
X30032985Y9570823D01*
X30558366Y9787906D01*
X30960681Y10189520D01*
X31178681Y10714521D01*
X31179177Y11282985D01*
X30962094Y11808366D01*
X30560480Y12210681D01*
X30035479Y12428681D01*
X29467015Y12429177D01*
X28941634Y12212094D01*
X28539319Y11810480D01*
X28321319Y11285479D01*
X28320823Y10717015D01*
X24678683Y10717015D01*
X24679177Y11282985D01*
X24462094Y11808366D01*
X24060480Y12210681D01*
X23535479Y12428681D01*
X22967015Y12429177D01*
X22441634Y12212094D01*
X22039319Y11810480D01*
X21821319Y11285479D01*
X21820823Y10717015D01*
X19424959Y10717015D01*
X19820484Y11111850D01*
X20328351Y12334930D01*
X20329507Y13659260D01*
X19823775Y14883224D01*
X19112173Y15596070D01*
X33888673Y15596070D01*
X33179516Y14888150D01*
X32671649Y13665070D01*
X32670493Y12340740D01*
X33176225Y11116776D01*
X34111850Y10179516D01*
X35334930Y9671649D01*
X36659260Y9670493D01*
X37883224Y10176225D01*
X38820484Y11111850D01*
X39328351Y12334930D01*
X39329507Y13659260D01*
X38823775Y14883224D01*
X38112173Y15596070D01*
X39596070Y15596070D01*
X39596070Y403930D01*
X403930Y403930D01*
X403930Y6460000D01*
X11664626Y6460000D01*
X11664626Y4460000D01*
X11687562Y4338106D01*
X11759601Y4226153D01*
X11869521Y4151049D01*
X12000000Y4124626D01*
X13144512Y4124626D01*
X15884569Y1384569D01*
X16121051Y1226556D01*
X16400000Y1171070D01*
X30300000Y1171070D01*
X30578950Y1226556D01*
X30815431Y1384569D01*
X32095431Y2664568D01*
X32253443Y2901050D01*
X32253444Y2901051D01*
X32308930Y3180000D01*
X32308930Y5028747D01*
X32519695Y5169576D01*
X32807771Y5600712D01*
X32908930Y6109271D01*
X32908930Y7690729D01*
X32807771Y8199288D01*
X32519695Y8630424D01*
X32088559Y8918500D01*
X31580000Y9019659D01*
X31071441Y8918500D01*
X30640305Y8630424D01*
X30352229Y8199288D01*
X30251070Y7690729D01*
X30251070Y6109271D01*
X30352229Y5600712D01*
X30640305Y5169576D01*
X30851070Y5028747D01*
X30851070Y3481933D01*
X29998068Y2628930D01*
X16701932Y2628930D01*
X14335374Y4995488D01*
X14335374Y6460000D01*
X14312438Y6581894D01*
X14240399Y6693847D01*
X14130479Y6768951D01*
X14000000Y6795374D01*
X13273846Y6795374D01*
X13653570Y6935900D01*
X13732990Y6988966D01*
X13842388Y7155816D01*
X13000000Y7998204D01*
X12157612Y7155816D01*
X12267010Y6988966D01*
X12688069Y6795374D01*
X12000000Y6795374D01*
X11878106Y6772438D01*
X11766153Y6700399D01*
X11691049Y6590479D01*
X11664626Y6460000D01*
X403930Y6460000D01*
X403930Y7803392D01*
X11766790Y7803392D01*
X11935900Y7346430D01*
X11988966Y7267010D01*
X12155816Y7157612D01*
X12998204Y8000000D01*
X13001796Y8000000D01*
X13844184Y7157612D01*
X14011034Y7267010D01*
X14205849Y7690729D01*
X20091070Y7690729D01*
X20091070Y6109271D01*
X20192229Y5600712D01*
X20480305Y5169576D01*
X20911441Y4881500D01*
X21420000Y4780341D01*
X21928559Y4881500D01*
X22359695Y5169576D01*
X22647771Y5600712D01*
X22748930Y6109271D01*
X22748930Y6898730D01*
X25275210Y6898730D01*
X25275210Y6148730D01*
X25368928Y5680120D01*
X25634841Y5283045D01*
X26032467Y5017956D01*
X26307146Y4940489D01*
X26498730Y4981408D01*
X26498730Y6898730D01*
X26501270Y6898730D01*
X26501270Y4981408D01*
X26692854Y4940489D01*
X26967533Y5017956D01*
X27365159Y5283045D01*
X27631072Y5680120D01*
X27724790Y6148730D01*
X27724790Y6898730D01*
X26501270Y6898730D01*
X26498730Y6898730D01*
X25275210Y6898730D01*
X22748930Y6898730D01*
X22748930Y7651270D01*
X25275210Y7651270D01*
X25275210Y6901270D01*
X26498730Y6901270D01*
X26498730Y8818592D01*
X26501270Y8818592D01*
X26501270Y6901270D01*
X27724790Y6901270D01*
X27724790Y7651270D01*
X27631072Y8119880D01*
X27365159Y8516955D01*
X26967533Y8782044D01*
X26692854Y8859511D01*
X26501270Y8818592D01*
X26498730Y8818592D01*
X26307146Y8859511D01*
X26032467Y8782044D01*
X25634841Y8516955D01*
X25368928Y8119880D01*
X25275210Y7651270D01*
X22748930Y7651270D01*
X22748930Y7690729D01*
X22647771Y8199288D01*
X22359695Y8630424D01*
X21928559Y8918500D01*
X21420000Y9019659D01*
X20911441Y8918500D01*
X20480305Y8630424D01*
X20192229Y8199288D01*
X20091070Y7690729D01*
X14205849Y7690729D01*
X14214577Y7709712D01*
X14233210Y8196608D01*
X14064100Y8653570D01*
X14011034Y8732990D01*
X13844184Y8842388D01*
X13001796Y8000000D01*
X12998204Y8000000D01*
X12155816Y8842388D01*
X11988966Y8732990D01*
X11785423Y8290288D01*
X11766790Y7803392D01*
X403930Y7803392D01*
X403930Y15596070D01*
X14888673Y15596070D01*
X14179516Y14888150D01*
X14179516Y14888150D01*
G37*
X14179516Y14888150D02*
X13671649Y13665070D01*
X13670493Y12340740D01*
X14087411Y11331723D01*
X13753761Y11665955D01*
X13265500Y11868699D01*
X12736819Y11869160D01*
X12248205Y11667269D01*
X11874045Y11293761D01*
X11671301Y10805500D01*
X11670840Y10276819D01*
X11872731Y9788205D01*
X12246239Y9414045D01*
X12734500Y9211301D01*
X12744168Y9211293D01*
X12346430Y9064100D01*
X12267010Y9011034D01*
X12157612Y8844184D01*
X13000000Y8001796D01*
X13842388Y8844184D01*
X13732990Y9011034D01*
X13290288Y9214577D01*
X13273756Y9215210D01*
X13751795Y9412731D01*
X14125955Y9786239D01*
X14328699Y10274500D01*
X14329160Y10803181D01*
X14216083Y11076848D01*
X15111850Y10179516D01*
X16334930Y9671649D01*
X17659260Y9670493D01*
X18883224Y10176225D01*
X19424959Y10717015D01*
X21820823Y10717015D01*
X22037906Y10191634D01*
X22439520Y9789319D01*
X22964521Y9571319D01*
X23532985Y9570823D01*
X24058366Y9787906D01*
X24460681Y10189520D01*
X24678681Y10714521D01*
X24678683Y10717015D01*
X28320823Y10717015D01*
X28537906Y10191634D01*
X28939520Y9789319D01*
X29464521Y9571319D01*
X30032985Y9570823D01*
X30558366Y9787906D01*
X30960681Y10189520D01*
X31178681Y10714521D01*
X31179177Y11282985D01*
X30962094Y11808366D01*
X30560480Y12210681D01*
X30035479Y12428681D01*
X29467015Y12429177D01*
X28941634Y12212094D01*
X28539319Y11810480D01*
X28321319Y11285479D01*
X28320823Y10717015D01*
X24678683Y10717015D01*
X24679177Y11282985D01*
X24462094Y11808366D01*
X24060480Y12210681D01*
X23535479Y12428681D01*
X22967015Y12429177D01*
X22441634Y12212094D01*
X22039319Y11810480D01*
X21821319Y11285479D01*
X21820823Y10717015D01*
X19424959Y10717015D01*
X19820484Y11111850D01*
X20328351Y12334930D01*
X20329507Y13659260D01*
X19823775Y14883224D01*
X19112173Y15596070D01*
X33888673Y15596070D01*
X33179516Y14888150D01*
X32671649Y13665070D01*
X32670493Y12340740D01*
X33176225Y11116776D01*
X34111850Y10179516D01*
X35334930Y9671649D01*
X36659260Y9670493D01*
X37883224Y10176225D01*
X38820484Y11111850D01*
X39328351Y12334930D01*
X39329507Y13659260D01*
X38823775Y14883224D01*
X38112173Y15596070D01*
X39596070Y15596070D01*
X39596070Y403930D01*
X403930Y403930D01*
X403930Y6460000D01*
X11664626Y6460000D01*
X11664626Y4460000D01*
X11687562Y4338106D01*
X11759601Y4226153D01*
X11869521Y4151049D01*
X12000000Y4124626D01*
X13144512Y4124626D01*
X15884569Y1384569D01*
X16121051Y1226556D01*
X16400000Y1171070D01*
X30300000Y1171070D01*
X30578950Y1226556D01*
X30815431Y1384569D01*
X32095431Y2664568D01*
X32253443Y2901050D01*
X32253444Y2901051D01*
X32308930Y3180000D01*
X32308930Y5028747D01*
X32519695Y5169576D01*
X32807771Y5600712D01*
X32908930Y6109271D01*
X32908930Y7690729D01*
X32807771Y8199288D01*
X32519695Y8630424D01*
X32088559Y8918500D01*
X31580000Y9019659D01*
X31071441Y8918500D01*
X30640305Y8630424D01*
X30352229Y8199288D01*
X30251070Y7690729D01*
X30251070Y6109271D01*
X30352229Y5600712D01*
X30640305Y5169576D01*
X30851070Y5028747D01*
X30851070Y3481933D01*
X29998068Y2628930D01*
X16701932Y2628930D01*
X14335374Y4995488D01*
X14335374Y6460000D01*
X14312438Y6581894D01*
X14240399Y6693847D01*
X14130479Y6768951D01*
X14000000Y6795374D01*
X13273846Y6795374D01*
X13653570Y6935900D01*
X13732990Y6988966D01*
X13842388Y7155816D01*
X13000000Y7998204D01*
X12157612Y7155816D01*
X12267010Y6988966D01*
X12688069Y6795374D01*
X12000000Y6795374D01*
X11878106Y6772438D01*
X11766153Y6700399D01*
X11691049Y6590479D01*
X11664626Y6460000D01*
X403930Y6460000D01*
X403930Y7803392D01*
X11766790Y7803392D01*
X11935900Y7346430D01*
X11988966Y7267010D01*
X12155816Y7157612D01*
X12998204Y8000000D01*
X13001796Y8000000D01*
X13844184Y7157612D01*
X14011034Y7267010D01*
X14205849Y7690729D01*
X20091070Y7690729D01*
X20091070Y6109271D01*
X20192229Y5600712D01*
X20480305Y5169576D01*
X20911441Y4881500D01*
X21420000Y4780341D01*
X21928559Y4881500D01*
X22359695Y5169576D01*
X22647771Y5600712D01*
X22748930Y6109271D01*
X22748930Y6898730D01*
X25275210Y6898730D01*
X25275210Y6148730D01*
X25368928Y5680120D01*
X25634841Y5283045D01*
X26032467Y5017956D01*
X26307146Y4940489D01*
X26498730Y4981408D01*
X26498730Y6898730D01*
X26501270Y6898730D01*
X26501270Y4981408D01*
X26692854Y4940489D01*
X26967533Y5017956D01*
X27365159Y5283045D01*
X27631072Y5680120D01*
X27724790Y6148730D01*
X27724790Y6898730D01*
X26501270Y6898730D01*
X26498730Y6898730D01*
X25275210Y6898730D01*
X22748930Y6898730D01*
X22748930Y7651270D01*
X25275210Y7651270D01*
X25275210Y6901270D01*
X26498730Y6901270D01*
X26498730Y8818592D01*
X26501270Y8818592D01*
X26501270Y6901270D01*
X27724790Y6901270D01*
X27724790Y7651270D01*
X27631072Y8119880D01*
X27365159Y8516955D01*
X26967533Y8782044D01*
X26692854Y8859511D01*
X26501270Y8818592D01*
X26498730Y8818592D01*
X26307146Y8859511D01*
X26032467Y8782044D01*
X25634841Y8516955D01*
X25368928Y8119880D01*
X25275210Y7651270D01*
X22748930Y7651270D01*
X22748930Y7690729D01*
X22647771Y8199288D01*
X22359695Y8630424D01*
X21928559Y8918500D01*
X21420000Y9019659D01*
X20911441Y8918500D01*
X20480305Y8630424D01*
X20192229Y8199288D01*
X20091070Y7690729D01*
X14205849Y7690729D01*
X14214577Y7709712D01*
X14233210Y8196608D01*
X14064100Y8653570D01*
X14011034Y8732990D01*
X13844184Y8842388D01*
X13001796Y8000000D01*
X12998204Y8000000D01*
X12155816Y8842388D01*
X11988966Y8732990D01*
X11785423Y8290288D01*
X11766790Y7803392D01*
X403930Y7803392D01*
X403930Y15596070D01*
X14888673Y15596070D01*
X14179516Y14888150D01*
M02*
