G04 #@! TF.FileFunction,Copper,L2,Bot,Signal*
%FSLAX46Y46*%
G04 Gerber Fmt 4.6, Leading zero omitted, Abs format (unit mm)*
G04 Created by KiCad (PCBNEW 4.0.2-stable) date 4/28/2016 11:26:28 AM*
%MOMM*%
G01*
G04 APERTURE LIST*
%ADD10C,0.100000*%
%ADD11C,1.270000*%
%ADD12C,2.400000*%
%ADD13R,2.400000X2.400000*%
%ADD14C,7.000000*%
%ADD15C,0.600000*%
%ADD16C,0.250000*%
%ADD17C,0.254000*%
G04 APERTURE END LIST*
D10*
D11*
X22500000Y8130000D03*
X22500000Y19870000D03*
D12*
X6250000Y12250000D03*
D13*
X6250000Y15750000D03*
D14*
X4000000Y4000000D03*
X24000000Y4000000D03*
X4000000Y24000000D03*
X24000000Y24000000D03*
D15*
X18500000Y10000000D03*
X13750000Y10750000D03*
X26000000Y18750000D03*
X26000000Y10000000D03*
X17250000Y17250000D03*
D16*
X17250000Y10000000D02*
X18500000Y10000000D01*
X13750000Y12250000D02*
X13750000Y10750000D01*
X24250000Y18750000D02*
X26000000Y18750000D01*
X26000000Y8750000D02*
X26000000Y10000000D01*
D17*
G36*
X20496562Y26345347D02*
X19865720Y24826111D01*
X19864284Y23181106D01*
X20492474Y21660771D01*
X21492627Y20658871D01*
X21423974Y20590337D01*
X21230221Y20123727D01*
X21229780Y19618490D01*
X21422718Y19151542D01*
X21779663Y18793974D01*
X22246273Y18600221D01*
X22751510Y18599780D01*
X23218458Y18792718D01*
X23576026Y19149663D01*
X23769779Y19616273D01*
X23769996Y19865200D01*
X24818894Y19864284D01*
X26339229Y20492474D01*
X27290000Y21441587D01*
X27290000Y6557135D01*
X26345347Y7503438D01*
X24826111Y8134280D01*
X23770005Y8135202D01*
X23770220Y8381510D01*
X23577282Y8848458D01*
X23220337Y9206026D01*
X22753727Y9399779D01*
X22248490Y9400220D01*
X21781542Y9207282D01*
X21423974Y8850337D01*
X21230221Y8383727D01*
X21229780Y7878490D01*
X21422718Y7411542D01*
X21493545Y7340591D01*
X20496562Y6345347D01*
X19865720Y4826111D01*
X19864284Y3181106D01*
X20492474Y1660771D01*
X21441587Y710000D01*
X6557135Y710000D01*
X7503438Y1654653D01*
X8134280Y3173889D01*
X8135716Y4818894D01*
X7507526Y6339229D01*
X6345347Y7503438D01*
X4826111Y8134280D01*
X3181106Y8135716D01*
X1660771Y7507526D01*
X710000Y6558413D01*
X710000Y16700000D01*
X4402560Y16700000D01*
X4402560Y14300000D01*
X4446838Y14064683D01*
X4585910Y13848559D01*
X4798110Y13703569D01*
X5050000Y13652560D01*
X5444288Y13652560D01*
X5211914Y13556545D01*
X4695270Y13040801D01*
X4415319Y12366605D01*
X4414682Y11636597D01*
X4693455Y10961914D01*
X5209199Y10445270D01*
X5883395Y10165319D01*
X6613403Y10164682D01*
X7288086Y10443455D01*
X7804730Y10959199D01*
X8084681Y11633395D01*
X8085318Y12363403D01*
X7806545Y13038086D01*
X7290801Y13554730D01*
X7055201Y13652560D01*
X7450000Y13652560D01*
X7685317Y13696838D01*
X7901441Y13835910D01*
X8046431Y14048110D01*
X8097440Y14300000D01*
X8097440Y16700000D01*
X8053162Y16935317D01*
X7914090Y17151441D01*
X7701890Y17296431D01*
X7450000Y17347440D01*
X5050000Y17347440D01*
X4814683Y17303162D01*
X4598559Y17164090D01*
X4453569Y16951890D01*
X4402560Y16700000D01*
X710000Y16700000D01*
X710000Y21442865D01*
X1654653Y20496562D01*
X3173889Y19865720D01*
X4818894Y19864284D01*
X6339229Y20492474D01*
X7503438Y21654653D01*
X8134280Y23173889D01*
X8135716Y24818894D01*
X7507526Y26339229D01*
X6558413Y27290000D01*
X21442865Y27290000D01*
X20496562Y26345347D01*
X20496562Y26345347D01*
G37*
X20496562Y26345347D02*
X19865720Y24826111D01*
X19864284Y23181106D01*
X20492474Y21660771D01*
X21492627Y20658871D01*
X21423974Y20590337D01*
X21230221Y20123727D01*
X21229780Y19618490D01*
X21422718Y19151542D01*
X21779663Y18793974D01*
X22246273Y18600221D01*
X22751510Y18599780D01*
X23218458Y18792718D01*
X23576026Y19149663D01*
X23769779Y19616273D01*
X23769996Y19865200D01*
X24818894Y19864284D01*
X26339229Y20492474D01*
X27290000Y21441587D01*
X27290000Y6557135D01*
X26345347Y7503438D01*
X24826111Y8134280D01*
X23770005Y8135202D01*
X23770220Y8381510D01*
X23577282Y8848458D01*
X23220337Y9206026D01*
X22753727Y9399779D01*
X22248490Y9400220D01*
X21781542Y9207282D01*
X21423974Y8850337D01*
X21230221Y8383727D01*
X21229780Y7878490D01*
X21422718Y7411542D01*
X21493545Y7340591D01*
X20496562Y6345347D01*
X19865720Y4826111D01*
X19864284Y3181106D01*
X20492474Y1660771D01*
X21441587Y710000D01*
X6557135Y710000D01*
X7503438Y1654653D01*
X8134280Y3173889D01*
X8135716Y4818894D01*
X7507526Y6339229D01*
X6345347Y7503438D01*
X4826111Y8134280D01*
X3181106Y8135716D01*
X1660771Y7507526D01*
X710000Y6558413D01*
X710000Y16700000D01*
X4402560Y16700000D01*
X4402560Y14300000D01*
X4446838Y14064683D01*
X4585910Y13848559D01*
X4798110Y13703569D01*
X5050000Y13652560D01*
X5444288Y13652560D01*
X5211914Y13556545D01*
X4695270Y13040801D01*
X4415319Y12366605D01*
X4414682Y11636597D01*
X4693455Y10961914D01*
X5209199Y10445270D01*
X5883395Y10165319D01*
X6613403Y10164682D01*
X7288086Y10443455D01*
X7804730Y10959199D01*
X8084681Y11633395D01*
X8085318Y12363403D01*
X7806545Y13038086D01*
X7290801Y13554730D01*
X7055201Y13652560D01*
X7450000Y13652560D01*
X7685317Y13696838D01*
X7901441Y13835910D01*
X8046431Y14048110D01*
X8097440Y14300000D01*
X8097440Y16700000D01*
X8053162Y16935317D01*
X7914090Y17151441D01*
X7701890Y17296431D01*
X7450000Y17347440D01*
X5050000Y17347440D01*
X4814683Y17303162D01*
X4598559Y17164090D01*
X4453569Y16951890D01*
X4402560Y16700000D01*
X710000Y16700000D01*
X710000Y21442865D01*
X1654653Y20496562D01*
X3173889Y19865720D01*
X4818894Y19864284D01*
X6339229Y20492474D01*
X7503438Y21654653D01*
X8134280Y23173889D01*
X8135716Y24818894D01*
X7507526Y26339229D01*
X6558413Y27290000D01*
X21442865Y27290000D01*
X20496562Y26345347D01*
M02*
