G04 #@! TF.FileFunction,Legend,Top*
%FSLAX46Y46*%
G04 Gerber Fmt 4.6, Leading zero omitted, Abs format (unit mm)*
G04 Created by KiCad (PCBNEW 4.0.2-stable) date 4/28/2016 11:26:28 AM*
%MOMM*%
G01*
G04 APERTURE LIST*
%ADD10C,0.100000*%
%ADD11C,0.150000*%
%ADD12C,0.300000*%
%ADD13C,0.198120*%
%ADD14C,0.200000*%
G04 APERTURE END LIST*
D10*
D11*
X7285714Y26370238D02*
X7428571Y26322619D01*
X7666667Y26322619D01*
X7761905Y26370238D01*
X7809524Y26417857D01*
X7857143Y26513095D01*
X7857143Y26608333D01*
X7809524Y26703571D01*
X7761905Y26751190D01*
X7666667Y26798810D01*
X7476190Y26846429D01*
X7380952Y26894048D01*
X7333333Y26941667D01*
X7285714Y27036905D01*
X7285714Y27132143D01*
X7333333Y27227381D01*
X7380952Y27275000D01*
X7476190Y27322619D01*
X7714286Y27322619D01*
X7857143Y27275000D01*
X8285714Y26322619D02*
X8285714Y26989286D01*
X8285714Y26894048D02*
X8333333Y26941667D01*
X8428571Y26989286D01*
X8571429Y26989286D01*
X8666667Y26941667D01*
X8714286Y26846429D01*
X8714286Y26322619D01*
X8714286Y26846429D02*
X8761905Y26941667D01*
X8857143Y26989286D01*
X9000000Y26989286D01*
X9095238Y26941667D01*
X9142857Y26846429D01*
X9142857Y26322619D01*
X9761904Y26322619D02*
X9666666Y26370238D01*
X9619047Y26417857D01*
X9571428Y26513095D01*
X9571428Y26798810D01*
X9619047Y26894048D01*
X9666666Y26941667D01*
X9761904Y26989286D01*
X9904762Y26989286D01*
X10000000Y26941667D01*
X10047619Y26894048D01*
X10095238Y26798810D01*
X10095238Y26513095D01*
X10047619Y26417857D01*
X10000000Y26370238D01*
X9904762Y26322619D01*
X9761904Y26322619D01*
X10666666Y26322619D02*
X10571428Y26370238D01*
X10523809Y26417857D01*
X10476190Y26513095D01*
X10476190Y26798810D01*
X10523809Y26894048D01*
X10571428Y26941667D01*
X10666666Y26989286D01*
X10809524Y26989286D01*
X10904762Y26941667D01*
X10952381Y26894048D01*
X11000000Y26798810D01*
X11000000Y26513095D01*
X10952381Y26417857D01*
X10904762Y26370238D01*
X10809524Y26322619D01*
X10666666Y26322619D01*
X11285714Y26989286D02*
X11666666Y26989286D01*
X11428571Y27322619D02*
X11428571Y26465476D01*
X11476190Y26370238D01*
X11571428Y26322619D01*
X11666666Y26322619D01*
X12000000Y26322619D02*
X12000000Y27322619D01*
X12428572Y26322619D02*
X12428572Y26846429D01*
X12380953Y26941667D01*
X12285715Y26989286D01*
X12142857Y26989286D01*
X12047619Y26941667D01*
X12000000Y26894048D01*
X12904762Y26322619D02*
X12904762Y26989286D01*
X12904762Y27322619D02*
X12857143Y27275000D01*
X12904762Y27227381D01*
X12952381Y27275000D01*
X12904762Y27322619D01*
X12904762Y27227381D01*
X13761905Y26370238D02*
X13666667Y26322619D01*
X13476190Y26322619D01*
X13380952Y26370238D01*
X13333333Y26465476D01*
X13333333Y26846429D01*
X13380952Y26941667D01*
X13476190Y26989286D01*
X13666667Y26989286D01*
X13761905Y26941667D01*
X13809524Y26846429D01*
X13809524Y26751190D01*
X13333333Y26655952D01*
X14571429Y26846429D02*
X14714286Y26798810D01*
X14761905Y26751190D01*
X14809524Y26655952D01*
X14809524Y26513095D01*
X14761905Y26417857D01*
X14714286Y26370238D01*
X14619048Y26322619D01*
X14238095Y26322619D01*
X14238095Y27322619D01*
X14571429Y27322619D01*
X14666667Y27275000D01*
X14714286Y27227381D01*
X14761905Y27132143D01*
X14761905Y27036905D01*
X14714286Y26941667D01*
X14666667Y26894048D01*
X14571429Y26846429D01*
X14238095Y26846429D01*
X15380952Y26322619D02*
X15285714Y26370238D01*
X15238095Y26417857D01*
X15190476Y26513095D01*
X15190476Y26798810D01*
X15238095Y26894048D01*
X15285714Y26941667D01*
X15380952Y26989286D01*
X15523810Y26989286D01*
X15619048Y26941667D01*
X15666667Y26894048D01*
X15714286Y26798810D01*
X15714286Y26513095D01*
X15666667Y26417857D01*
X15619048Y26370238D01*
X15523810Y26322619D01*
X15380952Y26322619D01*
X16571429Y26322619D02*
X16571429Y26846429D01*
X16523810Y26941667D01*
X16428572Y26989286D01*
X16238095Y26989286D01*
X16142857Y26941667D01*
X16571429Y26370238D02*
X16476191Y26322619D01*
X16238095Y26322619D01*
X16142857Y26370238D01*
X16095238Y26465476D01*
X16095238Y26560714D01*
X16142857Y26655952D01*
X16238095Y26703571D01*
X16476191Y26703571D01*
X16571429Y26751190D01*
X17047619Y26322619D02*
X17047619Y26989286D01*
X17047619Y26798810D02*
X17095238Y26894048D01*
X17142857Y26941667D01*
X17238095Y26989286D01*
X17333334Y26989286D01*
X18095239Y26322619D02*
X18095239Y27322619D01*
X18095239Y26370238D02*
X18000001Y26322619D01*
X17809524Y26322619D01*
X17714286Y26370238D01*
X17666667Y26417857D01*
X17619048Y26513095D01*
X17619048Y26798810D01*
X17666667Y26894048D01*
X17714286Y26941667D01*
X17809524Y26989286D01*
X18000001Y26989286D01*
X18095239Y26941667D01*
X19190477Y27322619D02*
X19523810Y26322619D01*
X19857144Y27322619D01*
X20142858Y27227381D02*
X20190477Y27275000D01*
X20285715Y27322619D01*
X20523811Y27322619D01*
X20619049Y27275000D01*
X20666668Y27227381D01*
X20714287Y27132143D01*
X20714287Y27036905D01*
X20666668Y26894048D01*
X20095239Y26322619D01*
X20714287Y26322619D01*
X8119047Y25296429D02*
X8452381Y25296429D01*
X8595238Y24772619D02*
X8119047Y24772619D01*
X8119047Y25772619D01*
X8595238Y25772619D01*
X8928571Y24772619D02*
X9452381Y25439286D01*
X8928571Y25439286D02*
X9452381Y24772619D01*
X9690476Y25439286D02*
X10071428Y25439286D01*
X9833333Y25772619D02*
X9833333Y24915476D01*
X9880952Y24820238D01*
X9976190Y24772619D01*
X10071428Y24772619D01*
X10785715Y24820238D02*
X10690477Y24772619D01*
X10500000Y24772619D01*
X10404762Y24820238D01*
X10357143Y24915476D01*
X10357143Y25296429D01*
X10404762Y25391667D01*
X10500000Y25439286D01*
X10690477Y25439286D01*
X10785715Y25391667D01*
X10833334Y25296429D01*
X10833334Y25201190D01*
X10357143Y25105952D01*
X11261905Y25439286D02*
X11261905Y24772619D01*
X11261905Y25344048D02*
X11309524Y25391667D01*
X11404762Y25439286D01*
X11547620Y25439286D01*
X11642858Y25391667D01*
X11690477Y25296429D01*
X11690477Y24772619D01*
X12119048Y24820238D02*
X12214286Y24772619D01*
X12404762Y24772619D01*
X12500001Y24820238D01*
X12547620Y24915476D01*
X12547620Y24963095D01*
X12500001Y25058333D01*
X12404762Y25105952D01*
X12261905Y25105952D01*
X12166667Y25153571D01*
X12119048Y25248810D01*
X12119048Y25296429D01*
X12166667Y25391667D01*
X12261905Y25439286D01*
X12404762Y25439286D01*
X12500001Y25391667D01*
X12976191Y24772619D02*
X12976191Y25439286D01*
X12976191Y25772619D02*
X12928572Y25725000D01*
X12976191Y25677381D01*
X13023810Y25725000D01*
X12976191Y25772619D01*
X12976191Y25677381D01*
X13595238Y24772619D02*
X13500000Y24820238D01*
X13452381Y24867857D01*
X13404762Y24963095D01*
X13404762Y25248810D01*
X13452381Y25344048D01*
X13500000Y25391667D01*
X13595238Y25439286D01*
X13738096Y25439286D01*
X13833334Y25391667D01*
X13880953Y25344048D01*
X13928572Y25248810D01*
X13928572Y24963095D01*
X13880953Y24867857D01*
X13833334Y24820238D01*
X13738096Y24772619D01*
X13595238Y24772619D01*
X14357143Y25439286D02*
X14357143Y24772619D01*
X14357143Y25344048D02*
X14404762Y25391667D01*
X14500000Y25439286D01*
X14642858Y25439286D01*
X14738096Y25391667D01*
X14785715Y25296429D01*
X14785715Y24772619D01*
X16357144Y25296429D02*
X16500001Y25248810D01*
X16547620Y25201190D01*
X16595239Y25105952D01*
X16595239Y24963095D01*
X16547620Y24867857D01*
X16500001Y24820238D01*
X16404763Y24772619D01*
X16023810Y24772619D01*
X16023810Y25772619D01*
X16357144Y25772619D01*
X16452382Y25725000D01*
X16500001Y25677381D01*
X16547620Y25582143D01*
X16547620Y25486905D01*
X16500001Y25391667D01*
X16452382Y25344048D01*
X16357144Y25296429D01*
X16023810Y25296429D01*
X17166667Y24772619D02*
X17071429Y24820238D01*
X17023810Y24867857D01*
X16976191Y24963095D01*
X16976191Y25248810D01*
X17023810Y25344048D01*
X17071429Y25391667D01*
X17166667Y25439286D01*
X17309525Y25439286D01*
X17404763Y25391667D01*
X17452382Y25344048D01*
X17500001Y25248810D01*
X17500001Y24963095D01*
X17452382Y24867857D01*
X17404763Y24820238D01*
X17309525Y24772619D01*
X17166667Y24772619D01*
X18357144Y24772619D02*
X18357144Y25296429D01*
X18309525Y25391667D01*
X18214287Y25439286D01*
X18023810Y25439286D01*
X17928572Y25391667D01*
X18357144Y24820238D02*
X18261906Y24772619D01*
X18023810Y24772619D01*
X17928572Y24820238D01*
X17880953Y24915476D01*
X17880953Y25010714D01*
X17928572Y25105952D01*
X18023810Y25153571D01*
X18261906Y25153571D01*
X18357144Y25201190D01*
X18833334Y24772619D02*
X18833334Y25439286D01*
X18833334Y25248810D02*
X18880953Y25344048D01*
X18928572Y25391667D01*
X19023810Y25439286D01*
X19119049Y25439286D01*
X19880954Y24772619D02*
X19880954Y25772619D01*
X19880954Y24820238D02*
X19785716Y24772619D01*
X19595239Y24772619D01*
X19500001Y24820238D01*
X19452382Y24867857D01*
X19404763Y24963095D01*
X19404763Y25248810D01*
X19452382Y25344048D01*
X19500001Y25391667D01*
X19595239Y25439286D01*
X19785716Y25439286D01*
X19880954Y25391667D01*
X11095238Y4822619D02*
X11095238Y5822619D01*
X11666667Y4822619D02*
X11238095Y5394048D01*
X11666667Y5822619D02*
X11095238Y5251190D01*
X12095238Y5203571D02*
X12857143Y5203571D01*
X13190476Y5822619D02*
X13761905Y5822619D01*
X13476190Y4822619D02*
X13476190Y5822619D01*
X14000000Y5489286D02*
X14238095Y4822619D01*
X14476191Y5489286D02*
X14238095Y4822619D01*
X14142857Y4584524D01*
X14095238Y4536905D01*
X14000000Y4489286D01*
X14857143Y5489286D02*
X14857143Y4489286D01*
X14857143Y5441667D02*
X14952381Y5489286D01*
X15142858Y5489286D01*
X15238096Y5441667D01*
X15285715Y5394048D01*
X15333334Y5298810D01*
X15333334Y5013095D01*
X15285715Y4917857D01*
X15238096Y4870238D01*
X15142858Y4822619D01*
X14952381Y4822619D01*
X14857143Y4870238D01*
X16142858Y4870238D02*
X16047620Y4822619D01*
X15857143Y4822619D01*
X15761905Y4870238D01*
X15714286Y4965476D01*
X15714286Y5346429D01*
X15761905Y5441667D01*
X15857143Y5489286D01*
X16047620Y5489286D01*
X16142858Y5441667D01*
X16190477Y5346429D01*
X16190477Y5251190D01*
X15714286Y5155952D01*
X8928571Y4272619D02*
X9500000Y4272619D01*
X9214285Y3272619D02*
X9214285Y4272619D01*
X9833333Y3272619D02*
X9833333Y4272619D01*
X10261905Y3272619D02*
X10261905Y3796429D01*
X10214286Y3891667D01*
X10119048Y3939286D01*
X9976190Y3939286D01*
X9880952Y3891667D01*
X9833333Y3844048D01*
X11119048Y3320238D02*
X11023810Y3272619D01*
X10833333Y3272619D01*
X10738095Y3320238D01*
X10690476Y3415476D01*
X10690476Y3796429D01*
X10738095Y3891667D01*
X10833333Y3939286D01*
X11023810Y3939286D01*
X11119048Y3891667D01*
X11166667Y3796429D01*
X11166667Y3701190D01*
X10690476Y3605952D01*
X11595238Y3272619D02*
X11595238Y3939286D01*
X11595238Y3748810D02*
X11642857Y3844048D01*
X11690476Y3891667D01*
X11785714Y3939286D01*
X11880953Y3939286D01*
X12214286Y3272619D02*
X12214286Y3939286D01*
X12214286Y3844048D02*
X12261905Y3891667D01*
X12357143Y3939286D01*
X12500001Y3939286D01*
X12595239Y3891667D01*
X12642858Y3796429D01*
X12642858Y3272619D01*
X12642858Y3796429D02*
X12690477Y3891667D01*
X12785715Y3939286D01*
X12928572Y3939286D01*
X13023810Y3891667D01*
X13071429Y3796429D01*
X13071429Y3272619D01*
X13690476Y3272619D02*
X13595238Y3320238D01*
X13547619Y3367857D01*
X13500000Y3463095D01*
X13500000Y3748810D01*
X13547619Y3844048D01*
X13595238Y3891667D01*
X13690476Y3939286D01*
X13833334Y3939286D01*
X13928572Y3891667D01*
X13976191Y3844048D01*
X14023810Y3748810D01*
X14023810Y3463095D01*
X13976191Y3367857D01*
X13928572Y3320238D01*
X13833334Y3272619D01*
X13690476Y3272619D01*
X14880953Y3320238D02*
X14785715Y3272619D01*
X14595238Y3272619D01*
X14500000Y3320238D01*
X14452381Y3367857D01*
X14404762Y3463095D01*
X14404762Y3748810D01*
X14452381Y3844048D01*
X14500000Y3891667D01*
X14595238Y3939286D01*
X14785715Y3939286D01*
X14880953Y3891667D01*
X15452381Y3272619D02*
X15357143Y3320238D01*
X15309524Y3367857D01*
X15261905Y3463095D01*
X15261905Y3748810D01*
X15309524Y3844048D01*
X15357143Y3891667D01*
X15452381Y3939286D01*
X15595239Y3939286D01*
X15690477Y3891667D01*
X15738096Y3844048D01*
X15785715Y3748810D01*
X15785715Y3463095D01*
X15738096Y3367857D01*
X15690477Y3320238D01*
X15595239Y3272619D01*
X15452381Y3272619D01*
X16642858Y3939286D02*
X16642858Y3272619D01*
X16214286Y3939286D02*
X16214286Y3415476D01*
X16261905Y3320238D01*
X16357143Y3272619D01*
X16500001Y3272619D01*
X16595239Y3320238D01*
X16642858Y3367857D01*
X17119048Y3939286D02*
X17119048Y2939286D01*
X17119048Y3891667D02*
X17214286Y3939286D01*
X17404763Y3939286D01*
X17500001Y3891667D01*
X17547620Y3844048D01*
X17595239Y3748810D01*
X17595239Y3463095D01*
X17547620Y3367857D01*
X17500001Y3320238D01*
X17404763Y3272619D01*
X17214286Y3272619D01*
X17119048Y3320238D01*
X18166667Y3272619D02*
X18071429Y3320238D01*
X18023810Y3415476D01*
X18023810Y4272619D01*
X18928573Y3320238D02*
X18833335Y3272619D01*
X18642858Y3272619D01*
X18547620Y3320238D01*
X18500001Y3415476D01*
X18500001Y3796429D01*
X18547620Y3891667D01*
X18642858Y3939286D01*
X18833335Y3939286D01*
X18928573Y3891667D01*
X18976192Y3796429D01*
X18976192Y3701190D01*
X18500001Y3605952D01*
D12*
X6142857Y20071429D02*
X7000000Y20071429D01*
X6571429Y18571429D02*
X6571429Y20071429D01*
X7500000Y19142857D02*
X8642857Y19142857D01*
X6142857Y8821429D02*
X7000000Y8821429D01*
X6571429Y7321429D02*
X6571429Y8821429D01*
X7500000Y7892857D02*
X8642857Y7892857D01*
X8071428Y7321429D02*
X8071428Y8464286D01*
D13*
X24610000Y9510000D02*
X24610000Y9070000D01*
X23550000Y8620000D02*
X23470000Y8750000D01*
X23470000Y8750000D02*
X23340000Y8910000D01*
X23340000Y8910000D02*
X23170000Y9050000D01*
X23170000Y9050000D02*
X23080000Y9080000D01*
X23080000Y9080000D02*
X24610000Y9080000D01*
X24610000Y9080000D02*
X24610000Y8640000D01*
X23900000Y10070000D02*
X23700000Y10070000D01*
X23700000Y9970000D02*
X23900000Y9970000D01*
X24000000Y9870000D02*
X23600000Y9870000D01*
X23600000Y9770000D02*
X24000000Y9770000D01*
X24100000Y9670000D02*
X23500000Y9670000D01*
X23800000Y10370000D02*
X24200000Y9570000D01*
X24200000Y9570000D02*
X23400000Y9570000D01*
X23400000Y9570000D02*
X23800000Y10370000D01*
D11*
X10100000Y9900000D02*
X9400000Y9900000D01*
X9400000Y11100000D02*
X10100000Y11100000D01*
X15750000Y8750000D02*
X15500000Y8750000D01*
X16250000Y8750000D02*
X16500000Y8750000D01*
X16250000Y8750000D02*
X15750000Y8400000D01*
X15750000Y8400000D02*
X15750000Y9100000D01*
X15750000Y9100000D02*
X16250000Y8750000D01*
X16250000Y8400000D02*
X16250000Y9100000D01*
X17300000Y9550000D02*
X14900000Y9550000D01*
X17300000Y7950000D02*
X14900000Y7950000D01*
X15750000Y19000000D02*
X15500000Y19000000D01*
X16250000Y19000000D02*
X16500000Y19000000D01*
X16250000Y19000000D02*
X15750000Y18650000D01*
X15750000Y18650000D02*
X15750000Y19350000D01*
X15750000Y19350000D02*
X16250000Y19000000D01*
X16250000Y18650000D02*
X16250000Y19350000D01*
X17300000Y19800000D02*
X14900000Y19800000D01*
X17300000Y18200000D02*
X14900000Y18200000D01*
X13250000Y8075000D02*
X12250000Y8075000D01*
X12250000Y9425000D02*
X13250000Y9425000D01*
X13250000Y18325000D02*
X12250000Y18325000D01*
X12250000Y19675000D02*
X13250000Y19675000D01*
X8150000Y13650000D02*
X8150000Y14350000D01*
X9350000Y14350000D02*
X9350000Y13650000D01*
X12865000Y15905000D02*
G75*
G03X12865000Y15905000I-127000J0D01*
G01*
X12103000Y16540000D02*
X12103000Y11460000D01*
X15405000Y16540000D02*
X15405000Y11460000D01*
X11595000Y16540000D02*
X11595000Y11460000D01*
X11595000Y16540000D02*
X15405000Y16540000D01*
X11595000Y11460000D02*
X15405000Y11460000D01*
D14*
X26702381Y7761905D02*
X25702381Y7761905D01*
X25702381Y8142858D01*
X25750000Y8238096D01*
X25797619Y8285715D01*
X25892857Y8333334D01*
X26035714Y8333334D01*
X26130952Y8285715D01*
X26178571Y8238096D01*
X26226190Y8142858D01*
X26226190Y7761905D01*
X25797619Y8714286D02*
X25750000Y8761905D01*
X25702381Y8857143D01*
X25702381Y9095239D01*
X25750000Y9190477D01*
X25797619Y9238096D01*
X25892857Y9285715D01*
X25988095Y9285715D01*
X26130952Y9238096D01*
X26702381Y8666667D01*
X26702381Y9285715D01*
D11*
X12083334Y10142857D02*
X12035715Y10095238D01*
X11892858Y10047619D01*
X11797620Y10047619D01*
X11654762Y10095238D01*
X11559524Y10190476D01*
X11511905Y10285714D01*
X11464286Y10476190D01*
X11464286Y10619048D01*
X11511905Y10809524D01*
X11559524Y10904762D01*
X11654762Y11000000D01*
X11797620Y11047619D01*
X11892858Y11047619D01*
X12035715Y11000000D01*
X12083334Y10952381D01*
X13035715Y10047619D02*
X12464286Y10047619D01*
X12750000Y10047619D02*
X12750000Y11047619D01*
X12654762Y10904762D01*
X12559524Y10809524D01*
X12464286Y10761905D01*
X15261905Y6447619D02*
X15261905Y7447619D01*
X15500000Y7447619D01*
X15642858Y7400000D01*
X15738096Y7304762D01*
X15785715Y7209524D01*
X15833334Y7019048D01*
X15833334Y6876190D01*
X15785715Y6685714D01*
X15738096Y6590476D01*
X15642858Y6495238D01*
X15500000Y6447619D01*
X15261905Y6447619D01*
X16785715Y6447619D02*
X16214286Y6447619D01*
X16500000Y6447619D02*
X16500000Y7447619D01*
X16404762Y7304762D01*
X16309524Y7209524D01*
X16214286Y7161905D01*
X15261905Y20547619D02*
X15261905Y21547619D01*
X15500000Y21547619D01*
X15642858Y21500000D01*
X15738096Y21404762D01*
X15785715Y21309524D01*
X15833334Y21119048D01*
X15833334Y20976190D01*
X15785715Y20785714D01*
X15738096Y20690476D01*
X15642858Y20595238D01*
X15500000Y20547619D01*
X15261905Y20547619D01*
X16214286Y21452381D02*
X16261905Y21500000D01*
X16357143Y21547619D01*
X16595239Y21547619D01*
X16690477Y21500000D01*
X16738096Y21452381D01*
X16785715Y21357143D01*
X16785715Y21261905D01*
X16738096Y21119048D01*
X16166667Y20547619D01*
X16785715Y20547619D01*
X12583334Y6547619D02*
X12250000Y7023810D01*
X12011905Y6547619D02*
X12011905Y7547619D01*
X12392858Y7547619D01*
X12488096Y7500000D01*
X12535715Y7452381D01*
X12583334Y7357143D01*
X12583334Y7214286D01*
X12535715Y7119048D01*
X12488096Y7071429D01*
X12392858Y7023810D01*
X12011905Y7023810D01*
X13535715Y6547619D02*
X12964286Y6547619D01*
X13250000Y6547619D02*
X13250000Y7547619D01*
X13154762Y7404762D01*
X13059524Y7309524D01*
X12964286Y7261905D01*
X12583334Y20447619D02*
X12250000Y20923810D01*
X12011905Y20447619D02*
X12011905Y21447619D01*
X12392858Y21447619D01*
X12488096Y21400000D01*
X12535715Y21352381D01*
X12583334Y21257143D01*
X12583334Y21114286D01*
X12535715Y21019048D01*
X12488096Y20971429D01*
X12392858Y20923810D01*
X12011905Y20923810D01*
X12964286Y21352381D02*
X13011905Y21400000D01*
X13107143Y21447619D01*
X13345239Y21447619D01*
X13440477Y21400000D01*
X13488096Y21352381D01*
X13535715Y21257143D01*
X13535715Y21161905D01*
X13488096Y21019048D01*
X12916667Y20447619D01*
X13535715Y20447619D01*
X8583334Y15892857D02*
X8535715Y15845238D01*
X8392858Y15797619D01*
X8297620Y15797619D01*
X8154762Y15845238D01*
X8059524Y15940476D01*
X8011905Y16035714D01*
X7964286Y16226190D01*
X7964286Y16369048D01*
X8011905Y16559524D01*
X8059524Y16654762D01*
X8154762Y16750000D01*
X8297620Y16797619D01*
X8392858Y16797619D01*
X8535715Y16750000D01*
X8583334Y16702381D01*
X8964286Y16702381D02*
X9011905Y16750000D01*
X9107143Y16797619D01*
X9345239Y16797619D01*
X9440477Y16750000D01*
X9488096Y16702381D01*
X9535715Y16607143D01*
X9535715Y16511905D01*
X9488096Y16369048D01*
X8916667Y15797619D01*
X9535715Y15797619D01*
X2011905Y13547619D02*
X2011905Y14547619D01*
X2392858Y14547619D01*
X2488096Y14500000D01*
X2535715Y14452381D01*
X2583334Y14357143D01*
X2583334Y14214286D01*
X2535715Y14119048D01*
X2488096Y14071429D01*
X2392858Y14023810D01*
X2011905Y14023810D01*
X3535715Y13547619D02*
X2964286Y13547619D01*
X3250000Y13547619D02*
X3250000Y14547619D01*
X3154762Y14404762D01*
X3059524Y14309524D01*
X2964286Y14261905D01*
X12952381Y13238095D02*
X13761905Y13238095D01*
X13857143Y13285714D01*
X13904762Y13333333D01*
X13952381Y13428571D01*
X13952381Y13619048D01*
X13904762Y13714286D01*
X13857143Y13761905D01*
X13761905Y13809524D01*
X12952381Y13809524D01*
X13952381Y14809524D02*
X13952381Y14238095D01*
X13952381Y14523809D02*
X12952381Y14523809D01*
X13095238Y14428571D01*
X13190476Y14333333D01*
X13238095Y14238095D01*
M02*
