G04 #@! TF.FileFunction,Copper,L1,Top,Signal*
%FSLAX46Y46*%
G04 Gerber Fmt 4.6, Leading zero omitted, Abs format (unit mm)*
G04 Created by KiCad (PCBNEW 4.0.2-stable) date 4/28/2016 11:26:27 AM*
%MOMM*%
G01*
G04 APERTURE LIST*
%ADD10C,0.100000*%
%ADD11R,2.790000X0.740000*%
%ADD12C,1.270000*%
%ADD13R,0.800000X0.750000*%
%ADD14R,0.590000X0.450000*%
%ADD15R,0.500000X0.900000*%
%ADD16R,0.750000X0.800000*%
%ADD17C,2.400000*%
%ADD18R,2.400000X2.400000*%
%ADD19O,1.473200X0.609600*%
%ADD20C,7.000000*%
%ADD21C,0.600000*%
%ADD22C,0.250000*%
%ADD23C,0.254000*%
G04 APERTURE END LIST*
D10*
D11*
X19840000Y15270000D03*
X25160000Y15270000D03*
X19840000Y14000000D03*
X25160000Y14000000D03*
X25160000Y11460000D03*
X19840000Y11460000D03*
X25160000Y12730000D03*
X19840000Y12730000D03*
X19840000Y16540000D03*
X25160000Y16540000D03*
D12*
X22500000Y8130000D03*
X22500000Y19870000D03*
D13*
X10500000Y10500000D03*
X9000000Y10500000D03*
D14*
X17055000Y8750000D03*
X14945000Y8750000D03*
X17055000Y19000000D03*
X14945000Y19000000D03*
D15*
X12000000Y8750000D03*
X13500000Y8750000D03*
X12000000Y19000000D03*
X13500000Y19000000D03*
D16*
X8750000Y13250000D03*
X8750000Y14750000D03*
D17*
X6250000Y12250000D03*
D18*
X6250000Y15750000D03*
D19*
X10706000Y15905000D03*
X10706000Y14635000D03*
X10706000Y13365000D03*
X10706000Y12095000D03*
X16294000Y12095000D03*
X16294000Y13365000D03*
X16294000Y14635000D03*
X16294000Y15905000D03*
D20*
X4000000Y4000000D03*
X24000000Y4000000D03*
X4000000Y24000000D03*
X24000000Y24000000D03*
D21*
X18500000Y10000000D03*
X13750000Y10750000D03*
X26000000Y18750000D03*
X26000000Y10000000D03*
X17250000Y17250000D03*
D22*
X18500000Y10000000D02*
X19500000Y10000000D01*
X13799998Y10700002D02*
X13756939Y12250193D01*
X13750000Y10750000D02*
X13799998Y10700002D01*
X19840000Y16540000D02*
X17960000Y16540000D01*
X17960000Y16540000D02*
X17250000Y17250000D01*
X12000000Y8750000D02*
X12000000Y7500000D01*
X23460000Y11460000D02*
X25160000Y11460000D01*
X19250000Y7250000D02*
X23460000Y11460000D01*
X12250000Y7250000D02*
X19250000Y7250000D01*
X12000000Y7500000D02*
X12250000Y7250000D01*
X10500000Y10500000D02*
X12000000Y10500000D01*
X10706000Y12095000D02*
X12000000Y12095000D01*
X12000000Y12095000D02*
X12000000Y12000000D01*
X25660000Y11460000D02*
X24460000Y11460000D01*
X12000000Y19000000D02*
X12000000Y12000000D01*
X12000000Y12000000D02*
X12000000Y10500000D01*
X12000000Y10500000D02*
X12000000Y8750000D01*
X16294000Y12095000D02*
X15405000Y12095000D01*
X14250000Y19000000D02*
X14945000Y19000000D01*
X14250000Y13250000D02*
X14250000Y19000000D01*
X15405000Y12095000D02*
X14250000Y13250000D01*
X14945000Y19000000D02*
X13500000Y19000000D01*
X16294000Y13365000D02*
X17249957Y13365353D01*
X14250000Y8750000D02*
X14945000Y8750000D01*
X14250000Y9750000D02*
X14250000Y8750000D01*
X14750000Y10250000D02*
X14250000Y9750000D01*
X16250000Y10250000D02*
X14750000Y10250000D01*
X17500000Y11500000D02*
X16250000Y10250000D01*
X17500000Y13250000D02*
X17500000Y11500000D01*
X17249957Y13365353D02*
X17500000Y13250000D01*
X14945000Y8750000D02*
X13500000Y8750000D01*
X16294000Y14635000D02*
X17385000Y14635000D01*
X18020000Y15270000D02*
X20340000Y15270000D01*
X17385000Y14635000D02*
X18020000Y15270000D01*
X17055000Y8750000D02*
X19750000Y8750000D01*
X22250000Y14000000D02*
X19840000Y14000000D01*
X22250000Y11250000D02*
X22250000Y14000000D01*
X19750000Y8750000D02*
X22250000Y11250000D01*
X17055000Y19000000D02*
X20750000Y19000000D01*
X23210000Y16540000D02*
X25660000Y16540000D01*
X20750000Y19000000D02*
X23210000Y16540000D01*
X10706000Y13365000D02*
X8865000Y13365000D01*
X8865000Y13365000D02*
X8750000Y13250000D01*
X8750000Y13250000D02*
X7500000Y13250000D01*
X7500000Y13250000D02*
X6250000Y12250000D01*
X8750000Y14750000D02*
X7250000Y14750000D01*
X7250000Y14750000D02*
X6250000Y15750000D01*
X10706000Y14635000D02*
X8865000Y14635000D01*
X8865000Y14635000D02*
X8750000Y14750000D01*
X7000000Y15000000D02*
X6250000Y15750000D01*
D23*
G36*
X20496562Y26345347D02*
X19865720Y24826111D01*
X19864284Y23181106D01*
X20492474Y21660771D01*
X21492627Y20658871D01*
X21423974Y20590337D01*
X21230221Y20123727D01*
X21229780Y19618490D01*
X21254088Y19559660D01*
X21040839Y19702148D01*
X20750000Y19760000D01*
X17691797Y19760000D01*
X17601890Y19821431D01*
X17350000Y19872440D01*
X16760000Y19872440D01*
X16524683Y19828162D01*
X16308559Y19689090D01*
X16163569Y19476890D01*
X16112560Y19225000D01*
X16112560Y18775000D01*
X16156838Y18539683D01*
X16295910Y18323559D01*
X16508110Y18178569D01*
X16760000Y18127560D01*
X17350000Y18127560D01*
X17585317Y18171838D01*
X17691244Y18240000D01*
X20435198Y18240000D01*
X21130198Y17545000D01*
X20125750Y17545000D01*
X19967000Y17386250D01*
X19967000Y16667000D01*
X21711250Y16667000D01*
X21859724Y16815474D01*
X22672599Y16002599D01*
X22919160Y15837852D01*
X23148392Y15792255D01*
X23117560Y15640000D01*
X23117560Y14900000D01*
X23161838Y14664683D01*
X23179284Y14637572D01*
X23168569Y14621890D01*
X23117560Y14370000D01*
X23117560Y13630000D01*
X23161838Y13394683D01*
X23179284Y13367572D01*
X23168569Y13351890D01*
X23117560Y13100000D01*
X23117560Y12360000D01*
X23156394Y12153617D01*
X23010000Y12055800D01*
X23010000Y14000000D01*
X22952148Y14290839D01*
X22787401Y14537401D01*
X22540839Y14702148D01*
X22250000Y14760000D01*
X21854089Y14760000D01*
X21882440Y14900000D01*
X21882440Y15640000D01*
X21838162Y15875317D01*
X21815101Y15911154D01*
X21870000Y16043691D01*
X21870000Y16254250D01*
X21711250Y16413000D01*
X19967000Y16413000D01*
X19967000Y16393000D01*
X19713000Y16393000D01*
X19713000Y16413000D01*
X17968750Y16413000D01*
X17810000Y16254250D01*
X17810000Y16043691D01*
X17831225Y15992450D01*
X17729161Y15972148D01*
X17684986Y15942631D01*
X17620933Y16264646D01*
X17417210Y16569539D01*
X17112317Y16773262D01*
X16752671Y16844800D01*
X15835329Y16844800D01*
X15475683Y16773262D01*
X15170790Y16569539D01*
X15010000Y16328900D01*
X15010000Y17036309D01*
X17810000Y17036309D01*
X17810000Y16825750D01*
X17968750Y16667000D01*
X19713000Y16667000D01*
X19713000Y17386250D01*
X19554250Y17545000D01*
X18318690Y17545000D01*
X18085301Y17448327D01*
X17906673Y17269698D01*
X17810000Y17036309D01*
X15010000Y17036309D01*
X15010000Y18127560D01*
X15240000Y18127560D01*
X15475317Y18171838D01*
X15691441Y18310910D01*
X15836431Y18523110D01*
X15887440Y18775000D01*
X15887440Y19225000D01*
X15843162Y19460317D01*
X15704090Y19676441D01*
X15491890Y19821431D01*
X15240000Y19872440D01*
X14650000Y19872440D01*
X14414683Y19828162D01*
X14308756Y19760000D01*
X14305105Y19760000D01*
X14214090Y19901441D01*
X14001890Y20046431D01*
X13750000Y20097440D01*
X13250000Y20097440D01*
X13014683Y20053162D01*
X12798559Y19914090D01*
X12750866Y19844289D01*
X12714090Y19901441D01*
X12501890Y20046431D01*
X12250000Y20097440D01*
X11750000Y20097440D01*
X11514683Y20053162D01*
X11298559Y19914090D01*
X11153569Y19701890D01*
X11102560Y19450000D01*
X11102560Y18550000D01*
X11146838Y18314683D01*
X11240000Y18169905D01*
X11240000Y16844800D01*
X10833000Y16844800D01*
X10833000Y16032000D01*
X10853000Y16032000D01*
X10853000Y15778000D01*
X10833000Y15778000D01*
X10833000Y15758000D01*
X10579000Y15758000D01*
X10579000Y15778000D01*
X9503544Y15778000D01*
X9437881Y15704757D01*
X9376890Y15746431D01*
X9125000Y15797440D01*
X8375000Y15797440D01*
X8139683Y15753162D01*
X8097440Y15725979D01*
X8097440Y16176105D01*
X9374353Y16176105D01*
X9503544Y16032000D01*
X10579000Y16032000D01*
X10579000Y16844800D01*
X10147200Y16844800D01*
X9797221Y16724661D01*
X9519858Y16479736D01*
X9374353Y16176105D01*
X8097440Y16176105D01*
X8097440Y16700000D01*
X8053162Y16935317D01*
X7914090Y17151441D01*
X7701890Y17296431D01*
X7450000Y17347440D01*
X5050000Y17347440D01*
X4814683Y17303162D01*
X4598559Y17164090D01*
X4453569Y16951890D01*
X4402560Y16700000D01*
X4402560Y14300000D01*
X4446838Y14064683D01*
X4585910Y13848559D01*
X4798110Y13703569D01*
X5050000Y13652560D01*
X5444288Y13652560D01*
X5211914Y13556545D01*
X4695270Y13040801D01*
X4415319Y12366605D01*
X4414682Y11636597D01*
X4693455Y10961914D01*
X5209199Y10445270D01*
X5883395Y10165319D01*
X6613403Y10164682D01*
X6733366Y10214250D01*
X7965000Y10214250D01*
X7965000Y9998690D01*
X8061673Y9765301D01*
X8240302Y9586673D01*
X8473691Y9490000D01*
X8714250Y9490000D01*
X8873000Y9648750D01*
X8873000Y10373000D01*
X8123750Y10373000D01*
X7965000Y10214250D01*
X6733366Y10214250D01*
X7288086Y10443455D01*
X7804730Y10959199D01*
X7822216Y11001310D01*
X7965000Y11001310D01*
X7965000Y10785750D01*
X8123750Y10627000D01*
X8873000Y10627000D01*
X8873000Y11351250D01*
X8714250Y11510000D01*
X8473691Y11510000D01*
X8240302Y11413327D01*
X8061673Y11234699D01*
X7965000Y11001310D01*
X7822216Y11001310D01*
X8084681Y11633395D01*
X8085245Y12279441D01*
X8123110Y12253569D01*
X8375000Y12202560D01*
X9125000Y12202560D01*
X9336853Y12242423D01*
X9307529Y12095000D01*
X9379067Y11735354D01*
X9530920Y11508090D01*
X9526309Y11510000D01*
X9285750Y11510000D01*
X9127000Y11351250D01*
X9127000Y10627000D01*
X9147000Y10627000D01*
X9147000Y10373000D01*
X9127000Y10373000D01*
X9127000Y9648750D01*
X9285750Y9490000D01*
X9526309Y9490000D01*
X9759698Y9586673D01*
X9761068Y9588043D01*
X9848110Y9528569D01*
X10100000Y9477560D01*
X10900000Y9477560D01*
X11135317Y9521838D01*
X11240000Y9589200D01*
X11240000Y9578386D01*
X11153569Y9451890D01*
X11102560Y9200000D01*
X11102560Y8300000D01*
X11146838Y8064683D01*
X11240000Y7919905D01*
X11240000Y7500000D01*
X11297852Y7209161D01*
X11462599Y6962599D01*
X11712599Y6712599D01*
X11959160Y6547852D01*
X12250000Y6490000D01*
X19250000Y6490000D01*
X19540839Y6547852D01*
X19787401Y6712599D01*
X21230022Y8155220D01*
X21229780Y7878490D01*
X21422718Y7411542D01*
X21493545Y7340591D01*
X20496562Y6345347D01*
X19865720Y4826111D01*
X19864284Y3181106D01*
X20492474Y1660771D01*
X21441587Y710000D01*
X6557135Y710000D01*
X7503438Y1654653D01*
X8134280Y3173889D01*
X8135716Y4818894D01*
X7507526Y6339229D01*
X6345347Y7503438D01*
X4826111Y8134280D01*
X3181106Y8135716D01*
X1660771Y7507526D01*
X710000Y6558413D01*
X710000Y21442865D01*
X1654653Y20496562D01*
X3173889Y19865720D01*
X4818894Y19864284D01*
X6339229Y20492474D01*
X7503438Y21654653D01*
X8134280Y23173889D01*
X8135716Y24818894D01*
X7507526Y26339229D01*
X6558413Y27290000D01*
X21442865Y27290000D01*
X20496562Y26345347D01*
X20496562Y26345347D01*
G37*
X20496562Y26345347D02*
X19865720Y24826111D01*
X19864284Y23181106D01*
X20492474Y21660771D01*
X21492627Y20658871D01*
X21423974Y20590337D01*
X21230221Y20123727D01*
X21229780Y19618490D01*
X21254088Y19559660D01*
X21040839Y19702148D01*
X20750000Y19760000D01*
X17691797Y19760000D01*
X17601890Y19821431D01*
X17350000Y19872440D01*
X16760000Y19872440D01*
X16524683Y19828162D01*
X16308559Y19689090D01*
X16163569Y19476890D01*
X16112560Y19225000D01*
X16112560Y18775000D01*
X16156838Y18539683D01*
X16295910Y18323559D01*
X16508110Y18178569D01*
X16760000Y18127560D01*
X17350000Y18127560D01*
X17585317Y18171838D01*
X17691244Y18240000D01*
X20435198Y18240000D01*
X21130198Y17545000D01*
X20125750Y17545000D01*
X19967000Y17386250D01*
X19967000Y16667000D01*
X21711250Y16667000D01*
X21859724Y16815474D01*
X22672599Y16002599D01*
X22919160Y15837852D01*
X23148392Y15792255D01*
X23117560Y15640000D01*
X23117560Y14900000D01*
X23161838Y14664683D01*
X23179284Y14637572D01*
X23168569Y14621890D01*
X23117560Y14370000D01*
X23117560Y13630000D01*
X23161838Y13394683D01*
X23179284Y13367572D01*
X23168569Y13351890D01*
X23117560Y13100000D01*
X23117560Y12360000D01*
X23156394Y12153617D01*
X23010000Y12055800D01*
X23010000Y14000000D01*
X22952148Y14290839D01*
X22787401Y14537401D01*
X22540839Y14702148D01*
X22250000Y14760000D01*
X21854089Y14760000D01*
X21882440Y14900000D01*
X21882440Y15640000D01*
X21838162Y15875317D01*
X21815101Y15911154D01*
X21870000Y16043691D01*
X21870000Y16254250D01*
X21711250Y16413000D01*
X19967000Y16413000D01*
X19967000Y16393000D01*
X19713000Y16393000D01*
X19713000Y16413000D01*
X17968750Y16413000D01*
X17810000Y16254250D01*
X17810000Y16043691D01*
X17831225Y15992450D01*
X17729161Y15972148D01*
X17684986Y15942631D01*
X17620933Y16264646D01*
X17417210Y16569539D01*
X17112317Y16773262D01*
X16752671Y16844800D01*
X15835329Y16844800D01*
X15475683Y16773262D01*
X15170790Y16569539D01*
X15010000Y16328900D01*
X15010000Y17036309D01*
X17810000Y17036309D01*
X17810000Y16825750D01*
X17968750Y16667000D01*
X19713000Y16667000D01*
X19713000Y17386250D01*
X19554250Y17545000D01*
X18318690Y17545000D01*
X18085301Y17448327D01*
X17906673Y17269698D01*
X17810000Y17036309D01*
X15010000Y17036309D01*
X15010000Y18127560D01*
X15240000Y18127560D01*
X15475317Y18171838D01*
X15691441Y18310910D01*
X15836431Y18523110D01*
X15887440Y18775000D01*
X15887440Y19225000D01*
X15843162Y19460317D01*
X15704090Y19676441D01*
X15491890Y19821431D01*
X15240000Y19872440D01*
X14650000Y19872440D01*
X14414683Y19828162D01*
X14308756Y19760000D01*
X14305105Y19760000D01*
X14214090Y19901441D01*
X14001890Y20046431D01*
X13750000Y20097440D01*
X13250000Y20097440D01*
X13014683Y20053162D01*
X12798559Y19914090D01*
X12750866Y19844289D01*
X12714090Y19901441D01*
X12501890Y20046431D01*
X12250000Y20097440D01*
X11750000Y20097440D01*
X11514683Y20053162D01*
X11298559Y19914090D01*
X11153569Y19701890D01*
X11102560Y19450000D01*
X11102560Y18550000D01*
X11146838Y18314683D01*
X11240000Y18169905D01*
X11240000Y16844800D01*
X10833000Y16844800D01*
X10833000Y16032000D01*
X10853000Y16032000D01*
X10853000Y15778000D01*
X10833000Y15778000D01*
X10833000Y15758000D01*
X10579000Y15758000D01*
X10579000Y15778000D01*
X9503544Y15778000D01*
X9437881Y15704757D01*
X9376890Y15746431D01*
X9125000Y15797440D01*
X8375000Y15797440D01*
X8139683Y15753162D01*
X8097440Y15725979D01*
X8097440Y16176105D01*
X9374353Y16176105D01*
X9503544Y16032000D01*
X10579000Y16032000D01*
X10579000Y16844800D01*
X10147200Y16844800D01*
X9797221Y16724661D01*
X9519858Y16479736D01*
X9374353Y16176105D01*
X8097440Y16176105D01*
X8097440Y16700000D01*
X8053162Y16935317D01*
X7914090Y17151441D01*
X7701890Y17296431D01*
X7450000Y17347440D01*
X5050000Y17347440D01*
X4814683Y17303162D01*
X4598559Y17164090D01*
X4453569Y16951890D01*
X4402560Y16700000D01*
X4402560Y14300000D01*
X4446838Y14064683D01*
X4585910Y13848559D01*
X4798110Y13703569D01*
X5050000Y13652560D01*
X5444288Y13652560D01*
X5211914Y13556545D01*
X4695270Y13040801D01*
X4415319Y12366605D01*
X4414682Y11636597D01*
X4693455Y10961914D01*
X5209199Y10445270D01*
X5883395Y10165319D01*
X6613403Y10164682D01*
X6733366Y10214250D01*
X7965000Y10214250D01*
X7965000Y9998690D01*
X8061673Y9765301D01*
X8240302Y9586673D01*
X8473691Y9490000D01*
X8714250Y9490000D01*
X8873000Y9648750D01*
X8873000Y10373000D01*
X8123750Y10373000D01*
X7965000Y10214250D01*
X6733366Y10214250D01*
X7288086Y10443455D01*
X7804730Y10959199D01*
X7822216Y11001310D01*
X7965000Y11001310D01*
X7965000Y10785750D01*
X8123750Y10627000D01*
X8873000Y10627000D01*
X8873000Y11351250D01*
X8714250Y11510000D01*
X8473691Y11510000D01*
X8240302Y11413327D01*
X8061673Y11234699D01*
X7965000Y11001310D01*
X7822216Y11001310D01*
X8084681Y11633395D01*
X8085245Y12279441D01*
X8123110Y12253569D01*
X8375000Y12202560D01*
X9125000Y12202560D01*
X9336853Y12242423D01*
X9307529Y12095000D01*
X9379067Y11735354D01*
X9530920Y11508090D01*
X9526309Y11510000D01*
X9285750Y11510000D01*
X9127000Y11351250D01*
X9127000Y10627000D01*
X9147000Y10627000D01*
X9147000Y10373000D01*
X9127000Y10373000D01*
X9127000Y9648750D01*
X9285750Y9490000D01*
X9526309Y9490000D01*
X9759698Y9586673D01*
X9761068Y9588043D01*
X9848110Y9528569D01*
X10100000Y9477560D01*
X10900000Y9477560D01*
X11135317Y9521838D01*
X11240000Y9589200D01*
X11240000Y9578386D01*
X11153569Y9451890D01*
X11102560Y9200000D01*
X11102560Y8300000D01*
X11146838Y8064683D01*
X11240000Y7919905D01*
X11240000Y7500000D01*
X11297852Y7209161D01*
X11462599Y6962599D01*
X11712599Y6712599D01*
X11959160Y6547852D01*
X12250000Y6490000D01*
X19250000Y6490000D01*
X19540839Y6547852D01*
X19787401Y6712599D01*
X21230022Y8155220D01*
X21229780Y7878490D01*
X21422718Y7411542D01*
X21493545Y7340591D01*
X20496562Y6345347D01*
X19865720Y4826111D01*
X19864284Y3181106D01*
X20492474Y1660771D01*
X21441587Y710000D01*
X6557135Y710000D01*
X7503438Y1654653D01*
X8134280Y3173889D01*
X8135716Y4818894D01*
X7507526Y6339229D01*
X6345347Y7503438D01*
X4826111Y8134280D01*
X3181106Y8135716D01*
X1660771Y7507526D01*
X710000Y6558413D01*
X710000Y21442865D01*
X1654653Y20496562D01*
X3173889Y19865720D01*
X4818894Y19864284D01*
X6339229Y20492474D01*
X7503438Y21654653D01*
X8134280Y23173889D01*
X8135716Y24818894D01*
X7507526Y26339229D01*
X6558413Y27290000D01*
X21442865Y27290000D01*
X20496562Y26345347D01*
G36*
X27290000Y6557135D02*
X26345347Y7503438D01*
X24826111Y8134280D01*
X23770005Y8135202D01*
X23770220Y8381510D01*
X23577282Y8848458D01*
X23220337Y9206026D01*
X22753727Y9399779D01*
X22474824Y9400022D01*
X23559065Y10484263D01*
X23765000Y10442560D01*
X26555000Y10442560D01*
X26790317Y10486838D01*
X27006441Y10625910D01*
X27151431Y10838110D01*
X27202440Y11090000D01*
X27202440Y11830000D01*
X27158162Y12065317D01*
X27140716Y12092428D01*
X27151431Y12108110D01*
X27202440Y12360000D01*
X27202440Y13100000D01*
X27158162Y13335317D01*
X27140716Y13362428D01*
X27151431Y13378110D01*
X27202440Y13630000D01*
X27202440Y14370000D01*
X27158162Y14605317D01*
X27140716Y14632428D01*
X27151431Y14648110D01*
X27202440Y14900000D01*
X27202440Y15640000D01*
X27158162Y15875317D01*
X27140716Y15902428D01*
X27151431Y15918110D01*
X27202440Y16170000D01*
X27202440Y16910000D01*
X27158162Y17145317D01*
X27019090Y17361441D01*
X26806890Y17506431D01*
X26555000Y17557440D01*
X23765000Y17557440D01*
X23529683Y17513162D01*
X23397012Y17427790D01*
X22209178Y18615624D01*
X22246273Y18600221D01*
X22751510Y18599780D01*
X23218458Y18792718D01*
X23576026Y19149663D01*
X23769779Y19616273D01*
X23769996Y19865200D01*
X24818894Y19864284D01*
X26339229Y20492474D01*
X27290000Y21441587D01*
X27290000Y6557135D01*
X27290000Y6557135D01*
G37*
X27290000Y6557135D02*
X26345347Y7503438D01*
X24826111Y8134280D01*
X23770005Y8135202D01*
X23770220Y8381510D01*
X23577282Y8848458D01*
X23220337Y9206026D01*
X22753727Y9399779D01*
X22474824Y9400022D01*
X23559065Y10484263D01*
X23765000Y10442560D01*
X26555000Y10442560D01*
X26790317Y10486838D01*
X27006441Y10625910D01*
X27151431Y10838110D01*
X27202440Y11090000D01*
X27202440Y11830000D01*
X27158162Y12065317D01*
X27140716Y12092428D01*
X27151431Y12108110D01*
X27202440Y12360000D01*
X27202440Y13100000D01*
X27158162Y13335317D01*
X27140716Y13362428D01*
X27151431Y13378110D01*
X27202440Y13630000D01*
X27202440Y14370000D01*
X27158162Y14605317D01*
X27140716Y14632428D01*
X27151431Y14648110D01*
X27202440Y14900000D01*
X27202440Y15640000D01*
X27158162Y15875317D01*
X27140716Y15902428D01*
X27151431Y15918110D01*
X27202440Y16170000D01*
X27202440Y16910000D01*
X27158162Y17145317D01*
X27019090Y17361441D01*
X26806890Y17506431D01*
X26555000Y17557440D01*
X23765000Y17557440D01*
X23529683Y17513162D01*
X23397012Y17427790D01*
X22209178Y18615624D01*
X22246273Y18600221D01*
X22751510Y18599780D01*
X23218458Y18792718D01*
X23576026Y19149663D01*
X23769779Y19616273D01*
X23769996Y19865200D01*
X24818894Y19864284D01*
X26339229Y20492474D01*
X27290000Y21441587D01*
X27290000Y6557135D01*
G36*
X17980910Y10638559D02*
X18193110Y10493569D01*
X18445000Y10442560D01*
X20367758Y10442560D01*
X19435198Y9510000D01*
X17691797Y9510000D01*
X17601890Y9571431D01*
X17350000Y9622440D01*
X16760000Y9622440D01*
X16610316Y9594275D01*
X16787401Y9712599D01*
X17876155Y10801353D01*
X17980910Y10638559D01*
X17980910Y10638559D01*
G37*
X17980910Y10638559D02*
X18193110Y10493569D01*
X18445000Y10442560D01*
X20367758Y10442560D01*
X19435198Y9510000D01*
X17691797Y9510000D01*
X17601890Y9571431D01*
X17350000Y9622440D01*
X16760000Y9622440D01*
X16610316Y9594275D01*
X16787401Y9712599D01*
X17876155Y10801353D01*
X17980910Y10638559D01*
G36*
X12785910Y18098559D02*
X12998110Y17953569D01*
X13250000Y17902560D01*
X13490000Y17902560D01*
X13490000Y13250000D01*
X13547852Y12959161D01*
X13712599Y12712599D01*
X14867599Y11557599D01*
X15114161Y11392852D01*
X15274939Y11360871D01*
X15475683Y11226738D01*
X15835329Y11155200D01*
X16080398Y11155200D01*
X15935198Y11010000D01*
X14750000Y11010000D01*
X14459161Y10952148D01*
X14212599Y10787401D01*
X13712599Y10287401D01*
X13547852Y10040839D01*
X13509382Y9847440D01*
X13250000Y9847440D01*
X13014683Y9803162D01*
X12798559Y9664090D01*
X12760000Y9607657D01*
X12760000Y18138824D01*
X12785910Y18098559D01*
X12785910Y18098559D01*
G37*
X12785910Y18098559D02*
X12998110Y17953569D01*
X13250000Y17902560D01*
X13490000Y17902560D01*
X13490000Y13250000D01*
X13547852Y12959161D01*
X13712599Y12712599D01*
X14867599Y11557599D01*
X15114161Y11392852D01*
X15274939Y11360871D01*
X15475683Y11226738D01*
X15835329Y11155200D01*
X16080398Y11155200D01*
X15935198Y11010000D01*
X14750000Y11010000D01*
X14459161Y10952148D01*
X14212599Y10787401D01*
X13712599Y10287401D01*
X13547852Y10040839D01*
X13509382Y9847440D01*
X13250000Y9847440D01*
X13014683Y9803162D01*
X12798559Y9664090D01*
X12760000Y9607657D01*
X12760000Y18138824D01*
X12785910Y18098559D01*
M02*
