G04 #@! TF.FileFunction,Paste,Bot*
%FSLAX46Y46*%
G04 Gerber Fmt 4.6, Leading zero omitted, Abs format (unit mm)*
G04 Created by KiCad (PCBNEW 4.0.7) date 02/13/20 09:13:16*
%MOMM*%
%LPD*%
G01*
G04 APERTURE LIST*
%ADD10C,0.100000*%
%ADD11R,0.500000X0.600000*%
%ADD12R,0.600000X0.500000*%
%ADD13R,2.499360X1.800860*%
%ADD14R,1.800860X2.499360*%
%ADD15R,1.000000X1.500000*%
%ADD16R,1.500000X1.000000*%
%ADD17R,0.500000X0.900000*%
%ADD18R,0.400000X0.600000*%
%ADD19R,0.600000X0.400000*%
%ADD20R,0.650000X1.700000*%
%ADD21R,1.550000X0.600000*%
%ADD22R,0.705000X0.705000*%
%ADD23R,0.889000X0.254000*%
%ADD24R,0.254000X0.889000*%
%ADD25R,0.762000X0.762000*%
%ADD26R,2.790000X0.740000*%
%ADD27R,1.500000X4.700000*%
%ADD28R,3.100000X4.200000*%
%ADD29R,1.150000X0.700000*%
%ADD30R,1.600000X1.000000*%
%ADD31R,0.700000X0.600000*%
%ADD32R,1.200000X2.200000*%
%ADD33R,2.750000X3.050000*%
G04 APERTURE END LIST*
D10*
D11*
X96300000Y-103950000D03*
X96300000Y-102850000D03*
D12*
X66950000Y-75500000D03*
X68050000Y-75500000D03*
X52790000Y-32385000D03*
X53890000Y-32385000D03*
X61680000Y-32385000D03*
X62780000Y-32385000D03*
X70570000Y-32385000D03*
X71670000Y-32385000D03*
D11*
X100500000Y-111050000D03*
X100500000Y-109950000D03*
X100500000Y-107450000D03*
X100500000Y-108550000D03*
D12*
X79460000Y-32385000D03*
X80560000Y-32385000D03*
X88350000Y-32385000D03*
X89450000Y-32385000D03*
X97240000Y-32385000D03*
X98340000Y-32385000D03*
X106130000Y-32385000D03*
X107230000Y-32385000D03*
D11*
X53500000Y-72050000D03*
X53500000Y-70950000D03*
X72500000Y-77050000D03*
X72500000Y-75950000D03*
D12*
X70050000Y-76500000D03*
X68950000Y-76500000D03*
X70050000Y-77500000D03*
X68950000Y-77500000D03*
X66950000Y-73500000D03*
X68050000Y-73500000D03*
D11*
X63000000Y-80450000D03*
X63000000Y-81550000D03*
D12*
X67950000Y-80500000D03*
X69050000Y-80500000D03*
X62550000Y-73000000D03*
X61450000Y-73000000D03*
X65050000Y-75500000D03*
X63950000Y-75500000D03*
X71550000Y-73000000D03*
X70450000Y-73000000D03*
D11*
X69500000Y-72950000D03*
X69500000Y-74050000D03*
X65500000Y-70900000D03*
X65500000Y-69800000D03*
D12*
X66950000Y-76500000D03*
X68050000Y-76500000D03*
X66950000Y-74500000D03*
X68050000Y-74500000D03*
X74950000Y-76500000D03*
X76050000Y-76500000D03*
D11*
X71500000Y-77050000D03*
X71500000Y-75950000D03*
X71500000Y-75050000D03*
X71500000Y-73950000D03*
X72500000Y-75050000D03*
X72500000Y-73950000D03*
D12*
X74950000Y-70500000D03*
X76050000Y-70500000D03*
X83735000Y-50165000D03*
X82635000Y-50165000D03*
D11*
X92710000Y-45000000D03*
X92710000Y-43900000D03*
D12*
X88815000Y-50165000D03*
X87715000Y-50165000D03*
X41190000Y-83185000D03*
X40090000Y-83185000D03*
X41190000Y-84455000D03*
X40090000Y-84455000D03*
D13*
X98518980Y-121920000D03*
X94521020Y-121920000D03*
X107408980Y-121920000D03*
X103411020Y-121920000D03*
X89628980Y-126365000D03*
X85631020Y-126365000D03*
X118838980Y-125730000D03*
X114841020Y-125730000D03*
D14*
X92710000Y-47531020D03*
X92710000Y-51528980D03*
D15*
X37439400Y-126365000D03*
X36169400Y-126365000D03*
X43750070Y-126365000D03*
X42480070Y-126365000D03*
X50110230Y-126365000D03*
X48840230Y-126365000D03*
D16*
X76500000Y-87730000D03*
X76500000Y-89000000D03*
X76500000Y-90270000D03*
X81500000Y-55730000D03*
X81500000Y-57000000D03*
X81500000Y-58270000D03*
D15*
X65230000Y-120500000D03*
X66500000Y-120500000D03*
X67770000Y-120500000D03*
D17*
X59200000Y-80000000D03*
X60700000Y-80000000D03*
X59200000Y-82100000D03*
X60700000Y-82100000D03*
D18*
X48710000Y-32385000D03*
X47810000Y-32385000D03*
X51250000Y-32385000D03*
X50350000Y-32385000D03*
X57600000Y-32385000D03*
X56700000Y-32385000D03*
X60140000Y-32385000D03*
X59240000Y-32385000D03*
D19*
X75750000Y-59750000D03*
X75750000Y-58850000D03*
X73750000Y-59700000D03*
X73750000Y-58800000D03*
D18*
X66490000Y-32385000D03*
X65590000Y-32385000D03*
X69030000Y-32385000D03*
X68130000Y-32385000D03*
X75380000Y-32385000D03*
X74480000Y-32385000D03*
X77920000Y-32385000D03*
X77020000Y-32385000D03*
D19*
X77600000Y-59700000D03*
X77600000Y-58800000D03*
D18*
X84270000Y-32385000D03*
X83370000Y-32385000D03*
X86810000Y-32385000D03*
X85910000Y-32385000D03*
D19*
X95800000Y-104950000D03*
X95800000Y-105850000D03*
D18*
X93160000Y-32385000D03*
X92260000Y-32385000D03*
X98550000Y-99400000D03*
X99450000Y-99400000D03*
X95700000Y-32385000D03*
X94800000Y-32385000D03*
X112845000Y-119380000D03*
X111945000Y-119380000D03*
X102050000Y-32385000D03*
X101150000Y-32385000D03*
X104590000Y-32385000D03*
X103690000Y-32385000D03*
X79050000Y-57000000D03*
X79950000Y-57000000D03*
X66450000Y-122500000D03*
X65550000Y-122500000D03*
X66450000Y-124000000D03*
X65550000Y-124000000D03*
D19*
X90805000Y-44000000D03*
X90805000Y-44900000D03*
X80645000Y-44900000D03*
X80645000Y-44000000D03*
D18*
X88715000Y-41275000D03*
X87815000Y-41275000D03*
X34750000Y-82100000D03*
X33850000Y-82100000D03*
X34740000Y-86995000D03*
X33840000Y-86995000D03*
D19*
X54610000Y-77020000D03*
X54610000Y-77920000D03*
D20*
X55595000Y-64850000D03*
X56865000Y-64850000D03*
X58135000Y-64850000D03*
X59405000Y-64850000D03*
X59405000Y-72150000D03*
X58135000Y-72150000D03*
X56865000Y-72150000D03*
X55595000Y-72150000D03*
D21*
X83025000Y-47625000D03*
X83025000Y-46355000D03*
X83025000Y-45085000D03*
X83025000Y-43815000D03*
X88425000Y-43815000D03*
X88425000Y-45085000D03*
X88425000Y-46355000D03*
X88425000Y-47625000D03*
D22*
X86312500Y-45132500D03*
X86312500Y-46307500D03*
X85137500Y-45132500D03*
X85137500Y-46307500D03*
D23*
X50609500Y-83802220D03*
D24*
X51452780Y-80454500D03*
D23*
X54800500Y-81297780D03*
D24*
X53957220Y-84645500D03*
D23*
X50609500Y-83301840D03*
D24*
X51953160Y-80454500D03*
D23*
X54800500Y-81798160D03*
D24*
X53456840Y-84645500D03*
D23*
X50609500Y-82801460D03*
D24*
X52453540Y-80454500D03*
D23*
X54800500Y-82298540D03*
D24*
X52956460Y-84645500D03*
D23*
X50609500Y-82301080D03*
D24*
X52953920Y-80454500D03*
D23*
X54800500Y-82798920D03*
D24*
X52456080Y-84645500D03*
D23*
X50609500Y-81800700D03*
D24*
X53454300Y-80454500D03*
D23*
X54800500Y-83299300D03*
D24*
X51955700Y-84645500D03*
D23*
X50609500Y-81300320D03*
D24*
X53954680Y-80454500D03*
D23*
X54800500Y-83799680D03*
D24*
X51455320Y-84645500D03*
D25*
X53205380Y-83050380D03*
X52204620Y-83050380D03*
X52204620Y-82049620D03*
X53205380Y-82049620D03*
D13*
X110583980Y-47625000D03*
X106586020Y-47625000D03*
X110583980Y-43815000D03*
X106586020Y-43815000D03*
X110583980Y-40005000D03*
X106586020Y-40005000D03*
X110583980Y-36195000D03*
X106586020Y-36195000D03*
X110583980Y-65405000D03*
X106586020Y-65405000D03*
X110583980Y-61595000D03*
X106586020Y-61595000D03*
X110583980Y-57785000D03*
X106586020Y-57785000D03*
X110583980Y-53975000D03*
X106586020Y-53975000D03*
X106138980Y-83185000D03*
X102141020Y-83185000D03*
X106138980Y-79375000D03*
X102141020Y-79375000D03*
X106138980Y-75565000D03*
X102141020Y-75565000D03*
X106138980Y-71755000D03*
X102141020Y-71755000D03*
X110583980Y-100965000D03*
X106586020Y-100965000D03*
X110583980Y-97155000D03*
X106586020Y-97155000D03*
X110583980Y-93345000D03*
X106586020Y-93345000D03*
X110583980Y-89535000D03*
X106586020Y-89535000D03*
D14*
X83500000Y-102498980D03*
X83500000Y-98501020D03*
X92500000Y-102498980D03*
X92500000Y-98501020D03*
D26*
X31623000Y-43180000D03*
X35687000Y-43180000D03*
X31623000Y-41910000D03*
X35687000Y-41910000D03*
X35687000Y-39370000D03*
X31623000Y-39370000D03*
X35687000Y-40640000D03*
X31623000Y-40640000D03*
X31623000Y-44450000D03*
X35687000Y-44450000D03*
D18*
X96050000Y-99400000D03*
X96950000Y-99400000D03*
D27*
X117475000Y-107950000D03*
D28*
X115175000Y-107950000D03*
D29*
X112000000Y-109850000D03*
X112000000Y-108580000D03*
X112000000Y-107310000D03*
X112000000Y-106040000D03*
D27*
X117475000Y-115570000D03*
D28*
X115175000Y-115570000D03*
D29*
X112000000Y-117470000D03*
X112000000Y-116200000D03*
X112000000Y-114930000D03*
X112000000Y-113660000D03*
D14*
X97790000Y-51528980D03*
X97790000Y-47531020D03*
D30*
X98500000Y-111000000D03*
X98500000Y-108000000D03*
D16*
X69500000Y-56230000D03*
X69500000Y-57500000D03*
X69500000Y-58770000D03*
X79500000Y-87730000D03*
X79500000Y-89000000D03*
X79500000Y-90270000D03*
D31*
X109000000Y-32700000D03*
X109000000Y-31300000D03*
D13*
X92501020Y-56000000D03*
X96498980Y-56000000D03*
D32*
X103920000Y-104700000D03*
X106200000Y-104700000D03*
X108480000Y-104700000D03*
D33*
X107725000Y-112675000D03*
X104675000Y-109325000D03*
X104675000Y-112675000D03*
X107725000Y-109325000D03*
M02*
