G04 #@! TF.FileFunction,Soldermask,Top*
%FSLAX46Y46*%
G04 Gerber Fmt 4.6, Leading zero omitted, Abs format (unit mm)*
G04 Created by KiCad (PCBNEW 4.0.7) date 02/13/20 09:13:16*
%MOMM*%
%LPD*%
G01*
G04 APERTURE LIST*
%ADD10C,0.100000*%
%ADD11C,0.002540*%
%ADD12C,2.100000*%
%ADD13O,5.400000X2.900000*%
%ADD14R,0.960000X2.000000*%
%ADD15R,2.000000X0.960000*%
%ADD16R,0.900000X1.000000*%
%ADD17R,1.400000X2.000000*%
%ADD18R,2.000000X1.400000*%
%ADD19R,1.200000X1.150000*%
%ADD20R,1.000000X0.900000*%
%ADD21R,1.650000X1.400000*%
%ADD22R,1.620000X1.310000*%
%ADD23R,1.197560X1.197560*%
%ADD24R,2.200860X2.899360*%
%ADD25R,1.900000X1.400000*%
%ADD26R,1.400000X1.900000*%
%ADD27R,0.900000X1.300000*%
%ADD28R,1.300000X0.900000*%
%ADD29R,3.600400X5.800040*%
%ADD30R,1.924000X2.597100*%
%ADD31O,1.924000X2.597100*%
%ADD32R,2.432000X2.432000*%
%ADD33O,2.432000X2.432000*%
%ADD34C,1.924000*%
%ADD35C,3.100020*%
%ADD36C,2.020000*%
%ADD37C,2.250000*%
%ADD38R,1.450000X1.450000*%
%ADD39C,1.450000*%
%ADD40R,1.400000X0.900000*%
%ADD41R,2.790000X1.450000*%
%ADD42R,1.600000X1.450000*%
%ADD43R,1.600000X1.480000*%
%ADD44R,1.180000X1.120000*%
%ADD45R,0.950000X3.310000*%
%ADD46R,1.200100X1.200100*%
%ADD47R,5.100000X1.900000*%
%ADD48R,4.600000X3.500000*%
%ADD49R,1.100000X1.550000*%
%ADD50C,1.000000*%
%ADD51R,1.000000X0.800000*%
%ADD52R,0.800000X1.000000*%
%ADD53R,1.300000X2.900000*%
%ADD54R,2.432000X4.057600*%
%ADD55R,2.432000X1.416000*%
%ADD56R,1.000000X1.950000*%
%ADD57R,1.290000X0.820000*%
%ADD58R,1.240000X1.340000*%
%ADD59C,6.800000*%
%ADD60R,1.400000X1.300000*%
%ADD61R,1.901140X1.400760*%
%ADD62R,3.399740X2.398980*%
%ADD63R,1.700000X1.700000*%
%ADD64C,1.700000*%
%ADD65O,2.900000X5.400000*%
%ADD66R,1.000000X1.100000*%
%ADD67C,4.900000*%
%ADD68C,2.127200*%
%ADD69C,1.822400*%
%ADD70R,2.100000X2.100000*%
%ADD71O,2.100000X2.100000*%
%ADD72C,3.100000*%
%ADD73R,1.600000X1.300000*%
%ADD74R,1.100000X1.000000*%
%ADD75R,1.200000X1.200000*%
%ADD76C,3.900000*%
%ADD77C,2.900000*%
%ADD78C,1.900000*%
%ADD79R,1.200000X1.300000*%
%ADD80R,1.300000X1.200000*%
%ADD81R,1.300000X1.600000*%
%ADD82C,0.900380*%
G04 APERTURE END LIST*
D10*
D11*
G36*
X62352364Y-107624067D02*
X62678133Y-107624067D01*
X62914604Y-109628285D01*
X63195723Y-108302062D01*
X63544643Y-108302062D01*
X63829070Y-109631593D01*
X64629986Y-105789622D01*
X64955754Y-105789622D01*
X64022546Y-110092960D01*
X63706700Y-110092960D01*
X63371010Y-108626176D01*
X63036973Y-110092960D01*
X62721127Y-110092960D01*
X62352364Y-107624067D01*
X62352364Y-107624067D01*
G37*
X62352364Y-107624067D02*
X62678133Y-107624067D01*
X62914604Y-109628285D01*
X63195723Y-108302062D01*
X63544643Y-108302062D01*
X63829070Y-109631593D01*
X64629986Y-105789622D01*
X64955754Y-105789622D01*
X64022546Y-110092960D01*
X63706700Y-110092960D01*
X63371010Y-108626176D01*
X63036973Y-110092960D01*
X62721127Y-110092960D01*
X62352364Y-107624067D01*
D12*
X123825000Y-73660000D03*
X123825000Y-76200000D03*
X131445000Y-78740000D03*
X123825000Y-81280000D03*
X131445000Y-81280000D03*
X123825000Y-78740000D03*
D13*
X128905000Y-82720000D03*
X128905000Y-79220000D03*
D12*
X131445000Y-76200000D03*
X131445000Y-73660000D03*
D13*
X128905000Y-75720000D03*
X128905000Y-72220000D03*
D14*
X108395000Y-47760000D03*
X109195000Y-47760000D03*
X109995000Y-47760000D03*
X110795000Y-47760000D03*
X111595000Y-47760000D03*
X112395000Y-47760000D03*
X113195000Y-47760000D03*
X113995000Y-47760000D03*
X114795000Y-47760000D03*
X115595000Y-47760000D03*
X116395000Y-47760000D03*
D15*
X118245000Y-45910000D03*
X118245000Y-45110000D03*
X118245000Y-44310000D03*
X118245000Y-43510000D03*
X118245000Y-42710000D03*
X118245000Y-41910000D03*
X118245000Y-41110000D03*
X118245000Y-40310000D03*
X118245000Y-39510000D03*
X118245000Y-38710000D03*
X118245000Y-37910000D03*
D14*
X116395000Y-36060000D03*
X115595000Y-36060000D03*
X114795000Y-36060000D03*
X113995000Y-36060000D03*
X113195000Y-36060000D03*
X112395000Y-36060000D03*
X111595000Y-36060000D03*
X110795000Y-36060000D03*
X109995000Y-36060000D03*
X109195000Y-36060000D03*
X108395000Y-36060000D03*
D15*
X106545000Y-37910000D03*
X106545000Y-38710000D03*
X106545000Y-39510000D03*
X106545000Y-40310000D03*
X106545000Y-41110000D03*
X106545000Y-41910000D03*
X106545000Y-42710000D03*
X106545000Y-43510000D03*
X106545000Y-44310000D03*
X106545000Y-45110000D03*
X106545000Y-45910000D03*
D16*
X34889400Y-125815000D03*
X34889400Y-126915000D03*
X41200070Y-125815000D03*
X41200070Y-126915000D03*
X78105000Y-49615000D03*
X78105000Y-50715000D03*
X70485000Y-49615000D03*
X70485000Y-50715000D03*
D17*
X75795000Y-50165000D03*
X72795000Y-50165000D03*
D18*
X56515000Y-45490000D03*
X56515000Y-48490000D03*
D16*
X47560230Y-125815000D03*
X47560230Y-126915000D03*
D19*
X42750000Y-120000000D03*
X41250000Y-120000000D03*
D20*
X43050000Y-121500000D03*
X41950000Y-121500000D03*
X66050000Y-93000000D03*
X64950000Y-93000000D03*
X64950000Y-88000000D03*
X66050000Y-88000000D03*
X38185000Y-33020000D03*
X39285000Y-33020000D03*
D19*
X37985000Y-30480000D03*
X39485000Y-30480000D03*
D16*
X103505000Y-43095000D03*
X103505000Y-41995000D03*
X121920000Y-43730000D03*
X121920000Y-42630000D03*
D18*
X99695000Y-37060000D03*
X99695000Y-34060000D03*
D17*
X103100000Y-47625000D03*
X100100000Y-47625000D03*
D16*
X101600000Y-39920000D03*
X101600000Y-38820000D03*
X103505000Y-39920000D03*
X103505000Y-38820000D03*
X103505000Y-60875000D03*
X103505000Y-59775000D03*
X121920000Y-61510000D03*
X121920000Y-60410000D03*
D17*
X103100000Y-53975000D03*
X100100000Y-53975000D03*
X103100000Y-65405000D03*
X100100000Y-65405000D03*
D16*
X101600000Y-57700000D03*
X101600000Y-56600000D03*
X103505000Y-57700000D03*
X103505000Y-56600000D03*
X99060000Y-78655000D03*
X99060000Y-77555000D03*
X117475000Y-79290000D03*
X117475000Y-78190000D03*
D17*
X98655000Y-71755000D03*
X95655000Y-71755000D03*
X98655000Y-83185000D03*
X95655000Y-83185000D03*
D16*
X97155000Y-75480000D03*
X97155000Y-74380000D03*
X99060000Y-75480000D03*
X99060000Y-74380000D03*
X103505000Y-96435000D03*
X103505000Y-95335000D03*
X121920000Y-97070000D03*
X121920000Y-95970000D03*
D17*
X103100000Y-89535000D03*
X100100000Y-89535000D03*
D18*
X102605136Y-102531096D03*
X102605136Y-99531096D03*
D16*
X101600000Y-93260000D03*
X101600000Y-92160000D03*
X103505000Y-93260000D03*
X103505000Y-92160000D03*
D18*
X56515000Y-86765000D03*
X56515000Y-89765000D03*
D20*
X54525000Y-81915000D03*
X53425000Y-81915000D03*
D18*
X50165000Y-86765000D03*
X50165000Y-89765000D03*
D20*
X50885000Y-83185000D03*
X51985000Y-83185000D03*
D21*
X53340000Y-86630000D03*
X53340000Y-88630000D03*
D20*
X50885000Y-84455000D03*
X51985000Y-84455000D03*
D22*
X112395000Y-105680000D03*
X112395000Y-108950000D03*
D23*
X95999300Y-123825000D03*
X94500700Y-123825000D03*
X104889300Y-123825000D03*
X103390700Y-123825000D03*
X87109300Y-123825000D03*
X85610700Y-123825000D03*
D24*
X51435000Y-67216020D03*
X51435000Y-71213980D03*
D23*
X116319300Y-127635000D03*
X114820700Y-127635000D03*
X29959300Y-108585000D03*
X28460700Y-108585000D03*
X29959300Y-113665000D03*
X28460700Y-113665000D03*
X29959300Y-116205000D03*
X28460700Y-116205000D03*
X29959300Y-118745000D03*
X28460700Y-118745000D03*
X29959300Y-121285000D03*
X28460700Y-121285000D03*
X29959300Y-123825000D03*
X28460700Y-123825000D03*
D25*
X44450000Y-33655000D03*
X44450000Y-32385000D03*
X44450000Y-31115000D03*
D26*
X50175000Y-34925000D03*
X48905000Y-34925000D03*
X59065000Y-34925000D03*
X57795000Y-34925000D03*
X67955000Y-34925000D03*
X66685000Y-34925000D03*
X76845000Y-34925000D03*
X75575000Y-34925000D03*
X85735000Y-34925000D03*
X84465000Y-34925000D03*
X94625000Y-34925000D03*
X93355000Y-34925000D03*
X103515000Y-34925000D03*
X102245000Y-34925000D03*
D27*
X47105000Y-67945000D03*
X45605000Y-67945000D03*
D28*
X45085000Y-71870000D03*
X45085000Y-70370000D03*
X47625000Y-56400000D03*
X47625000Y-57900000D03*
X47625000Y-54725000D03*
X47625000Y-53225000D03*
X36195000Y-32500000D03*
X36195000Y-31000000D03*
X68500000Y-93250000D03*
X68500000Y-91750000D03*
X70000000Y-93250000D03*
X70000000Y-91750000D03*
D29*
X91996260Y-45720000D03*
X81993740Y-45720000D03*
D27*
X54090000Y-90805000D03*
X52590000Y-90805000D03*
D30*
X38100000Y-131521200D03*
D31*
X35560000Y-131521200D03*
D32*
X122555000Y-106680000D03*
D33*
X122555000Y-109220000D03*
D32*
X97100000Y-92600000D03*
D33*
X97100000Y-95140000D03*
D31*
X48260000Y-29286200D03*
D30*
X53340000Y-29286200D03*
D31*
X50800000Y-29286200D03*
D32*
X56515000Y-41910000D03*
D33*
X59055000Y-41910000D03*
D30*
X44450000Y-131521200D03*
D31*
X41910000Y-131521200D03*
X57150000Y-29286200D03*
D30*
X62230000Y-29286200D03*
D31*
X59690000Y-29286200D03*
D32*
X64135000Y-41910000D03*
D33*
X66675000Y-41910000D03*
D30*
X50800000Y-131521200D03*
D31*
X48260000Y-131521200D03*
X66040000Y-29286200D03*
D30*
X71120000Y-29286200D03*
D31*
X68580000Y-29286200D03*
D30*
X88900000Y-131521200D03*
D31*
X86360000Y-131521200D03*
X74930000Y-29286200D03*
D30*
X80010000Y-29286200D03*
D31*
X77470000Y-29286200D03*
D34*
X40640000Y-64770000D03*
X40640000Y-67310000D03*
X38641020Y-67310000D03*
X38641020Y-64770000D03*
D35*
X35941000Y-60040520D03*
X35941000Y-72039480D03*
D31*
X83820000Y-29286200D03*
D30*
X88900000Y-29286200D03*
D31*
X86360000Y-29286200D03*
X92710000Y-29286200D03*
D30*
X97790000Y-29286200D03*
D31*
X95250000Y-29286200D03*
D36*
X38100000Y-53340000D03*
X40100000Y-53340000D03*
X42100000Y-53340000D03*
D37*
X37370000Y-50620000D03*
D36*
X44100000Y-53340000D03*
D37*
X44370000Y-50620000D03*
X37370000Y-56060000D03*
X44370000Y-56060000D03*
D38*
X58500000Y-102500000D03*
D39*
X59770000Y-102500000D03*
X61040000Y-102500000D03*
X62310000Y-102500000D03*
X63580000Y-102500000D03*
X59770000Y-101230000D03*
X61040000Y-101230000D03*
X62310000Y-101230000D03*
X63580000Y-101230000D03*
X58500000Y-101230000D03*
D38*
X73500000Y-132500000D03*
D39*
X74770000Y-132500000D03*
X76040000Y-132500000D03*
X77310000Y-132500000D03*
X78580000Y-132500000D03*
X74770000Y-131230000D03*
X76040000Y-131230000D03*
X77310000Y-131230000D03*
X78580000Y-131230000D03*
X73500000Y-131230000D03*
D32*
X39370000Y-114300000D03*
D33*
X39370000Y-116840000D03*
D38*
X58500000Y-132500000D03*
D39*
X59770000Y-132500000D03*
X61040000Y-132500000D03*
X62310000Y-132500000D03*
X63580000Y-132500000D03*
X59770000Y-131230000D03*
X61040000Y-131230000D03*
X62310000Y-131230000D03*
X63580000Y-131230000D03*
X58500000Y-131230000D03*
D12*
X131445000Y-43180000D03*
X131445000Y-45720000D03*
D13*
X128905000Y-47160000D03*
X128905000Y-43660000D03*
D12*
X131445000Y-40640000D03*
X131445000Y-38100000D03*
D13*
X128905000Y-40160000D03*
X128905000Y-36660000D03*
D12*
X131445000Y-60960000D03*
X131445000Y-63500000D03*
D13*
X128905000Y-64940000D03*
X128905000Y-61440000D03*
D12*
X131445000Y-58420000D03*
X131445000Y-55880000D03*
D13*
X128905000Y-57940000D03*
X128905000Y-54440000D03*
D12*
X131445000Y-96520000D03*
X131445000Y-99060000D03*
D13*
X128905000Y-100500000D03*
X128905000Y-97000000D03*
D12*
X131445000Y-93980000D03*
X131445000Y-91440000D03*
D13*
X128905000Y-93500000D03*
X128905000Y-90000000D03*
D38*
X73500000Y-125000000D03*
D39*
X74770000Y-125000000D03*
X76040000Y-125000000D03*
X77310000Y-125000000D03*
X78580000Y-125000000D03*
X74770000Y-123730000D03*
X76040000Y-123730000D03*
X77310000Y-123730000D03*
X78580000Y-123730000D03*
X73500000Y-123730000D03*
D38*
X58500000Y-125000000D03*
D39*
X59770000Y-125000000D03*
X61040000Y-125000000D03*
X62310000Y-125000000D03*
X63580000Y-125000000D03*
X59770000Y-123730000D03*
X61040000Y-123730000D03*
X62310000Y-123730000D03*
X63580000Y-123730000D03*
X58500000Y-123730000D03*
D38*
X73500000Y-117500000D03*
D39*
X74770000Y-117500000D03*
X76040000Y-117500000D03*
X77310000Y-117500000D03*
X78580000Y-117500000D03*
X74770000Y-116230000D03*
X76040000Y-116230000D03*
X77310000Y-116230000D03*
X78580000Y-116230000D03*
X73500000Y-116230000D03*
D40*
X34790000Y-44960000D03*
X34790000Y-43860000D03*
X34790000Y-42760000D03*
X34790000Y-41660000D03*
X34790000Y-40560000D03*
X34790000Y-39460000D03*
X34790000Y-38360000D03*
X34790000Y-37260000D03*
D41*
X37595000Y-36085000D03*
D42*
X40780000Y-36085000D03*
X41350000Y-46735000D03*
D43*
X38740000Y-46735000D03*
D44*
X37470000Y-46735000D03*
D45*
X42025000Y-39265000D03*
X42025000Y-43455000D03*
D46*
X82450000Y-101499240D03*
X80550000Y-101499240D03*
X81500000Y-103498220D03*
X91450000Y-101499240D03*
X89550000Y-101499240D03*
X90500000Y-103498220D03*
D47*
X97155000Y-120650000D03*
D48*
X97155000Y-118350000D03*
D49*
X99055000Y-115175000D03*
X97785000Y-115175000D03*
X96515000Y-115175000D03*
X95245000Y-115175000D03*
D50*
X98425000Y-117475000D03*
X97155000Y-117475000D03*
X95885000Y-117475000D03*
X98425000Y-118745000D03*
X97155000Y-118745000D03*
X95885000Y-118745000D03*
X98425000Y-120015000D03*
X97155000Y-120015000D03*
X95885000Y-120015000D03*
D47*
X106045000Y-120650000D03*
D48*
X106045000Y-118350000D03*
D49*
X107945000Y-115175000D03*
X106675000Y-115175000D03*
X105405000Y-115175000D03*
X104135000Y-115175000D03*
D50*
X107315000Y-117475000D03*
X106045000Y-117475000D03*
X104775000Y-117475000D03*
X107315000Y-118745000D03*
X106045000Y-118745000D03*
X104775000Y-118745000D03*
X107315000Y-120015000D03*
X106045000Y-120015000D03*
X104775000Y-120015000D03*
D47*
X113665000Y-125095000D03*
D48*
X113665000Y-122795000D03*
D49*
X115565000Y-119620000D03*
X114295000Y-119620000D03*
X113025000Y-119620000D03*
X111755000Y-119620000D03*
D50*
X114935000Y-121920000D03*
X113665000Y-121920000D03*
X112395000Y-121920000D03*
X114935000Y-123190000D03*
X113665000Y-123190000D03*
X112395000Y-123190000D03*
X114935000Y-124460000D03*
X113665000Y-124460000D03*
X112395000Y-124460000D03*
D51*
X38699400Y-126815000D03*
X38699400Y-125915000D03*
X36794400Y-125915000D03*
X36794400Y-126815000D03*
D52*
X114485000Y-105410000D03*
X115385000Y-105410000D03*
X81050000Y-100000000D03*
X81950000Y-100000000D03*
X90050000Y-100000000D03*
X90950000Y-100000000D03*
X80250000Y-63600000D03*
X81150000Y-63600000D03*
X80250000Y-62300000D03*
X81150000Y-62300000D03*
D51*
X45010070Y-126815000D03*
X45010070Y-125915000D03*
X43105070Y-125915000D03*
X43105070Y-126815000D03*
X51370230Y-126815000D03*
X51370230Y-125915000D03*
X49465230Y-125915000D03*
X49465230Y-126815000D03*
D52*
X96335000Y-113030000D03*
X95435000Y-113030000D03*
X105225000Y-113030000D03*
X104325000Y-113030000D03*
D51*
X47625000Y-70670000D03*
X47625000Y-71570000D03*
D52*
X42050000Y-118500000D03*
X42950000Y-118500000D03*
X44950000Y-121500000D03*
X44050000Y-121500000D03*
X44950000Y-120000000D03*
X44050000Y-120000000D03*
X87445000Y-113030000D03*
X86545000Y-113030000D03*
D51*
X70400000Y-90700000D03*
X70400000Y-89800000D03*
D52*
X80250000Y-61000000D03*
X81150000Y-61000000D03*
X48650000Y-49600000D03*
X47750000Y-49600000D03*
X48650000Y-48300000D03*
X47750000Y-48300000D03*
X51885000Y-51435000D03*
X50985000Y-51435000D03*
X54795000Y-51435000D03*
X55695000Y-51435000D03*
D51*
X73000000Y-90700000D03*
X73000000Y-89800000D03*
D52*
X45760000Y-101500000D03*
X46660000Y-101500000D03*
X43010000Y-101500000D03*
X43910000Y-101500000D03*
D51*
X76500000Y-88500000D03*
X76500000Y-89400000D03*
X79500000Y-88500000D03*
X79500000Y-89400000D03*
X69500000Y-57950000D03*
X69500000Y-57050000D03*
D52*
X40825000Y-33020000D03*
X41725000Y-33020000D03*
X120835000Y-45720000D03*
X121735000Y-45720000D03*
D53*
X121105000Y-48895000D03*
X124005000Y-48895000D03*
D52*
X120835000Y-38100000D03*
X121735000Y-38100000D03*
D53*
X121105000Y-34925000D03*
X124005000Y-34925000D03*
D52*
X120835000Y-63500000D03*
X121735000Y-63500000D03*
D53*
X121105000Y-66675000D03*
X124005000Y-66675000D03*
D52*
X120835000Y-55880000D03*
X121735000Y-55880000D03*
D53*
X121105000Y-52705000D03*
X124005000Y-52705000D03*
D52*
X116390000Y-81280000D03*
X117290000Y-81280000D03*
D53*
X116660000Y-84455000D03*
X119560000Y-84455000D03*
D52*
X116390000Y-73660000D03*
X117290000Y-73660000D03*
D53*
X116660000Y-70485000D03*
X119560000Y-70485000D03*
D52*
X120835000Y-99060000D03*
X121735000Y-99060000D03*
D53*
X121105000Y-102235000D03*
X124005000Y-102235000D03*
D52*
X120835000Y-91440000D03*
X121735000Y-91440000D03*
D53*
X121105000Y-88265000D03*
X124005000Y-88265000D03*
D54*
X60198000Y-48260000D03*
D55*
X66802000Y-48260000D03*
X66802000Y-45974000D03*
X66802000Y-50546000D03*
D56*
X99655000Y-99860000D03*
X98385000Y-99860000D03*
X97115000Y-99860000D03*
X95845000Y-99860000D03*
X95845000Y-105260000D03*
X97115000Y-105260000D03*
X98385000Y-105260000D03*
X99655000Y-105260000D03*
D57*
X55445000Y-55585000D03*
X55445000Y-54935000D03*
X55445000Y-54285000D03*
X55445000Y-53635000D03*
X51235000Y-53635000D03*
X51235000Y-54285000D03*
X51235000Y-54935000D03*
X51235000Y-55585000D03*
D58*
X52920000Y-54140000D03*
X52920000Y-55080000D03*
X53760000Y-54140000D03*
X53760000Y-55080000D03*
D14*
X108395000Y-65540000D03*
X109195000Y-65540000D03*
X109995000Y-65540000D03*
X110795000Y-65540000D03*
X111595000Y-65540000D03*
X112395000Y-65540000D03*
X113195000Y-65540000D03*
X113995000Y-65540000D03*
X114795000Y-65540000D03*
X115595000Y-65540000D03*
X116395000Y-65540000D03*
D15*
X118245000Y-63690000D03*
X118245000Y-62890000D03*
X118245000Y-62090000D03*
X118245000Y-61290000D03*
X118245000Y-60490000D03*
X118245000Y-59690000D03*
X118245000Y-58890000D03*
X118245000Y-58090000D03*
X118245000Y-57290000D03*
X118245000Y-56490000D03*
X118245000Y-55690000D03*
D14*
X116395000Y-53840000D03*
X115595000Y-53840000D03*
X114795000Y-53840000D03*
X113995000Y-53840000D03*
X113195000Y-53840000D03*
X112395000Y-53840000D03*
X111595000Y-53840000D03*
X110795000Y-53840000D03*
X109995000Y-53840000D03*
X109195000Y-53840000D03*
X108395000Y-53840000D03*
D15*
X106545000Y-55690000D03*
X106545000Y-56490000D03*
X106545000Y-57290000D03*
X106545000Y-58090000D03*
X106545000Y-58890000D03*
X106545000Y-59690000D03*
X106545000Y-60490000D03*
X106545000Y-61290000D03*
X106545000Y-62090000D03*
X106545000Y-62890000D03*
X106545000Y-63690000D03*
D14*
X103950000Y-83320000D03*
X104750000Y-83320000D03*
X105550000Y-83320000D03*
X106350000Y-83320000D03*
X107150000Y-83320000D03*
X107950000Y-83320000D03*
X108750000Y-83320000D03*
X109550000Y-83320000D03*
X110350000Y-83320000D03*
X111150000Y-83320000D03*
X111950000Y-83320000D03*
D15*
X113800000Y-81470000D03*
X113800000Y-80670000D03*
X113800000Y-79870000D03*
X113800000Y-79070000D03*
X113800000Y-78270000D03*
X113800000Y-77470000D03*
X113800000Y-76670000D03*
X113800000Y-75870000D03*
X113800000Y-75070000D03*
X113800000Y-74270000D03*
X113800000Y-73470000D03*
D14*
X111950000Y-71620000D03*
X111150000Y-71620000D03*
X110350000Y-71620000D03*
X109550000Y-71620000D03*
X108750000Y-71620000D03*
X107950000Y-71620000D03*
X107150000Y-71620000D03*
X106350000Y-71620000D03*
X105550000Y-71620000D03*
X104750000Y-71620000D03*
X103950000Y-71620000D03*
D15*
X102100000Y-73470000D03*
X102100000Y-74270000D03*
X102100000Y-75070000D03*
X102100000Y-75870000D03*
X102100000Y-76670000D03*
X102100000Y-77470000D03*
X102100000Y-78270000D03*
X102100000Y-79070000D03*
X102100000Y-79870000D03*
X102100000Y-80670000D03*
X102100000Y-81470000D03*
D14*
X108395000Y-101100000D03*
X109195000Y-101100000D03*
X109995000Y-101100000D03*
X110795000Y-101100000D03*
X111595000Y-101100000D03*
X112395000Y-101100000D03*
X113195000Y-101100000D03*
X113995000Y-101100000D03*
X114795000Y-101100000D03*
X115595000Y-101100000D03*
X116395000Y-101100000D03*
D15*
X118245000Y-99250000D03*
X118245000Y-98450000D03*
X118245000Y-97650000D03*
X118245000Y-96850000D03*
X118245000Y-96050000D03*
X118245000Y-95250000D03*
X118245000Y-94450000D03*
X118245000Y-93650000D03*
X118245000Y-92850000D03*
X118245000Y-92050000D03*
X118245000Y-91250000D03*
D14*
X116395000Y-89400000D03*
X115595000Y-89400000D03*
X114795000Y-89400000D03*
X113995000Y-89400000D03*
X113195000Y-89400000D03*
X112395000Y-89400000D03*
X111595000Y-89400000D03*
X110795000Y-89400000D03*
X109995000Y-89400000D03*
X109195000Y-89400000D03*
X108395000Y-89400000D03*
D15*
X106545000Y-91250000D03*
X106545000Y-92050000D03*
X106545000Y-92850000D03*
X106545000Y-93650000D03*
X106545000Y-94450000D03*
X106545000Y-95250000D03*
X106545000Y-96050000D03*
X106545000Y-96850000D03*
X106545000Y-97650000D03*
X106545000Y-98450000D03*
X106545000Y-99250000D03*
D59*
X30400000Y-30400000D03*
X130400000Y-30400000D03*
X30400000Y-130400000D03*
X130400000Y-130400000D03*
D60*
X66425000Y-89725000D03*
X64575000Y-89725000D03*
X64575000Y-91275000D03*
X66425000Y-91275000D03*
X50510000Y-78245000D03*
X52360000Y-78245000D03*
X52360000Y-76695000D03*
X50510000Y-76695000D03*
D61*
X100351660Y-111001140D03*
X100351660Y-109500000D03*
X100351660Y-107998860D03*
D62*
X97400180Y-109500000D03*
D10*
G36*
X98674650Y-108299240D02*
X99823950Y-108799620D01*
X99823950Y-110200380D01*
X98674650Y-110700760D01*
X98674650Y-108299240D01*
X98674650Y-108299240D01*
G37*
D63*
X98000000Y-59500000D03*
D64*
X93000000Y-59500000D03*
X72700000Y-43815000D03*
D63*
X76200000Y-43815000D03*
X89700000Y-89100000D03*
D64*
X89700000Y-94100000D03*
D12*
X97790000Y-127000000D03*
X95250000Y-127000000D03*
D65*
X98270000Y-131445000D03*
X94770000Y-131445000D03*
D12*
X106680000Y-127000000D03*
X104140000Y-127000000D03*
D65*
X107160000Y-131445000D03*
X103660000Y-131445000D03*
D38*
X58500000Y-117500000D03*
D39*
X59770000Y-117500000D03*
X61040000Y-117500000D03*
X62310000Y-117500000D03*
X63580000Y-117500000D03*
X59770000Y-116230000D03*
X61040000Y-116230000D03*
X62310000Y-116230000D03*
X63580000Y-116230000D03*
X58500000Y-116230000D03*
D16*
X99600000Y-86850000D03*
X99600000Y-85750000D03*
D66*
X37300000Y-124500000D03*
X38700000Y-124500000D03*
X34800000Y-124500000D03*
X36200000Y-124500000D03*
X43800000Y-124500000D03*
X45200000Y-124500000D03*
X41300000Y-124500000D03*
X42700000Y-124500000D03*
X48950000Y-124500000D03*
X47550000Y-124500000D03*
X51450000Y-124500000D03*
X50050000Y-124500000D03*
X43800000Y-123000000D03*
X45200000Y-123000000D03*
X41300000Y-123000000D03*
X42700000Y-123000000D03*
D51*
X98100000Y-85950000D03*
X98100000Y-86850000D03*
X101100000Y-85850000D03*
X101100000Y-86750000D03*
D52*
X84950000Y-96500000D03*
X84050000Y-96500000D03*
D32*
X122555000Y-114300000D03*
D33*
X122555000Y-116840000D03*
D19*
X36250000Y-120000000D03*
X34750000Y-120000000D03*
D20*
X36550000Y-121500000D03*
X35450000Y-121500000D03*
D66*
X37300000Y-123000000D03*
X38700000Y-123000000D03*
X34800000Y-123000000D03*
X36200000Y-123000000D03*
D23*
X29959300Y-111125000D03*
X28460700Y-111125000D03*
D67*
X127040000Y-107950000D03*
X132040000Y-107950000D03*
X127040000Y-115570000D03*
X132040000Y-115570000D03*
X114340000Y-132080000D03*
X119340000Y-132080000D03*
D52*
X114485000Y-113030000D03*
X115385000Y-113030000D03*
X35550000Y-118500000D03*
X36450000Y-118500000D03*
X38450000Y-121500000D03*
X37550000Y-121500000D03*
X80250000Y-59700000D03*
X81150000Y-59700000D03*
X104450000Y-109900000D03*
X105350000Y-109900000D03*
X38450000Y-120000000D03*
X37550000Y-120000000D03*
X98240000Y-123825000D03*
X97340000Y-123825000D03*
X107130000Y-123825000D03*
X106230000Y-123825000D03*
X89350000Y-123825000D03*
X88450000Y-123825000D03*
X117660000Y-127635000D03*
X118560000Y-127635000D03*
X32835000Y-108585000D03*
X31935000Y-108585000D03*
X32835000Y-113665000D03*
X31935000Y-113665000D03*
X32835000Y-116205000D03*
X31935000Y-116205000D03*
X32835000Y-118745000D03*
X31935000Y-118745000D03*
X32835000Y-121285000D03*
X31935000Y-121285000D03*
X32835000Y-123825000D03*
X31935000Y-123825000D03*
X32835000Y-111125000D03*
X31935000Y-111125000D03*
D47*
X88265000Y-120650000D03*
D48*
X88265000Y-118350000D03*
D49*
X90165000Y-115175000D03*
X88895000Y-115175000D03*
X87625000Y-115175000D03*
X86355000Y-115175000D03*
D50*
X89535000Y-117475000D03*
X88265000Y-117475000D03*
X86995000Y-117475000D03*
X89535000Y-118745000D03*
X88265000Y-118745000D03*
X86995000Y-118745000D03*
X89535000Y-120015000D03*
X88265000Y-120015000D03*
X86995000Y-120015000D03*
D22*
X112395000Y-113300000D03*
X112395000Y-116570000D03*
D50*
X114300000Y-109220000D03*
X114300000Y-107950000D03*
X114300000Y-106680000D03*
X115570000Y-109220000D03*
X115570000Y-107950000D03*
X115570000Y-106680000D03*
X116840000Y-109220000D03*
X116840000Y-107950000D03*
X116840000Y-106680000D03*
X114300000Y-116840000D03*
X114300000Y-115570000D03*
X114300000Y-114300000D03*
X115570000Y-116840000D03*
X115570000Y-115570000D03*
X115570000Y-114300000D03*
X116840000Y-116840000D03*
X116840000Y-115570000D03*
X116840000Y-114300000D03*
D32*
X97790000Y-43815000D03*
D33*
X97790000Y-41275000D03*
D32*
X132715000Y-121285000D03*
D33*
X132715000Y-123825000D03*
D64*
X125095000Y-125420000D03*
D63*
X125095000Y-121920000D03*
D20*
X50885000Y-80010000D03*
X51985000Y-80010000D03*
X51985000Y-74930000D03*
X50885000Y-74930000D03*
D30*
X50800000Y-120091200D03*
D31*
X48260000Y-120091200D03*
D51*
X51435000Y-114485000D03*
X51435000Y-115385000D03*
D68*
X31115000Y-104140000D03*
X31115000Y-96520000D03*
D69*
X28575000Y-97790000D03*
X28575000Y-102870000D03*
D70*
X41270000Y-98670000D03*
D71*
X41300000Y-96160000D03*
X43840000Y-98700000D03*
X43840000Y-96160000D03*
X46380000Y-98700000D03*
X46380000Y-96160000D03*
X48920000Y-98700000D03*
X48920000Y-96160000D03*
X51460000Y-98700000D03*
X51460000Y-96160000D03*
D52*
X49700000Y-93000000D03*
X48800000Y-93000000D03*
X52200000Y-93000000D03*
X51300000Y-93000000D03*
D72*
X36400000Y-97400000D03*
D31*
X78460000Y-108076200D03*
D30*
X83540000Y-108076200D03*
D31*
X81000000Y-108076200D03*
X87460000Y-108076200D03*
D30*
X92540000Y-108076200D03*
D31*
X90000000Y-108076200D03*
D73*
X112500000Y-30150000D03*
X112500000Y-26850000D03*
D70*
X39370000Y-111760000D03*
D74*
X47625000Y-114235000D03*
X47625000Y-115635000D03*
X49530000Y-115635000D03*
X49530000Y-114235000D03*
D31*
X101600000Y-29286200D03*
X104140000Y-29286200D03*
D30*
X109220000Y-29286200D03*
D31*
X106680000Y-29286200D03*
D75*
X84500000Y-101300000D03*
X84500000Y-99700000D03*
X93500000Y-101300000D03*
X93500000Y-99700000D03*
D52*
X84950000Y-103500000D03*
X84050000Y-103500000D03*
X93950000Y-103500000D03*
X93050000Y-103500000D03*
D38*
X84500000Y-69000000D03*
D39*
X85770000Y-69000000D03*
X87040000Y-69000000D03*
X88310000Y-69000000D03*
X89580000Y-69000000D03*
X85770000Y-67730000D03*
X87040000Y-67730000D03*
X88310000Y-67730000D03*
X89580000Y-67730000D03*
X84500000Y-67730000D03*
D38*
X84500000Y-76500000D03*
D39*
X85770000Y-76500000D03*
X87040000Y-76500000D03*
X88310000Y-76500000D03*
X89580000Y-76500000D03*
X85770000Y-75230000D03*
X87040000Y-75230000D03*
X88310000Y-75230000D03*
X89580000Y-75230000D03*
X84500000Y-75230000D03*
D38*
X84500000Y-84000000D03*
D39*
X85770000Y-84000000D03*
X87040000Y-84000000D03*
X88310000Y-84000000D03*
X89580000Y-84000000D03*
X85770000Y-82730000D03*
X87040000Y-82730000D03*
X88310000Y-82730000D03*
X89580000Y-82730000D03*
X84500000Y-82730000D03*
D76*
X36830000Y-89535000D03*
X36830000Y-78105000D03*
D77*
X39880000Y-91565000D03*
X39880000Y-76075000D03*
D78*
X33450000Y-90155000D03*
X31930000Y-77505000D03*
X31930000Y-87615000D03*
X33450000Y-80045000D03*
X45720000Y-83185000D03*
X45720000Y-80645000D03*
X45720000Y-85725000D03*
X45720000Y-88265000D03*
X43180000Y-84455000D03*
X43180000Y-86995000D03*
X43180000Y-81915000D03*
X43180000Y-79375000D03*
D79*
X82450000Y-96500000D03*
X80550000Y-96500000D03*
X81500000Y-98500000D03*
D80*
X86500000Y-97650000D03*
X86500000Y-99550000D03*
X88500000Y-98600000D03*
D51*
X79100000Y-102850000D03*
X79100000Y-103750000D03*
D52*
X83150000Y-94100000D03*
X84050000Y-94100000D03*
D51*
X88100000Y-102850000D03*
X88100000Y-103750000D03*
D52*
X121750000Y-40300000D03*
X120850000Y-40300000D03*
X121750000Y-58100000D03*
X120850000Y-58100000D03*
X117250000Y-75800000D03*
X116350000Y-75800000D03*
X121750000Y-93600000D03*
X120850000Y-93600000D03*
D80*
X105500000Y-104000000D03*
X105500000Y-105900000D03*
X107500000Y-104950000D03*
D51*
X103900000Y-105350000D03*
X103900000Y-104450000D03*
D52*
X107950000Y-109900000D03*
X107050000Y-109900000D03*
D81*
X107850000Y-108000000D03*
X104550000Y-108000000D03*
D82*
X62505551Y-82506791D03*
X62505551Y-81506031D03*
X62505551Y-80505271D03*
X62505551Y-79507051D03*
X62505551Y-78506291D03*
X62505551Y-77505531D03*
X62505551Y-76507311D03*
X62505551Y-75506551D03*
X62505551Y-74505791D03*
X62505551Y-73505031D03*
X62505551Y-72506811D03*
X62505551Y-71506051D03*
X62505551Y-70505291D03*
X62505551Y-69507071D03*
X62505551Y-68506311D03*
X62505551Y-67505551D03*
X63506311Y-82506791D03*
X64507071Y-82506791D03*
X65505291Y-82506791D03*
X66506051Y-82506791D03*
X67506811Y-82506791D03*
X68505031Y-82506791D03*
X69505791Y-82506791D03*
X70506551Y-82506791D03*
X63506311Y-67505551D03*
X63506311Y-68506311D03*
X63506311Y-69507071D03*
X63506311Y-70505291D03*
X63506311Y-71506051D03*
X63506311Y-72506811D03*
X63506311Y-73505031D03*
X63506311Y-74505791D03*
X63506311Y-75506551D03*
X63506311Y-76507311D03*
X63506311Y-77505531D03*
X63506311Y-78506291D03*
X63506311Y-81506031D03*
X63506311Y-80505271D03*
X63506311Y-79507051D03*
X64507071Y-81506031D03*
X64507071Y-80505271D03*
X64507071Y-79507051D03*
X64507071Y-78506291D03*
X64507071Y-77505531D03*
X64507071Y-76507311D03*
X64507071Y-75506551D03*
X64507071Y-74505791D03*
X65505291Y-81506031D03*
X65505291Y-80505271D03*
X65505291Y-79507051D03*
X65505291Y-78506291D03*
X65505291Y-77505531D03*
X65505291Y-76507311D03*
X65505291Y-75506551D03*
X65505291Y-74505791D03*
X66506051Y-81506031D03*
X66506051Y-80505271D03*
X66506051Y-79507051D03*
X64507071Y-73505031D03*
X65505291Y-73505031D03*
X64507071Y-72506811D03*
X65505291Y-72506811D03*
X65505291Y-71506051D03*
X64507071Y-71506051D03*
X64507071Y-70505291D03*
X64507071Y-69507071D03*
X65505291Y-69507071D03*
X65505291Y-70505291D03*
X64507071Y-68506311D03*
X65505291Y-68506311D03*
X65505291Y-67505551D03*
X64507071Y-67505551D03*
X66506051Y-70505291D03*
X67506811Y-70505291D03*
X68505031Y-70505291D03*
X68505031Y-69507071D03*
X67506811Y-69507071D03*
X66506051Y-69507071D03*
X66506051Y-68506311D03*
X67506811Y-68506311D03*
X68505031Y-68506311D03*
X68505031Y-67505551D03*
X67506811Y-67505551D03*
X66506051Y-67505551D03*
X67506811Y-81506031D03*
X67506811Y-80505271D03*
X67506811Y-79507051D03*
X68505031Y-79507051D03*
X68505031Y-80505271D03*
X68505031Y-81506031D03*
X69505791Y-81506031D03*
X69505791Y-80505271D03*
X69505791Y-79507051D03*
X70506551Y-79507051D03*
X70506551Y-80505271D03*
X70506551Y-81506031D03*
X71507311Y-82506791D03*
X71507311Y-81506031D03*
X71507311Y-80505271D03*
X71507311Y-79507051D03*
X72505531Y-79507051D03*
X72505531Y-80505271D03*
X72505531Y-81506031D03*
X72505531Y-82506791D03*
X73506291Y-82506791D03*
X73506291Y-81506031D03*
X73506291Y-80505271D03*
X73506291Y-79507051D03*
X74507051Y-79507051D03*
X75505271Y-79507051D03*
X76506031Y-79507051D03*
X76506031Y-80505271D03*
X75505271Y-80505271D03*
X74507051Y-80505271D03*
X74507051Y-81506031D03*
X75505271Y-81506031D03*
X76506031Y-81506031D03*
X74507051Y-82506791D03*
X75505271Y-82506791D03*
X76506031Y-82506791D03*
X77506791Y-82506791D03*
X77506791Y-81506031D03*
X77506791Y-80505271D03*
X77506791Y-79507051D03*
X66506051Y-75506551D03*
X66506051Y-76507311D03*
X66506051Y-77505531D03*
X66506051Y-78506291D03*
X67506811Y-78506291D03*
X67506811Y-77505531D03*
X67506811Y-76507311D03*
X67506811Y-75506551D03*
X68505031Y-78506291D03*
X68505031Y-77505531D03*
X68505031Y-76507311D03*
X68505031Y-75506551D03*
X69505791Y-78506291D03*
X69505791Y-77505531D03*
X69505791Y-76507311D03*
X69505791Y-75506551D03*
X70506551Y-78506291D03*
X70506551Y-77505531D03*
X70506551Y-76507311D03*
X70506551Y-75506551D03*
X71507311Y-78506291D03*
X71507311Y-77505531D03*
X71507311Y-76507311D03*
X71507311Y-75506551D03*
X72505531Y-78506291D03*
X72505531Y-77505531D03*
X72505531Y-76507311D03*
X72505531Y-75506551D03*
X73506291Y-78506291D03*
X73506291Y-77505531D03*
X73506291Y-76507311D03*
X75505271Y-78506291D03*
X75505271Y-77505531D03*
X76506031Y-78506291D03*
X76506031Y-77505531D03*
X77506791Y-78506291D03*
X77506791Y-77505531D03*
X73506291Y-75506551D03*
X74507051Y-78506291D03*
X74507051Y-77505531D03*
X74507051Y-76507311D03*
X75505271Y-72506811D03*
X75505271Y-73505031D03*
X75505271Y-74505791D03*
X75505271Y-75506551D03*
X75505271Y-76507311D03*
X76506031Y-76507311D03*
X76506031Y-75506551D03*
X76506031Y-74505791D03*
X76506031Y-73505031D03*
X76506031Y-72506811D03*
X77506791Y-76507311D03*
X77506791Y-75506551D03*
X77506791Y-74505791D03*
X77506791Y-73505031D03*
X77506791Y-72506811D03*
X74507051Y-75506551D03*
X66506051Y-74505791D03*
X66506051Y-73505031D03*
X66506051Y-72506811D03*
X66506051Y-71506051D03*
X75505271Y-71506051D03*
X67506811Y-74505791D03*
X67506811Y-73505031D03*
X67506811Y-72506811D03*
X67506811Y-71506051D03*
X70506551Y-74505791D03*
X68505031Y-71506051D03*
X68505031Y-72506811D03*
X68505031Y-73505031D03*
X68505031Y-74505791D03*
X76506031Y-71506051D03*
X77506791Y-71506051D03*
X69505791Y-74505791D03*
X69505791Y-73505031D03*
X69505791Y-72506811D03*
X69505791Y-71506051D03*
X70506551Y-73505031D03*
X70506551Y-72506811D03*
X70506551Y-71506051D03*
X69505791Y-70505291D03*
X70506551Y-70505291D03*
X71507311Y-70505291D03*
X72505531Y-70505291D03*
X73506291Y-70505291D03*
X74507051Y-70505291D03*
X75505271Y-70505291D03*
X76506031Y-70505291D03*
X77506791Y-70505291D03*
X74507051Y-74505791D03*
X73506291Y-74505791D03*
X72505531Y-74505791D03*
X71507311Y-74505791D03*
X71507311Y-73505031D03*
X72505531Y-73505031D03*
X73506291Y-73505031D03*
X74507051Y-73505031D03*
X77506791Y-69507071D03*
X76506031Y-69507071D03*
X75505271Y-69507071D03*
X74507051Y-69507071D03*
X73506291Y-69507071D03*
X72505531Y-69507071D03*
X71507311Y-69507071D03*
X70506551Y-69507071D03*
X69505791Y-69507071D03*
X69505791Y-68506311D03*
X70506551Y-68506311D03*
X71507311Y-68506311D03*
X72505531Y-68506311D03*
X73506291Y-68506311D03*
X74507051Y-68506311D03*
X75505271Y-68506311D03*
X76506031Y-68506311D03*
X77506791Y-68506311D03*
X74507051Y-72506811D03*
X73506291Y-72506811D03*
X72505531Y-72506811D03*
X71507311Y-72506811D03*
X71507311Y-71506051D03*
X72505531Y-71506051D03*
X73506291Y-71506051D03*
X74507051Y-71506051D03*
X77506791Y-67505551D03*
X76506031Y-67505551D03*
X75505271Y-67505551D03*
X74507051Y-67505551D03*
X73506291Y-67505551D03*
X72505531Y-67505551D03*
X71507311Y-67505551D03*
X70506551Y-67505551D03*
X69505791Y-67505551D03*
D25*
X45500000Y-110855000D03*
X45500000Y-112125000D03*
M02*
