M48
;DRILL file {KiCad 4.0.7} date 02/13/20 08:53:53
;FORMAT={3:3/ absolute / metric / suppress leading zeros}
FMAT,2
METRIC,TZ
T1C0.250
T2C0.300
T3C0.381
T4C0.650
T5C0.762
T6C0.800
T7C0.813
T8C0.890
T9C0.914
T10C0.920
T11C1.000
T12C1.016
T13C1.199
T14C1.350
T15C1.500
T16C1.630
T17C2.301
T18C2.500
T19C3.200
%
G90
G05
M71
T1
X28575Y-109220
X28575Y-111760
X28575Y-114300
X28575Y-116840
X28575Y-119380
X28575Y-121920
X28575Y-124460
X32250Y-38500
X33417Y-113668
X33500Y-108600
X33594Y-111114
X33655Y-40640
X33655Y-41910
X33655Y-43180
X33655Y-44450
X34550Y-121500
X34600Y-127635
X34800Y-123800
X35000Y-118500
X35250Y-31250
X35250Y-32250
X36020Y-86030
X36195Y-38100
X36794Y-127635
X37465Y-41910
X37465Y-43180
X38007Y-44350
X38200Y-31600
X38400Y-33800
X38548Y-120706
X38752Y-45798
X38757Y-44350
X38988Y-127635
X39200Y-31600
X39200Y-33800
X39336Y-125921
X39370Y-36195
X39775Y-123793
X40005Y-82550
X40005Y-85090
X40565Y-127635
X40900Y-33800
X41000Y-121500
X41300Y-123800
X41337Y-45830
X41400Y-118500
X41500Y-113500
X41675Y-33784
X41800Y-116200
X41910Y-36195
X41910Y-41360
X42007Y-45279
X42960Y-102250
X43006Y-113484
X43105Y-127635
X43671Y-113484
X43710Y-102250
X44330Y-76995
X44450Y-71120
X44450Y-72390
X45085Y-72390
X45200Y-113400
X45200Y-120700
X45200Y-123800
X45500Y-106500
X45645Y-125730
X45645Y-127635
X45710Y-102250
X45720Y-71120
X45720Y-72390
X45900Y-113400
X46000Y-31200
X46000Y-33500
X46400Y-54400
X46460Y-102250
X46600Y-113400
X46902Y-85456
X46925Y-127635
X46990Y-32385
X47240Y-116357
X47500Y-63500
X47500Y-123800
X47956Y-63111
X47997Y-62136
X48396Y-62702
X48413Y-60954
X48500Y-71700
X48895Y-33655
X49400Y-74300
X49465Y-127635
X49500Y-116500
X49530Y-76945
X49530Y-90805
X49541Y-83831
X49775Y-66492
X49808Y-68374
X49900Y-73700
X50000Y-93550
X50165Y-33655
X50165Y-84455
X50165Y-88900
X50380Y-73205
X50499Y-60191
X50500Y-59500
X50551Y-50523
X50755Y-60804
X50800Y-79375
X50800Y-90805
X51011Y-73050
X51158Y-73686
X51460Y-76945
X51500Y-113400
X51500Y-116500
X52000Y-32385
X52000Y-123800
X52005Y-125730
X52005Y-127635
X52070Y-35560
X52090Y-85733
X52200Y-113400
X52500Y-93500
X52774Y-85497
X53306Y-77992
X53340Y-33655
X53340Y-89535
X53395Y-77279
X53423Y-85486
X53501Y-90638
X53700Y-79500
X54673Y-78565
X55016Y-51394
X55204Y-69989
X55294Y-67589
X55495Y-50379
X55573Y-49733
X55645Y-46153
X55723Y-87956
X55810Y-70443
X55813Y-31372
X56015Y-90647
X56099Y-88865
X56187Y-95421
X56325Y-54429
X56422Y-88100
X56437Y-91067
X56628Y-67986
X56654Y-83041
X56700Y-95021
X56702Y-55344
X56726Y-46959
X56835Y-54530
X56848Y-88722
X56888Y-92522
X56925Y-96298
X56948Y-85890
X57015Y-90758
X57200Y-95700
X57200Y-102100
X57211Y-46387
X57347Y-47560
X57474Y-68680
X57676Y-85215
X57785Y-33655
X57821Y-103800
X58383Y-81277
X58411Y-69765
X58704Y-96765
X58746Y-97540
X58775Y-87610
X58870Y-70225
X58888Y-86902
X58971Y-96159
X59052Y-33648
X59176Y-93386
X59223Y-79303
X59243Y-53435
X59297Y-65797
X59308Y-85881
X59315Y-86481
X59410Y-54063
X59475Y-84361
X59481Y-83275
X59491Y-70700
X59534Y-85312
X59541Y-98686
X59679Y-96369
X59791Y-98069
X59800Y-69700
X59892Y-75390
X59956Y-95781
X60243Y-69114
X60376Y-77032
X60521Y-72745
X60639Y-74374
X60800Y-32385
X60894Y-96672
X60936Y-95400
X61324Y-69722
X61336Y-72590
X61400Y-66800
X61582Y-68011
X61600Y-78300
X61700Y-96600
X61800Y-47400
X61800Y-49200
X61936Y-95440
X62230Y-33655
X62661Y-96595
X63000Y-58500
X63000Y-73000
X63000Y-80013
X63096Y-59400
X63134Y-81961
X63704Y-59037
X63985Y-79000
X63996Y-81001
X63998Y-71000
X64000Y-69000
X64000Y-72000
X64000Y-73003
X64000Y-75000
X64000Y-78000
X64000Y-80000
X64014Y-77000
X64289Y-83563
X64304Y-97192
X64315Y-58815
X64334Y-84227
X64500Y-121500
X64721Y-31424
X64856Y-89032
X64860Y-70826
X64953Y-70042
X65000Y-72000
X65000Y-73000
X65000Y-74000
X65000Y-76000
X65000Y-78997
X65000Y-81000
X65000Y-98400
X65005Y-80000
X65011Y-77997
X65173Y-84858
X65200Y-46200
X65359Y-61309
X65405Y-50165
X65600Y-107000
X65661Y-84454
X65700Y-100600
X65767Y-106200
X65997Y-72012
X66000Y-69000
X66000Y-73000
X66000Y-74000
X66000Y-77000
X66000Y-78000
X66000Y-79000
X66000Y-81000
X66010Y-82014
X66019Y-71010
X66040Y-92681
X66484Y-61877
X66675Y-66013
X66675Y-33655
X66939Y-65311
X66972Y-97977
X66986Y-84544
X67000Y-69000
X67000Y-70000
X67000Y-71000
X67000Y-72000
X67000Y-73000
X67000Y-74000
X67000Y-75000
X67000Y-76000
X67000Y-80000
X67200Y-97422
X67200Y-58869
X67390Y-60193
X67500Y-122000
X67800Y-97100
X67945Y-33655
X68000Y-71000
X68000Y-72000
X68000Y-74000
X68000Y-75000
X68000Y-76000
X68000Y-77000
X68000Y-79000
X68008Y-80999
X68161Y-79807
X68188Y-60545
X68232Y-57559
X68265Y-56318
X68265Y-58747
X68374Y-100494
X68500Y-83459
X68500Y-92500
X68580Y-50165
X68600Y-46200
X68637Y-88698
X68788Y-60796
X68872Y-105434
X68992Y-69000
X69000Y-71000
X69000Y-72000
X69000Y-73000
X69000Y-74000
X69000Y-75000
X69000Y-76000
X69000Y-77000
X69022Y-81000
X69100Y-78140
X69287Y-88681
X69314Y-105029
X69437Y-60768
X69467Y-88004
X69700Y-32385
X69993Y-106379
X70000Y-80000
X70000Y-72000
X70000Y-74000
X70000Y-77000
X70000Y-78000
X70000Y-79000
X70000Y-81000
X70000Y-92500
X70243Y-83600
X70351Y-84500
X70405Y-102767
X70437Y-60775
X70485Y-48895
X70485Y-51365
X70649Y-99572
X70781Y-65938
X70847Y-84115
X70862Y-91319
X70976Y-103570
X71000Y-69000
X71000Y-71000
X71000Y-72000
X71000Y-74000
X71000Y-76000
X71084Y-60713
X71120Y-84705
X71120Y-33655
X71218Y-83577
X71571Y-59500
X71612Y-103945
X71925Y-103434
X72000Y-69000
X72000Y-72000
X72000Y-73000
X72000Y-74000
X72000Y-75000
X72000Y-76000
X72000Y-77000
X72000Y-78000
X72000Y-79000
X72003Y-63692
X72081Y-60833
X72469Y-84604
X72625Y-104247
X72900Y-80000
X72900Y-80921
X72930Y-83557
X73000Y-70000
X73000Y-72000
X73000Y-75000
X73000Y-77000
X73000Y-79000
X73345Y-60650
X73469Y-31268
X73500Y-85570
X73613Y-92315
X73660Y-49530
X73660Y-50800
X73763Y-61619
X73941Y-74026
X73994Y-80002
X74000Y-72000
X74000Y-73000
X74000Y-76000
X74000Y-77000
X74000Y-79000
X74038Y-70000
X74542Y-84541
X74700Y-49500
X74700Y-50800
X74856Y-71140
X74885Y-58669
X75000Y-70000
X75000Y-77000
X75026Y-80032
X75450Y-92501
X75565Y-33655
X75913Y-61753
X75945Y-57776
X75950Y-91604
X76000Y-70000
X76000Y-77000
X76000Y-78000
X76000Y-80000
X76700Y-62900
X76835Y-33655
X76852Y-59316
X77135Y-63314
X77290Y-65855
X77300Y-49700
X77300Y-50600
X77750Y-89250
X77750Y-90250
X77896Y-65388
X78002Y-87508
X78119Y-62044
X78599Y-71440
X78600Y-32385
X78683Y-66350
X78766Y-80052
X79158Y-70811
X79190Y-59522
X79244Y-71519
X79530Y-54351
X79587Y-74329
X79600Y-45600
X79600Y-78200
X79800Y-43100
X79800Y-44000
X79800Y-48200
X79811Y-80389
X80000Y-102900
X80010Y-33655
X80491Y-87834
X80500Y-89000
X80500Y-90250
X80500Y-100000
X80865Y-82502
X81400Y-96500
X81842Y-59190
X82000Y-106500
X82101Y-60190
X82464Y-31335
X82489Y-63478
X82566Y-59438
X82964Y-63925
X83200Y-94800
X83669Y-60088
X83804Y-60723
X84100Y-95400
X84200Y-43800
X84246Y-123616
X84455Y-33655
X84500Y-100500
X84694Y-93147
X84797Y-110297
X85000Y-44000
X85000Y-47400
X85000Y-97200
X85725Y-33655
X86000Y-47400
X86400Y-44000
X87500Y-32385
X87561Y-114231
X87710Y-86821
X87800Y-42200
X87990Y-49200
X88815Y-49200
X88868Y-114205
X88900Y-33655
X89000Y-102900
X89500Y-100000
X89800Y-45200
X90000Y-46200
X90160Y-114167
X90170Y-123825
X91000Y-106500
X91200Y-51400
X91279Y-31268
X92239Y-95435
X92885Y-94902
X93345Y-33655
X93345Y-123825
X93500Y-100500
X94200Y-44000
X94200Y-45000
X94615Y-33655
X94800Y-78200
X95100Y-105000
X95236Y-84347
X95280Y-81976
X95500Y-112000
X95800Y-106750
X95885Y-84455
X95900Y-98700
X95997Y-81976
X96250Y-50750
X96250Y-51500
X96250Y-52250
X96335Y-114115
X96399Y-72504
X96399Y-72684
X96400Y-32385
X96449Y-70118
X96449Y-70315
X97000Y-98700
X97100Y-103100
X97100Y-103800
X97100Y-110900
X97300Y-108100
X97350Y-85553
X97790Y-114300
X98135Y-31555
X98400Y-36700
X98400Y-37400
X98404Y-81854
X98421Y-72759
X98425Y-33655
X98425Y-34290
X98425Y-70485
X98425Y-84455
X98500Y-98700
X98506Y-73579
X98900Y-86300
X98949Y-78369
X99060Y-70485
X99060Y-81915
X99060Y-84455
X99060Y-114300
X99060Y-123825
X99089Y-72996
X99224Y-75387
X99256Y-98644
X99695Y-48875
X99695Y-46355
X99695Y-55245
X99695Y-64135
X99695Y-66675
X99695Y-88265
X99695Y-90805
X99700Y-49700
X100055Y-31099
X100254Y-76161
X100300Y-49700
X100300Y-79500
X100300Y-80300
X100300Y-85800
X100330Y-46355
X100330Y-55245
X100330Y-64135
X100330Y-66675
X100330Y-71120
X100330Y-71755
X100330Y-77470
X100330Y-81280
X100330Y-81915
X100330Y-83185
X100330Y-83820
X100330Y-88265
X100330Y-90805
X100331Y-48876
X100345Y-43189
X100349Y-78740
X100357Y-60945
X100413Y-53149
X100426Y-96518
X100688Y-53149
X100900Y-36800
X100900Y-37500
X100965Y-33655
X100965Y-34290
X101335Y-99126
X101335Y-99761
X101370Y-102131
X101370Y-102931
X101600Y-107500
X101600Y-108600
X101600Y-109900
X101600Y-110800
X102200Y-39900
X102200Y-57700
X102235Y-33655
X102235Y-38735
X102235Y-56515
X102235Y-92075
X102235Y-123825
X102300Y-93200
X102700Y-55200
X102700Y-64100
X102798Y-109000
X102798Y-110000
X102798Y-111000
X102798Y-112000
X102798Y-113000
X102800Y-46400
X102800Y-48900
X102800Y-66700
X102800Y-114000
X102870Y-90805
X102900Y-39900
X102900Y-57700
X102950Y-52808
X102953Y-88373
X103000Y-93200
X103168Y-106929
X103358Y-48758
X103500Y-46400
X103500Y-55200
X103500Y-62100
X103500Y-64100
X103500Y-66700
X103505Y-33655
X103505Y-69850
X103505Y-85090
X103505Y-88265
X103505Y-90805
X103529Y-52537
X103800Y-106800
X103870Y-102131
X103870Y-102931
X103875Y-99126
X103875Y-99761
X104000Y-62600
X104100Y-76900
X104140Y-73660
X104140Y-74930
X104140Y-76200
X104140Y-78740
X104140Y-80010
X104140Y-81280
X104395Y-106186
X104500Y-98000
X104503Y-97297
X104600Y-44000
X104600Y-44700
X104775Y-35560
X104775Y-36195
X104775Y-41910
X104775Y-43180
X104775Y-45720
X104775Y-46355
X104775Y-47625
X104775Y-53340
X104775Y-53975
X104775Y-59690
X104775Y-60960
X104775Y-63500
X104775Y-64135
X104775Y-65405
X104775Y-66040
X104775Y-88900
X104775Y-89535
X104775Y-95250
X104775Y-96520
X104775Y-99060
X104775Y-99695
X104775Y-100965
X104775Y-101600
X104815Y-47907
X105300Y-32385
X105400Y-116100
X105410Y-69215
X105410Y-69850
X105410Y-85090
X105410Y-85725
X106045Y-69215
X106045Y-69850
X106045Y-73660
X106045Y-81280
X106045Y-85090
X106045Y-85725
X106200Y-111000
X106680Y-69215
X106680Y-69850
X106680Y-85090
X106680Y-85725
X106700Y-116100
X106888Y-31558
X107315Y-69215
X107315Y-69850
X107315Y-85090
X107315Y-85725
X107725Y-112675
X107800Y-106300
X107950Y-69215
X107950Y-69850
X107950Y-73660
X107950Y-74295
X107950Y-80645
X107950Y-81280
X107950Y-85090
X107950Y-85725
X107950Y-87630
X107950Y-102870
X108000Y-116100
X108585Y-39370
X108585Y-40560
X108585Y-43180
X108585Y-44450
X108585Y-57150
X108585Y-58420
X108585Y-60960
X108585Y-62230
X108585Y-69215
X108585Y-69850
X108585Y-73660
X108585Y-74295
X108585Y-80645
X108585Y-81280
X108585Y-85090
X108585Y-85725
X108585Y-91440
X108585Y-92710
X108585Y-93980
X108585Y-96520
X108585Y-97790
X108585Y-99060
X108585Y-123825
X108600Y-59200
X108600Y-94800
X109220Y-73660
X109220Y-74295
X109220Y-80645
X109220Y-81280
X109855Y-33655
X109855Y-34290
X109855Y-49530
X109855Y-50165
X109855Y-51435
X109855Y-52070
X109855Y-67310
X109855Y-67945
X109855Y-73660
X109855Y-74295
X109855Y-80645
X109855Y-81280
X109855Y-86995
X109855Y-87630
X109855Y-102870
X109855Y-103505
X110490Y-33655
X110490Y-34290
X110490Y-49530
X110490Y-50165
X110490Y-51435
X110490Y-52070
X110490Y-67310
X110490Y-67945
X110490Y-73660
X110490Y-74295
X110490Y-80645
X110490Y-81280
X110490Y-86995
X110490Y-87630
X110490Y-91440
X110490Y-99060
X110490Y-102870
X110490Y-103505
X111000Y-31000
X111125Y-33655
X111125Y-34290
X111125Y-49530
X111125Y-50165
X111125Y-51435
X111125Y-52070
X111125Y-67310
X111125Y-67945
X111125Y-73660
X111125Y-74295
X111125Y-80645
X111125Y-81280
X111125Y-86995
X111125Y-87630
X111125Y-102870
X111125Y-103505
X111125Y-106045
X111125Y-107315
X111125Y-108585
X111125Y-109855
X111125Y-113665
X111125Y-114935
X111125Y-116205
X111125Y-117475
X111760Y-33655
X111760Y-34290
X111760Y-49530
X111760Y-50165
X111760Y-51435
X111760Y-52070
X111760Y-67310
X111760Y-67945
X111760Y-86995
X111760Y-87630
X111760Y-102870
X111760Y-103505
X111760Y-118745
X112338Y-43116
X112395Y-33655
X112395Y-34290
X112395Y-38100
X112395Y-38735
X112395Y-45085
X112395Y-45720
X112395Y-49530
X112395Y-50165
X112395Y-51435
X112395Y-52070
X112395Y-55880
X112395Y-56515
X112395Y-62865
X112395Y-63500
X112395Y-67310
X112395Y-67945
X112395Y-79375
X112395Y-86995
X112395Y-87630
X112395Y-91440
X112395Y-92075
X112395Y-98425
X112395Y-99060
X112395Y-102870
X112395Y-103505
X112500Y-28000
X112500Y-76600
X113030Y-33655
X113030Y-34290
X113030Y-38100
X113030Y-38735
X113030Y-45085
X113030Y-45720
X113030Y-49530
X113030Y-50165
X113030Y-51435
X113030Y-52070
X113030Y-55880
X113030Y-56515
X113030Y-62865
X113030Y-63500
X113030Y-67310
X113030Y-67945
X113030Y-86995
X113030Y-87630
X113030Y-91440
X113030Y-92075
X113030Y-98425
X113030Y-99060
X113030Y-102870
X113030Y-103505
X113030Y-118745
X113665Y-38100
X113665Y-38735
X113665Y-45085
X113665Y-45720
X113665Y-55880
X113665Y-56515
X113665Y-62865
X113665Y-63500
X113665Y-91440
X113665Y-92075
X113665Y-98425
X113665Y-99060
X113665Y-127635
X114300Y-38100
X114300Y-38735
X114300Y-45085
X114300Y-45720
X114300Y-55880
X114300Y-56515
X114300Y-62865
X114300Y-63500
X114300Y-91440
X114300Y-92075
X114300Y-98425
X114300Y-99060
X114300Y-118745
X114935Y-38100
X114935Y-38735
X114935Y-45085
X114935Y-45720
X114935Y-55880
X114935Y-56515
X114935Y-62865
X114935Y-63500
X114935Y-91440
X114935Y-92075
X114935Y-98425
X114935Y-99060
X115570Y-38100
X115570Y-38735
X115570Y-45085
X115570Y-45720
X115570Y-55880
X115570Y-56515
X115570Y-62865
X115570Y-63500
X115570Y-74295
X115570Y-77470
X115570Y-79375
X115570Y-91440
X115570Y-92075
X115570Y-98425
X115570Y-99060
X115570Y-118745
X116205Y-78105
X116500Y-41500
X116840Y-43815
X116840Y-61595
X116840Y-96986
X116900Y-94400
X117000Y-58900
X117475Y-77470
X118110Y-69850
X118110Y-71120
X118110Y-83820
X118110Y-85090
X119491Y-96804
X120015Y-38735
X120015Y-41910
X120015Y-43815
X120015Y-56515
X120015Y-59690
X120015Y-61595
X120015Y-92075
X120015Y-95250
X120015Y-127635
X120200Y-97400
X120650Y-42545
X120650Y-60325
X120650Y-95668
X121285Y-69850
X121285Y-71120
X121285Y-83820
X121285Y-85090
X121920Y-41910
X121920Y-59690
X121920Y-95250
X122555Y-34290
X122555Y-35560
X122555Y-48260
X122555Y-49530
X122555Y-52070
X122555Y-53340
X122555Y-66040
X122555Y-67310
X122555Y-87630
X122555Y-88900
X122555Y-101600
X122555Y-102870
X125730Y-34290
X125730Y-35560
X125730Y-48260
X125730Y-49530
X125730Y-52070
X125730Y-53340
X125730Y-66040
X125730Y-67310
X125730Y-87630
X125730Y-88900
X125730Y-101600
X125730Y-102870
T2
X86995Y-117475
X86995Y-118745
X86995Y-120015
X88265Y-117475
X88265Y-118745
X88265Y-120015
X89535Y-117475
X89535Y-118745
X89535Y-120015
X95885Y-117475
X95885Y-118745
X95885Y-120015
X97155Y-117475
X97155Y-118745
X97155Y-120015
X98425Y-117475
X98425Y-118745
X98425Y-120015
X104775Y-117475
X104775Y-118745
X104775Y-120015
X106045Y-117475
X106045Y-118745
X106045Y-120015
X107315Y-117475
X107315Y-118745
X107315Y-120015
X112395Y-121920
X112395Y-123190
X112395Y-124460
X113665Y-121920
X113665Y-123190
X113665Y-124460
X114300Y-106680
X114300Y-107950
X114300Y-109220
X114300Y-114300
X114300Y-115570
X114300Y-116840
X114935Y-121920
X114935Y-123190
X114935Y-124460
X115570Y-106680
X115570Y-107950
X115570Y-109220
X115570Y-114300
X115570Y-115570
X115570Y-116840
X116840Y-106680
X116840Y-107950
X116840Y-109220
X116840Y-114300
X116840Y-115570
X116840Y-116840
T3
X52205Y-82050
X52205Y-83050
X53205Y-82050
X53205Y-83050
T4
X58500Y-101230
X58500Y-102500
X58500Y-116230
X58500Y-117500
X58500Y-123730
X58500Y-125000
X58500Y-131230
X58500Y-132500
X59770Y-101230
X59770Y-102500
X59770Y-116230
X59770Y-117500
X59770Y-123730
X59770Y-125000
X59770Y-131230
X59770Y-132500
X61040Y-101230
X61040Y-102500
X61040Y-116230
X61040Y-117500
X61040Y-123730
X61040Y-125000
X61040Y-131230
X61040Y-132500
X62310Y-101230
X62310Y-102500
X62310Y-116230
X62310Y-117500
X62310Y-123730
X62310Y-125000
X62310Y-131230
X62310Y-132500
X63580Y-101230
X63580Y-102500
X63580Y-116230
X63580Y-117500
X63580Y-123730
X63580Y-125000
X63580Y-131230
X63580Y-132500
X73500Y-116230
X73500Y-117500
X73500Y-123730
X73500Y-125000
X73500Y-131230
X73500Y-132500
X74770Y-116230
X74770Y-117500
X74770Y-123730
X74770Y-125000
X74770Y-131230
X74770Y-132500
X76040Y-116230
X76040Y-117500
X76040Y-123730
X76040Y-125000
X76040Y-131230
X76040Y-132500
X77310Y-116230
X77310Y-117500
X77310Y-123730
X77310Y-125000
X77310Y-131230
X77310Y-132500
X78580Y-116230
X78580Y-117500
X78580Y-123730
X78580Y-125000
X78580Y-131230
X78580Y-132500
X84500Y-67730
X84500Y-69000
X84500Y-75230
X84500Y-76500
X84500Y-82730
X84500Y-84000
X85770Y-67730
X85770Y-69000
X85770Y-75230
X85770Y-76500
X85770Y-82730
X85770Y-84000
X87040Y-67730
X87040Y-69000
X87040Y-75230
X87040Y-76500
X87040Y-82730
X87040Y-84000
X88310Y-67730
X88310Y-69000
X88310Y-75230
X88310Y-76500
X88310Y-82730
X88310Y-84000
X89580Y-67730
X89580Y-69000
X89580Y-75230
X89580Y-76500
X89580Y-82730
X89580Y-84000
T5
X52705Y-82550
T6
X72700Y-43815
X76200Y-43815
X89700Y-89100
X89700Y-94100
X93000Y-59500
X98000Y-59500
X125095Y-121920
X125095Y-125420
T7
X38641Y-64770
X38641Y-67310
X40640Y-64770
X40640Y-67310
T8
X31930Y-77505
X31930Y-87615
X33450Y-80045
X33450Y-90155
X43180Y-79375
X43180Y-81915
X43180Y-84455
X43180Y-86995
X45720Y-80645
X45720Y-83185
X45720Y-85725
X45720Y-88265
T9
X28575Y-97790
X28575Y-102870
T10
X38100Y-53340
X40100Y-53340
X42100Y-53340
X44100Y-53340
T11
X39370Y-111760
X41270Y-98670
X41300Y-96160
X43840Y-96160
X43840Y-98700
X46380Y-96160
X46380Y-98700
X48920Y-96160
X48920Y-98700
X51460Y-96160
X51460Y-98700
X95250Y-127000
X97790Y-127000
X104140Y-127000
X106680Y-127000
X123825Y-73660
X123825Y-76200
X123825Y-78740
X123825Y-81280
X131445Y-38100
X131445Y-40640
X131445Y-43180
X131445Y-45720
X131445Y-55880
X131445Y-58420
X131445Y-60960
X131445Y-63500
X131445Y-73660
X131445Y-76200
X131445Y-78740
X131445Y-81280
X131445Y-91440
X131445Y-93980
X131445Y-96520
X131445Y-99060
T12
X35560Y-131521
X38100Y-131521
X39370Y-114300
X39370Y-116840
X41910Y-131521
X44450Y-131521
X48260Y-29286
X48260Y-120091
X48260Y-131521
X50800Y-29286
X50800Y-120091
X50800Y-131521
X53340Y-29286
X56515Y-41910
X57150Y-29286
X59055Y-41910
X59690Y-29286
X62230Y-29286
X64135Y-41910
X66040Y-29286
X66675Y-41910
X68580Y-29286
X71120Y-29286
X74930Y-29286
X77470Y-29286
X78460Y-108076
X80010Y-29286
X81000Y-108076
X83540Y-108076
X83820Y-29286
X86360Y-29286
X86360Y-131521
X87460Y-108076
X88900Y-29286
X88900Y-131521
X90000Y-108076
X92540Y-108076
X92710Y-29286
X95250Y-29286
X97100Y-92600
X97100Y-95140
X97790Y-29286
X97790Y-41275
X97790Y-43815
X101600Y-29286
X104140Y-29286
X106680Y-29286
X109220Y-29286
X122555Y-106680
X122555Y-109220
X122555Y-114300
X122555Y-116840
X132715Y-121285
X132715Y-123825
T13
X31115Y-96520
X31115Y-104140
T14
X37370Y-50620
X37370Y-56060
X44370Y-50620
X44370Y-56060
T15
X94770Y-131445
X98270Y-131445
X103660Y-131445
X107160Y-131445
X128905Y-36660
X128905Y-40160
X128905Y-43660
X128905Y-47160
X128905Y-54440
X128905Y-57940
X128905Y-61440
X128905Y-64940
X128905Y-72220
X128905Y-75720
X128905Y-79220
X128905Y-82720
X128905Y-90000
X128905Y-93500
X128905Y-97000
X128905Y-100500
T16
X39880Y-76075
X39880Y-91565
T17
X35941Y-60041
X35941Y-72039
T18
X114340Y-132080
X119340Y-132080
X127040Y-107950
X127040Y-115570
X132040Y-107950
X132040Y-115570
T19
X30400Y-30400
X30400Y-130400
X130400Y-30400
X130400Y-130400
T0
M30
