G04 #@! TF.FileFunction,Soldermask,Bot*
%FSLAX46Y46*%
G04 Gerber Fmt 4.6, Leading zero omitted, Abs format (unit mm)*
G04 Created by KiCad (PCBNEW 4.0.7) date 02/13/20 09:13:16*
%MOMM*%
%LPD*%
G01*
G04 APERTURE LIST*
%ADD10C,0.100000*%
%ADD11C,0.002540*%
%ADD12R,0.900000X1.000000*%
%ADD13R,1.000000X0.900000*%
%ADD14C,2.100000*%
%ADD15O,5.400000X2.900000*%
%ADD16R,2.899360X2.200860*%
%ADD17R,2.200860X2.899360*%
%ADD18R,1.400000X1.900000*%
%ADD19R,1.900000X1.400000*%
%ADD20R,0.900000X1.300000*%
%ADD21R,1.924000X2.597100*%
%ADD22O,1.924000X2.597100*%
%ADD23R,2.432000X2.432000*%
%ADD24O,2.432000X2.432000*%
%ADD25C,1.924000*%
%ADD26C,3.100020*%
%ADD27C,2.020000*%
%ADD28C,2.250000*%
%ADD29R,1.450000X1.450000*%
%ADD30C,1.450000*%
%ADD31C,1.000000*%
%ADD32R,0.800000X1.000000*%
%ADD33R,1.000000X0.800000*%
%ADD34R,1.050000X2.100000*%
%ADD35R,1.950000X1.000000*%
%ADD36R,1.575000X1.575000*%
%ADD37R,1.289000X0.654000*%
%ADD38R,0.654000X1.289000*%
%ADD39R,1.162000X1.162000*%
%ADD40R,2.398980X2.398980*%
%ADD41C,2.400000*%
%ADD42C,6.800000*%
%ADD43R,1.700000X1.700000*%
%ADD44C,1.700000*%
%ADD45O,2.900000X5.400000*%
%ADD46R,3.190000X1.140000*%
%ADD47C,4.900000*%
%ADD48R,1.900000X5.100000*%
%ADD49R,3.500000X4.600000*%
%ADD50R,1.550000X1.100000*%
%ADD51R,2.000000X1.400000*%
%ADD52C,2.127200*%
%ADD53C,1.822400*%
%ADD54R,2.100000X2.100000*%
%ADD55O,2.100000X2.100000*%
%ADD56C,3.100000*%
%ADD57R,1.100000X1.000000*%
%ADD58C,3.900000*%
%ADD59C,2.900000*%
%ADD60C,1.900000*%
%ADD61R,1.600000X2.600000*%
%ADD62R,6.200000X6.800000*%
G04 APERTURE END LIST*
D10*
D11*
G36*
X55147636Y-47124067D02*
X54821867Y-47124067D01*
X54585396Y-49128285D01*
X54304277Y-47802062D01*
X53955357Y-47802062D01*
X53670930Y-49131593D01*
X52870014Y-45289622D01*
X52544246Y-45289622D01*
X53477454Y-49592960D01*
X53793300Y-49592960D01*
X54128990Y-48126176D01*
X54463027Y-49592960D01*
X54778873Y-49592960D01*
X55147636Y-47124067D01*
X55147636Y-47124067D01*
G37*
X55147636Y-47124067D02*
X54821867Y-47124067D01*
X54585396Y-49128285D01*
X54304277Y-47802062D01*
X53955357Y-47802062D01*
X53670930Y-49131593D01*
X52870014Y-45289622D01*
X52544246Y-45289622D01*
X53477454Y-49592960D01*
X53793300Y-49592960D01*
X54128990Y-48126176D01*
X54463027Y-49592960D01*
X54778873Y-49592960D01*
X55147636Y-47124067D01*
D12*
X96300000Y-103950000D03*
X96300000Y-102850000D03*
D13*
X66950000Y-75500000D03*
X68050000Y-75500000D03*
D14*
X123825000Y-73660000D03*
X123825000Y-76200000D03*
X131445000Y-78740000D03*
X123825000Y-81280000D03*
X131445000Y-81280000D03*
X123825000Y-78740000D03*
D15*
X128905000Y-82720000D03*
X128905000Y-79220000D03*
D14*
X131445000Y-76200000D03*
X131445000Y-73660000D03*
D15*
X128905000Y-75720000D03*
X128905000Y-72220000D03*
D13*
X52790000Y-32385000D03*
X53890000Y-32385000D03*
X61680000Y-32385000D03*
X62780000Y-32385000D03*
X70570000Y-32385000D03*
X71670000Y-32385000D03*
D12*
X100500000Y-111050000D03*
X100500000Y-109950000D03*
X100500000Y-107450000D03*
X100500000Y-108550000D03*
D13*
X79460000Y-32385000D03*
X80560000Y-32385000D03*
X88350000Y-32385000D03*
X89450000Y-32385000D03*
X97240000Y-32385000D03*
X98340000Y-32385000D03*
X106130000Y-32385000D03*
X107230000Y-32385000D03*
D12*
X53500000Y-72050000D03*
X53500000Y-70950000D03*
X72500000Y-77050000D03*
X72500000Y-75950000D03*
D13*
X70050000Y-76500000D03*
X68950000Y-76500000D03*
X70050000Y-77500000D03*
X68950000Y-77500000D03*
X66950000Y-73500000D03*
X68050000Y-73500000D03*
D12*
X63000000Y-80450000D03*
X63000000Y-81550000D03*
D13*
X67950000Y-80500000D03*
X69050000Y-80500000D03*
X62550000Y-73000000D03*
X61450000Y-73000000D03*
X65050000Y-75500000D03*
X63950000Y-75500000D03*
X71550000Y-73000000D03*
X70450000Y-73000000D03*
D12*
X69500000Y-72950000D03*
X69500000Y-74050000D03*
X65500000Y-70900000D03*
X65500000Y-69800000D03*
D13*
X66950000Y-76500000D03*
X68050000Y-76500000D03*
X66950000Y-74500000D03*
X68050000Y-74500000D03*
X74950000Y-76500000D03*
X76050000Y-76500000D03*
D12*
X71500000Y-77050000D03*
X71500000Y-75950000D03*
X71500000Y-75050000D03*
X71500000Y-73950000D03*
X72500000Y-75050000D03*
X72500000Y-73950000D03*
D13*
X74950000Y-70500000D03*
X76050000Y-70500000D03*
X83735000Y-50165000D03*
X82635000Y-50165000D03*
D12*
X92710000Y-45000000D03*
X92710000Y-43900000D03*
D13*
X88815000Y-50165000D03*
X87715000Y-50165000D03*
X41190000Y-83185000D03*
X40090000Y-83185000D03*
X41190000Y-84455000D03*
X40090000Y-84455000D03*
D16*
X98518980Y-121920000D03*
X94521020Y-121920000D03*
X107408980Y-121920000D03*
X103411020Y-121920000D03*
X89628980Y-126365000D03*
X85631020Y-126365000D03*
X118838980Y-125730000D03*
X114841020Y-125730000D03*
D17*
X92710000Y-47531020D03*
X92710000Y-51528980D03*
D18*
X37439400Y-126365000D03*
X36169400Y-126365000D03*
X43750070Y-126365000D03*
X42480070Y-126365000D03*
X50110230Y-126365000D03*
X48840230Y-126365000D03*
D19*
X76500000Y-87730000D03*
X76500000Y-89000000D03*
X76500000Y-90270000D03*
X81500000Y-55730000D03*
X81500000Y-57000000D03*
X81500000Y-58270000D03*
D18*
X65230000Y-120500000D03*
X66500000Y-120500000D03*
X67770000Y-120500000D03*
D20*
X59200000Y-80000000D03*
X60700000Y-80000000D03*
X59200000Y-82100000D03*
X60700000Y-82100000D03*
D21*
X38100000Y-131521200D03*
D22*
X35560000Y-131521200D03*
D23*
X122555000Y-106680000D03*
D24*
X122555000Y-109220000D03*
D23*
X97100000Y-92600000D03*
D24*
X97100000Y-95140000D03*
D22*
X48260000Y-29286200D03*
D21*
X53340000Y-29286200D03*
D22*
X50800000Y-29286200D03*
D23*
X56515000Y-41910000D03*
D24*
X59055000Y-41910000D03*
D21*
X44450000Y-131521200D03*
D22*
X41910000Y-131521200D03*
X57150000Y-29286200D03*
D21*
X62230000Y-29286200D03*
D22*
X59690000Y-29286200D03*
D23*
X64135000Y-41910000D03*
D24*
X66675000Y-41910000D03*
D21*
X50800000Y-131521200D03*
D22*
X48260000Y-131521200D03*
X66040000Y-29286200D03*
D21*
X71120000Y-29286200D03*
D22*
X68580000Y-29286200D03*
D21*
X88900000Y-131521200D03*
D22*
X86360000Y-131521200D03*
X74930000Y-29286200D03*
D21*
X80010000Y-29286200D03*
D22*
X77470000Y-29286200D03*
D25*
X40640000Y-64770000D03*
X40640000Y-67310000D03*
X38641020Y-67310000D03*
X38641020Y-64770000D03*
D26*
X35941000Y-60040520D03*
X35941000Y-72039480D03*
D22*
X83820000Y-29286200D03*
D21*
X88900000Y-29286200D03*
D22*
X86360000Y-29286200D03*
X92710000Y-29286200D03*
D21*
X97790000Y-29286200D03*
D22*
X95250000Y-29286200D03*
D27*
X38100000Y-53340000D03*
X40100000Y-53340000D03*
X42100000Y-53340000D03*
D28*
X37370000Y-50620000D03*
D27*
X44100000Y-53340000D03*
D28*
X44370000Y-50620000D03*
X37370000Y-56060000D03*
X44370000Y-56060000D03*
D29*
X58500000Y-102500000D03*
D30*
X59770000Y-102500000D03*
X61040000Y-102500000D03*
X62310000Y-102500000D03*
X63580000Y-102500000D03*
X59770000Y-101230000D03*
X61040000Y-101230000D03*
X62310000Y-101230000D03*
X63580000Y-101230000D03*
X58500000Y-101230000D03*
D29*
X73500000Y-132500000D03*
D30*
X74770000Y-132500000D03*
X76040000Y-132500000D03*
X77310000Y-132500000D03*
X78580000Y-132500000D03*
X74770000Y-131230000D03*
X76040000Y-131230000D03*
X77310000Y-131230000D03*
X78580000Y-131230000D03*
X73500000Y-131230000D03*
D23*
X39370000Y-114300000D03*
D24*
X39370000Y-116840000D03*
D29*
X58500000Y-132500000D03*
D30*
X59770000Y-132500000D03*
X61040000Y-132500000D03*
X62310000Y-132500000D03*
X63580000Y-132500000D03*
X59770000Y-131230000D03*
X61040000Y-131230000D03*
X62310000Y-131230000D03*
X63580000Y-131230000D03*
X58500000Y-131230000D03*
D14*
X131445000Y-43180000D03*
X131445000Y-45720000D03*
D15*
X128905000Y-47160000D03*
X128905000Y-43660000D03*
D14*
X131445000Y-40640000D03*
X131445000Y-38100000D03*
D15*
X128905000Y-40160000D03*
X128905000Y-36660000D03*
D14*
X131445000Y-60960000D03*
X131445000Y-63500000D03*
D15*
X128905000Y-64940000D03*
X128905000Y-61440000D03*
D14*
X131445000Y-58420000D03*
X131445000Y-55880000D03*
D15*
X128905000Y-57940000D03*
X128905000Y-54440000D03*
D14*
X131445000Y-96520000D03*
X131445000Y-99060000D03*
D15*
X128905000Y-100500000D03*
X128905000Y-97000000D03*
D14*
X131445000Y-93980000D03*
X131445000Y-91440000D03*
D15*
X128905000Y-93500000D03*
X128905000Y-90000000D03*
D29*
X73500000Y-125000000D03*
D30*
X74770000Y-125000000D03*
X76040000Y-125000000D03*
X77310000Y-125000000D03*
X78580000Y-125000000D03*
X74770000Y-123730000D03*
X76040000Y-123730000D03*
X77310000Y-123730000D03*
X78580000Y-123730000D03*
X73500000Y-123730000D03*
D29*
X58500000Y-125000000D03*
D30*
X59770000Y-125000000D03*
X61040000Y-125000000D03*
X62310000Y-125000000D03*
X63580000Y-125000000D03*
X59770000Y-123730000D03*
X61040000Y-123730000D03*
X62310000Y-123730000D03*
X63580000Y-123730000D03*
X58500000Y-123730000D03*
D29*
X73500000Y-117500000D03*
D30*
X74770000Y-117500000D03*
X76040000Y-117500000D03*
X77310000Y-117500000D03*
X78580000Y-117500000D03*
X74770000Y-116230000D03*
X76040000Y-116230000D03*
X77310000Y-116230000D03*
X78580000Y-116230000D03*
X73500000Y-116230000D03*
D31*
X98425000Y-117475000D03*
X97155000Y-117475000D03*
X95885000Y-117475000D03*
X98425000Y-118745000D03*
X97155000Y-118745000D03*
X95885000Y-118745000D03*
X98425000Y-120015000D03*
X97155000Y-120015000D03*
X95885000Y-120015000D03*
X107315000Y-117475000D03*
X106045000Y-117475000D03*
X104775000Y-117475000D03*
X107315000Y-118745000D03*
X106045000Y-118745000D03*
X104775000Y-118745000D03*
X107315000Y-120015000D03*
X106045000Y-120015000D03*
X104775000Y-120015000D03*
X114935000Y-121920000D03*
X113665000Y-121920000D03*
X112395000Y-121920000D03*
X114935000Y-123190000D03*
X113665000Y-123190000D03*
X112395000Y-123190000D03*
X114935000Y-124460000D03*
X113665000Y-124460000D03*
X112395000Y-124460000D03*
D32*
X48710000Y-32385000D03*
X47810000Y-32385000D03*
X51250000Y-32385000D03*
X50350000Y-32385000D03*
X57600000Y-32385000D03*
X56700000Y-32385000D03*
X60140000Y-32385000D03*
X59240000Y-32385000D03*
D33*
X75750000Y-59750000D03*
X75750000Y-58850000D03*
X73750000Y-59700000D03*
X73750000Y-58800000D03*
D32*
X66490000Y-32385000D03*
X65590000Y-32385000D03*
X69030000Y-32385000D03*
X68130000Y-32385000D03*
X75380000Y-32385000D03*
X74480000Y-32385000D03*
X77920000Y-32385000D03*
X77020000Y-32385000D03*
D33*
X77600000Y-59700000D03*
X77600000Y-58800000D03*
D32*
X84270000Y-32385000D03*
X83370000Y-32385000D03*
X86810000Y-32385000D03*
X85910000Y-32385000D03*
D33*
X95800000Y-104950000D03*
X95800000Y-105850000D03*
D32*
X93160000Y-32385000D03*
X92260000Y-32385000D03*
X98550000Y-99400000D03*
X99450000Y-99400000D03*
X95700000Y-32385000D03*
X94800000Y-32385000D03*
X112845000Y-119380000D03*
X111945000Y-119380000D03*
X102050000Y-32385000D03*
X101150000Y-32385000D03*
X104590000Y-32385000D03*
X103690000Y-32385000D03*
X79050000Y-57000000D03*
X79950000Y-57000000D03*
X66450000Y-122500000D03*
X65550000Y-122500000D03*
X66450000Y-124000000D03*
X65550000Y-124000000D03*
D33*
X90805000Y-44000000D03*
X90805000Y-44900000D03*
X80645000Y-44900000D03*
X80645000Y-44000000D03*
D32*
X88715000Y-41275000D03*
X87815000Y-41275000D03*
X34750000Y-82100000D03*
X33850000Y-82100000D03*
X34740000Y-86995000D03*
X33840000Y-86995000D03*
D33*
X54610000Y-77020000D03*
X54610000Y-77920000D03*
D34*
X55595000Y-64850000D03*
X56865000Y-64850000D03*
X58135000Y-64850000D03*
X59405000Y-64850000D03*
X59405000Y-72150000D03*
X58135000Y-72150000D03*
X56865000Y-72150000D03*
X55595000Y-72150000D03*
D35*
X83025000Y-47625000D03*
X83025000Y-46355000D03*
X83025000Y-45085000D03*
X83025000Y-43815000D03*
X88425000Y-43815000D03*
X88425000Y-45085000D03*
X88425000Y-46355000D03*
X88425000Y-47625000D03*
D36*
X86312500Y-45132500D03*
X86312500Y-46307500D03*
X85137500Y-45132500D03*
X85137500Y-46307500D03*
D37*
X50609500Y-83802220D03*
D38*
X51452780Y-80454500D03*
D37*
X54800500Y-81297780D03*
D38*
X53957220Y-84645500D03*
D37*
X50609500Y-83301840D03*
D38*
X51953160Y-80454500D03*
D37*
X54800500Y-81798160D03*
D38*
X53456840Y-84645500D03*
D37*
X50609500Y-82801460D03*
D38*
X52453540Y-80454500D03*
D37*
X54800500Y-82298540D03*
D38*
X52956460Y-84645500D03*
D37*
X50609500Y-82301080D03*
D38*
X52953920Y-80454500D03*
D37*
X54800500Y-82798920D03*
D38*
X52456080Y-84645500D03*
D37*
X50609500Y-81800700D03*
D38*
X53454300Y-80454500D03*
D37*
X54800500Y-83299300D03*
D38*
X51955700Y-84645500D03*
D37*
X50609500Y-81300320D03*
D38*
X53954680Y-80454500D03*
D37*
X54800500Y-83799680D03*
D38*
X51455320Y-84645500D03*
D39*
X53205380Y-83050380D03*
X52204620Y-83050380D03*
X52204620Y-82049620D03*
X53205380Y-82049620D03*
D40*
X52705000Y-82550000D03*
D41*
X120015000Y-106680000D03*
X38100000Y-128905000D03*
X83550000Y-105410000D03*
X92400000Y-105410000D03*
X120015000Y-109220000D03*
X35560000Y-128905000D03*
X53340000Y-36830000D03*
X81010000Y-105410000D03*
X89860000Y-105410000D03*
X44450000Y-128905000D03*
X97790000Y-124460000D03*
X106680000Y-124460000D03*
X120015000Y-114300000D03*
X55880000Y-36830000D03*
X41910000Y-128905000D03*
X95250000Y-124460000D03*
X104140000Y-124460000D03*
X50800000Y-128905000D03*
X120015000Y-116840000D03*
X58420000Y-36830000D03*
X48260000Y-128905000D03*
X88900000Y-128905000D03*
X86360000Y-128905000D03*
X60960000Y-36830000D03*
X40640000Y-69850000D03*
X38100000Y-62230000D03*
X40640000Y-62230000D03*
X38100000Y-69850000D03*
X63500000Y-36830000D03*
X66040000Y-36830000D03*
X39370000Y-57150000D03*
X41910000Y-49530000D03*
X39370000Y-49530000D03*
X41910000Y-57150000D03*
X68580000Y-36830000D03*
X50800000Y-36830000D03*
D42*
X30400000Y-30400000D03*
X130400000Y-30400000D03*
X30400000Y-130400000D03*
X130400000Y-130400000D03*
D41*
X46355000Y-100965000D03*
X43815000Y-100965000D03*
X48895000Y-100965000D03*
X46355000Y-93980000D03*
X48895000Y-93980000D03*
X51435000Y-93980000D03*
D16*
X110583980Y-47625000D03*
X106586020Y-47625000D03*
X110583980Y-43815000D03*
X106586020Y-43815000D03*
X110583980Y-40005000D03*
X106586020Y-40005000D03*
X110583980Y-36195000D03*
X106586020Y-36195000D03*
X110583980Y-65405000D03*
X106586020Y-65405000D03*
X110583980Y-61595000D03*
X106586020Y-61595000D03*
X110583980Y-57785000D03*
X106586020Y-57785000D03*
X110583980Y-53975000D03*
X106586020Y-53975000D03*
X106138980Y-83185000D03*
X102141020Y-83185000D03*
X106138980Y-79375000D03*
X102141020Y-79375000D03*
X106138980Y-75565000D03*
X102141020Y-75565000D03*
X106138980Y-71755000D03*
X102141020Y-71755000D03*
X110583980Y-100965000D03*
X106586020Y-100965000D03*
X110583980Y-97155000D03*
X106586020Y-97155000D03*
X110583980Y-93345000D03*
X106586020Y-93345000D03*
X110583980Y-89535000D03*
X106586020Y-89535000D03*
D17*
X83500000Y-102498980D03*
X83500000Y-98501020D03*
X92500000Y-102498980D03*
X92500000Y-98501020D03*
D43*
X98000000Y-59500000D03*
D44*
X93000000Y-59500000D03*
X72700000Y-43815000D03*
D43*
X76200000Y-43815000D03*
X89700000Y-89100000D03*
D44*
X89700000Y-94100000D03*
D14*
X97790000Y-127000000D03*
X95250000Y-127000000D03*
D45*
X98270000Y-131445000D03*
X94770000Y-131445000D03*
D14*
X106680000Y-127000000D03*
X104140000Y-127000000D03*
D45*
X107160000Y-131445000D03*
X103660000Y-131445000D03*
D46*
X31623000Y-43180000D03*
X35687000Y-43180000D03*
X31623000Y-41910000D03*
X35687000Y-41910000D03*
X35687000Y-39370000D03*
X31623000Y-39370000D03*
X35687000Y-40640000D03*
X31623000Y-40640000D03*
X31623000Y-44450000D03*
X35687000Y-44450000D03*
D29*
X58500000Y-117500000D03*
D30*
X59770000Y-117500000D03*
X61040000Y-117500000D03*
X62310000Y-117500000D03*
X63580000Y-117500000D03*
X59770000Y-116230000D03*
X61040000Y-116230000D03*
X62310000Y-116230000D03*
X63580000Y-116230000D03*
X58500000Y-116230000D03*
D41*
X118110000Y-128270000D03*
X115570000Y-128270000D03*
D23*
X122555000Y-114300000D03*
D24*
X122555000Y-116840000D03*
D47*
X127040000Y-107950000D03*
X132040000Y-107950000D03*
X127040000Y-115570000D03*
X132040000Y-115570000D03*
X114340000Y-132080000D03*
X119340000Y-132080000D03*
D32*
X96050000Y-99400000D03*
X96950000Y-99400000D03*
D31*
X89535000Y-117475000D03*
X88265000Y-117475000D03*
X86995000Y-117475000D03*
X89535000Y-118745000D03*
X88265000Y-118745000D03*
X86995000Y-118745000D03*
X89535000Y-120015000D03*
X88265000Y-120015000D03*
X86995000Y-120015000D03*
D48*
X117475000Y-107950000D03*
D49*
X115175000Y-107950000D03*
D50*
X112000000Y-109850000D03*
X112000000Y-108580000D03*
X112000000Y-107310000D03*
X112000000Y-106040000D03*
D31*
X114300000Y-109220000D03*
X114300000Y-107950000D03*
X114300000Y-106680000D03*
X115570000Y-109220000D03*
X115570000Y-107950000D03*
X115570000Y-106680000D03*
X116840000Y-109220000D03*
X116840000Y-107950000D03*
X116840000Y-106680000D03*
D48*
X117475000Y-115570000D03*
D49*
X115175000Y-115570000D03*
D50*
X112000000Y-117470000D03*
X112000000Y-116200000D03*
X112000000Y-114930000D03*
X112000000Y-113660000D03*
D31*
X114300000Y-116840000D03*
X114300000Y-115570000D03*
X114300000Y-114300000D03*
X115570000Y-116840000D03*
X115570000Y-115570000D03*
X115570000Y-114300000D03*
X116840000Y-116840000D03*
X116840000Y-115570000D03*
X116840000Y-114300000D03*
D17*
X97790000Y-51528980D03*
X97790000Y-47531020D03*
D23*
X97790000Y-43815000D03*
D24*
X97790000Y-41275000D03*
D23*
X132715000Y-121285000D03*
D24*
X132715000Y-123825000D03*
D44*
X125095000Y-125420000D03*
D43*
X125095000Y-121920000D03*
D51*
X98500000Y-111000000D03*
X98500000Y-108000000D03*
D21*
X50800000Y-120091200D03*
D22*
X48260000Y-120091200D03*
D41*
X50800000Y-117475000D03*
X48260000Y-117475000D03*
D19*
X69500000Y-56230000D03*
X69500000Y-57500000D03*
X69500000Y-58770000D03*
X79500000Y-87730000D03*
X79500000Y-89000000D03*
X79500000Y-90270000D03*
D52*
X31115000Y-104140000D03*
X31115000Y-96520000D03*
D53*
X28575000Y-97790000D03*
X28575000Y-102870000D03*
D54*
X41270000Y-98670000D03*
D55*
X41300000Y-96160000D03*
X43840000Y-98700000D03*
X43840000Y-96160000D03*
X46380000Y-98700000D03*
X46380000Y-96160000D03*
X48920000Y-98700000D03*
X48920000Y-96160000D03*
X51460000Y-98700000D03*
X51460000Y-96160000D03*
D56*
X36400000Y-97400000D03*
D22*
X78460000Y-108076200D03*
D21*
X83540000Y-108076200D03*
D22*
X81000000Y-108076200D03*
X87460000Y-108076200D03*
D21*
X92540000Y-108076200D03*
D22*
X90000000Y-108076200D03*
D57*
X109000000Y-32700000D03*
X109000000Y-31300000D03*
D54*
X39370000Y-111760000D03*
D22*
X101600000Y-29286200D03*
X104140000Y-29286200D03*
D21*
X109220000Y-29286200D03*
D22*
X106680000Y-29286200D03*
D16*
X92501020Y-56000000D03*
X96498980Y-56000000D03*
D29*
X84500000Y-69000000D03*
D30*
X85770000Y-69000000D03*
X87040000Y-69000000D03*
X88310000Y-69000000D03*
X89580000Y-69000000D03*
X85770000Y-67730000D03*
X87040000Y-67730000D03*
X88310000Y-67730000D03*
X89580000Y-67730000D03*
X84500000Y-67730000D03*
D29*
X84500000Y-76500000D03*
D30*
X85770000Y-76500000D03*
X87040000Y-76500000D03*
X88310000Y-76500000D03*
X89580000Y-76500000D03*
X85770000Y-75230000D03*
X87040000Y-75230000D03*
X88310000Y-75230000D03*
X89580000Y-75230000D03*
X84500000Y-75230000D03*
D29*
X84500000Y-84000000D03*
D30*
X85770000Y-84000000D03*
X87040000Y-84000000D03*
X88310000Y-84000000D03*
X89580000Y-84000000D03*
X85770000Y-82730000D03*
X87040000Y-82730000D03*
X88310000Y-82730000D03*
X89580000Y-82730000D03*
X84500000Y-82730000D03*
D58*
X36830000Y-89535000D03*
X36830000Y-78105000D03*
D59*
X39880000Y-91565000D03*
X39880000Y-76075000D03*
D60*
X33450000Y-90155000D03*
X31930000Y-77505000D03*
X31930000Y-87615000D03*
X33450000Y-80045000D03*
X45720000Y-83185000D03*
X45720000Y-80645000D03*
X45720000Y-85725000D03*
X45720000Y-88265000D03*
X43180000Y-84455000D03*
X43180000Y-86995000D03*
X43180000Y-81915000D03*
X43180000Y-79375000D03*
D61*
X103920000Y-104700000D03*
X106200000Y-104700000D03*
X108480000Y-104700000D03*
D62*
X106200000Y-111000000D03*
M02*
