G04 #@! TF.GenerationSoftware,KiCad,Pcbnew,8.0.3-8.0.3-0~ubuntu20.04.1*
G04 #@! TF.CreationDate,2024-06-26T21:46:23-07:00*
G04 #@! TF.ProjectId,smoothiev2-prime,736d6f6f-7468-4696-9576-322d7072696d,rev?*
G04 #@! TF.SameCoordinates,Original*
G04 #@! TF.FileFunction,Paste,Top*
G04 #@! TF.FilePolarity,Positive*
%FSLAX46Y46*%
G04 Gerber Fmt 4.6, Leading zero omitted, Abs format (unit mm)*
G04 Created by KiCad (PCBNEW 8.0.3-8.0.3-0~ubuntu20.04.1) date 2024-06-26 21:46:23*
%MOMM*%
%LPD*%
G01*
G04 APERTURE LIST*
G04 Aperture macros list*
%AMRoundRect*
0 Rectangle with rounded corners*
0 $1 Rounding radius*
0 $2 $3 $4 $5 $6 $7 $8 $9 X,Y pos of 4 corners*
0 Add a 4 corners polygon primitive as box body*
4,1,4,$2,$3,$4,$5,$6,$7,$8,$9,$2,$3,0*
0 Add four circle primitives for the rounded corners*
1,1,$1+$1,$2,$3*
1,1,$1+$1,$4,$5*
1,1,$1+$1,$6,$7*
1,1,$1+$1,$8,$9*
0 Add four rect primitives between the rounded corners*
20,1,$1+$1,$2,$3,$4,$5,0*
20,1,$1+$1,$4,$5,$6,$7,0*
20,1,$1+$1,$6,$7,$8,$9,0*
20,1,$1+$1,$8,$9,$2,$3,0*%
G04 Aperture macros list end*
%ADD10C,0.100000*%
%ADD11C,0.250250*%
%ADD12RoundRect,0.140000X0.170000X-0.140000X0.170000X0.140000X-0.170000X0.140000X-0.170000X-0.140000X0*%
%ADD13RoundRect,0.225000X-0.225000X-0.250000X0.225000X-0.250000X0.225000X0.250000X-0.225000X0.250000X0*%
%ADD14RoundRect,0.140000X-0.140000X-0.170000X0.140000X-0.170000X0.140000X0.170000X-0.140000X0.170000X0*%
%ADD15RoundRect,0.135000X0.135000X0.185000X-0.135000X0.185000X-0.135000X-0.185000X0.135000X-0.185000X0*%
%ADD16RoundRect,0.135000X0.185000X-0.135000X0.185000X0.135000X-0.185000X0.135000X-0.185000X-0.135000X0*%
%ADD17RoundRect,0.135000X-0.185000X0.135000X-0.185000X-0.135000X0.185000X-0.135000X0.185000X0.135000X0*%
%ADD18R,0.900000X0.400000*%
%ADD19RoundRect,0.249999X0.275001X-0.275001X0.275001X0.275001X-0.275001X0.275001X-0.275001X-0.275001X0*%
%ADD20RoundRect,0.062500X0.062500X-0.350000X0.062500X0.350000X-0.062500X0.350000X-0.062500X-0.350000X0*%
%ADD21RoundRect,0.062500X0.350000X-0.062500X0.350000X0.062500X-0.350000X0.062500X-0.350000X-0.062500X0*%
%ADD22RoundRect,0.140000X-0.170000X0.140000X-0.170000X-0.140000X0.170000X-0.140000X0.170000X0.140000X0*%
%ADD23RoundRect,0.135000X-0.135000X-0.185000X0.135000X-0.185000X0.135000X0.185000X-0.135000X0.185000X0*%
%ADD24RoundRect,0.225000X0.225000X0.250000X-0.225000X0.250000X-0.225000X-0.250000X0.225000X-0.250000X0*%
%ADD25RoundRect,0.249999X0.650001X-0.325001X0.650001X0.325001X-0.650001X0.325001X-0.650001X-0.325001X0*%
%ADD26RoundRect,0.249999X-0.650001X0.325001X-0.650001X-0.325001X0.650001X-0.325001X0.650001X0.325001X0*%
%ADD27RoundRect,0.150000X-0.825000X-0.150000X0.825000X-0.150000X0.825000X0.150000X-0.825000X0.150000X0*%
%ADD28RoundRect,0.249999X0.362501X1.425001X-0.362501X1.425001X-0.362501X-1.425001X0.362501X-1.425001X0*%
%ADD29RoundRect,0.062500X-0.062500X-0.614149X0.062500X-0.614149X0.062500X0.614149X-0.062500X0.614149X0*%
%ADD30RoundRect,0.062500X-0.614149X0.062500X-0.614149X-0.062500X0.614149X-0.062500X0.614149X0.062500X0*%
%ADD31RoundRect,0.150000X-0.650000X-0.150000X0.650000X-0.150000X0.650000X0.150000X-0.650000X0.150000X0*%
%ADD32RoundRect,0.225000X0.250000X-0.225000X0.250000X0.225000X-0.250000X0.225000X-0.250000X-0.225000X0*%
%ADD33RoundRect,0.249999X0.325001X0.650001X-0.325001X0.650001X-0.325001X-0.650001X0.325001X-0.650001X0*%
%ADD34RoundRect,0.249996X1.825004X0.700004X-1.825004X0.700004X-1.825004X-0.700004X1.825004X-0.700004X0*%
%ADD35RoundRect,0.218750X0.256250X-0.218750X0.256250X0.218750X-0.256250X0.218750X-0.256250X-0.218750X0*%
%ADD36R,0.400000X0.650000*%
%ADD37RoundRect,0.249996X-0.700004X1.825004X-0.700004X-1.825004X0.700004X-1.825004X0.700004X1.825004X0*%
%ADD38R,0.500000X0.630000*%
%ADD39R,0.738000X0.570000*%
%ADD40RoundRect,0.100000X-0.100000X0.637500X-0.100000X-0.637500X0.100000X-0.637500X0.100000X0.637500X0*%
%ADD41RoundRect,0.218750X0.218750X0.256250X-0.218750X0.256250X-0.218750X-0.256250X0.218750X-0.256250X0*%
%ADD42R,0.650000X0.400000*%
%ADD43RoundRect,0.200000X-0.200000X-0.275000X0.200000X-0.275000X0.200000X0.275000X-0.200000X0.275000X0*%
%ADD44RoundRect,0.100000X0.100000X-0.637500X0.100000X0.637500X-0.100000X0.637500X-0.100000X-0.637500X0*%
%ADD45R,1.060000X0.650000*%
%ADD46C,2.500000*%
%ADD47RoundRect,0.225000X-0.250000X0.225000X-0.250000X-0.225000X0.250000X-0.225000X0.250000X0.225000X0*%
%ADD48R,0.740000X2.400000*%
%ADD49RoundRect,0.147500X0.172500X-0.147500X0.172500X0.147500X-0.172500X0.147500X-0.172500X-0.147500X0*%
%ADD50R,1.200000X1.400000*%
%ADD51RoundRect,0.140000X0.140000X0.170000X-0.140000X0.170000X-0.140000X-0.170000X0.140000X-0.170000X0*%
%ADD52R,1.800000X1.000000*%
%ADD53RoundRect,0.250000X0.850000X-0.375000X0.850000X0.375000X-0.850000X0.375000X-0.850000X-0.375000X0*%
%ADD54R,0.900000X0.800000*%
%ADD55RoundRect,0.250000X-0.250000X-0.475000X0.250000X-0.475000X0.250000X0.475000X-0.250000X0.475000X0*%
%ADD56RoundRect,0.250000X-0.475000X0.250000X-0.475000X-0.250000X0.475000X-0.250000X0.475000X0.250000X0*%
%ADD57R,0.650000X1.060000*%
%ADD58RoundRect,0.250000X0.250000X0.475000X-0.250000X0.475000X-0.250000X-0.475000X0.250000X-0.475000X0*%
%ADD59RoundRect,0.147500X-0.147500X-0.172500X0.147500X-0.172500X0.147500X0.172500X-0.147500X0.172500X0*%
%ADD60RoundRect,0.147500X0.147500X0.172500X-0.147500X0.172500X-0.147500X-0.172500X0.147500X-0.172500X0*%
%ADD61RoundRect,0.147500X-0.172500X0.147500X-0.172500X-0.147500X0.172500X-0.147500X0.172500X0.147500X0*%
%ADD62R,0.800000X0.900000*%
%ADD63R,0.900000X1.000000*%
%ADD64RoundRect,0.175000X-0.475000X-0.175000X0.475000X-0.175000X0.475000X0.175000X-0.475000X0.175000X0*%
%ADD65RoundRect,0.300000X-0.400000X-0.300000X0.400000X-0.300000X0.400000X0.300000X-0.400000X0.300000X0*%
%ADD66RoundRect,0.300000X-0.700000X-0.300000X0.700000X-0.300000X0.700000X0.300000X-0.700000X0.300000X0*%
%ADD67R,0.600000X0.450000*%
%ADD68R,2.500000X1.800000*%
%ADD69R,3.400000X2.000000*%
%ADD70R,1.550000X0.600000*%
%ADD71R,2.600000X3.100000*%
%ADD72RoundRect,0.250000X-0.375000X-0.850000X0.375000X-0.850000X0.375000X0.850000X-0.375000X0.850000X0*%
%ADD73RoundRect,0.250000X0.475000X-0.250000X0.475000X0.250000X-0.475000X0.250000X-0.475000X-0.250000X0*%
%ADD74R,0.400000X0.900000*%
%ADD75R,0.510000X0.700000*%
%ADD76R,0.700000X0.510000*%
%ADD77R,0.630000X0.500000*%
%ADD78R,0.570000X0.738000*%
%ADD79RoundRect,0.160000X0.197500X0.160000X-0.197500X0.160000X-0.197500X-0.160000X0.197500X-0.160000X0*%
G04 APERTURE END LIST*
D10*
X170400000Y-48898500D02*
X169400000Y-48900000D01*
X169400000Y-47900000D01*
X170400000Y-47898500D01*
X170400000Y-48898500D01*
G36*
X170400000Y-48898500D02*
G01*
X169400000Y-48900000D01*
X169400000Y-47900000D01*
X170400000Y-47898500D01*
X170400000Y-48898500D01*
G37*
X170400000Y-50298500D02*
X169400000Y-50300000D01*
X169400000Y-49300000D01*
X170400000Y-49298500D01*
X170400000Y-50298500D01*
G36*
X170400000Y-50298500D02*
G01*
X169400000Y-50300000D01*
X169400000Y-49300000D01*
X170400000Y-49298500D01*
X170400000Y-50298500D01*
G37*
X171800000Y-48899250D02*
X170800000Y-48900750D01*
X170800000Y-47900750D01*
X171800000Y-47899250D01*
X171800000Y-48899250D01*
G36*
X171800000Y-48899250D02*
G01*
X170800000Y-48900750D01*
X170800000Y-47900750D01*
X171800000Y-47899250D01*
X171800000Y-48899250D01*
G37*
X171800000Y-50298500D02*
X170800000Y-50300000D01*
X170800000Y-49300000D01*
X171800000Y-49298500D01*
X171800000Y-50298500D01*
G36*
X171800000Y-50298500D02*
G01*
X170800000Y-50300000D01*
X170800000Y-49300000D01*
X171800000Y-49298500D01*
X171800000Y-50298500D01*
G37*
X170400000Y-71398500D02*
X169400000Y-71400000D01*
X169400000Y-70400000D01*
X170400000Y-70398500D01*
X170400000Y-71398500D01*
G36*
X170400000Y-71398500D02*
G01*
X169400000Y-71400000D01*
X169400000Y-70400000D01*
X170400000Y-70398500D01*
X170400000Y-71398500D01*
G37*
X170400000Y-72798500D02*
X169400000Y-72800000D01*
X169400000Y-71800000D01*
X170400000Y-71798500D01*
X170400000Y-72798500D01*
G36*
X170400000Y-72798500D02*
G01*
X169400000Y-72800000D01*
X169400000Y-71800000D01*
X170400000Y-71798500D01*
X170400000Y-72798500D01*
G37*
X171800000Y-71399250D02*
X170800000Y-71400750D01*
X170800000Y-70400750D01*
X171800000Y-70399250D01*
X171800000Y-71399250D01*
G36*
X171800000Y-71399250D02*
G01*
X170800000Y-71400750D01*
X170800000Y-70400750D01*
X171800000Y-70399250D01*
X171800000Y-71399250D01*
G37*
X171800000Y-72798500D02*
X170800000Y-72800000D01*
X170800000Y-71800000D01*
X171800000Y-71798500D01*
X171800000Y-72798500D01*
G36*
X171800000Y-72798500D02*
G01*
X170800000Y-72800000D01*
X170800000Y-71800000D01*
X171800000Y-71798500D01*
X171800000Y-72798500D01*
G37*
X169250000Y-108048500D02*
X168250000Y-108050000D01*
X168250000Y-107050000D01*
X169250000Y-107048500D01*
X169250000Y-108048500D01*
G36*
X169250000Y-108048500D02*
G01*
X168250000Y-108050000D01*
X168250000Y-107050000D01*
X169250000Y-107048500D01*
X169250000Y-108048500D01*
G37*
X169250000Y-109448500D02*
X168250000Y-109450000D01*
X168250000Y-108450000D01*
X169250000Y-108448500D01*
X169250000Y-109448500D01*
G36*
X169250000Y-109448500D02*
G01*
X168250000Y-109450000D01*
X168250000Y-108450000D01*
X169250000Y-108448500D01*
X169250000Y-109448500D01*
G37*
X170650000Y-108049250D02*
X169650000Y-108050750D01*
X169650000Y-107050750D01*
X170650000Y-107049250D01*
X170650000Y-108049250D01*
G36*
X170650000Y-108049250D02*
G01*
X169650000Y-108050750D01*
X169650000Y-107050750D01*
X170650000Y-107049250D01*
X170650000Y-108049250D01*
G37*
X170650000Y-109448500D02*
X169650000Y-109450000D01*
X169650000Y-108450000D01*
X170650000Y-108448500D01*
X170650000Y-109448500D01*
G36*
X170650000Y-109448500D02*
G01*
X169650000Y-109450000D01*
X169650000Y-108450000D01*
X170650000Y-108448500D01*
X170650000Y-109448500D01*
G37*
X169000000Y-130898500D02*
X168000000Y-130900000D01*
X168000000Y-129900000D01*
X169000000Y-129898500D01*
X169000000Y-130898500D01*
G36*
X169000000Y-130898500D02*
G01*
X168000000Y-130900000D01*
X168000000Y-129900000D01*
X169000000Y-129898500D01*
X169000000Y-130898500D01*
G37*
X169000000Y-132298500D02*
X168000000Y-132300000D01*
X168000000Y-131300000D01*
X169000000Y-131298500D01*
X169000000Y-132298500D01*
G36*
X169000000Y-132298500D02*
G01*
X168000000Y-132300000D01*
X168000000Y-131300000D01*
X169000000Y-131298500D01*
X169000000Y-132298500D01*
G37*
X170400000Y-130899250D02*
X169400000Y-130900750D01*
X169400000Y-129900750D01*
X170400000Y-129899250D01*
X170400000Y-130899250D01*
G36*
X170400000Y-130899250D02*
G01*
X169400000Y-130900750D01*
X169400000Y-129900750D01*
X170400000Y-129899250D01*
X170400000Y-130899250D01*
G37*
X170400000Y-132298500D02*
X169400000Y-132300000D01*
X169400000Y-131300000D01*
X170400000Y-131298500D01*
X170400000Y-132298500D01*
G36*
X170400000Y-132298500D02*
G01*
X169400000Y-132300000D01*
X169400000Y-131300000D01*
X170400000Y-131298500D01*
X170400000Y-132298500D01*
G37*
D11*
X130100000Y-78600000D03*
X130100000Y-77800000D03*
X130100000Y-77000000D03*
X130100000Y-76200000D03*
X130100000Y-75400000D03*
X130100000Y-74600000D03*
X130100000Y-73800000D03*
X130100000Y-73000000D03*
X130100000Y-72200000D03*
X130100000Y-71400000D03*
X130100000Y-70600000D03*
X130100000Y-69800000D03*
X130100000Y-69000000D03*
X130100000Y-68200000D03*
X130100000Y-67400000D03*
X130100000Y-66600000D03*
X130100000Y-65800000D03*
X130900000Y-78600000D03*
X130900000Y-77800000D03*
X130900000Y-77000000D03*
X130900000Y-76200000D03*
X130900000Y-75400000D03*
X130900000Y-74600000D03*
X130900000Y-73800000D03*
X130900000Y-73000000D03*
X130900000Y-72200000D03*
X130900000Y-71400000D03*
X130900000Y-70600000D03*
X130900000Y-69800000D03*
X130900000Y-69000000D03*
X130900000Y-68200000D03*
X130900000Y-67400000D03*
X130900000Y-66600000D03*
X130900000Y-65800000D03*
X131700000Y-78600000D03*
X131700000Y-77800000D03*
X131700000Y-77000000D03*
X131700000Y-76200000D03*
X131700000Y-75400000D03*
X131700000Y-74600000D03*
X131700000Y-73800000D03*
X131700000Y-73000000D03*
X131700000Y-72200000D03*
X131700000Y-71400000D03*
X131700000Y-70600000D03*
X131700000Y-69800000D03*
X131700000Y-69000000D03*
X131700000Y-68200000D03*
X131700000Y-67400000D03*
X131700000Y-66600000D03*
X131700000Y-65800000D03*
X132500000Y-78600000D03*
X132500000Y-77800000D03*
X132500000Y-77000000D03*
X132500000Y-76200000D03*
X132500000Y-75400000D03*
X132500000Y-74600000D03*
X132500000Y-73800000D03*
X132500000Y-73000000D03*
X132500000Y-72200000D03*
X132500000Y-71400000D03*
X132500000Y-70600000D03*
X132500000Y-69800000D03*
X132500000Y-69000000D03*
X132500000Y-68200000D03*
X132500000Y-67400000D03*
X132500000Y-66600000D03*
X132500000Y-65800000D03*
X133300000Y-78600000D03*
X133300000Y-77800000D03*
X133300000Y-77000000D03*
X133300000Y-76200000D03*
X133300000Y-75400000D03*
X133300000Y-74600000D03*
X133300000Y-73800000D03*
X133300000Y-73000000D03*
X133300000Y-72200000D03*
X133300000Y-71400000D03*
X133300000Y-70600000D03*
X133300000Y-69800000D03*
X133300000Y-69000000D03*
X133300000Y-68200000D03*
X133300000Y-67400000D03*
X133300000Y-66600000D03*
X133300000Y-65800000D03*
X134100000Y-78600000D03*
X134100000Y-77800000D03*
X134100000Y-77000000D03*
X134100000Y-76200000D03*
X134100000Y-75400000D03*
X134100000Y-69000000D03*
X134100000Y-68200000D03*
X134100000Y-67400000D03*
X134100000Y-66600000D03*
X134100000Y-65800000D03*
X134900000Y-78600000D03*
X134900000Y-77800000D03*
X134900000Y-77000000D03*
X134900000Y-76200000D03*
X134900000Y-75400000D03*
X134900000Y-73800000D03*
X134900000Y-73000000D03*
X134900000Y-72200000D03*
X134900000Y-71400000D03*
X134900000Y-70600000D03*
X134900000Y-69000000D03*
X134900000Y-68200000D03*
X134900000Y-67400000D03*
X134900000Y-66600000D03*
X134900000Y-65800000D03*
X135700000Y-78600000D03*
X135700000Y-77800000D03*
X135700000Y-77000000D03*
X135700000Y-76200000D03*
X135700000Y-75400000D03*
X135700000Y-73800000D03*
X135700000Y-73000000D03*
X135700000Y-72200000D03*
X135700000Y-71400000D03*
X135700000Y-70600000D03*
X135700000Y-69000000D03*
X135700000Y-68200000D03*
X135700000Y-67400000D03*
X135700000Y-66600000D03*
X135700000Y-65800000D03*
X136500000Y-78600000D03*
X136500000Y-77800000D03*
X136500000Y-77000000D03*
X136500000Y-76200000D03*
X136500000Y-75400000D03*
X136500000Y-73800000D03*
X136500000Y-73000000D03*
X136500000Y-72200000D03*
X136500000Y-71400000D03*
X136500000Y-70600000D03*
X136500000Y-69000000D03*
X136500000Y-68200000D03*
X136500000Y-67400000D03*
X136500000Y-66600000D03*
X136500000Y-65800000D03*
X137300000Y-78600000D03*
X137300000Y-77800000D03*
X137300000Y-77000000D03*
X137300000Y-76200000D03*
X137300000Y-75400000D03*
X137300000Y-73800000D03*
X137300000Y-73000000D03*
X137300000Y-72200000D03*
X137300000Y-71400000D03*
X137300000Y-70600000D03*
X137300000Y-69000000D03*
X137300000Y-68200000D03*
X137300000Y-67400000D03*
X137300000Y-66600000D03*
X137300000Y-65800000D03*
X138100000Y-78600000D03*
X138100000Y-77800000D03*
X138100000Y-77000000D03*
X138100000Y-76200000D03*
X138100000Y-75400000D03*
X138100000Y-73800000D03*
X138100000Y-73000000D03*
X138100000Y-72200000D03*
X138100000Y-71400000D03*
X138100000Y-70600000D03*
X138100000Y-69000000D03*
X138100000Y-68200000D03*
X138100000Y-67400000D03*
X138100000Y-66600000D03*
X138100000Y-65800000D03*
X138900000Y-78600000D03*
X138900000Y-77800000D03*
X138900000Y-77000000D03*
X138900000Y-76200000D03*
X138900000Y-75400000D03*
X138900000Y-69000000D03*
X138900000Y-68200000D03*
X138900000Y-67400000D03*
X138900000Y-66600000D03*
X138900000Y-65800000D03*
X139700000Y-78600000D03*
X139700000Y-77800000D03*
X139700000Y-77000000D03*
X139700000Y-76200000D03*
X139700000Y-75400000D03*
X139700000Y-74600000D03*
X139700000Y-73800000D03*
X139700000Y-73000000D03*
X139700000Y-72200000D03*
X139700000Y-71400000D03*
X139700000Y-70600000D03*
X139700000Y-69800000D03*
X139700000Y-69000000D03*
X139700000Y-68200000D03*
X139700000Y-67400000D03*
X139700000Y-66600000D03*
X139700000Y-65800000D03*
X140500000Y-78600000D03*
X140500000Y-77800000D03*
X140500000Y-77000000D03*
X140500000Y-76200000D03*
X140500000Y-75400000D03*
X140500000Y-74600000D03*
X140500000Y-73800000D03*
X140500000Y-73000000D03*
X140500000Y-72200000D03*
X140500000Y-71400000D03*
X140500000Y-70600000D03*
X140500000Y-69800000D03*
X140500000Y-69000000D03*
X140500000Y-68200000D03*
X140500000Y-67400000D03*
X140500000Y-66600000D03*
X140500000Y-65800000D03*
X141300000Y-78600000D03*
X141300000Y-77800000D03*
X141300000Y-77000000D03*
X141300000Y-76200000D03*
X141300000Y-75400000D03*
X141300000Y-74600000D03*
X141300000Y-73800000D03*
X141300000Y-73000000D03*
X141300000Y-72200000D03*
X141300000Y-71400000D03*
X141300000Y-70600000D03*
X141300000Y-69800000D03*
X141300000Y-69000000D03*
X141300000Y-68200000D03*
X141300000Y-67400000D03*
X141300000Y-66600000D03*
X141300000Y-65800000D03*
X142100000Y-78600000D03*
X142100000Y-77800000D03*
X142100000Y-77000000D03*
X142100000Y-76200000D03*
X142100000Y-75400000D03*
X142100000Y-74600000D03*
X142100000Y-73800000D03*
X142100000Y-73000000D03*
X142100000Y-72200000D03*
X142100000Y-71400000D03*
X142100000Y-70600000D03*
X142100000Y-69800000D03*
X142100000Y-69000000D03*
X142100000Y-68200000D03*
X142100000Y-67400000D03*
X142100000Y-66600000D03*
X142100000Y-65800000D03*
X142900000Y-78600000D03*
X142900000Y-77800000D03*
X142900000Y-77000000D03*
X142900000Y-76200000D03*
X142900000Y-75400000D03*
X142900000Y-74600000D03*
X142900000Y-73800000D03*
X142900000Y-73000000D03*
X142900000Y-72200000D03*
X142900000Y-71400000D03*
X142900000Y-70600000D03*
X142900000Y-69800000D03*
X142900000Y-69000000D03*
X142900000Y-68200000D03*
X142900000Y-67400000D03*
X142900000Y-66600000D03*
X142900000Y-65800000D03*
D12*
X122550000Y-95160000D03*
X122550000Y-94200000D03*
D13*
X126800000Y-93100000D03*
X128350000Y-93100000D03*
D14*
X127590000Y-101500000D03*
X128550000Y-101500000D03*
X126490000Y-94500000D03*
X127450000Y-94500000D03*
D15*
X126870000Y-100500000D03*
X125850000Y-100500000D03*
D16*
X125350000Y-104620000D03*
X125350000Y-103600000D03*
D17*
X107000000Y-107380000D03*
X107000000Y-108400000D03*
X122550000Y-103215000D03*
X122550000Y-104235000D03*
X123650000Y-103215000D03*
X123650000Y-104235000D03*
D18*
X124700000Y-99100000D03*
X124700000Y-98300000D03*
X124700000Y-97500000D03*
X124700000Y-96700000D03*
X123000000Y-96700000D03*
X123000000Y-97500000D03*
X123000000Y-98300000D03*
X123000000Y-99100000D03*
D19*
X129600000Y-98550000D03*
X130900000Y-98550000D03*
X129600000Y-97250000D03*
X130900000Y-97250000D03*
D20*
X129000000Y-99837500D03*
X129500000Y-99837500D03*
X130000000Y-99837500D03*
X130500000Y-99837500D03*
X131000000Y-99837500D03*
X131500000Y-99837500D03*
D21*
X132187500Y-99150000D03*
X132187500Y-98650000D03*
X132187500Y-98150000D03*
X132187500Y-97650000D03*
X132187500Y-97150000D03*
X132187500Y-96650000D03*
D20*
X131500000Y-95962500D03*
X131000000Y-95962500D03*
X130500000Y-95962500D03*
X130000000Y-95962500D03*
X129500000Y-95962500D03*
X129000000Y-95962500D03*
D21*
X128312500Y-96650000D03*
X128312500Y-97150000D03*
X128312500Y-97650000D03*
X128312500Y-98150000D03*
X128312500Y-98650000D03*
X128312500Y-99150000D03*
D22*
X122550000Y-100800000D03*
X122550000Y-101760000D03*
D16*
X131050000Y-93820000D03*
X131050000Y-92800000D03*
D23*
X134230000Y-95400000D03*
X135250000Y-95400000D03*
D14*
X134190000Y-101100000D03*
X135150000Y-101100000D03*
D23*
X134180000Y-98900000D03*
X135200000Y-98900000D03*
D14*
X134190000Y-97900000D03*
X135150000Y-97900000D03*
D23*
X134180000Y-99900000D03*
X135200000Y-99900000D03*
D16*
X132050000Y-94375000D03*
X132050000Y-93355000D03*
D14*
X134190000Y-102100000D03*
X135150000Y-102100000D03*
D23*
X134230000Y-94400000D03*
X135250000Y-94400000D03*
D16*
X128450000Y-89620000D03*
X128450000Y-88600000D03*
X127450000Y-89620000D03*
X127450000Y-88600000D03*
X129500000Y-89650000D03*
X129500000Y-88630000D03*
D14*
X175990000Y-48750000D03*
X176950000Y-48750000D03*
D24*
X166200000Y-45900000D03*
X164650000Y-45900000D03*
D12*
X175150000Y-52860000D03*
X175150000Y-51900000D03*
D22*
X174150000Y-51890000D03*
X174150000Y-52850000D03*
D25*
X185620000Y-48215000D03*
X185620000Y-45265000D03*
D26*
X185530000Y-51355000D03*
X185530000Y-54305000D03*
D27*
X188575000Y-39395000D03*
X188575000Y-40665000D03*
X188575000Y-41935000D03*
X188575000Y-43205000D03*
X193525000Y-43205000D03*
X193525000Y-41935000D03*
X193525000Y-40665000D03*
X193525000Y-39395000D03*
X188575000Y-50245000D03*
X188575000Y-51515000D03*
X188575000Y-52785000D03*
X188575000Y-54055000D03*
X193525000Y-54055000D03*
X193525000Y-52785000D03*
X193525000Y-51515000D03*
X193525000Y-50245000D03*
X188575000Y-44845000D03*
X188575000Y-46115000D03*
X188575000Y-47385000D03*
X188575000Y-48655000D03*
X193525000Y-48655000D03*
X193525000Y-47385000D03*
X193525000Y-46115000D03*
X193525000Y-44845000D03*
X188575000Y-55645000D03*
X188575000Y-56915000D03*
X188575000Y-58185000D03*
X188575000Y-59455000D03*
X193525000Y-59455000D03*
X193525000Y-58185000D03*
X193525000Y-56915000D03*
X193525000Y-55645000D03*
D15*
X182160000Y-47050000D03*
X181140000Y-47050000D03*
X179420000Y-48800000D03*
X178400000Y-48800000D03*
D28*
X182825000Y-51300000D03*
X176900000Y-51300000D03*
X182712500Y-44600000D03*
X176787500Y-44600000D03*
D29*
X172349999Y-45921452D03*
X171850000Y-45921452D03*
X171350001Y-45921452D03*
X170850000Y-45921452D03*
X170350000Y-45921452D03*
X169849999Y-45921452D03*
X169350000Y-45921452D03*
X168850001Y-45921452D03*
D30*
X167421452Y-47350001D03*
X167421452Y-47850000D03*
X167421452Y-48349999D03*
X167421452Y-48850000D03*
X167421452Y-49350000D03*
X167421452Y-49850001D03*
X167421452Y-50350000D03*
X167421452Y-50849999D03*
D29*
X168850001Y-52278548D03*
X169350000Y-52278548D03*
X169849999Y-52278548D03*
X170350000Y-52278548D03*
X170850000Y-52278548D03*
X171350001Y-52278548D03*
X171850000Y-52278548D03*
X172349999Y-52278548D03*
D30*
X173778548Y-50849999D03*
X173778548Y-50350000D03*
X173778548Y-49850001D03*
X173778548Y-49350000D03*
X173778548Y-48850000D03*
X173778548Y-48349999D03*
X173778548Y-47850000D03*
X173778548Y-47350001D03*
D31*
X134880000Y-89105000D03*
X134880000Y-90375000D03*
X134880000Y-91645000D03*
X134880000Y-92915000D03*
X142080000Y-92915000D03*
X142080000Y-91645000D03*
X142080000Y-90375000D03*
X142080000Y-89105000D03*
D14*
X175990000Y-71250000D03*
X176950000Y-71250000D03*
D32*
X165150000Y-68605000D03*
X165150000Y-67055000D03*
D12*
X175150000Y-75360000D03*
X175150000Y-74400000D03*
D22*
X174150000Y-74390000D03*
X174150000Y-75350000D03*
D25*
X185620000Y-70715000D03*
X185620000Y-67765000D03*
D26*
X185530000Y-73855000D03*
X185530000Y-76805000D03*
D25*
X184920000Y-81485000D03*
X184920000Y-78535000D03*
D33*
X186025000Y-63940000D03*
X183075000Y-63940000D03*
D34*
X179625000Y-80350000D03*
X172675000Y-80350000D03*
D14*
X174840000Y-107900000D03*
X175800000Y-107900000D03*
D24*
X165050000Y-105050000D03*
X163500000Y-105050000D03*
D12*
X174000000Y-112010000D03*
X174000000Y-111050000D03*
D22*
X173000000Y-111040000D03*
X173000000Y-112000000D03*
D25*
X184470000Y-107365000D03*
X184470000Y-104415000D03*
D26*
X184380000Y-110505000D03*
X184380000Y-113455000D03*
D25*
X183770000Y-118135000D03*
X183770000Y-115185000D03*
D33*
X184875000Y-100590000D03*
X181925000Y-100590000D03*
D34*
X178475000Y-117000000D03*
X171525000Y-117000000D03*
D14*
X174590000Y-130750000D03*
X175550000Y-130750000D03*
D32*
X164670000Y-127895000D03*
X164670000Y-126345000D03*
D12*
X173750000Y-134860000D03*
X173750000Y-133900000D03*
D22*
X172750000Y-133890000D03*
X172750000Y-134850000D03*
D25*
X184220000Y-130215000D03*
X184220000Y-127265000D03*
D26*
X184130000Y-133355000D03*
X184130000Y-136305000D03*
D25*
X183520000Y-140985000D03*
X183520000Y-138035000D03*
D33*
X184625000Y-123440000D03*
X181675000Y-123440000D03*
D34*
X178225000Y-139850000D03*
X171275000Y-139850000D03*
D27*
X188575000Y-61895000D03*
X188575000Y-63165000D03*
X188575000Y-64435000D03*
X188575000Y-65705000D03*
X193525000Y-65705000D03*
X193525000Y-64435000D03*
X193525000Y-63165000D03*
X193525000Y-61895000D03*
X188575000Y-72745000D03*
X188575000Y-74015000D03*
X188575000Y-75285000D03*
X188575000Y-76555000D03*
X193525000Y-76555000D03*
X193525000Y-75285000D03*
X193525000Y-74015000D03*
X193525000Y-72745000D03*
X188575000Y-67345000D03*
X188575000Y-68615000D03*
X188575000Y-69885000D03*
X188575000Y-71155000D03*
X193525000Y-71155000D03*
X193525000Y-69885000D03*
X193525000Y-68615000D03*
X193525000Y-67345000D03*
X188575000Y-78145000D03*
X188575000Y-79415000D03*
X188575000Y-80685000D03*
X188575000Y-81955000D03*
X193525000Y-81955000D03*
X193525000Y-80685000D03*
X193525000Y-79415000D03*
X193525000Y-78145000D03*
X187425000Y-98545000D03*
X187425000Y-99815000D03*
X187425000Y-101085000D03*
X187425000Y-102355000D03*
X192375000Y-102355000D03*
X192375000Y-101085000D03*
X192375000Y-99815000D03*
X192375000Y-98545000D03*
X187425000Y-103995000D03*
X187425000Y-105265000D03*
X187425000Y-106535000D03*
X187425000Y-107805000D03*
X192375000Y-107805000D03*
X192375000Y-106535000D03*
X192375000Y-105265000D03*
X192375000Y-103995000D03*
X187425000Y-114795000D03*
X187425000Y-116065000D03*
X187425000Y-117335000D03*
X187425000Y-118605000D03*
X192375000Y-118605000D03*
X192375000Y-117335000D03*
X192375000Y-116065000D03*
X192375000Y-114795000D03*
X187175000Y-121395000D03*
X187175000Y-122665000D03*
X187175000Y-123935000D03*
X187175000Y-125205000D03*
X192125000Y-125205000D03*
X192125000Y-123935000D03*
X192125000Y-122665000D03*
X192125000Y-121395000D03*
X187175000Y-132245000D03*
X187175000Y-133515000D03*
X187175000Y-134785000D03*
X187175000Y-136055000D03*
X192125000Y-136055000D03*
X192125000Y-134785000D03*
X192125000Y-133515000D03*
X192125000Y-132245000D03*
X187175000Y-126845000D03*
X187175000Y-128115000D03*
X187175000Y-129385000D03*
X187175000Y-130655000D03*
X192125000Y-130655000D03*
X192125000Y-129385000D03*
X192125000Y-128115000D03*
X192125000Y-126845000D03*
X187175000Y-137645000D03*
X187175000Y-138915000D03*
X187175000Y-140185000D03*
X187175000Y-141455000D03*
X192125000Y-141455000D03*
X192125000Y-140185000D03*
X192125000Y-138915000D03*
X192125000Y-137645000D03*
D15*
X182160000Y-69550000D03*
X181140000Y-69550000D03*
X179420000Y-71300000D03*
X178400000Y-71300000D03*
D28*
X182712500Y-67100000D03*
X176787500Y-67100000D03*
X182825000Y-73800000D03*
X176900000Y-73800000D03*
D15*
X181010000Y-106200000D03*
X179990000Y-106200000D03*
X178270000Y-107950000D03*
X177250000Y-107950000D03*
D28*
X181562500Y-103750000D03*
X175637500Y-103750000D03*
X181675000Y-110450000D03*
X175750000Y-110450000D03*
D15*
X180760000Y-129050000D03*
X179740000Y-129050000D03*
X178020000Y-130800000D03*
X177000000Y-130800000D03*
D28*
X181312500Y-126600000D03*
X175387500Y-126600000D03*
X181425000Y-133300000D03*
X175500000Y-133300000D03*
D29*
X172349999Y-68421452D03*
X171850000Y-68421452D03*
X171350001Y-68421452D03*
X170850000Y-68421452D03*
X170350000Y-68421452D03*
X169849999Y-68421452D03*
X169350000Y-68421452D03*
X168850001Y-68421452D03*
D30*
X167421452Y-69850001D03*
X167421452Y-70350000D03*
X167421452Y-70849999D03*
X167421452Y-71350000D03*
X167421452Y-71850000D03*
X167421452Y-72350001D03*
X167421452Y-72850000D03*
X167421452Y-73349999D03*
D29*
X168850001Y-74778548D03*
X169350000Y-74778548D03*
X169849999Y-74778548D03*
X170350000Y-74778548D03*
X170850000Y-74778548D03*
X171350001Y-74778548D03*
X171850000Y-74778548D03*
X172349999Y-74778548D03*
D30*
X173778548Y-73349999D03*
X173778548Y-72850000D03*
X173778548Y-72350001D03*
X173778548Y-71850000D03*
X173778548Y-71350000D03*
X173778548Y-70849999D03*
X173778548Y-70350000D03*
X173778548Y-69850001D03*
D29*
X171199999Y-105071452D03*
X170700000Y-105071452D03*
X170200001Y-105071452D03*
X169700000Y-105071452D03*
X169200000Y-105071452D03*
X168699999Y-105071452D03*
X168200000Y-105071452D03*
X167700001Y-105071452D03*
D30*
X166271452Y-106500001D03*
X166271452Y-107000000D03*
X166271452Y-107499999D03*
X166271452Y-108000000D03*
X166271452Y-108500000D03*
X166271452Y-109000001D03*
X166271452Y-109500000D03*
X166271452Y-109999999D03*
D29*
X167700001Y-111428548D03*
X168200000Y-111428548D03*
X168699999Y-111428548D03*
X169200000Y-111428548D03*
X169700000Y-111428548D03*
X170200001Y-111428548D03*
X170700000Y-111428548D03*
X171199999Y-111428548D03*
D30*
X172628548Y-109999999D03*
X172628548Y-109500000D03*
X172628548Y-109000001D03*
X172628548Y-108500000D03*
X172628548Y-108000000D03*
X172628548Y-107499999D03*
X172628548Y-107000000D03*
X172628548Y-106500001D03*
D29*
X170949999Y-127921452D03*
X170450000Y-127921452D03*
X169950001Y-127921452D03*
X169450000Y-127921452D03*
X168950000Y-127921452D03*
X168449999Y-127921452D03*
X167950000Y-127921452D03*
X167450001Y-127921452D03*
D30*
X166021452Y-129350001D03*
X166021452Y-129850000D03*
X166021452Y-130349999D03*
X166021452Y-130850000D03*
X166021452Y-131350000D03*
X166021452Y-131850001D03*
X166021452Y-132350000D03*
X166021452Y-132849999D03*
D29*
X167450001Y-134278548D03*
X167950000Y-134278548D03*
X168449999Y-134278548D03*
X168950000Y-134278548D03*
X169450000Y-134278548D03*
X169950001Y-134278548D03*
X170450000Y-134278548D03*
X170949999Y-134278548D03*
D30*
X172378548Y-132849999D03*
X172378548Y-132350000D03*
X172378548Y-131850001D03*
X172378548Y-131350000D03*
X172378548Y-130850000D03*
X172378548Y-130349999D03*
X172378548Y-129850000D03*
X172378548Y-129350001D03*
D35*
X126175000Y-91500000D03*
X126175000Y-89925000D03*
D36*
X118450000Y-65400000D03*
X119100000Y-65400000D03*
X119750000Y-65400000D03*
X119750000Y-63500000D03*
X119100000Y-63500000D03*
X118450000Y-63500000D03*
D14*
X118020000Y-70400000D03*
X118980000Y-70400000D03*
D23*
X117980000Y-71500000D03*
X119000000Y-71500000D03*
D37*
X190350000Y-86875000D03*
X190350000Y-93825000D03*
X181300000Y-86775000D03*
X181300000Y-93725000D03*
D18*
X134925000Y-114550000D03*
X134925000Y-113750000D03*
X134925000Y-112950000D03*
X134925000Y-112150000D03*
X133225000Y-112150000D03*
X133225000Y-112950000D03*
X133225000Y-113750000D03*
X133225000Y-114550000D03*
D38*
X125820000Y-131960000D03*
X125180000Y-131960000D03*
X124520000Y-131960000D03*
X123880000Y-131960000D03*
D39*
X125460000Y-133310000D03*
X124240000Y-133310000D03*
X125460000Y-134260000D03*
X124240000Y-134260000D03*
D38*
X125820000Y-134840000D03*
X125180000Y-134840000D03*
X124520000Y-134840000D03*
X123880000Y-134840000D03*
X139620000Y-132260000D03*
X138980000Y-132260000D03*
X138320000Y-132260000D03*
X137680000Y-132260000D03*
D39*
X139260000Y-133610000D03*
X138040000Y-133610000D03*
X139260000Y-134560000D03*
X138040000Y-134560000D03*
D38*
X139620000Y-135140000D03*
X138980000Y-135140000D03*
X138320000Y-135140000D03*
X137680000Y-135140000D03*
X131370000Y-131960000D03*
X130730000Y-131960000D03*
X130070000Y-131960000D03*
X129430000Y-131960000D03*
D39*
X131010000Y-133310000D03*
X129790000Y-133310000D03*
X131010000Y-134260000D03*
X129790000Y-134260000D03*
D38*
X131370000Y-134840000D03*
X130730000Y-134840000D03*
X130070000Y-134840000D03*
X129430000Y-134840000D03*
X120220000Y-131960000D03*
X119580000Y-131960000D03*
X118920000Y-131960000D03*
X118280000Y-131960000D03*
D39*
X119860000Y-133310000D03*
X118640000Y-133310000D03*
X119860000Y-134260000D03*
X118640000Y-134260000D03*
D38*
X120220000Y-134840000D03*
X119580000Y-134840000D03*
X118920000Y-134840000D03*
X118280000Y-134840000D03*
D40*
X131925000Y-109087500D03*
X131275000Y-109087500D03*
X130625000Y-109087500D03*
X129975000Y-109087500D03*
X129325000Y-109087500D03*
X128675000Y-109087500D03*
X128025000Y-109087500D03*
X127375000Y-109087500D03*
X126725000Y-109087500D03*
X126075000Y-109087500D03*
X126075000Y-114812500D03*
X126725000Y-114812500D03*
X127375000Y-114812500D03*
X128025000Y-114812500D03*
X128675000Y-114812500D03*
X129325000Y-114812500D03*
X129975000Y-114812500D03*
X130625000Y-114812500D03*
X131275000Y-114812500D03*
X131925000Y-114812500D03*
D41*
X156447500Y-129660000D03*
X154872500Y-129660000D03*
D35*
X133250000Y-135025000D03*
X133250000Y-133450000D03*
X141375000Y-135037500D03*
X141375000Y-133462500D03*
X116100000Y-135975000D03*
X116100000Y-134400000D03*
D15*
X153490000Y-129120000D03*
X152470000Y-129120000D03*
D16*
X127900000Y-134270000D03*
X127900000Y-133250000D03*
X135950000Y-134270000D03*
X135950000Y-133250000D03*
X116400000Y-132920000D03*
X116400000Y-131900000D03*
X122300000Y-132920000D03*
X122300000Y-131900000D03*
D34*
X179625000Y-57850000D03*
X172675000Y-57850000D03*
D33*
X186025000Y-41440000D03*
X183075000Y-41440000D03*
D42*
X124200000Y-92150000D03*
X124200000Y-91500000D03*
X124200000Y-90850000D03*
X122300000Y-90850000D03*
X122300000Y-91500000D03*
X122300000Y-92150000D03*
D41*
X133460000Y-123900000D03*
X131885000Y-123900000D03*
D15*
X135650000Y-124150000D03*
X134630000Y-124150000D03*
D12*
X109700000Y-130380000D03*
X109700000Y-129420000D03*
D22*
X108800000Y-131590000D03*
X108800000Y-132550000D03*
X108800000Y-137840000D03*
X108800000Y-138800000D03*
D36*
X110400000Y-133500000D03*
X111050000Y-133500000D03*
X111700000Y-133500000D03*
X111700000Y-131600000D03*
X111050000Y-131600000D03*
X110400000Y-131600000D03*
D41*
X126987500Y-123800000D03*
X125412500Y-123800000D03*
D23*
X127090000Y-125200000D03*
X128110000Y-125200000D03*
D14*
X159920000Y-123250000D03*
X160880000Y-123250000D03*
D18*
X142825000Y-119675000D03*
X142825000Y-120475000D03*
X142825000Y-121275000D03*
X142825000Y-122075000D03*
X144525000Y-122075000D03*
X144525000Y-121275000D03*
X144525000Y-120475000D03*
X144525000Y-119675000D03*
D43*
X159575000Y-124500000D03*
X161225000Y-124500000D03*
D18*
X165840000Y-53930000D03*
X165840000Y-54730000D03*
X165840000Y-55530000D03*
X165840000Y-56330000D03*
X167540000Y-56330000D03*
X167540000Y-55530000D03*
X167540000Y-54730000D03*
X167540000Y-53930000D03*
D14*
X142095000Y-118250000D03*
X143055000Y-118250000D03*
X126590000Y-48100000D03*
X127550000Y-48100000D03*
X134750000Y-48150000D03*
X135710000Y-48150000D03*
X138390000Y-48100000D03*
X139350000Y-48100000D03*
X146640000Y-48150000D03*
X147600000Y-48150000D03*
X156040000Y-48150000D03*
X157000000Y-48150000D03*
D22*
X161099500Y-47081500D03*
X161099500Y-48041500D03*
D15*
X122200000Y-47250000D03*
X121180000Y-47250000D03*
D17*
X163200000Y-47080000D03*
X163200000Y-48100000D03*
D15*
X127600000Y-47100000D03*
X126580000Y-47100000D03*
X135720000Y-47100000D03*
X134700000Y-47100000D03*
X139400000Y-47050000D03*
X138380000Y-47050000D03*
X147620000Y-47100000D03*
X146600000Y-47100000D03*
X157020000Y-47100000D03*
X156000000Y-47100000D03*
D14*
X121190000Y-48250000D03*
X122150000Y-48250000D03*
X125170000Y-51800000D03*
X126130000Y-51800000D03*
D16*
X133400000Y-51020000D03*
X133400000Y-50000000D03*
D23*
X151930000Y-49600000D03*
X152950000Y-49600000D03*
X151980000Y-48150000D03*
X153000000Y-48150000D03*
D16*
X125250000Y-49950000D03*
X125250000Y-48930000D03*
D23*
X127080000Y-50750000D03*
X128100000Y-50750000D03*
D42*
X161325000Y-50575000D03*
X161325000Y-49925000D03*
X161325000Y-49275000D03*
X159425000Y-49275000D03*
X159425000Y-49925000D03*
X159425000Y-50575000D03*
X130100000Y-49450000D03*
X130100000Y-50100000D03*
X130100000Y-50750000D03*
X132000000Y-50750000D03*
X132000000Y-50100000D03*
X132000000Y-49450000D03*
D44*
X124850000Y-59712500D03*
X125500000Y-59712500D03*
X126150000Y-59712500D03*
X126800000Y-59712500D03*
X127450000Y-59712500D03*
X128100000Y-59712500D03*
X128750000Y-59712500D03*
X128750000Y-53987500D03*
X128100000Y-53987500D03*
X127450000Y-53987500D03*
X126800000Y-53987500D03*
X126150000Y-53987500D03*
X125500000Y-53987500D03*
X124850000Y-53987500D03*
D23*
X121065000Y-62800000D03*
X122085000Y-62800000D03*
D16*
X163775000Y-50460000D03*
X163775000Y-49440000D03*
D45*
X120700000Y-59525000D03*
X120700000Y-60475000D03*
X120700000Y-61425000D03*
X122900000Y-61425000D03*
X122900000Y-59525000D03*
D46*
X106250000Y-97500000D03*
X106250000Y-57500000D03*
D17*
X162800000Y-49440000D03*
X162800000Y-50460000D03*
D46*
X206250000Y-97500000D03*
X206250000Y-117500000D03*
D47*
X116930000Y-84490000D03*
X116930000Y-86040000D03*
D48*
X149710000Y-57100000D03*
X149710000Y-53200000D03*
X150980000Y-57100000D03*
X150980000Y-53200000D03*
X152250000Y-57100000D03*
X152250000Y-53200000D03*
X153520000Y-57100000D03*
X153520000Y-53200000D03*
X154790000Y-57100000D03*
X154790000Y-53200000D03*
X149710000Y-65750000D03*
X149710000Y-61850000D03*
X150980000Y-65750000D03*
X150980000Y-61850000D03*
X152250000Y-65750000D03*
X152250000Y-61850000D03*
X153520000Y-65750000D03*
X153520000Y-61850000D03*
X154790000Y-65750000D03*
X154790000Y-61850000D03*
X149710000Y-74350000D03*
X149710000Y-70450000D03*
X150980000Y-74350000D03*
X150980000Y-70450000D03*
X152250000Y-74350000D03*
X152250000Y-70450000D03*
X153520000Y-74350000D03*
X153520000Y-70450000D03*
X154790000Y-74350000D03*
X154790000Y-70450000D03*
X149710000Y-83000000D03*
X149710000Y-79100000D03*
X150980000Y-83000000D03*
X150980000Y-79100000D03*
X152250000Y-83000000D03*
X152250000Y-79100000D03*
X153520000Y-83000000D03*
X153520000Y-79100000D03*
X154790000Y-83000000D03*
X154790000Y-79100000D03*
X149710000Y-91650000D03*
X149710000Y-87750000D03*
X150980000Y-91650000D03*
X150980000Y-87750000D03*
X152250000Y-91650000D03*
X152250000Y-87750000D03*
X153520000Y-91650000D03*
X153520000Y-87750000D03*
X154790000Y-91650000D03*
X154790000Y-87750000D03*
X149710000Y-100300000D03*
X149710000Y-96400000D03*
X150980000Y-100300000D03*
X150980000Y-96400000D03*
X152250000Y-100300000D03*
X152250000Y-96400000D03*
X153520000Y-100300000D03*
X153520000Y-96400000D03*
X154790000Y-100300000D03*
X154790000Y-96400000D03*
X149710000Y-108950000D03*
X149710000Y-105050000D03*
X150980000Y-108950000D03*
X150980000Y-105050000D03*
X152250000Y-108950000D03*
X152250000Y-105050000D03*
X153520000Y-108950000D03*
X153520000Y-105050000D03*
X154790000Y-108950000D03*
X154790000Y-105050000D03*
X149710000Y-117600000D03*
X149710000Y-113700000D03*
X150980000Y-117600000D03*
X150980000Y-113700000D03*
X152250000Y-117600000D03*
X152250000Y-113700000D03*
X153520000Y-117600000D03*
X153520000Y-113700000D03*
X154790000Y-117600000D03*
X154790000Y-113700000D03*
X149710000Y-126250000D03*
X149710000Y-122350000D03*
X150980000Y-126250000D03*
X150980000Y-122350000D03*
X152250000Y-126250000D03*
X152250000Y-122350000D03*
X153520000Y-126250000D03*
X153520000Y-122350000D03*
X154790000Y-126250000D03*
X154790000Y-122350000D03*
D49*
X165050000Y-48250000D03*
X165050000Y-47280000D03*
D23*
X134200000Y-96900000D03*
X135220000Y-96900000D03*
X162890000Y-51425000D03*
X163910000Y-51425000D03*
D22*
X108000000Y-107440000D03*
X108000000Y-108400000D03*
X133750000Y-104350000D03*
X133750000Y-105310000D03*
X128750000Y-104340000D03*
X128750000Y-105300000D03*
D50*
X132150000Y-105000000D03*
X132150000Y-102800000D03*
X130450000Y-102800000D03*
X130450000Y-105000000D03*
D35*
X122100000Y-135750000D03*
X122100000Y-134175000D03*
D41*
X141537500Y-108800000D03*
X139962500Y-108800000D03*
D15*
X141885000Y-110100000D03*
X140865000Y-110100000D03*
D27*
X187425000Y-109395000D03*
X187425000Y-110665000D03*
X187425000Y-111935000D03*
X187425000Y-113205000D03*
X192375000Y-113205000D03*
X192375000Y-111935000D03*
X192375000Y-110665000D03*
X192375000Y-109395000D03*
D22*
X126200000Y-81240000D03*
X126200000Y-82200000D03*
D12*
X126200000Y-84110000D03*
X126200000Y-83150000D03*
D51*
X139160000Y-86650000D03*
X138200000Y-86650000D03*
D14*
X136300000Y-86650000D03*
X137260000Y-86650000D03*
D52*
X128200000Y-81500000D03*
X128200000Y-84000000D03*
D50*
X138750000Y-84900000D03*
X138750000Y-82700000D03*
X137050000Y-82700000D03*
X137050000Y-84900000D03*
D24*
X131750000Y-81550000D03*
X130200000Y-81550000D03*
X131750000Y-83075000D03*
X130200000Y-83075000D03*
X131825000Y-85350000D03*
X130275000Y-85350000D03*
D53*
X133900000Y-84500000D03*
X133900000Y-82350000D03*
D51*
X133900000Y-80850000D03*
X132940000Y-80850000D03*
X135800000Y-80850000D03*
X134840000Y-80850000D03*
D54*
X144925000Y-126300000D03*
X144925000Y-124400000D03*
X142925000Y-125350000D03*
D15*
X140835000Y-127850000D03*
X139815000Y-127850000D03*
X140835000Y-126875000D03*
X139815000Y-126875000D03*
D23*
X144265000Y-127625000D03*
X145285000Y-127625000D03*
X138510000Y-50590000D03*
X139530000Y-50590000D03*
X138540000Y-49600000D03*
X139560000Y-49600000D03*
D42*
X142790000Y-50790000D03*
X142790000Y-50140000D03*
X142790000Y-49490000D03*
X140890000Y-49490000D03*
X140890000Y-50140000D03*
X140890000Y-50790000D03*
D14*
X123190000Y-76750000D03*
X124150000Y-76750000D03*
X142210000Y-87570000D03*
X143170000Y-87570000D03*
D18*
X134900000Y-110800000D03*
X134900000Y-110000000D03*
X134900000Y-109200000D03*
X134900000Y-108400000D03*
X133200000Y-108400000D03*
X133200000Y-109200000D03*
X133200000Y-110000000D03*
X133200000Y-110800000D03*
D41*
X190725000Y-143900000D03*
X189150000Y-143900000D03*
X193825000Y-143900000D03*
X192250000Y-143900000D03*
X196925000Y-143900000D03*
X195350000Y-143900000D03*
X200037500Y-143900000D03*
X198462500Y-143900000D03*
D23*
X189790000Y-146500000D03*
X190810000Y-146500000D03*
X194690000Y-146900000D03*
X195710000Y-146900000D03*
D41*
X187675000Y-143900000D03*
X186100000Y-143900000D03*
D23*
X173690000Y-144900000D03*
X174710000Y-144900000D03*
D41*
X184587500Y-143900000D03*
X183012500Y-143900000D03*
D23*
X177790000Y-144800000D03*
X178810000Y-144800000D03*
X175690000Y-144800000D03*
X176710000Y-144800000D03*
D41*
X181537500Y-143950000D03*
X179962500Y-143950000D03*
D26*
X171625000Y-97650000D03*
X171625000Y-100600000D03*
D55*
X121900000Y-49900000D03*
X123800000Y-49900000D03*
D56*
X159875000Y-56400000D03*
X159875000Y-58300000D03*
D15*
X168120000Y-123075000D03*
X167100000Y-123075000D03*
X172320000Y-123050000D03*
X171300000Y-123050000D03*
D16*
X170250000Y-123095000D03*
X170250000Y-122075000D03*
D15*
X124770000Y-47975000D03*
X123750000Y-47975000D03*
X161775000Y-60600000D03*
X160755000Y-60600000D03*
D45*
X161975000Y-57300000D03*
X161975000Y-58250000D03*
X161975000Y-59200000D03*
X164175000Y-59200000D03*
X164175000Y-57300000D03*
D56*
X166025000Y-59050000D03*
X166025000Y-60950000D03*
D57*
X123150000Y-51750000D03*
X122200000Y-51750000D03*
X121250000Y-51750000D03*
X121250000Y-53950000D03*
X123150000Y-53950000D03*
D56*
X118500000Y-58350000D03*
X118500000Y-60250000D03*
D58*
X122900000Y-56900000D03*
X121000000Y-56900000D03*
D17*
X135400000Y-117815000D03*
X135400000Y-118835000D03*
X133330000Y-117960000D03*
X133330000Y-118980000D03*
X138825000Y-126340000D03*
X138825000Y-127360000D03*
D59*
X143965000Y-83950000D03*
X144935000Y-83950000D03*
D60*
X144960000Y-89625000D03*
X143990000Y-89625000D03*
X144960000Y-88625000D03*
X143990000Y-88625000D03*
X144420000Y-95750000D03*
X143450000Y-95750000D03*
X144000000Y-97150000D03*
X143030000Y-97150000D03*
X144020000Y-98150000D03*
X143050000Y-98150000D03*
D18*
X117175000Y-76725000D03*
X117175000Y-77525000D03*
X117175000Y-78325000D03*
X117175000Y-79125000D03*
X118875000Y-79125000D03*
X118875000Y-78325000D03*
X118875000Y-77525000D03*
X118875000Y-76725000D03*
D61*
X138100000Y-109205000D03*
X138100000Y-110175000D03*
X137125000Y-109225000D03*
X137125000Y-110195000D03*
D59*
X138725000Y-101150000D03*
X139695000Y-101150000D03*
X140250000Y-99130000D03*
X141220000Y-99130000D03*
D61*
X136125000Y-109250000D03*
X136125000Y-110220000D03*
D60*
X144880000Y-99880000D03*
X143910000Y-99880000D03*
D16*
X141550000Y-101200000D03*
X141550000Y-100180000D03*
X142575000Y-101200000D03*
X142575000Y-100180000D03*
X159350000Y-64110000D03*
X159350000Y-63090000D03*
D17*
X120825000Y-73005000D03*
X120825000Y-74025000D03*
D16*
X120050000Y-68370000D03*
X120050000Y-67350000D03*
D17*
X137025000Y-111315000D03*
X137025000Y-112335000D03*
D62*
X128300000Y-117800000D03*
X126400000Y-117800000D03*
X127350000Y-119800000D03*
D14*
X132995000Y-115925000D03*
X133955000Y-115925000D03*
D62*
X131875000Y-117825000D03*
X129975000Y-117825000D03*
X130925000Y-119825000D03*
D17*
X125150000Y-64205000D03*
X125150000Y-65225000D03*
D63*
X142450000Y-113250000D03*
X138350000Y-113250000D03*
X142450000Y-111650000D03*
X138350000Y-111650000D03*
D23*
X127080000Y-51750000D03*
X128100000Y-51750000D03*
D17*
X159350000Y-60505000D03*
X159350000Y-61525000D03*
D64*
X115306200Y-83495280D03*
X115306200Y-82395280D03*
X115306200Y-81295280D03*
X115306200Y-80195280D03*
X115306200Y-79095280D03*
X115306200Y-77995280D03*
X115306200Y-76895280D03*
X115306200Y-75795280D03*
X115306200Y-74695280D03*
D65*
X114506200Y-73595280D03*
D66*
X104670000Y-89080000D03*
X104680000Y-73594000D03*
D65*
X114500000Y-88170000D03*
D67*
X119600000Y-74950000D03*
X117500000Y-74950000D03*
D22*
X159500000Y-95620000D03*
X159500000Y-96580000D03*
D56*
X175800000Y-89475000D03*
X175800000Y-91375000D03*
D68*
X165325000Y-93400000D03*
X161325000Y-93400000D03*
D69*
X171225000Y-89725000D03*
X171225000Y-95425000D03*
D17*
X159400000Y-98780000D03*
X159400000Y-99800000D03*
D23*
X160855000Y-101500000D03*
X161875000Y-101500000D03*
D70*
X161200000Y-96120000D03*
X161200000Y-97390000D03*
X161200000Y-98660000D03*
X161200000Y-99930000D03*
X166600000Y-99930000D03*
X166600000Y-98660000D03*
X166600000Y-97390000D03*
X166600000Y-96120000D03*
D71*
X163900000Y-98025000D03*
D26*
X169175000Y-97650000D03*
X169175000Y-100600000D03*
D45*
X163485000Y-77010000D03*
X163485000Y-76060000D03*
X163485000Y-75110000D03*
X161285000Y-75110000D03*
X161285000Y-77010000D03*
D55*
X161375000Y-70325000D03*
X163275000Y-70325000D03*
D72*
X160725000Y-72825000D03*
X162875000Y-72825000D03*
D12*
X159350000Y-73705000D03*
X159350000Y-72745000D03*
D17*
X159550000Y-76490000D03*
X159550000Y-77510000D03*
X160000000Y-74605000D03*
X160000000Y-75625000D03*
D56*
X118550000Y-67200000D03*
X118550000Y-69100000D03*
D37*
X163100000Y-82325000D03*
X163100000Y-89275000D03*
D60*
X144935000Y-82950000D03*
X143965000Y-82950000D03*
D25*
X184920000Y-58985000D03*
X184920000Y-56035000D03*
D73*
X175800000Y-87720000D03*
X175800000Y-85820000D03*
D55*
X161400000Y-68275000D03*
X163300000Y-68275000D03*
D74*
X124775000Y-106400000D03*
X123975000Y-106400000D03*
X123175000Y-106400000D03*
X122375000Y-106400000D03*
X122375000Y-108100000D03*
X123175000Y-108100000D03*
X123975000Y-108100000D03*
X124775000Y-108100000D03*
X144650000Y-115200000D03*
X143850000Y-115200000D03*
X143050000Y-115200000D03*
X142250000Y-115200000D03*
X142250000Y-116900000D03*
X143050000Y-116900000D03*
X143850000Y-116900000D03*
X144650000Y-116900000D03*
D44*
X136825000Y-121012500D03*
X137475000Y-121012500D03*
X138125000Y-121012500D03*
X138775000Y-121012500D03*
X139425000Y-121012500D03*
X140075000Y-121012500D03*
X140725000Y-121012500D03*
X140725000Y-115287500D03*
X140075000Y-115287500D03*
X139425000Y-115287500D03*
X138775000Y-115287500D03*
X138125000Y-115287500D03*
X137475000Y-115287500D03*
X136825000Y-115287500D03*
D18*
X140650000Y-125125000D03*
X140650000Y-124325000D03*
X140650000Y-123525000D03*
X140650000Y-122725000D03*
X138950000Y-122725000D03*
X138950000Y-123525000D03*
X138950000Y-124325000D03*
X138950000Y-125125000D03*
D17*
X168850000Y-55605000D03*
X168850000Y-56625000D03*
X163025000Y-52455000D03*
X163025000Y-53475000D03*
D57*
X161550000Y-52175000D03*
X160600000Y-52175000D03*
X159650000Y-52175000D03*
X159650000Y-54375000D03*
X161550000Y-54375000D03*
D17*
X160600000Y-107490000D03*
X160600000Y-108510000D03*
D16*
X159600000Y-108510000D03*
X159600000Y-107490000D03*
D57*
X159950000Y-106200000D03*
X160900000Y-106200000D03*
X161850000Y-106200000D03*
X161850000Y-104000000D03*
X159950000Y-104000000D03*
D15*
X127145000Y-106625000D03*
X126125000Y-106625000D03*
X127795000Y-105625000D03*
X126775000Y-105625000D03*
D75*
X117000000Y-121660000D03*
X117950000Y-121660000D03*
X118900000Y-121660000D03*
X118900000Y-119340000D03*
X117950000Y-119340000D03*
X117000000Y-119340000D03*
D76*
X170460000Y-84350000D03*
X170460000Y-83400000D03*
X170460000Y-82450000D03*
X168140000Y-82450000D03*
X168140000Y-83400000D03*
X168140000Y-84350000D03*
D23*
X117540000Y-126800000D03*
X118560000Y-126800000D03*
X117550000Y-127950000D03*
X118570000Y-127950000D03*
X113290000Y-130150000D03*
X114310000Y-130150000D03*
D15*
X119310000Y-123900000D03*
X118290000Y-123900000D03*
D16*
X124300000Y-122410000D03*
X124300000Y-121390000D03*
D15*
X119320000Y-122900000D03*
X118300000Y-122900000D03*
X165910000Y-80800000D03*
X164890000Y-80800000D03*
D16*
X166100000Y-76710000D03*
X166100000Y-75690000D03*
X167100000Y-76720000D03*
X167100000Y-75700000D03*
D36*
X114950000Y-128050000D03*
X115600000Y-128050000D03*
X116250000Y-128050000D03*
X116250000Y-126150000D03*
X115600000Y-126150000D03*
X114950000Y-126150000D03*
X121650000Y-124050000D03*
X122300000Y-124050000D03*
X122950000Y-124050000D03*
X122950000Y-122150000D03*
X122300000Y-122150000D03*
X121650000Y-122150000D03*
D16*
X161600000Y-108523500D03*
X161600000Y-107503500D03*
D17*
X162600000Y-107503500D03*
X162600000Y-108523500D03*
D23*
X197790000Y-146700000D03*
X198810000Y-146700000D03*
X182990000Y-146400000D03*
X184010000Y-146400000D03*
D36*
X168450000Y-78850000D03*
X167800000Y-78850000D03*
X167150000Y-78850000D03*
X167150000Y-80750000D03*
X167800000Y-80750000D03*
X168450000Y-80750000D03*
D58*
X162375000Y-78950000D03*
X160475000Y-78950000D03*
D16*
X109800000Y-124010000D03*
X109800000Y-122990000D03*
X109800000Y-121710000D03*
X109800000Y-120690000D03*
D58*
X113300000Y-121000000D03*
X111400000Y-121000000D03*
D57*
X113250000Y-122900000D03*
X112300000Y-122900000D03*
X111350000Y-122900000D03*
X111350000Y-125100000D03*
X113250000Y-125100000D03*
D75*
X111350000Y-128960000D03*
X112300000Y-128960000D03*
X113250000Y-128960000D03*
X113250000Y-126640000D03*
X112300000Y-126640000D03*
X111350000Y-126640000D03*
D73*
X115150000Y-121700000D03*
X115150000Y-119800000D03*
D45*
X171250000Y-85675000D03*
X171250000Y-86625000D03*
X171250000Y-87575000D03*
X173450000Y-87575000D03*
X173450000Y-85675000D03*
D77*
X155150000Y-133045000D03*
X155150000Y-133685000D03*
X155150000Y-134345000D03*
X155150000Y-134985000D03*
D78*
X156500000Y-133405000D03*
X156500000Y-134625000D03*
X157450000Y-133405000D03*
X157450000Y-134625000D03*
D77*
X158030000Y-133045000D03*
X158030000Y-133685000D03*
X158030000Y-134345000D03*
X158030000Y-134985000D03*
X155125000Y-136940000D03*
X155125000Y-137580000D03*
X155125000Y-138240000D03*
X155125000Y-138880000D03*
D78*
X156475000Y-137300000D03*
X156475000Y-138520000D03*
X157425000Y-137300000D03*
X157425000Y-138520000D03*
D77*
X158005000Y-136940000D03*
X158005000Y-137580000D03*
X158005000Y-138240000D03*
X158005000Y-138880000D03*
D79*
X162649500Y-55753000D03*
X161454500Y-55753000D03*
D16*
X162175000Y-48060000D03*
X162175000Y-47040000D03*
M02*
