M48
; DRILL file {KiCad 8.0.3-8.0.3-0~ubuntu20.04.1} date 2024-06-26T21:46:30-0700
; FORMAT={-:-/ absolute / inch / decimal}
; #@! TF.CreationDate,2024-06-26T21:46:30-07:00
; #@! TF.GenerationSoftware,Kicad,Pcbnew,8.0.3-8.0.3-0~ubuntu20.04.1
; #@! TF.FileFunction,Plated,1,4,PTH
FMAT,2
INCH
; #@! TA.AperFunction,Plated,PTH,ViaDrill
T1C0.0079
; #@! TA.AperFunction,Plated,PTH,ViaDrill
T2C0.0098
; #@! TA.AperFunction,Plated,PTH,ViaDrill
T3C0.0118
; #@! TA.AperFunction,Plated,PTH,ComponentDrill
T4C0.0118
; #@! TA.AperFunction,Plated,PTH,ComponentDrill
T5C0.0256
; #@! TA.AperFunction,Plated,PTH,ComponentDrill
T6C0.0354
; #@! TA.AperFunction,Plated,PTH,ComponentDrill
T7C0.0362
; #@! TA.AperFunction,Plated,PTH,ComponentDrill
T8C0.0390
; #@! TA.AperFunction,Plated,PTH,ComponentDrill
T9C0.0394
; #@! TA.AperFunction,Plated,PTH,ComponentDrill
T10C0.0402
; #@! TA.AperFunction,Plated,PTH,ComponentDrill
T11C0.0469
; #@! TA.AperFunction,Plated,PTH,ComponentDrill
T12C0.0512
; #@! TA.AperFunction,Plated,PTH,ComponentDrill
T13C0.0591
; #@! TA.AperFunction,Plated,PTH,ComponentDrill
T14C0.0642
; #@! TA.AperFunction,Plated,PTH,ComponentDrill
T15C0.0917
; #@! TA.AperFunction,Plated,PTH,ComponentDrill
T16C0.0984
; #@! TA.AperFunction,Plated,PTH,ComponentDrill
T17C0.1260
%
G90
G05
T1
X4.252Y-5.0669
X4.2638Y-5.2638
X4.3539Y-4.9335
X4.3976Y-5.1457
X4.4685Y-4.0591
X4.4766Y-4.0346
X4.4783Y-5.1555
X4.5012Y-4.0224
X4.5201Y-4.0626
X4.5201Y-4.0938
X4.5295Y-5.0039
X4.5352Y-4.1135
X4.5876Y-2.937
X4.5984Y-4.9921
X4.6213Y-2.8785
X4.6303Y-5.1929
X4.6331Y-4.8386
X4.6365Y-2.8961
X4.6628Y-2.8384
X4.6831Y-3.1358
X4.689Y-2.9941
X4.6969Y-5.0157
X4.7101Y-2.8268
X4.7122Y-2.9927
X4.7126Y-3.0984
X4.7126Y-4.8071
X4.7205Y-3.063
X4.7222Y-2.7589
X4.7223Y-3.0392
X4.7228Y-2.7188
X4.7346Y-2.615
X4.7349Y-2.7395
X4.748Y-3.0994
X4.748Y-4.9331
X4.7486Y-2.7171
X4.7549Y-2.6781
X4.7717Y-2.6604
X4.7856Y-2.6275
X4.7878Y-2.8823
X4.7903Y-2.9571
X4.7953Y-2.6486
X4.7988Y-2.9045
X4.8215Y-3.1382
X4.8248Y-4.0394
X4.8325Y-2.8187
X4.8339Y-2.8732
X4.8368Y-2.7921
X4.8449Y-2.9877
X4.8478Y-2.9563
X4.8519Y-2.7462
X4.8535Y-5.1766
X4.8686Y-2.73
X4.8705Y-2.9614
X4.8976Y-2.9902
X4.9035Y-4.0787
X4.9134Y-3.1388
X4.9142Y-2.8752
X4.9177Y-2.8996
X4.9213Y-2.6555
X4.923Y-2.8514
X4.9277Y-2.9899
X4.9348Y-2.4847
X4.9443Y-3.3598
X4.9478Y-3.4656
X4.9507Y-2.9931
X4.9508Y-2.8324
X4.9531Y-2.463
X4.9575Y-2.8638
X4.9577Y-4.2431
X4.9606Y-4.7874
X4.9636Y-4.1742
X4.965Y-2.061
X4.9679Y-2.7292
X4.9754Y-2.5872
X4.9754Y-2.8337
X4.9764Y-2.4784
X4.9764Y-4.8504
X4.9853Y-2.6965
X4.9878Y-3.3894
X4.9931Y-2.9488
X4.9941Y-2.4587
X4.9993Y-2.9788
X4.9998Y-2.6045
X5.0007Y-3.4122
X5.0045Y-2.5773
X5.0085Y-2.6978
X5.0095Y-3.0183
X5.0129Y-2.4794
X5.0148Y-4.5837
X5.0165Y-2.5574
X5.0192Y-4.6264
X5.0306Y-4.2319
X5.0332Y-4.2088
X5.0358Y-2.4606
X5.0404Y-4.5876
X5.0413Y-4.187
X5.0476Y-3.4179
X5.0544Y-2.6821
X5.0551Y-3.0012
X5.0554Y-4.2304
X5.0579Y-5.1827
X5.0608Y-4.1729
X5.0643Y-2.7031
X5.0659Y-4.5856
X5.0742Y-2.5517
X5.0772Y-4.2383
X5.0783Y-3.0022
X5.088Y-2.9071
X5.0896Y-4.5856
X5.0933Y-3.815
X5.0933Y-3.8938
X5.0977Y-4.1424
X5.1003Y-4.2409
X5.1161Y-4.5846
X5.1235Y-4.2425
X5.126Y-3.3061
X5.128Y-3.8543
X5.1299Y-2.3413
X5.1335Y-3.1352
X5.1361Y-2.9207
X5.1378Y-3.0787
X5.1384Y-3.188
X5.1417Y-4.5856
X5.1467Y-4.2419
X5.1673Y-3.815
X5.1673Y-3.8937
X5.1678Y-2.7006
X5.1683Y-2.8258
X5.1688Y-2.7933
X5.1693Y-2.9213
X5.1693Y-2.9852
X5.1699Y-4.2422
X5.1701Y-2.7352
X5.1704Y-2.6074
X5.1704Y-2.6659
X5.1718Y-2.5011
X5.1771Y-3.5257
X5.1801Y-4.4748
X5.1835Y-3.4493
X5.1853Y-3.127
X5.1949Y-2.5295
X5.1974Y-2.796
X5.1988Y-2.9213
X5.1988Y-3.0157
X5.1988Y-3.0785
X5.1988Y-4.0866
X5.1992Y-3.0472
X5.1993Y-2.6683
X5.2008Y-2.8258
X5.2015Y-2.6413
X5.2028Y-2.7028
X5.2028Y-2.7343
X5.2028Y-2.8583
X5.208Y-3.1189
X5.2106Y-4.5709
X5.2301Y-2.7637
X5.2311Y-2.6996
X5.2323Y-2.9868
X5.2323Y-2.7303
X5.2323Y-2.8583
X5.2323Y-2.8898
X5.2343Y-3.0138
X5.2357Y-3.0465
X5.2386Y-2.4858
X5.2406Y-2.3783
X5.2587Y-2.4717
X5.2617Y-2.6689
X5.2628Y-3.6594
X5.2632Y-2.6373
X5.2637Y-3.0491
X5.2638Y-3.0138
X5.2665Y-2.8307
X5.2713Y-2.9433
X5.2781Y-2.9211
X5.2831Y-2.5671
X5.2854Y-2.7539
X5.2928Y-3.0157
X5.2948Y-3.0468
X5.2953Y-2.7008
X5.2957Y-2.6693
X5.2972Y-2.7303
X5.3031Y-4.5512
X5.3071Y-4.7825
X5.3135Y-2.5335
X5.3162Y-3.1388
X5.318Y-2.4058
X5.3201Y-2.2917
X5.3218Y-3.0495
X5.3245Y-2.6121
X5.3248Y-2.8248
X5.3248Y-2.8917
X5.326Y-4.802
X5.3268Y-2.6984
X5.3268Y-2.9508
X5.3292Y-2.6673
X5.3337Y-4.7569
X5.3374Y-2.2685
X5.34Y-4.2005
X5.3465Y-3.9839
X5.3473Y-4.1784
X5.3474Y-4.373
X5.348Y-5.198
X5.3484Y-2.7953
X5.3488Y-4.1438
X5.3543Y-3.8146
X5.3558Y-3.0157
X5.3575Y-3.5843
X5.3583Y-2.8602
X5.3594Y-3.6303
X5.3602Y-2.6984
X5.3602Y-2.8287
X5.3617Y-2.9835
X5.3638Y-2.6667
X5.3642Y-1.9708
X5.3661Y-4.4406
X5.3671Y-4.4951
X5.3682Y-4.1293
X5.3711Y-4.3593
X5.3714Y-4.1655
X5.3817Y-3.4779
X5.3849Y-3.5009
X5.3851Y-3.133
X5.3893Y-4.1073
X5.3898Y-2.8602
X5.3904Y-3.0174
X5.3907Y-3.0775
X5.3907Y-2.4794
X5.3912Y-2.9846
X5.3917Y-2.6713
X5.3917Y-2.7303
X5.3934Y-2.4319
X5.4062Y-1.9643
X5.4087Y-4.8236
X5.4114Y-2.4465
X5.4132Y-3.2976
X5.4198Y-2.6371
X5.4213Y-2.6668
X5.4213Y-2.7953
X5.4213Y-2.8563
X5.4223Y-3.9949
X5.4232Y-2.8917
X5.4236Y-3.4422
X5.4252Y-3.017
X5.4256Y-3.0774
X5.4306Y-4.8351
X5.4343Y-4.2545
X5.4358Y-4.2777
X5.436Y-4.5925
X5.437Y-2.9472
X5.446Y-4.2172
X5.4468Y-4.3957
X5.447Y-3.6981
X5.4484Y-3.7957
X5.4484Y-2.4465
X5.4508Y-3.8236
X5.4531Y-3.7287
X5.4537Y-2.6731
X5.4544Y-2.6406
X5.4545Y-3.0466
X5.4547Y-3.0177
X5.4606Y-2.7992
X5.463Y-3.9291
X5.4636Y-4.5827
X5.4642Y-4.1401
X5.4724Y-2.7402
X5.4728Y-4.0667
X5.4744Y-5.0531
X5.4823Y-2.9862
X5.4827Y-2.8898
X5.4831Y-3.0484
X5.4833Y-3.1064
X5.4839Y-2.6672
X5.484Y-4.3438
X5.4843Y-3.0807
X5.4843Y-2.6983
X5.4845Y-2.8265
X5.486Y-2.606
X5.4925Y-3.4563
X5.4949Y-4.0738
X5.4961Y-4.5896
X5.5028Y-3.385
X5.5031Y-4.1547
X5.5113Y-3.1564
X5.5151Y-2.6388
X5.5157Y-2.7323
X5.5157Y-2.8287
X5.5157Y-2.8583
X5.5157Y-2.6718
X5.5165Y-2.9846
X5.5196Y-3.8671
X5.5217Y-2.5571
X5.5256Y-3.6057
X5.547Y-2.761
X5.5472Y-2.8898
X5.5472Y-2.9213
X5.5472Y-2.6983
X5.5474Y-2.5155
X5.5484Y-2.8264
X5.5492Y-3.0161
X5.5498Y-2.6378
X5.5502Y-4.5935
X5.5516Y-2.9862
X5.5531Y-4.689
X5.5561Y-4.6545
X5.5578Y-4.0579
X5.5662Y-3.1986
X5.5738Y-3.0175
X5.576Y-4.0394
X5.576Y-2.6948
X5.5764Y-2.9844
X5.5787Y-2.8583
X5.5787Y-4.8927
X5.5787Y-2.8873
X5.579Y-2.9219
X5.5797Y-4.8602
X5.5801Y-2.733
X5.5802Y-4.9186
X5.5807Y-2.6693
X5.5827Y-4.7116
X5.5827Y-4.7441
X5.5827Y-4.7795
X5.5866Y-3.8991
X5.5905Y-2.4762
X5.5945Y-1.9776
X5.5968Y-3.2431
X5.6024Y-3.3705
X5.6187Y-5.0563
X5.6261Y-1.851
X5.6286Y-2.3151
X5.6309Y-4.3406
X5.6331Y-3.4846
X5.6352Y-4.2732
X5.6377Y-3.1162
X5.6393Y-4.3161
X5.6413Y-1.8685
X5.6429Y-2.5754
X5.6486Y-4.6821
X5.656Y-2.9605
X5.6573Y-2.2978
X5.6591Y-4.0319
X5.6595Y-3.2894
X5.6605Y-1.9135
X5.6614Y-2.779
X5.6654Y-4.6427
X5.6687Y-3.0781
X5.6701Y-3.0536
X5.6716Y-2.9777
X5.6733Y-2.9149
X5.6752Y-2.7378
X5.6753Y-2.2822
X5.6764Y-4.3583
X5.6781Y-3.7352
X5.6819Y-3.9587
X5.6845Y-3.2275
X5.689Y-4.686
X5.6896Y-2.9444
X5.6919Y-4.6476
X5.6926Y-3.026
X5.6959Y-3.1907
X5.6988Y-3.8661
X5.6994Y-3.1677
X5.6999Y-3.048
X5.7039Y-4.4032
X5.7052Y-2.6503
X5.7087Y-3.8346
X5.7178Y-5.1226
X5.7214Y-2.2907
X5.7323Y-2.6535
X5.7323Y-2.4554
X5.7327Y-3.8165
X5.7354Y-2.1467
X5.7381Y-2.9584
X5.7381Y-2.6764
X5.741Y-3.7948
X5.7458Y-1.8861
X5.754Y-3.7756
X5.7541Y-2.4472
X5.756Y-2.2893
X5.758Y-2.8895
X5.759Y-2.9483
X5.7592Y-2.8655
X5.7618Y-2.3266
X5.7618Y-2.5335
X5.7654Y-3.2402
X5.7677Y-2.6969
X5.7713Y-3.7252
X5.7795Y-2.628
X5.7819Y-2.9443
X5.7823Y-2.2566
X5.783Y-2.8643
X5.7831Y-4.4646
X5.7858Y-2.2925
X5.7886Y-3.961
X5.7886Y-2.3685
X5.8002Y-4.0233
X5.8011Y-3.1109
X5.8025Y-2.5529
X5.8026Y-3.1499
X5.8046Y-4.0595
X5.8059Y-3.7049
X5.8075Y-2.2358
X5.8083Y-2.356
X5.8149Y-2.2739
X5.8152Y-3.655
X5.8162Y-2.2971
X5.8264Y-4.5105
X5.828Y-2.2185
X5.8465Y-3.54
X5.8586Y-4.3787
X5.8843Y-4.3508
X5.8896Y-2.65
X5.9028Y-3.0365
X5.9156Y-2.6508
X5.9191Y-2.8703
X5.9191Y-2.3051
X5.9193Y-2.4929
X5.9232Y-2.6988
X5.9248Y-3.0437
X5.9264Y-1.9043
X5.9386Y-3.5492
X5.9465Y-2.7147
X5.9488Y-3.6801
X5.9505Y-3.1752
X5.9521Y-2.3256
X5.9539Y-2.5128
X5.9539Y-2.4849
X5.9559Y-1.8925
X5.9571Y-1.9222
X5.9577Y-3.378
X5.959Y-3.0314
X5.9606Y-3.3346
X5.9693Y-2.6462
X5.9696Y-2.7128
X5.9719Y-3.528
X5.9723Y-2.6821
X5.9793Y-2.325
X5.9921Y-2.5217
X5.9927Y-2.7106
X5.997Y-3.3376
X6.0007Y-2.9974
X6.0033Y-2.3256
X6.007Y-2.8645
X6.0097Y-3.1999
X6.0171Y-3.1682
X6.0214Y-2.0332
X6.0236Y-1.8496
X6.0236Y-2.6614
X6.0276Y-3.5482
X6.0291Y-2.8717
X6.0295Y-2.5118
X6.0354Y-3.0531
X6.0441Y-3.3976
X6.0461Y-2.3247
X6.0514Y-2.8652
X6.0531Y-3.0177
X6.0551Y-3.2002
X6.0654Y-2.0665
X6.0692Y-2.3272
X6.0744Y-2.8622
X6.0749Y-2.3736
X6.0787Y-3.5108
X6.0827Y-2.5256
X6.0827Y-2.7069
X6.0831Y-3.0453
X6.0831Y-3.2008
X6.0896Y-3.3547
X6.0906Y-1.935
X6.0913Y-2.3203
X6.0945Y-4.2024
X6.0945Y-4.4114
X6.0945Y-4.752
X6.0965Y-3.7264
X6.099Y-4.0512
X6.1118Y-3.3946
X6.1127Y-3.3568
X6.1151Y-2.0503
X6.1185Y-3.5213
X6.1276Y-4.6972
X6.128Y-2.239
X6.1291Y-4.1626
X6.1315Y-4.1008
X6.1382Y-4.1382
X6.145Y-4.0407
X6.1453Y-4.0653
X6.1457Y-2.0547
X6.1561Y-2.2968
X6.1654Y-1.8299
X6.1667Y-2.3175
X6.1693Y-2.2409
X6.1693Y-5.0236
X6.1772Y-4.9902
X6.1826Y-2.2927
X6.1848Y-2.349
X6.189Y-2.8337
X6.1891Y-4.9489
X6.1953Y-2.2622
X6.1965Y-4.9209
X6.2013Y-2.3228
X6.2018Y-2.3947
X6.2087Y-1.8902
X6.2303Y-2.2953
X6.2707Y-2.4528
X6.2736Y-2.3287
X6.2744Y-1.913
X6.3189Y-1.8957
X6.3258Y-2.3287
X6.3839Y-4.3031
X6.4183Y-2.2437
X6.4323Y-2.1411
X6.4354Y-4.2618
X6.447Y-2.0763
X6.4537Y-2.1281
X6.4754Y-2.1063
X6.4784Y-1.9815
X6.4878Y-5.2154
X6.4884Y-4.2484
X6.489Y-4.2102
X6.4898Y-5.1906
X6.4919Y-5.1347
X6.4931Y-5.1579
X6.4948Y-5.1083
X6.4959Y-2.7459
X6.4973Y-4.3087
X6.5039Y-4.2704
X6.5079Y-3.2047
X6.5177Y-2.2835
X6.524Y-5.0456
X6.5283Y-1.9003
X6.5303Y-1.9251
X6.5384Y-2.5887
X6.5409Y-2.6118
X6.5441Y-2.8166
X6.5443Y-1.9793
X6.5445Y-2.7672
X6.5466Y-2.792
X6.5484Y-4.0866
X6.5488Y-1.9415
X6.5508Y-3.1376
X6.5516Y-2.8728
X6.5638Y-5.0198
X6.5673Y-4.1154
X6.572Y-4.9917
X6.5839Y-5.1635
X6.5906Y-5.3445
X6.5946Y-4.2633
X6.5984Y-1.7725
X6.6047Y-4.4437
X6.6087Y-4.9743
X6.6141Y-4.0709
X6.6161Y-4.9466
X6.6162Y-1.7927
X6.6197Y-5.2032
X6.6206Y-5.1203
X6.6267Y-4.0452
X6.6293Y-4.2203
X6.6293Y-4.988
X6.6295Y-4.3036
X6.6327Y-4.0873
X6.6417Y-1.935
X6.6417Y-2.8209
X6.6457Y-2.1161
X6.6457Y-3.002
X6.6526Y-2.1555
X6.6555Y-5.3484
X6.6654Y-4.4488
X6.6667Y-1.7476
X6.6688Y-2.6526
X6.6693Y-1.7165
X6.6713Y-5.4193
X6.6724Y-1.8898
X6.6724Y-2.7756
X6.6742Y-2.5791
X6.6748Y-1.9748
X6.6748Y-2.8607
X6.6811Y-4.5197
X6.6811Y-5.372
X6.6876Y-5.4001
X6.689Y-1.7618
X6.6909Y-4.4724
X6.693Y-4.9962
X6.6936Y-2.6511
X6.6965Y-4.0971
X6.6974Y-4.5005
X6.7008Y-3.1634
X6.7047Y-5.1181
X6.7047Y-5.2047
X6.7106Y-2.1201
X6.7106Y-3.0059
X6.7146Y-4.2185
X6.7146Y-4.3051
X6.7264Y-2.1909
X6.7264Y-3.0768
X6.7362Y-2.1437
X6.7362Y-3.0295
X6.7427Y-2.1718
X6.7427Y-3.0576
X6.7447Y-2.6535
X6.748Y-1.7677
X6.7598Y-4.9872
X6.7598Y-1.8898
X6.7598Y-1.9764
X6.7598Y-2.7756
X6.7598Y-2.8622
X6.7599Y-5.3726
X6.7691Y-5.0262
X6.7697Y-4.473
X6.7768Y-4.0865
X6.7933Y-5.7067
X6.7969Y-4.1323
X6.7999Y-5.0326
X6.813Y-1.7594
X6.815Y-2.1442
X6.815Y-3.03
X6.8193Y-2.6425
X6.8215Y-4.1299
X6.8242Y-1.7978
X6.8282Y-5.2055
X6.8345Y-2.6853
X6.839Y-5.1356
X6.8425Y-4.2992
X6.8457Y-4.9673
X6.8524Y-4.3445
X6.8524Y-5.2461
X6.854Y-4.262
X6.855Y-1.8043
X6.8563Y-4.2343
X6.8581Y-2.6894
X6.8583Y-5.8106
X6.8595Y-4.0662
X6.8612Y-5.7654
X6.8622Y-4.9941
X6.8622Y-5.1791
X6.8694Y-5.6194
X6.8701Y-5.2205
X6.8762Y-5.7473
X6.8787Y-4.0862
X6.8793Y-4.7198
X6.8797Y-5.0823
X6.8819Y-4.2972
X6.883Y-5.7925
X6.8878Y-1.9705
X6.8878Y-2.8563
X6.8896Y-4.1827
X6.8976Y-2.0157
X6.8976Y-2.9016
X6.8985Y-5.6189
X6.8993Y-1.9333
X6.8993Y-2.8191
X6.9008Y-1.739
X6.9008Y-2.6248
X6.9016Y-1.9055
X6.9016Y-2.7913
X6.9016Y-5.0945
X6.9083Y-4.7193
X6.9114Y-4.1949
X6.9173Y-1.7657
X6.9192Y-2.6496
X6.9238Y-2.3904
X6.9245Y-3.2769
X6.9256Y-5.1086
X6.9272Y-1.9685
X6.9272Y-2.8543
X6.9348Y-1.8539
X6.9348Y-2.7398
X6.9354Y-4.209
X6.939Y-5.1575
X6.9435Y-5.1257
X6.9488Y-4.2579
X6.9534Y-4.2261
X6.9536Y-2.3862
X6.9536Y-3.2764
X6.9567Y-1.8661
X6.9567Y-2.752
X6.9685Y-5.1811
X6.9783Y-4.2815
X6.9807Y-1.8803
X6.9807Y-2.7661
X6.9941Y-1.9291
X6.9941Y-2.815
X6.9986Y-1.8974
X6.9986Y-2.7832
X6.9996Y-5.4185
X7.0094Y-4.5189
X7.0236Y-1.9528
X7.0236Y-2.8386
X7.0244Y-5.4016
X7.0343Y-4.502
X7.0547Y-2.1902
X7.0547Y-3.076
X7.0795Y-2.1732
X7.0795Y-3.0591
X7.1638Y-4.7854
X7.1732Y-5.6969
X7.1736Y-3.8858
X7.2189Y-1.5571
X7.2189Y-2.4429
X7.2913Y-5.6929
X7.4134Y-5.6969
X7.4799Y-4.8484
X7.4898Y-3.9488
X7.5315Y-5.6969
X7.535Y-1.6201
X7.535Y-2.5059
X7.6575Y-5.6969
X7.7756Y-5.7008
X7.9016Y-5.7008
T2
X4.1967Y-4.303
X4.3898Y-4.2264
X4.5551Y-2.8858
X4.5669Y-3.4764
X4.5768Y-3.0531
X4.5778Y-3.0935
X4.5846Y-3.1594
X4.5906Y-2.9671
X4.6982Y-2.7591
X4.7392Y-2.0364
X4.7503Y-2.2871
X4.7539Y-1.9528
X4.811Y-2.1654
X4.9104Y-3.0433
X4.9232Y-3.9646
X4.9313Y-2.5084
X4.937Y-2.0669
X4.9419Y-1.8927
X4.9471Y-2.2969
X4.9518Y-3.2549
X4.953Y-3.8054
X4.9543Y-3.8403
X4.9543Y-3.8836
X4.9543Y-3.9178
X4.9849Y-2.2918
X5.0118Y-2.2638
X5.0142Y-3.7564
X5.0266Y-4.402
X5.0382Y-2.2461
X5.061Y-2.2677
X5.068Y-5.2272
X5.0921Y-2.2689
X5.0933Y-4.0531
X5.0957Y-2.5197
X5.1762Y-3.2963
X5.1851Y-3.1723
X5.1984Y-3.9724
X5.2077Y-4.2411
X5.2298Y-3.1491
X5.252Y-3.8602
X5.2733Y-3.1294
X5.2933Y-4.6654
X5.2951Y-3.1176
X5.2976Y-5.1811
X5.3145Y-4.05
X5.3228Y-4.2402
X5.3358Y-5.3118
X5.3435Y-3.3081
X5.3878Y-2.7953
X5.4252Y-4.9724
X5.4291Y-2.2736
X5.4555Y-2.2488
X5.5177Y-5.378
X5.6161Y-5.1949
X5.6327Y-3.5334
X5.6575Y-2.0394
X5.672Y-4.9141
X5.6811Y-4.8583
X5.6924Y-4.2973
X5.6978Y-2.0354
X5.7024Y-2.2232
X5.7048Y-4.467
X5.7067Y-2.0787
X5.7084Y-1.9625
X5.7122Y-1.987
X5.7157Y-2.4732
X5.7209Y-2.0535
X5.7212Y-2.1835
X5.7323Y-4.8307
X5.7329Y-2.0187
X5.7353Y-2.2039
X5.737Y-2.1012
X5.7445Y-1.987
X5.7626Y-2.0223
X5.7632Y-2.1634
X5.7736Y-5.0264
X5.7817Y-2.1282
X5.7866Y-2.0919
X5.7924Y-2.0282
X5.8114Y-2.1093
X6.1732Y-1.9734
X6.2638Y-4.8465
X6.2831Y-3.8531
X6.3071Y-4.9764
X6.3086Y-3.6063
X6.3122Y-3.7339
X6.3514Y-3.613
X6.3602Y-4.3228
X6.3827Y-4.2451
X6.3839Y-4.8858
X6.3898Y-3.6102
X6.4173Y-1.7795
X6.4173Y-3.6299
X6.4173Y-3.6732
X6.4252Y-1.7451
X6.4449Y-3.6102
X6.4675Y-2.2972
X6.4675Y-4.4242
X6.492Y-1.9402
X6.4931Y-4.0207
X6.4975Y-2.0734
X6.5039Y-2.9724
X6.5089Y-4.4232
X6.5128Y-2.0955
X6.5197Y-3.7539
X6.5541Y-2.0945
X6.5738Y-2.0453
X6.5827Y-2.9488
X6.5827Y-4.8819
X6.5906Y-3.6063
X6.6004Y-3.9341
X6.6033Y-2.0709
X6.6315Y-3.55
X6.6437Y-5.5039
X6.6531Y-4.6064
X6.6808Y-5.4494
X6.6845Y-5.5645
X6.6865Y-4.6618
X6.689Y-3.4764
X6.6906Y-4.5498
X6.6988Y-2.2756
X6.7307Y-3.1069
X6.7307Y-2.3357
X6.7359Y-2.2211
X6.7491Y-5.5649
X6.7543Y-5.4442
X6.7576Y-5.3998
X6.7598Y-4.66
X6.7642Y-4.5446
X6.7675Y-4.5002
X6.7984Y-3.1048
X6.8091Y-3.6486
X6.8091Y-3.6801
X6.8091Y-5.4476
X6.8094Y-2.2158
X6.8094Y-3.2171
X6.8114Y-2.3313
X6.8121Y-3.0568
X6.8128Y-2.1715
X6.8189Y-4.548
X6.8417Y-5.5516
X6.8484Y-5.3819
X6.8499Y-5.4886
X6.8506Y-4.8622
X6.8516Y-4.652
X6.8524Y-4.8287
X6.8531Y-3.105
X6.8563Y-5.4094
X6.8583Y-4.4823
X6.8597Y-4.589
X6.8634Y-3.9626
X6.8638Y-5.4331
X6.8642Y-2.2192
X6.8661Y-4.5098
X6.8667Y-3.9337
X6.872Y-4.8091
X6.8736Y-4.5335
X6.8843Y-3.2072
X6.8864Y-3.914
X6.8866Y-5.5854
X6.8881Y-5.4299
X6.8939Y-5.5544
X6.8965Y-4.6858
X6.8969Y-2.3232
X6.8976Y-4.7972
X6.8979Y-4.5303
X6.9035Y-2.1535
X6.9035Y-3.0394
X6.9035Y-4.8504
X6.9037Y-4.6548
X6.905Y-2.2602
X6.905Y-3.1461
X6.9057Y-1.6339
X6.9057Y-2.5197
X6.9075Y-1.6004
X6.9075Y-2.4862
X6.9075Y-3.8976
X6.9094Y-5.3858
X6.9114Y-2.1811
X6.9114Y-3.0669
X6.9134Y-3.9508
X6.9175Y-5.4886
X6.9189Y-2.2047
X6.9189Y-3.0906
X6.9193Y-4.4862
X6.9218Y-5.4299
X6.9252Y-5.5104
X6.9272Y-1.5807
X6.9272Y-2.4665
X6.9274Y-4.589
X6.9311Y-4.8051
X6.9316Y-4.5303
X6.9351Y-4.6108
X6.9405Y-5.4142
X6.9409Y-3.9055
X6.9417Y-2.3571
X6.9417Y-3.2429
X6.9432Y-2.2016
X6.9432Y-3.0874
X6.9488Y-4.8248
X6.949Y-2.3261
X6.949Y-3.2119
X6.9504Y-4.5146
X6.9528Y-1.5689
X6.9528Y-2.4547
X6.9528Y-4.8839
X6.9547Y-4.8524
X6.9587Y-1.622
X6.9587Y-2.5079
X6.9587Y-3.9252
X6.9626Y-3.9843
X6.9626Y-5.3996
X6.9646Y-2.1575
X6.9646Y-3.0433
X6.9646Y-3.9528
X6.9685Y-5.3465
X6.9685Y-5.376
X6.9724Y-4.5
X6.9727Y-2.2602
X6.9727Y-3.1461
X6.9768Y-5.4583
X6.9769Y-2.2016
X6.9769Y-3.0874
X6.9783Y-4.4469
X6.9783Y-4.4764
X6.9804Y-2.2821
X6.9804Y-3.1679
X6.9862Y-1.5768
X6.9862Y-2.4626
X6.9866Y-4.5587
X6.9882Y-5.7224
X6.9956Y-2.1858
X6.9956Y-3.0717
X7.0039Y-1.5965
X7.0039Y-2.4823
X7.0079Y-1.6555
X7.0079Y-2.5413
X7.0098Y-1.624
X7.0098Y-2.5098
X7.0177Y-2.1713
X7.0177Y-3.0571
X7.02Y-5.4552
X7.0236Y-2.1181
X7.0236Y-2.1476
X7.0236Y-3.0039
X7.0236Y-3.0335
X7.0298Y-4.5556
X7.0319Y-2.2299
X7.0319Y-3.1157
X7.0433Y-5.4508
X7.0531Y-4.5512
X7.0551Y-4.8531
X7.065Y-3.9535
X7.0709Y-5.4527
X7.0751Y-2.2269
X7.0751Y-3.1127
X7.0795Y-4.8909
X7.0807Y-4.5531
X7.0827Y-4.8642
X7.0894Y-3.9913
X7.0906Y-4.9311
X7.0906Y-4.9567
X7.0906Y-4.9823
X7.0906Y-5.0098
X7.0906Y-5.0354
X7.0925Y-3.9646
X7.0965Y-5.25
X7.0965Y-5.2756
X7.0965Y-5.3012
X7.0984Y-2.2224
X7.0984Y-3.1083
X7.0984Y-5.1949
X7.1004Y-4.0315
X7.1004Y-4.0571
X7.1004Y-4.0827
X7.1004Y-4.1102
X7.1004Y-4.1358
X7.1004Y-5.2224
X7.1059Y-4.8535
X7.1063Y-4.3504
X7.1063Y-4.376
X7.1063Y-4.4016
X7.1083Y-4.2953
X7.1083Y-4.8819
X7.1102Y-1.6248
X7.1102Y-2.5106
X7.1102Y-4.3228
X7.1142Y-5.4823
X7.1142Y-5.5177
X7.1157Y-3.9539
X7.1181Y-3.9823
X7.124Y-4.5827
X7.124Y-4.6181
X7.126Y-2.2244
X7.126Y-3.1102
X7.1346Y-1.6626
X7.1346Y-2.5484
X7.1378Y-1.6358
X7.1378Y-2.5217
X7.1457Y-1.7028
X7.1457Y-1.7283
X7.1457Y-1.7539
X7.1457Y-1.7815
X7.1457Y-1.8071
X7.1457Y-2.5886
X7.1457Y-2.6142
X7.1457Y-2.6398
X7.1457Y-2.6673
X7.1457Y-2.6929
X7.1516Y-2.0217
X7.1516Y-2.0472
X7.1516Y-2.0728
X7.1516Y-2.9075
X7.1516Y-2.9331
X7.1516Y-2.9587
X7.1535Y-1.9665
X7.1535Y-2.8524
X7.1555Y-1.9941
X7.1555Y-2.8799
X7.161Y-1.6252
X7.161Y-2.511
X7.1634Y-1.6535
X7.1634Y-2.5394
X7.1693Y-2.2539
X7.1693Y-2.2894
X7.1693Y-3.1398
X7.1693Y-3.1752
X7.172Y-4.9851
X7.172Y-5.0098
X7.172Y-5.0357
X7.1768Y-4.9588
X7.1781Y-4.9314
X7.1811Y-5.25
X7.1819Y-4.0855
X7.1819Y-4.1102
X7.1819Y-4.1361
X7.1831Y-5.3012
X7.185Y-5.2756
X7.1866Y-4.0592
X7.187Y-5.2008
X7.187Y-5.2264
X7.1879Y-4.0318
X7.1909Y-4.3504
X7.1929Y-4.4016
X7.1949Y-4.376
X7.1969Y-4.3012
X7.1969Y-4.3268
X7.2272Y-1.7567
X7.2272Y-1.7814
X7.2272Y-1.8073
X7.2272Y-2.6425
X7.2272Y-2.6672
X7.2272Y-2.6931
X7.2299Y-4.8587
X7.2303Y-4.8335
X7.2307Y-4.8894
X7.2319Y-1.7304
X7.2319Y-2.6162
X7.2332Y-1.703
X7.2332Y-2.5889
X7.2362Y-2.0217
X7.2362Y-2.9075
X7.2382Y-2.0728
X7.2382Y-2.9587
X7.2398Y-3.9591
X7.2402Y-2.0472
X7.2402Y-2.9331
X7.2402Y-3.9339
X7.2406Y-3.9898
X7.2421Y-1.9724
X7.2421Y-1.998
X7.2421Y-2.8583
X7.2421Y-2.8839
X7.285Y-1.6303
X7.285Y-2.5161
X7.2854Y-1.6051
X7.2854Y-2.4909
X7.2858Y-1.661
X7.2858Y-2.5469
X7.313Y-5.0827
X7.315Y-4.8583
X7.315Y-4.8878
X7.3169Y-5.1083
X7.3189Y-5.5039
X7.3197Y-5.5315
X7.3228Y-4.1831
X7.3228Y-5.2913
X7.3228Y-5.3169
X7.3248Y-3.9587
X7.3248Y-3.9882
X7.3268Y-4.2087
X7.3287Y-4.6043
X7.3295Y-4.6319
X7.3327Y-4.3917
X7.3327Y-4.4173
X7.3681Y-1.8543
X7.3681Y-2.7402
X7.3701Y-1.6299
X7.3701Y-1.6594
X7.3701Y-2.5157
X7.3701Y-2.5453
X7.372Y-1.8799
X7.372Y-2.7657
X7.374Y-2.2756
X7.374Y-3.1614
X7.3748Y-2.3031
X7.3748Y-3.189
X7.378Y-2.063
X7.378Y-2.0886
X7.378Y-2.9488
X7.378Y-2.9744
X7.4173Y-5.3169
X7.4173Y-5.5039
X7.4173Y-5.5295
X7.4193Y-5.2894
X7.4213Y-4.8602
X7.4213Y-4.8858
X7.4213Y-5.1929
X7.4213Y-5.2185
X7.4213Y-5.4311
X7.4232Y-5.4075
X7.4252Y-5.0787
X7.4272Y-5.1063
X7.4272Y-4.4173
X7.4272Y-4.6043
X7.4272Y-4.6299
X7.4272Y-4.9843
X7.4272Y-5.0118
X7.4291Y-4.3898
X7.4291Y-4.8093
X7.4311Y-3.9606
X7.4311Y-3.9862
X7.4311Y-4.2933
X7.4311Y-4.3189
X7.4311Y-4.5315
X7.4331Y-4.5079
X7.435Y-4.1791
X7.437Y-4.2067
X7.437Y-4.0846
X7.437Y-4.1122
X7.439Y-3.9096
X7.439Y-4.7854
X7.4488Y-3.8858
X7.4724Y-2.0886
X7.4724Y-2.2756
X7.4724Y-2.3012
X7.4724Y-2.9744
X7.4724Y-3.1614
X7.4724Y-3.187
X7.4744Y-2.061
X7.4744Y-2.9469
X7.4764Y-1.6319
X7.4764Y-1.6575
X7.4764Y-1.9646
X7.4764Y-1.9902
X7.4764Y-2.2028
X7.4764Y-2.5177
X7.4764Y-2.5433
X7.4764Y-2.8504
X7.4764Y-2.876
X7.4764Y-3.0886
X7.4783Y-2.1791
X7.4783Y-3.065
X7.4803Y-1.8504
X7.4803Y-2.7362
X7.4823Y-1.878
X7.4823Y-2.7638
X7.4823Y-1.7559
X7.4823Y-1.7835
X7.4823Y-2.6417
X7.4823Y-2.6693
X7.4843Y-1.5809
X7.4843Y-2.4667
X7.4941Y-1.5571
X7.4941Y-2.4429
T3
X4.2311Y-4.5454
X4.2311Y-4.6327
X4.2323Y-4.5906
X4.248Y-4.6811
X4.25Y-5.4744
X4.313Y-5.3012
X4.3386Y-4.685
X4.3599Y-5.2857
X4.372Y-4.685
X4.39Y-2.54
X4.39Y-2.59
X4.39Y-2.64
X4.4075Y-4.6378
X4.4075Y-4.685
X4.4429Y-4.6358
X4.4587Y-3.0404
X4.4744Y-4.6358
X4.5079Y-4.6319
X4.5236Y-1.5807
X4.5969Y-3.4429
X4.6152Y-3.2833
X4.6425Y-5.1429
X4.6526Y-2.4154
X4.6676Y-2.2463
X4.6904Y-2.5951
X4.6929Y-1.7933
X4.6949Y-2.4124
X4.7014Y-2.2443
X4.81Y-2.0817
X4.8276Y-4.7102
X4.8425Y-1.8878
X4.8445Y-1.9646
X4.8697Y-4.7102
X4.8839Y-1.5787
X4.9203Y-4.7165
X4.9213Y-3.6024
X4.9417Y-5.1484
X4.9593Y-3.4941
X5.0079Y-1.8228
X5.0236Y-1.9272
X5.0827Y-1.9687
X5.09Y-3.978
X5.0933Y-2.3411
X5.2037Y-4.7047
X5.2037Y-4.7293
X5.2295Y-5.1335
X5.2303Y-1.5833
X5.2354Y-4.7232
X5.2781Y-1.9389
X5.2933Y-5.3307
X5.3376Y-1.9648
X5.3524Y-3.8524
X5.3642Y-1.8248
X5.374Y-1.874
X5.4136Y-4.4594
X5.4232Y-5.0472
X5.5111Y-1.8004
X5.5292Y-1.8251
X5.5846Y-1.5768
X5.5915Y-4.4941
X5.6122Y-4.3622
X5.6171Y-4.2953
X5.7835Y-1.6047
X5.8135Y-4.8936
X5.8287Y-2.4547
X5.8287Y-2.7736
X5.8289Y-3.7973
X5.8397Y-1.8819
X5.8401Y-4.1265
X5.8404Y-4.8178
X5.8484Y-2.0036
X5.8579Y-3.6118
X5.861Y-3.085
X5.8616Y-3.459
X5.8707Y-4.6838
X5.8711Y-2.5856
X5.8711Y-4.0089
X5.8718Y-2.2816
X5.8747Y-2.9254
X5.8774Y-4.4083
X5.9032Y-3.2068
X5.937Y-1.5876
X5.9481Y-4.3559
X5.9744Y-5.0906
X5.9921Y-1.8504
X6.1065Y-5.5156
X6.1083Y-5.3435
X6.2007Y-1.8543
X6.2126Y-3.375
X6.2126Y-3.4222
X6.2372Y-3.4715
X6.2402Y-3.3986
X6.2402Y-3.4419
X6.252Y-3.0581
X6.2717Y-3.376
X6.2756Y-3.2126
X6.2756Y-3.4222
X6.2854Y-1.5852
X6.2943Y-3.185
X6.3012Y-2.7343
X6.3012Y-2.7618
X6.3012Y-2.7943
X6.3115Y-2.6993
X6.312Y-2.6211
X6.3194Y-3.1599
X6.3435Y-2.6211
X6.3465Y-2.815
X6.3583Y-3.3661
X6.3691Y-2.6211
X6.4016Y-3.3701
X6.4199Y-1.8235
X6.437Y-3.3661
X6.4764Y-3.3583
X6.6693Y-1.5852
X7.0768Y-3.3504
X7.0768Y-3.3799
X7.0768Y-3.4114
X7.0768Y-3.4429
X7.0787Y-3.4783
X7.0787Y-3.689
X7.0807Y-3.622
X7.0807Y-3.6555
X7.0807Y-3.7244
X7.0807Y-3.7598
X7.1335Y-5.3713
X7.1398Y-5.4075
X7.1433Y-4.4717
X7.1496Y-4.5079
X7.1614Y-5.3598
X7.1622Y-5.389
X7.1677Y-5.422
X7.1713Y-4.4602
X7.172Y-4.4894
X7.1744Y-5.5276
X7.1776Y-4.5224
X7.1843Y-4.628
X7.1886Y-2.1429
X7.1886Y-3.0287
X7.189Y-3.3465
X7.1909Y-3.3799
X7.1909Y-3.4783
X7.1929Y-3.4469
X7.1949Y-2.1791
X7.1949Y-3.065
X7.1949Y-3.4134
X7.1949Y-3.7244
X7.1949Y-3.7539
X7.1961Y-5.1437
X7.1969Y-3.624
X7.1969Y-3.6575
X7.1988Y-3.6909
X7.2Y-5.1134
X7.2059Y-4.2441
X7.2098Y-4.2138
X7.2165Y-2.1315
X7.2165Y-3.0173
X7.2173Y-2.1606
X7.2173Y-3.0465
X7.2228Y-2.1937
X7.2228Y-3.0795
X7.2256Y-5.2864
X7.2295Y-2.2992
X7.2295Y-3.185
X7.2354Y-4.3868
X7.2374Y-5.0496
X7.2472Y-4.15
X7.2509Y-5.2864
X7.2512Y-1.9154
X7.2512Y-2.8012
X7.2531Y-5.0689
X7.2551Y-1.885
X7.2551Y-2.7709
X7.2608Y-4.3868
X7.263Y-4.1693
X7.2661Y-5.0465
X7.276Y-4.1469
X7.278Y-5.2878
X7.2795Y-5.5614
X7.2807Y-2.0581
X7.2807Y-2.9439
X7.2827Y-5.0673
X7.2878Y-4.3882
X7.2894Y-4.6618
X7.2925Y-1.8213
X7.2925Y-2.7071
X7.2925Y-4.1677
X7.2945Y-5.0421
X7.2976Y-5.2717
X7.3043Y-4.1425
X7.3061Y-2.0581
X7.3061Y-2.9439
X7.3075Y-4.372
X7.3083Y-1.8406
X7.3083Y-2.7264
X7.3102Y-4.8087
X7.3106Y-4.7827
X7.3108Y-5.2065
X7.3126Y-5.2339
X7.3134Y-4.978
X7.3142Y-5.0091
X7.3169Y-5.4417
X7.3173Y-5.4117
X7.3201Y-3.9091
X7.3205Y-3.8831
X7.3207Y-4.3069
X7.3213Y-1.8181
X7.3213Y-2.7039
X7.3224Y-4.3343
X7.3232Y-4.0783
X7.324Y-4.1094
X7.3268Y-4.5421
X7.3271Y-4.5121
X7.3331Y-2.0594
X7.3331Y-2.9453
X7.3346Y-2.3331
X7.3346Y-3.2189
X7.3378Y-1.839
X7.3378Y-2.7248
X7.3496Y-1.8138
X7.3496Y-2.6996
X7.3528Y-2.0433
X7.3528Y-2.9291
X7.3654Y-1.5803
X7.3654Y-2.4661
X7.3657Y-1.5543
X7.3657Y-2.4402
X7.3659Y-1.9781
X7.3659Y-2.864
X7.3677Y-2.0055
X7.3677Y-2.8913
X7.3685Y-1.7496
X7.3685Y-2.6354
X7.3693Y-1.7807
X7.3693Y-2.6665
X7.372Y-2.2134
X7.372Y-3.0992
X7.3724Y-2.1834
X7.3724Y-3.0692
X7.435Y-3.3583
X7.435Y-3.3878
X7.435Y-3.4193
X7.435Y-3.4508
X7.435Y-3.6949
X7.437Y-3.4862
X7.437Y-3.628
X7.437Y-3.6614
X7.437Y-3.7303
X7.437Y-3.7657
X7.5472Y-3.3543
X7.5492Y-3.3878
X7.5492Y-3.4862
X7.5512Y-3.4547
X7.5512Y-3.7303
X7.5512Y-3.7598
X7.5531Y-3.4213
X7.5531Y-3.6299
X7.5531Y-3.6634
X7.5551Y-3.6969
T4
X5.6575Y-5.5728
X5.6614Y-5.3681
X5.6755Y-5.5216
X5.6782Y-5.4166
X5.681Y-5.6218
X5.6838Y-5.3219
X5.7244Y-5.439
X5.7244Y-5.498
X5.7323Y-5.3051
X5.7323Y-5.6398
X5.7729Y-5.4222
X5.7757Y-5.516
X5.7785Y-5.3275
X5.7812Y-5.6162
X5.7953Y-5.376
X5.7992Y-5.565
X5.8898Y-5.5748
X5.8937Y-5.3701
X5.9077Y-5.5235
X5.9105Y-5.4186
X5.9133Y-5.6238
X5.9161Y-5.3239
X5.9567Y-5.4409
X5.9567Y-5.5
X5.9646Y-5.3071
X5.9646Y-5.6417
X6.0052Y-5.4241
X6.008Y-5.518
X6.0107Y-5.3295
X6.0135Y-5.6182
X6.0276Y-5.378
X6.0315Y-5.5669
X6.3051Y-5.5866
X6.3091Y-5.3819
X6.3231Y-5.5354
X6.3259Y-5.4304
X6.3287Y-5.6356
X6.3314Y-5.3357
X6.372Y-5.4528
X6.372Y-5.5118
X6.3799Y-5.3189
X6.3799Y-5.6535
X6.4205Y-5.4359
X6.4233Y-5.5298
X6.4261Y-5.3413
X6.4289Y-5.63
X6.4291Y-3.7884
X6.4291Y-3.8356
X6.4291Y-3.8868
X6.4291Y-3.9301
X6.4429Y-5.3898
X6.4469Y-5.5787
X6.4764Y-3.7884
X6.4764Y-3.8356
X6.4764Y-3.8868
X6.4764Y-3.9301
X7.8799Y-3.4783
X7.8839Y-3.6673
X7.8979Y-3.4271
X7.9007Y-3.7158
X7.9035Y-3.5273
X7.9062Y-3.6211
X7.9469Y-3.4035
X7.9469Y-3.7382
X7.9547Y-3.5453
X7.9547Y-3.6043
X7.9953Y-3.7214
X7.9981Y-3.4215
X8.0009Y-3.6267
X8.0037Y-3.5217
X8.0177Y-3.6752
X8.0217Y-3.4705
T5
X4.7797Y-3.1992
X4.7797Y-3.2492
X4.7797Y-3.2992
X4.7797Y-3.3492
X4.7797Y-3.3992
X4.8297Y-3.1992
X4.8297Y-3.2492
X4.8297Y-3.2992
X4.8297Y-3.3492
X4.8297Y-3.3992
T6
X4.6161Y-3.6969
X4.6161Y-3.7969
X4.6161Y-3.8969
X4.6161Y-3.9969
X4.7161Y-3.7465
X4.7161Y-3.8465
X4.7161Y-3.9465
X4.7161Y-4.0465
T7
X4.4291Y-2.0315
X4.4646Y-2.4803
X4.4646Y-2.5787
X4.5079Y-2.0315
X4.5433Y-2.4803
X4.5433Y-2.5787
X4.5866Y-2.0315
X4.6654Y-2.0315
T8
X4.0413Y-4.3917
X4.0413Y-4.5689
T9
X4.8041Y-4.9862
X4.9041Y-4.9862
X5.0248Y-5.4094
X5.1248Y-5.4094
X5.2618Y-4.9813
X5.2772Y-2.1598
X5.3516Y-5.4094
X5.3618Y-4.9813
X5.3772Y-2.1598
X5.4516Y-5.4094
X5.4772Y-2.1598
X5.8937Y-5.1752
X5.9937Y-5.1752
X6.3169Y-5.1732
X6.374Y-2.5039
X6.4169Y-5.1732
X6.474Y-2.5039
X7.7843Y-4.0843
X7.7843Y-4.1843
X7.7843Y-4.2843
X7.7843Y-4.3843
X7.7909Y-5.0189
X7.7909Y-5.1189
X7.7909Y-5.2189
X7.7909Y-5.3189
X7.8024Y-2.7024
X7.8024Y-2.8024
X7.8024Y-2.9024
X7.8024Y-3.0024
X8.0843Y-4.0843
X8.0843Y-4.1843
X8.0843Y-4.2843
X8.0843Y-4.3843
X8.0909Y-5.0189
X8.0909Y-5.1189
X8.0909Y-5.2189
X8.0909Y-5.3189
X8.1024Y-2.7024
X8.1024Y-2.8024
X8.1024Y-2.9024
X8.1024Y-3.0024
X8.128Y-2.0134
X8.128Y-2.1134
X8.128Y-2.2134
X8.128Y-2.3134
X8.1516Y-3.5315
X8.1516Y-3.6315
T10
X4.1728Y-3.6108
X4.1728Y-3.7108
X4.1728Y-4.0325
X4.1728Y-4.1325
T11
X4.126Y-4.7957
X4.126Y-4.8957
X4.126Y-5.0476
X4.126Y-5.1476
X4.128Y-5.3016
X4.128Y-5.4016
X4.4122Y-1.6969
X4.4472Y-5.5846
X4.5122Y-1.6969
X4.5472Y-5.5846
X4.6122Y-1.6969
X4.7091Y-5.5846
X4.7646Y-1.6969
X4.8091Y-5.5846
X4.8646Y-1.6969
X4.9646Y-1.6969
X5.115Y-1.6969
X5.215Y-1.6969
X5.315Y-1.6969
X5.4654Y-1.6969
X5.5654Y-1.6969
X5.6654Y-1.6969
X5.8157Y-1.6969
X5.9157Y-1.6969
X6.0157Y-1.6969
X6.1642Y-1.6969
X6.2642Y-1.6969
X6.3642Y-1.6969
X6.5169Y-1.628
X6.6169Y-1.628
X6.7169Y-1.628
X6.8169Y-1.628
T12
X4.1394Y-4.3421
X4.1394Y-4.6181
X4.3366Y-4.4508
X4.4744Y-4.4508
X4.6949Y-4.4508
X4.8327Y-4.4508
T13
X4.4004Y-1.9244
X4.4004Y-2.1386
X4.676Y-1.9244
X4.676Y-2.1386
X5.0059Y-5.5844
X5.1437Y-5.5844
X5.3327Y-5.5844
X5.4705Y-5.5844
X7.9843Y-4.0276
X7.9843Y-4.1654
X7.9843Y-4.3031
X7.9843Y-4.4409
X7.9909Y-4.9622
X7.9909Y-5.1
X7.9909Y-5.2378
X7.9909Y-5.3756
X8.0024Y-2.6457
X8.0024Y-2.7835
X8.0024Y-2.9213
X8.0024Y-3.0591
X8.028Y-1.9567
X8.028Y-2.0945
X8.028Y-2.2323
X8.028Y-2.3701
T14
X4.4858Y-3.5667
X4.4858Y-4.1766
T15
X4.3579Y-2.2925
X4.3579Y-2.7665
T16
X5.7283Y-5.372
X5.7283Y-5.5689
X5.9606Y-5.374
X5.9606Y-5.5709
X6.376Y-5.3858
X6.376Y-5.5827
X7.9508Y-3.4744
X7.9508Y-3.6713
T17
X4.1272Y-1.6941
X4.1272Y-5.6311
M30
