M48
;DRILL file {KiCad 4.0.1-stable} date 2017-01-07 21:59:15
;FORMAT={2:4/ absolute / inch / suppress leading zeros}
FMAT,2
INCH,TZ
T1C0.016
T2C0.039
T3C0.047
T4C0.055
T5C0.126
%
G90
G05
M72
T1
X43502Y-30232
X44592Y-26872
X45478Y-30334
X46346Y-27490
X46746Y-26502
X49374Y-26086
T2
X27902Y-22531
X27902Y-23531
X27902Y-24531
X27902Y-25531
X28902Y-22531
X28902Y-23531
X28902Y-24531
X28902Y-25531
X29902Y-22531
X29902Y-23531
X29902Y-24531
X29902Y-25531
X30902Y-22531
X30902Y-23531
X30902Y-24531
X30902Y-25531
X31902Y-22531
X31902Y-23531
X31902Y-24531
X31902Y-25531
X32902Y-22531
X32902Y-23531
X32902Y-24531
X32902Y-25531
X33902Y-22531
X33902Y-23531
X33902Y-24531
X33902Y-25531
X34902Y-22531
X34902Y-23531
X34902Y-24531
X34902Y-25531
X35902Y-22531
X35902Y-23531
X35902Y-24531
X35902Y-25531
X36302Y-29534
X36302Y-30534
X36302Y-31534
X36902Y-22531
X36902Y-23531
X36902Y-24531
X36902Y-25531
X37902Y-22531
X37902Y-23531
X37902Y-24531
X37902Y-25531
X38902Y-22531
X38902Y-23531
X38902Y-24531
X38902Y-25531
X39902Y-22531
X39902Y-23531
X39902Y-24531
X39902Y-25531
X40902Y-22531
X40902Y-23531
X40902Y-24531
X40902Y-25531
X41902Y-22531
X41902Y-23531
X41902Y-24531
X41902Y-25531
X42902Y-22531
X42902Y-23531
X42902Y-24531
X42902Y-25531
X43902Y-22531
X43902Y-23531
X43902Y-24531
X43902Y-25531
X44902Y-22531
X44902Y-23531
X44902Y-24531
X44902Y-25531
X45902Y-22531
X45902Y-23531
X45902Y-24531
X45902Y-25531
X46902Y-22531
X46902Y-23531
X46902Y-24531
X46902Y-25531
T3
X48634Y-25180
X48634Y-29800
T4
X27869Y-27701
X27869Y-29079
T5
X25984Y-23031
X25984Y-32087
X48819Y-23031
X48819Y-32087
T0
M30
