G04 #@! TF.FileFunction,Legend,Top*
%FSLAX46Y46*%
G04 Gerber Fmt 4.6, Leading zero omitted, Abs format (unit mm)*
G04 Created by KiCad (PCBNEW 4.0.1-stable) date 2017-01-07 21:59:04*
%MOMM*%
G01*
G04 APERTURE LIST*
%ADD10C,0.100000*%
%ADD11C,0.150000*%
%ADD12C,0.120000*%
G04 APERTURE END LIST*
D10*
D11*
X-61792920Y31693640D02*
X-44292920Y31693640D01*
X-44292920Y43193640D02*
X-61792920Y43193640D01*
X-44292920Y31693640D02*
X-44292920Y43193640D01*
X-61792920Y31693640D02*
X-61792920Y43193640D01*
X-30528000Y37006000D02*
X-30528000Y35006000D01*
X-33478000Y35006000D02*
X-33478000Y37006000D01*
D12*
X-61702160Y47160680D02*
X-61702160Y43860680D01*
X-61702160Y43860680D02*
X-56302160Y43860680D01*
X-61702160Y47160680D02*
X-56302160Y47160680D01*
X-54473320Y47155600D02*
X-54473320Y43855600D01*
X-54473320Y43855600D02*
X-49073320Y43855600D01*
X-54473320Y47155600D02*
X-49073320Y47155600D01*
D11*
X-63013800Y38689400D02*
X-63013800Y47089400D01*
X-72213800Y47089400D02*
X-63013800Y47089400D01*
X-72213800Y38689400D02*
X-72213800Y47089400D01*
X-72213800Y38689400D02*
X-63013800Y38689400D01*
D12*
X-62860000Y48760000D02*
X-14480000Y48760000D01*
X-14480000Y48760000D02*
X-14480000Y51540000D01*
X-14480000Y51540000D02*
X-62860000Y51540000D01*
X-62860000Y51540000D02*
X-62860000Y48760000D01*
X-64130000Y48760000D02*
X-65520000Y48760000D01*
X-65520000Y48760000D02*
X-65520000Y50150000D01*
X-62860000Y53840000D02*
X-14480000Y53840000D01*
X-14480000Y53840000D02*
X-14480000Y59160000D01*
X-14480000Y59160000D02*
X-65520000Y59160000D01*
X-65520000Y59160000D02*
X-65520000Y56500000D01*
X-65520000Y56500000D02*
X-62860000Y56500000D01*
X-62860000Y56500000D02*
X-62860000Y53840000D01*
X-64130000Y53840000D02*
X-65520000Y53840000D01*
X-65520000Y53840000D02*
X-65520000Y55230000D01*
D11*
X-8929640Y51525400D02*
X-8929640Y38825400D01*
X-8929640Y38825400D02*
X-14009640Y38825400D01*
X-14009640Y51525400D02*
X-14009640Y38825400D01*
X-8929640Y51525400D02*
X-14009640Y51525400D01*
D12*
X-62860000Y51300000D02*
X-14480000Y51300000D01*
X-14480000Y51300000D02*
X-14480000Y54080000D01*
X-14480000Y54080000D02*
X-62860000Y54080000D01*
X-62860000Y54080000D02*
X-62860000Y51300000D01*
X-64130000Y51300000D02*
X-65520000Y51300000D01*
X-65520000Y51300000D02*
X-65520000Y52690000D01*
X-25591940Y31497700D02*
X-23991940Y31497700D01*
X-23991940Y31497700D02*
X-23991940Y34097700D01*
X-25591940Y31497700D02*
X-25591940Y34097700D01*
X-27496940Y31497700D02*
X-25896940Y31497700D01*
X-25896940Y31497700D02*
X-25896940Y34097700D01*
X-27496940Y31497700D02*
X-27496940Y34097700D01*
X-21364940Y31517700D02*
X-21364940Y32447700D01*
X-21364940Y34677700D02*
X-21364940Y33747700D01*
X-21364940Y34677700D02*
X-23524940Y34677700D01*
X-21364940Y31517700D02*
X-22824940Y31517700D01*
X-17872440Y31517700D02*
X-17872440Y32447700D01*
X-17872440Y34677700D02*
X-17872440Y33747700D01*
X-17872440Y34677700D02*
X-20032440Y34677700D01*
X-17872440Y31517700D02*
X-19332440Y31517700D01*
D11*
X-25466940Y35772700D02*
X-25466940Y36772700D01*
X-24116940Y36772700D02*
X-24116940Y35772700D01*
X-23688940Y35772700D02*
X-23688940Y36772700D01*
X-22338940Y36772700D02*
X-22338940Y35772700D01*
X-20196440Y35772700D02*
X-20196440Y36772700D01*
X-18846440Y36772700D02*
X-18846440Y35772700D01*
X-27371940Y35772700D02*
X-27371940Y36772700D01*
X-26021940Y36772700D02*
X-26021940Y35772700D01*
X-63040539Y32881735D02*
X-62231015Y32881735D01*
X-62135777Y32929354D01*
X-62088158Y32976973D01*
X-62040539Y33072211D01*
X-62040539Y33262688D01*
X-62088158Y33357926D01*
X-62135777Y33405545D01*
X-62231015Y33453164D01*
X-63040539Y33453164D01*
X-62040539Y34453164D02*
X-62040539Y33881735D01*
X-62040539Y34167449D02*
X-63040539Y34167449D01*
X-62897682Y34072211D01*
X-62802444Y33976973D01*
X-62754825Y33881735D01*
X-32159506Y38597457D02*
X-32207125Y38549838D01*
X-32349982Y38502219D01*
X-32445220Y38502219D01*
X-32588078Y38549838D01*
X-32683316Y38645076D01*
X-32730935Y38740314D01*
X-32778554Y38930790D01*
X-32778554Y39073648D01*
X-32730935Y39264124D01*
X-32683316Y39359362D01*
X-32588078Y39454600D01*
X-32445220Y39502219D01*
X-32349982Y39502219D01*
X-32207125Y39454600D01*
X-32159506Y39406981D01*
X-31207125Y38502219D02*
X-31778554Y38502219D01*
X-31492840Y38502219D02*
X-31492840Y39502219D01*
X-31588078Y39359362D01*
X-31683316Y39264124D01*
X-31778554Y39216505D01*
X-56363095Y47491619D02*
X-56363095Y48491619D01*
X-56125000Y48491619D01*
X-55982142Y48444000D01*
X-55886904Y48348762D01*
X-55839285Y48253524D01*
X-55791666Y48063048D01*
X-55791666Y47920190D01*
X-55839285Y47729714D01*
X-55886904Y47634476D01*
X-55982142Y47539238D01*
X-56125000Y47491619D01*
X-56363095Y47491619D01*
X-54839285Y47491619D02*
X-55410714Y47491619D01*
X-55125000Y47491619D02*
X-55125000Y48491619D01*
X-55220238Y48348762D01*
X-55315476Y48253524D01*
X-55410714Y48205905D01*
X-49124095Y47491619D02*
X-49124095Y48491619D01*
X-48886000Y48491619D01*
X-48743142Y48444000D01*
X-48647904Y48348762D01*
X-48600285Y48253524D01*
X-48552666Y48063048D01*
X-48552666Y47920190D01*
X-48600285Y47729714D01*
X-48647904Y47634476D01*
X-48743142Y47539238D01*
X-48886000Y47491619D01*
X-49124095Y47491619D01*
X-48171714Y48396381D02*
X-48124095Y48444000D01*
X-48028857Y48491619D01*
X-47790761Y48491619D01*
X-47695523Y48444000D01*
X-47647904Y48396381D01*
X-47600285Y48301143D01*
X-47600285Y48205905D01*
X-47647904Y48063048D01*
X-48219333Y47491619D01*
X-47600285Y47491619D01*
X-65811895Y37357019D02*
X-65811895Y38357019D01*
X-65430942Y38357019D01*
X-65335704Y38309400D01*
X-65288085Y38261781D01*
X-65240466Y38166543D01*
X-65240466Y38023686D01*
X-65288085Y37928448D01*
X-65335704Y37880829D01*
X-65430942Y37833210D01*
X-65811895Y37833210D01*
X-64288085Y37357019D02*
X-64859514Y37357019D01*
X-64573800Y37357019D02*
X-64573800Y38357019D01*
X-64669038Y38214162D01*
X-64764276Y38118924D01*
X-64859514Y38071305D01*
X-66067619Y49411905D02*
X-67067619Y49411905D01*
X-67067619Y49792858D01*
X-67020000Y49888096D01*
X-66972381Y49935715D01*
X-66877143Y49983334D01*
X-66734286Y49983334D01*
X-66639048Y49935715D01*
X-66591429Y49888096D01*
X-66543810Y49792858D01*
X-66543810Y49411905D01*
X-66972381Y50364286D02*
X-67020000Y50411905D01*
X-67067619Y50507143D01*
X-67067619Y50745239D01*
X-67020000Y50840477D01*
X-66972381Y50888096D01*
X-66877143Y50935715D01*
X-66781905Y50935715D01*
X-66639048Y50888096D01*
X-66067619Y50316667D01*
X-66067619Y50935715D01*
X-66067619Y55761905D02*
X-67067619Y55761905D01*
X-67067619Y56142858D01*
X-67020000Y56238096D01*
X-66972381Y56285715D01*
X-66877143Y56333334D01*
X-66734286Y56333334D01*
X-66639048Y56285715D01*
X-66591429Y56238096D01*
X-66543810Y56142858D01*
X-66543810Y55761905D01*
X-67067619Y56666667D02*
X-67067619Y57285715D01*
X-66686667Y56952381D01*
X-66686667Y57095239D01*
X-66639048Y57190477D01*
X-66591429Y57238096D01*
X-66496190Y57285715D01*
X-66258095Y57285715D01*
X-66162857Y57238096D01*
X-66115238Y57190477D01*
X-66067619Y57095239D01*
X-66067619Y56809524D01*
X-66115238Y56714286D01*
X-66162857Y56666667D01*
X-10389095Y51809619D02*
X-10389095Y52809619D01*
X-10008142Y52809619D01*
X-9912904Y52762000D01*
X-9865285Y52714381D01*
X-9817666Y52619143D01*
X-9817666Y52476286D01*
X-9865285Y52381048D01*
X-9912904Y52333429D01*
X-10008142Y52285810D01*
X-10389095Y52285810D01*
X-8960523Y52476286D02*
X-8960523Y51809619D01*
X-9198619Y52857238D02*
X-9436714Y52142952D01*
X-8817666Y52142952D01*
X-66067619Y51951905D02*
X-67067619Y51951905D01*
X-67067619Y52332858D01*
X-67020000Y52428096D01*
X-66972381Y52475715D01*
X-66877143Y52523334D01*
X-66734286Y52523334D01*
X-66639048Y52475715D01*
X-66591429Y52428096D01*
X-66543810Y52332858D01*
X-66543810Y51951905D01*
X-67067619Y53428096D02*
X-67067619Y52951905D01*
X-66591429Y52904286D01*
X-66639048Y52951905D01*
X-66686667Y53047143D01*
X-66686667Y53285239D01*
X-66639048Y53380477D01*
X-66591429Y53428096D01*
X-66496190Y53475715D01*
X-66258095Y53475715D01*
X-66162857Y53428096D01*
X-66115238Y53380477D01*
X-66067619Y53285239D01*
X-66067619Y53047143D01*
X-66115238Y52951905D01*
X-66162857Y52904286D01*
X-27867619Y32346905D02*
X-28867619Y32346905D01*
X-28867619Y32585000D01*
X-28820000Y32727858D01*
X-28724762Y32823096D01*
X-28629524Y32870715D01*
X-28439048Y32918334D01*
X-28296190Y32918334D01*
X-28105714Y32870715D01*
X-28010476Y32823096D01*
X-27915238Y32727858D01*
X-27867619Y32585000D01*
X-27867619Y32346905D01*
X-28867619Y33251667D02*
X-28867619Y33870715D01*
X-28486667Y33537381D01*
X-28486667Y33680239D01*
X-28439048Y33775477D01*
X-28391429Y33823096D01*
X-28296190Y33870715D01*
X-28058095Y33870715D01*
X-27962857Y33823096D01*
X-27915238Y33775477D01*
X-27867619Y33680239D01*
X-27867619Y33394524D01*
X-27915238Y33299286D01*
X-27962857Y33251667D01*
X-29137619Y32346905D02*
X-30137619Y32346905D01*
X-30137619Y32585000D01*
X-30090000Y32727858D01*
X-29994762Y32823096D01*
X-29899524Y32870715D01*
X-29709048Y32918334D01*
X-29566190Y32918334D01*
X-29375714Y32870715D01*
X-29280476Y32823096D01*
X-29185238Y32727858D01*
X-29137619Y32585000D01*
X-29137619Y32346905D01*
X-29804286Y33775477D02*
X-29137619Y33775477D01*
X-30185238Y33537381D02*
X-29470952Y33299286D01*
X-29470952Y33918334D01*
X-21303238Y34950381D02*
X-21398476Y34998000D01*
X-21493714Y35093238D01*
X-21636571Y35236095D01*
X-21731810Y35283714D01*
X-21827048Y35283714D01*
X-21779429Y35045619D02*
X-21874667Y35093238D01*
X-21969905Y35188476D01*
X-22017524Y35378952D01*
X-22017524Y35712286D01*
X-21969905Y35902762D01*
X-21874667Y35998000D01*
X-21779429Y36045619D01*
X-21588952Y36045619D01*
X-21493714Y35998000D01*
X-21398476Y35902762D01*
X-21350857Y35712286D01*
X-21350857Y35378952D01*
X-21398476Y35188476D01*
X-21493714Y35093238D01*
X-21588952Y35045619D01*
X-21779429Y35045619D01*
X-20398476Y35045619D02*
X-20969905Y35045619D01*
X-20684191Y35045619D02*
X-20684191Y36045619D01*
X-20779429Y35902762D01*
X-20874667Y35807524D01*
X-20969905Y35759905D01*
X-17874238Y34950381D02*
X-17969476Y34998000D01*
X-18064714Y35093238D01*
X-18207571Y35236095D01*
X-18302810Y35283714D01*
X-18398048Y35283714D01*
X-18350429Y35045619D02*
X-18445667Y35093238D01*
X-18540905Y35188476D01*
X-18588524Y35378952D01*
X-18588524Y35712286D01*
X-18540905Y35902762D01*
X-18445667Y35998000D01*
X-18350429Y36045619D01*
X-18159952Y36045619D01*
X-18064714Y35998000D01*
X-17969476Y35902762D01*
X-17921857Y35712286D01*
X-17921857Y35378952D01*
X-17969476Y35188476D01*
X-18064714Y35093238D01*
X-18159952Y35045619D01*
X-18350429Y35045619D01*
X-17540905Y35950381D02*
X-17493286Y35998000D01*
X-17398048Y36045619D01*
X-17159952Y36045619D01*
X-17064714Y35998000D01*
X-17017095Y35950381D01*
X-16969476Y35855143D01*
X-16969476Y35759905D01*
X-17017095Y35617048D01*
X-17588524Y35045619D01*
X-16969476Y35045619D01*
X-24930666Y38728619D02*
X-25264000Y39204810D01*
X-25502095Y38728619D02*
X-25502095Y39728619D01*
X-25121142Y39728619D01*
X-25025904Y39681000D01*
X-24978285Y39633381D01*
X-24930666Y39538143D01*
X-24930666Y39395286D01*
X-24978285Y39300048D01*
X-25025904Y39252429D01*
X-25121142Y39204810D01*
X-25502095Y39204810D01*
X-23978285Y38728619D02*
X-24549714Y38728619D01*
X-24264000Y38728619D02*
X-24264000Y39728619D01*
X-24359238Y39585762D01*
X-24454476Y39490524D01*
X-24549714Y39442905D01*
X-23152666Y37966619D02*
X-23486000Y38442810D01*
X-23724095Y37966619D02*
X-23724095Y38966619D01*
X-23343142Y38966619D01*
X-23247904Y38919000D01*
X-23200285Y38871381D01*
X-23152666Y38776143D01*
X-23152666Y38633286D01*
X-23200285Y38538048D01*
X-23247904Y38490429D01*
X-23343142Y38442810D01*
X-23724095Y38442810D01*
X-22771714Y38871381D02*
X-22724095Y38919000D01*
X-22628857Y38966619D01*
X-22390761Y38966619D01*
X-22295523Y38919000D01*
X-22247904Y38871381D01*
X-22200285Y38776143D01*
X-22200285Y38680905D01*
X-22247904Y38538048D01*
X-22819333Y37966619D01*
X-22200285Y37966619D01*
X-19723666Y38728619D02*
X-20057000Y39204810D01*
X-20295095Y38728619D02*
X-20295095Y39728619D01*
X-19914142Y39728619D01*
X-19818904Y39681000D01*
X-19771285Y39633381D01*
X-19723666Y39538143D01*
X-19723666Y39395286D01*
X-19771285Y39300048D01*
X-19818904Y39252429D01*
X-19914142Y39204810D01*
X-20295095Y39204810D01*
X-19390333Y39728619D02*
X-18771285Y39728619D01*
X-19104619Y39347667D01*
X-18961761Y39347667D01*
X-18866523Y39300048D01*
X-18818904Y39252429D01*
X-18771285Y39157190D01*
X-18771285Y38919095D01*
X-18818904Y38823857D01*
X-18866523Y38776238D01*
X-18961761Y38728619D01*
X-19247476Y38728619D01*
X-19342714Y38776238D01*
X-19390333Y38823857D01*
X-26835666Y37839619D02*
X-27169000Y38315810D01*
X-27407095Y37839619D02*
X-27407095Y38839619D01*
X-27026142Y38839619D01*
X-26930904Y38792000D01*
X-26883285Y38744381D01*
X-26835666Y38649143D01*
X-26835666Y38506286D01*
X-26883285Y38411048D01*
X-26930904Y38363429D01*
X-27026142Y38315810D01*
X-27407095Y38315810D01*
X-25978523Y38506286D02*
X-25978523Y37839619D01*
X-26216619Y38887238D02*
X-26454714Y38172952D01*
X-25835666Y38172952D01*
M02*
