M48
;DRILL file {KiCad 4.0.2+dfsg1-stable} date vie 26 may 2017 18:32:59 CEST
;FORMAT={-:-/ absolute / metric / decimal}
FMAT,2
METRIC,TZ
T1C0.300
T2C0.400
T3C1.016
%
G90
G05
M71
T1
X107.734Y-63.729
X109.258Y-63.729
X109.258Y-65.507
X110.782Y-63.729
X110.909Y-65.507
X111.925Y-67.412
X112.306Y-63.729
X112.56Y-65.507
X113.576Y-67.412
X113.83Y-63.729
X114.338Y-65.507
X115.227Y-67.412
X115.354Y-63.983
X115.862Y-65.507
X116.243Y-48.616
X116.243Y-51.41
X116.243Y-54.204
X116.243Y-57.252
X116.243Y-59.03
X116.243Y-61.316
X116.878Y-63.983
X118.783Y-48.616
X118.783Y-51.41
X118.783Y-54.204
X118.783Y-57.252
X118.783Y-59.03
X118.783Y-61.316
X120.815Y-61.316
X121.069Y-48.616
T2
X104.813Y-48.616
X113.957Y-69.571
X113.957Y-70.46
X129.197Y-73.
T3
X167.297Y-54.204
X169.837Y-54.204
X172.377Y-54.204
X174.917Y-54.204
X176.441Y-102.464
X177.457Y-54.204
X178.981Y-102.464
X179.997Y-54.204
X181.521Y-102.464
X182.537Y-54.204
X184.061Y-102.464
X185.077Y-54.204
X186.601Y-102.464
X187.617Y-54.204
X189.141Y-102.464
X190.157Y-54.204
X191.681Y-102.464
X194.221Y-54.204
X194.221Y-102.464
X196.761Y-54.204
X199.301Y-54.204
X199.301Y-102.464
X201.841Y-54.204
X201.841Y-102.464
X204.381Y-54.204
X204.381Y-102.464
X206.921Y-54.204
X206.921Y-102.464
X209.461Y-54.204
X209.461Y-102.464
X212.001Y-54.204
X212.001Y-102.464
X212.128Y-74.524
X212.128Y-77.064
X212.128Y-79.604
X214.668Y-74.524
X214.668Y-77.064
X214.668Y-79.604
T0
M30
