G04 #@! TF.FileFunction,Copper,L2,Bot,Signal*
%FSLAX46Y46*%
G04 Gerber Fmt 4.6, Leading zero omitted, Abs format (unit mm)*
G04 Created by KiCad (PCBNEW 4.0.2+dfsg1-stable) date vie 26 may 2017 18:32:50 CEST*
%MOMM*%
G01*
G04 APERTURE LIST*
%ADD10C,0.100000*%
%ADD11C,0.600000*%
%ADD12C,1.879600*%
%ADD13C,1.270000*%
%ADD14C,0.254000*%
%ADD15C,0.250000*%
%ADD16C,0.800000*%
%ADD17C,0.300000*%
G04 APERTURE END LIST*
D10*
D11*
X116878100Y-63982600D03*
X110909100Y-65506600D03*
X111925100Y-67411600D03*
X114338100Y-65506600D03*
X109258100Y-65506600D03*
X113576100Y-67411600D03*
X115354100Y-63982600D03*
X112306100Y-63728600D03*
X113830100Y-63728600D03*
X115227100Y-67411600D03*
X115862100Y-65506600D03*
X112560100Y-65506600D03*
X107734100Y-63728600D03*
X110782100Y-63728600D03*
X109258100Y-63728600D03*
X120815100Y-61315600D03*
X118783100Y-61315600D03*
X116243100Y-61315600D03*
X116243100Y-59029600D03*
X118783100Y-59029600D03*
X118783100Y-57251600D03*
X116243100Y-57251600D03*
X116243100Y-54203600D03*
X118783100Y-54203600D03*
X121069100Y-48615600D03*
X118783100Y-48615600D03*
X116243100Y-48615600D03*
X118783100Y-51409600D03*
X116243100Y-51409600D03*
D12*
X196761100Y-54203600D03*
X199301100Y-54203600D03*
X201841100Y-54203600D03*
X204381100Y-54203600D03*
X206921100Y-54203600D03*
X209461100Y-54203600D03*
X212001100Y-54203600D03*
X194221100Y-54203600D03*
X174917100Y-54203600D03*
X177457100Y-54203600D03*
X179997100Y-54203600D03*
X182537100Y-54203600D03*
X185077100Y-54203600D03*
X187617100Y-54203600D03*
X190157100Y-54203600D03*
X172377100Y-54203600D03*
X169837100Y-54203600D03*
X167297100Y-54203600D03*
X201841100Y-102463600D03*
X204381100Y-102463600D03*
X206921100Y-102463600D03*
X209461100Y-102463600D03*
X212001100Y-102463600D03*
X199301100Y-102463600D03*
X181521100Y-102463600D03*
X184061100Y-102463600D03*
X186601100Y-102463600D03*
X189141100Y-102463600D03*
X191681100Y-102463600D03*
X194221100Y-102463600D03*
X178981100Y-102463600D03*
X176441100Y-102463600D03*
X214668100Y-79603600D03*
X212128100Y-79603600D03*
X214668100Y-77063600D03*
X212128100Y-77063600D03*
X214668100Y-74523600D03*
X212128100Y-74523600D03*
D13*
X117574000Y-85090000D03*
X129314000Y-85090000D03*
X117574000Y-99060000D03*
X129314000Y-99060000D03*
X98270000Y-70104000D03*
X110010000Y-70104000D03*
X117574000Y-70104000D03*
X129314000Y-70104000D03*
X117574000Y-55880000D03*
X129314000Y-55880000D03*
X98270000Y-55880000D03*
X110010000Y-55880000D03*
D11*
X113957100Y-69570600D03*
X113957100Y-70459600D03*
X129197100Y-72999600D03*
X104813100Y-48615600D03*
D14*
X115862100Y-69570600D02*
X113957100Y-69570600D01*
X130975100Y-69697600D02*
X130213100Y-68935600D01*
X130213100Y-68935600D02*
X128689100Y-68935600D01*
X128689100Y-68935600D02*
X127800100Y-69824600D01*
X127800100Y-69824600D02*
X119291100Y-69824600D01*
X119291100Y-69824600D02*
X118402100Y-68935600D01*
X118402100Y-68935600D02*
X116497100Y-68935600D01*
X116497100Y-68935600D02*
X115862100Y-69570600D01*
X169837100Y-53695600D02*
X167043100Y-50901600D01*
X167043100Y-50901600D02*
X158407100Y-50901600D01*
X158407100Y-50901600D02*
X139611100Y-69697600D01*
X139611100Y-69697600D02*
X130975100Y-69697600D01*
X113957100Y-69570600D02*
X113957100Y-69570600D01*
D15*
X169837100Y-54203600D02*
X169837100Y-53695600D01*
D14*
X119291100Y-70332600D02*
X118402100Y-71221600D01*
X118402100Y-71221600D02*
X118275100Y-71221600D01*
X116497100Y-71221600D02*
X115735100Y-70459600D01*
X131102100Y-70332600D02*
X130213100Y-71221600D01*
X130213100Y-71221600D02*
X128562100Y-71221600D01*
X128562100Y-71221600D02*
X127673100Y-70332600D01*
X127673100Y-70332600D02*
X119291100Y-70332600D01*
X118275100Y-71221600D02*
X116497100Y-71221600D01*
X167297100Y-52425600D02*
X167297100Y-54203600D01*
X158661100Y-51409600D02*
X139738100Y-70332600D01*
X166281100Y-51409600D02*
X158661100Y-51409600D01*
X167297100Y-52425600D02*
X166281100Y-51409600D01*
X139738100Y-70332600D02*
X131102100Y-70332600D01*
X115227100Y-70459600D02*
X115735100Y-70459600D01*
D15*
X115227100Y-70459600D02*
X113957100Y-70459600D01*
X115227100Y-70459600D02*
X113957100Y-70459600D01*
X208191100Y-73253600D02*
X208445100Y-73253600D01*
X195745100Y-73253600D02*
X179997100Y-57505600D01*
X179997100Y-54203600D02*
X179997100Y-57505600D01*
X208191100Y-73253600D02*
X195745100Y-73253600D01*
X209715100Y-74523600D02*
X212128100Y-74523600D01*
X208445100Y-73253600D02*
X209715100Y-74523600D01*
X214668100Y-77063600D02*
X214287100Y-77063600D01*
X214287100Y-77063600D02*
X216319100Y-77063600D01*
X216319100Y-77063600D02*
X216573100Y-76809600D01*
X216573100Y-76809600D02*
X216573100Y-73761600D01*
X216573100Y-73761600D02*
X215303100Y-72491600D01*
X215303100Y-72491600D02*
X195745100Y-72491600D01*
X195745100Y-72491600D02*
X182537100Y-59283600D01*
X182537100Y-59283600D02*
X182537100Y-54203600D01*
D14*
X129197100Y-72999600D02*
X167043100Y-72999600D01*
X167043100Y-72999600D02*
X168821100Y-71221600D01*
X177457100Y-62839600D02*
X168821100Y-71221600D01*
X177457100Y-54203600D02*
X177457100Y-62839600D01*
D15*
X208064100Y-74015600D02*
X208191100Y-74015600D01*
X195745100Y-74015600D02*
X179235100Y-57505600D01*
X179235100Y-57505600D02*
X179235100Y-55981600D01*
X177457100Y-54203600D02*
X179235100Y-55981600D01*
X208064100Y-74015600D02*
X195745100Y-74015600D01*
X208191100Y-74015600D02*
X211239100Y-77063600D01*
X211239100Y-77063600D02*
X212128100Y-77063600D01*
D16*
X109639100Y-58775600D02*
X115989100Y-58775600D01*
X184061100Y-96621600D02*
X166281100Y-78841600D01*
X166281100Y-78841600D02*
X108623100Y-78841600D01*
X108623100Y-78841600D02*
X103543100Y-73761600D01*
X103543100Y-73761600D02*
X103543100Y-64871600D01*
X103543100Y-64871600D02*
X109639100Y-58775600D01*
X184061100Y-102463600D02*
X184061100Y-96621600D01*
X115989100Y-58775600D02*
X116243100Y-59029600D01*
X117259100Y-48615600D02*
X112179100Y-48615600D01*
X186601100Y-105765600D02*
X186601100Y-102463600D01*
X185077100Y-107289600D02*
X186601100Y-105765600D01*
X174409100Y-107289600D02*
X185077100Y-107289600D01*
X169837100Y-102717600D02*
X174409100Y-107289600D01*
X169837100Y-96113600D02*
X169837100Y-102717600D01*
X157137100Y-83413600D02*
X169837100Y-96113600D01*
X104813100Y-83413600D02*
X157137100Y-83413600D01*
X96431100Y-75031600D02*
X104813100Y-83413600D01*
X96431100Y-48107600D02*
X96431100Y-75031600D01*
X98209100Y-46329600D02*
X96431100Y-48107600D01*
X109893100Y-46329600D02*
X98209100Y-46329600D01*
X112179100Y-48615600D02*
X109893100Y-46329600D01*
D17*
X181521100Y-102463600D02*
X181521100Y-98653600D01*
X106083100Y-48615600D02*
X104813100Y-48615600D01*
X108369100Y-50901600D02*
X106083100Y-48615600D01*
X108369100Y-58013600D02*
X108369100Y-50901600D01*
X105575100Y-60807600D02*
X108369100Y-58013600D01*
X105575100Y-60807600D02*
X105575100Y-60807600D01*
X102019100Y-64363600D02*
X105575100Y-60807600D01*
X102019100Y-76047600D02*
X102019100Y-64363600D01*
X106845100Y-80873600D02*
X102019100Y-76047600D01*
X163741100Y-80873600D02*
X106845100Y-80873600D01*
X181521100Y-98653600D02*
X163741100Y-80873600D01*
D14*
G36*
X121704100Y-55092600D02*
X118582460Y-55092600D01*
X118294337Y-54803974D01*
X117827727Y-54610221D01*
X117322490Y-54609780D01*
X116855542Y-54802718D01*
X116565154Y-55092600D01*
X115354100Y-55092600D01*
X115354100Y-47980600D01*
X121704100Y-47980600D01*
X121704100Y-55092600D01*
X121704100Y-55092600D01*
G37*
X121704100Y-55092600D02*
X118582460Y-55092600D01*
X118294337Y-54803974D01*
X117827727Y-54610221D01*
X117322490Y-54609780D01*
X116855542Y-54802718D01*
X116565154Y-55092600D01*
X115354100Y-55092600D01*
X115354100Y-47980600D01*
X121704100Y-47980600D01*
X121704100Y-55092600D01*
G36*
X116303780Y-56131510D02*
X116496718Y-56598458D01*
X116853663Y-56956026D01*
X117320273Y-57149779D01*
X117825510Y-57150220D01*
X118292458Y-56957282D01*
X118650026Y-56600337D01*
X118843779Y-56133727D01*
X118844023Y-55854600D01*
X121704100Y-55854600D01*
X121704100Y-62204600D01*
X115354100Y-62204600D01*
X115354100Y-55854600D01*
X116304022Y-55854600D01*
X116303780Y-56131510D01*
X116303780Y-56131510D01*
G37*
X116303780Y-56131510D02*
X116496718Y-56598458D01*
X116853663Y-56956026D01*
X117320273Y-57149779D01*
X117825510Y-57150220D01*
X118292458Y-56957282D01*
X118650026Y-56600337D01*
X118843779Y-56133727D01*
X118844023Y-55854600D01*
X121704100Y-55854600D01*
X121704100Y-62204600D01*
X115354100Y-62204600D01*
X115354100Y-55854600D01*
X116304022Y-55854600D01*
X116303780Y-56131510D01*
G36*
X222923100Y-111099600D02*
X93129100Y-111099600D01*
X93129100Y-102906219D01*
X160235713Y-102906219D01*
X160575255Y-103727972D01*
X161203421Y-104357236D01*
X162024581Y-104698211D01*
X162913719Y-104698987D01*
X163735472Y-104359445D01*
X164364736Y-103731279D01*
X164705711Y-102910119D01*
X164706487Y-102020981D01*
X164366945Y-101199228D01*
X163738779Y-100569964D01*
X162917619Y-100228989D01*
X162028481Y-100228213D01*
X161206728Y-100567755D01*
X160577464Y-101195921D01*
X160236489Y-102017081D01*
X160235713Y-102906219D01*
X93129100Y-102906219D01*
X93129100Y-99311510D01*
X116303780Y-99311510D01*
X116496718Y-99778458D01*
X116853663Y-100136026D01*
X117320273Y-100329779D01*
X117825510Y-100330220D01*
X118292458Y-100137282D01*
X118650026Y-99780337D01*
X118843779Y-99313727D01*
X118843780Y-99311510D01*
X128043780Y-99311510D01*
X128236718Y-99778458D01*
X128593663Y-100136026D01*
X129060273Y-100329779D01*
X129565510Y-100330220D01*
X130032458Y-100137282D01*
X130390026Y-99780337D01*
X130583779Y-99313727D01*
X130584220Y-98808490D01*
X130391282Y-98341542D01*
X130034337Y-97983974D01*
X129567727Y-97790221D01*
X129062490Y-97789780D01*
X128595542Y-97982718D01*
X128237974Y-98339663D01*
X128044221Y-98806273D01*
X128043780Y-99311510D01*
X118843780Y-99311510D01*
X118844220Y-98808490D01*
X118651282Y-98341542D01*
X118294337Y-97983974D01*
X117827727Y-97790221D01*
X117322490Y-97789780D01*
X116855542Y-97982718D01*
X116497974Y-98339663D01*
X116304221Y-98806273D01*
X116303780Y-99311510D01*
X93129100Y-99311510D01*
X93129100Y-48107600D01*
X95396099Y-48107600D01*
X95396100Y-48107605D01*
X95396100Y-75031595D01*
X95396099Y-75031600D01*
X95474885Y-75427677D01*
X95699244Y-75763456D01*
X104081242Y-84145453D01*
X104081244Y-84145456D01*
X104416796Y-84369663D01*
X104417023Y-84369815D01*
X104813100Y-84448601D01*
X104813105Y-84448600D01*
X116465197Y-84448600D01*
X116304221Y-84836273D01*
X116303780Y-85341510D01*
X116496718Y-85808458D01*
X116853663Y-86166026D01*
X117320273Y-86359779D01*
X117825510Y-86360220D01*
X118292458Y-86167282D01*
X118650026Y-85810337D01*
X118843779Y-85343727D01*
X118844220Y-84838490D01*
X118683122Y-84448600D01*
X128205197Y-84448600D01*
X128044221Y-84836273D01*
X128043780Y-85341510D01*
X128236718Y-85808458D01*
X128593663Y-86166026D01*
X129060273Y-86359779D01*
X129565510Y-86360220D01*
X130032458Y-86167282D01*
X130390026Y-85810337D01*
X130583779Y-85343727D01*
X130584220Y-84838490D01*
X130423122Y-84448600D01*
X156708388Y-84448600D01*
X168802100Y-96542311D01*
X168802100Y-102717595D01*
X168802099Y-102717600D01*
X168880885Y-103113677D01*
X169105244Y-103449456D01*
X173677242Y-108021453D01*
X173677244Y-108021456D01*
X173878529Y-108155949D01*
X174013022Y-108245815D01*
X174409100Y-108324600D01*
X185077095Y-108324600D01*
X185077100Y-108324601D01*
X185473177Y-108245815D01*
X185808956Y-108021456D01*
X187332953Y-106497458D01*
X187332956Y-106497456D01*
X187495226Y-106254600D01*
X187557315Y-106161678D01*
X187636100Y-105765600D01*
X187636100Y-103655567D01*
X187935372Y-103356817D01*
X188175626Y-102778221D01*
X188175628Y-102775473D01*
X192646027Y-102775473D01*
X192885271Y-103354487D01*
X193327883Y-103797872D01*
X193906479Y-104038126D01*
X194532973Y-104038673D01*
X195111987Y-103799429D01*
X195555372Y-103356817D01*
X195795626Y-102778221D01*
X195795628Y-102775473D01*
X197726027Y-102775473D01*
X197965271Y-103354487D01*
X198407883Y-103797872D01*
X198986479Y-104038126D01*
X199612973Y-104038673D01*
X200191987Y-103799429D01*
X200571373Y-103420704D01*
X200947883Y-103797872D01*
X201526479Y-104038126D01*
X202152973Y-104038673D01*
X202731987Y-103799429D01*
X203111373Y-103420704D01*
X203487883Y-103797872D01*
X204066479Y-104038126D01*
X204692973Y-104038673D01*
X205271987Y-103799429D01*
X205651373Y-103420704D01*
X206027883Y-103797872D01*
X206606479Y-104038126D01*
X207232973Y-104038673D01*
X207811987Y-103799429D01*
X208191373Y-103420704D01*
X208567883Y-103797872D01*
X209146479Y-104038126D01*
X209772973Y-104038673D01*
X210351987Y-103799429D01*
X210731373Y-103420704D01*
X211107883Y-103797872D01*
X211686479Y-104038126D01*
X212312973Y-104038673D01*
X212891987Y-103799429D01*
X213335372Y-103356817D01*
X213575626Y-102778221D01*
X213576173Y-102151727D01*
X213336929Y-101572713D01*
X212894317Y-101129328D01*
X212315721Y-100889074D01*
X211689227Y-100888527D01*
X211110213Y-101127771D01*
X210730827Y-101506496D01*
X210354317Y-101129328D01*
X209775721Y-100889074D01*
X209149227Y-100888527D01*
X208570213Y-101127771D01*
X208190827Y-101506496D01*
X207814317Y-101129328D01*
X207235721Y-100889074D01*
X206609227Y-100888527D01*
X206030213Y-101127771D01*
X205650827Y-101506496D01*
X205274317Y-101129328D01*
X204695721Y-100889074D01*
X204069227Y-100888527D01*
X203490213Y-101127771D01*
X203110827Y-101506496D01*
X202734317Y-101129328D01*
X202155721Y-100889074D01*
X201529227Y-100888527D01*
X200950213Y-101127771D01*
X200570827Y-101506496D01*
X200194317Y-101129328D01*
X199615721Y-100889074D01*
X198989227Y-100888527D01*
X198410213Y-101127771D01*
X197966828Y-101570383D01*
X197726574Y-102148979D01*
X197726027Y-102775473D01*
X195795628Y-102775473D01*
X195796173Y-102151727D01*
X195556929Y-101572713D01*
X195114317Y-101129328D01*
X194535721Y-100889074D01*
X193909227Y-100888527D01*
X193330213Y-101127771D01*
X192886828Y-101570383D01*
X192646574Y-102148979D01*
X192646027Y-102775473D01*
X188175628Y-102775473D01*
X188176173Y-102151727D01*
X187936929Y-101572713D01*
X187494317Y-101129328D01*
X186915721Y-100889074D01*
X186289227Y-100888527D01*
X185710213Y-101127771D01*
X185330827Y-101506496D01*
X185096100Y-101271359D01*
X185096100Y-97826219D01*
X212305713Y-97826219D01*
X212645255Y-98647972D01*
X213273421Y-99277236D01*
X214094581Y-99618211D01*
X214983719Y-99618987D01*
X215805472Y-99279445D01*
X216434736Y-98651279D01*
X216775711Y-97830119D01*
X216776487Y-96940981D01*
X216436945Y-96119228D01*
X215808779Y-95489964D01*
X214987619Y-95148989D01*
X214098481Y-95148213D01*
X213276728Y-95487755D01*
X212647464Y-96115921D01*
X212306489Y-96937081D01*
X212305713Y-97826219D01*
X185096100Y-97826219D01*
X185096100Y-96621605D01*
X185096101Y-96621600D01*
X185017315Y-96225523D01*
X184946291Y-96119228D01*
X184792956Y-95889744D01*
X184792953Y-95889742D01*
X167012956Y-78109744D01*
X166677177Y-77885385D01*
X166281100Y-77806599D01*
X166281095Y-77806600D01*
X109051811Y-77806600D01*
X104578100Y-73332888D01*
X104578100Y-73184767D01*
X128261938Y-73184767D01*
X128403983Y-73528543D01*
X128666773Y-73791792D01*
X129010301Y-73934438D01*
X129382267Y-73934762D01*
X129726043Y-73792717D01*
X129757214Y-73761600D01*
X167043100Y-73761600D01*
X167334705Y-73703596D01*
X167581915Y-73538415D01*
X169355928Y-71764403D01*
X177987814Y-63386397D01*
X177991103Y-63381630D01*
X177995915Y-63378415D01*
X178075389Y-63259474D01*
X178156666Y-63141679D01*
X178157880Y-63136018D01*
X178161096Y-63131205D01*
X178189016Y-62990844D01*
X178219014Y-62850972D01*
X178217970Y-62845281D01*
X178219100Y-62839600D01*
X178219100Y-56040402D01*
X178475100Y-56296402D01*
X178475100Y-57505600D01*
X178532952Y-57796439D01*
X178697699Y-58043001D01*
X195207699Y-74553001D01*
X195454261Y-74717748D01*
X195745100Y-74775600D01*
X207876298Y-74775600D01*
X210607144Y-77506446D01*
X210792271Y-77954487D01*
X211170996Y-78333873D01*
X210793828Y-78710383D01*
X210553574Y-79288979D01*
X210553027Y-79915473D01*
X210792271Y-80494487D01*
X211234883Y-80937872D01*
X211813479Y-81178126D01*
X212439973Y-81178673D01*
X213018987Y-80939429D01*
X213462372Y-80496817D01*
X213702626Y-79918221D01*
X213703173Y-79291727D01*
X213463929Y-78712713D01*
X213085204Y-78333327D01*
X213398373Y-78020704D01*
X213774883Y-78397872D01*
X214353479Y-78638126D01*
X214979973Y-78638673D01*
X215558987Y-78399429D01*
X216002372Y-77956817D01*
X216057689Y-77823600D01*
X216319100Y-77823600D01*
X216609939Y-77765748D01*
X216856501Y-77601001D01*
X217110501Y-77347001D01*
X217275248Y-77100440D01*
X217333100Y-76809600D01*
X217333100Y-73761600D01*
X217275248Y-73470761D01*
X217275248Y-73470760D01*
X217110501Y-73224199D01*
X215840501Y-71954199D01*
X215593939Y-71789452D01*
X215303100Y-71731600D01*
X196059902Y-71731600D01*
X194214521Y-69886219D01*
X212305713Y-69886219D01*
X212645255Y-70707972D01*
X213273421Y-71337236D01*
X214094581Y-71678211D01*
X214983719Y-71678987D01*
X215805472Y-71339445D01*
X216434736Y-70711279D01*
X216775711Y-69890119D01*
X216776487Y-69000981D01*
X216436945Y-68179228D01*
X215808779Y-67549964D01*
X214987619Y-67208989D01*
X214098481Y-67208213D01*
X213276728Y-67547755D01*
X212647464Y-68175921D01*
X212306489Y-68997081D01*
X212305713Y-69886219D01*
X194214521Y-69886219D01*
X183297100Y-58968798D01*
X183297100Y-55593510D01*
X183427987Y-55539429D01*
X183807373Y-55160704D01*
X184183883Y-55537872D01*
X184762479Y-55778126D01*
X185388973Y-55778673D01*
X185967987Y-55539429D01*
X186347373Y-55160704D01*
X186723883Y-55537872D01*
X187302479Y-55778126D01*
X187928973Y-55778673D01*
X188507987Y-55539429D01*
X188887373Y-55160704D01*
X189263883Y-55537872D01*
X189842479Y-55778126D01*
X190468973Y-55778673D01*
X191047987Y-55539429D01*
X191491372Y-55096817D01*
X191731626Y-54518221D01*
X191731628Y-54515473D01*
X192646027Y-54515473D01*
X192885271Y-55094487D01*
X193327883Y-55537872D01*
X193906479Y-55778126D01*
X194532973Y-55778673D01*
X195111987Y-55539429D01*
X195491373Y-55160704D01*
X195867883Y-55537872D01*
X196446479Y-55778126D01*
X197072973Y-55778673D01*
X197651987Y-55539429D01*
X198031373Y-55160704D01*
X198407883Y-55537872D01*
X198986479Y-55778126D01*
X199612973Y-55778673D01*
X200191987Y-55539429D01*
X200571373Y-55160704D01*
X200947883Y-55537872D01*
X201526479Y-55778126D01*
X202152973Y-55778673D01*
X202731987Y-55539429D01*
X203111373Y-55160704D01*
X203487883Y-55537872D01*
X204066479Y-55778126D01*
X204692973Y-55778673D01*
X205271987Y-55539429D01*
X205651373Y-55160704D01*
X206027883Y-55537872D01*
X206606479Y-55778126D01*
X207232973Y-55778673D01*
X207811987Y-55539429D01*
X208191373Y-55160704D01*
X208567883Y-55537872D01*
X209146479Y-55778126D01*
X209772973Y-55778673D01*
X210351987Y-55539429D01*
X210731373Y-55160704D01*
X211107883Y-55537872D01*
X211686479Y-55778126D01*
X212312973Y-55778673D01*
X212891987Y-55539429D01*
X213335372Y-55096817D01*
X213575626Y-54518221D01*
X213576173Y-53891727D01*
X213336929Y-53312713D01*
X212894317Y-52869328D01*
X212315721Y-52629074D01*
X211689227Y-52628527D01*
X211110213Y-52867771D01*
X210730827Y-53246496D01*
X210354317Y-52869328D01*
X209775721Y-52629074D01*
X209149227Y-52628527D01*
X208570213Y-52867771D01*
X208190827Y-53246496D01*
X207814317Y-52869328D01*
X207235721Y-52629074D01*
X206609227Y-52628527D01*
X206030213Y-52867771D01*
X205650827Y-53246496D01*
X205274317Y-52869328D01*
X204695721Y-52629074D01*
X204069227Y-52628527D01*
X203490213Y-52867771D01*
X203110827Y-53246496D01*
X202734317Y-52869328D01*
X202155721Y-52629074D01*
X201529227Y-52628527D01*
X200950213Y-52867771D01*
X200570827Y-53246496D01*
X200194317Y-52869328D01*
X199615721Y-52629074D01*
X198989227Y-52628527D01*
X198410213Y-52867771D01*
X198030827Y-53246496D01*
X197654317Y-52869328D01*
X197075721Y-52629074D01*
X196449227Y-52628527D01*
X195870213Y-52867771D01*
X195490827Y-53246496D01*
X195114317Y-52869328D01*
X194535721Y-52629074D01*
X193909227Y-52628527D01*
X193330213Y-52867771D01*
X192886828Y-53310383D01*
X192646574Y-53888979D01*
X192646027Y-54515473D01*
X191731628Y-54515473D01*
X191732173Y-53891727D01*
X191492929Y-53312713D01*
X191050317Y-52869328D01*
X190471721Y-52629074D01*
X189845227Y-52628527D01*
X189266213Y-52867771D01*
X188886827Y-53246496D01*
X188510317Y-52869328D01*
X187931721Y-52629074D01*
X187305227Y-52628527D01*
X186726213Y-52867771D01*
X186346827Y-53246496D01*
X185970317Y-52869328D01*
X185391721Y-52629074D01*
X184765227Y-52628527D01*
X184186213Y-52867771D01*
X183806827Y-53246496D01*
X183430317Y-52869328D01*
X182851721Y-52629074D01*
X182225227Y-52628527D01*
X181646213Y-52867771D01*
X181266827Y-53246496D01*
X180890317Y-52869328D01*
X180311721Y-52629074D01*
X179685227Y-52628527D01*
X179106213Y-52867771D01*
X178726827Y-53246496D01*
X178350317Y-52869328D01*
X177771721Y-52629074D01*
X177145227Y-52628527D01*
X176566213Y-52867771D01*
X176122828Y-53310383D01*
X175882574Y-53888979D01*
X175882027Y-54515473D01*
X176121271Y-55094487D01*
X176563883Y-55537872D01*
X176695100Y-55592358D01*
X176695100Y-62517287D01*
X168290386Y-70674804D01*
X168287100Y-70679567D01*
X168282285Y-70682784D01*
X166727470Y-72237600D01*
X129757566Y-72237600D01*
X129727427Y-72207408D01*
X129383899Y-72064762D01*
X129011933Y-72064438D01*
X128668157Y-72206483D01*
X128404908Y-72469273D01*
X128262262Y-72812801D01*
X128261938Y-73184767D01*
X104578100Y-73184767D01*
X104578100Y-70355510D01*
X108739780Y-70355510D01*
X108932718Y-70822458D01*
X109289663Y-71180026D01*
X109756273Y-71373779D01*
X110261510Y-71374220D01*
X110728458Y-71181282D01*
X111086026Y-70824337D01*
X111279779Y-70357727D01*
X111280220Y-69852490D01*
X111240256Y-69755767D01*
X113021938Y-69755767D01*
X113129180Y-70015314D01*
X113022262Y-70272801D01*
X113021938Y-70644767D01*
X113163983Y-70988543D01*
X113426773Y-71251792D01*
X113770301Y-71394438D01*
X114142267Y-71394762D01*
X114486043Y-71252717D01*
X114519218Y-71219600D01*
X115217045Y-71219600D01*
X115227100Y-71221600D01*
X115419470Y-71221600D01*
X115958285Y-71760416D01*
X116106477Y-71859434D01*
X116205495Y-71925596D01*
X116497100Y-71983600D01*
X118402100Y-71983600D01*
X118693705Y-71925596D01*
X118940915Y-71760415D01*
X119606730Y-71094600D01*
X127357470Y-71094600D01*
X128023285Y-71760415D01*
X128270495Y-71925596D01*
X128562100Y-71983600D01*
X130213100Y-71983600D01*
X130504705Y-71925596D01*
X130751915Y-71760415D01*
X131417730Y-71094600D01*
X139738100Y-71094600D01*
X140029705Y-71036596D01*
X140276915Y-70871415D01*
X158976731Y-52171600D01*
X162806248Y-52171600D01*
X162476728Y-52307755D01*
X161847464Y-52935921D01*
X161506489Y-53757081D01*
X161505713Y-54646219D01*
X161845255Y-55467972D01*
X162473421Y-56097236D01*
X163294581Y-56438211D01*
X164183719Y-56438987D01*
X165005472Y-56099445D01*
X165634736Y-55471279D01*
X165876442Y-54889185D01*
X165961271Y-55094487D01*
X166403883Y-55537872D01*
X166982479Y-55778126D01*
X167608973Y-55778673D01*
X168187987Y-55539429D01*
X168567373Y-55160704D01*
X168943883Y-55537872D01*
X169522479Y-55778126D01*
X170148973Y-55778673D01*
X170727987Y-55539429D01*
X171107373Y-55160704D01*
X171483883Y-55537872D01*
X172062479Y-55778126D01*
X172688973Y-55778673D01*
X173267987Y-55539429D01*
X173711372Y-55096817D01*
X173951626Y-54518221D01*
X173952173Y-53891727D01*
X173712929Y-53312713D01*
X173270317Y-52869328D01*
X172691721Y-52629074D01*
X172065227Y-52628527D01*
X171486213Y-52867771D01*
X171106827Y-53246496D01*
X170730317Y-52869328D01*
X170151721Y-52629074D01*
X169847940Y-52628809D01*
X167581915Y-50362785D01*
X167557574Y-50346521D01*
X167334705Y-50197604D01*
X167043100Y-50139600D01*
X158407100Y-50139600D01*
X158115495Y-50197604D01*
X157868285Y-50362785D01*
X139295470Y-68935600D01*
X131290731Y-68935600D01*
X130751915Y-68396785D01*
X130751914Y-68396784D01*
X130504705Y-68231604D01*
X130213100Y-68173600D01*
X128689100Y-68173600D01*
X128397495Y-68231604D01*
X128150286Y-68396784D01*
X127484470Y-69062600D01*
X119606730Y-69062600D01*
X118940914Y-68396784D01*
X118693705Y-68231604D01*
X118402100Y-68173600D01*
X116497100Y-68173600D01*
X116205495Y-68231604D01*
X116106477Y-68297766D01*
X115958285Y-68396784D01*
X115546470Y-68808600D01*
X114517566Y-68808600D01*
X114487427Y-68778408D01*
X114143899Y-68635762D01*
X113771933Y-68635438D01*
X113428157Y-68777483D01*
X113164908Y-69040273D01*
X113022262Y-69383801D01*
X113021938Y-69755767D01*
X111240256Y-69755767D01*
X111087282Y-69385542D01*
X110730337Y-69027974D01*
X110263727Y-68834221D01*
X109758490Y-68833780D01*
X109291542Y-69026718D01*
X108933974Y-69383663D01*
X108740221Y-69850273D01*
X108739780Y-70355510D01*
X104578100Y-70355510D01*
X104578100Y-65300312D01*
X110067811Y-59810600D01*
X114338100Y-59810600D01*
X114338100Y-63347600D01*
X114348106Y-63397010D01*
X114376547Y-63438635D01*
X114418941Y-63465915D01*
X114465100Y-63474600D01*
X122847100Y-63474600D01*
X122896510Y-63464594D01*
X122938135Y-63436153D01*
X122965415Y-63393759D01*
X122974100Y-63347600D01*
X122974100Y-56131510D01*
X128043780Y-56131510D01*
X128236718Y-56598458D01*
X128593663Y-56956026D01*
X129060273Y-57149779D01*
X129565510Y-57150220D01*
X130032458Y-56957282D01*
X130390026Y-56600337D01*
X130583779Y-56133727D01*
X130584220Y-55628490D01*
X130391282Y-55161542D01*
X130034337Y-54803974D01*
X129567727Y-54610221D01*
X129062490Y-54609780D01*
X128595542Y-54802718D01*
X128237974Y-55159663D01*
X128044221Y-55626273D01*
X128043780Y-56131510D01*
X122974100Y-56131510D01*
X122974100Y-47218600D01*
X122964094Y-47169190D01*
X122935653Y-47127565D01*
X122893259Y-47100285D01*
X122847100Y-47091600D01*
X114465100Y-47091600D01*
X114415690Y-47101606D01*
X114374065Y-47130047D01*
X114346785Y-47172441D01*
X114338100Y-47218600D01*
X114338100Y-47580600D01*
X111718811Y-47580600D01*
X109735956Y-45597744D01*
X109400177Y-45373385D01*
X109004100Y-45294599D01*
X109004095Y-45294600D01*
X98209105Y-45294600D01*
X98209100Y-45294599D01*
X97813023Y-45373385D01*
X97477244Y-45597744D01*
X97477242Y-45597747D01*
X95699244Y-47375744D01*
X95474885Y-47711523D01*
X95396099Y-48107600D01*
X93129100Y-48107600D01*
X93129100Y-41376600D01*
X222923100Y-41376600D01*
X222923100Y-111099600D01*
X222923100Y-111099600D01*
G37*
X222923100Y-111099600D02*
X93129100Y-111099600D01*
X93129100Y-102906219D01*
X160235713Y-102906219D01*
X160575255Y-103727972D01*
X161203421Y-104357236D01*
X162024581Y-104698211D01*
X162913719Y-104698987D01*
X163735472Y-104359445D01*
X164364736Y-103731279D01*
X164705711Y-102910119D01*
X164706487Y-102020981D01*
X164366945Y-101199228D01*
X163738779Y-100569964D01*
X162917619Y-100228989D01*
X162028481Y-100228213D01*
X161206728Y-100567755D01*
X160577464Y-101195921D01*
X160236489Y-102017081D01*
X160235713Y-102906219D01*
X93129100Y-102906219D01*
X93129100Y-99311510D01*
X116303780Y-99311510D01*
X116496718Y-99778458D01*
X116853663Y-100136026D01*
X117320273Y-100329779D01*
X117825510Y-100330220D01*
X118292458Y-100137282D01*
X118650026Y-99780337D01*
X118843779Y-99313727D01*
X118843780Y-99311510D01*
X128043780Y-99311510D01*
X128236718Y-99778458D01*
X128593663Y-100136026D01*
X129060273Y-100329779D01*
X129565510Y-100330220D01*
X130032458Y-100137282D01*
X130390026Y-99780337D01*
X130583779Y-99313727D01*
X130584220Y-98808490D01*
X130391282Y-98341542D01*
X130034337Y-97983974D01*
X129567727Y-97790221D01*
X129062490Y-97789780D01*
X128595542Y-97982718D01*
X128237974Y-98339663D01*
X128044221Y-98806273D01*
X128043780Y-99311510D01*
X118843780Y-99311510D01*
X118844220Y-98808490D01*
X118651282Y-98341542D01*
X118294337Y-97983974D01*
X117827727Y-97790221D01*
X117322490Y-97789780D01*
X116855542Y-97982718D01*
X116497974Y-98339663D01*
X116304221Y-98806273D01*
X116303780Y-99311510D01*
X93129100Y-99311510D01*
X93129100Y-48107600D01*
X95396099Y-48107600D01*
X95396100Y-48107605D01*
X95396100Y-75031595D01*
X95396099Y-75031600D01*
X95474885Y-75427677D01*
X95699244Y-75763456D01*
X104081242Y-84145453D01*
X104081244Y-84145456D01*
X104416796Y-84369663D01*
X104417023Y-84369815D01*
X104813100Y-84448601D01*
X104813105Y-84448600D01*
X116465197Y-84448600D01*
X116304221Y-84836273D01*
X116303780Y-85341510D01*
X116496718Y-85808458D01*
X116853663Y-86166026D01*
X117320273Y-86359779D01*
X117825510Y-86360220D01*
X118292458Y-86167282D01*
X118650026Y-85810337D01*
X118843779Y-85343727D01*
X118844220Y-84838490D01*
X118683122Y-84448600D01*
X128205197Y-84448600D01*
X128044221Y-84836273D01*
X128043780Y-85341510D01*
X128236718Y-85808458D01*
X128593663Y-86166026D01*
X129060273Y-86359779D01*
X129565510Y-86360220D01*
X130032458Y-86167282D01*
X130390026Y-85810337D01*
X130583779Y-85343727D01*
X130584220Y-84838490D01*
X130423122Y-84448600D01*
X156708388Y-84448600D01*
X168802100Y-96542311D01*
X168802100Y-102717595D01*
X168802099Y-102717600D01*
X168880885Y-103113677D01*
X169105244Y-103449456D01*
X173677242Y-108021453D01*
X173677244Y-108021456D01*
X173878529Y-108155949D01*
X174013022Y-108245815D01*
X174409100Y-108324600D01*
X185077095Y-108324600D01*
X185077100Y-108324601D01*
X185473177Y-108245815D01*
X185808956Y-108021456D01*
X187332953Y-106497458D01*
X187332956Y-106497456D01*
X187495226Y-106254600D01*
X187557315Y-106161678D01*
X187636100Y-105765600D01*
X187636100Y-103655567D01*
X187935372Y-103356817D01*
X188175626Y-102778221D01*
X188175628Y-102775473D01*
X192646027Y-102775473D01*
X192885271Y-103354487D01*
X193327883Y-103797872D01*
X193906479Y-104038126D01*
X194532973Y-104038673D01*
X195111987Y-103799429D01*
X195555372Y-103356817D01*
X195795626Y-102778221D01*
X195795628Y-102775473D01*
X197726027Y-102775473D01*
X197965271Y-103354487D01*
X198407883Y-103797872D01*
X198986479Y-104038126D01*
X199612973Y-104038673D01*
X200191987Y-103799429D01*
X200571373Y-103420704D01*
X200947883Y-103797872D01*
X201526479Y-104038126D01*
X202152973Y-104038673D01*
X202731987Y-103799429D01*
X203111373Y-103420704D01*
X203487883Y-103797872D01*
X204066479Y-104038126D01*
X204692973Y-104038673D01*
X205271987Y-103799429D01*
X205651373Y-103420704D01*
X206027883Y-103797872D01*
X206606479Y-104038126D01*
X207232973Y-104038673D01*
X207811987Y-103799429D01*
X208191373Y-103420704D01*
X208567883Y-103797872D01*
X209146479Y-104038126D01*
X209772973Y-104038673D01*
X210351987Y-103799429D01*
X210731373Y-103420704D01*
X211107883Y-103797872D01*
X211686479Y-104038126D01*
X212312973Y-104038673D01*
X212891987Y-103799429D01*
X213335372Y-103356817D01*
X213575626Y-102778221D01*
X213576173Y-102151727D01*
X213336929Y-101572713D01*
X212894317Y-101129328D01*
X212315721Y-100889074D01*
X211689227Y-100888527D01*
X211110213Y-101127771D01*
X210730827Y-101506496D01*
X210354317Y-101129328D01*
X209775721Y-100889074D01*
X209149227Y-100888527D01*
X208570213Y-101127771D01*
X208190827Y-101506496D01*
X207814317Y-101129328D01*
X207235721Y-100889074D01*
X206609227Y-100888527D01*
X206030213Y-101127771D01*
X205650827Y-101506496D01*
X205274317Y-101129328D01*
X204695721Y-100889074D01*
X204069227Y-100888527D01*
X203490213Y-101127771D01*
X203110827Y-101506496D01*
X202734317Y-101129328D01*
X202155721Y-100889074D01*
X201529227Y-100888527D01*
X200950213Y-101127771D01*
X200570827Y-101506496D01*
X200194317Y-101129328D01*
X199615721Y-100889074D01*
X198989227Y-100888527D01*
X198410213Y-101127771D01*
X197966828Y-101570383D01*
X197726574Y-102148979D01*
X197726027Y-102775473D01*
X195795628Y-102775473D01*
X195796173Y-102151727D01*
X195556929Y-101572713D01*
X195114317Y-101129328D01*
X194535721Y-100889074D01*
X193909227Y-100888527D01*
X193330213Y-101127771D01*
X192886828Y-101570383D01*
X192646574Y-102148979D01*
X192646027Y-102775473D01*
X188175628Y-102775473D01*
X188176173Y-102151727D01*
X187936929Y-101572713D01*
X187494317Y-101129328D01*
X186915721Y-100889074D01*
X186289227Y-100888527D01*
X185710213Y-101127771D01*
X185330827Y-101506496D01*
X185096100Y-101271359D01*
X185096100Y-97826219D01*
X212305713Y-97826219D01*
X212645255Y-98647972D01*
X213273421Y-99277236D01*
X214094581Y-99618211D01*
X214983719Y-99618987D01*
X215805472Y-99279445D01*
X216434736Y-98651279D01*
X216775711Y-97830119D01*
X216776487Y-96940981D01*
X216436945Y-96119228D01*
X215808779Y-95489964D01*
X214987619Y-95148989D01*
X214098481Y-95148213D01*
X213276728Y-95487755D01*
X212647464Y-96115921D01*
X212306489Y-96937081D01*
X212305713Y-97826219D01*
X185096100Y-97826219D01*
X185096100Y-96621605D01*
X185096101Y-96621600D01*
X185017315Y-96225523D01*
X184946291Y-96119228D01*
X184792956Y-95889744D01*
X184792953Y-95889742D01*
X167012956Y-78109744D01*
X166677177Y-77885385D01*
X166281100Y-77806599D01*
X166281095Y-77806600D01*
X109051811Y-77806600D01*
X104578100Y-73332888D01*
X104578100Y-73184767D01*
X128261938Y-73184767D01*
X128403983Y-73528543D01*
X128666773Y-73791792D01*
X129010301Y-73934438D01*
X129382267Y-73934762D01*
X129726043Y-73792717D01*
X129757214Y-73761600D01*
X167043100Y-73761600D01*
X167334705Y-73703596D01*
X167581915Y-73538415D01*
X169355928Y-71764403D01*
X177987814Y-63386397D01*
X177991103Y-63381630D01*
X177995915Y-63378415D01*
X178075389Y-63259474D01*
X178156666Y-63141679D01*
X178157880Y-63136018D01*
X178161096Y-63131205D01*
X178189016Y-62990844D01*
X178219014Y-62850972D01*
X178217970Y-62845281D01*
X178219100Y-62839600D01*
X178219100Y-56040402D01*
X178475100Y-56296402D01*
X178475100Y-57505600D01*
X178532952Y-57796439D01*
X178697699Y-58043001D01*
X195207699Y-74553001D01*
X195454261Y-74717748D01*
X195745100Y-74775600D01*
X207876298Y-74775600D01*
X210607144Y-77506446D01*
X210792271Y-77954487D01*
X211170996Y-78333873D01*
X210793828Y-78710383D01*
X210553574Y-79288979D01*
X210553027Y-79915473D01*
X210792271Y-80494487D01*
X211234883Y-80937872D01*
X211813479Y-81178126D01*
X212439973Y-81178673D01*
X213018987Y-80939429D01*
X213462372Y-80496817D01*
X213702626Y-79918221D01*
X213703173Y-79291727D01*
X213463929Y-78712713D01*
X213085204Y-78333327D01*
X213398373Y-78020704D01*
X213774883Y-78397872D01*
X214353479Y-78638126D01*
X214979973Y-78638673D01*
X215558987Y-78399429D01*
X216002372Y-77956817D01*
X216057689Y-77823600D01*
X216319100Y-77823600D01*
X216609939Y-77765748D01*
X216856501Y-77601001D01*
X217110501Y-77347001D01*
X217275248Y-77100440D01*
X217333100Y-76809600D01*
X217333100Y-73761600D01*
X217275248Y-73470761D01*
X217275248Y-73470760D01*
X217110501Y-73224199D01*
X215840501Y-71954199D01*
X215593939Y-71789452D01*
X215303100Y-71731600D01*
X196059902Y-71731600D01*
X194214521Y-69886219D01*
X212305713Y-69886219D01*
X212645255Y-70707972D01*
X213273421Y-71337236D01*
X214094581Y-71678211D01*
X214983719Y-71678987D01*
X215805472Y-71339445D01*
X216434736Y-70711279D01*
X216775711Y-69890119D01*
X216776487Y-69000981D01*
X216436945Y-68179228D01*
X215808779Y-67549964D01*
X214987619Y-67208989D01*
X214098481Y-67208213D01*
X213276728Y-67547755D01*
X212647464Y-68175921D01*
X212306489Y-68997081D01*
X212305713Y-69886219D01*
X194214521Y-69886219D01*
X183297100Y-58968798D01*
X183297100Y-55593510D01*
X183427987Y-55539429D01*
X183807373Y-55160704D01*
X184183883Y-55537872D01*
X184762479Y-55778126D01*
X185388973Y-55778673D01*
X185967987Y-55539429D01*
X186347373Y-55160704D01*
X186723883Y-55537872D01*
X187302479Y-55778126D01*
X187928973Y-55778673D01*
X188507987Y-55539429D01*
X188887373Y-55160704D01*
X189263883Y-55537872D01*
X189842479Y-55778126D01*
X190468973Y-55778673D01*
X191047987Y-55539429D01*
X191491372Y-55096817D01*
X191731626Y-54518221D01*
X191731628Y-54515473D01*
X192646027Y-54515473D01*
X192885271Y-55094487D01*
X193327883Y-55537872D01*
X193906479Y-55778126D01*
X194532973Y-55778673D01*
X195111987Y-55539429D01*
X195491373Y-55160704D01*
X195867883Y-55537872D01*
X196446479Y-55778126D01*
X197072973Y-55778673D01*
X197651987Y-55539429D01*
X198031373Y-55160704D01*
X198407883Y-55537872D01*
X198986479Y-55778126D01*
X199612973Y-55778673D01*
X200191987Y-55539429D01*
X200571373Y-55160704D01*
X200947883Y-55537872D01*
X201526479Y-55778126D01*
X202152973Y-55778673D01*
X202731987Y-55539429D01*
X203111373Y-55160704D01*
X203487883Y-55537872D01*
X204066479Y-55778126D01*
X204692973Y-55778673D01*
X205271987Y-55539429D01*
X205651373Y-55160704D01*
X206027883Y-55537872D01*
X206606479Y-55778126D01*
X207232973Y-55778673D01*
X207811987Y-55539429D01*
X208191373Y-55160704D01*
X208567883Y-55537872D01*
X209146479Y-55778126D01*
X209772973Y-55778673D01*
X210351987Y-55539429D01*
X210731373Y-55160704D01*
X211107883Y-55537872D01*
X211686479Y-55778126D01*
X212312973Y-55778673D01*
X212891987Y-55539429D01*
X213335372Y-55096817D01*
X213575626Y-54518221D01*
X213576173Y-53891727D01*
X213336929Y-53312713D01*
X212894317Y-52869328D01*
X212315721Y-52629074D01*
X211689227Y-52628527D01*
X211110213Y-52867771D01*
X210730827Y-53246496D01*
X210354317Y-52869328D01*
X209775721Y-52629074D01*
X209149227Y-52628527D01*
X208570213Y-52867771D01*
X208190827Y-53246496D01*
X207814317Y-52869328D01*
X207235721Y-52629074D01*
X206609227Y-52628527D01*
X206030213Y-52867771D01*
X205650827Y-53246496D01*
X205274317Y-52869328D01*
X204695721Y-52629074D01*
X204069227Y-52628527D01*
X203490213Y-52867771D01*
X203110827Y-53246496D01*
X202734317Y-52869328D01*
X202155721Y-52629074D01*
X201529227Y-52628527D01*
X200950213Y-52867771D01*
X200570827Y-53246496D01*
X200194317Y-52869328D01*
X199615721Y-52629074D01*
X198989227Y-52628527D01*
X198410213Y-52867771D01*
X198030827Y-53246496D01*
X197654317Y-52869328D01*
X197075721Y-52629074D01*
X196449227Y-52628527D01*
X195870213Y-52867771D01*
X195490827Y-53246496D01*
X195114317Y-52869328D01*
X194535721Y-52629074D01*
X193909227Y-52628527D01*
X193330213Y-52867771D01*
X192886828Y-53310383D01*
X192646574Y-53888979D01*
X192646027Y-54515473D01*
X191731628Y-54515473D01*
X191732173Y-53891727D01*
X191492929Y-53312713D01*
X191050317Y-52869328D01*
X190471721Y-52629074D01*
X189845227Y-52628527D01*
X189266213Y-52867771D01*
X188886827Y-53246496D01*
X188510317Y-52869328D01*
X187931721Y-52629074D01*
X187305227Y-52628527D01*
X186726213Y-52867771D01*
X186346827Y-53246496D01*
X185970317Y-52869328D01*
X185391721Y-52629074D01*
X184765227Y-52628527D01*
X184186213Y-52867771D01*
X183806827Y-53246496D01*
X183430317Y-52869328D01*
X182851721Y-52629074D01*
X182225227Y-52628527D01*
X181646213Y-52867771D01*
X181266827Y-53246496D01*
X180890317Y-52869328D01*
X180311721Y-52629074D01*
X179685227Y-52628527D01*
X179106213Y-52867771D01*
X178726827Y-53246496D01*
X178350317Y-52869328D01*
X177771721Y-52629074D01*
X177145227Y-52628527D01*
X176566213Y-52867771D01*
X176122828Y-53310383D01*
X175882574Y-53888979D01*
X175882027Y-54515473D01*
X176121271Y-55094487D01*
X176563883Y-55537872D01*
X176695100Y-55592358D01*
X176695100Y-62517287D01*
X168290386Y-70674804D01*
X168287100Y-70679567D01*
X168282285Y-70682784D01*
X166727470Y-72237600D01*
X129757566Y-72237600D01*
X129727427Y-72207408D01*
X129383899Y-72064762D01*
X129011933Y-72064438D01*
X128668157Y-72206483D01*
X128404908Y-72469273D01*
X128262262Y-72812801D01*
X128261938Y-73184767D01*
X104578100Y-73184767D01*
X104578100Y-70355510D01*
X108739780Y-70355510D01*
X108932718Y-70822458D01*
X109289663Y-71180026D01*
X109756273Y-71373779D01*
X110261510Y-71374220D01*
X110728458Y-71181282D01*
X111086026Y-70824337D01*
X111279779Y-70357727D01*
X111280220Y-69852490D01*
X111240256Y-69755767D01*
X113021938Y-69755767D01*
X113129180Y-70015314D01*
X113022262Y-70272801D01*
X113021938Y-70644767D01*
X113163983Y-70988543D01*
X113426773Y-71251792D01*
X113770301Y-71394438D01*
X114142267Y-71394762D01*
X114486043Y-71252717D01*
X114519218Y-71219600D01*
X115217045Y-71219600D01*
X115227100Y-71221600D01*
X115419470Y-71221600D01*
X115958285Y-71760416D01*
X116106477Y-71859434D01*
X116205495Y-71925596D01*
X116497100Y-71983600D01*
X118402100Y-71983600D01*
X118693705Y-71925596D01*
X118940915Y-71760415D01*
X119606730Y-71094600D01*
X127357470Y-71094600D01*
X128023285Y-71760415D01*
X128270495Y-71925596D01*
X128562100Y-71983600D01*
X130213100Y-71983600D01*
X130504705Y-71925596D01*
X130751915Y-71760415D01*
X131417730Y-71094600D01*
X139738100Y-71094600D01*
X140029705Y-71036596D01*
X140276915Y-70871415D01*
X158976731Y-52171600D01*
X162806248Y-52171600D01*
X162476728Y-52307755D01*
X161847464Y-52935921D01*
X161506489Y-53757081D01*
X161505713Y-54646219D01*
X161845255Y-55467972D01*
X162473421Y-56097236D01*
X163294581Y-56438211D01*
X164183719Y-56438987D01*
X165005472Y-56099445D01*
X165634736Y-55471279D01*
X165876442Y-54889185D01*
X165961271Y-55094487D01*
X166403883Y-55537872D01*
X166982479Y-55778126D01*
X167608973Y-55778673D01*
X168187987Y-55539429D01*
X168567373Y-55160704D01*
X168943883Y-55537872D01*
X169522479Y-55778126D01*
X170148973Y-55778673D01*
X170727987Y-55539429D01*
X171107373Y-55160704D01*
X171483883Y-55537872D01*
X172062479Y-55778126D01*
X172688973Y-55778673D01*
X173267987Y-55539429D01*
X173711372Y-55096817D01*
X173951626Y-54518221D01*
X173952173Y-53891727D01*
X173712929Y-53312713D01*
X173270317Y-52869328D01*
X172691721Y-52629074D01*
X172065227Y-52628527D01*
X171486213Y-52867771D01*
X171106827Y-53246496D01*
X170730317Y-52869328D01*
X170151721Y-52629074D01*
X169847940Y-52628809D01*
X167581915Y-50362785D01*
X167557574Y-50346521D01*
X167334705Y-50197604D01*
X167043100Y-50139600D01*
X158407100Y-50139600D01*
X158115495Y-50197604D01*
X157868285Y-50362785D01*
X139295470Y-68935600D01*
X131290731Y-68935600D01*
X130751915Y-68396785D01*
X130751914Y-68396784D01*
X130504705Y-68231604D01*
X130213100Y-68173600D01*
X128689100Y-68173600D01*
X128397495Y-68231604D01*
X128150286Y-68396784D01*
X127484470Y-69062600D01*
X119606730Y-69062600D01*
X118940914Y-68396784D01*
X118693705Y-68231604D01*
X118402100Y-68173600D01*
X116497100Y-68173600D01*
X116205495Y-68231604D01*
X116106477Y-68297766D01*
X115958285Y-68396784D01*
X115546470Y-68808600D01*
X114517566Y-68808600D01*
X114487427Y-68778408D01*
X114143899Y-68635762D01*
X113771933Y-68635438D01*
X113428157Y-68777483D01*
X113164908Y-69040273D01*
X113022262Y-69383801D01*
X113021938Y-69755767D01*
X111240256Y-69755767D01*
X111087282Y-69385542D01*
X110730337Y-69027974D01*
X110263727Y-68834221D01*
X109758490Y-68833780D01*
X109291542Y-69026718D01*
X108933974Y-69383663D01*
X108740221Y-69850273D01*
X108739780Y-70355510D01*
X104578100Y-70355510D01*
X104578100Y-65300312D01*
X110067811Y-59810600D01*
X114338100Y-59810600D01*
X114338100Y-63347600D01*
X114348106Y-63397010D01*
X114376547Y-63438635D01*
X114418941Y-63465915D01*
X114465100Y-63474600D01*
X122847100Y-63474600D01*
X122896510Y-63464594D01*
X122938135Y-63436153D01*
X122965415Y-63393759D01*
X122974100Y-63347600D01*
X122974100Y-56131510D01*
X128043780Y-56131510D01*
X128236718Y-56598458D01*
X128593663Y-56956026D01*
X129060273Y-57149779D01*
X129565510Y-57150220D01*
X130032458Y-56957282D01*
X130390026Y-56600337D01*
X130583779Y-56133727D01*
X130584220Y-55628490D01*
X130391282Y-55161542D01*
X130034337Y-54803974D01*
X129567727Y-54610221D01*
X129062490Y-54609780D01*
X128595542Y-54802718D01*
X128237974Y-55159663D01*
X128044221Y-55626273D01*
X128043780Y-56131510D01*
X122974100Y-56131510D01*
X122974100Y-47218600D01*
X122964094Y-47169190D01*
X122935653Y-47127565D01*
X122893259Y-47100285D01*
X122847100Y-47091600D01*
X114465100Y-47091600D01*
X114415690Y-47101606D01*
X114374065Y-47130047D01*
X114346785Y-47172441D01*
X114338100Y-47218600D01*
X114338100Y-47580600D01*
X111718811Y-47580600D01*
X109735956Y-45597744D01*
X109400177Y-45373385D01*
X109004100Y-45294599D01*
X109004095Y-45294600D01*
X98209105Y-45294600D01*
X98209100Y-45294599D01*
X97813023Y-45373385D01*
X97477244Y-45597744D01*
X97477242Y-45597747D01*
X95699244Y-47375744D01*
X95474885Y-47711523D01*
X95396099Y-48107600D01*
X93129100Y-48107600D01*
X93129100Y-41376600D01*
X222923100Y-41376600D01*
X222923100Y-111099600D01*
M02*
