G04 #@! TF.FileFunction,Profile,NP*
%FSLAX46Y46*%
G04 Gerber Fmt 4.6, Leading zero omitted, Abs format (unit mm)*
G04 Created by KiCad (PCBNEW 4.0.2+dfsg1-stable) date vie 26 may 2017 18:32:50 CEST*
%MOMM*%
G01*
G04 APERTURE LIST*
%ADD10C,0.100000*%
%ADD11C,0.150000*%
%ADD12C,0.203200*%
G04 APERTURE END LIST*
D10*
D11*
X93002100Y-111226600D02*
X223050100Y-111226600D01*
X93002100Y-41249600D02*
X93002100Y-111226600D01*
X223050100Y-41249600D02*
X93002100Y-41249600D01*
X223050100Y-111226600D02*
X223050100Y-41249600D01*
D12*
X173293919Y-71763467D02*
X174442967Y-71763467D01*
X173064110Y-72452895D02*
X173868443Y-70039895D01*
X174672776Y-72452895D01*
X175477110Y-72452895D02*
X175477110Y-70844229D01*
X175477110Y-71303848D02*
X175592015Y-71074038D01*
X175706919Y-70959133D01*
X175936729Y-70844229D01*
X176166538Y-70844229D01*
X178005015Y-72452895D02*
X178005015Y-70039895D01*
X178005015Y-72337990D02*
X177775205Y-72452895D01*
X177315586Y-72452895D01*
X177085777Y-72337990D01*
X176970872Y-72223086D01*
X176855967Y-71993276D01*
X176855967Y-71303848D01*
X176970872Y-71074038D01*
X177085777Y-70959133D01*
X177315586Y-70844229D01*
X177775205Y-70844229D01*
X178005015Y-70959133D01*
X180188205Y-70844229D02*
X180188205Y-72452895D01*
X179154062Y-70844229D02*
X179154062Y-72108181D01*
X179268967Y-72337990D01*
X179498776Y-72452895D01*
X179843490Y-72452895D01*
X180073300Y-72337990D01*
X180188205Y-72223086D01*
X181337252Y-72452895D02*
X181337252Y-70844229D01*
X181337252Y-70039895D02*
X181222347Y-70154800D01*
X181337252Y-70269705D01*
X181452157Y-70154800D01*
X181337252Y-70039895D01*
X181337252Y-70269705D01*
X182486300Y-70844229D02*
X182486300Y-72452895D01*
X182486300Y-71074038D02*
X182601205Y-70959133D01*
X182831014Y-70844229D01*
X183175728Y-70844229D01*
X183405538Y-70959133D01*
X183520443Y-71188943D01*
X183520443Y-72452895D01*
X185014204Y-72452895D02*
X184784395Y-72337990D01*
X184669490Y-72223086D01*
X184554585Y-71993276D01*
X184554585Y-71303848D01*
X184669490Y-71074038D01*
X184784395Y-70959133D01*
X185014204Y-70844229D01*
X185358918Y-70844229D01*
X185588728Y-70959133D01*
X185703633Y-71074038D01*
X185818537Y-71303848D01*
X185818537Y-71993276D01*
X185703633Y-72223086D01*
X185588728Y-72337990D01*
X185358918Y-72452895D01*
X185014204Y-72452895D01*
X173408824Y-73926095D02*
X173408824Y-75879476D01*
X173523729Y-76109286D01*
X173638633Y-76224190D01*
X173868443Y-76339095D01*
X174328062Y-76339095D01*
X174557871Y-76224190D01*
X174672776Y-76109286D01*
X174787681Y-75879476D01*
X174787681Y-73926095D01*
X175936729Y-74730429D02*
X175936729Y-76339095D01*
X175936729Y-74960238D02*
X176051634Y-74845333D01*
X176281443Y-74730429D01*
X176626157Y-74730429D01*
X176855967Y-74845333D01*
X176970872Y-75075143D01*
X176970872Y-76339095D01*
X178464633Y-76339095D02*
X178234824Y-76224190D01*
X178119919Y-76109286D01*
X178005014Y-75879476D01*
X178005014Y-75190048D01*
X178119919Y-74960238D01*
X178234824Y-74845333D01*
X178464633Y-74730429D01*
X178809347Y-74730429D01*
X179039157Y-74845333D01*
X179154062Y-74960238D01*
X179268966Y-75190048D01*
X179268966Y-75879476D01*
X179154062Y-76109286D01*
X179039157Y-76224190D01*
X178809347Y-76339095D01*
X178464633Y-76339095D01*
M02*
