G04 #@! TF.FileFunction,Copper,L1,Top,Signal*
%FSLAX46Y46*%
G04 Gerber Fmt 4.6, Leading zero omitted, Abs format (unit mm)*
G04 Created by KiCad (PCBNEW 4.0.2+dfsg1-stable) date vie 26 may 2017 18:32:50 CEST*
%MOMM*%
G01*
G04 APERTURE LIST*
%ADD10C,0.100000*%
%ADD11C,0.600000*%
%ADD12C,1.879600*%
%ADD13R,0.740000X2.790000*%
%ADD14C,1.270000*%
%ADD15C,0.250000*%
%ADD16C,0.254000*%
%ADD17C,0.800000*%
%ADD18C,0.300000*%
G04 APERTURE END LIST*
D10*
D11*
X116878100Y-63982600D03*
X110909100Y-65506600D03*
X111925100Y-67411600D03*
X114338100Y-65506600D03*
X109258100Y-65506600D03*
X113576100Y-67411600D03*
X115354100Y-63982600D03*
X112306100Y-63728600D03*
X113830100Y-63728600D03*
X115227100Y-67411600D03*
X115862100Y-65506600D03*
X112560100Y-65506600D03*
X107734100Y-63728600D03*
X110782100Y-63728600D03*
X109258100Y-63728600D03*
X120815100Y-61315600D03*
X118783100Y-61315600D03*
X116243100Y-61315600D03*
X116243100Y-59029600D03*
X118783100Y-59029600D03*
X118783100Y-57251600D03*
X116243100Y-57251600D03*
X116243100Y-54203600D03*
X118783100Y-54203600D03*
X121069100Y-48615600D03*
X118783100Y-48615600D03*
X116243100Y-48615600D03*
X118783100Y-51409600D03*
X116243100Y-51409600D03*
D12*
X196761100Y-54203600D03*
X199301100Y-54203600D03*
X201841100Y-54203600D03*
X204381100Y-54203600D03*
X206921100Y-54203600D03*
X209461100Y-54203600D03*
X212001100Y-54203600D03*
X194221100Y-54203600D03*
X174917100Y-54203600D03*
X177457100Y-54203600D03*
X179997100Y-54203600D03*
X182537100Y-54203600D03*
X185077100Y-54203600D03*
X187617100Y-54203600D03*
X190157100Y-54203600D03*
X172377100Y-54203600D03*
X169837100Y-54203600D03*
X167297100Y-54203600D03*
X201841100Y-102463600D03*
X204381100Y-102463600D03*
X206921100Y-102463600D03*
X209461100Y-102463600D03*
X212001100Y-102463600D03*
X199301100Y-102463600D03*
X181521100Y-102463600D03*
X184061100Y-102463600D03*
X186601100Y-102463600D03*
X189141100Y-102463600D03*
X191681100Y-102463600D03*
X194221100Y-102463600D03*
X178981100Y-102463600D03*
X176441100Y-102463600D03*
X214668100Y-79603600D03*
X212128100Y-79603600D03*
X214668100Y-77063600D03*
X212128100Y-77063600D03*
X214668100Y-74523600D03*
X212128100Y-74523600D03*
D13*
X124714000Y-82430000D03*
X124714000Y-87750000D03*
X123444000Y-82430000D03*
X123444000Y-87750000D03*
X120904000Y-87750000D03*
X120904000Y-82430000D03*
X122174000Y-87750000D03*
X122174000Y-82430000D03*
X125984000Y-82430000D03*
X125984000Y-87750000D03*
D14*
X117574000Y-85090000D03*
X129314000Y-85090000D03*
D13*
X124714000Y-96400000D03*
X124714000Y-101720000D03*
X123444000Y-96400000D03*
X123444000Y-101720000D03*
X120904000Y-101720000D03*
X120904000Y-96400000D03*
X122174000Y-101720000D03*
X122174000Y-96400000D03*
X125984000Y-96400000D03*
X125984000Y-101720000D03*
D14*
X117574000Y-99060000D03*
X129314000Y-99060000D03*
D13*
X105410000Y-67444000D03*
X105410000Y-72764000D03*
X104140000Y-67444000D03*
X104140000Y-72764000D03*
X101600000Y-72764000D03*
X101600000Y-67444000D03*
X102870000Y-72764000D03*
X102870000Y-67444000D03*
X106680000Y-67444000D03*
X106680000Y-72764000D03*
D14*
X98270000Y-70104000D03*
X110010000Y-70104000D03*
D13*
X124714000Y-67444000D03*
X124714000Y-72764000D03*
X123444000Y-67444000D03*
X123444000Y-72764000D03*
X120904000Y-72764000D03*
X120904000Y-67444000D03*
X122174000Y-72764000D03*
X122174000Y-67444000D03*
X125984000Y-67444000D03*
X125984000Y-72764000D03*
D14*
X117574000Y-70104000D03*
X129314000Y-70104000D03*
D13*
X124714000Y-53220000D03*
X124714000Y-58540000D03*
X123444000Y-53220000D03*
X123444000Y-58540000D03*
X120904000Y-58540000D03*
X120904000Y-53220000D03*
X122174000Y-58540000D03*
X122174000Y-53220000D03*
X125984000Y-53220000D03*
X125984000Y-58540000D03*
D14*
X117574000Y-55880000D03*
X129314000Y-55880000D03*
D13*
X105410000Y-53220000D03*
X105410000Y-58540000D03*
X104140000Y-53220000D03*
X104140000Y-58540000D03*
X101600000Y-58540000D03*
X101600000Y-53220000D03*
X102870000Y-58540000D03*
X102870000Y-53220000D03*
X106680000Y-53220000D03*
X106680000Y-58540000D03*
D14*
X98270000Y-55880000D03*
X110010000Y-55880000D03*
D11*
X113957100Y-69570600D03*
X113957100Y-70459600D03*
X129197100Y-72999600D03*
X104813100Y-48615600D03*
D15*
X124117100Y-84937600D02*
X127165100Y-84937600D01*
X124117100Y-84937600D02*
X123444000Y-84264500D01*
X123444000Y-82430000D02*
X123444000Y-84264500D01*
X130213100Y-81889600D02*
X167805100Y-81889600D01*
X127165100Y-84937600D02*
X130213100Y-81889600D01*
X190157100Y-59537600D02*
X167805100Y-81889600D01*
X190157100Y-54203600D02*
X190157100Y-59537600D01*
X195834000Y-105664000D02*
X187198000Y-105664000D01*
X206921100Y-101003100D02*
X205994000Y-100076000D01*
X205994000Y-100076000D02*
X198120000Y-100076000D01*
X198120000Y-100076000D02*
X196850000Y-101346000D01*
X196850000Y-101346000D02*
X196850000Y-104648000D01*
X196850000Y-104648000D02*
X195834000Y-105664000D01*
X187198000Y-105664000D02*
X134683500Y-105664000D01*
X134683500Y-105664000D02*
X130975100Y-101955600D01*
X130975100Y-101955600D02*
X130975100Y-94907100D01*
X130975100Y-94907100D02*
X128778000Y-92710000D01*
X128778000Y-92710000D02*
X124206000Y-92710000D01*
X124206000Y-92710000D02*
X123444000Y-91948000D01*
X123444000Y-87750000D02*
X123444000Y-91948000D01*
X206921100Y-101003100D02*
X206921100Y-102463600D01*
X209804000Y-107696000D02*
X201168000Y-107696000D01*
X212001100Y-105498900D02*
X209804000Y-107696000D01*
X201168000Y-107696000D02*
X123507500Y-107696000D01*
X123507500Y-107696000D02*
X119380000Y-103568500D01*
X119380000Y-103568500D02*
X119380000Y-94996000D01*
X119380000Y-94996000D02*
X122174000Y-92202000D01*
X122174000Y-87750000D02*
X122174000Y-92202000D01*
X212001100Y-105498900D02*
X212001100Y-102463600D01*
X131578350Y-91128850D02*
X131578350Y-91541600D01*
X131578350Y-91541600D02*
X131578350Y-101860350D01*
X131578350Y-91128850D02*
X131483100Y-91033600D01*
X131578350Y-91128850D02*
X131483100Y-91033600D01*
X131483100Y-91033600D02*
X128524000Y-88074500D01*
X123291600Y-85699600D02*
X122174000Y-84582000D01*
X122174000Y-84582000D02*
X122174000Y-82430000D01*
X128524000Y-88074500D02*
X128524000Y-86550500D01*
X128524000Y-86550500D02*
X127673100Y-85699600D01*
X127673100Y-85699600D02*
X123291600Y-85699600D01*
X147066000Y-105156000D02*
X138430000Y-105156000D01*
X138430000Y-105156000D02*
X134874000Y-105156000D01*
X207010000Y-99568000D02*
X197866000Y-99568000D01*
X197866000Y-99568000D02*
X196342000Y-101092000D01*
X196342000Y-101092000D02*
X196342000Y-104140000D01*
X196342000Y-104140000D02*
X195326000Y-105156000D01*
X195326000Y-105156000D02*
X147066000Y-105156000D01*
X209461100Y-102019100D02*
X207010000Y-99568000D01*
X134874000Y-105156000D02*
X131578350Y-101860350D01*
X131578350Y-101860350D02*
X131572000Y-101854000D01*
X209461100Y-102463600D02*
X209461100Y-102019100D01*
X209461100Y-102463600D02*
X209461100Y-102273100D01*
X197104000Y-106680000D02*
X188468000Y-106680000D01*
X199301100Y-104482900D02*
X197104000Y-106680000D01*
X188468000Y-106680000D02*
X124269500Y-106680000D01*
X124269500Y-106680000D02*
X123444000Y-105854500D01*
X123444000Y-101720000D02*
X123444000Y-105854500D01*
X199301100Y-104482900D02*
X199301100Y-102463600D01*
X200914000Y-107188000D02*
X192278000Y-107188000D01*
X200914000Y-107188000D02*
X204381100Y-103720900D01*
X204381100Y-102463600D02*
X204381100Y-103720900D01*
X122174000Y-105600500D02*
X123761500Y-107188000D01*
X123761500Y-107188000D02*
X192278000Y-107188000D01*
X122174000Y-105600500D02*
X122174000Y-101720000D01*
X196596000Y-106172000D02*
X187960000Y-106172000D01*
X197612000Y-105156000D02*
X196596000Y-106172000D01*
X197612000Y-101854000D02*
X197612000Y-105156000D01*
X198628000Y-100838000D02*
X197612000Y-101854000D01*
X200660000Y-100838000D02*
X198628000Y-100838000D01*
X201841100Y-102019100D02*
X200660000Y-100838000D01*
X122174000Y-98298000D02*
X122174000Y-96400000D01*
X122682000Y-98806000D02*
X122174000Y-98298000D01*
X127063500Y-98806000D02*
X122682000Y-98806000D01*
X134429500Y-106172000D02*
X127063500Y-98806000D01*
X187960000Y-106172000D02*
X134429500Y-106172000D01*
X201841100Y-102463600D02*
X201841100Y-102019100D01*
X122174000Y-97790000D02*
X122174000Y-96400000D01*
D16*
X111798100Y-69570600D02*
X113957100Y-69570600D01*
X106083100Y-69697600D02*
X105410000Y-69024500D01*
X105410000Y-67444000D02*
X105410000Y-69024500D01*
X111798100Y-69570600D02*
X111163100Y-68935600D01*
X111163100Y-68935600D02*
X108623100Y-68935600D01*
X107861100Y-69697600D02*
X106083100Y-69697600D01*
X108623100Y-68935600D02*
X107861100Y-69697600D01*
X113957100Y-69570600D02*
X113957100Y-69570600D01*
D15*
X113957100Y-69570600D02*
X113957100Y-69570600D01*
D16*
X106591100Y-72852900D02*
X106591100Y-70967600D01*
X106591100Y-70967600D02*
X107099100Y-70459600D01*
X107099100Y-70459600D02*
X107861100Y-70459600D01*
X107861100Y-70459600D02*
X108623100Y-71221600D01*
X108623100Y-71221600D02*
X110909100Y-71221600D01*
X110909100Y-71221600D02*
X111671100Y-70459600D01*
X111671100Y-70459600D02*
X113957100Y-70459600D01*
X168821100Y-69951600D02*
X131229100Y-69951600D01*
X131229100Y-69951600D02*
X130213100Y-68935600D01*
X130213100Y-68935600D02*
X128689100Y-68935600D01*
X128689100Y-68935600D02*
X127927100Y-69697600D01*
X127927100Y-69697600D02*
X125387100Y-69697600D01*
X125387100Y-69697600D02*
X124714000Y-69024500D01*
X124714000Y-69024500D02*
X124714000Y-67444000D01*
X180759100Y-58013600D02*
X168821100Y-69951600D01*
D15*
X180759100Y-58013600D02*
X180759100Y-56743600D01*
X179997100Y-55981600D02*
X179997100Y-54203600D01*
X180759100Y-56743600D02*
X179997100Y-55981600D01*
X180759100Y-58013600D02*
X180759100Y-58013600D01*
D16*
X169075100Y-70459600D02*
X131229100Y-70459600D01*
D15*
X169075100Y-70459600D02*
X181394100Y-58140600D01*
X181394100Y-58140600D02*
X181394100Y-56870600D01*
X182537100Y-54457600D02*
X182537100Y-55727600D01*
X181394100Y-56870600D02*
X182537100Y-55727600D01*
D16*
X124714000Y-71132700D02*
X124714000Y-72764000D01*
X125387100Y-70459600D02*
X124714000Y-71132700D01*
X127927100Y-70459600D02*
X125387100Y-70459600D01*
X128689100Y-71221600D02*
X127927100Y-70459600D01*
X130467100Y-71221600D02*
X128689100Y-71221600D01*
X131229100Y-70459600D02*
X130467100Y-71221600D01*
D15*
X182283100Y-54457600D02*
X182537100Y-54203600D01*
X185077100Y-54203600D02*
X185077100Y-51917600D01*
X123444000Y-64782700D02*
X123444000Y-67444000D01*
X124371100Y-63855600D02*
X123444000Y-64782700D01*
X130467100Y-63855600D02*
X124371100Y-63855600D01*
X132499100Y-61823600D02*
X130467100Y-63855600D01*
X132499100Y-56997600D02*
X132499100Y-61823600D01*
X138849100Y-50647600D02*
X132499100Y-56997600D01*
X183807100Y-50647600D02*
X138849100Y-50647600D01*
X185077100Y-51917600D02*
X183807100Y-50647600D01*
X187617100Y-54203600D02*
X187617100Y-50901600D01*
X122174000Y-63512700D02*
X122174000Y-67444000D01*
X122847100Y-62839600D02*
X122174000Y-63512700D01*
X129705100Y-62839600D02*
X122847100Y-62839600D01*
X131483100Y-61061600D02*
X129705100Y-62839600D01*
X131483100Y-56489600D02*
X131483100Y-61061600D01*
X138341100Y-49631600D02*
X131483100Y-56489600D01*
X186347100Y-49631600D02*
X138341100Y-49631600D01*
X187617100Y-50901600D02*
X186347100Y-49631600D01*
D16*
X127400700Y-72764000D02*
X128961500Y-72764000D01*
X126892700Y-72764000D02*
X125984000Y-72764000D01*
X126892700Y-72764000D02*
X127400700Y-72764000D01*
X128961500Y-72764000D02*
X129197100Y-72999600D01*
D15*
X196761100Y-54203600D02*
X196761100Y-53949600D01*
X124714000Y-49796700D02*
X124714000Y-53220000D01*
X127673100Y-46837600D02*
X124714000Y-49796700D01*
X189649100Y-46837600D02*
X127673100Y-46837600D01*
X196761100Y-53949600D02*
X189649100Y-46837600D01*
X127419100Y-55727600D02*
X127419100Y-54711600D01*
X199301100Y-55219600D02*
X198285100Y-56235600D01*
X198285100Y-56235600D02*
X193205100Y-56235600D01*
X193205100Y-56235600D02*
X192443100Y-55473600D01*
X192443100Y-55473600D02*
X192443100Y-51663600D01*
X192443100Y-51663600D02*
X188633100Y-47853600D01*
X188633100Y-47853600D02*
X136309100Y-47853600D01*
X127419100Y-55727600D02*
X127419100Y-60299600D01*
X127419100Y-60299600D02*
X126657100Y-61061600D01*
X126657100Y-61061600D02*
X125133100Y-61061600D01*
X125133100Y-61061600D02*
X124714000Y-60642500D01*
X124714000Y-58540000D02*
X124714000Y-60642500D01*
X199301100Y-55219600D02*
X199301100Y-54203600D01*
X134277100Y-47853600D02*
X136309100Y-47853600D01*
X127419100Y-54711600D02*
X134277100Y-47853600D01*
X123444000Y-53220000D02*
X123444000Y-50304700D01*
X201841100Y-50139600D02*
X201841100Y-54203600D01*
X198031100Y-46329600D02*
X201841100Y-50139600D01*
X127419100Y-46329600D02*
X198031100Y-46329600D01*
X123444000Y-50304700D02*
X127419100Y-46329600D01*
X127927100Y-55727600D02*
X127927100Y-54965600D01*
X204381100Y-55473600D02*
X203111100Y-56743600D01*
X203111100Y-56743600D02*
X192951100Y-56743600D01*
X192951100Y-56743600D02*
X191935100Y-55727600D01*
X191935100Y-55727600D02*
X191935100Y-52425600D01*
X191935100Y-52425600D02*
X187871100Y-48361600D01*
X187871100Y-48361600D02*
X136309100Y-48361600D01*
X127927100Y-55727600D02*
X127927100Y-60553600D01*
X127927100Y-60553600D02*
X126911100Y-61569600D01*
X126911100Y-61569600D02*
X124625100Y-61569600D01*
X124625100Y-61569600D02*
X123444000Y-60388500D01*
X123444000Y-58540000D02*
X123444000Y-60388500D01*
X204381100Y-55473600D02*
X204381100Y-54203600D01*
X134531100Y-48361600D02*
X136309100Y-48361600D01*
X127927100Y-54965600D02*
X134531100Y-48361600D01*
D17*
X186601100Y-102463600D02*
X186601100Y-96875600D01*
X216573100Y-74523600D02*
X214668100Y-74523600D01*
X218605100Y-76555600D02*
X216573100Y-74523600D01*
X218605100Y-86207600D02*
X218605100Y-76555600D01*
X215049100Y-89763600D02*
X218605100Y-86207600D01*
X193713100Y-89763600D02*
X215049100Y-89763600D01*
X186601100Y-96875600D02*
X193713100Y-89763600D01*
D15*
X206921100Y-54203600D02*
X206921100Y-52933600D01*
X122174000Y-50812700D02*
X122174000Y-53220000D01*
X127165100Y-45821600D02*
X122174000Y-50812700D01*
X199809100Y-45821600D02*
X127165100Y-45821600D01*
X206921100Y-52933600D02*
X199809100Y-45821600D01*
X136055100Y-47345600D02*
X134023100Y-47345600D01*
X194221100Y-52425600D02*
X189141100Y-47345600D01*
X189141100Y-47345600D02*
X136055100Y-47345600D01*
X194221100Y-54203600D02*
X194221100Y-52425600D01*
X126911100Y-55727600D02*
X125984000Y-56654700D01*
X125984000Y-56654700D02*
X125984000Y-58540000D01*
X126911100Y-54457600D02*
X126911100Y-55727600D01*
X134023100Y-47345600D02*
X126911100Y-54457600D01*
D18*
X104140000Y-49288700D02*
X104140000Y-53220000D01*
X104813100Y-48615600D02*
X104140000Y-49288700D01*
D15*
X181521100Y-102463600D02*
X181521100Y-99161600D01*
X181521100Y-99161600D02*
X193713100Y-86969600D01*
X193713100Y-86969600D02*
X209715100Y-86969600D01*
X209715100Y-86969600D02*
X212128100Y-84556600D01*
X212128100Y-84556600D02*
X212128100Y-79603600D01*
X210985100Y-50901600D02*
X212001100Y-51917600D01*
X210985100Y-47599600D02*
X207937100Y-44551600D01*
X207937100Y-44551600D02*
X101511100Y-44551600D01*
X101511100Y-44551600D02*
X98717100Y-47345600D01*
X98717100Y-47345600D02*
X98717100Y-54711600D01*
X98717100Y-54711600D02*
X99987100Y-55981600D01*
X99987100Y-55981600D02*
X103543100Y-55981600D01*
X103543100Y-55981600D02*
X104140000Y-56578500D01*
X104140000Y-58540000D02*
X104140000Y-56578500D01*
X210985100Y-50901600D02*
X210985100Y-47599600D01*
X212001100Y-51917600D02*
X212001100Y-53949600D01*
X212255100Y-53949600D02*
X212001100Y-54203600D01*
X102870000Y-53220000D02*
X102870000Y-55130700D01*
X209461100Y-51917600D02*
X209461100Y-54203600D01*
X210477100Y-50901600D02*
X209461100Y-51917600D01*
X210477100Y-47853600D02*
X210477100Y-50901600D01*
X207683100Y-45059600D02*
X210477100Y-47853600D01*
X101707102Y-45059600D02*
X207683100Y-45059600D01*
X99225100Y-47541602D02*
X101707102Y-45059600D01*
X99225100Y-54457600D02*
X99225100Y-47541602D01*
X100241100Y-55473600D02*
X99225100Y-54457600D01*
X102527100Y-55473600D02*
X100241100Y-55473600D01*
X102870000Y-55130700D02*
X102527100Y-55473600D01*
D16*
G36*
X121704100Y-50207798D02*
X121636599Y-50275299D01*
X121471852Y-50521861D01*
X121414000Y-50812700D01*
X121414000Y-51321374D01*
X121352559Y-51360910D01*
X121207569Y-51573110D01*
X121156560Y-51825000D01*
X121156560Y-54615000D01*
X121200838Y-54850317D01*
X121339910Y-55066441D01*
X121378195Y-55092600D01*
X118582460Y-55092600D01*
X118294337Y-54803974D01*
X117827727Y-54610221D01*
X117322490Y-54609780D01*
X116855542Y-54802718D01*
X116565154Y-55092600D01*
X115354100Y-55092600D01*
X115354100Y-47980600D01*
X121704100Y-47980600D01*
X121704100Y-50207798D01*
X121704100Y-50207798D01*
G37*
X121704100Y-50207798D02*
X121636599Y-50275299D01*
X121471852Y-50521861D01*
X121414000Y-50812700D01*
X121414000Y-51321374D01*
X121352559Y-51360910D01*
X121207569Y-51573110D01*
X121156560Y-51825000D01*
X121156560Y-54615000D01*
X121200838Y-54850317D01*
X121339910Y-55066441D01*
X121378195Y-55092600D01*
X118582460Y-55092600D01*
X118294337Y-54803974D01*
X117827727Y-54610221D01*
X117322490Y-54609780D01*
X116855542Y-54802718D01*
X116565154Y-55092600D01*
X115354100Y-55092600D01*
X115354100Y-47980600D01*
X121704100Y-47980600D01*
X121704100Y-50207798D01*
G36*
X116303780Y-56131510D02*
X116496718Y-56598458D01*
X116853663Y-56956026D01*
X117320273Y-57149779D01*
X117825510Y-57150220D01*
X118292458Y-56957282D01*
X118650026Y-56600337D01*
X118843779Y-56133727D01*
X118844023Y-55854600D01*
X121704100Y-55854600D01*
X121704100Y-56516358D01*
X121568683Y-56541838D01*
X121352559Y-56680910D01*
X121207569Y-56893110D01*
X121156560Y-57145000D01*
X121156560Y-59935000D01*
X121200838Y-60170317D01*
X121339910Y-60386441D01*
X121552110Y-60531431D01*
X121704100Y-60562210D01*
X121704100Y-62204600D01*
X115354100Y-62204600D01*
X115354100Y-55854600D01*
X116304022Y-55854600D01*
X116303780Y-56131510D01*
X116303780Y-56131510D01*
G37*
X116303780Y-56131510D02*
X116496718Y-56598458D01*
X116853663Y-56956026D01*
X117320273Y-57149779D01*
X117825510Y-57150220D01*
X118292458Y-56957282D01*
X118650026Y-56600337D01*
X118843779Y-56133727D01*
X118844023Y-55854600D01*
X121704100Y-55854600D01*
X121704100Y-56516358D01*
X121568683Y-56541838D01*
X121352559Y-56680910D01*
X121207569Y-56893110D01*
X121156560Y-57145000D01*
X121156560Y-59935000D01*
X121200838Y-60170317D01*
X121339910Y-60386441D01*
X121552110Y-60531431D01*
X121704100Y-60562210D01*
X121704100Y-62204600D01*
X115354100Y-62204600D01*
X115354100Y-55854600D01*
X116304022Y-55854600D01*
X116303780Y-56131510D01*
G36*
X117767100Y-68681600D02*
X114254289Y-68681600D01*
X114143899Y-68635762D01*
X113771933Y-68635438D01*
X113660212Y-68681600D01*
X111986731Y-68681600D01*
X111701915Y-68396785D01*
X111701914Y-68396784D01*
X111674719Y-68378613D01*
X111506903Y-68210797D01*
X111464889Y-68182934D01*
X111417100Y-68173600D01*
X108496100Y-68173600D01*
X108446690Y-68183606D01*
X108406297Y-68210797D01*
X108398897Y-68218197D01*
X108331495Y-68231604D01*
X108285255Y-68262501D01*
X108084285Y-68396784D01*
X107545470Y-68935600D01*
X106407878Y-68935600D01*
X106427440Y-68839000D01*
X106427440Y-66049000D01*
X106383162Y-65813683D01*
X106337100Y-65742101D01*
X106337100Y-62966600D01*
X117767100Y-62966600D01*
X117767100Y-68681600D01*
X117767100Y-68681600D01*
G37*
X117767100Y-68681600D02*
X114254289Y-68681600D01*
X114143899Y-68635762D01*
X113771933Y-68635438D01*
X113660212Y-68681600D01*
X111986731Y-68681600D01*
X111701915Y-68396785D01*
X111701914Y-68396784D01*
X111674719Y-68378613D01*
X111506903Y-68210797D01*
X111464889Y-68182934D01*
X111417100Y-68173600D01*
X108496100Y-68173600D01*
X108446690Y-68183606D01*
X108406297Y-68210797D01*
X108398897Y-68218197D01*
X108331495Y-68231604D01*
X108285255Y-68262501D01*
X108084285Y-68396784D01*
X107545470Y-68935600D01*
X106407878Y-68935600D01*
X106427440Y-68839000D01*
X106427440Y-66049000D01*
X106383162Y-65813683D01*
X106337100Y-65742101D01*
X106337100Y-62966600D01*
X117767100Y-62966600D01*
X117767100Y-68681600D01*
M02*
