G04 #@! TF.FileFunction,Paste,Top*
%FSLAX46Y46*%
G04 Gerber Fmt 4.6, Leading zero omitted, Abs format (unit mm)*
G04 Created by KiCad (PCBNEW 4.0.2+dfsg1-stable) date vie 26 may 2017 18:32:50 CEST*
%MOMM*%
G01*
G04 APERTURE LIST*
%ADD10C,0.100000*%
%ADD11R,0.740000X2.790000*%
G04 APERTURE END LIST*
D10*
D11*
X124714000Y-82430000D03*
X124714000Y-87750000D03*
X123444000Y-82430000D03*
X123444000Y-87750000D03*
X120904000Y-87750000D03*
X120904000Y-82430000D03*
X122174000Y-87750000D03*
X122174000Y-82430000D03*
X125984000Y-82430000D03*
X125984000Y-87750000D03*
X124714000Y-96400000D03*
X124714000Y-101720000D03*
X123444000Y-96400000D03*
X123444000Y-101720000D03*
X120904000Y-101720000D03*
X120904000Y-96400000D03*
X122174000Y-101720000D03*
X122174000Y-96400000D03*
X125984000Y-96400000D03*
X125984000Y-101720000D03*
X105410000Y-67444000D03*
X105410000Y-72764000D03*
X104140000Y-67444000D03*
X104140000Y-72764000D03*
X101600000Y-72764000D03*
X101600000Y-67444000D03*
X102870000Y-72764000D03*
X102870000Y-67444000D03*
X106680000Y-67444000D03*
X106680000Y-72764000D03*
X124714000Y-67444000D03*
X124714000Y-72764000D03*
X123444000Y-67444000D03*
X123444000Y-72764000D03*
X120904000Y-72764000D03*
X120904000Y-67444000D03*
X122174000Y-72764000D03*
X122174000Y-67444000D03*
X125984000Y-67444000D03*
X125984000Y-72764000D03*
X124714000Y-53220000D03*
X124714000Y-58540000D03*
X123444000Y-53220000D03*
X123444000Y-58540000D03*
X120904000Y-58540000D03*
X120904000Y-53220000D03*
X122174000Y-58540000D03*
X122174000Y-53220000D03*
X125984000Y-53220000D03*
X125984000Y-58540000D03*
X105410000Y-53220000D03*
X105410000Y-58540000D03*
X104140000Y-53220000D03*
X104140000Y-58540000D03*
X101600000Y-58540000D03*
X101600000Y-53220000D03*
X102870000Y-58540000D03*
X102870000Y-53220000D03*
X106680000Y-53220000D03*
X106680000Y-58540000D03*
M02*
