G04 #@! TF.FileFunction,Legend,Top*
%FSLAX46Y46*%
G04 Gerber Fmt 4.6, Leading zero omitted, Abs format (unit mm)*
G04 Created by KiCad (PCBNEW 4.0.2-stable) date 10/06/2016 14:43:14*
%MOMM*%
G01*
G04 APERTURE LIST*
%ADD10C,0.100000*%
%ADD11C,0.150000*%
G04 APERTURE END LIST*
D10*
D11*
X33757143Y10292857D02*
X33709524Y10245238D01*
X33566667Y10197619D01*
X33471429Y10197619D01*
X33328571Y10245238D01*
X33233333Y10340476D01*
X33185714Y10435714D01*
X33138095Y10626190D01*
X33138095Y10769048D01*
X33185714Y10959524D01*
X33233333Y11054762D01*
X33328571Y11150000D01*
X33471429Y11197619D01*
X33566667Y11197619D01*
X33709524Y11150000D01*
X33757143Y11102381D01*
X34138095Y10245238D02*
X34280952Y10197619D01*
X34519048Y10197619D01*
X34614286Y10245238D01*
X34661905Y10292857D01*
X34709524Y10388095D01*
X34709524Y10483333D01*
X34661905Y10578571D01*
X34614286Y10626190D01*
X34519048Y10673810D01*
X34328571Y10721429D01*
X34233333Y10769048D01*
X34185714Y10816667D01*
X34138095Y10911905D01*
X34138095Y11007143D01*
X34185714Y11102381D01*
X34233333Y11150000D01*
X34328571Y11197619D01*
X34566667Y11197619D01*
X34709524Y11150000D01*
X35614286Y11197619D02*
X35138095Y11197619D01*
X35090476Y10721429D01*
X35138095Y10769048D01*
X35233333Y10816667D01*
X35471429Y10816667D01*
X35566667Y10769048D01*
X35614286Y10721429D01*
X35661905Y10626190D01*
X35661905Y10388095D01*
X35614286Y10292857D01*
X35566667Y10245238D01*
X35471429Y10197619D01*
X35233333Y10197619D01*
X35138095Y10245238D01*
X35090476Y10292857D01*
X30207143Y10292857D02*
X30159524Y10245238D01*
X30016667Y10197619D01*
X29921429Y10197619D01*
X29778571Y10245238D01*
X29683333Y10340476D01*
X29635714Y10435714D01*
X29588095Y10626190D01*
X29588095Y10769048D01*
X29635714Y10959524D01*
X29683333Y11054762D01*
X29778571Y11150000D01*
X29921429Y11197619D01*
X30016667Y11197619D01*
X30159524Y11150000D01*
X30207143Y11102381D01*
X30588095Y10245238D02*
X30730952Y10197619D01*
X30969048Y10197619D01*
X31064286Y10245238D01*
X31111905Y10292857D01*
X31159524Y10388095D01*
X31159524Y10483333D01*
X31111905Y10578571D01*
X31064286Y10626190D01*
X30969048Y10673810D01*
X30778571Y10721429D01*
X30683333Y10769048D01*
X30635714Y10816667D01*
X30588095Y10911905D01*
X30588095Y11007143D01*
X30635714Y11102381D01*
X30683333Y11150000D01*
X30778571Y11197619D01*
X31016667Y11197619D01*
X31159524Y11150000D01*
X32016667Y10864286D02*
X32016667Y10197619D01*
X31778571Y11245238D02*
X31540476Y10530952D01*
X32159524Y10530952D01*
X26657143Y10292857D02*
X26609524Y10245238D01*
X26466667Y10197619D01*
X26371429Y10197619D01*
X26228571Y10245238D01*
X26133333Y10340476D01*
X26085714Y10435714D01*
X26038095Y10626190D01*
X26038095Y10769048D01*
X26085714Y10959524D01*
X26133333Y11054762D01*
X26228571Y11150000D01*
X26371429Y11197619D01*
X26466667Y11197619D01*
X26609524Y11150000D01*
X26657143Y11102381D01*
X27038095Y10245238D02*
X27180952Y10197619D01*
X27419048Y10197619D01*
X27514286Y10245238D01*
X27561905Y10292857D01*
X27609524Y10388095D01*
X27609524Y10483333D01*
X27561905Y10578571D01*
X27514286Y10626190D01*
X27419048Y10673810D01*
X27228571Y10721429D01*
X27133333Y10769048D01*
X27085714Y10816667D01*
X27038095Y10911905D01*
X27038095Y11007143D01*
X27085714Y11102381D01*
X27133333Y11150000D01*
X27228571Y11197619D01*
X27466667Y11197619D01*
X27609524Y11150000D01*
X27942857Y11197619D02*
X28561905Y11197619D01*
X28228571Y10816667D01*
X28371429Y10816667D01*
X28466667Y10769048D01*
X28514286Y10721429D01*
X28561905Y10626190D01*
X28561905Y10388095D01*
X28514286Y10292857D01*
X28466667Y10245238D01*
X28371429Y10197619D01*
X28085714Y10197619D01*
X27990476Y10245238D01*
X27942857Y10292857D01*
X23107143Y10292857D02*
X23059524Y10245238D01*
X22916667Y10197619D01*
X22821429Y10197619D01*
X22678571Y10245238D01*
X22583333Y10340476D01*
X22535714Y10435714D01*
X22488095Y10626190D01*
X22488095Y10769048D01*
X22535714Y10959524D01*
X22583333Y11054762D01*
X22678571Y11150000D01*
X22821429Y11197619D01*
X22916667Y11197619D01*
X23059524Y11150000D01*
X23107143Y11102381D01*
X23488095Y10245238D02*
X23630952Y10197619D01*
X23869048Y10197619D01*
X23964286Y10245238D01*
X24011905Y10292857D01*
X24059524Y10388095D01*
X24059524Y10483333D01*
X24011905Y10578571D01*
X23964286Y10626190D01*
X23869048Y10673810D01*
X23678571Y10721429D01*
X23583333Y10769048D01*
X23535714Y10816667D01*
X23488095Y10911905D01*
X23488095Y11007143D01*
X23535714Y11102381D01*
X23583333Y11150000D01*
X23678571Y11197619D01*
X23916667Y11197619D01*
X24059524Y11150000D01*
X24440476Y11102381D02*
X24488095Y11150000D01*
X24583333Y11197619D01*
X24821429Y11197619D01*
X24916667Y11150000D01*
X24964286Y11102381D01*
X25011905Y11007143D01*
X25011905Y10911905D01*
X24964286Y10769048D01*
X24392857Y10197619D01*
X25011905Y10197619D01*
X-9290000Y13048180D02*
X-6690000Y13048180D01*
X-9290000Y16948180D02*
X-9290000Y13048180D01*
X-6690000Y16948180D02*
X-9290000Y16948180D01*
X2990000Y13048180D02*
X390000Y13048180D01*
X2990000Y16948180D02*
X2990000Y13048180D01*
X390000Y16948180D02*
X2990000Y16948180D01*
X23000000Y14900000D02*
X23000000Y12200000D01*
X24500000Y14900000D02*
X24500000Y12200000D01*
X23600000Y13400000D02*
X23850000Y13400000D01*
X23850000Y13400000D02*
X23700000Y13550000D01*
X24100000Y13650000D02*
X23400000Y13650000D01*
X23750000Y13300000D02*
X23750000Y12950000D01*
X23750000Y13650000D02*
X24100000Y13300000D01*
X24100000Y13300000D02*
X23400000Y13300000D01*
X23400000Y13300000D02*
X23750000Y13650000D01*
X26550000Y14900000D02*
X26550000Y12200000D01*
X28050000Y14900000D02*
X28050000Y12200000D01*
X27150000Y13400000D02*
X27400000Y13400000D01*
X27400000Y13400000D02*
X27250000Y13550000D01*
X27650000Y13650000D02*
X26950000Y13650000D01*
X27300000Y13300000D02*
X27300000Y12950000D01*
X27300000Y13650000D02*
X27650000Y13300000D01*
X27650000Y13300000D02*
X26950000Y13300000D01*
X26950000Y13300000D02*
X27300000Y13650000D01*
X30100000Y14900000D02*
X30100000Y12200000D01*
X31600000Y14900000D02*
X31600000Y12200000D01*
X30700000Y13400000D02*
X30950000Y13400000D01*
X30950000Y13400000D02*
X30800000Y13550000D01*
X31200000Y13650000D02*
X30500000Y13650000D01*
X30850000Y13300000D02*
X30850000Y12950000D01*
X30850000Y13650000D02*
X31200000Y13300000D01*
X31200000Y13300000D02*
X30500000Y13300000D01*
X30500000Y13300000D02*
X30850000Y13650000D01*
X33650000Y14900000D02*
X33650000Y12200000D01*
X35150000Y14900000D02*
X35150000Y12200000D01*
X34250000Y13400000D02*
X34500000Y13400000D01*
X34500000Y13400000D02*
X34350000Y13550000D01*
X34750000Y13650000D02*
X34050000Y13650000D01*
X34400000Y13300000D02*
X34400000Y12950000D01*
X34400000Y13650000D02*
X34750000Y13300000D01*
X34750000Y13300000D02*
X34050000Y13300000D01*
X34050000Y13300000D02*
X34400000Y13650000D01*
X22500000Y17375000D02*
X23500000Y17375000D01*
X23500000Y16025000D02*
X22500000Y16025000D01*
X26050000Y17375000D02*
X27050000Y17375000D01*
X27050000Y16025000D02*
X26050000Y16025000D01*
X29600000Y17375000D02*
X30600000Y17375000D01*
X30600000Y16025000D02*
X29600000Y16025000D01*
X33150000Y17375000D02*
X34150000Y17375000D01*
X34150000Y16025000D02*
X33150000Y16025000D01*
X14858880Y4048180D02*
X17458880Y4048180D01*
X14858880Y7948180D02*
X14858880Y4048180D01*
X17458880Y7948180D02*
X14858880Y7948180D01*
X27138880Y4048180D02*
X24538880Y4048180D01*
X27138880Y7948180D02*
X27138880Y4048180D01*
X24538880Y7948180D02*
X27138880Y7948180D01*
X-1141120Y4048180D02*
X1458880Y4048180D01*
X-1141120Y7948180D02*
X-1141120Y4048180D01*
X1458880Y7948180D02*
X-1141120Y7948180D01*
X11138880Y4048180D02*
X8538880Y4048180D01*
X11138880Y7948180D02*
X11138880Y4048180D01*
X8538880Y7948180D02*
X11138880Y7948180D01*
X14858880Y22048180D02*
X17458880Y22048180D01*
X14858880Y25948180D02*
X14858880Y22048180D01*
X17458880Y25948180D02*
X14858880Y25948180D01*
X27138880Y22048180D02*
X24538880Y22048180D01*
X27138880Y25948180D02*
X27138880Y22048180D01*
X24538880Y25948180D02*
X27138880Y25948180D01*
X-1141120Y22048180D02*
X1458880Y22048180D01*
X-1141120Y25948180D02*
X-1141120Y22048180D01*
X1458880Y25948180D02*
X-1141120Y25948180D01*
X11138880Y22048180D02*
X8538880Y22048180D01*
X11138880Y25948180D02*
X11138880Y22048180D01*
X8538880Y25948180D02*
X11138880Y25948180D01*
X-3886975Y19047619D02*
X-3886975Y20047619D01*
X-3506022Y20047619D01*
X-3410784Y20000000D01*
X-3363165Y19952381D01*
X-3315546Y19857143D01*
X-3315546Y19714286D01*
X-3363165Y19619048D01*
X-3410784Y19571429D01*
X-3506022Y19523810D01*
X-3886975Y19523810D01*
X-2363165Y19047619D02*
X-2934594Y19047619D01*
X-2648880Y19047619D02*
X-2648880Y20047619D01*
X-2744118Y19904762D01*
X-2839356Y19809524D01*
X-2934594Y19761905D01*
X25952381Y12561905D02*
X24952381Y12561905D01*
X24952381Y12800000D01*
X25000000Y12942858D01*
X25095238Y13038096D01*
X25190476Y13085715D01*
X25380952Y13133334D01*
X25523810Y13133334D01*
X25714286Y13085715D01*
X25809524Y13038096D01*
X25904762Y12942858D01*
X25952381Y12800000D01*
X25952381Y12561905D01*
X25952381Y14085715D02*
X25952381Y13514286D01*
X25952381Y13800000D02*
X24952381Y13800000D01*
X25095238Y13704762D01*
X25190476Y13609524D01*
X25238095Y13514286D01*
X29502381Y12561905D02*
X28502381Y12561905D01*
X28502381Y12800000D01*
X28550000Y12942858D01*
X28645238Y13038096D01*
X28740476Y13085715D01*
X28930952Y13133334D01*
X29073810Y13133334D01*
X29264286Y13085715D01*
X29359524Y13038096D01*
X29454762Y12942858D01*
X29502381Y12800000D01*
X29502381Y12561905D01*
X28597619Y13514286D02*
X28550000Y13561905D01*
X28502381Y13657143D01*
X28502381Y13895239D01*
X28550000Y13990477D01*
X28597619Y14038096D01*
X28692857Y14085715D01*
X28788095Y14085715D01*
X28930952Y14038096D01*
X29502381Y13466667D01*
X29502381Y14085715D01*
X33052381Y12561905D02*
X32052381Y12561905D01*
X32052381Y12800000D01*
X32100000Y12942858D01*
X32195238Y13038096D01*
X32290476Y13085715D01*
X32480952Y13133334D01*
X32623810Y13133334D01*
X32814286Y13085715D01*
X32909524Y13038096D01*
X33004762Y12942858D01*
X33052381Y12800000D01*
X33052381Y12561905D01*
X32052381Y13466667D02*
X32052381Y14085715D01*
X32433333Y13752381D01*
X32433333Y13895239D01*
X32480952Y13990477D01*
X32528571Y14038096D01*
X32623810Y14085715D01*
X32861905Y14085715D01*
X32957143Y14038096D01*
X33004762Y13990477D01*
X33052381Y13895239D01*
X33052381Y13609524D01*
X33004762Y13514286D01*
X32957143Y13466667D01*
X36602381Y12561905D02*
X35602381Y12561905D01*
X35602381Y12800000D01*
X35650000Y12942858D01*
X35745238Y13038096D01*
X35840476Y13085715D01*
X36030952Y13133334D01*
X36173810Y13133334D01*
X36364286Y13085715D01*
X36459524Y13038096D01*
X36554762Y12942858D01*
X36602381Y12800000D01*
X36602381Y12561905D01*
X35935714Y13990477D02*
X36602381Y13990477D01*
X35554762Y13752381D02*
X36269048Y13514286D01*
X36269048Y14133334D01*
X22283334Y17747619D02*
X21950000Y18223810D01*
X21711905Y17747619D02*
X21711905Y18747619D01*
X22092858Y18747619D01*
X22188096Y18700000D01*
X22235715Y18652381D01*
X22283334Y18557143D01*
X22283334Y18414286D01*
X22235715Y18319048D01*
X22188096Y18271429D01*
X22092858Y18223810D01*
X21711905Y18223810D01*
X23235715Y17747619D02*
X22664286Y17747619D01*
X22950000Y17747619D02*
X22950000Y18747619D01*
X22854762Y18604762D01*
X22759524Y18509524D01*
X22664286Y18461905D01*
X25833334Y17747619D02*
X25500000Y18223810D01*
X25261905Y17747619D02*
X25261905Y18747619D01*
X25642858Y18747619D01*
X25738096Y18700000D01*
X25785715Y18652381D01*
X25833334Y18557143D01*
X25833334Y18414286D01*
X25785715Y18319048D01*
X25738096Y18271429D01*
X25642858Y18223810D01*
X25261905Y18223810D01*
X26214286Y18652381D02*
X26261905Y18700000D01*
X26357143Y18747619D01*
X26595239Y18747619D01*
X26690477Y18700000D01*
X26738096Y18652381D01*
X26785715Y18557143D01*
X26785715Y18461905D01*
X26738096Y18319048D01*
X26166667Y17747619D01*
X26785715Y17747619D01*
X30383334Y17747619D02*
X30050000Y18223810D01*
X29811905Y17747619D02*
X29811905Y18747619D01*
X30192858Y18747619D01*
X30288096Y18700000D01*
X30335715Y18652381D01*
X30383334Y18557143D01*
X30383334Y18414286D01*
X30335715Y18319048D01*
X30288096Y18271429D01*
X30192858Y18223810D01*
X29811905Y18223810D01*
X30716667Y18747619D02*
X31335715Y18747619D01*
X31002381Y18366667D01*
X31145239Y18366667D01*
X31240477Y18319048D01*
X31288096Y18271429D01*
X31335715Y18176190D01*
X31335715Y17938095D01*
X31288096Y17842857D01*
X31240477Y17795238D01*
X31145239Y17747619D01*
X30859524Y17747619D01*
X30764286Y17795238D01*
X30716667Y17842857D01*
X33883334Y17697619D02*
X33550000Y18173810D01*
X33311905Y17697619D02*
X33311905Y18697619D01*
X33692858Y18697619D01*
X33788096Y18650000D01*
X33835715Y18602381D01*
X33883334Y18507143D01*
X33883334Y18364286D01*
X33835715Y18269048D01*
X33788096Y18221429D01*
X33692858Y18173810D01*
X33311905Y18173810D01*
X34740477Y18364286D02*
X34740477Y17697619D01*
X34502381Y18745238D02*
X34264286Y18030952D01*
X34883334Y18030952D01*
X20261905Y10047619D02*
X20261905Y11047619D01*
X20642858Y11047619D01*
X20738096Y11000000D01*
X20785715Y10952381D01*
X20833334Y10857143D01*
X20833334Y10714286D01*
X20785715Y10619048D01*
X20738096Y10571429D01*
X20642858Y10523810D01*
X20261905Y10523810D01*
X21738096Y11047619D02*
X21261905Y11047619D01*
X21214286Y10571429D01*
X21261905Y10619048D01*
X21357143Y10666667D01*
X21595239Y10666667D01*
X21690477Y10619048D01*
X21738096Y10571429D01*
X21785715Y10476190D01*
X21785715Y10238095D01*
X21738096Y10142857D01*
X21690477Y10095238D01*
X21595239Y10047619D01*
X21357143Y10047619D01*
X21261905Y10095238D01*
X21214286Y10142857D01*
X4261905Y10047619D02*
X4261905Y11047619D01*
X4642858Y11047619D01*
X4738096Y11000000D01*
X4785715Y10952381D01*
X4833334Y10857143D01*
X4833334Y10714286D01*
X4785715Y10619048D01*
X4738096Y10571429D01*
X4642858Y10523810D01*
X4261905Y10523810D01*
X5690477Y10714286D02*
X5690477Y10047619D01*
X5452381Y11095238D02*
X5214286Y10380952D01*
X5833334Y10380952D01*
X20261905Y28047619D02*
X20261905Y29047619D01*
X20642858Y29047619D01*
X20738096Y29000000D01*
X20785715Y28952381D01*
X20833334Y28857143D01*
X20833334Y28714286D01*
X20785715Y28619048D01*
X20738096Y28571429D01*
X20642858Y28523810D01*
X20261905Y28523810D01*
X21166667Y29047619D02*
X21785715Y29047619D01*
X21452381Y28666667D01*
X21595239Y28666667D01*
X21690477Y28619048D01*
X21738096Y28571429D01*
X21785715Y28476190D01*
X21785715Y28238095D01*
X21738096Y28142857D01*
X21690477Y28095238D01*
X21595239Y28047619D01*
X21309524Y28047619D01*
X21214286Y28095238D01*
X21166667Y28142857D01*
X4261905Y28047619D02*
X4261905Y29047619D01*
X4642858Y29047619D01*
X4738096Y29000000D01*
X4785715Y28952381D01*
X4833334Y28857143D01*
X4833334Y28714286D01*
X4785715Y28619048D01*
X4738096Y28571429D01*
X4642858Y28523810D01*
X4261905Y28523810D01*
X5214286Y28952381D02*
X5261905Y29000000D01*
X5357143Y29047619D01*
X5595239Y29047619D01*
X5690477Y29000000D01*
X5738096Y28952381D01*
X5785715Y28857143D01*
X5785715Y28761905D01*
X5738096Y28619048D01*
X5166667Y28047619D01*
X5785715Y28047619D01*
M02*
