G04 #@! TF.FileFunction,Copper,L2,Bot,Signal*
%FSLAX46Y46*%
G04 Gerber Fmt 4.6, Leading zero omitted, Abs format (unit mm)*
G04 Created by KiCad (PCBNEW 4.0.2-stable) date 10/06/2016 14:43:14*
%MOMM*%
G01*
G04 APERTURE LIST*
%ADD10C,0.100000*%
%ADD11C,0.600000*%
%ADD12C,0.250000*%
G04 APERTURE END LIST*
D10*
D11*
X-610000Y19000000D03*
X7538880Y9800000D03*
X23538880Y27700000D03*
X7538880Y27700000D03*
X23538880Y9800000D03*
X300000Y15000000D03*
X23538880Y18700000D03*
X7538880Y18700000D03*
X23538880Y2300000D03*
X7538880Y2300000D03*
X-610000Y11000000D03*
X-1880000Y11000000D03*
X20998880Y17950000D03*
X3700000Y12700003D03*
X19728880Y10450000D03*
X3728880Y10450000D03*
X2250000Y14500000D03*
X19728880Y28350000D03*
X3728880Y28350000D03*
X-4420000Y19000000D03*
X19728880Y19350000D03*
X3728880Y19350000D03*
X19728880Y1650000D03*
X3728880Y1650000D03*
X-4420000Y11000000D03*
X18458880Y11100000D03*
X2458880Y11250000D03*
X2875010Y15038139D03*
X18450000Y29000000D03*
X2458880Y29000000D03*
X-5690000Y19000000D03*
X18458880Y20000000D03*
X2458880Y20000000D03*
X18458880Y1000000D03*
X2458880Y1000000D03*
X-5690000Y11000000D03*
X29350000Y18000000D03*
X16091949Y7091949D03*
X1610173Y14990650D03*
X9500000Y6000000D03*
X950000Y14500000D03*
D12*
X550000Y27700000D02*
X7550000Y27700000D01*
X7550000Y27700000D02*
X23550000Y27700000D01*
X-610000Y26540000D02*
X550000Y27700000D01*
X-610000Y19000000D02*
X-610000Y26540000D01*
X7550000Y9800000D02*
X23550000Y9800000D01*
X2050000Y9800000D02*
X7550000Y9800000D01*
X300000Y11550000D02*
X2050000Y9800000D01*
X300000Y15000000D02*
X300000Y11550000D01*
X7550000Y18700000D02*
X3200000Y18700000D01*
X23600000Y18700000D02*
X7550000Y18700000D01*
X3200000Y18700000D02*
X1150000Y16650000D01*
X1150000Y16650000D02*
X200000Y16650000D01*
X-610000Y15840000D02*
X-610000Y11000000D01*
X200000Y16650000D02*
X-610000Y15840000D01*
X23538880Y2300000D02*
X7538880Y2300000D01*
X450000Y2300000D02*
X1500000Y2300000D01*
X1500000Y2300000D02*
X7538880Y2300000D01*
X-610000Y11000000D02*
X-610000Y3360000D01*
X-610000Y3360000D02*
X450000Y2300000D01*
X3700000Y12700003D02*
X3700000Y13886118D01*
X3700000Y13886118D02*
X7763882Y17950000D01*
X7763882Y17950000D02*
X20998880Y17950000D01*
X3700000Y10450000D02*
X19700000Y10450000D01*
X3000000Y10450000D02*
X3700000Y10450000D01*
X1250000Y11550000D02*
X2350000Y10450000D01*
X2350000Y10450000D02*
X3000000Y10450000D01*
X1250000Y13500000D02*
X1250000Y11550000D01*
X2250000Y14500000D02*
X1250000Y13500000D01*
X19750000Y28350000D02*
X3750000Y28350000D01*
X3750000Y28350000D02*
X-1150000Y28350000D01*
X-1150000Y28350000D02*
X-2900000Y26600000D01*
X-2900000Y23350000D02*
X-4420000Y21830000D01*
X-4420000Y21830000D02*
X-4420000Y19000000D01*
X-2900000Y26600000D02*
X-2900000Y23350000D01*
X3750000Y19350000D02*
X19700000Y19350000D01*
X2850000Y19350000D02*
X3750000Y19350000D01*
X750000Y17250000D02*
X-1850000Y17250000D01*
X2850000Y19350000D02*
X750000Y17250000D01*
X-4420000Y14680000D02*
X-1850000Y17250000D01*
X-4420000Y11000000D02*
X-4420000Y14680000D01*
X19728880Y1650000D02*
X18183878Y1650000D01*
X18183878Y1650000D02*
X3728880Y1650000D01*
X-850000Y1650000D02*
X3750000Y1650000D01*
X-2550000Y3350000D02*
X-850000Y1650000D01*
X-2550000Y3500000D02*
X-2550000Y3350000D01*
X-2550000Y6600000D02*
X-2550000Y3500000D01*
X-4420000Y8470000D02*
X-2550000Y6600000D01*
X-4420000Y11000000D02*
X-4420000Y8470000D01*
X2500000Y11250000D02*
X2650000Y11100000D01*
X1850000Y11900000D02*
X2500000Y11250000D01*
X3300010Y11100000D02*
X3450000Y11100000D01*
X3450000Y11100000D02*
X18450000Y11100000D01*
X2650000Y11100000D02*
X3450000Y11100000D01*
X1850000Y13174998D02*
X1850000Y11900000D01*
X2875010Y15038139D02*
X2875010Y14200008D01*
X2875010Y14200008D02*
X1850000Y13174998D01*
X-1500000Y29000000D02*
X2450000Y29000000D01*
X2450000Y29000000D02*
X18450000Y29000000D01*
X-3500000Y27000000D02*
X-1500000Y29000000D01*
X-3500000Y23700000D02*
X-3500000Y27000000D01*
X-5690000Y21510000D02*
X-3500000Y23700000D01*
X-5690000Y19000000D02*
X-5690000Y21510000D01*
X2450000Y20000000D02*
X18450000Y20000000D01*
X400000Y17950000D02*
X2450000Y20000000D01*
X-2400000Y17950000D02*
X400000Y17950000D01*
X-5690000Y14660000D02*
X-2400000Y17950000D01*
X-5690000Y11000000D02*
X-5690000Y14660000D01*
X2458880Y1000000D02*
X18458880Y1000000D01*
X-1250000Y1000000D02*
X2500000Y1000000D01*
X-3350000Y3100000D02*
X-1250000Y1000000D01*
X-3350000Y6250000D02*
X-3350000Y3100000D01*
X-5690000Y8590000D02*
X-3350000Y6250000D01*
X-5690000Y11000000D02*
X-5690000Y8590000D01*
X29350000Y10050000D02*
X29350000Y18000000D01*
X26391949Y7091949D02*
X29350000Y10050000D01*
X16091949Y7091949D02*
X26391949Y7091949D01*
X16091949Y7091949D02*
X15000000Y6000000D01*
X15000000Y6000000D02*
X9500000Y6000000D01*
M02*
