G04 #@! TF.FileFunction,Copper,L1,Top,Signal*
%FSLAX46Y46*%
G04 Gerber Fmt 4.6, Leading zero omitted, Abs format (unit mm)*
G04 Created by KiCad (PCBNEW 4.0.2-stable) date 10/06/2016 14:43:14*
%MOMM*%
G01*
G04 APERTURE LIST*
%ADD10C,0.100000*%
%ADD11R,0.760000X2.400000*%
%ADD12R,1.198880X1.198880*%
%ADD13R,0.500000X0.900000*%
%ADD14C,0.600000*%
%ADD15C,0.250000*%
G04 APERTURE END LIST*
D10*
D11*
X-610000Y16948180D03*
X-610000Y13048180D03*
X-1880000Y16948180D03*
X-1880000Y13048180D03*
X-3150000Y16948180D03*
X-3150000Y13048180D03*
X-4420000Y16948180D03*
X-4420000Y13048180D03*
X-5690000Y16948180D03*
X-5690000Y13048180D03*
D12*
X23750000Y12250980D03*
X23750000Y14349020D03*
X27300000Y12250980D03*
X27300000Y14349020D03*
X30850000Y12250980D03*
X30850000Y14349020D03*
X34400000Y12250980D03*
X34400000Y14349020D03*
D13*
X23750000Y16700000D03*
X22250000Y16700000D03*
X27300000Y16700000D03*
X25800000Y16700000D03*
X30850000Y16700000D03*
X29350000Y16700000D03*
X34400000Y16700000D03*
X32900000Y16700000D03*
D11*
X23538880Y7948180D03*
X23538880Y4048180D03*
X22268880Y7948180D03*
X22268880Y4048180D03*
X20998880Y7948180D03*
X20998880Y4048180D03*
X19728880Y7948180D03*
X19728880Y4048180D03*
X18458880Y7948180D03*
X18458880Y4048180D03*
X7538880Y7948180D03*
X7538880Y4048180D03*
X6268880Y7948180D03*
X6268880Y4048180D03*
X4998880Y7948180D03*
X4998880Y4048180D03*
X3728880Y7948180D03*
X3728880Y4048180D03*
X2458880Y7948180D03*
X2458880Y4048180D03*
X23538880Y25948180D03*
X23538880Y22048180D03*
X22268880Y25948180D03*
X22268880Y22048180D03*
X20998880Y25948180D03*
X20998880Y22048180D03*
X19728880Y25948180D03*
X19728880Y22048180D03*
X18458880Y25948180D03*
X18458880Y22048180D03*
X7538880Y25948180D03*
X7538880Y22048180D03*
X6268880Y25948180D03*
X6268880Y22048180D03*
X4998880Y25948180D03*
X4998880Y22048180D03*
X3728880Y25948180D03*
X3728880Y22048180D03*
X2458880Y25948180D03*
X2458880Y22048180D03*
D14*
X-610000Y19000000D03*
X7538880Y9800000D03*
X23538880Y27700000D03*
X7538880Y27700000D03*
X23538880Y9800000D03*
X300000Y15000000D03*
X23538880Y18700000D03*
X7538880Y18700000D03*
X23538880Y2300000D03*
X7538880Y2300000D03*
X-610000Y11000000D03*
X-1880000Y11000000D03*
X20998880Y17950000D03*
X3700000Y12700003D03*
X19728880Y10450000D03*
X3728880Y10450000D03*
X2250000Y14500000D03*
X19728880Y28350000D03*
X3728880Y28350000D03*
X-4420000Y19000000D03*
X19728880Y19350000D03*
X3728880Y19350000D03*
X19728880Y1650000D03*
X3728880Y1650000D03*
X-4420000Y11000000D03*
X18458880Y11100000D03*
X2458880Y11250000D03*
X2875010Y15038139D03*
X18450000Y29000000D03*
X2458880Y29000000D03*
X-5690000Y19000000D03*
X18458880Y20000000D03*
X2458880Y20000000D03*
X18458880Y1000000D03*
X2458880Y1000000D03*
X-5690000Y11000000D03*
X29350000Y18000000D03*
X16091949Y7091949D03*
X1610173Y14990650D03*
X9500000Y6000000D03*
X950000Y14500000D03*
D15*
X23538880Y9800000D02*
X23538880Y10588880D01*
X23538880Y10588880D02*
X23750000Y10800000D01*
X23750000Y10800000D02*
X23750000Y12250980D01*
X27300000Y12250980D02*
X26450560Y12250980D01*
X26450560Y12250980D02*
X23750000Y12250980D01*
X30850000Y12250980D02*
X27300000Y12250980D01*
X34400000Y12250980D02*
X33550560Y12250980D01*
X33550560Y12250980D02*
X30850000Y12250980D01*
X23538880Y9800000D02*
X23538880Y7948180D01*
X7538880Y9800000D02*
X7538880Y7948180D01*
X-610000Y19000000D02*
X-185736Y19000000D01*
X23538880Y27700000D02*
X23538880Y25948180D01*
X7538880Y27700000D02*
X7538880Y25948180D01*
X-610000Y16948180D02*
X-610000Y19000000D01*
X700000Y16000000D02*
X300000Y15600000D01*
X300000Y15600000D02*
X300000Y15000000D01*
X700000Y18114264D02*
X700000Y16000000D01*
X-185736Y19000000D02*
X700000Y18114264D01*
X23538880Y18700000D02*
X23538880Y22048180D01*
X7538880Y18700000D02*
X7538880Y22048180D01*
X23538880Y4048180D02*
X23538880Y2300000D01*
X7538880Y2300000D02*
X7538880Y4048180D01*
X7550000Y4037060D02*
X7538880Y4048180D01*
X23550000Y4037060D02*
X23538880Y4048180D01*
X-610000Y13048180D02*
X-610000Y11000000D01*
X25350000Y17950000D02*
X25800000Y17500000D01*
X25800000Y17500000D02*
X25800000Y16700000D01*
X20998880Y17950000D02*
X25350000Y17950000D01*
X20998880Y17950000D02*
X20998880Y22048180D01*
X950000Y11634998D02*
X2015005Y12700003D01*
X-1880000Y11000000D02*
X-1254999Y10374999D01*
X-1254999Y10374999D02*
X-309999Y10374999D01*
X-309999Y10374999D02*
X950000Y11634998D01*
X-1880000Y13048180D02*
X-1880000Y11000000D01*
X2015005Y12700003D02*
X3700000Y12700003D01*
X4998880Y18751120D02*
X7050000Y16700000D01*
X4998880Y22048180D02*
X4998880Y18751120D01*
X4750000Y24000000D02*
X4998880Y23751120D01*
X4998880Y23751120D02*
X4998880Y22048180D01*
X-2250000Y24000000D02*
X4750000Y24000000D01*
X-7050000Y19200000D02*
X-2250000Y24000000D01*
X-7050000Y11434998D02*
X-7050000Y19200000D01*
X-3150000Y13048180D02*
X-3150000Y11344998D01*
X-3150000Y11344998D02*
X-4119999Y10374999D01*
X-4119999Y10374999D02*
X-5990001Y10374999D01*
X-5990001Y10374999D02*
X-7050000Y11434998D01*
X7050000Y16700000D02*
X22250000Y16700000D01*
X19728880Y10450000D02*
X19728880Y7948180D01*
X3728880Y10450000D02*
X3728880Y7948180D01*
X2250000Y15275825D02*
X2250000Y14500000D01*
X2050030Y16100000D02*
X2050030Y15475795D01*
X2050030Y15475795D02*
X2250000Y15275825D01*
X2050030Y18673464D02*
X2050030Y16100000D01*
X-4420000Y19530000D02*
X-3424981Y20525019D01*
X-3424981Y20525019D02*
X198475Y20525019D01*
X198475Y20525019D02*
X2050030Y18673464D01*
X-4420000Y19000000D02*
X-4420000Y19530000D01*
X19728880Y28350000D02*
X19728880Y25948180D01*
X3728880Y25948180D02*
X3728880Y28350000D01*
X-4420000Y16948180D02*
X-4420000Y19000000D01*
X19728880Y19350000D02*
X19728880Y22048180D01*
X3728880Y19350000D02*
X3728880Y22048180D01*
X19728880Y4048180D02*
X19728880Y1650000D01*
X3728880Y1650000D02*
X3728880Y4048180D01*
X-4420000Y13048180D02*
X-4420000Y11000000D01*
X-4420000Y11020000D02*
X-4400000Y11000000D01*
X18458880Y11100000D02*
X18458880Y7948180D01*
X2458880Y11250000D02*
X2458880Y7948180D01*
X2500040Y16000000D02*
X2875010Y15625030D01*
X2875010Y15625030D02*
X2875010Y15038139D01*
X-5690000Y19510000D02*
X-4224971Y20975029D01*
X-4224971Y20975029D02*
X384876Y20975028D01*
X384876Y20975028D02*
X2500040Y18859864D01*
X2500040Y18859864D02*
X2500040Y16000000D01*
X-5690000Y19000000D02*
X-5690000Y19510000D01*
X18458880Y25948180D02*
X18458880Y28991120D01*
X18458880Y28991120D02*
X18450000Y29000000D01*
X2458880Y29000000D02*
X2458880Y25948180D01*
X-5690000Y19000000D02*
X-5690000Y16948180D01*
X18458880Y20000000D02*
X18458880Y22048180D01*
X2458880Y22048180D02*
X2458880Y20000000D01*
X18458880Y1000000D02*
X18458880Y1424264D01*
X18458880Y1424264D02*
X18458880Y4048180D01*
X2458880Y4048180D02*
X2458880Y2598180D01*
X2458880Y2598180D02*
X2458880Y1000000D01*
X-5690000Y13048180D02*
X-5690000Y11010000D01*
X29350000Y18000000D02*
X29350000Y16700000D01*
X1610173Y14990650D02*
X1610173Y14214825D01*
X1610173Y14214825D02*
X1949999Y13874999D01*
X1949999Y13874999D02*
X9308899Y13874999D01*
X9308899Y13874999D02*
X16091949Y7091949D01*
X1600020Y15863600D02*
X1600020Y15000803D01*
X1600020Y15000803D02*
X1610173Y14990650D01*
X1600020Y15863600D02*
X1600020Y18487064D01*
X1600020Y18487064D02*
X12074Y20075010D01*
X5350000Y6000000D02*
X4998880Y5648880D01*
X9500000Y6000000D02*
X5350000Y6000000D01*
X4998880Y5648880D02*
X4998880Y4048180D01*
X12074Y20075010D02*
X-2524989Y20075011D01*
X-2524989Y20075011D02*
X-3150000Y19450000D01*
X-3150000Y19450000D02*
X-3150000Y16948180D01*
X1150010Y16050000D02*
X1150010Y18300664D01*
X1150010Y18300664D02*
X-174327Y19625001D01*
X-174327Y19625001D02*
X-1724999Y19625001D01*
X-1880000Y19470000D02*
X-1880000Y16948180D01*
X-1724999Y19625001D02*
X-1880000Y19470000D01*
X1150010Y16050000D02*
X1150009Y15413599D01*
X950000Y15213590D02*
X950000Y14500000D01*
X1150009Y15413599D02*
X950000Y15213590D01*
X33450000Y18000000D02*
X32900000Y17450000D01*
X32900000Y17450000D02*
X32900000Y16700000D01*
X35500000Y18000000D02*
X33450000Y18000000D01*
X36400000Y17100000D02*
X35500000Y18000000D01*
X36400000Y11400000D02*
X36400000Y17100000D01*
X34500000Y9500000D02*
X36400000Y11400000D01*
X31500000Y9500000D02*
X34500000Y9500000D01*
X28000000Y6000000D02*
X31500000Y9500000D01*
X21150000Y6000000D02*
X28000000Y6000000D01*
X20998880Y5848880D02*
X21150000Y6000000D01*
X20998880Y5751120D02*
X20998880Y5848880D01*
X950000Y14500000D02*
X950000Y14075736D01*
X16300000Y6000000D02*
X20750000Y6000000D01*
X950000Y14075736D02*
X1700732Y13325004D01*
X1700732Y13325004D02*
X8974996Y13325004D01*
X8974996Y13325004D02*
X16300000Y6000000D01*
X20750000Y6000000D02*
X20998880Y5751120D01*
X20998880Y5751120D02*
X20998880Y4048180D01*
X23750000Y14349020D02*
X23750000Y16700000D01*
X27300000Y14349020D02*
X27300000Y16700000D01*
X30850000Y14349020D02*
X30850000Y16700000D01*
X34400000Y14349020D02*
X34400000Y16700000D01*
M02*
