M48
;DRILL file {KiCad 4.0.2-stable} date 10/06/2016 14:41:50
;FORMAT={-:-/ absolute / metric / decimal}
FMAT,2
METRIC,TZ
T1C0.400
%
G90
G05
M71
T1
X129.31Y-96.
X129.31Y-104.
X130.58Y-96.
X130.58Y-104.
X133.12Y-104.
X134.39Y-96.
X134.39Y-104.
X135.3Y-100.
X135.95Y-100.5
X136.61Y-100.009
X137.25Y-100.5
X137.459Y-86.
X137.459Y-95.
X137.459Y-103.75
X137.459Y-114.
X137.875Y-99.962
X138.7Y-102.3
X138.729Y-86.65
X138.729Y-95.65
X138.729Y-104.55
X138.729Y-113.35
X142.539Y-87.3
X142.539Y-96.3
X142.539Y-105.2
X142.539Y-112.7
X144.5Y-109.
X151.092Y-107.908
X153.45Y-86.
X153.459Y-95.
X153.459Y-103.9
X153.459Y-114.
X154.729Y-86.65
X154.729Y-95.65
X154.729Y-104.55
X154.729Y-113.35
X155.999Y-97.05
X158.539Y-87.3
X158.539Y-96.3
X158.539Y-105.2
X158.539Y-112.7
X164.35Y-97.
T0
M30
