G04 #@! TF.FileFunction,Soldermask,Top*
%FSLAX46Y46*%
G04 Gerber Fmt 4.6, Leading zero omitted, Abs format (unit mm)*
G04 Created by KiCad (PCBNEW 4.0.2-stable) date 10/06/2016 14:43:14*
%MOMM*%
G01*
G04 APERTURE LIST*
%ADD10C,0.100000*%
%ADD11R,1.160000X2.800000*%
%ADD12C,3.600000*%
%ADD13R,1.598880X1.598880*%
%ADD14R,0.900000X1.300000*%
G04 APERTURE END LIST*
D10*
D11*
X-610000Y16948180D03*
X-610000Y13048180D03*
X-1880000Y16948180D03*
X-1880000Y13048180D03*
X-3150000Y16948180D03*
X-3150000Y13048180D03*
X-4420000Y16948180D03*
X-4420000Y13048180D03*
X-5690000Y16948180D03*
X-5690000Y13048180D03*
D12*
X-7000000Y5000000D03*
X33000000Y5000000D03*
X-7000000Y25000000D03*
X33000000Y25000000D03*
D13*
X23750000Y12250980D03*
X23750000Y14349020D03*
X27300000Y12250980D03*
X27300000Y14349020D03*
X30850000Y12250980D03*
X30850000Y14349020D03*
X34400000Y12250980D03*
X34400000Y14349020D03*
D14*
X23750000Y16700000D03*
X22250000Y16700000D03*
X27300000Y16700000D03*
X25800000Y16700000D03*
X30850000Y16700000D03*
X29350000Y16700000D03*
X34400000Y16700000D03*
X32900000Y16700000D03*
D11*
X23538880Y7948180D03*
X23538880Y4048180D03*
X22268880Y7948180D03*
X22268880Y4048180D03*
X20998880Y7948180D03*
X20998880Y4048180D03*
X19728880Y7948180D03*
X19728880Y4048180D03*
X18458880Y7948180D03*
X18458880Y4048180D03*
X7538880Y7948180D03*
X7538880Y4048180D03*
X6268880Y7948180D03*
X6268880Y4048180D03*
X4998880Y7948180D03*
X4998880Y4048180D03*
X3728880Y7948180D03*
X3728880Y4048180D03*
X2458880Y7948180D03*
X2458880Y4048180D03*
X23538880Y25948180D03*
X23538880Y22048180D03*
X22268880Y25948180D03*
X22268880Y22048180D03*
X20998880Y25948180D03*
X20998880Y22048180D03*
X19728880Y25948180D03*
X19728880Y22048180D03*
X18458880Y25948180D03*
X18458880Y22048180D03*
X7538880Y25948180D03*
X7538880Y22048180D03*
X6268880Y25948180D03*
X6268880Y22048180D03*
X4998880Y25948180D03*
X4998880Y22048180D03*
X3728880Y25948180D03*
X3728880Y22048180D03*
X2458880Y25948180D03*
X2458880Y22048180D03*
M02*
