G04 #@! TF.FileFunction,Copper,L4,Bot,Plane*
%FSLAX46Y46*%
G04 Gerber Fmt 4.6, Leading zero omitted, Abs format (unit mm)*
G04 Created by KiCad (PCBNEW (2015-12-07 BZR 6352)-product) date Sun 16 Jul 2017 10:51:14 AM EDT*
%MOMM*%
G01*
G04 APERTURE LIST*
%ADD10C,0.100000*%
%ADD11R,2.032000X1.727200*%
%ADD12O,2.032000X1.727200*%
%ADD13C,0.700000*%
%ADD14C,4.000000*%
%ADD15C,5.000000*%
%ADD16C,2.400000*%
%ADD17R,2.400000X2.400000*%
%ADD18C,0.600000*%
%ADD19C,0.254000*%
G04 APERTURE END LIST*
D10*
D11*
X140250000Y-106435000D03*
D12*
X140250000Y-103895000D03*
X140250000Y-101355000D03*
X140250000Y-98815000D03*
D11*
X140250000Y-81435000D03*
D12*
X140250000Y-78895000D03*
X140250000Y-76355000D03*
X140250000Y-73815000D03*
D11*
X140250000Y-56435000D03*
D12*
X140250000Y-53895000D03*
X140250000Y-51355000D03*
X140250000Y-48815000D03*
D13*
X89730000Y-86000000D03*
X91000000Y-86000000D03*
X89730000Y-87270000D03*
X91000000Y-87270000D03*
X89730000Y-88540000D03*
X91000000Y-88540000D03*
X89730000Y-89810000D03*
X91000000Y-89810000D03*
X89730000Y-91080000D03*
X91000000Y-91080000D03*
X89730000Y-61000000D03*
X91000000Y-61000000D03*
X89730000Y-62270000D03*
X91000000Y-62270000D03*
X89730000Y-63540000D03*
X91000000Y-63540000D03*
X89730000Y-64810000D03*
X91000000Y-64810000D03*
X89730000Y-66080000D03*
X91000000Y-66080000D03*
D14*
X96000000Y-106000000D03*
X156000000Y-106000000D03*
X156000000Y-46000000D03*
X96000000Y-46000000D03*
D15*
X86000000Y-116000000D03*
X86000000Y-36000000D03*
X166000000Y-36000000D03*
X166000000Y-116000000D03*
D16*
X95500000Y-77500000D03*
D17*
X95500000Y-74000000D03*
D18*
X93972736Y-67438405D03*
X93500000Y-63000000D03*
X128999946Y-112001620D03*
X123877497Y-109532598D03*
X128999946Y-87001620D03*
X123877497Y-84532598D03*
X123877497Y-59532598D03*
X128999946Y-62001620D03*
X108500000Y-76500000D03*
X107500000Y-76500000D03*
X106500000Y-76500000D03*
X106500000Y-75500000D03*
X107500000Y-75500000D03*
X108500000Y-75500000D03*
X108500000Y-74500000D03*
X107500000Y-74500000D03*
X108500000Y-101500000D03*
X107500000Y-101500000D03*
X106500000Y-101500000D03*
X106500000Y-100500000D03*
X107500000Y-100500000D03*
X108500000Y-100500000D03*
X108500000Y-99500000D03*
X106500000Y-99500000D03*
X107500000Y-99500000D03*
X108500000Y-51500000D03*
X108500000Y-50500000D03*
X108500000Y-49500000D03*
X107500000Y-50500000D03*
X107500000Y-51500000D03*
X106500000Y-51500000D03*
X106500000Y-50500000D03*
X107500000Y-49500000D03*
X128800000Y-103900000D03*
X129800000Y-102900000D03*
X129800000Y-103900000D03*
X133835488Y-97859014D03*
X128800000Y-102900000D03*
X127800000Y-102900000D03*
X129800000Y-101900000D03*
X127800000Y-101900000D03*
X128800000Y-101900000D03*
X127800000Y-103900000D03*
X136000000Y-115500000D03*
X135500000Y-108750000D03*
X122500000Y-106500000D03*
X106500000Y-74500000D03*
X128800000Y-78900000D03*
X129800000Y-77900000D03*
X129800000Y-78900000D03*
X133835488Y-72859014D03*
X128800000Y-77900000D03*
X127800000Y-77900000D03*
X129800000Y-76900000D03*
X127800000Y-76900000D03*
X128800000Y-76900000D03*
X127800000Y-78900000D03*
X136000000Y-90500000D03*
X135500000Y-83750000D03*
X122500000Y-81500000D03*
X106500000Y-49500000D03*
X136000000Y-65500000D03*
X122500000Y-56500000D03*
X127800000Y-53900000D03*
X129800000Y-53900000D03*
X129800000Y-52900000D03*
X127800000Y-52900000D03*
X127800000Y-51900000D03*
X129800000Y-51900000D03*
X133835488Y-47859014D03*
X135500000Y-58750000D03*
X128800000Y-51900000D03*
X128800000Y-53900000D03*
X128800000Y-52900000D03*
X119500000Y-101500000D03*
X118500000Y-101500000D03*
X117500000Y-101500000D03*
X117500000Y-100500000D03*
X118500000Y-100500000D03*
X119500000Y-100500000D03*
X119500000Y-99500000D03*
X118500000Y-99500000D03*
X119500000Y-76500000D03*
X118500000Y-76500000D03*
X117500000Y-76500000D03*
X117500000Y-75500000D03*
X118500000Y-75500000D03*
X119500000Y-75500000D03*
X119500000Y-74500000D03*
X119500000Y-51500000D03*
X118500000Y-51500000D03*
X117500000Y-51500000D03*
X117500000Y-50500000D03*
X118500000Y-50500000D03*
X119500000Y-50500000D03*
X119500000Y-49500000D03*
X117500000Y-99500000D03*
X130750000Y-97500000D03*
X133500000Y-101250000D03*
X132750000Y-101250000D03*
X132500000Y-104500000D03*
X133250000Y-104500000D03*
X133000000Y-108000000D03*
X132250000Y-108750000D03*
X129750000Y-96500000D03*
X117500000Y-74500000D03*
X118500000Y-74500000D03*
X130750000Y-72500000D03*
X133500000Y-76250000D03*
X132750000Y-76250000D03*
X132500000Y-79500000D03*
X133250000Y-79500000D03*
X133000000Y-83000000D03*
X132250000Y-83750000D03*
X129750000Y-71500000D03*
X118500000Y-49500000D03*
X117500000Y-49500000D03*
X129750000Y-46500000D03*
X130750000Y-47500000D03*
X133500000Y-51250000D03*
X132750000Y-51250000D03*
X133250000Y-54500000D03*
X132500000Y-54500000D03*
X133000000Y-58000000D03*
X132250000Y-58750000D03*
X131478972Y-61901457D03*
X123638419Y-58405516D03*
X133500000Y-111000000D03*
X117500000Y-110500000D03*
X133500000Y-86000000D03*
X117500000Y-85500000D03*
X117500000Y-60500000D03*
X133500000Y-61000000D03*
X92000000Y-60000000D03*
X94746015Y-68753985D03*
X89500000Y-81500000D03*
X95000000Y-63500000D03*
X117500000Y-110500000D03*
X117500000Y-85500000D03*
X89500000Y-83500000D03*
X89500000Y-82500000D03*
X92000000Y-86500000D03*
X131556337Y-86967660D03*
X123638419Y-83405516D03*
X131649175Y-111987443D03*
X123638419Y-108405516D03*
D19*
X107500000Y-76500000D02*
X108500000Y-76500000D01*
X106500000Y-75500000D02*
X106500000Y-76500000D01*
X108500000Y-75500000D02*
X107500000Y-75500000D01*
X107500000Y-74500000D02*
X108500000Y-74500000D01*
X106500000Y-101500000D02*
X107500000Y-101500000D01*
X107500000Y-100500000D02*
X106500000Y-100500000D01*
X108500000Y-99500000D02*
X108500000Y-100500000D01*
G36*
X170598000Y-120598000D02*
X81402000Y-120598000D01*
X81402000Y-112125791D01*
X128372837Y-112125791D01*
X128468091Y-112356323D01*
X128644315Y-112532855D01*
X128874681Y-112628511D01*
X129124117Y-112628729D01*
X129354649Y-112533475D01*
X129531181Y-112357251D01*
X129626837Y-112126885D01*
X129626850Y-112111614D01*
X131022066Y-112111614D01*
X131117320Y-112342146D01*
X131293544Y-112518678D01*
X131523910Y-112614334D01*
X131773346Y-112614552D01*
X132003878Y-112519298D01*
X132180410Y-112343074D01*
X132276066Y-112112708D01*
X132276284Y-111863272D01*
X132181030Y-111632740D01*
X132004806Y-111456208D01*
X131774440Y-111360552D01*
X131525004Y-111360334D01*
X131294472Y-111455588D01*
X131117940Y-111631812D01*
X131022284Y-111862178D01*
X131022066Y-112111614D01*
X129626850Y-112111614D01*
X129627055Y-111877449D01*
X129531801Y-111646917D01*
X129355577Y-111470385D01*
X129125211Y-111374729D01*
X128875775Y-111374511D01*
X128645243Y-111469765D01*
X128468711Y-111645989D01*
X128373055Y-111876355D01*
X128372837Y-112125791D01*
X81402000Y-112125791D01*
X81402000Y-110624171D01*
X116872891Y-110624171D01*
X116968145Y-110854703D01*
X117144369Y-111031235D01*
X117374735Y-111126891D01*
X117624171Y-111127109D01*
X117631281Y-111124171D01*
X132872891Y-111124171D01*
X132968145Y-111354703D01*
X133144369Y-111531235D01*
X133374735Y-111626891D01*
X133624171Y-111627109D01*
X133854703Y-111531855D01*
X134031235Y-111355631D01*
X134126891Y-111125265D01*
X134127109Y-110875829D01*
X134031855Y-110645297D01*
X133855631Y-110468765D01*
X133625265Y-110373109D01*
X133375829Y-110372891D01*
X133145297Y-110468145D01*
X132968765Y-110644369D01*
X132873109Y-110874735D01*
X132872891Y-111124171D01*
X117631281Y-111124171D01*
X117854703Y-111031855D01*
X118031235Y-110855631D01*
X118126891Y-110625265D01*
X118127109Y-110375829D01*
X118031855Y-110145297D01*
X117855631Y-109968765D01*
X117625265Y-109873109D01*
X117375829Y-109872891D01*
X117145297Y-109968145D01*
X116968765Y-110144369D01*
X116873109Y-110374735D01*
X116872891Y-110624171D01*
X81402000Y-110624171D01*
X81402000Y-108529687D01*
X123011310Y-108529687D01*
X123106564Y-108760219D01*
X123282788Y-108936751D01*
X123497561Y-109025932D01*
X123346262Y-109176967D01*
X123250606Y-109407333D01*
X123250388Y-109656769D01*
X123345642Y-109887301D01*
X123521866Y-110063833D01*
X123752232Y-110159489D01*
X124001668Y-110159707D01*
X124232200Y-110064453D01*
X124408732Y-109888229D01*
X124504388Y-109657863D01*
X124504606Y-109408427D01*
X124409352Y-109177895D01*
X124233128Y-109001363D01*
X124018355Y-108912182D01*
X124056432Y-108874171D01*
X131622891Y-108874171D01*
X131718145Y-109104703D01*
X131894369Y-109281235D01*
X132124735Y-109376891D01*
X132374171Y-109377109D01*
X132604703Y-109281855D01*
X132781235Y-109105631D01*
X132876891Y-108875265D01*
X132877108Y-108626893D01*
X133124171Y-108627109D01*
X133354703Y-108531855D01*
X133531235Y-108355631D01*
X133626891Y-108125265D01*
X133627109Y-107875829D01*
X133531855Y-107645297D01*
X133355631Y-107468765D01*
X133125265Y-107373109D01*
X132875829Y-107372891D01*
X132645297Y-107468145D01*
X132468765Y-107644369D01*
X132373109Y-107874735D01*
X132372892Y-108123107D01*
X132125829Y-108122891D01*
X131895297Y-108218145D01*
X131718765Y-108394369D01*
X131623109Y-108624735D01*
X131622891Y-108874171D01*
X124056432Y-108874171D01*
X124169654Y-108761147D01*
X124265310Y-108530781D01*
X124265528Y-108281345D01*
X124170274Y-108050813D01*
X123994050Y-107874281D01*
X123763684Y-107778625D01*
X123514248Y-107778407D01*
X123283716Y-107873661D01*
X123107184Y-108049885D01*
X123011528Y-108280251D01*
X123011310Y-108529687D01*
X81402000Y-108529687D01*
X81402000Y-106460838D01*
X93672597Y-106460838D01*
X94026115Y-107316418D01*
X94680139Y-107971585D01*
X95535100Y-108326596D01*
X96460838Y-108327403D01*
X97316418Y-107973885D01*
X97971585Y-107319861D01*
X98326596Y-106464900D01*
X98327374Y-105571400D01*
X138900594Y-105571400D01*
X138900594Y-107298600D01*
X138923395Y-107419779D01*
X138995012Y-107531074D01*
X139104286Y-107605738D01*
X139234000Y-107632006D01*
X141266000Y-107632006D01*
X141387179Y-107609205D01*
X141498474Y-107537588D01*
X141573138Y-107428314D01*
X141599406Y-107298600D01*
X141599406Y-106460838D01*
X153672597Y-106460838D01*
X154026115Y-107316418D01*
X154680139Y-107971585D01*
X155535100Y-108326596D01*
X156460838Y-108327403D01*
X157316418Y-107973885D01*
X157971585Y-107319861D01*
X158326596Y-106464900D01*
X158327403Y-105539162D01*
X157973885Y-104683582D01*
X157319861Y-104028415D01*
X156464900Y-103673404D01*
X155539162Y-103672597D01*
X154683582Y-104026115D01*
X154028415Y-104680139D01*
X153673404Y-105535100D01*
X153672597Y-106460838D01*
X141599406Y-106460838D01*
X141599406Y-105571400D01*
X141576605Y-105450221D01*
X141504988Y-105338926D01*
X141395714Y-105264262D01*
X141266000Y-105237994D01*
X139234000Y-105237994D01*
X139112821Y-105260795D01*
X139001526Y-105332412D01*
X138926862Y-105441686D01*
X138900594Y-105571400D01*
X98327374Y-105571400D01*
X98327403Y-105539162D01*
X97973885Y-104683582D01*
X97914578Y-104624171D01*
X131872891Y-104624171D01*
X131968145Y-104854703D01*
X132144369Y-105031235D01*
X132374735Y-105126891D01*
X132624171Y-105127109D01*
X132854703Y-105031855D01*
X132874881Y-105011713D01*
X132894369Y-105031235D01*
X133124735Y-105126891D01*
X133374171Y-105127109D01*
X133604703Y-105031855D01*
X133781235Y-104855631D01*
X133876891Y-104625265D01*
X133877109Y-104375829D01*
X133781855Y-104145297D01*
X133605631Y-103968765D01*
X133427985Y-103895000D01*
X138880689Y-103895000D01*
X138971318Y-104350623D01*
X139229408Y-104736881D01*
X139615666Y-104994971D01*
X140071289Y-105085600D01*
X140428711Y-105085600D01*
X140884334Y-104994971D01*
X141270592Y-104736881D01*
X141528682Y-104350623D01*
X141619311Y-103895000D01*
X141528682Y-103439377D01*
X141270592Y-103053119D01*
X140884334Y-102795029D01*
X140428711Y-102704400D01*
X140071289Y-102704400D01*
X139615666Y-102795029D01*
X139229408Y-103053119D01*
X138971318Y-103439377D01*
X138880689Y-103895000D01*
X133427985Y-103895000D01*
X133375265Y-103873109D01*
X133125829Y-103872891D01*
X132895297Y-103968145D01*
X132875119Y-103988287D01*
X132855631Y-103968765D01*
X132625265Y-103873109D01*
X132375829Y-103872891D01*
X132145297Y-103968145D01*
X131968765Y-104144369D01*
X131873109Y-104374735D01*
X131872891Y-104624171D01*
X97914578Y-104624171D01*
X97319861Y-104028415D01*
X96464900Y-103673404D01*
X95539162Y-103672597D01*
X94683582Y-104026115D01*
X94028415Y-104680139D01*
X93673404Y-105535100D01*
X93672597Y-106460838D01*
X81402000Y-106460838D01*
X81402000Y-99624171D01*
X116872891Y-99624171D01*
X116968145Y-99854703D01*
X117113287Y-100000099D01*
X116968765Y-100144369D01*
X116873109Y-100374735D01*
X116872891Y-100624171D01*
X116968145Y-100854703D01*
X117113287Y-101000099D01*
X116968765Y-101144369D01*
X116873109Y-101374735D01*
X116872891Y-101624171D01*
X116968145Y-101854703D01*
X117144369Y-102031235D01*
X117374735Y-102126891D01*
X117624171Y-102127109D01*
X117854703Y-102031855D01*
X118000099Y-101886713D01*
X118144369Y-102031235D01*
X118374735Y-102126891D01*
X118624171Y-102127109D01*
X118854703Y-102031855D01*
X119000099Y-101886713D01*
X119144369Y-102031235D01*
X119374735Y-102126891D01*
X119624171Y-102127109D01*
X119854703Y-102031855D01*
X120031235Y-101855631D01*
X120126891Y-101625265D01*
X120127109Y-101375829D01*
X120126424Y-101374171D01*
X132122891Y-101374171D01*
X132218145Y-101604703D01*
X132394369Y-101781235D01*
X132624735Y-101876891D01*
X132874171Y-101877109D01*
X133104703Y-101781855D01*
X133124881Y-101761713D01*
X133144369Y-101781235D01*
X133374735Y-101876891D01*
X133624171Y-101877109D01*
X133854703Y-101781855D01*
X134031235Y-101605631D01*
X134126891Y-101375265D01*
X134126908Y-101355000D01*
X138880689Y-101355000D01*
X138971318Y-101810623D01*
X139229408Y-102196881D01*
X139615666Y-102454971D01*
X140071289Y-102545600D01*
X140428711Y-102545600D01*
X140884334Y-102454971D01*
X141270592Y-102196881D01*
X141528682Y-101810623D01*
X141619311Y-101355000D01*
X141528682Y-100899377D01*
X141270592Y-100513119D01*
X140884334Y-100255029D01*
X140428711Y-100164400D01*
X140071289Y-100164400D01*
X139615666Y-100255029D01*
X139229408Y-100513119D01*
X138971318Y-100899377D01*
X138880689Y-101355000D01*
X134126908Y-101355000D01*
X134127109Y-101125829D01*
X134031855Y-100895297D01*
X133855631Y-100718765D01*
X133625265Y-100623109D01*
X133375829Y-100622891D01*
X133145297Y-100718145D01*
X133125119Y-100738287D01*
X133105631Y-100718765D01*
X132875265Y-100623109D01*
X132625829Y-100622891D01*
X132395297Y-100718145D01*
X132218765Y-100894369D01*
X132123109Y-101124735D01*
X132122891Y-101374171D01*
X120126424Y-101374171D01*
X120031855Y-101145297D01*
X119886713Y-100999901D01*
X120031235Y-100855631D01*
X120126891Y-100625265D01*
X120127109Y-100375829D01*
X120031855Y-100145297D01*
X119886713Y-99999901D01*
X120031235Y-99855631D01*
X120126891Y-99625265D01*
X120127109Y-99375829D01*
X120031855Y-99145297D01*
X119855631Y-98968765D01*
X119625265Y-98873109D01*
X119375829Y-98872891D01*
X119145297Y-98968145D01*
X118999901Y-99113287D01*
X118855631Y-98968765D01*
X118625265Y-98873109D01*
X118375829Y-98872891D01*
X118145297Y-98968145D01*
X117999901Y-99113287D01*
X117855631Y-98968765D01*
X117625265Y-98873109D01*
X117375829Y-98872891D01*
X117145297Y-98968145D01*
X116968765Y-99144369D01*
X116873109Y-99374735D01*
X116872891Y-99624171D01*
X81402000Y-99624171D01*
X81402000Y-98815000D01*
X138880689Y-98815000D01*
X138971318Y-99270623D01*
X139229408Y-99656881D01*
X139615666Y-99914971D01*
X140071289Y-100005600D01*
X140428711Y-100005600D01*
X140884334Y-99914971D01*
X141270592Y-99656881D01*
X141528682Y-99270623D01*
X141619311Y-98815000D01*
X141528682Y-98359377D01*
X141270592Y-97973119D01*
X140884334Y-97715029D01*
X140428711Y-97624400D01*
X140071289Y-97624400D01*
X139615666Y-97715029D01*
X139229408Y-97973119D01*
X138971318Y-98359377D01*
X138880689Y-98815000D01*
X81402000Y-98815000D01*
X81402000Y-97624171D01*
X130122891Y-97624171D01*
X130218145Y-97854703D01*
X130394369Y-98031235D01*
X130624735Y-98126891D01*
X130874171Y-98127109D01*
X131104703Y-98031855D01*
X131281235Y-97855631D01*
X131376891Y-97625265D01*
X131377109Y-97375829D01*
X131281855Y-97145297D01*
X131105631Y-96968765D01*
X130875265Y-96873109D01*
X130625829Y-96872891D01*
X130395297Y-96968145D01*
X130218765Y-97144369D01*
X130123109Y-97374735D01*
X130122891Y-97624171D01*
X81402000Y-97624171D01*
X81402000Y-96624171D01*
X129122891Y-96624171D01*
X129218145Y-96854703D01*
X129394369Y-97031235D01*
X129624735Y-97126891D01*
X129874171Y-97127109D01*
X130104703Y-97031855D01*
X130281235Y-96855631D01*
X130376891Y-96625265D01*
X130377109Y-96375829D01*
X130281855Y-96145297D01*
X130105631Y-95968765D01*
X129875265Y-95873109D01*
X129625829Y-95872891D01*
X129395297Y-95968145D01*
X129218765Y-96144369D01*
X129123109Y-96374735D01*
X129122891Y-96624171D01*
X81402000Y-96624171D01*
X81402000Y-86134073D01*
X89052883Y-86134073D01*
X89155733Y-86382989D01*
X89346010Y-86573598D01*
X89493939Y-86635023D01*
X89347011Y-86695733D01*
X89156402Y-86886010D01*
X89053118Y-87134746D01*
X89052883Y-87404073D01*
X89155733Y-87652989D01*
X89346010Y-87843598D01*
X89493939Y-87905023D01*
X89347011Y-87965733D01*
X89156402Y-88156010D01*
X89053118Y-88404746D01*
X89052883Y-88674073D01*
X89155733Y-88922989D01*
X89346010Y-89113598D01*
X89493939Y-89175023D01*
X89347011Y-89235733D01*
X89156402Y-89426010D01*
X89053118Y-89674746D01*
X89052883Y-89944073D01*
X89155733Y-90192989D01*
X89346010Y-90383598D01*
X89493939Y-90445023D01*
X89347011Y-90505733D01*
X89156402Y-90696010D01*
X89053118Y-90944746D01*
X89052883Y-91214073D01*
X89155733Y-91462989D01*
X89346010Y-91653598D01*
X89594746Y-91756882D01*
X89864073Y-91757117D01*
X90112989Y-91654267D01*
X90303598Y-91463990D01*
X90406882Y-91215254D01*
X90407117Y-90945927D01*
X90304267Y-90697011D01*
X90113990Y-90506402D01*
X89966061Y-90444977D01*
X90112989Y-90384267D01*
X90303598Y-90193990D01*
X90365023Y-90046061D01*
X90425733Y-90192989D01*
X90616010Y-90383598D01*
X90864746Y-90486882D01*
X91134073Y-90487117D01*
X91382989Y-90384267D01*
X91573598Y-90193990D01*
X91676882Y-89945254D01*
X91677117Y-89675927D01*
X91574267Y-89427011D01*
X91383990Y-89236402D01*
X91236061Y-89174977D01*
X91382989Y-89114267D01*
X91573598Y-88923990D01*
X91676882Y-88675254D01*
X91677117Y-88405927D01*
X91574267Y-88157011D01*
X91383990Y-87966402D01*
X91236061Y-87904977D01*
X91382989Y-87844267D01*
X91573598Y-87653990D01*
X91676882Y-87405254D01*
X91677117Y-87135927D01*
X91626437Y-87013271D01*
X91644369Y-87031235D01*
X91874735Y-87126891D01*
X92124171Y-87127109D01*
X92127360Y-87125791D01*
X128372837Y-87125791D01*
X128468091Y-87356323D01*
X128644315Y-87532855D01*
X128874681Y-87628511D01*
X129124117Y-87628729D01*
X129354649Y-87533475D01*
X129531181Y-87357251D01*
X129626837Y-87126885D01*
X129626867Y-87091831D01*
X130929228Y-87091831D01*
X131024482Y-87322363D01*
X131200706Y-87498895D01*
X131431072Y-87594551D01*
X131680508Y-87594769D01*
X131911040Y-87499515D01*
X132087572Y-87323291D01*
X132183228Y-87092925D01*
X132183446Y-86843489D01*
X132088192Y-86612957D01*
X131911968Y-86436425D01*
X131681602Y-86340769D01*
X131432166Y-86340551D01*
X131201634Y-86435805D01*
X131025102Y-86612029D01*
X130929446Y-86842395D01*
X130929228Y-87091831D01*
X129626867Y-87091831D01*
X129627055Y-86877449D01*
X129531801Y-86646917D01*
X129355577Y-86470385D01*
X129125211Y-86374729D01*
X128875775Y-86374511D01*
X128645243Y-86469765D01*
X128468711Y-86645989D01*
X128373055Y-86876355D01*
X128372837Y-87125791D01*
X92127360Y-87125791D01*
X92354703Y-87031855D01*
X92531235Y-86855631D01*
X92626891Y-86625265D01*
X92627109Y-86375829D01*
X92531855Y-86145297D01*
X92355631Y-85968765D01*
X92125265Y-85873109D01*
X91875829Y-85872891D01*
X91677039Y-85955029D01*
X91677117Y-85865927D01*
X91577226Y-85624171D01*
X116872891Y-85624171D01*
X116968145Y-85854703D01*
X117144369Y-86031235D01*
X117374735Y-86126891D01*
X117624171Y-86127109D01*
X117631281Y-86124171D01*
X132872891Y-86124171D01*
X132968145Y-86354703D01*
X133144369Y-86531235D01*
X133374735Y-86626891D01*
X133624171Y-86627109D01*
X133854703Y-86531855D01*
X134031235Y-86355631D01*
X134126891Y-86125265D01*
X134127109Y-85875829D01*
X134031855Y-85645297D01*
X133855631Y-85468765D01*
X133625265Y-85373109D01*
X133375829Y-85372891D01*
X133145297Y-85468145D01*
X132968765Y-85644369D01*
X132873109Y-85874735D01*
X132872891Y-86124171D01*
X117631281Y-86124171D01*
X117854703Y-86031855D01*
X118031235Y-85855631D01*
X118126891Y-85625265D01*
X118127109Y-85375829D01*
X118031855Y-85145297D01*
X117855631Y-84968765D01*
X117625265Y-84873109D01*
X117375829Y-84872891D01*
X117145297Y-84968145D01*
X116968765Y-85144369D01*
X116873109Y-85374735D01*
X116872891Y-85624171D01*
X91577226Y-85624171D01*
X91574267Y-85617011D01*
X91383990Y-85426402D01*
X91135254Y-85323118D01*
X90865927Y-85322883D01*
X90617011Y-85425733D01*
X90426402Y-85616010D01*
X90364977Y-85763939D01*
X90304267Y-85617011D01*
X90113990Y-85426402D01*
X89865254Y-85323118D01*
X89595927Y-85322883D01*
X89347011Y-85425733D01*
X89156402Y-85616010D01*
X89053118Y-85864746D01*
X89052883Y-86134073D01*
X81402000Y-86134073D01*
X81402000Y-81624171D01*
X88872891Y-81624171D01*
X88968145Y-81854703D01*
X89113287Y-82000099D01*
X88968765Y-82144369D01*
X88873109Y-82374735D01*
X88872891Y-82624171D01*
X88968145Y-82854703D01*
X89113287Y-83000099D01*
X88968765Y-83144369D01*
X88873109Y-83374735D01*
X88872891Y-83624171D01*
X88968145Y-83854703D01*
X89144369Y-84031235D01*
X89374735Y-84126891D01*
X89624171Y-84127109D01*
X89854703Y-84031855D01*
X90031235Y-83855631D01*
X90126891Y-83625265D01*
X90126974Y-83529687D01*
X123011310Y-83529687D01*
X123106564Y-83760219D01*
X123282788Y-83936751D01*
X123497561Y-84025932D01*
X123346262Y-84176967D01*
X123250606Y-84407333D01*
X123250388Y-84656769D01*
X123345642Y-84887301D01*
X123521866Y-85063833D01*
X123752232Y-85159489D01*
X124001668Y-85159707D01*
X124232200Y-85064453D01*
X124408732Y-84888229D01*
X124504388Y-84657863D01*
X124504606Y-84408427D01*
X124409352Y-84177895D01*
X124233128Y-84001363D01*
X124018355Y-83912182D01*
X124056432Y-83874171D01*
X131622891Y-83874171D01*
X131718145Y-84104703D01*
X131894369Y-84281235D01*
X132124735Y-84376891D01*
X132374171Y-84377109D01*
X132604703Y-84281855D01*
X132781235Y-84105631D01*
X132876891Y-83875265D01*
X132877108Y-83626893D01*
X133124171Y-83627109D01*
X133354703Y-83531855D01*
X133531235Y-83355631D01*
X133626891Y-83125265D01*
X133627109Y-82875829D01*
X133531855Y-82645297D01*
X133355631Y-82468765D01*
X133125265Y-82373109D01*
X132875829Y-82372891D01*
X132645297Y-82468145D01*
X132468765Y-82644369D01*
X132373109Y-82874735D01*
X132372892Y-83123107D01*
X132125829Y-83122891D01*
X131895297Y-83218145D01*
X131718765Y-83394369D01*
X131623109Y-83624735D01*
X131622891Y-83874171D01*
X124056432Y-83874171D01*
X124169654Y-83761147D01*
X124265310Y-83530781D01*
X124265528Y-83281345D01*
X124170274Y-83050813D01*
X123994050Y-82874281D01*
X123763684Y-82778625D01*
X123514248Y-82778407D01*
X123283716Y-82873661D01*
X123107184Y-83049885D01*
X123011528Y-83280251D01*
X123011310Y-83529687D01*
X90126974Y-83529687D01*
X90127109Y-83375829D01*
X90031855Y-83145297D01*
X89886713Y-82999901D01*
X90031235Y-82855631D01*
X90126891Y-82625265D01*
X90127109Y-82375829D01*
X90031855Y-82145297D01*
X89886713Y-81999901D01*
X90031235Y-81855631D01*
X90126891Y-81625265D01*
X90127109Y-81375829D01*
X90031855Y-81145297D01*
X89855631Y-80968765D01*
X89625265Y-80873109D01*
X89375829Y-80872891D01*
X89145297Y-80968145D01*
X88968765Y-81144369D01*
X88873109Y-81374735D01*
X88872891Y-81624171D01*
X81402000Y-81624171D01*
X81402000Y-80571400D01*
X138900594Y-80571400D01*
X138900594Y-82298600D01*
X138923395Y-82419779D01*
X138995012Y-82531074D01*
X139104286Y-82605738D01*
X139234000Y-82632006D01*
X141266000Y-82632006D01*
X141387179Y-82609205D01*
X141498474Y-82537588D01*
X141573138Y-82428314D01*
X141599406Y-82298600D01*
X141599406Y-80571400D01*
X141576605Y-80450221D01*
X141504988Y-80338926D01*
X141395714Y-80264262D01*
X141266000Y-80237994D01*
X139234000Y-80237994D01*
X139112821Y-80260795D01*
X139001526Y-80332412D01*
X138926862Y-80441686D01*
X138900594Y-80571400D01*
X81402000Y-80571400D01*
X81402000Y-79624171D01*
X131872891Y-79624171D01*
X131968145Y-79854703D01*
X132144369Y-80031235D01*
X132374735Y-80126891D01*
X132624171Y-80127109D01*
X132854703Y-80031855D01*
X132874881Y-80011713D01*
X132894369Y-80031235D01*
X133124735Y-80126891D01*
X133374171Y-80127109D01*
X133604703Y-80031855D01*
X133781235Y-79855631D01*
X133876891Y-79625265D01*
X133877109Y-79375829D01*
X133781855Y-79145297D01*
X133605631Y-78968765D01*
X133427985Y-78895000D01*
X138880689Y-78895000D01*
X138971318Y-79350623D01*
X139229408Y-79736881D01*
X139615666Y-79994971D01*
X140071289Y-80085600D01*
X140428711Y-80085600D01*
X140884334Y-79994971D01*
X141270592Y-79736881D01*
X141528682Y-79350623D01*
X141619311Y-78895000D01*
X141528682Y-78439377D01*
X141270592Y-78053119D01*
X140884334Y-77795029D01*
X140428711Y-77704400D01*
X140071289Y-77704400D01*
X139615666Y-77795029D01*
X139229408Y-78053119D01*
X138971318Y-78439377D01*
X138880689Y-78895000D01*
X133427985Y-78895000D01*
X133375265Y-78873109D01*
X133125829Y-78872891D01*
X132895297Y-78968145D01*
X132875119Y-78988287D01*
X132855631Y-78968765D01*
X132625265Y-78873109D01*
X132375829Y-78872891D01*
X132145297Y-78968145D01*
X131968765Y-79144369D01*
X131873109Y-79374735D01*
X131872891Y-79624171D01*
X81402000Y-79624171D01*
X81402000Y-72800000D01*
X93966594Y-72800000D01*
X93966594Y-75200000D01*
X93989395Y-75321179D01*
X94061012Y-75432474D01*
X94170286Y-75507138D01*
X94300000Y-75533406D01*
X96700000Y-75533406D01*
X96821179Y-75510605D01*
X96932474Y-75438988D01*
X97007138Y-75329714D01*
X97033406Y-75200000D01*
X97033406Y-74624171D01*
X116872891Y-74624171D01*
X116968145Y-74854703D01*
X117113287Y-75000099D01*
X116968765Y-75144369D01*
X116873109Y-75374735D01*
X116872891Y-75624171D01*
X116968145Y-75854703D01*
X117113287Y-76000099D01*
X116968765Y-76144369D01*
X116873109Y-76374735D01*
X116872891Y-76624171D01*
X116968145Y-76854703D01*
X117144369Y-77031235D01*
X117374735Y-77126891D01*
X117624171Y-77127109D01*
X117854703Y-77031855D01*
X118000099Y-76886713D01*
X118144369Y-77031235D01*
X118374735Y-77126891D01*
X118624171Y-77127109D01*
X118854703Y-77031855D01*
X119000099Y-76886713D01*
X119144369Y-77031235D01*
X119374735Y-77126891D01*
X119624171Y-77127109D01*
X119854703Y-77031855D01*
X120031235Y-76855631D01*
X120126891Y-76625265D01*
X120127109Y-76375829D01*
X120126424Y-76374171D01*
X132122891Y-76374171D01*
X132218145Y-76604703D01*
X132394369Y-76781235D01*
X132624735Y-76876891D01*
X132874171Y-76877109D01*
X133104703Y-76781855D01*
X133124881Y-76761713D01*
X133144369Y-76781235D01*
X133374735Y-76876891D01*
X133624171Y-76877109D01*
X133854703Y-76781855D01*
X134031235Y-76605631D01*
X134126891Y-76375265D01*
X134126908Y-76355000D01*
X138880689Y-76355000D01*
X138971318Y-76810623D01*
X139229408Y-77196881D01*
X139615666Y-77454971D01*
X140071289Y-77545600D01*
X140428711Y-77545600D01*
X140884334Y-77454971D01*
X141270592Y-77196881D01*
X141528682Y-76810623D01*
X141619311Y-76355000D01*
X141528682Y-75899377D01*
X141270592Y-75513119D01*
X140884334Y-75255029D01*
X140428711Y-75164400D01*
X140071289Y-75164400D01*
X139615666Y-75255029D01*
X139229408Y-75513119D01*
X138971318Y-75899377D01*
X138880689Y-76355000D01*
X134126908Y-76355000D01*
X134127109Y-76125829D01*
X134031855Y-75895297D01*
X133855631Y-75718765D01*
X133625265Y-75623109D01*
X133375829Y-75622891D01*
X133145297Y-75718145D01*
X133125119Y-75738287D01*
X133105631Y-75718765D01*
X132875265Y-75623109D01*
X132625829Y-75622891D01*
X132395297Y-75718145D01*
X132218765Y-75894369D01*
X132123109Y-76124735D01*
X132122891Y-76374171D01*
X120126424Y-76374171D01*
X120031855Y-76145297D01*
X119886713Y-75999901D01*
X120031235Y-75855631D01*
X120126891Y-75625265D01*
X120127109Y-75375829D01*
X120031855Y-75145297D01*
X119886713Y-74999901D01*
X120031235Y-74855631D01*
X120126891Y-74625265D01*
X120127109Y-74375829D01*
X120031855Y-74145297D01*
X119855631Y-73968765D01*
X119625265Y-73873109D01*
X119375829Y-73872891D01*
X119145297Y-73968145D01*
X118999901Y-74113287D01*
X118855631Y-73968765D01*
X118625265Y-73873109D01*
X118375829Y-73872891D01*
X118145297Y-73968145D01*
X117999901Y-74113287D01*
X117855631Y-73968765D01*
X117625265Y-73873109D01*
X117375829Y-73872891D01*
X117145297Y-73968145D01*
X116968765Y-74144369D01*
X116873109Y-74374735D01*
X116872891Y-74624171D01*
X97033406Y-74624171D01*
X97033406Y-73815000D01*
X138880689Y-73815000D01*
X138971318Y-74270623D01*
X139229408Y-74656881D01*
X139615666Y-74914971D01*
X140071289Y-75005600D01*
X140428711Y-75005600D01*
X140884334Y-74914971D01*
X141270592Y-74656881D01*
X141528682Y-74270623D01*
X141619311Y-73815000D01*
X141528682Y-73359377D01*
X141270592Y-72973119D01*
X140884334Y-72715029D01*
X140428711Y-72624400D01*
X140071289Y-72624400D01*
X139615666Y-72715029D01*
X139229408Y-72973119D01*
X138971318Y-73359377D01*
X138880689Y-73815000D01*
X97033406Y-73815000D01*
X97033406Y-72800000D01*
X97010605Y-72678821D01*
X96975439Y-72624171D01*
X130122891Y-72624171D01*
X130218145Y-72854703D01*
X130394369Y-73031235D01*
X130624735Y-73126891D01*
X130874171Y-73127109D01*
X131104703Y-73031855D01*
X131281235Y-72855631D01*
X131376891Y-72625265D01*
X131377109Y-72375829D01*
X131281855Y-72145297D01*
X131105631Y-71968765D01*
X130875265Y-71873109D01*
X130625829Y-71872891D01*
X130395297Y-71968145D01*
X130218765Y-72144369D01*
X130123109Y-72374735D01*
X130122891Y-72624171D01*
X96975439Y-72624171D01*
X96938988Y-72567526D01*
X96829714Y-72492862D01*
X96700000Y-72466594D01*
X94300000Y-72466594D01*
X94178821Y-72489395D01*
X94067526Y-72561012D01*
X93992862Y-72670286D01*
X93966594Y-72800000D01*
X81402000Y-72800000D01*
X81402000Y-71624171D01*
X129122891Y-71624171D01*
X129218145Y-71854703D01*
X129394369Y-72031235D01*
X129624735Y-72126891D01*
X129874171Y-72127109D01*
X130104703Y-72031855D01*
X130281235Y-71855631D01*
X130376891Y-71625265D01*
X130377109Y-71375829D01*
X130281855Y-71145297D01*
X130105631Y-70968765D01*
X129875265Y-70873109D01*
X129625829Y-70872891D01*
X129395297Y-70968145D01*
X129218765Y-71144369D01*
X129123109Y-71374735D01*
X129122891Y-71624171D01*
X81402000Y-71624171D01*
X81402000Y-68878156D01*
X94118906Y-68878156D01*
X94214160Y-69108688D01*
X94390384Y-69285220D01*
X94620750Y-69380876D01*
X94870186Y-69381094D01*
X95100718Y-69285840D01*
X95277250Y-69109616D01*
X95372906Y-68879250D01*
X95373124Y-68629814D01*
X95277870Y-68399282D01*
X95101646Y-68222750D01*
X94871280Y-68127094D01*
X94621844Y-68126876D01*
X94391312Y-68222130D01*
X94214780Y-68398354D01*
X94119124Y-68628720D01*
X94118906Y-68878156D01*
X81402000Y-68878156D01*
X81402000Y-67562576D01*
X93345627Y-67562576D01*
X93440881Y-67793108D01*
X93617105Y-67969640D01*
X93847471Y-68065296D01*
X94096907Y-68065514D01*
X94327439Y-67970260D01*
X94503971Y-67794036D01*
X94599627Y-67563670D01*
X94599845Y-67314234D01*
X94504591Y-67083702D01*
X94328367Y-66907170D01*
X94098001Y-66811514D01*
X93848565Y-66811296D01*
X93618033Y-66906550D01*
X93441501Y-67082774D01*
X93345845Y-67313140D01*
X93345627Y-67562576D01*
X81402000Y-67562576D01*
X81402000Y-61134073D01*
X89052883Y-61134073D01*
X89155733Y-61382989D01*
X89346010Y-61573598D01*
X89493939Y-61635023D01*
X89347011Y-61695733D01*
X89156402Y-61886010D01*
X89053118Y-62134746D01*
X89052883Y-62404073D01*
X89155733Y-62652989D01*
X89346010Y-62843598D01*
X89493939Y-62905023D01*
X89347011Y-62965733D01*
X89156402Y-63156010D01*
X89053118Y-63404746D01*
X89052883Y-63674073D01*
X89155733Y-63922989D01*
X89346010Y-64113598D01*
X89493939Y-64175023D01*
X89347011Y-64235733D01*
X89156402Y-64426010D01*
X89053118Y-64674746D01*
X89052883Y-64944073D01*
X89155733Y-65192989D01*
X89346010Y-65383598D01*
X89493939Y-65445023D01*
X89347011Y-65505733D01*
X89156402Y-65696010D01*
X89053118Y-65944746D01*
X89052883Y-66214073D01*
X89155733Y-66462989D01*
X89346010Y-66653598D01*
X89594746Y-66756882D01*
X89864073Y-66757117D01*
X90112989Y-66654267D01*
X90303598Y-66463990D01*
X90406882Y-66215254D01*
X90407117Y-65945927D01*
X90304267Y-65697011D01*
X90113990Y-65506402D01*
X89966061Y-65444977D01*
X90112989Y-65384267D01*
X90303598Y-65193990D01*
X90365023Y-65046061D01*
X90425733Y-65192989D01*
X90616010Y-65383598D01*
X90864746Y-65486882D01*
X91134073Y-65487117D01*
X91382989Y-65384267D01*
X91573598Y-65193990D01*
X91676882Y-64945254D01*
X91677117Y-64675927D01*
X91574267Y-64427011D01*
X91383990Y-64236402D01*
X91236061Y-64174977D01*
X91382989Y-64114267D01*
X91573598Y-63923990D01*
X91676882Y-63675254D01*
X91677117Y-63405927D01*
X91574267Y-63157011D01*
X91541485Y-63124171D01*
X92872891Y-63124171D01*
X92968145Y-63354703D01*
X93144369Y-63531235D01*
X93374735Y-63626891D01*
X93624171Y-63627109D01*
X93631281Y-63624171D01*
X94372891Y-63624171D01*
X94468145Y-63854703D01*
X94644369Y-64031235D01*
X94874735Y-64126891D01*
X95124171Y-64127109D01*
X95354703Y-64031855D01*
X95531235Y-63855631D01*
X95626891Y-63625265D01*
X95627109Y-63375829D01*
X95531855Y-63145297D01*
X95355631Y-62968765D01*
X95125265Y-62873109D01*
X94875829Y-62872891D01*
X94645297Y-62968145D01*
X94468765Y-63144369D01*
X94373109Y-63374735D01*
X94372891Y-63624171D01*
X93631281Y-63624171D01*
X93854703Y-63531855D01*
X94031235Y-63355631D01*
X94126891Y-63125265D01*
X94127109Y-62875829D01*
X94031855Y-62645297D01*
X93855631Y-62468765D01*
X93625265Y-62373109D01*
X93375829Y-62372891D01*
X93145297Y-62468145D01*
X92968765Y-62644369D01*
X92873109Y-62874735D01*
X92872891Y-63124171D01*
X91541485Y-63124171D01*
X91383990Y-62966402D01*
X91236061Y-62904977D01*
X91382989Y-62844267D01*
X91573598Y-62653990D01*
X91676882Y-62405254D01*
X91677117Y-62135927D01*
X91672929Y-62125791D01*
X128372837Y-62125791D01*
X128468091Y-62356323D01*
X128644315Y-62532855D01*
X128874681Y-62628511D01*
X129124117Y-62628729D01*
X129354649Y-62533475D01*
X129531181Y-62357251D01*
X129626837Y-62126885D01*
X129626925Y-62025628D01*
X130851863Y-62025628D01*
X130947117Y-62256160D01*
X131123341Y-62432692D01*
X131353707Y-62528348D01*
X131603143Y-62528566D01*
X131833675Y-62433312D01*
X132010207Y-62257088D01*
X132105863Y-62026722D01*
X132106081Y-61777286D01*
X132010827Y-61546754D01*
X131834603Y-61370222D01*
X131604237Y-61274566D01*
X131354801Y-61274348D01*
X131124269Y-61369602D01*
X130947737Y-61545826D01*
X130852081Y-61776192D01*
X130851863Y-62025628D01*
X129626925Y-62025628D01*
X129627055Y-61877449D01*
X129531801Y-61646917D01*
X129355577Y-61470385D01*
X129125211Y-61374729D01*
X128875775Y-61374511D01*
X128645243Y-61469765D01*
X128468711Y-61645989D01*
X128373055Y-61876355D01*
X128372837Y-62125791D01*
X91672929Y-62125791D01*
X91574267Y-61887011D01*
X91383990Y-61696402D01*
X91236061Y-61634977D01*
X91382989Y-61574267D01*
X91573598Y-61383990D01*
X91676882Y-61135254D01*
X91677117Y-60865927D01*
X91574267Y-60617011D01*
X91383990Y-60426402D01*
X91135254Y-60323118D01*
X90865927Y-60322883D01*
X90617011Y-60425733D01*
X90426402Y-60616010D01*
X90364977Y-60763939D01*
X90304267Y-60617011D01*
X90113990Y-60426402D01*
X89865254Y-60323118D01*
X89595927Y-60322883D01*
X89347011Y-60425733D01*
X89156402Y-60616010D01*
X89053118Y-60864746D01*
X89052883Y-61134073D01*
X81402000Y-61134073D01*
X81402000Y-60124171D01*
X91372891Y-60124171D01*
X91468145Y-60354703D01*
X91644369Y-60531235D01*
X91874735Y-60626891D01*
X92124171Y-60627109D01*
X92131281Y-60624171D01*
X116872891Y-60624171D01*
X116968145Y-60854703D01*
X117144369Y-61031235D01*
X117374735Y-61126891D01*
X117624171Y-61127109D01*
X117631281Y-61124171D01*
X132872891Y-61124171D01*
X132968145Y-61354703D01*
X133144369Y-61531235D01*
X133374735Y-61626891D01*
X133624171Y-61627109D01*
X133854703Y-61531855D01*
X134031235Y-61355631D01*
X134126891Y-61125265D01*
X134127109Y-60875829D01*
X134031855Y-60645297D01*
X133855631Y-60468765D01*
X133625265Y-60373109D01*
X133375829Y-60372891D01*
X133145297Y-60468145D01*
X132968765Y-60644369D01*
X132873109Y-60874735D01*
X132872891Y-61124171D01*
X117631281Y-61124171D01*
X117854703Y-61031855D01*
X118031235Y-60855631D01*
X118126891Y-60625265D01*
X118127109Y-60375829D01*
X118031855Y-60145297D01*
X117855631Y-59968765D01*
X117625265Y-59873109D01*
X117375829Y-59872891D01*
X117145297Y-59968145D01*
X116968765Y-60144369D01*
X116873109Y-60374735D01*
X116872891Y-60624171D01*
X92131281Y-60624171D01*
X92354703Y-60531855D01*
X92531235Y-60355631D01*
X92626891Y-60125265D01*
X92627109Y-59875829D01*
X92531855Y-59645297D01*
X92355631Y-59468765D01*
X92125265Y-59373109D01*
X91875829Y-59372891D01*
X91645297Y-59468145D01*
X91468765Y-59644369D01*
X91373109Y-59874735D01*
X91372891Y-60124171D01*
X81402000Y-60124171D01*
X81402000Y-58529687D01*
X123011310Y-58529687D01*
X123106564Y-58760219D01*
X123282788Y-58936751D01*
X123497561Y-59025932D01*
X123346262Y-59176967D01*
X123250606Y-59407333D01*
X123250388Y-59656769D01*
X123345642Y-59887301D01*
X123521866Y-60063833D01*
X123752232Y-60159489D01*
X124001668Y-60159707D01*
X124232200Y-60064453D01*
X124408732Y-59888229D01*
X124504388Y-59657863D01*
X124504606Y-59408427D01*
X124409352Y-59177895D01*
X124233128Y-59001363D01*
X124018355Y-58912182D01*
X124056432Y-58874171D01*
X131622891Y-58874171D01*
X131718145Y-59104703D01*
X131894369Y-59281235D01*
X132124735Y-59376891D01*
X132374171Y-59377109D01*
X132604703Y-59281855D01*
X132781235Y-59105631D01*
X132876891Y-58875265D01*
X132877108Y-58626893D01*
X133124171Y-58627109D01*
X133354703Y-58531855D01*
X133531235Y-58355631D01*
X133626891Y-58125265D01*
X133627109Y-57875829D01*
X133531855Y-57645297D01*
X133355631Y-57468765D01*
X133125265Y-57373109D01*
X132875829Y-57372891D01*
X132645297Y-57468145D01*
X132468765Y-57644369D01*
X132373109Y-57874735D01*
X132372892Y-58123107D01*
X132125829Y-58122891D01*
X131895297Y-58218145D01*
X131718765Y-58394369D01*
X131623109Y-58624735D01*
X131622891Y-58874171D01*
X124056432Y-58874171D01*
X124169654Y-58761147D01*
X124265310Y-58530781D01*
X124265528Y-58281345D01*
X124170274Y-58050813D01*
X123994050Y-57874281D01*
X123763684Y-57778625D01*
X123514248Y-57778407D01*
X123283716Y-57873661D01*
X123107184Y-58049885D01*
X123011528Y-58280251D01*
X123011310Y-58529687D01*
X81402000Y-58529687D01*
X81402000Y-55571400D01*
X138900594Y-55571400D01*
X138900594Y-57298600D01*
X138923395Y-57419779D01*
X138995012Y-57531074D01*
X139104286Y-57605738D01*
X139234000Y-57632006D01*
X141266000Y-57632006D01*
X141387179Y-57609205D01*
X141498474Y-57537588D01*
X141573138Y-57428314D01*
X141599406Y-57298600D01*
X141599406Y-55571400D01*
X141576605Y-55450221D01*
X141504988Y-55338926D01*
X141395714Y-55264262D01*
X141266000Y-55237994D01*
X139234000Y-55237994D01*
X139112821Y-55260795D01*
X139001526Y-55332412D01*
X138926862Y-55441686D01*
X138900594Y-55571400D01*
X81402000Y-55571400D01*
X81402000Y-54624171D01*
X131872891Y-54624171D01*
X131968145Y-54854703D01*
X132144369Y-55031235D01*
X132374735Y-55126891D01*
X132624171Y-55127109D01*
X132854703Y-55031855D01*
X132874881Y-55011713D01*
X132894369Y-55031235D01*
X133124735Y-55126891D01*
X133374171Y-55127109D01*
X133604703Y-55031855D01*
X133781235Y-54855631D01*
X133876891Y-54625265D01*
X133877109Y-54375829D01*
X133781855Y-54145297D01*
X133605631Y-53968765D01*
X133427985Y-53895000D01*
X138880689Y-53895000D01*
X138971318Y-54350623D01*
X139229408Y-54736881D01*
X139615666Y-54994971D01*
X140071289Y-55085600D01*
X140428711Y-55085600D01*
X140884334Y-54994971D01*
X141270592Y-54736881D01*
X141528682Y-54350623D01*
X141619311Y-53895000D01*
X141528682Y-53439377D01*
X141270592Y-53053119D01*
X140884334Y-52795029D01*
X140428711Y-52704400D01*
X140071289Y-52704400D01*
X139615666Y-52795029D01*
X139229408Y-53053119D01*
X138971318Y-53439377D01*
X138880689Y-53895000D01*
X133427985Y-53895000D01*
X133375265Y-53873109D01*
X133125829Y-53872891D01*
X132895297Y-53968145D01*
X132875119Y-53988287D01*
X132855631Y-53968765D01*
X132625265Y-53873109D01*
X132375829Y-53872891D01*
X132145297Y-53968145D01*
X131968765Y-54144369D01*
X131873109Y-54374735D01*
X131872891Y-54624171D01*
X81402000Y-54624171D01*
X81402000Y-49624171D01*
X116872891Y-49624171D01*
X116968145Y-49854703D01*
X117113287Y-50000099D01*
X116968765Y-50144369D01*
X116873109Y-50374735D01*
X116872891Y-50624171D01*
X116968145Y-50854703D01*
X117113287Y-51000099D01*
X116968765Y-51144369D01*
X116873109Y-51374735D01*
X116872891Y-51624171D01*
X116968145Y-51854703D01*
X117144369Y-52031235D01*
X117374735Y-52126891D01*
X117624171Y-52127109D01*
X117854703Y-52031855D01*
X118000099Y-51886713D01*
X118144369Y-52031235D01*
X118374735Y-52126891D01*
X118624171Y-52127109D01*
X118854703Y-52031855D01*
X119000099Y-51886713D01*
X119144369Y-52031235D01*
X119374735Y-52126891D01*
X119624171Y-52127109D01*
X119854703Y-52031855D01*
X120031235Y-51855631D01*
X120126891Y-51625265D01*
X120127109Y-51375829D01*
X120126424Y-51374171D01*
X132122891Y-51374171D01*
X132218145Y-51604703D01*
X132394369Y-51781235D01*
X132624735Y-51876891D01*
X132874171Y-51877109D01*
X133104703Y-51781855D01*
X133124881Y-51761713D01*
X133144369Y-51781235D01*
X133374735Y-51876891D01*
X133624171Y-51877109D01*
X133854703Y-51781855D01*
X134031235Y-51605631D01*
X134126891Y-51375265D01*
X134126908Y-51355000D01*
X138880689Y-51355000D01*
X138971318Y-51810623D01*
X139229408Y-52196881D01*
X139615666Y-52454971D01*
X140071289Y-52545600D01*
X140428711Y-52545600D01*
X140884334Y-52454971D01*
X141270592Y-52196881D01*
X141528682Y-51810623D01*
X141619311Y-51355000D01*
X141528682Y-50899377D01*
X141270592Y-50513119D01*
X140884334Y-50255029D01*
X140428711Y-50164400D01*
X140071289Y-50164400D01*
X139615666Y-50255029D01*
X139229408Y-50513119D01*
X138971318Y-50899377D01*
X138880689Y-51355000D01*
X134126908Y-51355000D01*
X134127109Y-51125829D01*
X134031855Y-50895297D01*
X133855631Y-50718765D01*
X133625265Y-50623109D01*
X133375829Y-50622891D01*
X133145297Y-50718145D01*
X133125119Y-50738287D01*
X133105631Y-50718765D01*
X132875265Y-50623109D01*
X132625829Y-50622891D01*
X132395297Y-50718145D01*
X132218765Y-50894369D01*
X132123109Y-51124735D01*
X132122891Y-51374171D01*
X120126424Y-51374171D01*
X120031855Y-51145297D01*
X119886713Y-50999901D01*
X120031235Y-50855631D01*
X120126891Y-50625265D01*
X120127109Y-50375829D01*
X120031855Y-50145297D01*
X119886713Y-49999901D01*
X120031235Y-49855631D01*
X120126891Y-49625265D01*
X120127109Y-49375829D01*
X120031855Y-49145297D01*
X119855631Y-48968765D01*
X119625265Y-48873109D01*
X119375829Y-48872891D01*
X119145297Y-48968145D01*
X118999901Y-49113287D01*
X118855631Y-48968765D01*
X118625265Y-48873109D01*
X118375829Y-48872891D01*
X118145297Y-48968145D01*
X117999901Y-49113287D01*
X117855631Y-48968765D01*
X117625265Y-48873109D01*
X117375829Y-48872891D01*
X117145297Y-48968145D01*
X116968765Y-49144369D01*
X116873109Y-49374735D01*
X116872891Y-49624171D01*
X81402000Y-49624171D01*
X81402000Y-48815000D01*
X138880689Y-48815000D01*
X138971318Y-49270623D01*
X139229408Y-49656881D01*
X139615666Y-49914971D01*
X140071289Y-50005600D01*
X140428711Y-50005600D01*
X140884334Y-49914971D01*
X141270592Y-49656881D01*
X141528682Y-49270623D01*
X141619311Y-48815000D01*
X141528682Y-48359377D01*
X141270592Y-47973119D01*
X140884334Y-47715029D01*
X140428711Y-47624400D01*
X140071289Y-47624400D01*
X139615666Y-47715029D01*
X139229408Y-47973119D01*
X138971318Y-48359377D01*
X138880689Y-48815000D01*
X81402000Y-48815000D01*
X81402000Y-46460838D01*
X93672597Y-46460838D01*
X94026115Y-47316418D01*
X94680139Y-47971585D01*
X95535100Y-48326596D01*
X96460838Y-48327403D01*
X97316418Y-47973885D01*
X97666743Y-47624171D01*
X130122891Y-47624171D01*
X130218145Y-47854703D01*
X130394369Y-48031235D01*
X130624735Y-48126891D01*
X130874171Y-48127109D01*
X131104703Y-48031855D01*
X131281235Y-47855631D01*
X131376891Y-47625265D01*
X131377109Y-47375829D01*
X131281855Y-47145297D01*
X131105631Y-46968765D01*
X130875265Y-46873109D01*
X130625829Y-46872891D01*
X130395297Y-46968145D01*
X130218765Y-47144369D01*
X130123109Y-47374735D01*
X130122891Y-47624171D01*
X97666743Y-47624171D01*
X97971585Y-47319861D01*
X98260460Y-46624171D01*
X129122891Y-46624171D01*
X129218145Y-46854703D01*
X129394369Y-47031235D01*
X129624735Y-47126891D01*
X129874171Y-47127109D01*
X130104703Y-47031855D01*
X130281235Y-46855631D01*
X130376891Y-46625265D01*
X130377034Y-46460838D01*
X153672597Y-46460838D01*
X154026115Y-47316418D01*
X154680139Y-47971585D01*
X155535100Y-48326596D01*
X156460838Y-48327403D01*
X157316418Y-47973885D01*
X157971585Y-47319861D01*
X158326596Y-46464900D01*
X158327403Y-45539162D01*
X157973885Y-44683582D01*
X157319861Y-44028415D01*
X156464900Y-43673404D01*
X155539162Y-43672597D01*
X154683582Y-44026115D01*
X154028415Y-44680139D01*
X153673404Y-45535100D01*
X153672597Y-46460838D01*
X130377034Y-46460838D01*
X130377109Y-46375829D01*
X130281855Y-46145297D01*
X130105631Y-45968765D01*
X129875265Y-45873109D01*
X129625829Y-45872891D01*
X129395297Y-45968145D01*
X129218765Y-46144369D01*
X129123109Y-46374735D01*
X129122891Y-46624171D01*
X98260460Y-46624171D01*
X98326596Y-46464900D01*
X98327403Y-45539162D01*
X97973885Y-44683582D01*
X97319861Y-44028415D01*
X96464900Y-43673404D01*
X95539162Y-43672597D01*
X94683582Y-44026115D01*
X94028415Y-44680139D01*
X93673404Y-45535100D01*
X93672597Y-46460838D01*
X81402000Y-46460838D01*
X81402000Y-31402000D01*
X170598000Y-31402000D01*
X170598000Y-120598000D01*
X170598000Y-120598000D01*
G37*
X170598000Y-120598000D02*
X81402000Y-120598000D01*
X81402000Y-112125791D01*
X128372837Y-112125791D01*
X128468091Y-112356323D01*
X128644315Y-112532855D01*
X128874681Y-112628511D01*
X129124117Y-112628729D01*
X129354649Y-112533475D01*
X129531181Y-112357251D01*
X129626837Y-112126885D01*
X129626850Y-112111614D01*
X131022066Y-112111614D01*
X131117320Y-112342146D01*
X131293544Y-112518678D01*
X131523910Y-112614334D01*
X131773346Y-112614552D01*
X132003878Y-112519298D01*
X132180410Y-112343074D01*
X132276066Y-112112708D01*
X132276284Y-111863272D01*
X132181030Y-111632740D01*
X132004806Y-111456208D01*
X131774440Y-111360552D01*
X131525004Y-111360334D01*
X131294472Y-111455588D01*
X131117940Y-111631812D01*
X131022284Y-111862178D01*
X131022066Y-112111614D01*
X129626850Y-112111614D01*
X129627055Y-111877449D01*
X129531801Y-111646917D01*
X129355577Y-111470385D01*
X129125211Y-111374729D01*
X128875775Y-111374511D01*
X128645243Y-111469765D01*
X128468711Y-111645989D01*
X128373055Y-111876355D01*
X128372837Y-112125791D01*
X81402000Y-112125791D01*
X81402000Y-110624171D01*
X116872891Y-110624171D01*
X116968145Y-110854703D01*
X117144369Y-111031235D01*
X117374735Y-111126891D01*
X117624171Y-111127109D01*
X117631281Y-111124171D01*
X132872891Y-111124171D01*
X132968145Y-111354703D01*
X133144369Y-111531235D01*
X133374735Y-111626891D01*
X133624171Y-111627109D01*
X133854703Y-111531855D01*
X134031235Y-111355631D01*
X134126891Y-111125265D01*
X134127109Y-110875829D01*
X134031855Y-110645297D01*
X133855631Y-110468765D01*
X133625265Y-110373109D01*
X133375829Y-110372891D01*
X133145297Y-110468145D01*
X132968765Y-110644369D01*
X132873109Y-110874735D01*
X132872891Y-111124171D01*
X117631281Y-111124171D01*
X117854703Y-111031855D01*
X118031235Y-110855631D01*
X118126891Y-110625265D01*
X118127109Y-110375829D01*
X118031855Y-110145297D01*
X117855631Y-109968765D01*
X117625265Y-109873109D01*
X117375829Y-109872891D01*
X117145297Y-109968145D01*
X116968765Y-110144369D01*
X116873109Y-110374735D01*
X116872891Y-110624171D01*
X81402000Y-110624171D01*
X81402000Y-108529687D01*
X123011310Y-108529687D01*
X123106564Y-108760219D01*
X123282788Y-108936751D01*
X123497561Y-109025932D01*
X123346262Y-109176967D01*
X123250606Y-109407333D01*
X123250388Y-109656769D01*
X123345642Y-109887301D01*
X123521866Y-110063833D01*
X123752232Y-110159489D01*
X124001668Y-110159707D01*
X124232200Y-110064453D01*
X124408732Y-109888229D01*
X124504388Y-109657863D01*
X124504606Y-109408427D01*
X124409352Y-109177895D01*
X124233128Y-109001363D01*
X124018355Y-108912182D01*
X124056432Y-108874171D01*
X131622891Y-108874171D01*
X131718145Y-109104703D01*
X131894369Y-109281235D01*
X132124735Y-109376891D01*
X132374171Y-109377109D01*
X132604703Y-109281855D01*
X132781235Y-109105631D01*
X132876891Y-108875265D01*
X132877108Y-108626893D01*
X133124171Y-108627109D01*
X133354703Y-108531855D01*
X133531235Y-108355631D01*
X133626891Y-108125265D01*
X133627109Y-107875829D01*
X133531855Y-107645297D01*
X133355631Y-107468765D01*
X133125265Y-107373109D01*
X132875829Y-107372891D01*
X132645297Y-107468145D01*
X132468765Y-107644369D01*
X132373109Y-107874735D01*
X132372892Y-108123107D01*
X132125829Y-108122891D01*
X131895297Y-108218145D01*
X131718765Y-108394369D01*
X131623109Y-108624735D01*
X131622891Y-108874171D01*
X124056432Y-108874171D01*
X124169654Y-108761147D01*
X124265310Y-108530781D01*
X124265528Y-108281345D01*
X124170274Y-108050813D01*
X123994050Y-107874281D01*
X123763684Y-107778625D01*
X123514248Y-107778407D01*
X123283716Y-107873661D01*
X123107184Y-108049885D01*
X123011528Y-108280251D01*
X123011310Y-108529687D01*
X81402000Y-108529687D01*
X81402000Y-106460838D01*
X93672597Y-106460838D01*
X94026115Y-107316418D01*
X94680139Y-107971585D01*
X95535100Y-108326596D01*
X96460838Y-108327403D01*
X97316418Y-107973885D01*
X97971585Y-107319861D01*
X98326596Y-106464900D01*
X98327374Y-105571400D01*
X138900594Y-105571400D01*
X138900594Y-107298600D01*
X138923395Y-107419779D01*
X138995012Y-107531074D01*
X139104286Y-107605738D01*
X139234000Y-107632006D01*
X141266000Y-107632006D01*
X141387179Y-107609205D01*
X141498474Y-107537588D01*
X141573138Y-107428314D01*
X141599406Y-107298600D01*
X141599406Y-106460838D01*
X153672597Y-106460838D01*
X154026115Y-107316418D01*
X154680139Y-107971585D01*
X155535100Y-108326596D01*
X156460838Y-108327403D01*
X157316418Y-107973885D01*
X157971585Y-107319861D01*
X158326596Y-106464900D01*
X158327403Y-105539162D01*
X157973885Y-104683582D01*
X157319861Y-104028415D01*
X156464900Y-103673404D01*
X155539162Y-103672597D01*
X154683582Y-104026115D01*
X154028415Y-104680139D01*
X153673404Y-105535100D01*
X153672597Y-106460838D01*
X141599406Y-106460838D01*
X141599406Y-105571400D01*
X141576605Y-105450221D01*
X141504988Y-105338926D01*
X141395714Y-105264262D01*
X141266000Y-105237994D01*
X139234000Y-105237994D01*
X139112821Y-105260795D01*
X139001526Y-105332412D01*
X138926862Y-105441686D01*
X138900594Y-105571400D01*
X98327374Y-105571400D01*
X98327403Y-105539162D01*
X97973885Y-104683582D01*
X97914578Y-104624171D01*
X131872891Y-104624171D01*
X131968145Y-104854703D01*
X132144369Y-105031235D01*
X132374735Y-105126891D01*
X132624171Y-105127109D01*
X132854703Y-105031855D01*
X132874881Y-105011713D01*
X132894369Y-105031235D01*
X133124735Y-105126891D01*
X133374171Y-105127109D01*
X133604703Y-105031855D01*
X133781235Y-104855631D01*
X133876891Y-104625265D01*
X133877109Y-104375829D01*
X133781855Y-104145297D01*
X133605631Y-103968765D01*
X133427985Y-103895000D01*
X138880689Y-103895000D01*
X138971318Y-104350623D01*
X139229408Y-104736881D01*
X139615666Y-104994971D01*
X140071289Y-105085600D01*
X140428711Y-105085600D01*
X140884334Y-104994971D01*
X141270592Y-104736881D01*
X141528682Y-104350623D01*
X141619311Y-103895000D01*
X141528682Y-103439377D01*
X141270592Y-103053119D01*
X140884334Y-102795029D01*
X140428711Y-102704400D01*
X140071289Y-102704400D01*
X139615666Y-102795029D01*
X139229408Y-103053119D01*
X138971318Y-103439377D01*
X138880689Y-103895000D01*
X133427985Y-103895000D01*
X133375265Y-103873109D01*
X133125829Y-103872891D01*
X132895297Y-103968145D01*
X132875119Y-103988287D01*
X132855631Y-103968765D01*
X132625265Y-103873109D01*
X132375829Y-103872891D01*
X132145297Y-103968145D01*
X131968765Y-104144369D01*
X131873109Y-104374735D01*
X131872891Y-104624171D01*
X97914578Y-104624171D01*
X97319861Y-104028415D01*
X96464900Y-103673404D01*
X95539162Y-103672597D01*
X94683582Y-104026115D01*
X94028415Y-104680139D01*
X93673404Y-105535100D01*
X93672597Y-106460838D01*
X81402000Y-106460838D01*
X81402000Y-99624171D01*
X116872891Y-99624171D01*
X116968145Y-99854703D01*
X117113287Y-100000099D01*
X116968765Y-100144369D01*
X116873109Y-100374735D01*
X116872891Y-100624171D01*
X116968145Y-100854703D01*
X117113287Y-101000099D01*
X116968765Y-101144369D01*
X116873109Y-101374735D01*
X116872891Y-101624171D01*
X116968145Y-101854703D01*
X117144369Y-102031235D01*
X117374735Y-102126891D01*
X117624171Y-102127109D01*
X117854703Y-102031855D01*
X118000099Y-101886713D01*
X118144369Y-102031235D01*
X118374735Y-102126891D01*
X118624171Y-102127109D01*
X118854703Y-102031855D01*
X119000099Y-101886713D01*
X119144369Y-102031235D01*
X119374735Y-102126891D01*
X119624171Y-102127109D01*
X119854703Y-102031855D01*
X120031235Y-101855631D01*
X120126891Y-101625265D01*
X120127109Y-101375829D01*
X120126424Y-101374171D01*
X132122891Y-101374171D01*
X132218145Y-101604703D01*
X132394369Y-101781235D01*
X132624735Y-101876891D01*
X132874171Y-101877109D01*
X133104703Y-101781855D01*
X133124881Y-101761713D01*
X133144369Y-101781235D01*
X133374735Y-101876891D01*
X133624171Y-101877109D01*
X133854703Y-101781855D01*
X134031235Y-101605631D01*
X134126891Y-101375265D01*
X134126908Y-101355000D01*
X138880689Y-101355000D01*
X138971318Y-101810623D01*
X139229408Y-102196881D01*
X139615666Y-102454971D01*
X140071289Y-102545600D01*
X140428711Y-102545600D01*
X140884334Y-102454971D01*
X141270592Y-102196881D01*
X141528682Y-101810623D01*
X141619311Y-101355000D01*
X141528682Y-100899377D01*
X141270592Y-100513119D01*
X140884334Y-100255029D01*
X140428711Y-100164400D01*
X140071289Y-100164400D01*
X139615666Y-100255029D01*
X139229408Y-100513119D01*
X138971318Y-100899377D01*
X138880689Y-101355000D01*
X134126908Y-101355000D01*
X134127109Y-101125829D01*
X134031855Y-100895297D01*
X133855631Y-100718765D01*
X133625265Y-100623109D01*
X133375829Y-100622891D01*
X133145297Y-100718145D01*
X133125119Y-100738287D01*
X133105631Y-100718765D01*
X132875265Y-100623109D01*
X132625829Y-100622891D01*
X132395297Y-100718145D01*
X132218765Y-100894369D01*
X132123109Y-101124735D01*
X132122891Y-101374171D01*
X120126424Y-101374171D01*
X120031855Y-101145297D01*
X119886713Y-100999901D01*
X120031235Y-100855631D01*
X120126891Y-100625265D01*
X120127109Y-100375829D01*
X120031855Y-100145297D01*
X119886713Y-99999901D01*
X120031235Y-99855631D01*
X120126891Y-99625265D01*
X120127109Y-99375829D01*
X120031855Y-99145297D01*
X119855631Y-98968765D01*
X119625265Y-98873109D01*
X119375829Y-98872891D01*
X119145297Y-98968145D01*
X118999901Y-99113287D01*
X118855631Y-98968765D01*
X118625265Y-98873109D01*
X118375829Y-98872891D01*
X118145297Y-98968145D01*
X117999901Y-99113287D01*
X117855631Y-98968765D01*
X117625265Y-98873109D01*
X117375829Y-98872891D01*
X117145297Y-98968145D01*
X116968765Y-99144369D01*
X116873109Y-99374735D01*
X116872891Y-99624171D01*
X81402000Y-99624171D01*
X81402000Y-98815000D01*
X138880689Y-98815000D01*
X138971318Y-99270623D01*
X139229408Y-99656881D01*
X139615666Y-99914971D01*
X140071289Y-100005600D01*
X140428711Y-100005600D01*
X140884334Y-99914971D01*
X141270592Y-99656881D01*
X141528682Y-99270623D01*
X141619311Y-98815000D01*
X141528682Y-98359377D01*
X141270592Y-97973119D01*
X140884334Y-97715029D01*
X140428711Y-97624400D01*
X140071289Y-97624400D01*
X139615666Y-97715029D01*
X139229408Y-97973119D01*
X138971318Y-98359377D01*
X138880689Y-98815000D01*
X81402000Y-98815000D01*
X81402000Y-97624171D01*
X130122891Y-97624171D01*
X130218145Y-97854703D01*
X130394369Y-98031235D01*
X130624735Y-98126891D01*
X130874171Y-98127109D01*
X131104703Y-98031855D01*
X131281235Y-97855631D01*
X131376891Y-97625265D01*
X131377109Y-97375829D01*
X131281855Y-97145297D01*
X131105631Y-96968765D01*
X130875265Y-96873109D01*
X130625829Y-96872891D01*
X130395297Y-96968145D01*
X130218765Y-97144369D01*
X130123109Y-97374735D01*
X130122891Y-97624171D01*
X81402000Y-97624171D01*
X81402000Y-96624171D01*
X129122891Y-96624171D01*
X129218145Y-96854703D01*
X129394369Y-97031235D01*
X129624735Y-97126891D01*
X129874171Y-97127109D01*
X130104703Y-97031855D01*
X130281235Y-96855631D01*
X130376891Y-96625265D01*
X130377109Y-96375829D01*
X130281855Y-96145297D01*
X130105631Y-95968765D01*
X129875265Y-95873109D01*
X129625829Y-95872891D01*
X129395297Y-95968145D01*
X129218765Y-96144369D01*
X129123109Y-96374735D01*
X129122891Y-96624171D01*
X81402000Y-96624171D01*
X81402000Y-86134073D01*
X89052883Y-86134073D01*
X89155733Y-86382989D01*
X89346010Y-86573598D01*
X89493939Y-86635023D01*
X89347011Y-86695733D01*
X89156402Y-86886010D01*
X89053118Y-87134746D01*
X89052883Y-87404073D01*
X89155733Y-87652989D01*
X89346010Y-87843598D01*
X89493939Y-87905023D01*
X89347011Y-87965733D01*
X89156402Y-88156010D01*
X89053118Y-88404746D01*
X89052883Y-88674073D01*
X89155733Y-88922989D01*
X89346010Y-89113598D01*
X89493939Y-89175023D01*
X89347011Y-89235733D01*
X89156402Y-89426010D01*
X89053118Y-89674746D01*
X89052883Y-89944073D01*
X89155733Y-90192989D01*
X89346010Y-90383598D01*
X89493939Y-90445023D01*
X89347011Y-90505733D01*
X89156402Y-90696010D01*
X89053118Y-90944746D01*
X89052883Y-91214073D01*
X89155733Y-91462989D01*
X89346010Y-91653598D01*
X89594746Y-91756882D01*
X89864073Y-91757117D01*
X90112989Y-91654267D01*
X90303598Y-91463990D01*
X90406882Y-91215254D01*
X90407117Y-90945927D01*
X90304267Y-90697011D01*
X90113990Y-90506402D01*
X89966061Y-90444977D01*
X90112989Y-90384267D01*
X90303598Y-90193990D01*
X90365023Y-90046061D01*
X90425733Y-90192989D01*
X90616010Y-90383598D01*
X90864746Y-90486882D01*
X91134073Y-90487117D01*
X91382989Y-90384267D01*
X91573598Y-90193990D01*
X91676882Y-89945254D01*
X91677117Y-89675927D01*
X91574267Y-89427011D01*
X91383990Y-89236402D01*
X91236061Y-89174977D01*
X91382989Y-89114267D01*
X91573598Y-88923990D01*
X91676882Y-88675254D01*
X91677117Y-88405927D01*
X91574267Y-88157011D01*
X91383990Y-87966402D01*
X91236061Y-87904977D01*
X91382989Y-87844267D01*
X91573598Y-87653990D01*
X91676882Y-87405254D01*
X91677117Y-87135927D01*
X91626437Y-87013271D01*
X91644369Y-87031235D01*
X91874735Y-87126891D01*
X92124171Y-87127109D01*
X92127360Y-87125791D01*
X128372837Y-87125791D01*
X128468091Y-87356323D01*
X128644315Y-87532855D01*
X128874681Y-87628511D01*
X129124117Y-87628729D01*
X129354649Y-87533475D01*
X129531181Y-87357251D01*
X129626837Y-87126885D01*
X129626867Y-87091831D01*
X130929228Y-87091831D01*
X131024482Y-87322363D01*
X131200706Y-87498895D01*
X131431072Y-87594551D01*
X131680508Y-87594769D01*
X131911040Y-87499515D01*
X132087572Y-87323291D01*
X132183228Y-87092925D01*
X132183446Y-86843489D01*
X132088192Y-86612957D01*
X131911968Y-86436425D01*
X131681602Y-86340769D01*
X131432166Y-86340551D01*
X131201634Y-86435805D01*
X131025102Y-86612029D01*
X130929446Y-86842395D01*
X130929228Y-87091831D01*
X129626867Y-87091831D01*
X129627055Y-86877449D01*
X129531801Y-86646917D01*
X129355577Y-86470385D01*
X129125211Y-86374729D01*
X128875775Y-86374511D01*
X128645243Y-86469765D01*
X128468711Y-86645989D01*
X128373055Y-86876355D01*
X128372837Y-87125791D01*
X92127360Y-87125791D01*
X92354703Y-87031855D01*
X92531235Y-86855631D01*
X92626891Y-86625265D01*
X92627109Y-86375829D01*
X92531855Y-86145297D01*
X92355631Y-85968765D01*
X92125265Y-85873109D01*
X91875829Y-85872891D01*
X91677039Y-85955029D01*
X91677117Y-85865927D01*
X91577226Y-85624171D01*
X116872891Y-85624171D01*
X116968145Y-85854703D01*
X117144369Y-86031235D01*
X117374735Y-86126891D01*
X117624171Y-86127109D01*
X117631281Y-86124171D01*
X132872891Y-86124171D01*
X132968145Y-86354703D01*
X133144369Y-86531235D01*
X133374735Y-86626891D01*
X133624171Y-86627109D01*
X133854703Y-86531855D01*
X134031235Y-86355631D01*
X134126891Y-86125265D01*
X134127109Y-85875829D01*
X134031855Y-85645297D01*
X133855631Y-85468765D01*
X133625265Y-85373109D01*
X133375829Y-85372891D01*
X133145297Y-85468145D01*
X132968765Y-85644369D01*
X132873109Y-85874735D01*
X132872891Y-86124171D01*
X117631281Y-86124171D01*
X117854703Y-86031855D01*
X118031235Y-85855631D01*
X118126891Y-85625265D01*
X118127109Y-85375829D01*
X118031855Y-85145297D01*
X117855631Y-84968765D01*
X117625265Y-84873109D01*
X117375829Y-84872891D01*
X117145297Y-84968145D01*
X116968765Y-85144369D01*
X116873109Y-85374735D01*
X116872891Y-85624171D01*
X91577226Y-85624171D01*
X91574267Y-85617011D01*
X91383990Y-85426402D01*
X91135254Y-85323118D01*
X90865927Y-85322883D01*
X90617011Y-85425733D01*
X90426402Y-85616010D01*
X90364977Y-85763939D01*
X90304267Y-85617011D01*
X90113990Y-85426402D01*
X89865254Y-85323118D01*
X89595927Y-85322883D01*
X89347011Y-85425733D01*
X89156402Y-85616010D01*
X89053118Y-85864746D01*
X89052883Y-86134073D01*
X81402000Y-86134073D01*
X81402000Y-81624171D01*
X88872891Y-81624171D01*
X88968145Y-81854703D01*
X89113287Y-82000099D01*
X88968765Y-82144369D01*
X88873109Y-82374735D01*
X88872891Y-82624171D01*
X88968145Y-82854703D01*
X89113287Y-83000099D01*
X88968765Y-83144369D01*
X88873109Y-83374735D01*
X88872891Y-83624171D01*
X88968145Y-83854703D01*
X89144369Y-84031235D01*
X89374735Y-84126891D01*
X89624171Y-84127109D01*
X89854703Y-84031855D01*
X90031235Y-83855631D01*
X90126891Y-83625265D01*
X90126974Y-83529687D01*
X123011310Y-83529687D01*
X123106564Y-83760219D01*
X123282788Y-83936751D01*
X123497561Y-84025932D01*
X123346262Y-84176967D01*
X123250606Y-84407333D01*
X123250388Y-84656769D01*
X123345642Y-84887301D01*
X123521866Y-85063833D01*
X123752232Y-85159489D01*
X124001668Y-85159707D01*
X124232200Y-85064453D01*
X124408732Y-84888229D01*
X124504388Y-84657863D01*
X124504606Y-84408427D01*
X124409352Y-84177895D01*
X124233128Y-84001363D01*
X124018355Y-83912182D01*
X124056432Y-83874171D01*
X131622891Y-83874171D01*
X131718145Y-84104703D01*
X131894369Y-84281235D01*
X132124735Y-84376891D01*
X132374171Y-84377109D01*
X132604703Y-84281855D01*
X132781235Y-84105631D01*
X132876891Y-83875265D01*
X132877108Y-83626893D01*
X133124171Y-83627109D01*
X133354703Y-83531855D01*
X133531235Y-83355631D01*
X133626891Y-83125265D01*
X133627109Y-82875829D01*
X133531855Y-82645297D01*
X133355631Y-82468765D01*
X133125265Y-82373109D01*
X132875829Y-82372891D01*
X132645297Y-82468145D01*
X132468765Y-82644369D01*
X132373109Y-82874735D01*
X132372892Y-83123107D01*
X132125829Y-83122891D01*
X131895297Y-83218145D01*
X131718765Y-83394369D01*
X131623109Y-83624735D01*
X131622891Y-83874171D01*
X124056432Y-83874171D01*
X124169654Y-83761147D01*
X124265310Y-83530781D01*
X124265528Y-83281345D01*
X124170274Y-83050813D01*
X123994050Y-82874281D01*
X123763684Y-82778625D01*
X123514248Y-82778407D01*
X123283716Y-82873661D01*
X123107184Y-83049885D01*
X123011528Y-83280251D01*
X123011310Y-83529687D01*
X90126974Y-83529687D01*
X90127109Y-83375829D01*
X90031855Y-83145297D01*
X89886713Y-82999901D01*
X90031235Y-82855631D01*
X90126891Y-82625265D01*
X90127109Y-82375829D01*
X90031855Y-82145297D01*
X89886713Y-81999901D01*
X90031235Y-81855631D01*
X90126891Y-81625265D01*
X90127109Y-81375829D01*
X90031855Y-81145297D01*
X89855631Y-80968765D01*
X89625265Y-80873109D01*
X89375829Y-80872891D01*
X89145297Y-80968145D01*
X88968765Y-81144369D01*
X88873109Y-81374735D01*
X88872891Y-81624171D01*
X81402000Y-81624171D01*
X81402000Y-80571400D01*
X138900594Y-80571400D01*
X138900594Y-82298600D01*
X138923395Y-82419779D01*
X138995012Y-82531074D01*
X139104286Y-82605738D01*
X139234000Y-82632006D01*
X141266000Y-82632006D01*
X141387179Y-82609205D01*
X141498474Y-82537588D01*
X141573138Y-82428314D01*
X141599406Y-82298600D01*
X141599406Y-80571400D01*
X141576605Y-80450221D01*
X141504988Y-80338926D01*
X141395714Y-80264262D01*
X141266000Y-80237994D01*
X139234000Y-80237994D01*
X139112821Y-80260795D01*
X139001526Y-80332412D01*
X138926862Y-80441686D01*
X138900594Y-80571400D01*
X81402000Y-80571400D01*
X81402000Y-79624171D01*
X131872891Y-79624171D01*
X131968145Y-79854703D01*
X132144369Y-80031235D01*
X132374735Y-80126891D01*
X132624171Y-80127109D01*
X132854703Y-80031855D01*
X132874881Y-80011713D01*
X132894369Y-80031235D01*
X133124735Y-80126891D01*
X133374171Y-80127109D01*
X133604703Y-80031855D01*
X133781235Y-79855631D01*
X133876891Y-79625265D01*
X133877109Y-79375829D01*
X133781855Y-79145297D01*
X133605631Y-78968765D01*
X133427985Y-78895000D01*
X138880689Y-78895000D01*
X138971318Y-79350623D01*
X139229408Y-79736881D01*
X139615666Y-79994971D01*
X140071289Y-80085600D01*
X140428711Y-80085600D01*
X140884334Y-79994971D01*
X141270592Y-79736881D01*
X141528682Y-79350623D01*
X141619311Y-78895000D01*
X141528682Y-78439377D01*
X141270592Y-78053119D01*
X140884334Y-77795029D01*
X140428711Y-77704400D01*
X140071289Y-77704400D01*
X139615666Y-77795029D01*
X139229408Y-78053119D01*
X138971318Y-78439377D01*
X138880689Y-78895000D01*
X133427985Y-78895000D01*
X133375265Y-78873109D01*
X133125829Y-78872891D01*
X132895297Y-78968145D01*
X132875119Y-78988287D01*
X132855631Y-78968765D01*
X132625265Y-78873109D01*
X132375829Y-78872891D01*
X132145297Y-78968145D01*
X131968765Y-79144369D01*
X131873109Y-79374735D01*
X131872891Y-79624171D01*
X81402000Y-79624171D01*
X81402000Y-72800000D01*
X93966594Y-72800000D01*
X93966594Y-75200000D01*
X93989395Y-75321179D01*
X94061012Y-75432474D01*
X94170286Y-75507138D01*
X94300000Y-75533406D01*
X96700000Y-75533406D01*
X96821179Y-75510605D01*
X96932474Y-75438988D01*
X97007138Y-75329714D01*
X97033406Y-75200000D01*
X97033406Y-74624171D01*
X116872891Y-74624171D01*
X116968145Y-74854703D01*
X117113287Y-75000099D01*
X116968765Y-75144369D01*
X116873109Y-75374735D01*
X116872891Y-75624171D01*
X116968145Y-75854703D01*
X117113287Y-76000099D01*
X116968765Y-76144369D01*
X116873109Y-76374735D01*
X116872891Y-76624171D01*
X116968145Y-76854703D01*
X117144369Y-77031235D01*
X117374735Y-77126891D01*
X117624171Y-77127109D01*
X117854703Y-77031855D01*
X118000099Y-76886713D01*
X118144369Y-77031235D01*
X118374735Y-77126891D01*
X118624171Y-77127109D01*
X118854703Y-77031855D01*
X119000099Y-76886713D01*
X119144369Y-77031235D01*
X119374735Y-77126891D01*
X119624171Y-77127109D01*
X119854703Y-77031855D01*
X120031235Y-76855631D01*
X120126891Y-76625265D01*
X120127109Y-76375829D01*
X120126424Y-76374171D01*
X132122891Y-76374171D01*
X132218145Y-76604703D01*
X132394369Y-76781235D01*
X132624735Y-76876891D01*
X132874171Y-76877109D01*
X133104703Y-76781855D01*
X133124881Y-76761713D01*
X133144369Y-76781235D01*
X133374735Y-76876891D01*
X133624171Y-76877109D01*
X133854703Y-76781855D01*
X134031235Y-76605631D01*
X134126891Y-76375265D01*
X134126908Y-76355000D01*
X138880689Y-76355000D01*
X138971318Y-76810623D01*
X139229408Y-77196881D01*
X139615666Y-77454971D01*
X140071289Y-77545600D01*
X140428711Y-77545600D01*
X140884334Y-77454971D01*
X141270592Y-77196881D01*
X141528682Y-76810623D01*
X141619311Y-76355000D01*
X141528682Y-75899377D01*
X141270592Y-75513119D01*
X140884334Y-75255029D01*
X140428711Y-75164400D01*
X140071289Y-75164400D01*
X139615666Y-75255029D01*
X139229408Y-75513119D01*
X138971318Y-75899377D01*
X138880689Y-76355000D01*
X134126908Y-76355000D01*
X134127109Y-76125829D01*
X134031855Y-75895297D01*
X133855631Y-75718765D01*
X133625265Y-75623109D01*
X133375829Y-75622891D01*
X133145297Y-75718145D01*
X133125119Y-75738287D01*
X133105631Y-75718765D01*
X132875265Y-75623109D01*
X132625829Y-75622891D01*
X132395297Y-75718145D01*
X132218765Y-75894369D01*
X132123109Y-76124735D01*
X132122891Y-76374171D01*
X120126424Y-76374171D01*
X120031855Y-76145297D01*
X119886713Y-75999901D01*
X120031235Y-75855631D01*
X120126891Y-75625265D01*
X120127109Y-75375829D01*
X120031855Y-75145297D01*
X119886713Y-74999901D01*
X120031235Y-74855631D01*
X120126891Y-74625265D01*
X120127109Y-74375829D01*
X120031855Y-74145297D01*
X119855631Y-73968765D01*
X119625265Y-73873109D01*
X119375829Y-73872891D01*
X119145297Y-73968145D01*
X118999901Y-74113287D01*
X118855631Y-73968765D01*
X118625265Y-73873109D01*
X118375829Y-73872891D01*
X118145297Y-73968145D01*
X117999901Y-74113287D01*
X117855631Y-73968765D01*
X117625265Y-73873109D01*
X117375829Y-73872891D01*
X117145297Y-73968145D01*
X116968765Y-74144369D01*
X116873109Y-74374735D01*
X116872891Y-74624171D01*
X97033406Y-74624171D01*
X97033406Y-73815000D01*
X138880689Y-73815000D01*
X138971318Y-74270623D01*
X139229408Y-74656881D01*
X139615666Y-74914971D01*
X140071289Y-75005600D01*
X140428711Y-75005600D01*
X140884334Y-74914971D01*
X141270592Y-74656881D01*
X141528682Y-74270623D01*
X141619311Y-73815000D01*
X141528682Y-73359377D01*
X141270592Y-72973119D01*
X140884334Y-72715029D01*
X140428711Y-72624400D01*
X140071289Y-72624400D01*
X139615666Y-72715029D01*
X139229408Y-72973119D01*
X138971318Y-73359377D01*
X138880689Y-73815000D01*
X97033406Y-73815000D01*
X97033406Y-72800000D01*
X97010605Y-72678821D01*
X96975439Y-72624171D01*
X130122891Y-72624171D01*
X130218145Y-72854703D01*
X130394369Y-73031235D01*
X130624735Y-73126891D01*
X130874171Y-73127109D01*
X131104703Y-73031855D01*
X131281235Y-72855631D01*
X131376891Y-72625265D01*
X131377109Y-72375829D01*
X131281855Y-72145297D01*
X131105631Y-71968765D01*
X130875265Y-71873109D01*
X130625829Y-71872891D01*
X130395297Y-71968145D01*
X130218765Y-72144369D01*
X130123109Y-72374735D01*
X130122891Y-72624171D01*
X96975439Y-72624171D01*
X96938988Y-72567526D01*
X96829714Y-72492862D01*
X96700000Y-72466594D01*
X94300000Y-72466594D01*
X94178821Y-72489395D01*
X94067526Y-72561012D01*
X93992862Y-72670286D01*
X93966594Y-72800000D01*
X81402000Y-72800000D01*
X81402000Y-71624171D01*
X129122891Y-71624171D01*
X129218145Y-71854703D01*
X129394369Y-72031235D01*
X129624735Y-72126891D01*
X129874171Y-72127109D01*
X130104703Y-72031855D01*
X130281235Y-71855631D01*
X130376891Y-71625265D01*
X130377109Y-71375829D01*
X130281855Y-71145297D01*
X130105631Y-70968765D01*
X129875265Y-70873109D01*
X129625829Y-70872891D01*
X129395297Y-70968145D01*
X129218765Y-71144369D01*
X129123109Y-71374735D01*
X129122891Y-71624171D01*
X81402000Y-71624171D01*
X81402000Y-68878156D01*
X94118906Y-68878156D01*
X94214160Y-69108688D01*
X94390384Y-69285220D01*
X94620750Y-69380876D01*
X94870186Y-69381094D01*
X95100718Y-69285840D01*
X95277250Y-69109616D01*
X95372906Y-68879250D01*
X95373124Y-68629814D01*
X95277870Y-68399282D01*
X95101646Y-68222750D01*
X94871280Y-68127094D01*
X94621844Y-68126876D01*
X94391312Y-68222130D01*
X94214780Y-68398354D01*
X94119124Y-68628720D01*
X94118906Y-68878156D01*
X81402000Y-68878156D01*
X81402000Y-67562576D01*
X93345627Y-67562576D01*
X93440881Y-67793108D01*
X93617105Y-67969640D01*
X93847471Y-68065296D01*
X94096907Y-68065514D01*
X94327439Y-67970260D01*
X94503971Y-67794036D01*
X94599627Y-67563670D01*
X94599845Y-67314234D01*
X94504591Y-67083702D01*
X94328367Y-66907170D01*
X94098001Y-66811514D01*
X93848565Y-66811296D01*
X93618033Y-66906550D01*
X93441501Y-67082774D01*
X93345845Y-67313140D01*
X93345627Y-67562576D01*
X81402000Y-67562576D01*
X81402000Y-61134073D01*
X89052883Y-61134073D01*
X89155733Y-61382989D01*
X89346010Y-61573598D01*
X89493939Y-61635023D01*
X89347011Y-61695733D01*
X89156402Y-61886010D01*
X89053118Y-62134746D01*
X89052883Y-62404073D01*
X89155733Y-62652989D01*
X89346010Y-62843598D01*
X89493939Y-62905023D01*
X89347011Y-62965733D01*
X89156402Y-63156010D01*
X89053118Y-63404746D01*
X89052883Y-63674073D01*
X89155733Y-63922989D01*
X89346010Y-64113598D01*
X89493939Y-64175023D01*
X89347011Y-64235733D01*
X89156402Y-64426010D01*
X89053118Y-64674746D01*
X89052883Y-64944073D01*
X89155733Y-65192989D01*
X89346010Y-65383598D01*
X89493939Y-65445023D01*
X89347011Y-65505733D01*
X89156402Y-65696010D01*
X89053118Y-65944746D01*
X89052883Y-66214073D01*
X89155733Y-66462989D01*
X89346010Y-66653598D01*
X89594746Y-66756882D01*
X89864073Y-66757117D01*
X90112989Y-66654267D01*
X90303598Y-66463990D01*
X90406882Y-66215254D01*
X90407117Y-65945927D01*
X90304267Y-65697011D01*
X90113990Y-65506402D01*
X89966061Y-65444977D01*
X90112989Y-65384267D01*
X90303598Y-65193990D01*
X90365023Y-65046061D01*
X90425733Y-65192989D01*
X90616010Y-65383598D01*
X90864746Y-65486882D01*
X91134073Y-65487117D01*
X91382989Y-65384267D01*
X91573598Y-65193990D01*
X91676882Y-64945254D01*
X91677117Y-64675927D01*
X91574267Y-64427011D01*
X91383990Y-64236402D01*
X91236061Y-64174977D01*
X91382989Y-64114267D01*
X91573598Y-63923990D01*
X91676882Y-63675254D01*
X91677117Y-63405927D01*
X91574267Y-63157011D01*
X91541485Y-63124171D01*
X92872891Y-63124171D01*
X92968145Y-63354703D01*
X93144369Y-63531235D01*
X93374735Y-63626891D01*
X93624171Y-63627109D01*
X93631281Y-63624171D01*
X94372891Y-63624171D01*
X94468145Y-63854703D01*
X94644369Y-64031235D01*
X94874735Y-64126891D01*
X95124171Y-64127109D01*
X95354703Y-64031855D01*
X95531235Y-63855631D01*
X95626891Y-63625265D01*
X95627109Y-63375829D01*
X95531855Y-63145297D01*
X95355631Y-62968765D01*
X95125265Y-62873109D01*
X94875829Y-62872891D01*
X94645297Y-62968145D01*
X94468765Y-63144369D01*
X94373109Y-63374735D01*
X94372891Y-63624171D01*
X93631281Y-63624171D01*
X93854703Y-63531855D01*
X94031235Y-63355631D01*
X94126891Y-63125265D01*
X94127109Y-62875829D01*
X94031855Y-62645297D01*
X93855631Y-62468765D01*
X93625265Y-62373109D01*
X93375829Y-62372891D01*
X93145297Y-62468145D01*
X92968765Y-62644369D01*
X92873109Y-62874735D01*
X92872891Y-63124171D01*
X91541485Y-63124171D01*
X91383990Y-62966402D01*
X91236061Y-62904977D01*
X91382989Y-62844267D01*
X91573598Y-62653990D01*
X91676882Y-62405254D01*
X91677117Y-62135927D01*
X91672929Y-62125791D01*
X128372837Y-62125791D01*
X128468091Y-62356323D01*
X128644315Y-62532855D01*
X128874681Y-62628511D01*
X129124117Y-62628729D01*
X129354649Y-62533475D01*
X129531181Y-62357251D01*
X129626837Y-62126885D01*
X129626925Y-62025628D01*
X130851863Y-62025628D01*
X130947117Y-62256160D01*
X131123341Y-62432692D01*
X131353707Y-62528348D01*
X131603143Y-62528566D01*
X131833675Y-62433312D01*
X132010207Y-62257088D01*
X132105863Y-62026722D01*
X132106081Y-61777286D01*
X132010827Y-61546754D01*
X131834603Y-61370222D01*
X131604237Y-61274566D01*
X131354801Y-61274348D01*
X131124269Y-61369602D01*
X130947737Y-61545826D01*
X130852081Y-61776192D01*
X130851863Y-62025628D01*
X129626925Y-62025628D01*
X129627055Y-61877449D01*
X129531801Y-61646917D01*
X129355577Y-61470385D01*
X129125211Y-61374729D01*
X128875775Y-61374511D01*
X128645243Y-61469765D01*
X128468711Y-61645989D01*
X128373055Y-61876355D01*
X128372837Y-62125791D01*
X91672929Y-62125791D01*
X91574267Y-61887011D01*
X91383990Y-61696402D01*
X91236061Y-61634977D01*
X91382989Y-61574267D01*
X91573598Y-61383990D01*
X91676882Y-61135254D01*
X91677117Y-60865927D01*
X91574267Y-60617011D01*
X91383990Y-60426402D01*
X91135254Y-60323118D01*
X90865927Y-60322883D01*
X90617011Y-60425733D01*
X90426402Y-60616010D01*
X90364977Y-60763939D01*
X90304267Y-60617011D01*
X90113990Y-60426402D01*
X89865254Y-60323118D01*
X89595927Y-60322883D01*
X89347011Y-60425733D01*
X89156402Y-60616010D01*
X89053118Y-60864746D01*
X89052883Y-61134073D01*
X81402000Y-61134073D01*
X81402000Y-60124171D01*
X91372891Y-60124171D01*
X91468145Y-60354703D01*
X91644369Y-60531235D01*
X91874735Y-60626891D01*
X92124171Y-60627109D01*
X92131281Y-60624171D01*
X116872891Y-60624171D01*
X116968145Y-60854703D01*
X117144369Y-61031235D01*
X117374735Y-61126891D01*
X117624171Y-61127109D01*
X117631281Y-61124171D01*
X132872891Y-61124171D01*
X132968145Y-61354703D01*
X133144369Y-61531235D01*
X133374735Y-61626891D01*
X133624171Y-61627109D01*
X133854703Y-61531855D01*
X134031235Y-61355631D01*
X134126891Y-61125265D01*
X134127109Y-60875829D01*
X134031855Y-60645297D01*
X133855631Y-60468765D01*
X133625265Y-60373109D01*
X133375829Y-60372891D01*
X133145297Y-60468145D01*
X132968765Y-60644369D01*
X132873109Y-60874735D01*
X132872891Y-61124171D01*
X117631281Y-61124171D01*
X117854703Y-61031855D01*
X118031235Y-60855631D01*
X118126891Y-60625265D01*
X118127109Y-60375829D01*
X118031855Y-60145297D01*
X117855631Y-59968765D01*
X117625265Y-59873109D01*
X117375829Y-59872891D01*
X117145297Y-59968145D01*
X116968765Y-60144369D01*
X116873109Y-60374735D01*
X116872891Y-60624171D01*
X92131281Y-60624171D01*
X92354703Y-60531855D01*
X92531235Y-60355631D01*
X92626891Y-60125265D01*
X92627109Y-59875829D01*
X92531855Y-59645297D01*
X92355631Y-59468765D01*
X92125265Y-59373109D01*
X91875829Y-59372891D01*
X91645297Y-59468145D01*
X91468765Y-59644369D01*
X91373109Y-59874735D01*
X91372891Y-60124171D01*
X81402000Y-60124171D01*
X81402000Y-58529687D01*
X123011310Y-58529687D01*
X123106564Y-58760219D01*
X123282788Y-58936751D01*
X123497561Y-59025932D01*
X123346262Y-59176967D01*
X123250606Y-59407333D01*
X123250388Y-59656769D01*
X123345642Y-59887301D01*
X123521866Y-60063833D01*
X123752232Y-60159489D01*
X124001668Y-60159707D01*
X124232200Y-60064453D01*
X124408732Y-59888229D01*
X124504388Y-59657863D01*
X124504606Y-59408427D01*
X124409352Y-59177895D01*
X124233128Y-59001363D01*
X124018355Y-58912182D01*
X124056432Y-58874171D01*
X131622891Y-58874171D01*
X131718145Y-59104703D01*
X131894369Y-59281235D01*
X132124735Y-59376891D01*
X132374171Y-59377109D01*
X132604703Y-59281855D01*
X132781235Y-59105631D01*
X132876891Y-58875265D01*
X132877108Y-58626893D01*
X133124171Y-58627109D01*
X133354703Y-58531855D01*
X133531235Y-58355631D01*
X133626891Y-58125265D01*
X133627109Y-57875829D01*
X133531855Y-57645297D01*
X133355631Y-57468765D01*
X133125265Y-57373109D01*
X132875829Y-57372891D01*
X132645297Y-57468145D01*
X132468765Y-57644369D01*
X132373109Y-57874735D01*
X132372892Y-58123107D01*
X132125829Y-58122891D01*
X131895297Y-58218145D01*
X131718765Y-58394369D01*
X131623109Y-58624735D01*
X131622891Y-58874171D01*
X124056432Y-58874171D01*
X124169654Y-58761147D01*
X124265310Y-58530781D01*
X124265528Y-58281345D01*
X124170274Y-58050813D01*
X123994050Y-57874281D01*
X123763684Y-57778625D01*
X123514248Y-57778407D01*
X123283716Y-57873661D01*
X123107184Y-58049885D01*
X123011528Y-58280251D01*
X123011310Y-58529687D01*
X81402000Y-58529687D01*
X81402000Y-55571400D01*
X138900594Y-55571400D01*
X138900594Y-57298600D01*
X138923395Y-57419779D01*
X138995012Y-57531074D01*
X139104286Y-57605738D01*
X139234000Y-57632006D01*
X141266000Y-57632006D01*
X141387179Y-57609205D01*
X141498474Y-57537588D01*
X141573138Y-57428314D01*
X141599406Y-57298600D01*
X141599406Y-55571400D01*
X141576605Y-55450221D01*
X141504988Y-55338926D01*
X141395714Y-55264262D01*
X141266000Y-55237994D01*
X139234000Y-55237994D01*
X139112821Y-55260795D01*
X139001526Y-55332412D01*
X138926862Y-55441686D01*
X138900594Y-55571400D01*
X81402000Y-55571400D01*
X81402000Y-54624171D01*
X131872891Y-54624171D01*
X131968145Y-54854703D01*
X132144369Y-55031235D01*
X132374735Y-55126891D01*
X132624171Y-55127109D01*
X132854703Y-55031855D01*
X132874881Y-55011713D01*
X132894369Y-55031235D01*
X133124735Y-55126891D01*
X133374171Y-55127109D01*
X133604703Y-55031855D01*
X133781235Y-54855631D01*
X133876891Y-54625265D01*
X133877109Y-54375829D01*
X133781855Y-54145297D01*
X133605631Y-53968765D01*
X133427985Y-53895000D01*
X138880689Y-53895000D01*
X138971318Y-54350623D01*
X139229408Y-54736881D01*
X139615666Y-54994971D01*
X140071289Y-55085600D01*
X140428711Y-55085600D01*
X140884334Y-54994971D01*
X141270592Y-54736881D01*
X141528682Y-54350623D01*
X141619311Y-53895000D01*
X141528682Y-53439377D01*
X141270592Y-53053119D01*
X140884334Y-52795029D01*
X140428711Y-52704400D01*
X140071289Y-52704400D01*
X139615666Y-52795029D01*
X139229408Y-53053119D01*
X138971318Y-53439377D01*
X138880689Y-53895000D01*
X133427985Y-53895000D01*
X133375265Y-53873109D01*
X133125829Y-53872891D01*
X132895297Y-53968145D01*
X132875119Y-53988287D01*
X132855631Y-53968765D01*
X132625265Y-53873109D01*
X132375829Y-53872891D01*
X132145297Y-53968145D01*
X131968765Y-54144369D01*
X131873109Y-54374735D01*
X131872891Y-54624171D01*
X81402000Y-54624171D01*
X81402000Y-49624171D01*
X116872891Y-49624171D01*
X116968145Y-49854703D01*
X117113287Y-50000099D01*
X116968765Y-50144369D01*
X116873109Y-50374735D01*
X116872891Y-50624171D01*
X116968145Y-50854703D01*
X117113287Y-51000099D01*
X116968765Y-51144369D01*
X116873109Y-51374735D01*
X116872891Y-51624171D01*
X116968145Y-51854703D01*
X117144369Y-52031235D01*
X117374735Y-52126891D01*
X117624171Y-52127109D01*
X117854703Y-52031855D01*
X118000099Y-51886713D01*
X118144369Y-52031235D01*
X118374735Y-52126891D01*
X118624171Y-52127109D01*
X118854703Y-52031855D01*
X119000099Y-51886713D01*
X119144369Y-52031235D01*
X119374735Y-52126891D01*
X119624171Y-52127109D01*
X119854703Y-52031855D01*
X120031235Y-51855631D01*
X120126891Y-51625265D01*
X120127109Y-51375829D01*
X120126424Y-51374171D01*
X132122891Y-51374171D01*
X132218145Y-51604703D01*
X132394369Y-51781235D01*
X132624735Y-51876891D01*
X132874171Y-51877109D01*
X133104703Y-51781855D01*
X133124881Y-51761713D01*
X133144369Y-51781235D01*
X133374735Y-51876891D01*
X133624171Y-51877109D01*
X133854703Y-51781855D01*
X134031235Y-51605631D01*
X134126891Y-51375265D01*
X134126908Y-51355000D01*
X138880689Y-51355000D01*
X138971318Y-51810623D01*
X139229408Y-52196881D01*
X139615666Y-52454971D01*
X140071289Y-52545600D01*
X140428711Y-52545600D01*
X140884334Y-52454971D01*
X141270592Y-52196881D01*
X141528682Y-51810623D01*
X141619311Y-51355000D01*
X141528682Y-50899377D01*
X141270592Y-50513119D01*
X140884334Y-50255029D01*
X140428711Y-50164400D01*
X140071289Y-50164400D01*
X139615666Y-50255029D01*
X139229408Y-50513119D01*
X138971318Y-50899377D01*
X138880689Y-51355000D01*
X134126908Y-51355000D01*
X134127109Y-51125829D01*
X134031855Y-50895297D01*
X133855631Y-50718765D01*
X133625265Y-50623109D01*
X133375829Y-50622891D01*
X133145297Y-50718145D01*
X133125119Y-50738287D01*
X133105631Y-50718765D01*
X132875265Y-50623109D01*
X132625829Y-50622891D01*
X132395297Y-50718145D01*
X132218765Y-50894369D01*
X132123109Y-51124735D01*
X132122891Y-51374171D01*
X120126424Y-51374171D01*
X120031855Y-51145297D01*
X119886713Y-50999901D01*
X120031235Y-50855631D01*
X120126891Y-50625265D01*
X120127109Y-50375829D01*
X120031855Y-50145297D01*
X119886713Y-49999901D01*
X120031235Y-49855631D01*
X120126891Y-49625265D01*
X120127109Y-49375829D01*
X120031855Y-49145297D01*
X119855631Y-48968765D01*
X119625265Y-48873109D01*
X119375829Y-48872891D01*
X119145297Y-48968145D01*
X118999901Y-49113287D01*
X118855631Y-48968765D01*
X118625265Y-48873109D01*
X118375829Y-48872891D01*
X118145297Y-48968145D01*
X117999901Y-49113287D01*
X117855631Y-48968765D01*
X117625265Y-48873109D01*
X117375829Y-48872891D01*
X117145297Y-48968145D01*
X116968765Y-49144369D01*
X116873109Y-49374735D01*
X116872891Y-49624171D01*
X81402000Y-49624171D01*
X81402000Y-48815000D01*
X138880689Y-48815000D01*
X138971318Y-49270623D01*
X139229408Y-49656881D01*
X139615666Y-49914971D01*
X140071289Y-50005600D01*
X140428711Y-50005600D01*
X140884334Y-49914971D01*
X141270592Y-49656881D01*
X141528682Y-49270623D01*
X141619311Y-48815000D01*
X141528682Y-48359377D01*
X141270592Y-47973119D01*
X140884334Y-47715029D01*
X140428711Y-47624400D01*
X140071289Y-47624400D01*
X139615666Y-47715029D01*
X139229408Y-47973119D01*
X138971318Y-48359377D01*
X138880689Y-48815000D01*
X81402000Y-48815000D01*
X81402000Y-46460838D01*
X93672597Y-46460838D01*
X94026115Y-47316418D01*
X94680139Y-47971585D01*
X95535100Y-48326596D01*
X96460838Y-48327403D01*
X97316418Y-47973885D01*
X97666743Y-47624171D01*
X130122891Y-47624171D01*
X130218145Y-47854703D01*
X130394369Y-48031235D01*
X130624735Y-48126891D01*
X130874171Y-48127109D01*
X131104703Y-48031855D01*
X131281235Y-47855631D01*
X131376891Y-47625265D01*
X131377109Y-47375829D01*
X131281855Y-47145297D01*
X131105631Y-46968765D01*
X130875265Y-46873109D01*
X130625829Y-46872891D01*
X130395297Y-46968145D01*
X130218765Y-47144369D01*
X130123109Y-47374735D01*
X130122891Y-47624171D01*
X97666743Y-47624171D01*
X97971585Y-47319861D01*
X98260460Y-46624171D01*
X129122891Y-46624171D01*
X129218145Y-46854703D01*
X129394369Y-47031235D01*
X129624735Y-47126891D01*
X129874171Y-47127109D01*
X130104703Y-47031855D01*
X130281235Y-46855631D01*
X130376891Y-46625265D01*
X130377034Y-46460838D01*
X153672597Y-46460838D01*
X154026115Y-47316418D01*
X154680139Y-47971585D01*
X155535100Y-48326596D01*
X156460838Y-48327403D01*
X157316418Y-47973885D01*
X157971585Y-47319861D01*
X158326596Y-46464900D01*
X158327403Y-45539162D01*
X157973885Y-44683582D01*
X157319861Y-44028415D01*
X156464900Y-43673404D01*
X155539162Y-43672597D01*
X154683582Y-44026115D01*
X154028415Y-44680139D01*
X153673404Y-45535100D01*
X153672597Y-46460838D01*
X130377034Y-46460838D01*
X130377109Y-46375829D01*
X130281855Y-46145297D01*
X130105631Y-45968765D01*
X129875265Y-45873109D01*
X129625829Y-45872891D01*
X129395297Y-45968145D01*
X129218765Y-46144369D01*
X129123109Y-46374735D01*
X129122891Y-46624171D01*
X98260460Y-46624171D01*
X98326596Y-46464900D01*
X98327403Y-45539162D01*
X97973885Y-44683582D01*
X97319861Y-44028415D01*
X96464900Y-43673404D01*
X95539162Y-43672597D01*
X94683582Y-44026115D01*
X94028415Y-44680139D01*
X93673404Y-45535100D01*
X93672597Y-46460838D01*
X81402000Y-46460838D01*
X81402000Y-31402000D01*
X170598000Y-31402000D01*
X170598000Y-120598000D01*
M02*
