G04 #@! TF.FileFunction,Copper,L1,Top,Signal*
%FSLAX46Y46*%
G04 Gerber Fmt 4.6, Leading zero omitted, Abs format (unit mm)*
G04 Created by KiCad (PCBNEW (2015-12-07 BZR 6352)-product) date Sun 16 Jul 2017 10:51:14 AM EDT*
%MOMM*%
G01*
G04 APERTURE LIST*
%ADD10C,0.100000*%
%ADD11R,4.000500X1.600200*%
%ADD12R,0.900000X0.500000*%
%ADD13R,0.750000X0.800000*%
%ADD14R,0.800000X0.750000*%
%ADD15R,1.200000X1.200000*%
%ADD16R,1.600000X1.500000*%
%ADD17R,0.500000X0.900000*%
%ADD18R,1.700000X0.900000*%
%ADD19R,1.100000X0.400000*%
%ADD20R,3.000000X4.320000*%
%ADD21R,2.032000X1.727200*%
%ADD22O,2.032000X1.727200*%
%ADD23C,0.700000*%
%ADD24C,4.000000*%
%ADD25C,5.000000*%
%ADD26C,2.400000*%
%ADD27R,2.400000X2.400000*%
%ADD28C,0.600000*%
%ADD29C,0.203200*%
%ADD30C,0.254000*%
%ADD31C,1.270000*%
%ADD32C,0.381000*%
G04 APERTURE END LIST*
D10*
D11*
X116050540Y-95500000D03*
X109949460Y-95500000D03*
X116050540Y-70500000D03*
X109949460Y-70500000D03*
D12*
X123573908Y-90112684D03*
X123573908Y-91612684D03*
X121573908Y-90112684D03*
X121573908Y-91612684D03*
D13*
X124000000Y-98750000D03*
X124000000Y-100250000D03*
D12*
X125573908Y-90112684D03*
X125573908Y-91612684D03*
D14*
X129750000Y-97500000D03*
X128250000Y-97500000D03*
D11*
X116050540Y-105500000D03*
X109949460Y-105500000D03*
D15*
X132500000Y-115750000D03*
D16*
X133500000Y-112500000D03*
D15*
X134500000Y-115750000D03*
D17*
X128750000Y-113500000D03*
X130250000Y-113500000D03*
D12*
X122500000Y-104250000D03*
X122500000Y-105750000D03*
D14*
X132250000Y-108000000D03*
X130750000Y-108000000D03*
D18*
X135750000Y-98050000D03*
X135750000Y-100950000D03*
X135750000Y-107450000D03*
X135750000Y-104550000D03*
D19*
X125950000Y-99325000D03*
X125950000Y-99975000D03*
X125950000Y-100625000D03*
X125950000Y-101275000D03*
X125950000Y-101925000D03*
X125950000Y-102575000D03*
X125950000Y-103225000D03*
X125950000Y-103875000D03*
X125950000Y-104525000D03*
X125950000Y-105175000D03*
X125950000Y-105825000D03*
X125950000Y-106475000D03*
X131650000Y-106475000D03*
X131650000Y-105825000D03*
X131650000Y-105175000D03*
X131650000Y-104525000D03*
X131650000Y-103875000D03*
X131650000Y-103225000D03*
X131650000Y-102575000D03*
X131650000Y-101925000D03*
X131650000Y-101275000D03*
X131650000Y-100625000D03*
X131650000Y-99975000D03*
X131650000Y-99325000D03*
D20*
X128800000Y-102900000D03*
D21*
X140250000Y-106435000D03*
D22*
X140250000Y-103895000D03*
X140250000Y-101355000D03*
X140250000Y-98815000D03*
D12*
X123573908Y-65112684D03*
X123573908Y-66612684D03*
X121573908Y-65112684D03*
X121573908Y-66612684D03*
D13*
X124000000Y-73750000D03*
X124000000Y-75250000D03*
D12*
X125573908Y-65112684D03*
X125573908Y-66612684D03*
D14*
X129750000Y-72500000D03*
X128250000Y-72500000D03*
D11*
X116050540Y-80500000D03*
X109949460Y-80500000D03*
D15*
X132500000Y-90750000D03*
D16*
X133500000Y-87500000D03*
D15*
X134500000Y-90750000D03*
D17*
X128750000Y-88500000D03*
X130250000Y-88500000D03*
D12*
X122500000Y-79250000D03*
X122500000Y-80750000D03*
D14*
X132250000Y-83000000D03*
X130750000Y-83000000D03*
D18*
X135750000Y-73050000D03*
X135750000Y-75950000D03*
X135750000Y-82450000D03*
X135750000Y-79550000D03*
D19*
X125950000Y-74325000D03*
X125950000Y-74975000D03*
X125950000Y-75625000D03*
X125950000Y-76275000D03*
X125950000Y-76925000D03*
X125950000Y-77575000D03*
X125950000Y-78225000D03*
X125950000Y-78875000D03*
X125950000Y-79525000D03*
X125950000Y-80175000D03*
X125950000Y-80825000D03*
X125950000Y-81475000D03*
X131650000Y-81475000D03*
X131650000Y-80825000D03*
X131650000Y-80175000D03*
X131650000Y-79525000D03*
X131650000Y-78875000D03*
X131650000Y-78225000D03*
X131650000Y-77575000D03*
X131650000Y-76925000D03*
X131650000Y-76275000D03*
X131650000Y-75625000D03*
X131650000Y-74975000D03*
X131650000Y-74325000D03*
D20*
X128800000Y-77900000D03*
D21*
X140250000Y-81435000D03*
D22*
X140250000Y-78895000D03*
X140250000Y-76355000D03*
X140250000Y-73815000D03*
D19*
X125950000Y-49325000D03*
X125950000Y-49975000D03*
X125950000Y-50625000D03*
X125950000Y-51275000D03*
X125950000Y-51925000D03*
X125950000Y-52575000D03*
X125950000Y-53225000D03*
X125950000Y-53875000D03*
X125950000Y-54525000D03*
X125950000Y-55175000D03*
X125950000Y-55825000D03*
X125950000Y-56475000D03*
X131650000Y-56475000D03*
X131650000Y-55825000D03*
X131650000Y-55175000D03*
X131650000Y-54525000D03*
X131650000Y-53875000D03*
X131650000Y-53225000D03*
X131650000Y-52575000D03*
X131650000Y-51925000D03*
X131650000Y-51275000D03*
X131650000Y-50625000D03*
X131650000Y-49975000D03*
X131650000Y-49325000D03*
D20*
X128800000Y-52900000D03*
D13*
X124000000Y-48750000D03*
X124000000Y-50250000D03*
D14*
X132250000Y-58000000D03*
X130750000Y-58000000D03*
X129750000Y-47500000D03*
X128250000Y-47500000D03*
D12*
X122500000Y-54250000D03*
X122500000Y-55750000D03*
X125573908Y-40112684D03*
X125573908Y-41612684D03*
X123573908Y-40112684D03*
X123573908Y-41612684D03*
X121573908Y-40112684D03*
X121573908Y-41612684D03*
D18*
X135750000Y-57450000D03*
X135750000Y-54550000D03*
X135750000Y-48050000D03*
X135750000Y-50950000D03*
D17*
X128750000Y-63500000D03*
X130250000Y-63500000D03*
D15*
X132500000Y-65750000D03*
D16*
X133500000Y-62500000D03*
D15*
X134500000Y-65750000D03*
D11*
X116050540Y-45500000D03*
X109949460Y-45500000D03*
X116050540Y-55500000D03*
X109949460Y-55500000D03*
D21*
X140250000Y-56435000D03*
D22*
X140250000Y-53895000D03*
X140250000Y-51355000D03*
X140250000Y-48815000D03*
D23*
X89730000Y-86000000D03*
X91000000Y-86000000D03*
X89730000Y-87270000D03*
X91000000Y-87270000D03*
X89730000Y-88540000D03*
X91000000Y-88540000D03*
X89730000Y-89810000D03*
X91000000Y-89810000D03*
X89730000Y-91080000D03*
X91000000Y-91080000D03*
X89730000Y-61000000D03*
X91000000Y-61000000D03*
X89730000Y-62270000D03*
X91000000Y-62270000D03*
X89730000Y-63540000D03*
X91000000Y-63540000D03*
X89730000Y-64810000D03*
X91000000Y-64810000D03*
X89730000Y-66080000D03*
X91000000Y-66080000D03*
D24*
X96000000Y-106000000D03*
X156000000Y-106000000D03*
X156000000Y-46000000D03*
X96000000Y-46000000D03*
D25*
X86000000Y-116000000D03*
X86000000Y-36000000D03*
X166000000Y-36000000D03*
X166000000Y-116000000D03*
D26*
X95500000Y-77500000D03*
D27*
X95500000Y-74000000D03*
D28*
X93972736Y-67438405D03*
X93500000Y-63000000D03*
X128999946Y-112001620D03*
X123877497Y-109532598D03*
X128999946Y-87001620D03*
X123877497Y-84532598D03*
X123877497Y-59532598D03*
X128999946Y-62001620D03*
X108500000Y-76500000D03*
X107500000Y-76500000D03*
X106500000Y-76500000D03*
X106500000Y-75500000D03*
X107500000Y-75500000D03*
X108500000Y-75500000D03*
X108500000Y-74500000D03*
X107500000Y-74500000D03*
X108500000Y-101500000D03*
X107500000Y-101500000D03*
X106500000Y-101500000D03*
X106500000Y-100500000D03*
X107500000Y-100500000D03*
X108500000Y-100500000D03*
X108500000Y-99500000D03*
X106500000Y-99500000D03*
X107500000Y-99500000D03*
X108500000Y-51500000D03*
X108500000Y-50500000D03*
X108500000Y-49500000D03*
X107500000Y-50500000D03*
X107500000Y-51500000D03*
X106500000Y-51500000D03*
X106500000Y-50500000D03*
X107500000Y-49500000D03*
X128800000Y-103900000D03*
X129800000Y-102900000D03*
X129800000Y-103900000D03*
X133835488Y-97859014D03*
X128800000Y-102900000D03*
X127800000Y-102900000D03*
X129800000Y-101900000D03*
X127800000Y-101900000D03*
X128800000Y-101900000D03*
X127800000Y-103900000D03*
X136000000Y-115500000D03*
X135500000Y-108750000D03*
X122500000Y-106500000D03*
X106500000Y-74500000D03*
X128800000Y-78900000D03*
X129800000Y-77900000D03*
X129800000Y-78900000D03*
X133835488Y-72859014D03*
X128800000Y-77900000D03*
X127800000Y-77900000D03*
X129800000Y-76900000D03*
X127800000Y-76900000D03*
X128800000Y-76900000D03*
X127800000Y-78900000D03*
X136000000Y-90500000D03*
X135500000Y-83750000D03*
X122500000Y-81500000D03*
X106500000Y-49500000D03*
X136000000Y-65500000D03*
X122500000Y-56500000D03*
X127800000Y-53900000D03*
X129800000Y-53900000D03*
X129800000Y-52900000D03*
X127800000Y-52900000D03*
X127800000Y-51900000D03*
X129800000Y-51900000D03*
X133835488Y-47859014D03*
X135500000Y-58750000D03*
X128800000Y-51900000D03*
X128800000Y-53900000D03*
X128800000Y-52900000D03*
X119500000Y-101500000D03*
X118500000Y-101500000D03*
X117500000Y-101500000D03*
X117500000Y-100500000D03*
X118500000Y-100500000D03*
X119500000Y-100500000D03*
X119500000Y-99500000D03*
X118500000Y-99500000D03*
X119500000Y-76500000D03*
X118500000Y-76500000D03*
X117500000Y-76500000D03*
X117500000Y-75500000D03*
X118500000Y-75500000D03*
X119500000Y-75500000D03*
X119500000Y-74500000D03*
X119500000Y-51500000D03*
X118500000Y-51500000D03*
X117500000Y-51500000D03*
X117500000Y-50500000D03*
X118500000Y-50500000D03*
X119500000Y-50500000D03*
X119500000Y-49500000D03*
X117500000Y-99500000D03*
X130750000Y-97500000D03*
X133500000Y-101250000D03*
X132750000Y-101250000D03*
X132500000Y-104500000D03*
X133250000Y-104500000D03*
X133000000Y-108000000D03*
X132250000Y-108750000D03*
X129750000Y-96500000D03*
X117500000Y-74500000D03*
X118500000Y-74500000D03*
X130750000Y-72500000D03*
X133500000Y-76250000D03*
X132750000Y-76250000D03*
X132500000Y-79500000D03*
X133250000Y-79500000D03*
X133000000Y-83000000D03*
X132250000Y-83750000D03*
X129750000Y-71500000D03*
X118500000Y-49500000D03*
X117500000Y-49500000D03*
X129750000Y-46500000D03*
X130750000Y-47500000D03*
X133500000Y-51250000D03*
X132750000Y-51250000D03*
X133250000Y-54500000D03*
X132500000Y-54500000D03*
X133000000Y-58000000D03*
X132250000Y-58750000D03*
X131478972Y-61901457D03*
X123638419Y-58405516D03*
X133500000Y-111000000D03*
X117500000Y-110500000D03*
X133500000Y-86000000D03*
X117500000Y-85500000D03*
X117500000Y-60500000D03*
X133500000Y-61000000D03*
X92000000Y-60000000D03*
X94746015Y-68753985D03*
X89500000Y-81500000D03*
X95000000Y-63500000D03*
X117500000Y-110500000D03*
X117500000Y-85500000D03*
X89500000Y-83500000D03*
X89500000Y-82500000D03*
X92000000Y-86500000D03*
X131556337Y-86967660D03*
X123638419Y-83405516D03*
X131649175Y-111987443D03*
X123638419Y-108405516D03*
D29*
X104076598Y-83783912D02*
X104076598Y-77118003D01*
X104076598Y-77118003D02*
X94397000Y-67438405D01*
X121573908Y-90112684D02*
X110405370Y-90112684D01*
X94397000Y-67438405D02*
X93972736Y-67438405D01*
X110405370Y-90112684D02*
X104076598Y-83783912D01*
X105887316Y-40112684D02*
X105000000Y-41000000D01*
X105000000Y-41000000D02*
X105000000Y-57000000D01*
X105000000Y-57000000D02*
X103000000Y-59000000D01*
D30*
X89380001Y-85650001D02*
X89730000Y-86000000D01*
X87910965Y-84180965D02*
X89380001Y-85650001D01*
X87910965Y-62819035D02*
X87910965Y-84180965D01*
X89730000Y-61000000D02*
X87910965Y-62819035D01*
D29*
X121573908Y-65112684D02*
X98375908Y-65112684D01*
X98375908Y-65112684D02*
X95963225Y-62700001D01*
X95963225Y-62700001D02*
X93799999Y-62700001D01*
X93799999Y-62700001D02*
X93500000Y-63000000D01*
X121573908Y-40112684D02*
X105887316Y-40112684D01*
X103000000Y-59000000D02*
X91730000Y-59000000D01*
X91730000Y-59000000D02*
X89730000Y-61000000D01*
X122440914Y-100981304D02*
X122440914Y-90171770D01*
X123573908Y-90112684D02*
X122500000Y-90112684D01*
X122440914Y-90171770D02*
X122500000Y-90112684D01*
X122500000Y-90112684D02*
X121573908Y-90112684D01*
X125573908Y-90112684D02*
X123573908Y-90112684D01*
X124684610Y-103225000D02*
X122440914Y-100981304D01*
X128750000Y-113500000D02*
X128750000Y-112251566D01*
X124301761Y-109532598D02*
X123877497Y-109532598D01*
X128750000Y-112251566D02*
X128999946Y-112001620D01*
X126891248Y-106943111D02*
X124301761Y-109532598D01*
X125950000Y-103225000D02*
X126655725Y-103225000D01*
X125950000Y-103225000D02*
X124684610Y-103225000D01*
X126655725Y-103225000D02*
X126891248Y-103460523D01*
X126891248Y-103460523D02*
X126891248Y-104500000D01*
X126412882Y-104525000D02*
X125950000Y-104525000D01*
X125950000Y-104525000D02*
X126866248Y-104525000D01*
X126891248Y-104500000D02*
X126891248Y-106943111D01*
X126866248Y-104525000D02*
X126891248Y-104500000D01*
X122440914Y-75981304D02*
X122440914Y-65171770D01*
X123573908Y-65112684D02*
X122500000Y-65112684D01*
X122440914Y-65171770D02*
X122500000Y-65112684D01*
X122500000Y-65112684D02*
X121573908Y-65112684D01*
X125573908Y-65112684D02*
X123573908Y-65112684D01*
X124684610Y-78225000D02*
X122440914Y-75981304D01*
X128750000Y-88500000D02*
X128750000Y-87251566D01*
X124301761Y-84532598D02*
X123877497Y-84532598D01*
X128750000Y-87251566D02*
X128999946Y-87001620D01*
X126891248Y-81943111D02*
X124301761Y-84532598D01*
X125950000Y-78225000D02*
X126655725Y-78225000D01*
X125950000Y-78225000D02*
X124684610Y-78225000D01*
X126655725Y-78225000D02*
X126891248Y-78460523D01*
X126891248Y-78460523D02*
X126891248Y-79500000D01*
X126412882Y-79525000D02*
X125950000Y-79525000D01*
X125950000Y-79525000D02*
X126866248Y-79525000D01*
X126891248Y-79500000D02*
X126891248Y-81943111D01*
X126866248Y-79525000D02*
X126891248Y-79500000D01*
X126891248Y-54500000D02*
X126891248Y-56943111D01*
X126891248Y-56943111D02*
X124301761Y-59532598D01*
X124301761Y-59532598D02*
X123877497Y-59532598D01*
X128750000Y-63500000D02*
X128750000Y-62251566D01*
X128750000Y-62251566D02*
X128999946Y-62001620D01*
X126891248Y-53460523D02*
X126891248Y-54500000D01*
X125950000Y-54525000D02*
X126866248Y-54525000D01*
X126866248Y-54525000D02*
X126891248Y-54500000D01*
X125950000Y-53225000D02*
X126655725Y-53225000D01*
X126655725Y-53225000D02*
X126891248Y-53460523D01*
X125950000Y-53225000D02*
X124684610Y-53225000D01*
X124684610Y-53225000D02*
X122440914Y-50981304D01*
X122440914Y-50981304D02*
X122440914Y-40171770D01*
X122440914Y-40171770D02*
X122500000Y-40112684D01*
X123573908Y-40112684D02*
X122500000Y-40112684D01*
X122500000Y-40112684D02*
X121573908Y-40112684D01*
X125573908Y-40112684D02*
X123573908Y-40112684D01*
X126412882Y-54525000D02*
X125950000Y-54525000D01*
D30*
X106500000Y-76500000D02*
X107500000Y-76500000D01*
X107500000Y-75500000D02*
X106500000Y-75500000D01*
X108500000Y-74500000D02*
X108500000Y-75500000D01*
X106500000Y-74500000D02*
X107500000Y-74500000D01*
X107500000Y-101500000D02*
X108500000Y-101500000D01*
X106500000Y-100500000D02*
X106500000Y-101500000D01*
X108500000Y-100500000D02*
X107500000Y-100500000D01*
X107500000Y-99500000D02*
X108500000Y-99500000D01*
X107500000Y-99500000D02*
X106500000Y-99500000D01*
D29*
X108500000Y-50500000D02*
X108500000Y-51500000D01*
X108500000Y-49500000D02*
X108500000Y-50500000D01*
X107500000Y-49500000D02*
X108500000Y-49500000D01*
X107500000Y-51500000D02*
X107500000Y-50500000D01*
X106500000Y-51500000D02*
X107500000Y-51500000D01*
X106500000Y-50500000D02*
X106500000Y-51500000D01*
X106500000Y-49500000D02*
X106500000Y-50500000D01*
X106500000Y-49500000D02*
X107500000Y-49500000D01*
D31*
X109949460Y-105500000D02*
X109949460Y-99000000D01*
D29*
X107000000Y-99000000D02*
X106500000Y-99500000D01*
X109949460Y-99000000D02*
X107000000Y-99000000D01*
D31*
X109949460Y-99000000D02*
X109949460Y-95500000D01*
D32*
X130750000Y-107375000D02*
X131650000Y-106475000D01*
X129834000Y-106475000D02*
X128800000Y-105441000D01*
X128800000Y-105441000D02*
X128800000Y-102900000D01*
X131650000Y-106475000D02*
X129834000Y-106475000D01*
D29*
X134500000Y-115750000D02*
X135750000Y-115750000D01*
X135750000Y-115750000D02*
X136000000Y-115500000D01*
D32*
X135500000Y-107700000D02*
X135500000Y-108750000D01*
X130750000Y-108000000D02*
X130750000Y-107375000D01*
X135500000Y-97800000D02*
X133894502Y-97800000D01*
X133894502Y-97800000D02*
X133835488Y-97859014D01*
X131650000Y-99325000D02*
X129834000Y-99325000D01*
X128800000Y-100359000D02*
X128800000Y-102900000D01*
X129834000Y-99325000D02*
X128800000Y-100359000D01*
D29*
X122500000Y-105750000D02*
X122500000Y-106500000D01*
D31*
X109949460Y-80500000D02*
X109949460Y-74000000D01*
D29*
X107000000Y-74000000D02*
X106500000Y-74500000D01*
X109949460Y-74000000D02*
X107000000Y-74000000D01*
D31*
X109949460Y-74000000D02*
X109949460Y-70500000D01*
D32*
X130750000Y-82375000D02*
X131650000Y-81475000D01*
X129834000Y-81475000D02*
X128800000Y-80441000D01*
X128800000Y-80441000D02*
X128800000Y-77900000D01*
X131650000Y-81475000D02*
X129834000Y-81475000D01*
D29*
X134500000Y-90750000D02*
X135750000Y-90750000D01*
X135750000Y-90750000D02*
X136000000Y-90500000D01*
D32*
X135500000Y-82700000D02*
X135500000Y-83750000D01*
X130750000Y-83000000D02*
X130750000Y-82375000D01*
X135500000Y-72800000D02*
X133894502Y-72800000D01*
X133894502Y-72800000D02*
X133835488Y-72859014D01*
X131650000Y-74325000D02*
X129834000Y-74325000D01*
X128800000Y-75359000D02*
X128800000Y-77900000D01*
X129834000Y-74325000D02*
X128800000Y-75359000D01*
D29*
X122500000Y-80750000D02*
X122500000Y-81500000D01*
D31*
X109949460Y-49000000D02*
X109949460Y-45500000D01*
X109949460Y-55500000D02*
X109949460Y-49000000D01*
D29*
X109949460Y-49000000D02*
X107000000Y-49000000D01*
X107000000Y-49000000D02*
X106500000Y-49500000D01*
X134500000Y-65750000D02*
X135750000Y-65750000D01*
X135750000Y-65750000D02*
X136000000Y-65500000D01*
X122500000Y-55750000D02*
X122500000Y-56500000D01*
D32*
X133894502Y-47800000D02*
X133835488Y-47859014D01*
X135500000Y-47800000D02*
X133894502Y-47800000D01*
X135500000Y-57700000D02*
X135500000Y-58750000D01*
X130750000Y-58000000D02*
X130750000Y-57375000D01*
X130750000Y-57375000D02*
X131650000Y-56475000D01*
X131650000Y-49325000D02*
X129834000Y-49325000D01*
X129834000Y-49325000D02*
X128800000Y-50359000D01*
X128800000Y-50359000D02*
X128800000Y-52900000D01*
X131650000Y-56475000D02*
X129834000Y-56475000D01*
X129834000Y-56475000D02*
X128800000Y-55441000D01*
X128800000Y-55441000D02*
X128800000Y-52900000D01*
D30*
X118500000Y-101500000D02*
X119500000Y-101500000D01*
X117500000Y-100500000D02*
X117500000Y-101500000D01*
X119500000Y-100500000D02*
X118500000Y-100500000D01*
X118500000Y-99500000D02*
X119500000Y-99500000D01*
X118500000Y-76500000D02*
X119500000Y-76500000D01*
X117500000Y-76500000D02*
X118500000Y-76500000D01*
X117500000Y-75500000D02*
X117500000Y-76500000D01*
X118500000Y-75500000D02*
X117500000Y-75500000D01*
X119500000Y-75500000D02*
X118500000Y-75500000D01*
X119500000Y-74500000D02*
X119500000Y-75500000D01*
X118500000Y-74500000D02*
X119500000Y-74500000D01*
D29*
X118500000Y-51500000D02*
X119500000Y-51500000D01*
X117500000Y-51500000D02*
X118500000Y-51500000D01*
X117500000Y-50500000D02*
X117500000Y-51500000D01*
X118500000Y-50500000D02*
X117500000Y-50500000D01*
X119500000Y-50500000D02*
X118500000Y-50500000D01*
X119500000Y-49500000D02*
X119500000Y-50500000D01*
X118500000Y-49500000D02*
X119500000Y-49500000D01*
D31*
X116050540Y-105500000D02*
X116050540Y-99500000D01*
D29*
X116050540Y-99500000D02*
X117500000Y-99500000D01*
D31*
X116050540Y-99500000D02*
X116050540Y-95500000D01*
D29*
X117500000Y-99500000D02*
X118500000Y-99500000D01*
D32*
X132500000Y-104500000D02*
X133250000Y-104500000D01*
X132475000Y-104525000D02*
X132500000Y-104500000D01*
X132250000Y-108000000D02*
X133000000Y-108000000D01*
X132250000Y-108000000D02*
X132250000Y-108750000D01*
X131650000Y-104525000D02*
X132475000Y-104525000D01*
X132725000Y-101275000D02*
X132750000Y-101250000D01*
X132750000Y-101250000D02*
X133500000Y-101250000D01*
X131650000Y-101275000D02*
X132725000Y-101275000D01*
X129750000Y-97500000D02*
X129750000Y-96500000D01*
X129750000Y-97500000D02*
X130750000Y-97500000D01*
D31*
X116050540Y-80500000D02*
X116050540Y-74500000D01*
D29*
X116050540Y-74500000D02*
X117500000Y-74500000D01*
D31*
X116050540Y-74500000D02*
X116050540Y-70500000D01*
D29*
X117500000Y-74500000D02*
X118500000Y-74500000D01*
D32*
X132500000Y-79500000D02*
X133250000Y-79500000D01*
X132475000Y-79525000D02*
X132500000Y-79500000D01*
X132250000Y-83000000D02*
X133000000Y-83000000D01*
X132250000Y-83000000D02*
X132250000Y-83750000D01*
X131650000Y-79525000D02*
X132475000Y-79525000D01*
X132725000Y-76275000D02*
X132750000Y-76250000D01*
X132750000Y-76250000D02*
X133500000Y-76250000D01*
X131650000Y-76275000D02*
X132725000Y-76275000D01*
X129750000Y-72500000D02*
X129750000Y-71500000D01*
X129750000Y-72500000D02*
X130750000Y-72500000D01*
D29*
X117500000Y-49500000D02*
X118500000Y-49500000D01*
D31*
X116050540Y-49500000D02*
X116050540Y-45500000D01*
X116050540Y-55500000D02*
X116050540Y-49500000D01*
D29*
X116050540Y-49500000D02*
X117500000Y-49500000D01*
D32*
X129750000Y-47500000D02*
X129750000Y-46500000D01*
X129750000Y-47500000D02*
X130750000Y-47500000D01*
X132750000Y-51250000D02*
X133500000Y-51250000D01*
X131650000Y-51275000D02*
X132725000Y-51275000D01*
X132725000Y-51275000D02*
X132750000Y-51250000D01*
X132500000Y-54500000D02*
X133250000Y-54500000D01*
X131650000Y-54525000D02*
X132475000Y-54525000D01*
X132475000Y-54525000D02*
X132500000Y-54500000D01*
X132250000Y-58000000D02*
X133000000Y-58000000D01*
X132250000Y-58000000D02*
X132250000Y-58750000D01*
D29*
X130250000Y-63500000D02*
X131053200Y-63500000D01*
X131053200Y-63500000D02*
X132500000Y-64946800D01*
X132500000Y-64946800D02*
X132500000Y-65750000D01*
X132077515Y-62500000D02*
X131778971Y-62201456D01*
X133500000Y-62500000D02*
X132077515Y-62500000D01*
X131778971Y-62201456D02*
X131478972Y-61901457D01*
X125600000Y-56475000D02*
X123669484Y-58405516D01*
X123669484Y-58405516D02*
X123638419Y-58405516D01*
X125950000Y-56475000D02*
X125600000Y-56475000D01*
D30*
X89730000Y-62270000D02*
X88264976Y-63735024D01*
X88264976Y-63735024D02*
X88264976Y-83569717D01*
X88264976Y-83569717D02*
X90357785Y-85662526D01*
X90357785Y-85662526D02*
X90357785Y-86642215D01*
X90357785Y-86642215D02*
X90079999Y-86920001D01*
X90079999Y-86920001D02*
X89730000Y-87270000D01*
D29*
X125950000Y-55825000D02*
X125196800Y-55825000D01*
X90371683Y-61628317D02*
X90079999Y-61920001D01*
X125196800Y-55825000D02*
X122000000Y-59021800D01*
X122000000Y-60500000D02*
X120871683Y-61628317D01*
X120871683Y-61628317D02*
X90371683Y-61628317D01*
X122000000Y-59021800D02*
X122000000Y-60500000D01*
X90079999Y-61920001D02*
X89730000Y-62270000D01*
X131650000Y-55825000D02*
X132403200Y-55825000D01*
X132403200Y-55825000D02*
X132800000Y-56221800D01*
X132800000Y-56221800D02*
X132800000Y-56800000D01*
X132800000Y-56800000D02*
X133600000Y-57600000D01*
X133600000Y-57600000D02*
X133600000Y-59400000D01*
X133600000Y-59400000D02*
X132500000Y-60500000D01*
X132500000Y-60500000D02*
X123000000Y-60500000D01*
X123000000Y-60500000D02*
X121230000Y-62270000D01*
X121230000Y-62270000D02*
X97226456Y-62270000D01*
X97226456Y-62270000D02*
X91000000Y-62270000D01*
D30*
X131650000Y-55825000D02*
X131650000Y-55846602D01*
D29*
X144000000Y-110000000D02*
X143000000Y-111000000D01*
X143000000Y-111000000D02*
X133500000Y-111000000D01*
X144000000Y-97500000D02*
X144000000Y-110000000D01*
X143000000Y-96500000D02*
X144000000Y-97500000D01*
X133500000Y-96500000D02*
X143000000Y-96500000D01*
X132800000Y-97200000D02*
X133500000Y-96500000D01*
X132800000Y-97800000D02*
X132800000Y-97200000D01*
X132403200Y-99975000D02*
X132800000Y-99578200D01*
X131650000Y-99975000D02*
X132403200Y-99975000D01*
X132800000Y-99578200D02*
X132800000Y-97800000D01*
X144000000Y-85000000D02*
X143000000Y-86000000D01*
X143000000Y-86000000D02*
X133500000Y-86000000D01*
X144000000Y-72500000D02*
X144000000Y-85000000D01*
X143000000Y-71500000D02*
X144000000Y-72500000D01*
X133500000Y-71500000D02*
X143000000Y-71500000D01*
X132800000Y-72200000D02*
X133500000Y-71500000D01*
X132800000Y-72800000D02*
X132800000Y-72200000D01*
X132403200Y-74975000D02*
X132800000Y-74578200D01*
X131650000Y-74975000D02*
X132403200Y-74975000D01*
X132800000Y-74578200D02*
X132800000Y-72800000D01*
X132800000Y-49578200D02*
X132800000Y-47800000D01*
X131650000Y-49975000D02*
X132403200Y-49975000D01*
X132403200Y-49975000D02*
X132800000Y-49578200D01*
X132800000Y-47800000D02*
X132800000Y-47200000D01*
X132800000Y-47200000D02*
X133500000Y-46500000D01*
X133500000Y-46500000D02*
X143000000Y-46500000D01*
X143000000Y-46500000D02*
X144000000Y-47500000D01*
X144000000Y-47500000D02*
X144000000Y-60000000D01*
X143000000Y-61000000D02*
X133500000Y-61000000D01*
X144000000Y-60000000D02*
X143000000Y-61000000D01*
X107000000Y-61000000D02*
X93000000Y-61000000D01*
X93000000Y-61000000D02*
X92000000Y-60000000D01*
X116000000Y-61000000D02*
X107000000Y-61000000D01*
X117000000Y-61000000D02*
X116000000Y-61000000D01*
X117500000Y-60500000D02*
X117000000Y-61000000D01*
X95046014Y-69053984D02*
X94746015Y-68753985D01*
X103721176Y-77729146D02*
X95046014Y-69053984D01*
X106500000Y-110500000D02*
X103721176Y-107721176D01*
X103721176Y-107721176D02*
X103721176Y-77729146D01*
X117500000Y-110500000D02*
X106500000Y-110500000D01*
D30*
X89730000Y-81270000D02*
X89500000Y-81500000D01*
X89730000Y-66080000D02*
X89730000Y-81270000D01*
D29*
X95299999Y-63799999D02*
X95000000Y-63500000D01*
X105000000Y-83416589D02*
X105000000Y-73500000D01*
X117500000Y-85500000D02*
X107083411Y-85500000D01*
X105000000Y-73500000D02*
X95299999Y-63799999D01*
X107083411Y-85500000D02*
X105000000Y-83416589D01*
X132800000Y-99578200D02*
X132800000Y-97800000D01*
X131650000Y-99975000D02*
X132403200Y-99975000D01*
X132403200Y-99975000D02*
X132800000Y-99578200D01*
X132800000Y-74578200D02*
X132800000Y-72800000D01*
X131650000Y-74975000D02*
X132403200Y-74975000D01*
X132403200Y-74975000D02*
X132800000Y-74578200D01*
D30*
X124000000Y-48750000D02*
X125375000Y-48750000D01*
D32*
X124000000Y-48750000D02*
X124000000Y-49000000D01*
D30*
X125375000Y-48750000D02*
X125950000Y-49325000D01*
X124000000Y-50250000D02*
X124275000Y-49975000D01*
X124275000Y-49975000D02*
X125950000Y-49975000D01*
D29*
X122500000Y-54250000D02*
X123153200Y-54250000D01*
X123153200Y-54250000D02*
X123528200Y-53875000D01*
X123528200Y-53875000D02*
X125196800Y-53875000D01*
X125196800Y-53875000D02*
X125950000Y-53875000D01*
X125573908Y-41612684D02*
X125573908Y-42065884D01*
X124242220Y-51925000D02*
X125196800Y-51925000D01*
X125196800Y-51925000D02*
X125950000Y-51925000D01*
X125573908Y-42065884D02*
X123047336Y-44592456D01*
X123047336Y-50730116D02*
X124242220Y-51925000D01*
X123047336Y-44592456D02*
X123047336Y-50730116D01*
X125196800Y-52575000D02*
X125950000Y-52575000D01*
X122744125Y-44466862D02*
X122744125Y-50855710D01*
X122744125Y-50855710D02*
X124463415Y-52575000D01*
X123573908Y-43637079D02*
X122744125Y-44466862D01*
X124463415Y-52575000D02*
X125196800Y-52575000D01*
X123573908Y-41612684D02*
X123573908Y-43637079D01*
X121573908Y-41612684D02*
X121573908Y-56580422D01*
X123637311Y-55996994D02*
X124459305Y-55175000D01*
X121573908Y-56580422D02*
X122205419Y-57211933D01*
X122205419Y-57211933D02*
X122917025Y-57211933D01*
X122917025Y-57211933D02*
X123637311Y-56491647D01*
X123637311Y-56491647D02*
X123637311Y-55996994D01*
X124459305Y-55175000D02*
X125950000Y-55175000D01*
D32*
X140097600Y-48630000D02*
X140250000Y-48630000D01*
D30*
X128250000Y-47500000D02*
X128250000Y-49129000D01*
X128250000Y-49129000D02*
X126754000Y-50625000D01*
X126754000Y-50625000D02*
X125950000Y-50625000D01*
X88618987Y-64651013D02*
X88618987Y-82618987D01*
X89730000Y-63540000D02*
X88618987Y-64651013D01*
X89200001Y-83200001D02*
X89500000Y-83500000D01*
X88618987Y-82618987D02*
X89200001Y-83200001D01*
D29*
X90079999Y-63190001D02*
X89730000Y-63540000D01*
X90367325Y-62902675D02*
X90079999Y-63190001D01*
X91900193Y-62902675D02*
X90367325Y-62902675D01*
X107654607Y-86500000D02*
X104683020Y-83528413D01*
X104683020Y-83528413D02*
X104683020Y-75685502D01*
X121000000Y-86500000D02*
X107654607Y-86500000D01*
X122000000Y-84021800D02*
X122000000Y-85500000D01*
X104683020Y-75685502D02*
X91900193Y-62902675D01*
X125950000Y-80825000D02*
X125196800Y-80825000D01*
X125196800Y-80825000D02*
X122000000Y-84021800D01*
X122000000Y-85500000D02*
X121000000Y-86500000D01*
X131650000Y-80825000D02*
X132403200Y-80825000D01*
X132800000Y-81800000D02*
X133600000Y-82600000D01*
X133600000Y-82600000D02*
X133600000Y-84400000D01*
X133600000Y-84400000D02*
X132500000Y-85500000D01*
X121500000Y-87000000D02*
X107725803Y-87000000D01*
X107725803Y-87000000D02*
X104379809Y-83654006D01*
X104379809Y-83654006D02*
X104379809Y-75811096D01*
X92108713Y-63540000D02*
X91000000Y-63540000D01*
X132403200Y-80825000D02*
X132800000Y-81221800D01*
X132800000Y-81221800D02*
X132800000Y-81800000D01*
X132500000Y-85500000D02*
X123000000Y-85500000D01*
X123000000Y-85500000D02*
X121500000Y-87000000D01*
X104379809Y-75811096D02*
X92108713Y-63540000D01*
D30*
X131650000Y-80825000D02*
X131650000Y-80846602D01*
D29*
X103417965Y-78135332D02*
X92500000Y-67217368D01*
X90368963Y-64171037D02*
X90079999Y-64460001D01*
X107000000Y-111500000D02*
X103417965Y-107917965D01*
X92500000Y-65262058D02*
X91408979Y-64171037D01*
X121000000Y-111500000D02*
X107000000Y-111500000D01*
X125196800Y-105825000D02*
X122000000Y-109021800D01*
X91408979Y-64171037D02*
X90368963Y-64171037D01*
X103417965Y-107917965D02*
X103417965Y-78135332D01*
X92500000Y-67217368D02*
X92500000Y-65262058D01*
X125950000Y-105825000D02*
X125196800Y-105825000D01*
X90079999Y-64460001D02*
X89730000Y-64810000D01*
X122000000Y-109021800D02*
X122000000Y-110500000D01*
X122000000Y-110500000D02*
X121000000Y-111500000D01*
D30*
X88972998Y-65567002D02*
X88972998Y-81972998D01*
X89730000Y-64810000D02*
X88972998Y-65567002D01*
X89200001Y-82200001D02*
X89500000Y-82500000D01*
X88972998Y-81972998D02*
X89200001Y-82200001D01*
D29*
X121500000Y-112000000D02*
X107000000Y-112000000D01*
X133600000Y-109400000D02*
X132500000Y-110500000D01*
X133600000Y-107600000D02*
X133600000Y-109400000D01*
X103114754Y-108062984D02*
X103114754Y-78260926D01*
X107000000Y-111948230D02*
X103114754Y-108062984D01*
X123000000Y-110500000D02*
X121500000Y-112000000D01*
X132403200Y-105825000D02*
X132800000Y-106221800D01*
X131650000Y-105825000D02*
X132403200Y-105825000D01*
X132800000Y-106221800D02*
X132800000Y-106800000D01*
X132800000Y-106800000D02*
X133600000Y-107600000D01*
X132500000Y-110500000D02*
X123000000Y-110500000D01*
X91349999Y-65159999D02*
X91000000Y-64810000D01*
X107000000Y-112000000D02*
X107000000Y-111948230D01*
X103114754Y-78260926D02*
X92044295Y-67190467D01*
X92044295Y-67190467D02*
X92044295Y-65854295D01*
X92044295Y-65854295D02*
X91349999Y-65159999D01*
D30*
X92000000Y-86500000D02*
X92000000Y-88810000D01*
X92000000Y-88810000D02*
X91000000Y-89810000D01*
X131650000Y-105825000D02*
X131650000Y-105846602D01*
D29*
X131053200Y-88500000D02*
X132500000Y-89946800D01*
X132500000Y-89946800D02*
X132500000Y-90750000D01*
X130250000Y-88500000D02*
X131053200Y-88500000D01*
X131053200Y-113500000D02*
X132500000Y-114946800D01*
X132500000Y-114946800D02*
X132500000Y-115750000D01*
X130250000Y-113500000D02*
X131053200Y-113500000D01*
D30*
X125375000Y-73750000D02*
X125950000Y-74325000D01*
X124000000Y-73750000D02*
X125375000Y-73750000D01*
D32*
X124000000Y-73750000D02*
X124000000Y-74000000D01*
D30*
X124000000Y-75250000D02*
X124275000Y-74975000D01*
X124275000Y-74975000D02*
X125950000Y-74975000D01*
X125375000Y-98750000D02*
X125950000Y-99325000D01*
X124000000Y-98750000D02*
X125375000Y-98750000D01*
D32*
X124000000Y-98750000D02*
X124000000Y-99000000D01*
D30*
X124000000Y-100250000D02*
X124275000Y-99975000D01*
X124275000Y-99975000D02*
X125950000Y-99975000D01*
D32*
X140097600Y-73630000D02*
X140250000Y-73630000D01*
X140097600Y-98630000D02*
X140250000Y-98630000D01*
D29*
X123528200Y-78875000D02*
X125196800Y-78875000D01*
X125196800Y-78875000D02*
X125950000Y-78875000D01*
X123153200Y-79250000D02*
X123528200Y-78875000D01*
X122500000Y-79250000D02*
X123153200Y-79250000D01*
X123528200Y-103875000D02*
X125196800Y-103875000D01*
X125196800Y-103875000D02*
X125950000Y-103875000D01*
X123153200Y-104250000D02*
X123528200Y-103875000D01*
X122500000Y-104250000D02*
X123153200Y-104250000D01*
X131856336Y-87267659D02*
X131556337Y-86967660D01*
X133500000Y-87500000D02*
X132088677Y-87500000D01*
X132088677Y-87500000D02*
X131856336Y-87267659D01*
X125600000Y-81475000D02*
X123669484Y-83405516D01*
X123669484Y-83405516D02*
X123638419Y-83405516D01*
X125950000Y-81475000D02*
X125600000Y-81475000D01*
X132161732Y-112500000D02*
X131949174Y-112287442D01*
X131949174Y-112287442D02*
X131649175Y-111987443D01*
X133500000Y-112500000D02*
X132161732Y-112500000D01*
X125600000Y-106475000D02*
X123669484Y-108405516D01*
X123669484Y-108405516D02*
X123638419Y-108405516D01*
X125950000Y-106475000D02*
X125600000Y-106475000D01*
D30*
X128250000Y-74129000D02*
X126754000Y-75625000D01*
X126754000Y-75625000D02*
X125950000Y-75625000D01*
X128250000Y-72500000D02*
X128250000Y-74129000D01*
X128250000Y-99129000D02*
X126754000Y-100625000D01*
X126754000Y-100625000D02*
X125950000Y-100625000D01*
X128250000Y-97500000D02*
X128250000Y-99129000D01*
D29*
X125196800Y-76925000D02*
X125950000Y-76925000D01*
X124242220Y-76925000D02*
X125196800Y-76925000D01*
X123047336Y-75730116D02*
X124242220Y-76925000D01*
X123047336Y-69592456D02*
X123047336Y-75730116D01*
X125573908Y-67065884D02*
X123047336Y-69592456D01*
X125573908Y-66612684D02*
X125573908Y-67065884D01*
X123573908Y-68637079D02*
X122744125Y-69466862D01*
X123573908Y-66612684D02*
X123573908Y-68637079D01*
X122744125Y-69466862D02*
X122744125Y-75855710D01*
X122744125Y-75855710D02*
X124463415Y-77575000D01*
X125196800Y-77575000D02*
X125950000Y-77575000D01*
X124463415Y-77575000D02*
X125196800Y-77575000D01*
X121573908Y-66612684D02*
X121573908Y-81580422D01*
X121573908Y-81580422D02*
X122205419Y-82211933D01*
X122917025Y-82211933D02*
X123637311Y-81491647D01*
X123637311Y-80996994D02*
X124459305Y-80175000D01*
X122205419Y-82211933D02*
X122917025Y-82211933D01*
X123637311Y-81491647D02*
X123637311Y-80996994D01*
X124459305Y-80175000D02*
X125950000Y-80175000D01*
X125196800Y-101925000D02*
X125950000Y-101925000D01*
X124242220Y-101925000D02*
X125196800Y-101925000D01*
X123047336Y-100730116D02*
X124242220Y-101925000D01*
X123047336Y-94592456D02*
X123047336Y-100730116D01*
X125573908Y-92065884D02*
X123047336Y-94592456D01*
X125573908Y-91612684D02*
X125573908Y-92065884D01*
X123573908Y-93637079D02*
X122744125Y-94466862D01*
X123573908Y-91612684D02*
X123573908Y-93637079D01*
X122744125Y-94466862D02*
X122744125Y-100855710D01*
X122744125Y-100855710D02*
X124463415Y-102575000D01*
X125196800Y-102575000D02*
X125950000Y-102575000D01*
X124463415Y-102575000D02*
X125196800Y-102575000D01*
X121573908Y-91612684D02*
X121573908Y-106580422D01*
X121573908Y-106580422D02*
X122205419Y-107211933D01*
X122917025Y-107211933D02*
X123637311Y-106491647D01*
X123637311Y-105996994D02*
X124459305Y-105175000D01*
X122205419Y-107211933D02*
X122917025Y-107211933D01*
X123637311Y-106491647D02*
X123637311Y-105996994D01*
X124459305Y-105175000D02*
X125950000Y-105175000D01*
D10*
G36*
X134764645Y-54035355D02*
X134781185Y-54046325D01*
X134800000Y-54050000D01*
X136650000Y-54050000D01*
X136650000Y-55050000D01*
X134562132Y-55050000D01*
X134206066Y-54693934D01*
X134158358Y-54661818D01*
X134125969Y-54655259D01*
X133635355Y-54164645D01*
X133618815Y-54153675D01*
X133600000Y-54150000D01*
X133536452Y-54150000D01*
X133505237Y-54118731D01*
X133339903Y-54050078D01*
X133160882Y-54049922D01*
X132995428Y-54118286D01*
X132963659Y-54150000D01*
X132786452Y-54150000D01*
X132755237Y-54118731D01*
X132589903Y-54050078D01*
X132410882Y-54049922D01*
X132245428Y-54118286D01*
X132213659Y-54150000D01*
X131150000Y-54150000D01*
X131150000Y-53650000D01*
X134379290Y-53650000D01*
X134764645Y-54035355D01*
X134764645Y-54035355D01*
G37*
X134764645Y-54035355D02*
X134781185Y-54046325D01*
X134800000Y-54050000D01*
X136650000Y-54050000D01*
X136650000Y-55050000D01*
X134562132Y-55050000D01*
X134206066Y-54693934D01*
X134158358Y-54661818D01*
X134125969Y-54655259D01*
X133635355Y-54164645D01*
X133618815Y-54153675D01*
X133600000Y-54150000D01*
X133536452Y-54150000D01*
X133505237Y-54118731D01*
X133339903Y-54050078D01*
X133160882Y-54049922D01*
X132995428Y-54118286D01*
X132963659Y-54150000D01*
X132786452Y-54150000D01*
X132755237Y-54118731D01*
X132589903Y-54050078D01*
X132410882Y-54049922D01*
X132245428Y-54118286D01*
X132213659Y-54150000D01*
X131150000Y-54150000D01*
X131150000Y-53650000D01*
X134379290Y-53650000D01*
X134764645Y-54035355D01*
G36*
X136650000Y-51450000D02*
X134800000Y-51450000D01*
X134780547Y-51453939D01*
X134764645Y-51464645D01*
X134079290Y-52150000D01*
X131150000Y-52150000D01*
X131150000Y-51650000D01*
X132539872Y-51650000D01*
X132660097Y-51699922D01*
X132839118Y-51700078D01*
X132960316Y-51650000D01*
X133289872Y-51650000D01*
X133410097Y-51699922D01*
X133589118Y-51700078D01*
X133710316Y-51650000D01*
X133800000Y-51650000D01*
X133819453Y-51646061D01*
X133835355Y-51635355D01*
X134235355Y-51235355D01*
X134246325Y-51218815D01*
X134250000Y-51200000D01*
X134250000Y-50820710D01*
X134620710Y-50450000D01*
X136650000Y-50450000D01*
X136650000Y-51450000D01*
X136650000Y-51450000D01*
G37*
X136650000Y-51450000D02*
X134800000Y-51450000D01*
X134780547Y-51453939D01*
X134764645Y-51464645D01*
X134079290Y-52150000D01*
X131150000Y-52150000D01*
X131150000Y-51650000D01*
X132539872Y-51650000D01*
X132660097Y-51699922D01*
X132839118Y-51700078D01*
X132960316Y-51650000D01*
X133289872Y-51650000D01*
X133410097Y-51699922D01*
X133589118Y-51700078D01*
X133710316Y-51650000D01*
X133800000Y-51650000D01*
X133819453Y-51646061D01*
X133835355Y-51635355D01*
X134235355Y-51235355D01*
X134246325Y-51218815D01*
X134250000Y-51200000D01*
X134250000Y-50820710D01*
X134620710Y-50450000D01*
X136650000Y-50450000D01*
X136650000Y-51450000D01*
G36*
X141550000Y-50050000D02*
X137500000Y-50050000D01*
X137480547Y-50053939D01*
X137464645Y-50064645D01*
X137279290Y-50250000D01*
X134500000Y-50250000D01*
X134480547Y-50253939D01*
X134464645Y-50264645D01*
X133879290Y-50850000D01*
X133710128Y-50850000D01*
X133589903Y-50800078D01*
X133410882Y-50799922D01*
X133289684Y-50850000D01*
X132960128Y-50850000D01*
X132839903Y-50800078D01*
X132660882Y-50799922D01*
X132539684Y-50850000D01*
X131150000Y-50850000D01*
X131150000Y-50450000D01*
X132700000Y-50450000D01*
X132719453Y-50446061D01*
X132735355Y-50435355D01*
X133135355Y-50035355D01*
X133146325Y-50018815D01*
X133150000Y-50000000D01*
X133150000Y-49020710D01*
X133420710Y-48750000D01*
X137300000Y-48750000D01*
X137319453Y-48746061D01*
X137335355Y-48735355D01*
X138420710Y-47650000D01*
X141550000Y-47650000D01*
X141550000Y-50050000D01*
X141550000Y-50050000D01*
G37*
X141550000Y-50050000D02*
X137500000Y-50050000D01*
X137480547Y-50053939D01*
X137464645Y-50064645D01*
X137279290Y-50250000D01*
X134500000Y-50250000D01*
X134480547Y-50253939D01*
X134464645Y-50264645D01*
X133879290Y-50850000D01*
X133710128Y-50850000D01*
X133589903Y-50800078D01*
X133410882Y-50799922D01*
X133289684Y-50850000D01*
X132960128Y-50850000D01*
X132839903Y-50800078D01*
X132660882Y-50799922D01*
X132539684Y-50850000D01*
X131150000Y-50850000D01*
X131150000Y-50450000D01*
X132700000Y-50450000D01*
X132719453Y-50446061D01*
X132735355Y-50435355D01*
X133135355Y-50035355D01*
X133146325Y-50018815D01*
X133150000Y-50000000D01*
X133150000Y-49020710D01*
X133420710Y-48750000D01*
X137300000Y-48750000D01*
X137319453Y-48746061D01*
X137335355Y-48735355D01*
X138420710Y-47650000D01*
X141550000Y-47650000D01*
X141550000Y-50050000D01*
G36*
X141550000Y-52550000D02*
X135000000Y-52550000D01*
X134980547Y-52553939D01*
X134964645Y-52564645D01*
X134779290Y-52750000D01*
X131150000Y-52750000D01*
X131150000Y-52350000D01*
X134200000Y-52350000D01*
X134219453Y-52346061D01*
X134235355Y-52335355D01*
X134820710Y-51750000D01*
X137200000Y-51750000D01*
X137219453Y-51746061D01*
X137235355Y-51735355D01*
X138720710Y-50250000D01*
X141550000Y-50250000D01*
X141550000Y-52550000D01*
X141550000Y-52550000D01*
G37*
X141550000Y-52550000D02*
X135000000Y-52550000D01*
X134980547Y-52553939D01*
X134964645Y-52564645D01*
X134779290Y-52750000D01*
X131150000Y-52750000D01*
X131150000Y-52350000D01*
X134200000Y-52350000D01*
X134219453Y-52346061D01*
X134235355Y-52335355D01*
X134820710Y-51750000D01*
X137200000Y-51750000D01*
X137219453Y-51746061D01*
X137235355Y-51735355D01*
X138720710Y-50250000D01*
X141550000Y-50250000D01*
X141550000Y-52550000D01*
G36*
X141550000Y-55050000D02*
X138920710Y-55050000D01*
X138235355Y-54364645D01*
X138218815Y-54353675D01*
X138200000Y-54350000D01*
X137620710Y-54350000D01*
X136735355Y-53464645D01*
X136718815Y-53453675D01*
X136700000Y-53450000D01*
X131150000Y-53450000D01*
X131150000Y-52950000D01*
X135000000Y-52950000D01*
X135019453Y-52946061D01*
X135035355Y-52935355D01*
X135220710Y-52750000D01*
X141550000Y-52750000D01*
X141550000Y-55050000D01*
X141550000Y-55050000D01*
G37*
X141550000Y-55050000D02*
X138920710Y-55050000D01*
X138235355Y-54364645D01*
X138218815Y-54353675D01*
X138200000Y-54350000D01*
X137620710Y-54350000D01*
X136735355Y-53464645D01*
X136718815Y-53453675D01*
X136700000Y-53450000D01*
X131150000Y-53450000D01*
X131150000Y-52950000D01*
X135000000Y-52950000D01*
X135019453Y-52946061D01*
X135035355Y-52935355D01*
X135220710Y-52750000D01*
X141550000Y-52750000D01*
X141550000Y-55050000D01*
G36*
X132994763Y-54881269D02*
X133160097Y-54949922D01*
X133339118Y-54950078D01*
X133504572Y-54881714D01*
X133536341Y-54850000D01*
X134079290Y-54850000D01*
X134464645Y-55235355D01*
X134481185Y-55246325D01*
X134500000Y-55250000D01*
X141550000Y-55250000D01*
X141550000Y-57550000D01*
X137520710Y-57550000D01*
X137350000Y-57379290D01*
X137350000Y-57100000D01*
X137346061Y-57080547D01*
X137335355Y-57064645D01*
X137035355Y-56764645D01*
X137018815Y-56753675D01*
X137000000Y-56750000D01*
X133320710Y-56750000D01*
X133150000Y-56579290D01*
X133150000Y-55900000D01*
X133146061Y-55880547D01*
X133135355Y-55864645D01*
X132735355Y-55464645D01*
X132718815Y-55453675D01*
X132700000Y-55450000D01*
X131150000Y-55450000D01*
X131150000Y-54877938D01*
X132200000Y-54877938D01*
X132234885Y-54871374D01*
X132244763Y-54881269D01*
X132410097Y-54949922D01*
X132589118Y-54950078D01*
X132754572Y-54881714D01*
X132786341Y-54850000D01*
X132963548Y-54850000D01*
X132994763Y-54881269D01*
X132994763Y-54881269D01*
G37*
X132994763Y-54881269D02*
X133160097Y-54949922D01*
X133339118Y-54950078D01*
X133504572Y-54881714D01*
X133536341Y-54850000D01*
X134079290Y-54850000D01*
X134464645Y-55235355D01*
X134481185Y-55246325D01*
X134500000Y-55250000D01*
X141550000Y-55250000D01*
X141550000Y-57550000D01*
X137520710Y-57550000D01*
X137350000Y-57379290D01*
X137350000Y-57100000D01*
X137346061Y-57080547D01*
X137335355Y-57064645D01*
X137035355Y-56764645D01*
X137018815Y-56753675D01*
X137000000Y-56750000D01*
X133320710Y-56750000D01*
X133150000Y-56579290D01*
X133150000Y-55900000D01*
X133146061Y-55880547D01*
X133135355Y-55864645D01*
X132735355Y-55464645D01*
X132718815Y-55453675D01*
X132700000Y-55450000D01*
X131150000Y-55450000D01*
X131150000Y-54877938D01*
X132200000Y-54877938D01*
X132234885Y-54871374D01*
X132244763Y-54881269D01*
X132410097Y-54949922D01*
X132589118Y-54950078D01*
X132754572Y-54881714D01*
X132786341Y-54850000D01*
X132963548Y-54850000D01*
X132994763Y-54881269D01*
G36*
X120450000Y-52450000D02*
X115550000Y-52450000D01*
X115550000Y-48550000D01*
X120450000Y-48550000D01*
X120450000Y-52450000D01*
X120450000Y-52450000D01*
G37*
X120450000Y-52450000D02*
X115550000Y-52450000D01*
X115550000Y-48550000D01*
X120450000Y-48550000D01*
X120450000Y-52450000D01*
G36*
X110450000Y-52450000D02*
X105550000Y-52450000D01*
X105550000Y-48550000D01*
X110450000Y-48550000D01*
X110450000Y-52450000D01*
X110450000Y-52450000D01*
G37*
X110450000Y-52450000D02*
X105550000Y-52450000D01*
X105550000Y-48550000D01*
X110450000Y-48550000D01*
X110450000Y-52450000D01*
G36*
X141550000Y-75050000D02*
X137500000Y-75050000D01*
X137480547Y-75053939D01*
X137464645Y-75064645D01*
X137279290Y-75250000D01*
X134500000Y-75250000D01*
X134480547Y-75253939D01*
X134464645Y-75264645D01*
X133879290Y-75850000D01*
X133710128Y-75850000D01*
X133589903Y-75800078D01*
X133410882Y-75799922D01*
X133289684Y-75850000D01*
X132960128Y-75850000D01*
X132839903Y-75800078D01*
X132660882Y-75799922D01*
X132539684Y-75850000D01*
X131150000Y-75850000D01*
X131150000Y-75450000D01*
X132700000Y-75450000D01*
X132719453Y-75446061D01*
X132735355Y-75435355D01*
X133135355Y-75035355D01*
X133146325Y-75018815D01*
X133150000Y-75000000D01*
X133150000Y-74020710D01*
X133420710Y-73750000D01*
X137300000Y-73750000D01*
X137319453Y-73746061D01*
X137335355Y-73735355D01*
X138420710Y-72650000D01*
X141550000Y-72650000D01*
X141550000Y-75050000D01*
X141550000Y-75050000D01*
G37*
X141550000Y-75050000D02*
X137500000Y-75050000D01*
X137480547Y-75053939D01*
X137464645Y-75064645D01*
X137279290Y-75250000D01*
X134500000Y-75250000D01*
X134480547Y-75253939D01*
X134464645Y-75264645D01*
X133879290Y-75850000D01*
X133710128Y-75850000D01*
X133589903Y-75800078D01*
X133410882Y-75799922D01*
X133289684Y-75850000D01*
X132960128Y-75850000D01*
X132839903Y-75800078D01*
X132660882Y-75799922D01*
X132539684Y-75850000D01*
X131150000Y-75850000D01*
X131150000Y-75450000D01*
X132700000Y-75450000D01*
X132719453Y-75446061D01*
X132735355Y-75435355D01*
X133135355Y-75035355D01*
X133146325Y-75018815D01*
X133150000Y-75000000D01*
X133150000Y-74020710D01*
X133420710Y-73750000D01*
X137300000Y-73750000D01*
X137319453Y-73746061D01*
X137335355Y-73735355D01*
X138420710Y-72650000D01*
X141550000Y-72650000D01*
X141550000Y-75050000D01*
G36*
X136650000Y-76450000D02*
X134800000Y-76450000D01*
X134780547Y-76453939D01*
X134764645Y-76464645D01*
X134079290Y-77150000D01*
X131150000Y-77150000D01*
X131150000Y-76650000D01*
X132539872Y-76650000D01*
X132660097Y-76699922D01*
X132839118Y-76700078D01*
X132960316Y-76650000D01*
X133289872Y-76650000D01*
X133410097Y-76699922D01*
X133589118Y-76700078D01*
X133710316Y-76650000D01*
X133800000Y-76650000D01*
X133819453Y-76646061D01*
X133835355Y-76635355D01*
X134235355Y-76235355D01*
X134246325Y-76218815D01*
X134250000Y-76200000D01*
X134250000Y-75820710D01*
X134620710Y-75450000D01*
X136650000Y-75450000D01*
X136650000Y-76450000D01*
X136650000Y-76450000D01*
G37*
X136650000Y-76450000D02*
X134800000Y-76450000D01*
X134780547Y-76453939D01*
X134764645Y-76464645D01*
X134079290Y-77150000D01*
X131150000Y-77150000D01*
X131150000Y-76650000D01*
X132539872Y-76650000D01*
X132660097Y-76699922D01*
X132839118Y-76700078D01*
X132960316Y-76650000D01*
X133289872Y-76650000D01*
X133410097Y-76699922D01*
X133589118Y-76700078D01*
X133710316Y-76650000D01*
X133800000Y-76650000D01*
X133819453Y-76646061D01*
X133835355Y-76635355D01*
X134235355Y-76235355D01*
X134246325Y-76218815D01*
X134250000Y-76200000D01*
X134250000Y-75820710D01*
X134620710Y-75450000D01*
X136650000Y-75450000D01*
X136650000Y-76450000D01*
G36*
X141550000Y-80050000D02*
X138920710Y-80050000D01*
X138235355Y-79364645D01*
X138218815Y-79353675D01*
X138200000Y-79350000D01*
X137620710Y-79350000D01*
X136735355Y-78464645D01*
X136718815Y-78453675D01*
X136700000Y-78450000D01*
X131150000Y-78450000D01*
X131150000Y-77950000D01*
X135000000Y-77950000D01*
X135019453Y-77946061D01*
X135035355Y-77935355D01*
X135220710Y-77750000D01*
X141550000Y-77750000D01*
X141550000Y-80050000D01*
X141550000Y-80050000D01*
G37*
X141550000Y-80050000D02*
X138920710Y-80050000D01*
X138235355Y-79364645D01*
X138218815Y-79353675D01*
X138200000Y-79350000D01*
X137620710Y-79350000D01*
X136735355Y-78464645D01*
X136718815Y-78453675D01*
X136700000Y-78450000D01*
X131150000Y-78450000D01*
X131150000Y-77950000D01*
X135000000Y-77950000D01*
X135019453Y-77946061D01*
X135035355Y-77935355D01*
X135220710Y-77750000D01*
X141550000Y-77750000D01*
X141550000Y-80050000D01*
G36*
X141550000Y-77550000D02*
X135000000Y-77550000D01*
X134980547Y-77553939D01*
X134964645Y-77564645D01*
X134779290Y-77750000D01*
X131150000Y-77750000D01*
X131150000Y-77350000D01*
X134200000Y-77350000D01*
X134219453Y-77346061D01*
X134235355Y-77335355D01*
X134820710Y-76750000D01*
X137200000Y-76750000D01*
X137219453Y-76746061D01*
X137235355Y-76735355D01*
X138720710Y-75250000D01*
X141550000Y-75250000D01*
X141550000Y-77550000D01*
X141550000Y-77550000D01*
G37*
X141550000Y-77550000D02*
X135000000Y-77550000D01*
X134980547Y-77553939D01*
X134964645Y-77564645D01*
X134779290Y-77750000D01*
X131150000Y-77750000D01*
X131150000Y-77350000D01*
X134200000Y-77350000D01*
X134219453Y-77346061D01*
X134235355Y-77335355D01*
X134820710Y-76750000D01*
X137200000Y-76750000D01*
X137219453Y-76746061D01*
X137235355Y-76735355D01*
X138720710Y-75250000D01*
X141550000Y-75250000D01*
X141550000Y-77550000D01*
G36*
X132994763Y-79881269D02*
X133160097Y-79949922D01*
X133339118Y-79950078D01*
X133504572Y-79881714D01*
X133536341Y-79850000D01*
X134079290Y-79850000D01*
X134464645Y-80235355D01*
X134481185Y-80246325D01*
X134500000Y-80250000D01*
X141550000Y-80250000D01*
X141550000Y-82550000D01*
X137520710Y-82550000D01*
X137350000Y-82379290D01*
X137350000Y-82100000D01*
X137346061Y-82080547D01*
X137335355Y-82064645D01*
X137035355Y-81764645D01*
X137018815Y-81753675D01*
X137000000Y-81750000D01*
X133320710Y-81750000D01*
X133150000Y-81579290D01*
X133150000Y-80900000D01*
X133146061Y-80880547D01*
X133135355Y-80864645D01*
X132735355Y-80464645D01*
X132718815Y-80453675D01*
X132700000Y-80450000D01*
X131150000Y-80450000D01*
X131150000Y-79877938D01*
X132200000Y-79877938D01*
X132234885Y-79871374D01*
X132244763Y-79881269D01*
X132410097Y-79949922D01*
X132589118Y-79950078D01*
X132754572Y-79881714D01*
X132786341Y-79850000D01*
X132963548Y-79850000D01*
X132994763Y-79881269D01*
X132994763Y-79881269D01*
G37*
X132994763Y-79881269D02*
X133160097Y-79949922D01*
X133339118Y-79950078D01*
X133504572Y-79881714D01*
X133536341Y-79850000D01*
X134079290Y-79850000D01*
X134464645Y-80235355D01*
X134481185Y-80246325D01*
X134500000Y-80250000D01*
X141550000Y-80250000D01*
X141550000Y-82550000D01*
X137520710Y-82550000D01*
X137350000Y-82379290D01*
X137350000Y-82100000D01*
X137346061Y-82080547D01*
X137335355Y-82064645D01*
X137035355Y-81764645D01*
X137018815Y-81753675D01*
X137000000Y-81750000D01*
X133320710Y-81750000D01*
X133150000Y-81579290D01*
X133150000Y-80900000D01*
X133146061Y-80880547D01*
X133135355Y-80864645D01*
X132735355Y-80464645D01*
X132718815Y-80453675D01*
X132700000Y-80450000D01*
X131150000Y-80450000D01*
X131150000Y-79877938D01*
X132200000Y-79877938D01*
X132234885Y-79871374D01*
X132244763Y-79881269D01*
X132410097Y-79949922D01*
X132589118Y-79950078D01*
X132754572Y-79881714D01*
X132786341Y-79850000D01*
X132963548Y-79850000D01*
X132994763Y-79881269D01*
G36*
X134764645Y-79035355D02*
X134781185Y-79046325D01*
X134800000Y-79050000D01*
X136650000Y-79050000D01*
X136650000Y-80050000D01*
X134562132Y-80050000D01*
X134206066Y-79693934D01*
X134158358Y-79661818D01*
X134125969Y-79655259D01*
X133635355Y-79164645D01*
X133618815Y-79153675D01*
X133600000Y-79150000D01*
X133536452Y-79150000D01*
X133505237Y-79118731D01*
X133339903Y-79050078D01*
X133160882Y-79049922D01*
X132995428Y-79118286D01*
X132963659Y-79150000D01*
X132786452Y-79150000D01*
X132755237Y-79118731D01*
X132589903Y-79050078D01*
X132410882Y-79049922D01*
X132245428Y-79118286D01*
X132213659Y-79150000D01*
X131150000Y-79150000D01*
X131150000Y-78650000D01*
X134379290Y-78650000D01*
X134764645Y-79035355D01*
X134764645Y-79035355D01*
G37*
X134764645Y-79035355D02*
X134781185Y-79046325D01*
X134800000Y-79050000D01*
X136650000Y-79050000D01*
X136650000Y-80050000D01*
X134562132Y-80050000D01*
X134206066Y-79693934D01*
X134158358Y-79661818D01*
X134125969Y-79655259D01*
X133635355Y-79164645D01*
X133618815Y-79153675D01*
X133600000Y-79150000D01*
X133536452Y-79150000D01*
X133505237Y-79118731D01*
X133339903Y-79050078D01*
X133160882Y-79049922D01*
X132995428Y-79118286D01*
X132963659Y-79150000D01*
X132786452Y-79150000D01*
X132755237Y-79118731D01*
X132589903Y-79050078D01*
X132410882Y-79049922D01*
X132245428Y-79118286D01*
X132213659Y-79150000D01*
X131150000Y-79150000D01*
X131150000Y-78650000D01*
X134379290Y-78650000D01*
X134764645Y-79035355D01*
G36*
X120450000Y-77450000D02*
X115550000Y-77450000D01*
X115550000Y-73550000D01*
X120450000Y-73550000D01*
X120450000Y-77450000D01*
X120450000Y-77450000D01*
G37*
X120450000Y-77450000D02*
X115550000Y-77450000D01*
X115550000Y-73550000D01*
X120450000Y-73550000D01*
X120450000Y-77450000D01*
G36*
X110450000Y-77450000D02*
X105550000Y-77450000D01*
X105550000Y-73550000D01*
X110450000Y-73550000D01*
X110450000Y-77450000D01*
X110450000Y-77450000D01*
G37*
X110450000Y-77450000D02*
X105550000Y-77450000D01*
X105550000Y-73550000D01*
X110450000Y-73550000D01*
X110450000Y-77450000D01*
G36*
X141550000Y-100050000D02*
X137500000Y-100050000D01*
X137480547Y-100053939D01*
X137464645Y-100064645D01*
X137279290Y-100250000D01*
X134500000Y-100250000D01*
X134480547Y-100253939D01*
X134464645Y-100264645D01*
X133879290Y-100850000D01*
X133710128Y-100850000D01*
X133589903Y-100800078D01*
X133410882Y-100799922D01*
X133289684Y-100850000D01*
X132960128Y-100850000D01*
X132839903Y-100800078D01*
X132660882Y-100799922D01*
X132539684Y-100850000D01*
X131150000Y-100850000D01*
X131150000Y-100450000D01*
X132700000Y-100450000D01*
X132719453Y-100446061D01*
X132735355Y-100435355D01*
X133135355Y-100035355D01*
X133146325Y-100018815D01*
X133150000Y-100000000D01*
X133150000Y-99020710D01*
X133420710Y-98750000D01*
X137300000Y-98750000D01*
X137319453Y-98746061D01*
X137335355Y-98735355D01*
X138420710Y-97650000D01*
X141550000Y-97650000D01*
X141550000Y-100050000D01*
X141550000Y-100050000D01*
G37*
X141550000Y-100050000D02*
X137500000Y-100050000D01*
X137480547Y-100053939D01*
X137464645Y-100064645D01*
X137279290Y-100250000D01*
X134500000Y-100250000D01*
X134480547Y-100253939D01*
X134464645Y-100264645D01*
X133879290Y-100850000D01*
X133710128Y-100850000D01*
X133589903Y-100800078D01*
X133410882Y-100799922D01*
X133289684Y-100850000D01*
X132960128Y-100850000D01*
X132839903Y-100800078D01*
X132660882Y-100799922D01*
X132539684Y-100850000D01*
X131150000Y-100850000D01*
X131150000Y-100450000D01*
X132700000Y-100450000D01*
X132719453Y-100446061D01*
X132735355Y-100435355D01*
X133135355Y-100035355D01*
X133146325Y-100018815D01*
X133150000Y-100000000D01*
X133150000Y-99020710D01*
X133420710Y-98750000D01*
X137300000Y-98750000D01*
X137319453Y-98746061D01*
X137335355Y-98735355D01*
X138420710Y-97650000D01*
X141550000Y-97650000D01*
X141550000Y-100050000D01*
G36*
X136650000Y-101450000D02*
X134800000Y-101450000D01*
X134780547Y-101453939D01*
X134764645Y-101464645D01*
X134079290Y-102150000D01*
X131150000Y-102150000D01*
X131150000Y-101650000D01*
X132539872Y-101650000D01*
X132660097Y-101699922D01*
X132839118Y-101700078D01*
X132960316Y-101650000D01*
X133289872Y-101650000D01*
X133410097Y-101699922D01*
X133589118Y-101700078D01*
X133710316Y-101650000D01*
X133800000Y-101650000D01*
X133819453Y-101646061D01*
X133835355Y-101635355D01*
X134235355Y-101235355D01*
X134246325Y-101218815D01*
X134250000Y-101200000D01*
X134250000Y-100820710D01*
X134620710Y-100450000D01*
X136650000Y-100450000D01*
X136650000Y-101450000D01*
X136650000Y-101450000D01*
G37*
X136650000Y-101450000D02*
X134800000Y-101450000D01*
X134780547Y-101453939D01*
X134764645Y-101464645D01*
X134079290Y-102150000D01*
X131150000Y-102150000D01*
X131150000Y-101650000D01*
X132539872Y-101650000D01*
X132660097Y-101699922D01*
X132839118Y-101700078D01*
X132960316Y-101650000D01*
X133289872Y-101650000D01*
X133410097Y-101699922D01*
X133589118Y-101700078D01*
X133710316Y-101650000D01*
X133800000Y-101650000D01*
X133819453Y-101646061D01*
X133835355Y-101635355D01*
X134235355Y-101235355D01*
X134246325Y-101218815D01*
X134250000Y-101200000D01*
X134250000Y-100820710D01*
X134620710Y-100450000D01*
X136650000Y-100450000D01*
X136650000Y-101450000D01*
G36*
X141550000Y-105050000D02*
X138920710Y-105050000D01*
X138235355Y-104364645D01*
X138218815Y-104353675D01*
X138200000Y-104350000D01*
X137620710Y-104350000D01*
X136735355Y-103464645D01*
X136718815Y-103453675D01*
X136700000Y-103450000D01*
X131150000Y-103450000D01*
X131150000Y-102950000D01*
X135000000Y-102950000D01*
X135019453Y-102946061D01*
X135035355Y-102935355D01*
X135220710Y-102750000D01*
X141550000Y-102750000D01*
X141550000Y-105050000D01*
X141550000Y-105050000D01*
G37*
X141550000Y-105050000D02*
X138920710Y-105050000D01*
X138235355Y-104364645D01*
X138218815Y-104353675D01*
X138200000Y-104350000D01*
X137620710Y-104350000D01*
X136735355Y-103464645D01*
X136718815Y-103453675D01*
X136700000Y-103450000D01*
X131150000Y-103450000D01*
X131150000Y-102950000D01*
X135000000Y-102950000D01*
X135019453Y-102946061D01*
X135035355Y-102935355D01*
X135220710Y-102750000D01*
X141550000Y-102750000D01*
X141550000Y-105050000D01*
G36*
X141550000Y-102550000D02*
X135000000Y-102550000D01*
X134980547Y-102553939D01*
X134964645Y-102564645D01*
X134779290Y-102750000D01*
X131150000Y-102750000D01*
X131150000Y-102350000D01*
X134200000Y-102350000D01*
X134219453Y-102346061D01*
X134235355Y-102335355D01*
X134820710Y-101750000D01*
X137200000Y-101750000D01*
X137219453Y-101746061D01*
X137235355Y-101735355D01*
X138720710Y-100250000D01*
X141550000Y-100250000D01*
X141550000Y-102550000D01*
X141550000Y-102550000D01*
G37*
X141550000Y-102550000D02*
X135000000Y-102550000D01*
X134980547Y-102553939D01*
X134964645Y-102564645D01*
X134779290Y-102750000D01*
X131150000Y-102750000D01*
X131150000Y-102350000D01*
X134200000Y-102350000D01*
X134219453Y-102346061D01*
X134235355Y-102335355D01*
X134820710Y-101750000D01*
X137200000Y-101750000D01*
X137219453Y-101746061D01*
X137235355Y-101735355D01*
X138720710Y-100250000D01*
X141550000Y-100250000D01*
X141550000Y-102550000D01*
G36*
X132994763Y-104881269D02*
X133160097Y-104949922D01*
X133339118Y-104950078D01*
X133504572Y-104881714D01*
X133536341Y-104850000D01*
X134079290Y-104850000D01*
X134464645Y-105235355D01*
X134481185Y-105246325D01*
X134500000Y-105250000D01*
X141550000Y-105250000D01*
X141550000Y-107550000D01*
X137520710Y-107550000D01*
X137350000Y-107379290D01*
X137350000Y-107100000D01*
X137346061Y-107080547D01*
X137335355Y-107064645D01*
X137035355Y-106764645D01*
X137018815Y-106753675D01*
X137000000Y-106750000D01*
X133320710Y-106750000D01*
X133150000Y-106579290D01*
X133150000Y-105900000D01*
X133146061Y-105880547D01*
X133135355Y-105864645D01*
X132735355Y-105464645D01*
X132718815Y-105453675D01*
X132700000Y-105450000D01*
X131150000Y-105450000D01*
X131150000Y-104877938D01*
X132200000Y-104877938D01*
X132234885Y-104871374D01*
X132244763Y-104881269D01*
X132410097Y-104949922D01*
X132589118Y-104950078D01*
X132754572Y-104881714D01*
X132786341Y-104850000D01*
X132963548Y-104850000D01*
X132994763Y-104881269D01*
X132994763Y-104881269D01*
G37*
X132994763Y-104881269D02*
X133160097Y-104949922D01*
X133339118Y-104950078D01*
X133504572Y-104881714D01*
X133536341Y-104850000D01*
X134079290Y-104850000D01*
X134464645Y-105235355D01*
X134481185Y-105246325D01*
X134500000Y-105250000D01*
X141550000Y-105250000D01*
X141550000Y-107550000D01*
X137520710Y-107550000D01*
X137350000Y-107379290D01*
X137350000Y-107100000D01*
X137346061Y-107080547D01*
X137335355Y-107064645D01*
X137035355Y-106764645D01*
X137018815Y-106753675D01*
X137000000Y-106750000D01*
X133320710Y-106750000D01*
X133150000Y-106579290D01*
X133150000Y-105900000D01*
X133146061Y-105880547D01*
X133135355Y-105864645D01*
X132735355Y-105464645D01*
X132718815Y-105453675D01*
X132700000Y-105450000D01*
X131150000Y-105450000D01*
X131150000Y-104877938D01*
X132200000Y-104877938D01*
X132234885Y-104871374D01*
X132244763Y-104881269D01*
X132410097Y-104949922D01*
X132589118Y-104950078D01*
X132754572Y-104881714D01*
X132786341Y-104850000D01*
X132963548Y-104850000D01*
X132994763Y-104881269D01*
G36*
X134764645Y-104035355D02*
X134781185Y-104046325D01*
X134800000Y-104050000D01*
X136650000Y-104050000D01*
X136650000Y-105050000D01*
X134562132Y-105050000D01*
X134206066Y-104693934D01*
X134158358Y-104661818D01*
X134125969Y-104655259D01*
X133635355Y-104164645D01*
X133618815Y-104153675D01*
X133600000Y-104150000D01*
X133536452Y-104150000D01*
X133505237Y-104118731D01*
X133339903Y-104050078D01*
X133160882Y-104049922D01*
X132995428Y-104118286D01*
X132963659Y-104150000D01*
X132786452Y-104150000D01*
X132755237Y-104118731D01*
X132589903Y-104050078D01*
X132410882Y-104049922D01*
X132245428Y-104118286D01*
X132213659Y-104150000D01*
X131150000Y-104150000D01*
X131150000Y-103650000D01*
X134379290Y-103650000D01*
X134764645Y-104035355D01*
X134764645Y-104035355D01*
G37*
X134764645Y-104035355D02*
X134781185Y-104046325D01*
X134800000Y-104050000D01*
X136650000Y-104050000D01*
X136650000Y-105050000D01*
X134562132Y-105050000D01*
X134206066Y-104693934D01*
X134158358Y-104661818D01*
X134125969Y-104655259D01*
X133635355Y-104164645D01*
X133618815Y-104153675D01*
X133600000Y-104150000D01*
X133536452Y-104150000D01*
X133505237Y-104118731D01*
X133339903Y-104050078D01*
X133160882Y-104049922D01*
X132995428Y-104118286D01*
X132963659Y-104150000D01*
X132786452Y-104150000D01*
X132755237Y-104118731D01*
X132589903Y-104050078D01*
X132410882Y-104049922D01*
X132245428Y-104118286D01*
X132213659Y-104150000D01*
X131150000Y-104150000D01*
X131150000Y-103650000D01*
X134379290Y-103650000D01*
X134764645Y-104035355D01*
G36*
X120450000Y-102450000D02*
X115550000Y-102450000D01*
X115550000Y-98550000D01*
X120450000Y-98550000D01*
X120450000Y-102450000D01*
X120450000Y-102450000D01*
G37*
X120450000Y-102450000D02*
X115550000Y-102450000D01*
X115550000Y-98550000D01*
X120450000Y-98550000D01*
X120450000Y-102450000D01*
G36*
X110450000Y-102450000D02*
X105550000Y-102450000D01*
X105550000Y-98550000D01*
X110450000Y-98550000D01*
X110450000Y-102450000D01*
X110450000Y-102450000D01*
G37*
X110450000Y-102450000D02*
X105550000Y-102450000D01*
X105550000Y-98550000D01*
X110450000Y-98550000D01*
X110450000Y-102450000D01*
M02*
