G04 #@! TF.FileFunction,Soldermask,Top*
%FSLAX46Y46*%
G04 Gerber Fmt 4.6, Leading zero omitted, Abs format (unit mm)*
G04 Created by KiCad (PCBNEW (2015-12-07 BZR 6352)-product) date Sun 16 Jul 2017 10:51:14 AM EDT*
%MOMM*%
G01*
G04 APERTURE LIST*
%ADD10C,0.100000*%
%ADD11R,4.400500X2.000200*%
%ADD12R,1.300000X0.900000*%
%ADD13R,1.150000X1.200000*%
%ADD14R,1.200000X1.150000*%
%ADD15R,1.600000X1.600000*%
%ADD16R,2.000000X1.900000*%
%ADD17R,0.900000X1.300000*%
%ADD18R,2.100000X1.300000*%
%ADD19R,1.500000X0.800000*%
%ADD20R,3.400000X4.720000*%
%ADD21R,2.432000X2.127200*%
%ADD22O,2.432000X2.127200*%
%ADD23C,1.100000*%
%ADD24C,4.400000*%
%ADD25C,5.400000*%
%ADD26C,2.800000*%
%ADD27R,2.800000X2.800000*%
G04 APERTURE END LIST*
D10*
D11*
X116050540Y-95500000D03*
X109949460Y-95500000D03*
X116050540Y-70500000D03*
X109949460Y-70500000D03*
D12*
X123573908Y-90112684D03*
X123573908Y-91612684D03*
X121573908Y-90112684D03*
X121573908Y-91612684D03*
D13*
X124000000Y-98750000D03*
X124000000Y-100250000D03*
D12*
X125573908Y-90112684D03*
X125573908Y-91612684D03*
D14*
X129750000Y-97500000D03*
X128250000Y-97500000D03*
D11*
X116050540Y-105500000D03*
X109949460Y-105500000D03*
D15*
X132500000Y-115750000D03*
D16*
X133500000Y-112500000D03*
D15*
X134500000Y-115750000D03*
D17*
X128750000Y-113500000D03*
X130250000Y-113500000D03*
D12*
X122500000Y-104250000D03*
X122500000Y-105750000D03*
D14*
X132250000Y-108000000D03*
X130750000Y-108000000D03*
D18*
X135750000Y-98050000D03*
X135750000Y-100950000D03*
X135750000Y-107450000D03*
X135750000Y-104550000D03*
D19*
X125950000Y-99325000D03*
X125950000Y-99975000D03*
X125950000Y-100625000D03*
X125950000Y-101275000D03*
X125950000Y-101925000D03*
X125950000Y-102575000D03*
X125950000Y-103225000D03*
X125950000Y-103875000D03*
X125950000Y-104525000D03*
X125950000Y-105175000D03*
X125950000Y-105825000D03*
X125950000Y-106475000D03*
X131650000Y-106475000D03*
X131650000Y-105825000D03*
X131650000Y-105175000D03*
X131650000Y-104525000D03*
X131650000Y-103875000D03*
X131650000Y-103225000D03*
X131650000Y-102575000D03*
X131650000Y-101925000D03*
X131650000Y-101275000D03*
X131650000Y-100625000D03*
X131650000Y-99975000D03*
X131650000Y-99325000D03*
D20*
X128800000Y-102900000D03*
D21*
X140250000Y-106435000D03*
D22*
X140250000Y-103895000D03*
X140250000Y-101355000D03*
X140250000Y-98815000D03*
D12*
X123573908Y-65112684D03*
X123573908Y-66612684D03*
X121573908Y-65112684D03*
X121573908Y-66612684D03*
D13*
X124000000Y-73750000D03*
X124000000Y-75250000D03*
D12*
X125573908Y-65112684D03*
X125573908Y-66612684D03*
D14*
X129750000Y-72500000D03*
X128250000Y-72500000D03*
D11*
X116050540Y-80500000D03*
X109949460Y-80500000D03*
D15*
X132500000Y-90750000D03*
D16*
X133500000Y-87500000D03*
D15*
X134500000Y-90750000D03*
D17*
X128750000Y-88500000D03*
X130250000Y-88500000D03*
D12*
X122500000Y-79250000D03*
X122500000Y-80750000D03*
D14*
X132250000Y-83000000D03*
X130750000Y-83000000D03*
D18*
X135750000Y-73050000D03*
X135750000Y-75950000D03*
X135750000Y-82450000D03*
X135750000Y-79550000D03*
D19*
X125950000Y-74325000D03*
X125950000Y-74975000D03*
X125950000Y-75625000D03*
X125950000Y-76275000D03*
X125950000Y-76925000D03*
X125950000Y-77575000D03*
X125950000Y-78225000D03*
X125950000Y-78875000D03*
X125950000Y-79525000D03*
X125950000Y-80175000D03*
X125950000Y-80825000D03*
X125950000Y-81475000D03*
X131650000Y-81475000D03*
X131650000Y-80825000D03*
X131650000Y-80175000D03*
X131650000Y-79525000D03*
X131650000Y-78875000D03*
X131650000Y-78225000D03*
X131650000Y-77575000D03*
X131650000Y-76925000D03*
X131650000Y-76275000D03*
X131650000Y-75625000D03*
X131650000Y-74975000D03*
X131650000Y-74325000D03*
D20*
X128800000Y-77900000D03*
D21*
X140250000Y-81435000D03*
D22*
X140250000Y-78895000D03*
X140250000Y-76355000D03*
X140250000Y-73815000D03*
D19*
X125950000Y-49325000D03*
X125950000Y-49975000D03*
X125950000Y-50625000D03*
X125950000Y-51275000D03*
X125950000Y-51925000D03*
X125950000Y-52575000D03*
X125950000Y-53225000D03*
X125950000Y-53875000D03*
X125950000Y-54525000D03*
X125950000Y-55175000D03*
X125950000Y-55825000D03*
X125950000Y-56475000D03*
X131650000Y-56475000D03*
X131650000Y-55825000D03*
X131650000Y-55175000D03*
X131650000Y-54525000D03*
X131650000Y-53875000D03*
X131650000Y-53225000D03*
X131650000Y-52575000D03*
X131650000Y-51925000D03*
X131650000Y-51275000D03*
X131650000Y-50625000D03*
X131650000Y-49975000D03*
X131650000Y-49325000D03*
D20*
X128800000Y-52900000D03*
D13*
X124000000Y-48750000D03*
X124000000Y-50250000D03*
D14*
X132250000Y-58000000D03*
X130750000Y-58000000D03*
X129750000Y-47500000D03*
X128250000Y-47500000D03*
D12*
X122500000Y-54250000D03*
X122500000Y-55750000D03*
X125573908Y-40112684D03*
X125573908Y-41612684D03*
X123573908Y-40112684D03*
X123573908Y-41612684D03*
X121573908Y-40112684D03*
X121573908Y-41612684D03*
D18*
X135750000Y-57450000D03*
X135750000Y-54550000D03*
X135750000Y-48050000D03*
X135750000Y-50950000D03*
D17*
X128750000Y-63500000D03*
X130250000Y-63500000D03*
D15*
X132500000Y-65750000D03*
D16*
X133500000Y-62500000D03*
D15*
X134500000Y-65750000D03*
D11*
X116050540Y-45500000D03*
X109949460Y-45500000D03*
X116050540Y-55500000D03*
X109949460Y-55500000D03*
D21*
X140250000Y-56435000D03*
D22*
X140250000Y-53895000D03*
X140250000Y-51355000D03*
X140250000Y-48815000D03*
D23*
X89730000Y-86000000D03*
X91000000Y-86000000D03*
X89730000Y-87270000D03*
X91000000Y-87270000D03*
X89730000Y-88540000D03*
X91000000Y-88540000D03*
X89730000Y-89810000D03*
X91000000Y-89810000D03*
X89730000Y-91080000D03*
X91000000Y-91080000D03*
X89730000Y-61000000D03*
X91000000Y-61000000D03*
X89730000Y-62270000D03*
X91000000Y-62270000D03*
X89730000Y-63540000D03*
X91000000Y-63540000D03*
X89730000Y-64810000D03*
X91000000Y-64810000D03*
X89730000Y-66080000D03*
X91000000Y-66080000D03*
D24*
X96000000Y-106000000D03*
X156000000Y-106000000D03*
X156000000Y-46000000D03*
X96000000Y-46000000D03*
D25*
X86000000Y-116000000D03*
X86000000Y-36000000D03*
X166000000Y-36000000D03*
X166000000Y-116000000D03*
D26*
X95500000Y-77500000D03*
D27*
X95500000Y-74000000D03*
M02*
