M48
;DRILL file {KiCad (2015-12-07 BZR 6352)-product} date Sun 16 Jul 2017 10:51:12 AM EDT
;FORMAT={-:-/ absolute / metric / decimal}
FMAT,2
METRIC,TZ
T1C0.400
T2C0.500
T3C1.016
T4C1.200
T5C3.000
T6C3.000
%
G90
G05
M71
T1
X89.5Y-81.5
X89.5Y-82.5
X89.5Y-83.5
X92.Y-60.
X92.Y-86.5
X93.5Y-63.
X93.973Y-67.438
X94.746Y-68.754
X95.Y-63.5
X106.5Y-49.5
X106.5Y-50.5
X106.5Y-51.5
X106.5Y-74.5
X106.5Y-75.5
X106.5Y-76.5
X106.5Y-99.5
X106.5Y-100.5
X106.5Y-101.5
X107.5Y-49.5
X107.5Y-50.5
X107.5Y-51.5
X107.5Y-74.5
X107.5Y-75.5
X107.5Y-76.5
X107.5Y-99.5
X107.5Y-100.5
X107.5Y-101.5
X108.5Y-49.5
X108.5Y-50.5
X108.5Y-51.5
X108.5Y-74.5
X108.5Y-75.5
X108.5Y-76.5
X108.5Y-99.5
X108.5Y-100.5
X108.5Y-101.5
X117.5Y-49.5
X117.5Y-50.5
X117.5Y-51.5
X117.5Y-60.5
X117.5Y-74.5
X117.5Y-75.5
X117.5Y-76.5
X117.5Y-85.5
X117.5Y-85.5
X117.5Y-99.5
X117.5Y-100.5
X117.5Y-101.5
X117.5Y-110.5
X117.5Y-110.5
X118.5Y-49.5
X118.5Y-50.5
X118.5Y-51.5
X118.5Y-74.5
X118.5Y-75.5
X118.5Y-76.5
X118.5Y-99.5
X118.5Y-100.5
X118.5Y-101.5
X119.5Y-49.5
X119.5Y-50.5
X119.5Y-51.5
X119.5Y-74.5
X119.5Y-75.5
X119.5Y-76.5
X119.5Y-99.5
X119.5Y-100.5
X119.5Y-101.5
X122.5Y-56.5
X122.5Y-81.5
X122.5Y-106.5
X123.638Y-58.406
X123.638Y-83.406
X123.638Y-108.406
X123.877Y-59.533
X123.877Y-84.533
X123.877Y-109.533
X127.8Y-51.9
X127.8Y-52.9
X127.8Y-53.9
X127.8Y-76.9
X127.8Y-77.9
X127.8Y-78.9
X127.8Y-101.9
X127.8Y-102.9
X127.8Y-103.9
X128.8Y-51.9
X128.8Y-52.9
X128.8Y-53.9
X128.8Y-76.9
X128.8Y-77.9
X128.8Y-78.9
X128.8Y-101.9
X128.8Y-102.9
X128.8Y-103.9
X129.Y-62.002
X129.Y-87.002
X129.Y-112.002
X129.75Y-46.5
X129.75Y-71.5
X129.75Y-96.5
X129.8Y-51.9
X129.8Y-52.9
X129.8Y-53.9
X129.8Y-76.9
X129.8Y-77.9
X129.8Y-78.9
X129.8Y-101.9
X129.8Y-102.9
X129.8Y-103.9
X130.75Y-47.5
X130.75Y-72.5
X130.75Y-97.5
X131.479Y-61.901
X131.556Y-86.968
X131.649Y-111.987
X132.25Y-58.75
X132.25Y-83.75
X132.25Y-108.75
X132.5Y-54.5
X132.5Y-79.5
X132.5Y-104.5
X132.75Y-51.25
X132.75Y-76.25
X132.75Y-101.25
X133.Y-58.
X133.Y-83.
X133.Y-108.
X133.25Y-54.5
X133.25Y-79.5
X133.25Y-104.5
X133.5Y-51.25
X133.5Y-61.
X133.5Y-76.25
X133.5Y-86.
X133.5Y-101.25
X133.5Y-111.
X133.835Y-47.859
X133.835Y-72.859
X133.835Y-97.859
X135.5Y-58.75
X135.5Y-83.75
X135.5Y-108.75
X136.Y-65.5
X136.Y-90.5
X136.Y-115.5
T2
X89.73Y-61.
X89.73Y-62.27
X89.73Y-63.54
X89.73Y-64.81
X89.73Y-66.08
X89.73Y-86.
X89.73Y-87.27
X89.73Y-88.54
X89.73Y-89.81
X89.73Y-91.08
X91.Y-61.
X91.Y-62.27
X91.Y-63.54
X91.Y-64.81
X91.Y-66.08
X91.Y-86.
X91.Y-87.27
X91.Y-88.54
X91.Y-89.81
X91.Y-91.08
T3
X140.25Y-48.815
X140.25Y-51.355
X140.25Y-53.895
X140.25Y-56.435
X140.25Y-73.815
X140.25Y-76.355
X140.25Y-78.895
X140.25Y-81.435
X140.25Y-98.815
X140.25Y-101.355
X140.25Y-103.895
X140.25Y-106.435
T4
X95.5Y-74.
X95.5Y-77.5
T5
X86.Y-36.
X86.Y-116.
X166.Y-36.
X166.Y-116.
T6
X96.Y-46.
X96.Y-106.
X156.Y-46.
X156.Y-106.
T0
M30
