G04 #@! TF.FileFunction,Other,Fab,Top*
%FSLAX46Y46*%
G04 Gerber Fmt 4.6, Leading zero omitted, Abs format (unit mm)*
G04 Created by KiCad (PCBNEW (2015-12-07 BZR 6352)-product) date Sun 16 Jul 2017 10:51:14 AM EDT*
%MOMM*%
G01*
G04 APERTURE LIST*
%ADD10C,0.100000*%
%ADD11C,0.150000*%
G04 APERTURE END LIST*
D10*
D11*
X112809524Y-101191143D02*
X112761905Y-101238762D01*
X112619048Y-101286381D01*
X112523810Y-101286381D01*
X112380952Y-101238762D01*
X112285714Y-101143524D01*
X112238095Y-101048286D01*
X112190476Y-100857810D01*
X112190476Y-100714952D01*
X112238095Y-100524476D01*
X112285714Y-100429238D01*
X112380952Y-100334000D01*
X112523810Y-100286381D01*
X112619048Y-100286381D01*
X112761905Y-100334000D01*
X112809524Y-100381619D01*
X113238095Y-101286381D02*
X113238095Y-100286381D01*
X113619048Y-100286381D01*
X113714286Y-100334000D01*
X113761905Y-100381619D01*
X113809524Y-100476857D01*
X113809524Y-100619714D01*
X113761905Y-100714952D01*
X113714286Y-100762571D01*
X113619048Y-100810190D01*
X113238095Y-100810190D01*
X112809524Y-76191143D02*
X112761905Y-76238762D01*
X112619048Y-76286381D01*
X112523810Y-76286381D01*
X112380952Y-76238762D01*
X112285714Y-76143524D01*
X112238095Y-76048286D01*
X112190476Y-75857810D01*
X112190476Y-75714952D01*
X112238095Y-75524476D01*
X112285714Y-75429238D01*
X112380952Y-75334000D01*
X112523810Y-75286381D01*
X112619048Y-75286381D01*
X112761905Y-75334000D01*
X112809524Y-75381619D01*
X113238095Y-76286381D02*
X113238095Y-75286381D01*
X113619048Y-75286381D01*
X113714286Y-75334000D01*
X113761905Y-75381619D01*
X113809524Y-75476857D01*
X113809524Y-75619714D01*
X113761905Y-75714952D01*
X113714286Y-75762571D01*
X113619048Y-75810190D01*
X113238095Y-75810190D01*
X121126289Y-90910303D02*
X121126289Y-90815064D01*
X121173908Y-90719826D01*
X121221527Y-90672207D01*
X121316765Y-90624588D01*
X121507241Y-90576969D01*
X121745337Y-90576969D01*
X121935813Y-90624588D01*
X122031051Y-90672207D01*
X122078670Y-90719826D01*
X122126289Y-90815064D01*
X122126289Y-90910303D01*
X122078670Y-91005541D01*
X122031051Y-91053160D01*
X121935813Y-91100779D01*
X121745337Y-91148398D01*
X121507241Y-91148398D01*
X121316765Y-91100779D01*
X121221527Y-91053160D01*
X121173908Y-91005541D01*
X121126289Y-90910303D01*
X119126289Y-90910303D02*
X119126289Y-90815064D01*
X119173908Y-90719826D01*
X119221527Y-90672207D01*
X119316765Y-90624588D01*
X119507241Y-90576969D01*
X119745337Y-90576969D01*
X119935813Y-90624588D01*
X120031051Y-90672207D01*
X120078670Y-90719826D01*
X120126289Y-90815064D01*
X120126289Y-90910303D01*
X120078670Y-91005541D01*
X120031051Y-91053160D01*
X119935813Y-91100779D01*
X119745337Y-91148398D01*
X119507241Y-91148398D01*
X119316765Y-91100779D01*
X119221527Y-91053160D01*
X119173908Y-91005541D01*
X119126289Y-90910303D01*
X122457143Y-99190476D02*
X122504762Y-99238095D01*
X122552381Y-99380952D01*
X122552381Y-99476190D01*
X122504762Y-99619048D01*
X122409524Y-99714286D01*
X122314286Y-99761905D01*
X122123810Y-99809524D01*
X121980952Y-99809524D01*
X121790476Y-99761905D01*
X121695238Y-99714286D01*
X121600000Y-99619048D01*
X121552381Y-99476190D01*
X121552381Y-99380952D01*
X121600000Y-99238095D01*
X121647619Y-99190476D01*
X123126289Y-90910303D02*
X123126289Y-90815064D01*
X123173908Y-90719826D01*
X123221527Y-90672207D01*
X123316765Y-90624588D01*
X123507241Y-90576969D01*
X123745337Y-90576969D01*
X123935813Y-90624588D01*
X124031051Y-90672207D01*
X124078670Y-90719826D01*
X124126289Y-90815064D01*
X124126289Y-90910303D01*
X124078670Y-91005541D01*
X124031051Y-91053160D01*
X123935813Y-91100779D01*
X123745337Y-91148398D01*
X123507241Y-91148398D01*
X123316765Y-91100779D01*
X123221527Y-91053160D01*
X123173908Y-91005541D01*
X123126289Y-90910303D01*
X129309524Y-95957143D02*
X129261905Y-96004762D01*
X129119048Y-96052381D01*
X129023810Y-96052381D01*
X128880952Y-96004762D01*
X128785714Y-95909524D01*
X128738095Y-95814286D01*
X128690476Y-95623810D01*
X128690476Y-95480952D01*
X128738095Y-95290476D01*
X128785714Y-95195238D01*
X128880952Y-95100000D01*
X129023810Y-95052381D01*
X129119048Y-95052381D01*
X129261905Y-95100000D01*
X129309524Y-95147619D01*
X112809524Y-111191143D02*
X112761905Y-111238762D01*
X112619048Y-111286381D01*
X112523810Y-111286381D01*
X112380952Y-111238762D01*
X112285714Y-111143524D01*
X112238095Y-111048286D01*
X112190476Y-110857810D01*
X112190476Y-110714952D01*
X112238095Y-110524476D01*
X112285714Y-110429238D01*
X112380952Y-110334000D01*
X112523810Y-110286381D01*
X112619048Y-110286381D01*
X112761905Y-110334000D01*
X112809524Y-110381619D01*
X113238095Y-111286381D02*
X113238095Y-110286381D01*
X113619048Y-110286381D01*
X113714286Y-110334000D01*
X113761905Y-110381619D01*
X113809524Y-110476857D01*
X113809524Y-110619714D01*
X113761905Y-110714952D01*
X113714286Y-110762571D01*
X113619048Y-110810190D01*
X113238095Y-110810190D01*
X134261905Y-104452381D02*
X133785714Y-104452381D01*
X133738095Y-104928571D01*
X133785714Y-104880952D01*
X133880952Y-104833333D01*
X134119048Y-104833333D01*
X134214286Y-104880952D01*
X134261905Y-104928571D01*
X134309524Y-105023810D01*
X134309524Y-105261905D01*
X134261905Y-105357143D01*
X134214286Y-105404762D01*
X134119048Y-105452381D01*
X133880952Y-105452381D01*
X133785714Y-105404762D01*
X133738095Y-105357143D01*
X134928571Y-104452381D02*
X135023810Y-104452381D01*
X135119048Y-104500000D01*
X135166667Y-104547619D01*
X135214286Y-104642857D01*
X135261905Y-104833333D01*
X135261905Y-105071429D01*
X135214286Y-105261905D01*
X135166667Y-105357143D01*
X135119048Y-105404762D01*
X135023810Y-105452381D01*
X134928571Y-105452381D01*
X134833333Y-105404762D01*
X134785714Y-105357143D01*
X134738095Y-105261905D01*
X134690476Y-105071429D01*
X134690476Y-104833333D01*
X134738095Y-104642857D01*
X134785714Y-104547619D01*
X134833333Y-104500000D01*
X134928571Y-104452381D01*
X135690476Y-105452381D02*
X135690476Y-104452381D01*
X136261905Y-105452381D02*
X135833333Y-104880952D01*
X136261905Y-104452381D02*
X135690476Y-105023810D01*
X127714286Y-114852381D02*
X128333334Y-114852381D01*
X128000000Y-115233333D01*
X128142858Y-115233333D01*
X128238096Y-115280952D01*
X128285715Y-115328571D01*
X128333334Y-115423810D01*
X128333334Y-115661905D01*
X128285715Y-115757143D01*
X128238096Y-115804762D01*
X128142858Y-115852381D01*
X127857143Y-115852381D01*
X127761905Y-115804762D01*
X127714286Y-115757143D01*
X128666667Y-114852381D02*
X129285715Y-114852381D01*
X128952381Y-115233333D01*
X129095239Y-115233333D01*
X129190477Y-115280952D01*
X129238096Y-115328571D01*
X129285715Y-115423810D01*
X129285715Y-115661905D01*
X129238096Y-115757143D01*
X129190477Y-115804762D01*
X129095239Y-115852381D01*
X128809524Y-115852381D01*
X128714286Y-115804762D01*
X128666667Y-115757143D01*
X129714286Y-115852381D02*
X129714286Y-114852381D01*
X130285715Y-115852381D02*
X129857143Y-115280952D01*
X130285715Y-114852381D02*
X129714286Y-115423810D01*
X130666667Y-114947619D02*
X130714286Y-114900000D01*
X130809524Y-114852381D01*
X131047620Y-114852381D01*
X131142858Y-114900000D01*
X131190477Y-114947619D01*
X131238096Y-115042857D01*
X131238096Y-115138095D01*
X131190477Y-115280952D01*
X130619048Y-115852381D01*
X131238096Y-115852381D01*
X120052381Y-105047619D02*
X120052381Y-104952380D01*
X120100000Y-104857142D01*
X120147619Y-104809523D01*
X120242857Y-104761904D01*
X120433333Y-104714285D01*
X120671429Y-104714285D01*
X120861905Y-104761904D01*
X120957143Y-104809523D01*
X121004762Y-104857142D01*
X121052381Y-104952380D01*
X121052381Y-105047619D01*
X121004762Y-105142857D01*
X120957143Y-105190476D01*
X120861905Y-105238095D01*
X120671429Y-105285714D01*
X120433333Y-105285714D01*
X120242857Y-105238095D01*
X120147619Y-105190476D01*
X120100000Y-105142857D01*
X120052381Y-105047619D01*
X131809524Y-106457143D02*
X131761905Y-106504762D01*
X131619048Y-106552381D01*
X131523810Y-106552381D01*
X131380952Y-106504762D01*
X131285714Y-106409524D01*
X131238095Y-106314286D01*
X131190476Y-106123810D01*
X131190476Y-105980952D01*
X131238095Y-105790476D01*
X131285714Y-105695238D01*
X131380952Y-105600000D01*
X131523810Y-105552381D01*
X131619048Y-105552381D01*
X131761905Y-105600000D01*
X131809524Y-105647619D01*
X133902381Y-100142857D02*
X133426190Y-100476191D01*
X133902381Y-100714286D02*
X132902381Y-100714286D01*
X132902381Y-100333333D01*
X132950000Y-100238095D01*
X132997619Y-100190476D01*
X133092857Y-100142857D01*
X133235714Y-100142857D01*
X133330952Y-100190476D01*
X133378571Y-100238095D01*
X133426190Y-100333333D01*
X133426190Y-100714286D01*
X132902381Y-99523810D02*
X132902381Y-99428571D01*
X132950000Y-99333333D01*
X132997619Y-99285714D01*
X133092857Y-99238095D01*
X133283333Y-99190476D01*
X133521429Y-99190476D01*
X133711905Y-99238095D01*
X133807143Y-99285714D01*
X133854762Y-99333333D01*
X133902381Y-99428571D01*
X133902381Y-99523810D01*
X133854762Y-99619048D01*
X133807143Y-99666667D01*
X133711905Y-99714286D01*
X133521429Y-99761905D01*
X133283333Y-99761905D01*
X133092857Y-99714286D01*
X132997619Y-99666667D01*
X132950000Y-99619048D01*
X132902381Y-99523810D01*
X132902381Y-98285714D02*
X132902381Y-98761905D01*
X133378571Y-98809524D01*
X133330952Y-98761905D01*
X133283333Y-98666667D01*
X133283333Y-98428571D01*
X133330952Y-98333333D01*
X133378571Y-98285714D01*
X133473810Y-98238095D01*
X133711905Y-98238095D01*
X133807143Y-98285714D01*
X133854762Y-98333333D01*
X133902381Y-98428571D01*
X133902381Y-98666667D01*
X133854762Y-98761905D01*
X133807143Y-98809524D01*
X138502381Y-106642857D02*
X138026190Y-106976191D01*
X138502381Y-107214286D02*
X137502381Y-107214286D01*
X137502381Y-106833333D01*
X137550000Y-106738095D01*
X137597619Y-106690476D01*
X137692857Y-106642857D01*
X137835714Y-106642857D01*
X137930952Y-106690476D01*
X137978571Y-106738095D01*
X138026190Y-106833333D01*
X138026190Y-107214286D01*
X137502381Y-106023810D02*
X137502381Y-105928571D01*
X137550000Y-105833333D01*
X137597619Y-105785714D01*
X137692857Y-105738095D01*
X137883333Y-105690476D01*
X138121429Y-105690476D01*
X138311905Y-105738095D01*
X138407143Y-105785714D01*
X138454762Y-105833333D01*
X138502381Y-105928571D01*
X138502381Y-106023810D01*
X138454762Y-106119048D01*
X138407143Y-106166667D01*
X138311905Y-106214286D01*
X138121429Y-106261905D01*
X137883333Y-106261905D01*
X137692857Y-106214286D01*
X137597619Y-106166667D01*
X137550000Y-106119048D01*
X137502381Y-106023810D01*
X137502381Y-104785714D02*
X137502381Y-105261905D01*
X137978571Y-105309524D01*
X137930952Y-105261905D01*
X137883333Y-105166667D01*
X137883333Y-104928571D01*
X137930952Y-104833333D01*
X137978571Y-104785714D01*
X138073810Y-104738095D01*
X138311905Y-104738095D01*
X138407143Y-104785714D01*
X138454762Y-104833333D01*
X138502381Y-104928571D01*
X138502381Y-105166667D01*
X138454762Y-105261905D01*
X138407143Y-105309524D01*
X125252381Y-108016667D02*
X125728572Y-108016667D01*
X125157143Y-108302381D02*
X125490476Y-107302381D01*
X125823810Y-108302381D01*
X126633334Y-107302381D02*
X126157143Y-107302381D01*
X126109524Y-107778571D01*
X126157143Y-107730952D01*
X126252381Y-107683333D01*
X126490477Y-107683333D01*
X126585715Y-107730952D01*
X126633334Y-107778571D01*
X126680953Y-107873810D01*
X126680953Y-108111905D01*
X126633334Y-108207143D01*
X126585715Y-108254762D01*
X126490477Y-108302381D01*
X126252381Y-108302381D01*
X126157143Y-108254762D01*
X126109524Y-108207143D01*
X127157143Y-108302381D02*
X127347619Y-108302381D01*
X127442858Y-108254762D01*
X127490477Y-108207143D01*
X127585715Y-108064286D01*
X127633334Y-107873810D01*
X127633334Y-107492857D01*
X127585715Y-107397619D01*
X127538096Y-107350000D01*
X127442858Y-107302381D01*
X127252381Y-107302381D01*
X127157143Y-107350000D01*
X127109524Y-107397619D01*
X127061905Y-107492857D01*
X127061905Y-107730952D01*
X127109524Y-107826190D01*
X127157143Y-107873810D01*
X127252381Y-107921429D01*
X127442858Y-107921429D01*
X127538096Y-107873810D01*
X127585715Y-107826190D01*
X127633334Y-107730952D01*
X128204762Y-107730952D02*
X128109524Y-107683333D01*
X128061905Y-107635714D01*
X128014286Y-107540476D01*
X128014286Y-107492857D01*
X128061905Y-107397619D01*
X128109524Y-107350000D01*
X128204762Y-107302381D01*
X128395239Y-107302381D01*
X128490477Y-107350000D01*
X128538096Y-107397619D01*
X128585715Y-107492857D01*
X128585715Y-107540476D01*
X128538096Y-107635714D01*
X128490477Y-107683333D01*
X128395239Y-107730952D01*
X128204762Y-107730952D01*
X128109524Y-107778571D01*
X128061905Y-107826190D01*
X128014286Y-107921429D01*
X128014286Y-108111905D01*
X128061905Y-108207143D01*
X128109524Y-108254762D01*
X128204762Y-108302381D01*
X128395239Y-108302381D01*
X128490477Y-108254762D01*
X128538096Y-108207143D01*
X128585715Y-108111905D01*
X128585715Y-107921429D01*
X128538096Y-107826190D01*
X128490477Y-107778571D01*
X128395239Y-107730952D01*
X129442858Y-107635714D02*
X129442858Y-108302381D01*
X129204762Y-107254762D02*
X128966667Y-107969048D01*
X129585715Y-107969048D01*
X130490477Y-107350000D02*
X130395239Y-107302381D01*
X130252382Y-107302381D01*
X130109524Y-107350000D01*
X130014286Y-107445238D01*
X129966667Y-107540476D01*
X129919048Y-107730952D01*
X129919048Y-107873810D01*
X129966667Y-108064286D01*
X130014286Y-108159524D01*
X130109524Y-108254762D01*
X130252382Y-108302381D01*
X130347620Y-108302381D01*
X130490477Y-108254762D01*
X130538096Y-108207143D01*
X130538096Y-107873810D01*
X130347620Y-107873810D01*
X131442858Y-108302381D02*
X130966667Y-108302381D01*
X130966667Y-107302381D01*
X131776191Y-108302381D02*
X131776191Y-107302381D01*
X132157144Y-107302381D01*
X132252382Y-107350000D01*
X132300001Y-107397619D01*
X132347620Y-107492857D01*
X132347620Y-107635714D01*
X132300001Y-107730952D01*
X132252382Y-107778571D01*
X132157144Y-107826190D01*
X131776191Y-107826190D01*
X136226191Y-109892143D02*
X136178572Y-109939762D01*
X136035715Y-109987381D01*
X135940477Y-109987381D01*
X135797619Y-109939762D01*
X135702381Y-109844524D01*
X135654762Y-109749286D01*
X135607143Y-109558810D01*
X135607143Y-109415952D01*
X135654762Y-109225476D01*
X135702381Y-109130238D01*
X135797619Y-109035000D01*
X135940477Y-108987381D01*
X136035715Y-108987381D01*
X136178572Y-109035000D01*
X136226191Y-109082619D01*
X136845238Y-108987381D02*
X137035715Y-108987381D01*
X137130953Y-109035000D01*
X137226191Y-109130238D01*
X137273810Y-109320714D01*
X137273810Y-109654048D01*
X137226191Y-109844524D01*
X137130953Y-109939762D01*
X137035715Y-109987381D01*
X136845238Y-109987381D01*
X136750000Y-109939762D01*
X136654762Y-109844524D01*
X136607143Y-109654048D01*
X136607143Y-109320714D01*
X136654762Y-109130238D01*
X136750000Y-109035000D01*
X136845238Y-108987381D01*
X137702381Y-109987381D02*
X137702381Y-108987381D01*
X138273810Y-109987381D01*
X138273810Y-108987381D01*
X138750000Y-109987381D02*
X138750000Y-108987381D01*
X139321429Y-109987381D01*
X139321429Y-108987381D01*
X139559524Y-110082619D02*
X140321429Y-110082619D01*
X140750000Y-108987381D02*
X140845239Y-108987381D01*
X140940477Y-109035000D01*
X140988096Y-109082619D01*
X141035715Y-109177857D01*
X141083334Y-109368333D01*
X141083334Y-109606429D01*
X141035715Y-109796905D01*
X140988096Y-109892143D01*
X140940477Y-109939762D01*
X140845239Y-109987381D01*
X140750000Y-109987381D01*
X140654762Y-109939762D01*
X140607143Y-109892143D01*
X140559524Y-109796905D01*
X140511905Y-109606429D01*
X140511905Y-109368333D01*
X140559524Y-109177857D01*
X140607143Y-109082619D01*
X140654762Y-109035000D01*
X140750000Y-108987381D01*
X142035715Y-109987381D02*
X141464286Y-109987381D01*
X141750000Y-109987381D02*
X141750000Y-108987381D01*
X141654762Y-109130238D01*
X141559524Y-109225476D01*
X141464286Y-109273095D01*
X142369048Y-108987381D02*
X143035715Y-109987381D01*
X143035715Y-108987381D02*
X142369048Y-109987381D01*
X143607143Y-108987381D02*
X143702382Y-108987381D01*
X143797620Y-109035000D01*
X143845239Y-109082619D01*
X143892858Y-109177857D01*
X143940477Y-109368333D01*
X143940477Y-109606429D01*
X143892858Y-109796905D01*
X143845239Y-109892143D01*
X143797620Y-109939762D01*
X143702382Y-109987381D01*
X143607143Y-109987381D01*
X143511905Y-109939762D01*
X143464286Y-109892143D01*
X143416667Y-109796905D01*
X143369048Y-109606429D01*
X143369048Y-109368333D01*
X143416667Y-109177857D01*
X143464286Y-109082619D01*
X143511905Y-109035000D01*
X143607143Y-108987381D01*
X144797620Y-109320714D02*
X144797620Y-109987381D01*
X144559524Y-108939762D02*
X144321429Y-109654048D01*
X144940477Y-109654048D01*
X121126289Y-65910303D02*
X121126289Y-65815064D01*
X121173908Y-65719826D01*
X121221527Y-65672207D01*
X121316765Y-65624588D01*
X121507241Y-65576969D01*
X121745337Y-65576969D01*
X121935813Y-65624588D01*
X122031051Y-65672207D01*
X122078670Y-65719826D01*
X122126289Y-65815064D01*
X122126289Y-65910303D01*
X122078670Y-66005541D01*
X122031051Y-66053160D01*
X121935813Y-66100779D01*
X121745337Y-66148398D01*
X121507241Y-66148398D01*
X121316765Y-66100779D01*
X121221527Y-66053160D01*
X121173908Y-66005541D01*
X121126289Y-65910303D01*
X119126289Y-65910303D02*
X119126289Y-65815064D01*
X119173908Y-65719826D01*
X119221527Y-65672207D01*
X119316765Y-65624588D01*
X119507241Y-65576969D01*
X119745337Y-65576969D01*
X119935813Y-65624588D01*
X120031051Y-65672207D01*
X120078670Y-65719826D01*
X120126289Y-65815064D01*
X120126289Y-65910303D01*
X120078670Y-66005541D01*
X120031051Y-66053160D01*
X119935813Y-66100779D01*
X119745337Y-66148398D01*
X119507241Y-66148398D01*
X119316765Y-66100779D01*
X119221527Y-66053160D01*
X119173908Y-66005541D01*
X119126289Y-65910303D01*
X122457143Y-74190476D02*
X122504762Y-74238095D01*
X122552381Y-74380952D01*
X122552381Y-74476190D01*
X122504762Y-74619048D01*
X122409524Y-74714286D01*
X122314286Y-74761905D01*
X122123810Y-74809524D01*
X121980952Y-74809524D01*
X121790476Y-74761905D01*
X121695238Y-74714286D01*
X121600000Y-74619048D01*
X121552381Y-74476190D01*
X121552381Y-74380952D01*
X121600000Y-74238095D01*
X121647619Y-74190476D01*
X123126289Y-65910303D02*
X123126289Y-65815064D01*
X123173908Y-65719826D01*
X123221527Y-65672207D01*
X123316765Y-65624588D01*
X123507241Y-65576969D01*
X123745337Y-65576969D01*
X123935813Y-65624588D01*
X124031051Y-65672207D01*
X124078670Y-65719826D01*
X124126289Y-65815064D01*
X124126289Y-65910303D01*
X124078670Y-66005541D01*
X124031051Y-66053160D01*
X123935813Y-66100779D01*
X123745337Y-66148398D01*
X123507241Y-66148398D01*
X123316765Y-66100779D01*
X123221527Y-66053160D01*
X123173908Y-66005541D01*
X123126289Y-65910303D01*
X129309524Y-70957143D02*
X129261905Y-71004762D01*
X129119048Y-71052381D01*
X129023810Y-71052381D01*
X128880952Y-71004762D01*
X128785714Y-70909524D01*
X128738095Y-70814286D01*
X128690476Y-70623810D01*
X128690476Y-70480952D01*
X128738095Y-70290476D01*
X128785714Y-70195238D01*
X128880952Y-70100000D01*
X129023810Y-70052381D01*
X129119048Y-70052381D01*
X129261905Y-70100000D01*
X129309524Y-70147619D01*
X112809524Y-86191143D02*
X112761905Y-86238762D01*
X112619048Y-86286381D01*
X112523810Y-86286381D01*
X112380952Y-86238762D01*
X112285714Y-86143524D01*
X112238095Y-86048286D01*
X112190476Y-85857810D01*
X112190476Y-85714952D01*
X112238095Y-85524476D01*
X112285714Y-85429238D01*
X112380952Y-85334000D01*
X112523810Y-85286381D01*
X112619048Y-85286381D01*
X112761905Y-85334000D01*
X112809524Y-85381619D01*
X113238095Y-86286381D02*
X113238095Y-85286381D01*
X113619048Y-85286381D01*
X113714286Y-85334000D01*
X113761905Y-85381619D01*
X113809524Y-85476857D01*
X113809524Y-85619714D01*
X113761905Y-85714952D01*
X113714286Y-85762571D01*
X113619048Y-85810190D01*
X113238095Y-85810190D01*
X134261905Y-79452381D02*
X133785714Y-79452381D01*
X133738095Y-79928571D01*
X133785714Y-79880952D01*
X133880952Y-79833333D01*
X134119048Y-79833333D01*
X134214286Y-79880952D01*
X134261905Y-79928571D01*
X134309524Y-80023810D01*
X134309524Y-80261905D01*
X134261905Y-80357143D01*
X134214286Y-80404762D01*
X134119048Y-80452381D01*
X133880952Y-80452381D01*
X133785714Y-80404762D01*
X133738095Y-80357143D01*
X134928571Y-79452381D02*
X135023810Y-79452381D01*
X135119048Y-79500000D01*
X135166667Y-79547619D01*
X135214286Y-79642857D01*
X135261905Y-79833333D01*
X135261905Y-80071429D01*
X135214286Y-80261905D01*
X135166667Y-80357143D01*
X135119048Y-80404762D01*
X135023810Y-80452381D01*
X134928571Y-80452381D01*
X134833333Y-80404762D01*
X134785714Y-80357143D01*
X134738095Y-80261905D01*
X134690476Y-80071429D01*
X134690476Y-79833333D01*
X134738095Y-79642857D01*
X134785714Y-79547619D01*
X134833333Y-79500000D01*
X134928571Y-79452381D01*
X135690476Y-80452381D02*
X135690476Y-79452381D01*
X136261905Y-80452381D02*
X135833333Y-79880952D01*
X136261905Y-79452381D02*
X135690476Y-80023810D01*
X127714286Y-89852381D02*
X128333334Y-89852381D01*
X128000000Y-90233333D01*
X128142858Y-90233333D01*
X128238096Y-90280952D01*
X128285715Y-90328571D01*
X128333334Y-90423810D01*
X128333334Y-90661905D01*
X128285715Y-90757143D01*
X128238096Y-90804762D01*
X128142858Y-90852381D01*
X127857143Y-90852381D01*
X127761905Y-90804762D01*
X127714286Y-90757143D01*
X128666667Y-89852381D02*
X129285715Y-89852381D01*
X128952381Y-90233333D01*
X129095239Y-90233333D01*
X129190477Y-90280952D01*
X129238096Y-90328571D01*
X129285715Y-90423810D01*
X129285715Y-90661905D01*
X129238096Y-90757143D01*
X129190477Y-90804762D01*
X129095239Y-90852381D01*
X128809524Y-90852381D01*
X128714286Y-90804762D01*
X128666667Y-90757143D01*
X129714286Y-90852381D02*
X129714286Y-89852381D01*
X130285715Y-90852381D02*
X129857143Y-90280952D01*
X130285715Y-89852381D02*
X129714286Y-90423810D01*
X130666667Y-89947619D02*
X130714286Y-89900000D01*
X130809524Y-89852381D01*
X131047620Y-89852381D01*
X131142858Y-89900000D01*
X131190477Y-89947619D01*
X131238096Y-90042857D01*
X131238096Y-90138095D01*
X131190477Y-90280952D01*
X130619048Y-90852381D01*
X131238096Y-90852381D01*
X120052381Y-80047619D02*
X120052381Y-79952380D01*
X120100000Y-79857142D01*
X120147619Y-79809523D01*
X120242857Y-79761904D01*
X120433333Y-79714285D01*
X120671429Y-79714285D01*
X120861905Y-79761904D01*
X120957143Y-79809523D01*
X121004762Y-79857142D01*
X121052381Y-79952380D01*
X121052381Y-80047619D01*
X121004762Y-80142857D01*
X120957143Y-80190476D01*
X120861905Y-80238095D01*
X120671429Y-80285714D01*
X120433333Y-80285714D01*
X120242857Y-80238095D01*
X120147619Y-80190476D01*
X120100000Y-80142857D01*
X120052381Y-80047619D01*
X131809524Y-81457143D02*
X131761905Y-81504762D01*
X131619048Y-81552381D01*
X131523810Y-81552381D01*
X131380952Y-81504762D01*
X131285714Y-81409524D01*
X131238095Y-81314286D01*
X131190476Y-81123810D01*
X131190476Y-80980952D01*
X131238095Y-80790476D01*
X131285714Y-80695238D01*
X131380952Y-80600000D01*
X131523810Y-80552381D01*
X131619048Y-80552381D01*
X131761905Y-80600000D01*
X131809524Y-80647619D01*
X133902381Y-75142857D02*
X133426190Y-75476191D01*
X133902381Y-75714286D02*
X132902381Y-75714286D01*
X132902381Y-75333333D01*
X132950000Y-75238095D01*
X132997619Y-75190476D01*
X133092857Y-75142857D01*
X133235714Y-75142857D01*
X133330952Y-75190476D01*
X133378571Y-75238095D01*
X133426190Y-75333333D01*
X133426190Y-75714286D01*
X132902381Y-74523810D02*
X132902381Y-74428571D01*
X132950000Y-74333333D01*
X132997619Y-74285714D01*
X133092857Y-74238095D01*
X133283333Y-74190476D01*
X133521429Y-74190476D01*
X133711905Y-74238095D01*
X133807143Y-74285714D01*
X133854762Y-74333333D01*
X133902381Y-74428571D01*
X133902381Y-74523810D01*
X133854762Y-74619048D01*
X133807143Y-74666667D01*
X133711905Y-74714286D01*
X133521429Y-74761905D01*
X133283333Y-74761905D01*
X133092857Y-74714286D01*
X132997619Y-74666667D01*
X132950000Y-74619048D01*
X132902381Y-74523810D01*
X132902381Y-73285714D02*
X132902381Y-73761905D01*
X133378571Y-73809524D01*
X133330952Y-73761905D01*
X133283333Y-73666667D01*
X133283333Y-73428571D01*
X133330952Y-73333333D01*
X133378571Y-73285714D01*
X133473810Y-73238095D01*
X133711905Y-73238095D01*
X133807143Y-73285714D01*
X133854762Y-73333333D01*
X133902381Y-73428571D01*
X133902381Y-73666667D01*
X133854762Y-73761905D01*
X133807143Y-73809524D01*
X138502381Y-81642857D02*
X138026190Y-81976191D01*
X138502381Y-82214286D02*
X137502381Y-82214286D01*
X137502381Y-81833333D01*
X137550000Y-81738095D01*
X137597619Y-81690476D01*
X137692857Y-81642857D01*
X137835714Y-81642857D01*
X137930952Y-81690476D01*
X137978571Y-81738095D01*
X138026190Y-81833333D01*
X138026190Y-82214286D01*
X137502381Y-81023810D02*
X137502381Y-80928571D01*
X137550000Y-80833333D01*
X137597619Y-80785714D01*
X137692857Y-80738095D01*
X137883333Y-80690476D01*
X138121429Y-80690476D01*
X138311905Y-80738095D01*
X138407143Y-80785714D01*
X138454762Y-80833333D01*
X138502381Y-80928571D01*
X138502381Y-81023810D01*
X138454762Y-81119048D01*
X138407143Y-81166667D01*
X138311905Y-81214286D01*
X138121429Y-81261905D01*
X137883333Y-81261905D01*
X137692857Y-81214286D01*
X137597619Y-81166667D01*
X137550000Y-81119048D01*
X137502381Y-81023810D01*
X137502381Y-79785714D02*
X137502381Y-80261905D01*
X137978571Y-80309524D01*
X137930952Y-80261905D01*
X137883333Y-80166667D01*
X137883333Y-79928571D01*
X137930952Y-79833333D01*
X137978571Y-79785714D01*
X138073810Y-79738095D01*
X138311905Y-79738095D01*
X138407143Y-79785714D01*
X138454762Y-79833333D01*
X138502381Y-79928571D01*
X138502381Y-80166667D01*
X138454762Y-80261905D01*
X138407143Y-80309524D01*
X125252381Y-83016667D02*
X125728572Y-83016667D01*
X125157143Y-83302381D02*
X125490476Y-82302381D01*
X125823810Y-83302381D01*
X126633334Y-82302381D02*
X126157143Y-82302381D01*
X126109524Y-82778571D01*
X126157143Y-82730952D01*
X126252381Y-82683333D01*
X126490477Y-82683333D01*
X126585715Y-82730952D01*
X126633334Y-82778571D01*
X126680953Y-82873810D01*
X126680953Y-83111905D01*
X126633334Y-83207143D01*
X126585715Y-83254762D01*
X126490477Y-83302381D01*
X126252381Y-83302381D01*
X126157143Y-83254762D01*
X126109524Y-83207143D01*
X127157143Y-83302381D02*
X127347619Y-83302381D01*
X127442858Y-83254762D01*
X127490477Y-83207143D01*
X127585715Y-83064286D01*
X127633334Y-82873810D01*
X127633334Y-82492857D01*
X127585715Y-82397619D01*
X127538096Y-82350000D01*
X127442858Y-82302381D01*
X127252381Y-82302381D01*
X127157143Y-82350000D01*
X127109524Y-82397619D01*
X127061905Y-82492857D01*
X127061905Y-82730952D01*
X127109524Y-82826190D01*
X127157143Y-82873810D01*
X127252381Y-82921429D01*
X127442858Y-82921429D01*
X127538096Y-82873810D01*
X127585715Y-82826190D01*
X127633334Y-82730952D01*
X128204762Y-82730952D02*
X128109524Y-82683333D01*
X128061905Y-82635714D01*
X128014286Y-82540476D01*
X128014286Y-82492857D01*
X128061905Y-82397619D01*
X128109524Y-82350000D01*
X128204762Y-82302381D01*
X128395239Y-82302381D01*
X128490477Y-82350000D01*
X128538096Y-82397619D01*
X128585715Y-82492857D01*
X128585715Y-82540476D01*
X128538096Y-82635714D01*
X128490477Y-82683333D01*
X128395239Y-82730952D01*
X128204762Y-82730952D01*
X128109524Y-82778571D01*
X128061905Y-82826190D01*
X128014286Y-82921429D01*
X128014286Y-83111905D01*
X128061905Y-83207143D01*
X128109524Y-83254762D01*
X128204762Y-83302381D01*
X128395239Y-83302381D01*
X128490477Y-83254762D01*
X128538096Y-83207143D01*
X128585715Y-83111905D01*
X128585715Y-82921429D01*
X128538096Y-82826190D01*
X128490477Y-82778571D01*
X128395239Y-82730952D01*
X129442858Y-82635714D02*
X129442858Y-83302381D01*
X129204762Y-82254762D02*
X128966667Y-82969048D01*
X129585715Y-82969048D01*
X130490477Y-82350000D02*
X130395239Y-82302381D01*
X130252382Y-82302381D01*
X130109524Y-82350000D01*
X130014286Y-82445238D01*
X129966667Y-82540476D01*
X129919048Y-82730952D01*
X129919048Y-82873810D01*
X129966667Y-83064286D01*
X130014286Y-83159524D01*
X130109524Y-83254762D01*
X130252382Y-83302381D01*
X130347620Y-83302381D01*
X130490477Y-83254762D01*
X130538096Y-83207143D01*
X130538096Y-82873810D01*
X130347620Y-82873810D01*
X131442858Y-83302381D02*
X130966667Y-83302381D01*
X130966667Y-82302381D01*
X131776191Y-83302381D02*
X131776191Y-82302381D01*
X132157144Y-82302381D01*
X132252382Y-82350000D01*
X132300001Y-82397619D01*
X132347620Y-82492857D01*
X132347620Y-82635714D01*
X132300001Y-82730952D01*
X132252382Y-82778571D01*
X132157144Y-82826190D01*
X131776191Y-82826190D01*
X136226191Y-84892143D02*
X136178572Y-84939762D01*
X136035715Y-84987381D01*
X135940477Y-84987381D01*
X135797619Y-84939762D01*
X135702381Y-84844524D01*
X135654762Y-84749286D01*
X135607143Y-84558810D01*
X135607143Y-84415952D01*
X135654762Y-84225476D01*
X135702381Y-84130238D01*
X135797619Y-84035000D01*
X135940477Y-83987381D01*
X136035715Y-83987381D01*
X136178572Y-84035000D01*
X136226191Y-84082619D01*
X136845238Y-83987381D02*
X137035715Y-83987381D01*
X137130953Y-84035000D01*
X137226191Y-84130238D01*
X137273810Y-84320714D01*
X137273810Y-84654048D01*
X137226191Y-84844524D01*
X137130953Y-84939762D01*
X137035715Y-84987381D01*
X136845238Y-84987381D01*
X136750000Y-84939762D01*
X136654762Y-84844524D01*
X136607143Y-84654048D01*
X136607143Y-84320714D01*
X136654762Y-84130238D01*
X136750000Y-84035000D01*
X136845238Y-83987381D01*
X137702381Y-84987381D02*
X137702381Y-83987381D01*
X138273810Y-84987381D01*
X138273810Y-83987381D01*
X138750000Y-84987381D02*
X138750000Y-83987381D01*
X139321429Y-84987381D01*
X139321429Y-83987381D01*
X139559524Y-85082619D02*
X140321429Y-85082619D01*
X140750000Y-83987381D02*
X140845239Y-83987381D01*
X140940477Y-84035000D01*
X140988096Y-84082619D01*
X141035715Y-84177857D01*
X141083334Y-84368333D01*
X141083334Y-84606429D01*
X141035715Y-84796905D01*
X140988096Y-84892143D01*
X140940477Y-84939762D01*
X140845239Y-84987381D01*
X140750000Y-84987381D01*
X140654762Y-84939762D01*
X140607143Y-84892143D01*
X140559524Y-84796905D01*
X140511905Y-84606429D01*
X140511905Y-84368333D01*
X140559524Y-84177857D01*
X140607143Y-84082619D01*
X140654762Y-84035000D01*
X140750000Y-83987381D01*
X142035715Y-84987381D02*
X141464286Y-84987381D01*
X141750000Y-84987381D02*
X141750000Y-83987381D01*
X141654762Y-84130238D01*
X141559524Y-84225476D01*
X141464286Y-84273095D01*
X142369048Y-83987381D02*
X143035715Y-84987381D01*
X143035715Y-83987381D02*
X142369048Y-84987381D01*
X143607143Y-83987381D02*
X143702382Y-83987381D01*
X143797620Y-84035000D01*
X143845239Y-84082619D01*
X143892858Y-84177857D01*
X143940477Y-84368333D01*
X143940477Y-84606429D01*
X143892858Y-84796905D01*
X143845239Y-84892143D01*
X143797620Y-84939762D01*
X143702382Y-84987381D01*
X143607143Y-84987381D01*
X143511905Y-84939762D01*
X143464286Y-84892143D01*
X143416667Y-84796905D01*
X143369048Y-84606429D01*
X143369048Y-84368333D01*
X143416667Y-84177857D01*
X143464286Y-84082619D01*
X143511905Y-84035000D01*
X143607143Y-83987381D01*
X144797620Y-84320714D02*
X144797620Y-84987381D01*
X144559524Y-83939762D02*
X144321429Y-84654048D01*
X144940477Y-84654048D01*
X125252381Y-58016667D02*
X125728572Y-58016667D01*
X125157143Y-58302381D02*
X125490476Y-57302381D01*
X125823810Y-58302381D01*
X126633334Y-57302381D02*
X126157143Y-57302381D01*
X126109524Y-57778571D01*
X126157143Y-57730952D01*
X126252381Y-57683333D01*
X126490477Y-57683333D01*
X126585715Y-57730952D01*
X126633334Y-57778571D01*
X126680953Y-57873810D01*
X126680953Y-58111905D01*
X126633334Y-58207143D01*
X126585715Y-58254762D01*
X126490477Y-58302381D01*
X126252381Y-58302381D01*
X126157143Y-58254762D01*
X126109524Y-58207143D01*
X127157143Y-58302381D02*
X127347619Y-58302381D01*
X127442858Y-58254762D01*
X127490477Y-58207143D01*
X127585715Y-58064286D01*
X127633334Y-57873810D01*
X127633334Y-57492857D01*
X127585715Y-57397619D01*
X127538096Y-57350000D01*
X127442858Y-57302381D01*
X127252381Y-57302381D01*
X127157143Y-57350000D01*
X127109524Y-57397619D01*
X127061905Y-57492857D01*
X127061905Y-57730952D01*
X127109524Y-57826190D01*
X127157143Y-57873810D01*
X127252381Y-57921429D01*
X127442858Y-57921429D01*
X127538096Y-57873810D01*
X127585715Y-57826190D01*
X127633334Y-57730952D01*
X128204762Y-57730952D02*
X128109524Y-57683333D01*
X128061905Y-57635714D01*
X128014286Y-57540476D01*
X128014286Y-57492857D01*
X128061905Y-57397619D01*
X128109524Y-57350000D01*
X128204762Y-57302381D01*
X128395239Y-57302381D01*
X128490477Y-57350000D01*
X128538096Y-57397619D01*
X128585715Y-57492857D01*
X128585715Y-57540476D01*
X128538096Y-57635714D01*
X128490477Y-57683333D01*
X128395239Y-57730952D01*
X128204762Y-57730952D01*
X128109524Y-57778571D01*
X128061905Y-57826190D01*
X128014286Y-57921429D01*
X128014286Y-58111905D01*
X128061905Y-58207143D01*
X128109524Y-58254762D01*
X128204762Y-58302381D01*
X128395239Y-58302381D01*
X128490477Y-58254762D01*
X128538096Y-58207143D01*
X128585715Y-58111905D01*
X128585715Y-57921429D01*
X128538096Y-57826190D01*
X128490477Y-57778571D01*
X128395239Y-57730952D01*
X129442858Y-57635714D02*
X129442858Y-58302381D01*
X129204762Y-57254762D02*
X128966667Y-57969048D01*
X129585715Y-57969048D01*
X130490477Y-57350000D02*
X130395239Y-57302381D01*
X130252382Y-57302381D01*
X130109524Y-57350000D01*
X130014286Y-57445238D01*
X129966667Y-57540476D01*
X129919048Y-57730952D01*
X129919048Y-57873810D01*
X129966667Y-58064286D01*
X130014286Y-58159524D01*
X130109524Y-58254762D01*
X130252382Y-58302381D01*
X130347620Y-58302381D01*
X130490477Y-58254762D01*
X130538096Y-58207143D01*
X130538096Y-57873810D01*
X130347620Y-57873810D01*
X131442858Y-58302381D02*
X130966667Y-58302381D01*
X130966667Y-57302381D01*
X131776191Y-58302381D02*
X131776191Y-57302381D01*
X132157144Y-57302381D01*
X132252382Y-57350000D01*
X132300001Y-57397619D01*
X132347620Y-57492857D01*
X132347620Y-57635714D01*
X132300001Y-57730952D01*
X132252382Y-57778571D01*
X132157144Y-57826190D01*
X131776191Y-57826190D01*
X122457143Y-49190476D02*
X122504762Y-49238095D01*
X122552381Y-49380952D01*
X122552381Y-49476190D01*
X122504762Y-49619048D01*
X122409524Y-49714286D01*
X122314286Y-49761905D01*
X122123810Y-49809524D01*
X121980952Y-49809524D01*
X121790476Y-49761905D01*
X121695238Y-49714286D01*
X121600000Y-49619048D01*
X121552381Y-49476190D01*
X121552381Y-49380952D01*
X121600000Y-49238095D01*
X121647619Y-49190476D01*
X131809524Y-56457143D02*
X131761905Y-56504762D01*
X131619048Y-56552381D01*
X131523810Y-56552381D01*
X131380952Y-56504762D01*
X131285714Y-56409524D01*
X131238095Y-56314286D01*
X131190476Y-56123810D01*
X131190476Y-55980952D01*
X131238095Y-55790476D01*
X131285714Y-55695238D01*
X131380952Y-55600000D01*
X131523810Y-55552381D01*
X131619048Y-55552381D01*
X131761905Y-55600000D01*
X131809524Y-55647619D01*
X129309524Y-45957143D02*
X129261905Y-46004762D01*
X129119048Y-46052381D01*
X129023810Y-46052381D01*
X128880952Y-46004762D01*
X128785714Y-45909524D01*
X128738095Y-45814286D01*
X128690476Y-45623810D01*
X128690476Y-45480952D01*
X128738095Y-45290476D01*
X128785714Y-45195238D01*
X128880952Y-45100000D01*
X129023810Y-45052381D01*
X129119048Y-45052381D01*
X129261905Y-45100000D01*
X129309524Y-45147619D01*
X120052381Y-55047619D02*
X120052381Y-54952380D01*
X120100000Y-54857142D01*
X120147619Y-54809523D01*
X120242857Y-54761904D01*
X120433333Y-54714285D01*
X120671429Y-54714285D01*
X120861905Y-54761904D01*
X120957143Y-54809523D01*
X121004762Y-54857142D01*
X121052381Y-54952380D01*
X121052381Y-55047619D01*
X121004762Y-55142857D01*
X120957143Y-55190476D01*
X120861905Y-55238095D01*
X120671429Y-55285714D01*
X120433333Y-55285714D01*
X120242857Y-55238095D01*
X120147619Y-55190476D01*
X120100000Y-55142857D01*
X120052381Y-55047619D01*
X123126289Y-40910303D02*
X123126289Y-40815064D01*
X123173908Y-40719826D01*
X123221527Y-40672207D01*
X123316765Y-40624588D01*
X123507241Y-40576969D01*
X123745337Y-40576969D01*
X123935813Y-40624588D01*
X124031051Y-40672207D01*
X124078670Y-40719826D01*
X124126289Y-40815064D01*
X124126289Y-40910303D01*
X124078670Y-41005541D01*
X124031051Y-41053160D01*
X123935813Y-41100779D01*
X123745337Y-41148398D01*
X123507241Y-41148398D01*
X123316765Y-41100779D01*
X123221527Y-41053160D01*
X123173908Y-41005541D01*
X123126289Y-40910303D01*
X121126289Y-40910303D02*
X121126289Y-40815064D01*
X121173908Y-40719826D01*
X121221527Y-40672207D01*
X121316765Y-40624588D01*
X121507241Y-40576969D01*
X121745337Y-40576969D01*
X121935813Y-40624588D01*
X122031051Y-40672207D01*
X122078670Y-40719826D01*
X122126289Y-40815064D01*
X122126289Y-40910303D01*
X122078670Y-41005541D01*
X122031051Y-41053160D01*
X121935813Y-41100779D01*
X121745337Y-41148398D01*
X121507241Y-41148398D01*
X121316765Y-41100779D01*
X121221527Y-41053160D01*
X121173908Y-41005541D01*
X121126289Y-40910303D01*
X119126289Y-40910303D02*
X119126289Y-40815064D01*
X119173908Y-40719826D01*
X119221527Y-40672207D01*
X119316765Y-40624588D01*
X119507241Y-40576969D01*
X119745337Y-40576969D01*
X119935813Y-40624588D01*
X120031051Y-40672207D01*
X120078670Y-40719826D01*
X120126289Y-40815064D01*
X120126289Y-40910303D01*
X120078670Y-41005541D01*
X120031051Y-41053160D01*
X119935813Y-41100779D01*
X119745337Y-41148398D01*
X119507241Y-41148398D01*
X119316765Y-41100779D01*
X119221527Y-41053160D01*
X119173908Y-41005541D01*
X119126289Y-40910303D01*
X138502381Y-56642857D02*
X138026190Y-56976191D01*
X138502381Y-57214286D02*
X137502381Y-57214286D01*
X137502381Y-56833333D01*
X137550000Y-56738095D01*
X137597619Y-56690476D01*
X137692857Y-56642857D01*
X137835714Y-56642857D01*
X137930952Y-56690476D01*
X137978571Y-56738095D01*
X138026190Y-56833333D01*
X138026190Y-57214286D01*
X137502381Y-56023810D02*
X137502381Y-55928571D01*
X137550000Y-55833333D01*
X137597619Y-55785714D01*
X137692857Y-55738095D01*
X137883333Y-55690476D01*
X138121429Y-55690476D01*
X138311905Y-55738095D01*
X138407143Y-55785714D01*
X138454762Y-55833333D01*
X138502381Y-55928571D01*
X138502381Y-56023810D01*
X138454762Y-56119048D01*
X138407143Y-56166667D01*
X138311905Y-56214286D01*
X138121429Y-56261905D01*
X137883333Y-56261905D01*
X137692857Y-56214286D01*
X137597619Y-56166667D01*
X137550000Y-56119048D01*
X137502381Y-56023810D01*
X137502381Y-54785714D02*
X137502381Y-55261905D01*
X137978571Y-55309524D01*
X137930952Y-55261905D01*
X137883333Y-55166667D01*
X137883333Y-54928571D01*
X137930952Y-54833333D01*
X137978571Y-54785714D01*
X138073810Y-54738095D01*
X138311905Y-54738095D01*
X138407143Y-54785714D01*
X138454762Y-54833333D01*
X138502381Y-54928571D01*
X138502381Y-55166667D01*
X138454762Y-55261905D01*
X138407143Y-55309524D01*
X133902381Y-50142857D02*
X133426190Y-50476191D01*
X133902381Y-50714286D02*
X132902381Y-50714286D01*
X132902381Y-50333333D01*
X132950000Y-50238095D01*
X132997619Y-50190476D01*
X133092857Y-50142857D01*
X133235714Y-50142857D01*
X133330952Y-50190476D01*
X133378571Y-50238095D01*
X133426190Y-50333333D01*
X133426190Y-50714286D01*
X132902381Y-49523810D02*
X132902381Y-49428571D01*
X132950000Y-49333333D01*
X132997619Y-49285714D01*
X133092857Y-49238095D01*
X133283333Y-49190476D01*
X133521429Y-49190476D01*
X133711905Y-49238095D01*
X133807143Y-49285714D01*
X133854762Y-49333333D01*
X133902381Y-49428571D01*
X133902381Y-49523810D01*
X133854762Y-49619048D01*
X133807143Y-49666667D01*
X133711905Y-49714286D01*
X133521429Y-49761905D01*
X133283333Y-49761905D01*
X133092857Y-49714286D01*
X132997619Y-49666667D01*
X132950000Y-49619048D01*
X132902381Y-49523810D01*
X132902381Y-48285714D02*
X132902381Y-48761905D01*
X133378571Y-48809524D01*
X133330952Y-48761905D01*
X133283333Y-48666667D01*
X133283333Y-48428571D01*
X133330952Y-48333333D01*
X133378571Y-48285714D01*
X133473810Y-48238095D01*
X133711905Y-48238095D01*
X133807143Y-48285714D01*
X133854762Y-48333333D01*
X133902381Y-48428571D01*
X133902381Y-48666667D01*
X133854762Y-48761905D01*
X133807143Y-48809524D01*
X127714286Y-64852381D02*
X128333334Y-64852381D01*
X128000000Y-65233333D01*
X128142858Y-65233333D01*
X128238096Y-65280952D01*
X128285715Y-65328571D01*
X128333334Y-65423810D01*
X128333334Y-65661905D01*
X128285715Y-65757143D01*
X128238096Y-65804762D01*
X128142858Y-65852381D01*
X127857143Y-65852381D01*
X127761905Y-65804762D01*
X127714286Y-65757143D01*
X128666667Y-64852381D02*
X129285715Y-64852381D01*
X128952381Y-65233333D01*
X129095239Y-65233333D01*
X129190477Y-65280952D01*
X129238096Y-65328571D01*
X129285715Y-65423810D01*
X129285715Y-65661905D01*
X129238096Y-65757143D01*
X129190477Y-65804762D01*
X129095239Y-65852381D01*
X128809524Y-65852381D01*
X128714286Y-65804762D01*
X128666667Y-65757143D01*
X129714286Y-65852381D02*
X129714286Y-64852381D01*
X130285715Y-65852381D02*
X129857143Y-65280952D01*
X130285715Y-64852381D02*
X129714286Y-65423810D01*
X130666667Y-64947619D02*
X130714286Y-64900000D01*
X130809524Y-64852381D01*
X131047620Y-64852381D01*
X131142858Y-64900000D01*
X131190477Y-64947619D01*
X131238096Y-65042857D01*
X131238096Y-65138095D01*
X131190477Y-65280952D01*
X130619048Y-65852381D01*
X131238096Y-65852381D01*
X134261905Y-54452381D02*
X133785714Y-54452381D01*
X133738095Y-54928571D01*
X133785714Y-54880952D01*
X133880952Y-54833333D01*
X134119048Y-54833333D01*
X134214286Y-54880952D01*
X134261905Y-54928571D01*
X134309524Y-55023810D01*
X134309524Y-55261905D01*
X134261905Y-55357143D01*
X134214286Y-55404762D01*
X134119048Y-55452381D01*
X133880952Y-55452381D01*
X133785714Y-55404762D01*
X133738095Y-55357143D01*
X134928571Y-54452381D02*
X135023810Y-54452381D01*
X135119048Y-54500000D01*
X135166667Y-54547619D01*
X135214286Y-54642857D01*
X135261905Y-54833333D01*
X135261905Y-55071429D01*
X135214286Y-55261905D01*
X135166667Y-55357143D01*
X135119048Y-55404762D01*
X135023810Y-55452381D01*
X134928571Y-55452381D01*
X134833333Y-55404762D01*
X134785714Y-55357143D01*
X134738095Y-55261905D01*
X134690476Y-55071429D01*
X134690476Y-54833333D01*
X134738095Y-54642857D01*
X134785714Y-54547619D01*
X134833333Y-54500000D01*
X134928571Y-54452381D01*
X135690476Y-55452381D02*
X135690476Y-54452381D01*
X136261905Y-55452381D02*
X135833333Y-54880952D01*
X136261905Y-54452381D02*
X135690476Y-55023810D01*
X112809524Y-51191143D02*
X112761905Y-51238762D01*
X112619048Y-51286381D01*
X112523810Y-51286381D01*
X112380952Y-51238762D01*
X112285714Y-51143524D01*
X112238095Y-51048286D01*
X112190476Y-50857810D01*
X112190476Y-50714952D01*
X112238095Y-50524476D01*
X112285714Y-50429238D01*
X112380952Y-50334000D01*
X112523810Y-50286381D01*
X112619048Y-50286381D01*
X112761905Y-50334000D01*
X112809524Y-50381619D01*
X113238095Y-51286381D02*
X113238095Y-50286381D01*
X113619048Y-50286381D01*
X113714286Y-50334000D01*
X113761905Y-50381619D01*
X113809524Y-50476857D01*
X113809524Y-50619714D01*
X113761905Y-50714952D01*
X113714286Y-50762571D01*
X113619048Y-50810190D01*
X113238095Y-50810190D01*
X112809524Y-61191143D02*
X112761905Y-61238762D01*
X112619048Y-61286381D01*
X112523810Y-61286381D01*
X112380952Y-61238762D01*
X112285714Y-61143524D01*
X112238095Y-61048286D01*
X112190476Y-60857810D01*
X112190476Y-60714952D01*
X112238095Y-60524476D01*
X112285714Y-60429238D01*
X112380952Y-60334000D01*
X112523810Y-60286381D01*
X112619048Y-60286381D01*
X112761905Y-60334000D01*
X112809524Y-60381619D01*
X113238095Y-61286381D02*
X113238095Y-60286381D01*
X113619048Y-60286381D01*
X113714286Y-60334000D01*
X113761905Y-60381619D01*
X113809524Y-60476857D01*
X113809524Y-60619714D01*
X113761905Y-60714952D01*
X113714286Y-60762571D01*
X113619048Y-60810190D01*
X113238095Y-60810190D01*
X136226191Y-59892143D02*
X136178572Y-59939762D01*
X136035715Y-59987381D01*
X135940477Y-59987381D01*
X135797619Y-59939762D01*
X135702381Y-59844524D01*
X135654762Y-59749286D01*
X135607143Y-59558810D01*
X135607143Y-59415952D01*
X135654762Y-59225476D01*
X135702381Y-59130238D01*
X135797619Y-59035000D01*
X135940477Y-58987381D01*
X136035715Y-58987381D01*
X136178572Y-59035000D01*
X136226191Y-59082619D01*
X136845238Y-58987381D02*
X137035715Y-58987381D01*
X137130953Y-59035000D01*
X137226191Y-59130238D01*
X137273810Y-59320714D01*
X137273810Y-59654048D01*
X137226191Y-59844524D01*
X137130953Y-59939762D01*
X137035715Y-59987381D01*
X136845238Y-59987381D01*
X136750000Y-59939762D01*
X136654762Y-59844524D01*
X136607143Y-59654048D01*
X136607143Y-59320714D01*
X136654762Y-59130238D01*
X136750000Y-59035000D01*
X136845238Y-58987381D01*
X137702381Y-59987381D02*
X137702381Y-58987381D01*
X138273810Y-59987381D01*
X138273810Y-58987381D01*
X138750000Y-59987381D02*
X138750000Y-58987381D01*
X139321429Y-59987381D01*
X139321429Y-58987381D01*
X139559524Y-60082619D02*
X140321429Y-60082619D01*
X140750000Y-58987381D02*
X140845239Y-58987381D01*
X140940477Y-59035000D01*
X140988096Y-59082619D01*
X141035715Y-59177857D01*
X141083334Y-59368333D01*
X141083334Y-59606429D01*
X141035715Y-59796905D01*
X140988096Y-59892143D01*
X140940477Y-59939762D01*
X140845239Y-59987381D01*
X140750000Y-59987381D01*
X140654762Y-59939762D01*
X140607143Y-59892143D01*
X140559524Y-59796905D01*
X140511905Y-59606429D01*
X140511905Y-59368333D01*
X140559524Y-59177857D01*
X140607143Y-59082619D01*
X140654762Y-59035000D01*
X140750000Y-58987381D01*
X142035715Y-59987381D02*
X141464286Y-59987381D01*
X141750000Y-59987381D02*
X141750000Y-58987381D01*
X141654762Y-59130238D01*
X141559524Y-59225476D01*
X141464286Y-59273095D01*
X142369048Y-58987381D02*
X143035715Y-59987381D01*
X143035715Y-58987381D02*
X142369048Y-59987381D01*
X143607143Y-58987381D02*
X143702382Y-58987381D01*
X143797620Y-59035000D01*
X143845239Y-59082619D01*
X143892858Y-59177857D01*
X143940477Y-59368333D01*
X143940477Y-59606429D01*
X143892858Y-59796905D01*
X143845239Y-59892143D01*
X143797620Y-59939762D01*
X143702382Y-59987381D01*
X143607143Y-59987381D01*
X143511905Y-59939762D01*
X143464286Y-59892143D01*
X143416667Y-59796905D01*
X143369048Y-59606429D01*
X143369048Y-59368333D01*
X143416667Y-59177857D01*
X143464286Y-59082619D01*
X143511905Y-59035000D01*
X143607143Y-58987381D01*
X144797620Y-59320714D02*
X144797620Y-59987381D01*
X144559524Y-58939762D02*
X144321429Y-59654048D01*
X144940477Y-59654048D01*
X95265000Y-91366191D02*
X95217381Y-91461429D01*
X95217381Y-91604286D01*
X95265000Y-91747144D01*
X95360238Y-91842382D01*
X95455476Y-91890001D01*
X95645952Y-91937620D01*
X95788810Y-91937620D01*
X95979286Y-91890001D01*
X96074524Y-91842382D01*
X96169762Y-91747144D01*
X96217381Y-91604286D01*
X96217381Y-91509048D01*
X96169762Y-91366191D01*
X96122143Y-91318572D01*
X95788810Y-91318572D01*
X95788810Y-91509048D01*
X96217381Y-90461429D02*
X95693571Y-90461429D01*
X95598333Y-90509048D01*
X95550714Y-90604286D01*
X95550714Y-90794763D01*
X95598333Y-90890001D01*
X96169762Y-90461429D02*
X96217381Y-90556667D01*
X96217381Y-90794763D01*
X96169762Y-90890001D01*
X96074524Y-90937620D01*
X95979286Y-90937620D01*
X95884048Y-90890001D01*
X95836429Y-90794763D01*
X95836429Y-90556667D01*
X95788810Y-90461429D01*
X96217381Y-89556667D02*
X95217381Y-89556667D01*
X96169762Y-89556667D02*
X96217381Y-89651905D01*
X96217381Y-89842382D01*
X96169762Y-89937620D01*
X96122143Y-89985239D01*
X96026905Y-90032858D01*
X95741190Y-90032858D01*
X95645952Y-89985239D01*
X95598333Y-89937620D01*
X95550714Y-89842382D01*
X95550714Y-89651905D01*
X95598333Y-89556667D01*
X95550714Y-88651905D02*
X96360238Y-88651905D01*
X96455476Y-88699524D01*
X96503095Y-88747143D01*
X96550714Y-88842382D01*
X96550714Y-88985239D01*
X96503095Y-89080477D01*
X96169762Y-88651905D02*
X96217381Y-88747143D01*
X96217381Y-88937620D01*
X96169762Y-89032858D01*
X96122143Y-89080477D01*
X96026905Y-89128096D01*
X95741190Y-89128096D01*
X95645952Y-89080477D01*
X95598333Y-89032858D01*
X95550714Y-88937620D01*
X95550714Y-88747143D01*
X95598333Y-88651905D01*
X96169762Y-87794762D02*
X96217381Y-87890000D01*
X96217381Y-88080477D01*
X96169762Y-88175715D01*
X96074524Y-88223334D01*
X95693571Y-88223334D01*
X95598333Y-88175715D01*
X95550714Y-88080477D01*
X95550714Y-87890000D01*
X95598333Y-87794762D01*
X95693571Y-87747143D01*
X95788810Y-87747143D01*
X95884048Y-88223334D01*
X95550714Y-87461429D02*
X95550714Y-87080477D01*
X95217381Y-87318572D02*
X96074524Y-87318572D01*
X96169762Y-87270953D01*
X96217381Y-87175715D01*
X96217381Y-87080477D01*
X96169762Y-86366190D02*
X96217381Y-86461428D01*
X96217381Y-86651905D01*
X96169762Y-86747143D01*
X96074524Y-86794762D01*
X95693571Y-86794762D01*
X95598333Y-86747143D01*
X95550714Y-86651905D01*
X95550714Y-86461428D01*
X95598333Y-86366190D01*
X95693571Y-86318571D01*
X95788810Y-86318571D01*
X95884048Y-86794762D01*
X96169762Y-85509047D02*
X96217381Y-85604285D01*
X96217381Y-85794762D01*
X96169762Y-85890000D01*
X96074524Y-85937619D01*
X95693571Y-85937619D01*
X95598333Y-85890000D01*
X95550714Y-85794762D01*
X95550714Y-85604285D01*
X95598333Y-85509047D01*
X95693571Y-85461428D01*
X95788810Y-85461428D01*
X95884048Y-85937619D01*
X96217381Y-85032857D02*
X95550714Y-85032857D01*
X95741190Y-85032857D02*
X95645952Y-84985238D01*
X95598333Y-84937619D01*
X95550714Y-84842381D01*
X95550714Y-84747142D01*
X95265000Y-66366191D02*
X95217381Y-66461429D01*
X95217381Y-66604286D01*
X95265000Y-66747144D01*
X95360238Y-66842382D01*
X95455476Y-66890001D01*
X95645952Y-66937620D01*
X95788810Y-66937620D01*
X95979286Y-66890001D01*
X96074524Y-66842382D01*
X96169762Y-66747144D01*
X96217381Y-66604286D01*
X96217381Y-66509048D01*
X96169762Y-66366191D01*
X96122143Y-66318572D01*
X95788810Y-66318572D01*
X95788810Y-66509048D01*
X96217381Y-65461429D02*
X95693571Y-65461429D01*
X95598333Y-65509048D01*
X95550714Y-65604286D01*
X95550714Y-65794763D01*
X95598333Y-65890001D01*
X96169762Y-65461429D02*
X96217381Y-65556667D01*
X96217381Y-65794763D01*
X96169762Y-65890001D01*
X96074524Y-65937620D01*
X95979286Y-65937620D01*
X95884048Y-65890001D01*
X95836429Y-65794763D01*
X95836429Y-65556667D01*
X95788810Y-65461429D01*
X96217381Y-64556667D02*
X95217381Y-64556667D01*
X96169762Y-64556667D02*
X96217381Y-64651905D01*
X96217381Y-64842382D01*
X96169762Y-64937620D01*
X96122143Y-64985239D01*
X96026905Y-65032858D01*
X95741190Y-65032858D01*
X95645952Y-64985239D01*
X95598333Y-64937620D01*
X95550714Y-64842382D01*
X95550714Y-64651905D01*
X95598333Y-64556667D01*
X95550714Y-63651905D02*
X96360238Y-63651905D01*
X96455476Y-63699524D01*
X96503095Y-63747143D01*
X96550714Y-63842382D01*
X96550714Y-63985239D01*
X96503095Y-64080477D01*
X96169762Y-63651905D02*
X96217381Y-63747143D01*
X96217381Y-63937620D01*
X96169762Y-64032858D01*
X96122143Y-64080477D01*
X96026905Y-64128096D01*
X95741190Y-64128096D01*
X95645952Y-64080477D01*
X95598333Y-64032858D01*
X95550714Y-63937620D01*
X95550714Y-63747143D01*
X95598333Y-63651905D01*
X96169762Y-62794762D02*
X96217381Y-62890000D01*
X96217381Y-63080477D01*
X96169762Y-63175715D01*
X96074524Y-63223334D01*
X95693571Y-63223334D01*
X95598333Y-63175715D01*
X95550714Y-63080477D01*
X95550714Y-62890000D01*
X95598333Y-62794762D01*
X95693571Y-62747143D01*
X95788810Y-62747143D01*
X95884048Y-63223334D01*
X95550714Y-62461429D02*
X95550714Y-62080477D01*
X95217381Y-62318572D02*
X96074524Y-62318572D01*
X96169762Y-62270953D01*
X96217381Y-62175715D01*
X96217381Y-62080477D01*
X96169762Y-61366190D02*
X96217381Y-61461428D01*
X96217381Y-61651905D01*
X96169762Y-61747143D01*
X96074524Y-61794762D01*
X95693571Y-61794762D01*
X95598333Y-61747143D01*
X95550714Y-61651905D01*
X95550714Y-61461428D01*
X95598333Y-61366190D01*
X95693571Y-61318571D01*
X95788810Y-61318571D01*
X95884048Y-61794762D01*
X96169762Y-60509047D02*
X96217381Y-60604285D01*
X96217381Y-60794762D01*
X96169762Y-60890000D01*
X96074524Y-60937619D01*
X95693571Y-60937619D01*
X95598333Y-60890000D01*
X95550714Y-60794762D01*
X95550714Y-60604285D01*
X95598333Y-60509047D01*
X95693571Y-60461428D01*
X95788810Y-60461428D01*
X95884048Y-60937619D01*
X96217381Y-60032857D02*
X95550714Y-60032857D01*
X95741190Y-60032857D02*
X95645952Y-59985238D01*
X95598333Y-59937619D01*
X95550714Y-59842381D01*
X95550714Y-59747142D01*
X95142858Y-109246381D02*
X94571429Y-109246381D01*
X94857143Y-109246381D02*
X94857143Y-108246381D01*
X94761905Y-108389238D01*
X94666667Y-108484476D01*
X94571429Y-108532095D01*
X95571429Y-108579714D02*
X95571429Y-109579714D01*
X95571429Y-108627333D02*
X95666667Y-108579714D01*
X95857144Y-108579714D01*
X95952382Y-108627333D01*
X96000001Y-108674952D01*
X96047620Y-108770190D01*
X96047620Y-109055905D01*
X96000001Y-109151143D01*
X95952382Y-109198762D01*
X95857144Y-109246381D01*
X95666667Y-109246381D01*
X95571429Y-109198762D01*
X96476191Y-109246381D02*
X96476191Y-108579714D01*
X96476191Y-108246381D02*
X96428572Y-108294000D01*
X96476191Y-108341619D01*
X96523810Y-108294000D01*
X96476191Y-108246381D01*
X96476191Y-108341619D01*
X96952381Y-108579714D02*
X96952381Y-109246381D01*
X96952381Y-108674952D02*
X97000000Y-108627333D01*
X97095238Y-108579714D01*
X97238096Y-108579714D01*
X97333334Y-108627333D01*
X97380953Y-108722571D01*
X97380953Y-109246381D01*
X155142858Y-109246381D02*
X154571429Y-109246381D01*
X154857143Y-109246381D02*
X154857143Y-108246381D01*
X154761905Y-108389238D01*
X154666667Y-108484476D01*
X154571429Y-108532095D01*
X155571429Y-108579714D02*
X155571429Y-109579714D01*
X155571429Y-108627333D02*
X155666667Y-108579714D01*
X155857144Y-108579714D01*
X155952382Y-108627333D01*
X156000001Y-108674952D01*
X156047620Y-108770190D01*
X156047620Y-109055905D01*
X156000001Y-109151143D01*
X155952382Y-109198762D01*
X155857144Y-109246381D01*
X155666667Y-109246381D01*
X155571429Y-109198762D01*
X156476191Y-109246381D02*
X156476191Y-108579714D01*
X156476191Y-108246381D02*
X156428572Y-108294000D01*
X156476191Y-108341619D01*
X156523810Y-108294000D01*
X156476191Y-108246381D01*
X156476191Y-108341619D01*
X156952381Y-108579714D02*
X156952381Y-109246381D01*
X156952381Y-108674952D02*
X157000000Y-108627333D01*
X157095238Y-108579714D01*
X157238096Y-108579714D01*
X157333334Y-108627333D01*
X157380953Y-108722571D01*
X157380953Y-109246381D01*
X155142858Y-49246381D02*
X154571429Y-49246381D01*
X154857143Y-49246381D02*
X154857143Y-48246381D01*
X154761905Y-48389238D01*
X154666667Y-48484476D01*
X154571429Y-48532095D01*
X155571429Y-48579714D02*
X155571429Y-49579714D01*
X155571429Y-48627333D02*
X155666667Y-48579714D01*
X155857144Y-48579714D01*
X155952382Y-48627333D01*
X156000001Y-48674952D01*
X156047620Y-48770190D01*
X156047620Y-49055905D01*
X156000001Y-49151143D01*
X155952382Y-49198762D01*
X155857144Y-49246381D01*
X155666667Y-49246381D01*
X155571429Y-49198762D01*
X156476191Y-49246381D02*
X156476191Y-48579714D01*
X156476191Y-48246381D02*
X156428572Y-48294000D01*
X156476191Y-48341619D01*
X156523810Y-48294000D01*
X156476191Y-48246381D01*
X156476191Y-48341619D01*
X156952381Y-48579714D02*
X156952381Y-49246381D01*
X156952381Y-48674952D02*
X157000000Y-48627333D01*
X157095238Y-48579714D01*
X157238096Y-48579714D01*
X157333334Y-48627333D01*
X157380953Y-48722571D01*
X157380953Y-49246381D01*
X95142858Y-49246381D02*
X94571429Y-49246381D01*
X94857143Y-49246381D02*
X94857143Y-48246381D01*
X94761905Y-48389238D01*
X94666667Y-48484476D01*
X94571429Y-48532095D01*
X95571429Y-48579714D02*
X95571429Y-49579714D01*
X95571429Y-48627333D02*
X95666667Y-48579714D01*
X95857144Y-48579714D01*
X95952382Y-48627333D01*
X96000001Y-48674952D01*
X96047620Y-48770190D01*
X96047620Y-49055905D01*
X96000001Y-49151143D01*
X95952382Y-49198762D01*
X95857144Y-49246381D01*
X95666667Y-49246381D01*
X95571429Y-49198762D01*
X96476191Y-49246381D02*
X96476191Y-48579714D01*
X96476191Y-48246381D02*
X96428572Y-48294000D01*
X96476191Y-48341619D01*
X96523810Y-48294000D01*
X96476191Y-48246381D01*
X96476191Y-48341619D01*
X96952381Y-48579714D02*
X96952381Y-49246381D01*
X96952381Y-48674952D02*
X97000000Y-48627333D01*
X97095238Y-48579714D01*
X97238096Y-48579714D01*
X97333334Y-48627333D01*
X97380953Y-48722571D01*
X97380953Y-49246381D01*
X85142858Y-119246381D02*
X84571429Y-119246381D01*
X84857143Y-119246381D02*
X84857143Y-118246381D01*
X84761905Y-118389238D01*
X84666667Y-118484476D01*
X84571429Y-118532095D01*
X85571429Y-118579714D02*
X85571429Y-119579714D01*
X85571429Y-118627333D02*
X85666667Y-118579714D01*
X85857144Y-118579714D01*
X85952382Y-118627333D01*
X86000001Y-118674952D01*
X86047620Y-118770190D01*
X86047620Y-119055905D01*
X86000001Y-119151143D01*
X85952382Y-119198762D01*
X85857144Y-119246381D01*
X85666667Y-119246381D01*
X85571429Y-119198762D01*
X86476191Y-119246381D02*
X86476191Y-118579714D01*
X86476191Y-118246381D02*
X86428572Y-118294000D01*
X86476191Y-118341619D01*
X86523810Y-118294000D01*
X86476191Y-118246381D01*
X86476191Y-118341619D01*
X86952381Y-118579714D02*
X86952381Y-119246381D01*
X86952381Y-118674952D02*
X87000000Y-118627333D01*
X87095238Y-118579714D01*
X87238096Y-118579714D01*
X87333334Y-118627333D01*
X87380953Y-118722571D01*
X87380953Y-119246381D01*
X85142858Y-39246381D02*
X84571429Y-39246381D01*
X84857143Y-39246381D02*
X84857143Y-38246381D01*
X84761905Y-38389238D01*
X84666667Y-38484476D01*
X84571429Y-38532095D01*
X85571429Y-38579714D02*
X85571429Y-39579714D01*
X85571429Y-38627333D02*
X85666667Y-38579714D01*
X85857144Y-38579714D01*
X85952382Y-38627333D01*
X86000001Y-38674952D01*
X86047620Y-38770190D01*
X86047620Y-39055905D01*
X86000001Y-39151143D01*
X85952382Y-39198762D01*
X85857144Y-39246381D01*
X85666667Y-39246381D01*
X85571429Y-39198762D01*
X86476191Y-39246381D02*
X86476191Y-38579714D01*
X86476191Y-38246381D02*
X86428572Y-38294000D01*
X86476191Y-38341619D01*
X86523810Y-38294000D01*
X86476191Y-38246381D01*
X86476191Y-38341619D01*
X86952381Y-38579714D02*
X86952381Y-39246381D01*
X86952381Y-38674952D02*
X87000000Y-38627333D01*
X87095238Y-38579714D01*
X87238096Y-38579714D01*
X87333334Y-38627333D01*
X87380953Y-38722571D01*
X87380953Y-39246381D01*
X165142858Y-39246381D02*
X164571429Y-39246381D01*
X164857143Y-39246381D02*
X164857143Y-38246381D01*
X164761905Y-38389238D01*
X164666667Y-38484476D01*
X164571429Y-38532095D01*
X165571429Y-38579714D02*
X165571429Y-39579714D01*
X165571429Y-38627333D02*
X165666667Y-38579714D01*
X165857144Y-38579714D01*
X165952382Y-38627333D01*
X166000001Y-38674952D01*
X166047620Y-38770190D01*
X166047620Y-39055905D01*
X166000001Y-39151143D01*
X165952382Y-39198762D01*
X165857144Y-39246381D01*
X165666667Y-39246381D01*
X165571429Y-39198762D01*
X166476191Y-39246381D02*
X166476191Y-38579714D01*
X166476191Y-38246381D02*
X166428572Y-38294000D01*
X166476191Y-38341619D01*
X166523810Y-38294000D01*
X166476191Y-38246381D01*
X166476191Y-38341619D01*
X166952381Y-38579714D02*
X166952381Y-39246381D01*
X166952381Y-38674952D02*
X167000000Y-38627333D01*
X167095238Y-38579714D01*
X167238096Y-38579714D01*
X167333334Y-38627333D01*
X167380953Y-38722571D01*
X167380953Y-39246381D01*
X165142858Y-119246381D02*
X164571429Y-119246381D01*
X164857143Y-119246381D02*
X164857143Y-118246381D01*
X164761905Y-118389238D01*
X164666667Y-118484476D01*
X164571429Y-118532095D01*
X165571429Y-118579714D02*
X165571429Y-119579714D01*
X165571429Y-118627333D02*
X165666667Y-118579714D01*
X165857144Y-118579714D01*
X165952382Y-118627333D01*
X166000001Y-118674952D01*
X166047620Y-118770190D01*
X166047620Y-119055905D01*
X166000001Y-119151143D01*
X165952382Y-119198762D01*
X165857144Y-119246381D01*
X165666667Y-119246381D01*
X165571429Y-119198762D01*
X166476191Y-119246381D02*
X166476191Y-118579714D01*
X166476191Y-118246381D02*
X166428572Y-118294000D01*
X166476191Y-118341619D01*
X166523810Y-118294000D01*
X166476191Y-118246381D01*
X166476191Y-118341619D01*
X166952381Y-118579714D02*
X166952381Y-119246381D01*
X166952381Y-118674952D02*
X167000000Y-118627333D01*
X167095238Y-118579714D01*
X167238096Y-118579714D01*
X167333334Y-118627333D01*
X167380953Y-118722571D01*
X167380953Y-119246381D01*
X89857143Y-79773809D02*
X89904762Y-79821428D01*
X89952381Y-79964285D01*
X89952381Y-80059523D01*
X89904762Y-80202381D01*
X89809524Y-80297619D01*
X89714286Y-80345238D01*
X89523810Y-80392857D01*
X89380952Y-80392857D01*
X89190476Y-80345238D01*
X89095238Y-80297619D01*
X89000000Y-80202381D01*
X88952381Y-80059523D01*
X88952381Y-79964285D01*
X89000000Y-79821428D01*
X89047619Y-79773809D01*
X88952381Y-79154762D02*
X88952381Y-78964285D01*
X89000000Y-78869047D01*
X89095238Y-78773809D01*
X89285714Y-78726190D01*
X89619048Y-78726190D01*
X89809524Y-78773809D01*
X89904762Y-78869047D01*
X89952381Y-78964285D01*
X89952381Y-79154762D01*
X89904762Y-79250000D01*
X89809524Y-79345238D01*
X89619048Y-79392857D01*
X89285714Y-79392857D01*
X89095238Y-79345238D01*
X89000000Y-79250000D01*
X88952381Y-79154762D01*
X89952381Y-78297619D02*
X88952381Y-78297619D01*
X89952381Y-77726190D01*
X88952381Y-77726190D01*
X89952381Y-77250000D02*
X88952381Y-77250000D01*
X89952381Y-76678571D01*
X88952381Y-76678571D01*
X90047619Y-76440476D02*
X90047619Y-75678571D01*
X88952381Y-75250000D02*
X88952381Y-75154761D01*
X89000000Y-75059523D01*
X89047619Y-75011904D01*
X89142857Y-74964285D01*
X89333333Y-74916666D01*
X89571429Y-74916666D01*
X89761905Y-74964285D01*
X89857143Y-75011904D01*
X89904762Y-75059523D01*
X89952381Y-75154761D01*
X89952381Y-75250000D01*
X89904762Y-75345238D01*
X89857143Y-75392857D01*
X89761905Y-75440476D01*
X89571429Y-75488095D01*
X89333333Y-75488095D01*
X89142857Y-75440476D01*
X89047619Y-75392857D01*
X89000000Y-75345238D01*
X88952381Y-75250000D01*
X89952381Y-73964285D02*
X89952381Y-74535714D01*
X89952381Y-74250000D02*
X88952381Y-74250000D01*
X89095238Y-74345238D01*
X89190476Y-74440476D01*
X89238095Y-74535714D01*
X88952381Y-73630952D02*
X89952381Y-72964285D01*
X88952381Y-72964285D02*
X89952381Y-73630952D01*
X88952381Y-72392857D02*
X88952381Y-72297618D01*
X89000000Y-72202380D01*
X89047619Y-72154761D01*
X89142857Y-72107142D01*
X89333333Y-72059523D01*
X89571429Y-72059523D01*
X89761905Y-72107142D01*
X89857143Y-72154761D01*
X89904762Y-72202380D01*
X89952381Y-72297618D01*
X89952381Y-72392857D01*
X89904762Y-72488095D01*
X89857143Y-72535714D01*
X89761905Y-72583333D01*
X89571429Y-72630952D01*
X89333333Y-72630952D01*
X89142857Y-72583333D01*
X89047619Y-72535714D01*
X89000000Y-72488095D01*
X88952381Y-72392857D01*
X89047619Y-71678571D02*
X89000000Y-71630952D01*
X88952381Y-71535714D01*
X88952381Y-71297618D01*
X89000000Y-71202380D01*
X89047619Y-71154761D01*
X89142857Y-71107142D01*
X89238095Y-71107142D01*
X89380952Y-71154761D01*
X89952381Y-71726190D01*
X89952381Y-71107142D01*
M02*
