G04 #@! TF.FileFunction,Legend,Bot*
%FSLAX46Y46*%
G04 Gerber Fmt 4.6, Leading zero omitted, Abs format (unit mm)*
G04 Created by KiCad (PCBNEW 4.0.1-stable) date 19-02-2017 19:17:03*
%MOMM*%
G01*
G04 APERTURE LIST*
%ADD10C,0.100000*%
%ADD11C,0.300000*%
%ADD12C,0.350000*%
%ADD13C,0.010000*%
G04 APERTURE END LIST*
D10*
D11*
X-23946286Y44883429D02*
X-23446286Y45597714D01*
X-23089143Y44883429D02*
X-23089143Y46383429D01*
X-23660571Y46383429D01*
X-23803429Y46312000D01*
X-23874857Y46240571D01*
X-23946286Y46097714D01*
X-23946286Y45883429D01*
X-23874857Y45740571D01*
X-23803429Y45669143D01*
X-23660571Y45597714D01*
X-23089143Y45597714D01*
X-25232000Y44883429D02*
X-25232000Y45669143D01*
X-25160571Y45812000D01*
X-25017714Y45883429D01*
X-24732000Y45883429D01*
X-24589143Y45812000D01*
X-25232000Y44954857D02*
X-25089143Y44883429D01*
X-24732000Y44883429D01*
X-24589143Y44954857D01*
X-24517714Y45097714D01*
X-24517714Y45240571D01*
X-24589143Y45383429D01*
X-24732000Y45454857D01*
X-25089143Y45454857D01*
X-25232000Y45526286D01*
X-25874857Y44954857D02*
X-26017714Y44883429D01*
X-26303429Y44883429D01*
X-26446286Y44954857D01*
X-26517714Y45097714D01*
X-26517714Y45169143D01*
X-26446286Y45312000D01*
X-26303429Y45383429D01*
X-26089143Y45383429D01*
X-25946286Y45454857D01*
X-25874857Y45597714D01*
X-25874857Y45669143D01*
X-25946286Y45812000D01*
X-26089143Y45883429D01*
X-26303429Y45883429D01*
X-26446286Y45812000D01*
X-27160572Y45883429D02*
X-27160572Y44383429D01*
X-27160572Y45812000D02*
X-27303429Y45883429D01*
X-27589143Y45883429D01*
X-27732000Y45812000D01*
X-27803429Y45740571D01*
X-27874858Y45597714D01*
X-27874858Y45169143D01*
X-27803429Y45026286D01*
X-27732000Y44954857D01*
X-27589143Y44883429D01*
X-27303429Y44883429D01*
X-27160572Y44954857D01*
X-28517715Y44883429D02*
X-28517715Y46383429D01*
X-28517715Y45812000D02*
X-28660572Y45883429D01*
X-28946286Y45883429D01*
X-29089143Y45812000D01*
X-29160572Y45740571D01*
X-29232001Y45597714D01*
X-29232001Y45169143D01*
X-29160572Y45026286D01*
X-29089143Y44954857D01*
X-28946286Y44883429D01*
X-28660572Y44883429D01*
X-28517715Y44954857D01*
X-30446286Y44954857D02*
X-30303429Y44883429D01*
X-30017715Y44883429D01*
X-29874858Y44954857D01*
X-29803429Y45097714D01*
X-29803429Y45669143D01*
X-29874858Y45812000D01*
X-30017715Y45883429D01*
X-30303429Y45883429D01*
X-30446286Y45812000D01*
X-30517715Y45669143D01*
X-30517715Y45526286D01*
X-29803429Y45383429D01*
X-31160572Y44883429D02*
X-31160572Y45883429D01*
X-31160572Y45597714D02*
X-31232000Y45740571D01*
X-31303429Y45812000D01*
X-31446286Y45883429D01*
X-31589143Y45883429D01*
X-32089143Y44883429D02*
X-32089143Y45883429D01*
X-32089143Y45597714D02*
X-32160571Y45740571D01*
X-32232000Y45812000D01*
X-32374857Y45883429D01*
X-32517714Y45883429D01*
X-32874857Y45883429D02*
X-33232000Y44883429D01*
X-33589142Y45883429D02*
X-33232000Y44883429D01*
X-33089142Y44526286D01*
X-33017714Y44454857D01*
X-32874857Y44383429D01*
X-35303428Y44883429D02*
X-35303428Y46383429D01*
X-35874856Y46383429D01*
X-36017714Y46312000D01*
X-36089142Y46240571D01*
X-36160571Y46097714D01*
X-36160571Y45883429D01*
X-36089142Y45740571D01*
X-36017714Y45669143D01*
X-35874856Y45597714D01*
X-35303428Y45597714D01*
X-36803428Y44883429D02*
X-36803428Y45883429D01*
X-36803428Y46383429D02*
X-36731999Y46312000D01*
X-36803428Y46240571D01*
X-36874856Y46312000D01*
X-36803428Y46383429D01*
X-36803428Y46240571D01*
X-22946286Y43983429D02*
X-23946286Y43983429D01*
X-22946286Y42483429D01*
X-23946286Y42483429D01*
X-25089142Y42554857D02*
X-24946285Y42483429D01*
X-24660571Y42483429D01*
X-24517714Y42554857D01*
X-24446285Y42697714D01*
X-24446285Y43269143D01*
X-24517714Y43412000D01*
X-24660571Y43483429D01*
X-24946285Y43483429D01*
X-25089142Y43412000D01*
X-25160571Y43269143D01*
X-25160571Y43126286D01*
X-24446285Y42983429D01*
X-25803428Y42483429D02*
X-25803428Y43483429D01*
X-25803428Y43197714D02*
X-25874856Y43340571D01*
X-25946285Y43412000D01*
X-26089142Y43483429D01*
X-26231999Y43483429D01*
X-26946285Y42483429D02*
X-26803427Y42554857D01*
X-26731999Y42626286D01*
X-26660570Y42769143D01*
X-26660570Y43197714D01*
X-26731999Y43340571D01*
X-26803427Y43412000D01*
X-26946285Y43483429D01*
X-27160570Y43483429D01*
X-27303427Y43412000D01*
X-27374856Y43340571D01*
X-27446285Y43197714D01*
X-27446285Y42769143D01*
X-27374856Y42626286D01*
X-27303427Y42554857D01*
X-27160570Y42483429D01*
X-26946285Y42483429D01*
X-29231999Y42483429D02*
X-29231999Y43983429D01*
X-29874856Y42483429D02*
X-29874856Y43269143D01*
X-29803427Y43412000D01*
X-29660570Y43483429D01*
X-29446285Y43483429D01*
X-29303427Y43412000D01*
X-29231999Y43340571D01*
X-31231999Y42483429D02*
X-31231999Y43269143D01*
X-31160570Y43412000D01*
X-31017713Y43483429D01*
X-30731999Y43483429D01*
X-30589142Y43412000D01*
X-31231999Y42554857D02*
X-31089142Y42483429D01*
X-30731999Y42483429D01*
X-30589142Y42554857D01*
X-30517713Y42697714D01*
X-30517713Y42840571D01*
X-30589142Y42983429D01*
X-30731999Y43054857D01*
X-31089142Y43054857D01*
X-31231999Y43126286D01*
X-31731999Y43483429D02*
X-32303428Y43483429D01*
X-31946285Y43983429D02*
X-31946285Y42697714D01*
X-32017713Y42554857D01*
X-32160571Y42483429D01*
X-32303428Y42483429D01*
X-23946286Y40226286D02*
X-23874857Y40154857D01*
X-23660571Y40083429D01*
X-23517714Y40083429D01*
X-23303429Y40154857D01*
X-23160571Y40297714D01*
X-23089143Y40440571D01*
X-23017714Y40726286D01*
X-23017714Y40940571D01*
X-23089143Y41226286D01*
X-23160571Y41369143D01*
X-23303429Y41512000D01*
X-23517714Y41583429D01*
X-23660571Y41583429D01*
X-23874857Y41512000D01*
X-23946286Y41440571D01*
X-24803429Y40083429D02*
X-24660571Y40154857D01*
X-24589143Y40226286D01*
X-24517714Y40369143D01*
X-24517714Y40797714D01*
X-24589143Y40940571D01*
X-24660571Y41012000D01*
X-24803429Y41083429D01*
X-25017714Y41083429D01*
X-25160571Y41012000D01*
X-25232000Y40940571D01*
X-25303429Y40797714D01*
X-25303429Y40369143D01*
X-25232000Y40226286D01*
X-25160571Y40154857D01*
X-25017714Y40083429D01*
X-24803429Y40083429D01*
X-25946286Y41083429D02*
X-25946286Y40083429D01*
X-25946286Y40940571D02*
X-26017714Y41012000D01*
X-26160572Y41083429D01*
X-26374857Y41083429D01*
X-26517714Y41012000D01*
X-26589143Y40869143D01*
X-26589143Y40083429D01*
X-27303429Y41083429D02*
X-27303429Y40083429D01*
X-27303429Y40940571D02*
X-27374857Y41012000D01*
X-27517715Y41083429D01*
X-27732000Y41083429D01*
X-27874857Y41012000D01*
X-27946286Y40869143D01*
X-27946286Y40083429D01*
X-29232000Y40154857D02*
X-29089143Y40083429D01*
X-28803429Y40083429D01*
X-28660572Y40154857D01*
X-28589143Y40297714D01*
X-28589143Y40869143D01*
X-28660572Y41012000D01*
X-28803429Y41083429D01*
X-29089143Y41083429D01*
X-29232000Y41012000D01*
X-29303429Y40869143D01*
X-29303429Y40726286D01*
X-28589143Y40583429D01*
X-30589143Y40154857D02*
X-30446286Y40083429D01*
X-30160572Y40083429D01*
X-30017714Y40154857D01*
X-29946286Y40226286D01*
X-29874857Y40369143D01*
X-29874857Y40797714D01*
X-29946286Y40940571D01*
X-30017714Y41012000D01*
X-30160572Y41083429D01*
X-30446286Y41083429D01*
X-30589143Y41012000D01*
X-31017714Y41083429D02*
X-31589143Y41083429D01*
X-31232000Y41583429D02*
X-31232000Y40297714D01*
X-31303428Y40154857D01*
X-31446286Y40083429D01*
X-31589143Y40083429D01*
X-33017714Y41083429D02*
X-33589143Y41083429D01*
X-33232000Y41583429D02*
X-33232000Y40297714D01*
X-33303428Y40154857D01*
X-33446286Y40083429D01*
X-33589143Y40083429D01*
X-34303429Y40083429D02*
X-34160571Y40154857D01*
X-34089143Y40226286D01*
X-34017714Y40369143D01*
X-34017714Y40797714D01*
X-34089143Y40940571D01*
X-34160571Y41012000D01*
X-34303429Y41083429D01*
X-34517714Y41083429D01*
X-34660571Y41012000D01*
X-34732000Y40940571D01*
X-34803429Y40797714D01*
X-34803429Y40369143D01*
X-34732000Y40226286D01*
X-34660571Y40154857D01*
X-34517714Y40083429D01*
X-34303429Y40083429D01*
X-23732000Y37683429D02*
X-23732000Y38469143D01*
X-23660571Y38612000D01*
X-23517714Y38683429D01*
X-23232000Y38683429D01*
X-23089143Y38612000D01*
X-23732000Y37754857D02*
X-23589143Y37683429D01*
X-23232000Y37683429D01*
X-23089143Y37754857D01*
X-23017714Y37897714D01*
X-23017714Y38040571D01*
X-23089143Y38183429D01*
X-23232000Y38254857D01*
X-23589143Y38254857D01*
X-23732000Y38326286D01*
X-24446286Y38683429D02*
X-24446286Y37683429D01*
X-24446286Y38540571D02*
X-24517714Y38612000D01*
X-24660572Y38683429D01*
X-24874857Y38683429D01*
X-25017714Y38612000D01*
X-25089143Y38469143D01*
X-25089143Y37683429D01*
X-25660572Y38683429D02*
X-26017715Y37683429D01*
X-26374857Y38683429D02*
X-26017715Y37683429D01*
X-25874857Y37326286D01*
X-25803429Y37254857D01*
X-25660572Y37183429D01*
X-27874857Y38683429D02*
X-28446286Y38683429D01*
X-28089143Y39183429D02*
X-28089143Y37897714D01*
X-28160571Y37754857D01*
X-28303429Y37683429D01*
X-28446286Y37683429D01*
X-28803429Y38683429D02*
X-29160572Y37683429D01*
X-29517714Y38683429D02*
X-29160572Y37683429D01*
X-29017714Y37326286D01*
X-28946286Y37254857D01*
X-28803429Y37183429D01*
X-30089143Y38683429D02*
X-30089143Y37183429D01*
X-30089143Y38612000D02*
X-30232000Y38683429D01*
X-30517714Y38683429D01*
X-30660571Y38612000D01*
X-30732000Y38540571D01*
X-30803429Y38397714D01*
X-30803429Y37969143D01*
X-30732000Y37826286D01*
X-30660571Y37754857D01*
X-30517714Y37683429D01*
X-30232000Y37683429D01*
X-30089143Y37754857D01*
X-32017714Y37754857D02*
X-31874857Y37683429D01*
X-31589143Y37683429D01*
X-31446286Y37754857D01*
X-31374857Y37897714D01*
X-31374857Y38469143D01*
X-31446286Y38612000D01*
X-31589143Y38683429D01*
X-31874857Y38683429D01*
X-32017714Y38612000D01*
X-32089143Y38469143D01*
X-32089143Y38326286D01*
X-31374857Y38183429D01*
X-33874857Y38683429D02*
X-33874857Y37183429D01*
X-33874857Y38612000D02*
X-34017714Y38683429D01*
X-34303428Y38683429D01*
X-34446285Y38612000D01*
X-34517714Y38540571D01*
X-34589143Y38397714D01*
X-34589143Y37969143D01*
X-34517714Y37826286D01*
X-34446285Y37754857D01*
X-34303428Y37683429D01*
X-34017714Y37683429D01*
X-33874857Y37754857D01*
X-35446286Y37683429D02*
X-35303428Y37754857D01*
X-35232000Y37826286D01*
X-35160571Y37969143D01*
X-35160571Y38397714D01*
X-35232000Y38540571D01*
X-35303428Y38612000D01*
X-35446286Y38683429D01*
X-35660571Y38683429D01*
X-35803428Y38612000D01*
X-35874857Y38540571D01*
X-35946286Y38397714D01*
X-35946286Y37969143D01*
X-35874857Y37826286D01*
X-35803428Y37754857D01*
X-35660571Y37683429D01*
X-35446286Y37683429D01*
X-36589143Y37683429D02*
X-36589143Y38683429D01*
X-36589143Y38397714D02*
X-36660571Y38540571D01*
X-36732000Y38612000D01*
X-36874857Y38683429D01*
X-37017714Y38683429D01*
X-37303428Y38683429D02*
X-37874857Y38683429D01*
X-37517714Y39183429D02*
X-37517714Y37897714D01*
X-37589142Y37754857D01*
X-37732000Y37683429D01*
X-37874857Y37683429D01*
X-38374857Y37826286D02*
X-38446285Y37754857D01*
X-38374857Y37683429D01*
X-38303428Y37754857D01*
X-38374857Y37826286D01*
X-38374857Y37683429D01*
X-23374857Y36783429D02*
X-23660571Y36783429D01*
X-23803429Y36712000D01*
X-23946286Y36569143D01*
X-24017714Y36283429D01*
X-24017714Y35783429D01*
X-23946286Y35497714D01*
X-23803429Y35354857D01*
X-23660571Y35283429D01*
X-23374857Y35283429D01*
X-23232000Y35354857D01*
X-23089143Y35497714D01*
X-23017714Y35783429D01*
X-23017714Y36283429D01*
X-23089143Y36569143D01*
X-23232000Y36712000D01*
X-23374857Y36783429D01*
X-24660572Y36283429D02*
X-24660572Y35283429D01*
X-24660572Y36140571D02*
X-24732000Y36212000D01*
X-24874858Y36283429D01*
X-25089143Y36283429D01*
X-25232000Y36212000D01*
X-25303429Y36069143D01*
X-25303429Y35283429D01*
X-26232001Y35283429D02*
X-26089143Y35354857D01*
X-26017715Y35497714D01*
X-26017715Y36783429D01*
X-26660572Y36283429D02*
X-27017715Y35283429D01*
X-27374857Y36283429D02*
X-27017715Y35283429D01*
X-26874857Y34926286D01*
X-26803429Y34854857D01*
X-26660572Y34783429D01*
X-29089143Y36783429D02*
X-29089143Y35569143D01*
X-29160571Y35426286D01*
X-29232000Y35354857D01*
X-29374857Y35283429D01*
X-29660571Y35283429D01*
X-29803429Y35354857D01*
X-29874857Y35426286D01*
X-29946286Y35569143D01*
X-29946286Y36783429D01*
X-32446286Y35283429D02*
X-32446286Y36069143D01*
X-32374857Y36212000D01*
X-32232000Y36283429D01*
X-31946286Y36283429D01*
X-31803429Y36212000D01*
X-32446286Y35354857D02*
X-32303429Y35283429D01*
X-31946286Y35283429D01*
X-31803429Y35354857D01*
X-31732000Y35497714D01*
X-31732000Y35640571D01*
X-31803429Y35783429D01*
X-31946286Y35854857D01*
X-32303429Y35854857D01*
X-32446286Y35926286D01*
X-33160572Y36283429D02*
X-33160572Y35283429D01*
X-33160572Y36140571D02*
X-33232000Y36212000D01*
X-33374858Y36283429D01*
X-33589143Y36283429D01*
X-33732000Y36212000D01*
X-33803429Y36069143D01*
X-33803429Y35283429D01*
X-35160572Y35283429D02*
X-35160572Y36783429D01*
X-35160572Y35354857D02*
X-35017715Y35283429D01*
X-34732001Y35283429D01*
X-34589143Y35354857D01*
X-34517715Y35426286D01*
X-34446286Y35569143D01*
X-34446286Y35997714D01*
X-34517715Y36140571D01*
X-34589143Y36212000D01*
X-34732001Y36283429D01*
X-35017715Y36283429D01*
X-35160572Y36212000D01*
X-37017715Y35283429D02*
X-37017715Y36783429D01*
X-37874858Y35283429D02*
X-37232001Y36140571D01*
X-37874858Y36783429D02*
X-37017715Y35926286D01*
X-23017714Y32954857D02*
X-23160571Y32883429D01*
X-23446286Y32883429D01*
X-23589143Y32954857D01*
X-23660571Y33097714D01*
X-23660571Y33169143D01*
X-23589143Y33312000D01*
X-23446286Y33383429D01*
X-23232000Y33383429D01*
X-23089143Y33454857D01*
X-23017714Y33597714D01*
X-23017714Y33669143D01*
X-23089143Y33812000D01*
X-23232000Y33883429D01*
X-23446286Y33883429D01*
X-23589143Y33812000D01*
X-24946286Y33883429D02*
X-24946286Y32883429D01*
X-24303429Y33883429D02*
X-24303429Y33097714D01*
X-24374857Y32954857D01*
X-24517715Y32883429D01*
X-24732000Y32883429D01*
X-24874857Y32954857D01*
X-24946286Y33026286D01*
X-25660572Y33883429D02*
X-25660572Y32383429D01*
X-25660572Y33812000D02*
X-25803429Y33883429D01*
X-26089143Y33883429D01*
X-26232000Y33812000D01*
X-26303429Y33740571D01*
X-26374858Y33597714D01*
X-26374858Y33169143D01*
X-26303429Y33026286D01*
X-26232000Y32954857D01*
X-26089143Y32883429D01*
X-25803429Y32883429D01*
X-25660572Y32954857D01*
X-27017715Y33883429D02*
X-27017715Y32383429D01*
X-27017715Y33812000D02*
X-27160572Y33883429D01*
X-27446286Y33883429D01*
X-27589143Y33812000D01*
X-27660572Y33740571D01*
X-27732001Y33597714D01*
X-27732001Y33169143D01*
X-27660572Y33026286D01*
X-27589143Y32954857D01*
X-27446286Y32883429D01*
X-27160572Y32883429D01*
X-27017715Y32954857D01*
X-28589144Y32883429D02*
X-28446286Y32954857D01*
X-28374858Y33026286D01*
X-28303429Y33169143D01*
X-28303429Y33597714D01*
X-28374858Y33740571D01*
X-28446286Y33812000D01*
X-28589144Y33883429D01*
X-28803429Y33883429D01*
X-28946286Y33812000D01*
X-29017715Y33740571D01*
X-29089144Y33597714D01*
X-29089144Y33169143D01*
X-29017715Y33026286D01*
X-28946286Y32954857D01*
X-28803429Y32883429D01*
X-28589144Y32883429D01*
X-29732001Y32883429D02*
X-29732001Y33883429D01*
X-29732001Y33597714D02*
X-29803429Y33740571D01*
X-29874858Y33812000D01*
X-30017715Y33883429D01*
X-30160572Y33883429D01*
X-30446286Y33883429D02*
X-31017715Y33883429D01*
X-30660572Y34383429D02*
X-30660572Y33097714D01*
X-30732000Y32954857D01*
X-30874858Y32883429D01*
X-31017715Y32883429D01*
X-31446286Y32954857D02*
X-31589143Y32883429D01*
X-31874858Y32883429D01*
X-32017715Y32954857D01*
X-32089143Y33097714D01*
X-32089143Y33169143D01*
X-32017715Y33312000D01*
X-31874858Y33383429D01*
X-31660572Y33383429D01*
X-31517715Y33454857D01*
X-31446286Y33597714D01*
X-31446286Y33669143D01*
X-31517715Y33812000D01*
X-31660572Y33883429D01*
X-31874858Y33883429D01*
X-32017715Y33812000D01*
X-33803429Y32954857D02*
X-33946286Y32883429D01*
X-34232001Y32883429D01*
X-34374858Y32954857D01*
X-34446286Y33097714D01*
X-34446286Y33169143D01*
X-34374858Y33312000D01*
X-34232001Y33383429D01*
X-34017715Y33383429D01*
X-33874858Y33454857D01*
X-33803429Y33597714D01*
X-33803429Y33669143D01*
X-33874858Y33812000D01*
X-34017715Y33883429D01*
X-34232001Y33883429D01*
X-34374858Y33812000D01*
X-35660572Y32954857D02*
X-35517715Y32883429D01*
X-35232001Y32883429D01*
X-35089144Y32954857D01*
X-35017715Y33097714D01*
X-35017715Y33669143D01*
X-35089144Y33812000D01*
X-35232001Y33883429D01*
X-35517715Y33883429D01*
X-35660572Y33812000D01*
X-35732001Y33669143D01*
X-35732001Y33526286D01*
X-35017715Y33383429D01*
X-36374858Y32883429D02*
X-36374858Y33883429D01*
X-36374858Y33597714D02*
X-36446286Y33740571D01*
X-36517715Y33812000D01*
X-36660572Y33883429D01*
X-36803429Y33883429D01*
X-37303429Y32883429D02*
X-37303429Y33883429D01*
X-37303429Y34383429D02*
X-37232000Y34312000D01*
X-37303429Y34240571D01*
X-37374857Y34312000D01*
X-37303429Y34383429D01*
X-37303429Y34240571D01*
X-38660572Y32883429D02*
X-38660572Y33669143D01*
X-38589143Y33812000D01*
X-38446286Y33883429D01*
X-38160572Y33883429D01*
X-38017715Y33812000D01*
X-38660572Y32954857D02*
X-38517715Y32883429D01*
X-38160572Y32883429D01*
X-38017715Y32954857D01*
X-37946286Y33097714D01*
X-37946286Y33240571D01*
X-38017715Y33383429D01*
X-38160572Y33454857D01*
X-38517715Y33454857D01*
X-38660572Y33526286D01*
X-39589144Y32883429D02*
X-39446286Y32954857D01*
X-39374858Y33097714D01*
X-39374858Y34383429D01*
D12*
X-60895952Y29354238D02*
X-62229286Y29354238D01*
X-60895952Y27354238D01*
X-62229286Y27354238D01*
X-62991190Y28401857D02*
X-63657857Y28401857D01*
X-63943571Y27354238D02*
X-62991190Y27354238D01*
X-62991190Y29354238D01*
X-63943571Y29354238D01*
X-65943572Y27354238D02*
X-65276905Y28306619D01*
X-64800714Y27354238D02*
X-64800714Y29354238D01*
X-65562619Y29354238D01*
X-65753095Y29259000D01*
X-65848334Y29163762D01*
X-65943572Y28973286D01*
X-65943572Y28687571D01*
X-65848334Y28497095D01*
X-65753095Y28401857D01*
X-65562619Y28306619D01*
X-64800714Y28306619D01*
X-67181667Y29354238D02*
X-67562619Y29354238D01*
X-67753095Y29259000D01*
X-67943572Y29068524D01*
X-68038810Y28687571D01*
X-68038810Y28020905D01*
X-67943572Y27639952D01*
X-67753095Y27449476D01*
X-67562619Y27354238D01*
X-67181667Y27354238D01*
X-66991191Y27449476D01*
X-66800714Y27639952D01*
X-66705476Y28020905D01*
X-66705476Y28687571D01*
X-66800714Y29068524D01*
X-66991191Y29259000D01*
X-67181667Y29354238D01*
D13*
G36*
X-64828676Y13249405D02*
X-64971895Y13244917D01*
X-65100792Y13237829D01*
X-65208900Y13228149D01*
X-65267119Y13220110D01*
X-65462840Y13181635D01*
X-65645321Y13134853D01*
X-65811833Y13080970D01*
X-65959649Y13021191D01*
X-66086040Y12956723D01*
X-66188277Y12888771D01*
X-66263633Y12818540D01*
X-66302156Y12762644D01*
X-66324644Y12691954D01*
X-66321594Y12614498D01*
X-66292366Y12528901D01*
X-66236320Y12433786D01*
X-66152817Y12327776D01*
X-66048111Y12216359D01*
X-65845554Y12035529D01*
X-65627375Y11881526D01*
X-65395260Y11755252D01*
X-65150893Y11657608D01*
X-64895960Y11589496D01*
X-64865291Y11583455D01*
X-64753898Y11568482D01*
X-64622449Y11560572D01*
X-64481818Y11559615D01*
X-64342878Y11565500D01*
X-64216502Y11578119D01*
X-64141937Y11590773D01*
X-63902679Y11656301D01*
X-63665790Y11750726D01*
X-63436620Y11871334D01*
X-63220519Y12015412D01*
X-63078312Y12130157D01*
X-62959918Y12240789D01*
X-62870531Y12341337D01*
X-62809659Y12433460D01*
X-62776812Y12518816D01*
X-62771496Y12599063D01*
X-62793220Y12675859D01*
X-62841493Y12750862D01*
X-62881403Y12794138D01*
X-62966088Y12862259D01*
X-63078649Y12929533D01*
X-63215218Y12994522D01*
X-63371924Y13055790D01*
X-63544901Y13111897D01*
X-63730279Y13161405D01*
X-63924189Y13202877D01*
X-64030812Y13221381D01*
X-64124135Y13232627D01*
X-64241943Y13241234D01*
X-64377769Y13247209D01*
X-64525145Y13250558D01*
X-64677603Y13251288D01*
X-64828676Y13249405D01*
X-64828676Y13249405D01*
G37*
X-64828676Y13249405D02*
X-64971895Y13244917D01*
X-65100792Y13237829D01*
X-65208900Y13228149D01*
X-65267119Y13220110D01*
X-65462840Y13181635D01*
X-65645321Y13134853D01*
X-65811833Y13080970D01*
X-65959649Y13021191D01*
X-66086040Y12956723D01*
X-66188277Y12888771D01*
X-66263633Y12818540D01*
X-66302156Y12762644D01*
X-66324644Y12691954D01*
X-66321594Y12614498D01*
X-66292366Y12528901D01*
X-66236320Y12433786D01*
X-66152817Y12327776D01*
X-66048111Y12216359D01*
X-65845554Y12035529D01*
X-65627375Y11881526D01*
X-65395260Y11755252D01*
X-65150893Y11657608D01*
X-64895960Y11589496D01*
X-64865291Y11583455D01*
X-64753898Y11568482D01*
X-64622449Y11560572D01*
X-64481818Y11559615D01*
X-64342878Y11565500D01*
X-64216502Y11578119D01*
X-64141937Y11590773D01*
X-63902679Y11656301D01*
X-63665790Y11750726D01*
X-63436620Y11871334D01*
X-63220519Y12015412D01*
X-63078312Y12130157D01*
X-62959918Y12240789D01*
X-62870531Y12341337D01*
X-62809659Y12433460D01*
X-62776812Y12518816D01*
X-62771496Y12599063D01*
X-62793220Y12675859D01*
X-62841493Y12750862D01*
X-62881403Y12794138D01*
X-62966088Y12862259D01*
X-63078649Y12929533D01*
X-63215218Y12994522D01*
X-63371924Y13055790D01*
X-63544901Y13111897D01*
X-63730279Y13161405D01*
X-63924189Y13202877D01*
X-64030812Y13221381D01*
X-64124135Y13232627D01*
X-64241943Y13241234D01*
X-64377769Y13247209D01*
X-64525145Y13250558D01*
X-64677603Y13251288D01*
X-64828676Y13249405D01*
G36*
X-68735134Y16550032D02*
X-68841514Y16527832D01*
X-68942990Y16486884D01*
X-69030978Y16431626D01*
X-69096892Y16366492D01*
X-69100917Y16361041D01*
X-69178459Y16230286D01*
X-69242644Y16075311D01*
X-69292961Y15900929D01*
X-69328898Y15711956D01*
X-69349945Y15513204D01*
X-69355590Y15309489D01*
X-69345324Y15105624D01*
X-69318636Y14906424D01*
X-69275277Y14717625D01*
X-69207237Y14528644D01*
X-69110098Y14335565D01*
X-68985704Y14141400D01*
X-68835899Y13949165D01*
X-68738329Y13839990D01*
X-68549366Y13659261D01*
X-68344844Y13502636D01*
X-68127929Y13372060D01*
X-67901788Y13269483D01*
X-67709019Y13206913D01*
X-67609206Y13186708D01*
X-67492177Y13173220D01*
X-67367575Y13166686D01*
X-67245042Y13167341D01*
X-67134219Y13175423D01*
X-67046652Y13190677D01*
X-66926482Y13227847D01*
X-66831651Y13272784D01*
X-66756075Y13328727D01*
X-66722333Y13363276D01*
X-66655573Y13462211D01*
X-66607874Y13583784D01*
X-66579020Y13725405D01*
X-66568797Y13884484D01*
X-66576989Y14058429D01*
X-66603382Y14244651D01*
X-66647760Y14440559D01*
X-66709909Y14643563D01*
X-66789612Y14851071D01*
X-66858500Y15003375D01*
X-66938918Y15160588D01*
X-67023395Y15304686D01*
X-67116022Y15441048D01*
X-67220887Y15575049D01*
X-67342081Y15712065D01*
X-67483693Y15857474D01*
X-67576965Y15947938D01*
X-67765532Y16117135D01*
X-67947789Y16259340D01*
X-68122891Y16374113D01*
X-68289989Y16461012D01*
X-68448237Y16519598D01*
X-68596788Y16549430D01*
X-68734795Y16550068D01*
X-68735134Y16550032D01*
X-68735134Y16550032D01*
G37*
X-68735134Y16550032D02*
X-68841514Y16527832D01*
X-68942990Y16486884D01*
X-69030978Y16431626D01*
X-69096892Y16366492D01*
X-69100917Y16361041D01*
X-69178459Y16230286D01*
X-69242644Y16075311D01*
X-69292961Y15900929D01*
X-69328898Y15711956D01*
X-69349945Y15513204D01*
X-69355590Y15309489D01*
X-69345324Y15105624D01*
X-69318636Y14906424D01*
X-69275277Y14717625D01*
X-69207237Y14528644D01*
X-69110098Y14335565D01*
X-68985704Y14141400D01*
X-68835899Y13949165D01*
X-68738329Y13839990D01*
X-68549366Y13659261D01*
X-68344844Y13502636D01*
X-68127929Y13372060D01*
X-67901788Y13269483D01*
X-67709019Y13206913D01*
X-67609206Y13186708D01*
X-67492177Y13173220D01*
X-67367575Y13166686D01*
X-67245042Y13167341D01*
X-67134219Y13175423D01*
X-67046652Y13190677D01*
X-66926482Y13227847D01*
X-66831651Y13272784D01*
X-66756075Y13328727D01*
X-66722333Y13363276D01*
X-66655573Y13462211D01*
X-66607874Y13583784D01*
X-66579020Y13725405D01*
X-66568797Y13884484D01*
X-66576989Y14058429D01*
X-66603382Y14244651D01*
X-66647760Y14440559D01*
X-66709909Y14643563D01*
X-66789612Y14851071D01*
X-66858500Y15003375D01*
X-66938918Y15160588D01*
X-67023395Y15304686D01*
X-67116022Y15441048D01*
X-67220887Y15575049D01*
X-67342081Y15712065D01*
X-67483693Y15857474D01*
X-67576965Y15947938D01*
X-67765532Y16117135D01*
X-67947789Y16259340D01*
X-68122891Y16374113D01*
X-68289989Y16461012D01*
X-68448237Y16519598D01*
X-68596788Y16549430D01*
X-68734795Y16550068D01*
X-68735134Y16550032D01*
G36*
X-60469159Y16284927D02*
X-60637087Y16255451D01*
X-60811597Y16199758D01*
X-60990339Y16118152D01*
X-61062187Y16078501D01*
X-61195690Y15993388D01*
X-61337090Y15889408D01*
X-61480734Y15771743D01*
X-61620971Y15645571D01*
X-61752151Y15516074D01*
X-61868622Y15388433D01*
X-61964733Y15267827D01*
X-61996930Y15221632D01*
X-62124638Y15007781D01*
X-62231948Y14783734D01*
X-62317160Y14554597D01*
X-62378575Y14325472D01*
X-62414493Y14101464D01*
X-62423679Y13939750D01*
X-62416186Y13768027D01*
X-62390332Y13621518D01*
X-62345561Y13499148D01*
X-62281312Y13399843D01*
X-62197029Y13322527D01*
X-62092151Y13266125D01*
X-62069336Y13257500D01*
X-61982474Y13235234D01*
X-61873707Y13220424D01*
X-61752046Y13213310D01*
X-61626505Y13214132D01*
X-61506098Y13223132D01*
X-61403500Y13239732D01*
X-61179401Y13305034D01*
X-60960478Y13400342D01*
X-60749098Y13524038D01*
X-60547629Y13674502D01*
X-60358440Y13850116D01*
X-60183900Y14049261D01*
X-60144384Y14100469D01*
X-60061181Y14226730D01*
X-59981370Y14377822D01*
X-59907789Y14546832D01*
X-59843276Y14726846D01*
X-59790671Y14910950D01*
X-59765389Y15023572D01*
X-59744758Y15156355D01*
X-59732578Y15299872D01*
X-59728851Y15445631D01*
X-59733582Y15585139D01*
X-59746773Y15709903D01*
X-59765062Y15799572D01*
X-59814356Y15946834D01*
X-59874339Y16064488D01*
X-59945249Y16152910D01*
X-60027324Y16212471D01*
X-60028340Y16212993D01*
X-60162438Y16264003D01*
X-60310160Y16287879D01*
X-60469159Y16284927D01*
X-60469159Y16284927D01*
G37*
X-60469159Y16284927D02*
X-60637087Y16255451D01*
X-60811597Y16199758D01*
X-60990339Y16118152D01*
X-61062187Y16078501D01*
X-61195690Y15993388D01*
X-61337090Y15889408D01*
X-61480734Y15771743D01*
X-61620971Y15645571D01*
X-61752151Y15516074D01*
X-61868622Y15388433D01*
X-61964733Y15267827D01*
X-61996930Y15221632D01*
X-62124638Y15007781D01*
X-62231948Y14783734D01*
X-62317160Y14554597D01*
X-62378575Y14325472D01*
X-62414493Y14101464D01*
X-62423679Y13939750D01*
X-62416186Y13768027D01*
X-62390332Y13621518D01*
X-62345561Y13499148D01*
X-62281312Y13399843D01*
X-62197029Y13322527D01*
X-62092151Y13266125D01*
X-62069336Y13257500D01*
X-61982474Y13235234D01*
X-61873707Y13220424D01*
X-61752046Y13213310D01*
X-61626505Y13214132D01*
X-61506098Y13223132D01*
X-61403500Y13239732D01*
X-61179401Y13305034D01*
X-60960478Y13400342D01*
X-60749098Y13524038D01*
X-60547629Y13674502D01*
X-60358440Y13850116D01*
X-60183900Y14049261D01*
X-60144384Y14100469D01*
X-60061181Y14226730D01*
X-59981370Y14377822D01*
X-59907789Y14546832D01*
X-59843276Y14726846D01*
X-59790671Y14910950D01*
X-59765389Y15023572D01*
X-59744758Y15156355D01*
X-59732578Y15299872D01*
X-59728851Y15445631D01*
X-59733582Y15585139D01*
X-59746773Y15709903D01*
X-59765062Y15799572D01*
X-59814356Y15946834D01*
X-59874339Y16064488D01*
X-59945249Y16152910D01*
X-60027324Y16212471D01*
X-60028340Y16212993D01*
X-60162438Y16264003D01*
X-60310160Y16287879D01*
X-60469159Y16284927D01*
G36*
X-64705736Y17184228D02*
X-64832613Y17176526D01*
X-64942018Y17163109D01*
X-64975375Y17156855D01*
X-65215837Y17091495D01*
X-65439382Y17001033D01*
X-65644550Y16886754D01*
X-65829883Y16749941D01*
X-65993920Y16591880D01*
X-66135202Y16413854D01*
X-66252270Y16217149D01*
X-66343664Y16003049D01*
X-66366948Y15932063D01*
X-66382541Y15879060D01*
X-66393909Y15833047D01*
X-66401714Y15787388D01*
X-66406620Y15735450D01*
X-66409289Y15670597D01*
X-66410385Y15586195D01*
X-66410575Y15495500D01*
X-66410284Y15389534D01*
X-66408974Y15308730D01*
X-66405992Y15246504D01*
X-66400685Y15196272D01*
X-66392398Y15151448D01*
X-66380478Y15105448D01*
X-66367575Y15062366D01*
X-66306988Y14890176D01*
X-66236685Y14738623D01*
X-66155119Y14602074D01*
X-66017393Y14423201D01*
X-65855347Y14262871D01*
X-65671582Y14122795D01*
X-65468699Y14004682D01*
X-65249298Y13910244D01*
X-65015980Y13841190D01*
X-64988672Y13835019D01*
X-64938515Y13826917D01*
X-64867566Y13819237D01*
X-64782878Y13812339D01*
X-64691499Y13806585D01*
X-64600483Y13802338D01*
X-64516878Y13799959D01*
X-64447737Y13799811D01*
X-64400110Y13802254D01*
X-64388000Y13804192D01*
X-64361397Y13809392D01*
X-64313221Y13817844D01*
X-64253260Y13827839D01*
X-64245125Y13829160D01*
X-64036651Y13877696D01*
X-63829033Y13954109D01*
X-63628633Y14055007D01*
X-63441813Y14176999D01*
X-63274936Y14316693D01*
X-63212558Y14379579D01*
X-63069028Y14555005D01*
X-62953347Y14742821D01*
X-62865471Y14940338D01*
X-62805354Y15144869D01*
X-62772950Y15353728D01*
X-62768213Y15564228D01*
X-62791099Y15773681D01*
X-62841560Y15979400D01*
X-62919553Y16178698D01*
X-63025030Y16368888D01*
X-63157946Y16547283D01*
X-63251073Y16647765D01*
X-63431000Y16805318D01*
X-63628469Y16936888D01*
X-63844142Y17042823D01*
X-64078681Y17123472D01*
X-64218269Y17157670D01*
X-64317651Y17172935D01*
X-64438515Y17182443D01*
X-64571123Y17186203D01*
X-64705736Y17184228D01*
X-64705736Y17184228D01*
G37*
X-64705736Y17184228D02*
X-64832613Y17176526D01*
X-64942018Y17163109D01*
X-64975375Y17156855D01*
X-65215837Y17091495D01*
X-65439382Y17001033D01*
X-65644550Y16886754D01*
X-65829883Y16749941D01*
X-65993920Y16591880D01*
X-66135202Y16413854D01*
X-66252270Y16217149D01*
X-66343664Y16003049D01*
X-66366948Y15932063D01*
X-66382541Y15879060D01*
X-66393909Y15833047D01*
X-66401714Y15787388D01*
X-66406620Y15735450D01*
X-66409289Y15670597D01*
X-66410385Y15586195D01*
X-66410575Y15495500D01*
X-66410284Y15389534D01*
X-66408974Y15308730D01*
X-66405992Y15246504D01*
X-66400685Y15196272D01*
X-66392398Y15151448D01*
X-66380478Y15105448D01*
X-66367575Y15062366D01*
X-66306988Y14890176D01*
X-66236685Y14738623D01*
X-66155119Y14602074D01*
X-66017393Y14423201D01*
X-65855347Y14262871D01*
X-65671582Y14122795D01*
X-65468699Y14004682D01*
X-65249298Y13910244D01*
X-65015980Y13841190D01*
X-64988672Y13835019D01*
X-64938515Y13826917D01*
X-64867566Y13819237D01*
X-64782878Y13812339D01*
X-64691499Y13806585D01*
X-64600483Y13802338D01*
X-64516878Y13799959D01*
X-64447737Y13799811D01*
X-64400110Y13802254D01*
X-64388000Y13804192D01*
X-64361397Y13809392D01*
X-64313221Y13817844D01*
X-64253260Y13827839D01*
X-64245125Y13829160D01*
X-64036651Y13877696D01*
X-63829033Y13954109D01*
X-63628633Y14055007D01*
X-63441813Y14176999D01*
X-63274936Y14316693D01*
X-63212558Y14379579D01*
X-63069028Y14555005D01*
X-62953347Y14742821D01*
X-62865471Y14940338D01*
X-62805354Y15144869D01*
X-62772950Y15353728D01*
X-62768213Y15564228D01*
X-62791099Y15773681D01*
X-62841560Y15979400D01*
X-62919553Y16178698D01*
X-63025030Y16368888D01*
X-63157946Y16547283D01*
X-63251073Y16647765D01*
X-63431000Y16805318D01*
X-63628469Y16936888D01*
X-63844142Y17042823D01*
X-64078681Y17123472D01*
X-64218269Y17157670D01*
X-64317651Y17172935D01*
X-64438515Y17182443D01*
X-64571123Y17186203D01*
X-64705736Y17184228D01*
G36*
X-59850932Y19517401D02*
X-59914259Y19489136D01*
X-59922443Y19483520D01*
X-59965979Y19438815D01*
X-60009607Y19369858D01*
X-60049680Y19283925D01*
X-60082550Y19188292D01*
X-60095212Y19138813D01*
X-60106674Y19068883D01*
X-60116124Y18973751D01*
X-60123402Y18859913D01*
X-60128350Y18733862D01*
X-60130809Y18602094D01*
X-60130619Y18471102D01*
X-60127622Y18347382D01*
X-60121658Y18237427D01*
X-60118273Y18197358D01*
X-60091476Y17965921D01*
X-60056499Y17741190D01*
X-60014201Y17525661D01*
X-59965435Y17321832D01*
X-59911059Y17132200D01*
X-59851929Y16959264D01*
X-59788899Y16805519D01*
X-59722828Y16673465D01*
X-59654569Y16565597D01*
X-59584980Y16484414D01*
X-59514916Y16432413D01*
X-59513010Y16431429D01*
X-59448104Y16405974D01*
X-59393150Y16405165D01*
X-59337162Y16429782D01*
X-59313926Y16445532D01*
X-59234464Y16515655D01*
X-59151653Y16611812D01*
X-59069170Y16729078D01*
X-58990691Y16862522D01*
X-58962752Y16916313D01*
X-58870723Y17133935D01*
X-58805441Y17363423D01*
X-58766925Y17600542D01*
X-58755193Y17841058D01*
X-58770265Y18080737D01*
X-58812160Y18315345D01*
X-58880897Y18540648D01*
X-58954647Y18710188D01*
X-59074720Y18915091D01*
X-59221907Y19103785D01*
X-59395683Y19275689D01*
X-59595528Y19430223D01*
X-59617562Y19445124D01*
X-59706426Y19495879D01*
X-59782936Y19519809D01*
X-59850932Y19517401D01*
X-59850932Y19517401D01*
G37*
X-59850932Y19517401D02*
X-59914259Y19489136D01*
X-59922443Y19483520D01*
X-59965979Y19438815D01*
X-60009607Y19369858D01*
X-60049680Y19283925D01*
X-60082550Y19188292D01*
X-60095212Y19138813D01*
X-60106674Y19068883D01*
X-60116124Y18973751D01*
X-60123402Y18859913D01*
X-60128350Y18733862D01*
X-60130809Y18602094D01*
X-60130619Y18471102D01*
X-60127622Y18347382D01*
X-60121658Y18237427D01*
X-60118273Y18197358D01*
X-60091476Y17965921D01*
X-60056499Y17741190D01*
X-60014201Y17525661D01*
X-59965435Y17321832D01*
X-59911059Y17132200D01*
X-59851929Y16959264D01*
X-59788899Y16805519D01*
X-59722828Y16673465D01*
X-59654569Y16565597D01*
X-59584980Y16484414D01*
X-59514916Y16432413D01*
X-59513010Y16431429D01*
X-59448104Y16405974D01*
X-59393150Y16405165D01*
X-59337162Y16429782D01*
X-59313926Y16445532D01*
X-59234464Y16515655D01*
X-59151653Y16611812D01*
X-59069170Y16729078D01*
X-58990691Y16862522D01*
X-58962752Y16916313D01*
X-58870723Y17133935D01*
X-58805441Y17363423D01*
X-58766925Y17600542D01*
X-58755193Y17841058D01*
X-58770265Y18080737D01*
X-58812160Y18315345D01*
X-58880897Y18540648D01*
X-58954647Y18710188D01*
X-59074720Y18915091D01*
X-59221907Y19103785D01*
X-59395683Y19275689D01*
X-59595528Y19430223D01*
X-59617562Y19445124D01*
X-59706426Y19495879D01*
X-59782936Y19519809D01*
X-59850932Y19517401D01*
G36*
X-69183275Y19565491D02*
X-69226579Y19548940D01*
X-69251368Y19537003D01*
X-69357813Y19474510D01*
X-69472579Y19390239D01*
X-69588838Y19290315D01*
X-69699765Y19180865D01*
X-69798533Y19068014D01*
X-69850365Y18999457D01*
X-69976359Y18795995D01*
X-70073196Y18583062D01*
X-70141623Y18358414D01*
X-70182390Y18119809D01*
X-70193842Y17969961D01*
X-70191314Y17724484D01*
X-70162585Y17486420D01*
X-70108675Y17258758D01*
X-70030600Y17044487D01*
X-69929379Y16846596D01*
X-69806029Y16668072D01*
X-69715317Y16564714D01*
X-69661740Y16510586D01*
X-69623082Y16476088D01*
X-69593283Y16457018D01*
X-69566285Y16449171D01*
X-69547253Y16448098D01*
X-69492970Y16455720D01*
X-69444187Y16472965D01*
X-69393908Y16504224D01*
X-69348946Y16545193D01*
X-69303196Y16602434D01*
X-69253239Y16678188D01*
X-69175691Y16821369D01*
X-69103412Y16991623D01*
X-69037310Y17184577D01*
X-68978297Y17395856D01*
X-68927283Y17621082D01*
X-68885177Y17855883D01*
X-68852890Y18095882D01*
X-68831332Y18336704D01*
X-68821414Y18573974D01*
X-68822238Y18749875D01*
X-68831776Y18945636D01*
X-68849470Y19111968D01*
X-68875807Y19250253D01*
X-68911274Y19361873D01*
X-68956356Y19448210D01*
X-69011541Y19510644D01*
X-69077316Y19550558D01*
X-69107935Y19560863D01*
X-69148133Y19568733D01*
X-69183275Y19565491D01*
X-69183275Y19565491D01*
G37*
X-69183275Y19565491D02*
X-69226579Y19548940D01*
X-69251368Y19537003D01*
X-69357813Y19474510D01*
X-69472579Y19390239D01*
X-69588838Y19290315D01*
X-69699765Y19180865D01*
X-69798533Y19068014D01*
X-69850365Y18999457D01*
X-69976359Y18795995D01*
X-70073196Y18583062D01*
X-70141623Y18358414D01*
X-70182390Y18119809D01*
X-70193842Y17969961D01*
X-70191314Y17724484D01*
X-70162585Y17486420D01*
X-70108675Y17258758D01*
X-70030600Y17044487D01*
X-69929379Y16846596D01*
X-69806029Y16668072D01*
X-69715317Y16564714D01*
X-69661740Y16510586D01*
X-69623082Y16476088D01*
X-69593283Y16457018D01*
X-69566285Y16449171D01*
X-69547253Y16448098D01*
X-69492970Y16455720D01*
X-69444187Y16472965D01*
X-69393908Y16504224D01*
X-69348946Y16545193D01*
X-69303196Y16602434D01*
X-69253239Y16678188D01*
X-69175691Y16821369D01*
X-69103412Y16991623D01*
X-69037310Y17184577D01*
X-68978297Y17395856D01*
X-68927283Y17621082D01*
X-68885177Y17855883D01*
X-68852890Y18095882D01*
X-68831332Y18336704D01*
X-68821414Y18573974D01*
X-68822238Y18749875D01*
X-68831776Y18945636D01*
X-68849470Y19111968D01*
X-68875807Y19250253D01*
X-68911274Y19361873D01*
X-68956356Y19448210D01*
X-69011541Y19510644D01*
X-69077316Y19550558D01*
X-69107935Y19560863D01*
X-69148133Y19568733D01*
X-69183275Y19565491D01*
G36*
X-62792264Y20555872D02*
X-62920106Y20547598D01*
X-63034878Y20532566D01*
X-63110062Y20516012D01*
X-63317766Y20442520D01*
X-63505939Y20344210D01*
X-63673838Y20221855D01*
X-63820718Y20076232D01*
X-63945838Y19908116D01*
X-64048454Y19718281D01*
X-64127822Y19507504D01*
X-64149151Y19432084D01*
X-64169840Y19328577D01*
X-64184856Y19204090D01*
X-64193700Y19068967D01*
X-64195874Y18933554D01*
X-64190879Y18808195D01*
X-64182883Y18732195D01*
X-64132597Y18482002D01*
X-64055322Y18242115D01*
X-63952963Y18014584D01*
X-63827422Y17801456D01*
X-63680603Y17604781D01*
X-63514409Y17426607D01*
X-63330743Y17268983D01*
X-63131510Y17133957D01*
X-62918611Y17023578D01*
X-62693952Y16939893D01*
X-62467877Y16886383D01*
X-62293638Y16866458D01*
X-62117069Y16864648D01*
X-61951522Y16881008D01*
X-61932797Y16884237D01*
X-61726884Y16936519D01*
X-61537553Y17014404D01*
X-61365689Y17115896D01*
X-61212177Y17238998D01*
X-61077901Y17381715D01*
X-60963747Y17542050D01*
X-60870601Y17718009D01*
X-60799346Y17907594D01*
X-60750869Y18108809D01*
X-60726054Y18319660D01*
X-60725786Y18538149D01*
X-60750950Y18762282D01*
X-60802432Y18990061D01*
X-60881116Y19219491D01*
X-60888870Y19238479D01*
X-60999289Y19467243D01*
X-61133774Y19680142D01*
X-61289901Y19875134D01*
X-61465246Y20050179D01*
X-61657386Y20203235D01*
X-61863896Y20332261D01*
X-62082353Y20435216D01*
X-62310332Y20510060D01*
X-62431011Y20537035D01*
X-62537648Y20550903D01*
X-62661422Y20557078D01*
X-62792264Y20555872D01*
X-62792264Y20555872D01*
G37*
X-62792264Y20555872D02*
X-62920106Y20547598D01*
X-63034878Y20532566D01*
X-63110062Y20516012D01*
X-63317766Y20442520D01*
X-63505939Y20344210D01*
X-63673838Y20221855D01*
X-63820718Y20076232D01*
X-63945838Y19908116D01*
X-64048454Y19718281D01*
X-64127822Y19507504D01*
X-64149151Y19432084D01*
X-64169840Y19328577D01*
X-64184856Y19204090D01*
X-64193700Y19068967D01*
X-64195874Y18933554D01*
X-64190879Y18808195D01*
X-64182883Y18732195D01*
X-64132597Y18482002D01*
X-64055322Y18242115D01*
X-63952963Y18014584D01*
X-63827422Y17801456D01*
X-63680603Y17604781D01*
X-63514409Y17426607D01*
X-63330743Y17268983D01*
X-63131510Y17133957D01*
X-62918611Y17023578D01*
X-62693952Y16939893D01*
X-62467877Y16886383D01*
X-62293638Y16866458D01*
X-62117069Y16864648D01*
X-61951522Y16881008D01*
X-61932797Y16884237D01*
X-61726884Y16936519D01*
X-61537553Y17014404D01*
X-61365689Y17115896D01*
X-61212177Y17238998D01*
X-61077901Y17381715D01*
X-60963747Y17542050D01*
X-60870601Y17718009D01*
X-60799346Y17907594D01*
X-60750869Y18108809D01*
X-60726054Y18319660D01*
X-60725786Y18538149D01*
X-60750950Y18762282D01*
X-60802432Y18990061D01*
X-60881116Y19219491D01*
X-60888870Y19238479D01*
X-60999289Y19467243D01*
X-61133774Y19680142D01*
X-61289901Y19875134D01*
X-61465246Y20050179D01*
X-61657386Y20203235D01*
X-61863896Y20332261D01*
X-62082353Y20435216D01*
X-62310332Y20510060D01*
X-62431011Y20537035D01*
X-62537648Y20550903D01*
X-62661422Y20557078D01*
X-62792264Y20555872D01*
G36*
X-66498297Y20643858D02*
X-66576941Y20641565D01*
X-66640391Y20636700D01*
X-66696917Y20628423D01*
X-66754792Y20615897D01*
X-66804960Y20602968D01*
X-67045501Y20522537D01*
X-67271518Y20414045D01*
X-67483605Y20277153D01*
X-67682360Y20111523D01*
X-67699636Y20095175D01*
X-67880111Y19902155D01*
X-68035224Y19693347D01*
X-68163891Y19471195D01*
X-68265025Y19238145D01*
X-68337540Y18996639D01*
X-68380350Y18749122D01*
X-68392572Y18535563D01*
X-68379855Y18302518D01*
X-68340658Y18082211D01*
X-68276249Y17876332D01*
X-68187897Y17686572D01*
X-68076869Y17514621D01*
X-67944433Y17362168D01*
X-67791859Y17230903D01*
X-67620412Y17122518D01*
X-67431363Y17038701D01*
X-67226325Y16981214D01*
X-67146290Y16969523D01*
X-67045412Y16961785D01*
X-66934372Y16958172D01*
X-66823849Y16958857D01*
X-66724525Y16964012D01*
X-66656845Y16972042D01*
X-66425587Y17026988D01*
X-66202803Y17110971D01*
X-65990647Y17221913D01*
X-65791274Y17357736D01*
X-65606838Y17516362D01*
X-65439495Y17695712D01*
X-65291399Y17893709D01*
X-65164705Y18108275D01*
X-65061568Y18337332D01*
X-64984143Y18578801D01*
X-64981978Y18587245D01*
X-64935076Y18830056D01*
X-64918260Y19069545D01*
X-64931354Y19303730D01*
X-64974184Y19530631D01*
X-65046573Y19748268D01*
X-65093893Y19853188D01*
X-65202065Y20039394D01*
X-65331356Y20201928D01*
X-65482034Y20341061D01*
X-65654365Y20457063D01*
X-65729437Y20497055D01*
X-65843036Y20550327D01*
X-65944278Y20589513D01*
X-66041991Y20616563D01*
X-66145005Y20633429D01*
X-66262151Y20642063D01*
X-66396187Y20644418D01*
X-66498297Y20643858D01*
X-66498297Y20643858D01*
G37*
X-66498297Y20643858D02*
X-66576941Y20641565D01*
X-66640391Y20636700D01*
X-66696917Y20628423D01*
X-66754792Y20615897D01*
X-66804960Y20602968D01*
X-67045501Y20522537D01*
X-67271518Y20414045D01*
X-67483605Y20277153D01*
X-67682360Y20111523D01*
X-67699636Y20095175D01*
X-67880111Y19902155D01*
X-68035224Y19693347D01*
X-68163891Y19471195D01*
X-68265025Y19238145D01*
X-68337540Y18996639D01*
X-68380350Y18749122D01*
X-68392572Y18535563D01*
X-68379855Y18302518D01*
X-68340658Y18082211D01*
X-68276249Y17876332D01*
X-68187897Y17686572D01*
X-68076869Y17514621D01*
X-67944433Y17362168D01*
X-67791859Y17230903D01*
X-67620412Y17122518D01*
X-67431363Y17038701D01*
X-67226325Y16981214D01*
X-67146290Y16969523D01*
X-67045412Y16961785D01*
X-66934372Y16958172D01*
X-66823849Y16958857D01*
X-66724525Y16964012D01*
X-66656845Y16972042D01*
X-66425587Y17026988D01*
X-66202803Y17110971D01*
X-65990647Y17221913D01*
X-65791274Y17357736D01*
X-65606838Y17516362D01*
X-65439495Y17695712D01*
X-65291399Y17893709D01*
X-65164705Y18108275D01*
X-65061568Y18337332D01*
X-64984143Y18578801D01*
X-64981978Y18587245D01*
X-64935076Y18830056D01*
X-64918260Y19069545D01*
X-64931354Y19303730D01*
X-64974184Y19530631D01*
X-65046573Y19748268D01*
X-65093893Y19853188D01*
X-65202065Y20039394D01*
X-65331356Y20201928D01*
X-65482034Y20341061D01*
X-65654365Y20457063D01*
X-65729437Y20497055D01*
X-65843036Y20550327D01*
X-65944278Y20589513D01*
X-66041991Y20616563D01*
X-66145005Y20633429D01*
X-66262151Y20642063D01*
X-66396187Y20644418D01*
X-66498297Y20643858D01*
G36*
X-66976654Y22288429D02*
X-67088747Y22284536D01*
X-67192922Y22277067D01*
X-67277250Y22266909D01*
X-67524873Y22214663D01*
X-67760435Y22135590D01*
X-67981172Y22031043D01*
X-68184322Y21902373D01*
X-68367121Y21750931D01*
X-68402450Y21716576D01*
X-68557559Y21539273D01*
X-68689753Y21341500D01*
X-68798083Y21125712D01*
X-68881602Y20894363D01*
X-68939360Y20649909D01*
X-68970409Y20394804D01*
X-68975830Y20232680D01*
X-68972064Y20143029D01*
X-68958485Y20081957D01*
X-68931772Y20046964D01*
X-68888603Y20035550D01*
X-68825656Y20045213D01*
X-68756207Y20067378D01*
X-68650114Y20112763D01*
X-68528320Y20177398D01*
X-68393224Y20259178D01*
X-68247222Y20355996D01*
X-68092713Y20465745D01*
X-67932092Y20586319D01*
X-67767759Y20715610D01*
X-67602109Y20851513D01*
X-67437542Y20991920D01*
X-67276453Y21134724D01*
X-67121240Y21277820D01*
X-66974302Y21419099D01*
X-66838034Y21556457D01*
X-66714835Y21687785D01*
X-66607102Y21810978D01*
X-66517232Y21923928D01*
X-66447623Y22024529D01*
X-66400671Y22110674D01*
X-66385537Y22150590D01*
X-66375715Y22196635D01*
X-66381542Y22225362D01*
X-66386134Y22231889D01*
X-66415041Y22247582D01*
X-66470683Y22261061D01*
X-66548110Y22272130D01*
X-66642371Y22280596D01*
X-66748515Y22286265D01*
X-66861593Y22288940D01*
X-66976654Y22288429D01*
X-66976654Y22288429D01*
G37*
X-66976654Y22288429D02*
X-67088747Y22284536D01*
X-67192922Y22277067D01*
X-67277250Y22266909D01*
X-67524873Y22214663D01*
X-67760435Y22135590D01*
X-67981172Y22031043D01*
X-68184322Y21902373D01*
X-68367121Y21750931D01*
X-68402450Y21716576D01*
X-68557559Y21539273D01*
X-68689753Y21341500D01*
X-68798083Y21125712D01*
X-68881602Y20894363D01*
X-68939360Y20649909D01*
X-68970409Y20394804D01*
X-68975830Y20232680D01*
X-68972064Y20143029D01*
X-68958485Y20081957D01*
X-68931772Y20046964D01*
X-68888603Y20035550D01*
X-68825656Y20045213D01*
X-68756207Y20067378D01*
X-68650114Y20112763D01*
X-68528320Y20177398D01*
X-68393224Y20259178D01*
X-68247222Y20355996D01*
X-68092713Y20465745D01*
X-67932092Y20586319D01*
X-67767759Y20715610D01*
X-67602109Y20851513D01*
X-67437542Y20991920D01*
X-67276453Y21134724D01*
X-67121240Y21277820D01*
X-66974302Y21419099D01*
X-66838034Y21556457D01*
X-66714835Y21687785D01*
X-66607102Y21810978D01*
X-66517232Y21923928D01*
X-66447623Y22024529D01*
X-66400671Y22110674D01*
X-66385537Y22150590D01*
X-66375715Y22196635D01*
X-66381542Y22225362D01*
X-66386134Y22231889D01*
X-66415041Y22247582D01*
X-66470683Y22261061D01*
X-66548110Y22272130D01*
X-66642371Y22280596D01*
X-66748515Y22286265D01*
X-66861593Y22288940D01*
X-66976654Y22288429D01*
G36*
X-62205136Y22331211D02*
X-62309116Y22325989D01*
X-62401593Y22318391D01*
X-62477417Y22308602D01*
X-62531438Y22296807D01*
X-62557489Y22284303D01*
X-62567269Y22254120D01*
X-62561236Y22205425D01*
X-62541227Y22146097D01*
X-62511799Y22088470D01*
X-62449238Y21995982D01*
X-62363758Y21887182D01*
X-62257915Y21764715D01*
X-62134263Y21631224D01*
X-61995354Y21489353D01*
X-61843743Y21341746D01*
X-61681984Y21191045D01*
X-61512630Y21039895D01*
X-61429016Y20967637D01*
X-61238438Y20808296D01*
X-61055420Y20662349D01*
X-60881471Y20530713D01*
X-60718099Y20414308D01*
X-60566814Y20314053D01*
X-60429125Y20230864D01*
X-60306542Y20165661D01*
X-60200574Y20119362D01*
X-60112730Y20092886D01*
X-60044519Y20087151D01*
X-60002531Y20099618D01*
X-59986360Y20126294D01*
X-59976422Y20179287D01*
X-59972345Y20253858D01*
X-59973752Y20345270D01*
X-59980270Y20448783D01*
X-59991526Y20559661D01*
X-60007143Y20673166D01*
X-60026749Y20784558D01*
X-60049969Y20889099D01*
X-60070841Y20964438D01*
X-60159070Y21199964D01*
X-60272038Y21416116D01*
X-60408662Y21611990D01*
X-60567858Y21786685D01*
X-60748540Y21939297D01*
X-60949624Y22068923D01*
X-61170027Y22174660D01*
X-61408664Y22255606D01*
X-61664451Y22310857D01*
X-61692984Y22315238D01*
X-61777212Y22324659D01*
X-61875692Y22330782D01*
X-61983273Y22333792D01*
X-62094805Y22333874D01*
X-62205136Y22331211D01*
X-62205136Y22331211D01*
G37*
X-62205136Y22331211D02*
X-62309116Y22325989D01*
X-62401593Y22318391D01*
X-62477417Y22308602D01*
X-62531438Y22296807D01*
X-62557489Y22284303D01*
X-62567269Y22254120D01*
X-62561236Y22205425D01*
X-62541227Y22146097D01*
X-62511799Y22088470D01*
X-62449238Y21995982D01*
X-62363758Y21887182D01*
X-62257915Y21764715D01*
X-62134263Y21631224D01*
X-61995354Y21489353D01*
X-61843743Y21341746D01*
X-61681984Y21191045D01*
X-61512630Y21039895D01*
X-61429016Y20967637D01*
X-61238438Y20808296D01*
X-61055420Y20662349D01*
X-60881471Y20530713D01*
X-60718099Y20414308D01*
X-60566814Y20314053D01*
X-60429125Y20230864D01*
X-60306542Y20165661D01*
X-60200574Y20119362D01*
X-60112730Y20092886D01*
X-60044519Y20087151D01*
X-60002531Y20099618D01*
X-59986360Y20126294D01*
X-59976422Y20179287D01*
X-59972345Y20253858D01*
X-59973752Y20345270D01*
X-59980270Y20448783D01*
X-59991526Y20559661D01*
X-60007143Y20673166D01*
X-60026749Y20784558D01*
X-60049969Y20889099D01*
X-60070841Y20964438D01*
X-60159070Y21199964D01*
X-60272038Y21416116D01*
X-60408662Y21611990D01*
X-60567858Y21786685D01*
X-60748540Y21939297D01*
X-60949624Y22068923D01*
X-61170027Y22174660D01*
X-61408664Y22255606D01*
X-61664451Y22310857D01*
X-61692984Y22315238D01*
X-61777212Y22324659D01*
X-61875692Y22330782D01*
X-61983273Y22333792D01*
X-62094805Y22333874D01*
X-62205136Y22331211D01*
G36*
X-64771559Y22644376D02*
X-64874007Y22630552D01*
X-65067835Y22586046D01*
X-65260813Y22521541D01*
X-65448114Y22439773D01*
X-65624911Y22343476D01*
X-65786377Y22235387D01*
X-65927683Y22118241D01*
X-66044003Y21994773D01*
X-66080648Y21946769D01*
X-66147686Y21841481D01*
X-66190837Y21744100D01*
X-66213250Y21645889D01*
X-66218355Y21564667D01*
X-66216139Y21494374D01*
X-66206126Y21438958D01*
X-66184497Y21381797D01*
X-66168683Y21348482D01*
X-66093619Y21230571D01*
X-65990087Y21121805D01*
X-65860448Y21023747D01*
X-65707066Y20937963D01*
X-65532305Y20866018D01*
X-65364312Y20815801D01*
X-65200977Y20781586D01*
X-65017128Y20754854D01*
X-64823296Y20736419D01*
X-64630009Y20727100D01*
X-64447796Y20727711D01*
X-64324500Y20735199D01*
X-64101226Y20764744D01*
X-63889715Y20810509D01*
X-63692299Y20871187D01*
X-63511308Y20945471D01*
X-63349073Y21032054D01*
X-63207927Y21129627D01*
X-63090201Y21236885D01*
X-62998225Y21352518D01*
X-62934332Y21475221D01*
X-62917709Y21524088D01*
X-62900540Y21630788D01*
X-62911883Y21737279D01*
X-62952373Y21845248D01*
X-63022647Y21956382D01*
X-63123341Y22072370D01*
X-63124925Y22073991D01*
X-63293338Y22224495D01*
X-63484666Y22356827D01*
X-63694224Y22468506D01*
X-63917325Y22557052D01*
X-64149284Y22619984D01*
X-64160994Y22622406D01*
X-64299229Y22642985D01*
X-64455303Y22653600D01*
X-64616865Y22654111D01*
X-64771559Y22644376D01*
X-64771559Y22644376D01*
G37*
X-64771559Y22644376D02*
X-64874007Y22630552D01*
X-65067835Y22586046D01*
X-65260813Y22521541D01*
X-65448114Y22439773D01*
X-65624911Y22343476D01*
X-65786377Y22235387D01*
X-65927683Y22118241D01*
X-66044003Y21994773D01*
X-66080648Y21946769D01*
X-66147686Y21841481D01*
X-66190837Y21744100D01*
X-66213250Y21645889D01*
X-66218355Y21564667D01*
X-66216139Y21494374D01*
X-66206126Y21438958D01*
X-66184497Y21381797D01*
X-66168683Y21348482D01*
X-66093619Y21230571D01*
X-65990087Y21121805D01*
X-65860448Y21023747D01*
X-65707066Y20937963D01*
X-65532305Y20866018D01*
X-65364312Y20815801D01*
X-65200977Y20781586D01*
X-65017128Y20754854D01*
X-64823296Y20736419D01*
X-64630009Y20727100D01*
X-64447796Y20727711D01*
X-64324500Y20735199D01*
X-64101226Y20764744D01*
X-63889715Y20810509D01*
X-63692299Y20871187D01*
X-63511308Y20945471D01*
X-63349073Y21032054D01*
X-63207927Y21129627D01*
X-63090201Y21236885D01*
X-62998225Y21352518D01*
X-62934332Y21475221D01*
X-62917709Y21524088D01*
X-62900540Y21630788D01*
X-62911883Y21737279D01*
X-62952373Y21845248D01*
X-63022647Y21956382D01*
X-63123341Y22072370D01*
X-63124925Y22073991D01*
X-63293338Y22224495D01*
X-63484666Y22356827D01*
X-63694224Y22468506D01*
X-63917325Y22557052D01*
X-64149284Y22619984D01*
X-64160994Y22622406D01*
X-64299229Y22642985D01*
X-64455303Y22653600D01*
X-64616865Y22654111D01*
X-64771559Y22644376D01*
G36*
X-61742352Y26773289D02*
X-61800894Y26747459D01*
X-61873386Y26708399D01*
X-61954379Y26659376D01*
X-62038423Y26603657D01*
X-62120066Y26544506D01*
X-62179935Y26496956D01*
X-62281683Y26412133D01*
X-62318183Y26457908D01*
X-62349658Y26507097D01*
X-62360141Y26555879D01*
X-62351580Y26616430D01*
X-62346557Y26635313D01*
X-62327639Y26702313D01*
X-62372060Y26679342D01*
X-62422857Y26647663D01*
X-62487965Y26599390D01*
X-62559781Y26540901D01*
X-62630699Y26478573D01*
X-62693113Y26418783D01*
X-62729933Y26379252D01*
X-62807018Y26289964D01*
X-62839478Y26322376D01*
X-62858937Y26350670D01*
X-62871493Y26393656D01*
X-62879354Y26459327D01*
X-62880113Y26469488D01*
X-62888289Y26584188D01*
X-63039699Y26433375D01*
X-63108646Y26363498D01*
X-63181180Y26287987D01*
X-63248198Y26216424D01*
X-63296107Y26163501D01*
X-63341281Y26114693D01*
X-63379286Y26078116D01*
X-63405171Y26058282D01*
X-63413312Y26056647D01*
X-63424055Y26077017D01*
X-63440542Y26118760D01*
X-63459229Y26172889D01*
X-63459450Y26173570D01*
X-63493380Y26278286D01*
X-63600103Y26161362D01*
X-63742631Y25990432D01*
X-63872208Y25805702D01*
X-63985641Y25613026D01*
X-64079734Y25418259D01*
X-64151295Y25227255D01*
X-64190563Y25079241D01*
X-64205231Y24980300D01*
X-64211972Y24868409D01*
X-64210821Y24755084D01*
X-64201814Y24651844D01*
X-64189040Y24584493D01*
X-64135202Y24439874D01*
X-64052624Y24308378D01*
X-63941711Y24190542D01*
X-63818431Y24096891D01*
X-63764275Y24062561D01*
X-63719640Y24036203D01*
X-63691494Y24021852D01*
X-63686303Y24020375D01*
X-63668906Y24029664D01*
X-63631721Y24055117D01*
X-63579795Y24093113D01*
X-63518172Y24140033D01*
X-63501809Y24152759D01*
X-63119246Y24433128D01*
X-62709407Y24697928D01*
X-62272174Y24947223D01*
X-61807432Y25181075D01*
X-61315061Y25399548D01*
X-60891248Y25567029D01*
X-60802888Y25599892D01*
X-60724635Y25628504D01*
X-60661380Y25651119D01*
X-60618014Y25665988D01*
X-60599426Y25671362D01*
X-60599406Y25671362D01*
X-60609114Y25664140D01*
X-60643313Y25643778D01*
X-60698555Y25612225D01*
X-60771396Y25571425D01*
X-60858387Y25523325D01*
X-60956083Y25469872D01*
X-60959000Y25468285D01*
X-61307142Y25274604D01*
X-61636202Y25083070D01*
X-61943817Y24895155D01*
X-62227630Y24712328D01*
X-62485281Y24536062D01*
X-62669078Y24402190D01*
X-62771112Y24323242D01*
X-62881002Y24234284D01*
X-62992997Y24140291D01*
X-63101347Y24046238D01*
X-63200300Y23957100D01*
X-63284108Y23877852D01*
X-63336708Y23824574D01*
X-63374174Y23783726D01*
X-63398445Y23750472D01*
X-63409423Y23718485D01*
X-63407014Y23681436D01*
X-63391120Y23632996D01*
X-63361646Y23566837D01*
X-63331846Y23504438D01*
X-63241088Y23346857D01*
X-63128898Y23209039D01*
X-62992840Y23088572D01*
X-62830482Y22983047D01*
X-62775387Y22953483D01*
X-62579949Y22867939D01*
X-62361283Y22799344D01*
X-62123523Y22748546D01*
X-61870802Y22716389D01*
X-61607255Y22703721D01*
X-61554312Y22703596D01*
X-61482803Y22704211D01*
X-61438728Y22705828D01*
X-61417770Y22709448D01*
X-61415611Y22716073D01*
X-61427935Y22726704D01*
X-61434594Y22731364D01*
X-61499238Y22779987D01*
X-61549438Y22825634D01*
X-61578512Y22862227D01*
X-61578684Y22862546D01*
X-61584678Y22881234D01*
X-61578132Y22896333D01*
X-61555666Y22908821D01*
X-61513898Y22919673D01*
X-61449447Y22929867D01*
X-61358931Y22940379D01*
X-61282786Y22948013D01*
X-61168923Y22959647D01*
X-61079767Y22970583D01*
X-61008338Y22982122D01*
X-60947656Y22995566D01*
X-60890740Y23012217D01*
X-60836289Y23031270D01*
X-60792290Y23051319D01*
X-60779669Y23067989D01*
X-60798350Y23082225D01*
X-60831436Y23091564D01*
X-60876303Y23108225D01*
X-60918998Y23134678D01*
X-60949689Y23163748D01*
X-60959000Y23184647D01*
X-60944703Y23196286D01*
X-60905394Y23214902D01*
X-60846444Y23238260D01*
X-60773223Y23264121D01*
X-60748656Y23272236D01*
X-60638378Y23310188D01*
X-60530739Y23351077D01*
X-60431641Y23392359D01*
X-60346984Y23431489D01*
X-60282666Y23465924D01*
X-60252562Y23486145D01*
X-60235381Y23501558D01*
X-60238235Y23509034D01*
X-60265743Y23511579D01*
X-60292250Y23511959D01*
X-60362885Y23517419D01*
X-60427547Y23530963D01*
X-60476627Y23550091D01*
X-60496179Y23564991D01*
X-60500593Y23582852D01*
X-60479922Y23602078D01*
X-60462179Y23612175D01*
X-60329798Y23682545D01*
X-60221874Y23741071D01*
X-60134437Y23790057D01*
X-60063521Y23831807D01*
X-60005158Y23868627D01*
X-59955380Y23902821D01*
X-59931094Y23920690D01*
X-59880322Y23960221D01*
X-59840993Y23993356D01*
X-59818844Y24015137D01*
X-59816000Y24020100D01*
X-59830615Y24026718D01*
X-59869440Y24032957D01*
X-59924941Y24037715D01*
X-59942291Y24038624D01*
X-60018639Y24043728D01*
X-60065957Y24052400D01*
X-60084563Y24067074D01*
X-60074779Y24090184D01*
X-60036922Y24124163D01*
X-59971313Y24171445D01*
X-59960682Y24178750D01*
X-59886236Y24233305D01*
X-59802204Y24300458D01*
X-59721087Y24369997D01*
X-59677534Y24410029D01*
X-59538187Y24542817D01*
X-59644596Y24543534D01*
X-59705994Y24546582D01*
X-59759782Y24553807D01*
X-59790679Y24562327D01*
X-59804345Y24569560D01*
X-59810493Y24578388D01*
X-59806581Y24592163D01*
X-59790068Y24614237D01*
X-59758412Y24647963D01*
X-59709072Y24696693D01*
X-59639507Y24763781D01*
X-59633800Y24769265D01*
X-59546574Y24855626D01*
X-59471297Y24935218D01*
X-59410592Y25004939D01*
X-59367080Y25061690D01*
X-59343385Y25102369D01*
X-59339749Y25116919D01*
X-59353284Y25119514D01*
X-59387828Y25113311D01*
X-59413710Y25106259D01*
X-59464871Y25092899D01*
X-59508187Y25085007D01*
X-59520866Y25084089D01*
X-59568880Y25089301D01*
X-59616877Y25102275D01*
X-59654847Y25119375D01*
X-59672781Y25136964D01*
X-59673124Y25139399D01*
X-59661728Y25157743D01*
X-59630619Y25191775D01*
X-59584424Y25236791D01*
X-59527766Y25288086D01*
X-59522122Y25293015D01*
X-59456449Y25353131D01*
X-59393178Y25416196D01*
X-59340040Y25474213D01*
X-59307934Y25514552D01*
X-59264720Y25576773D01*
X-59240994Y25616969D01*
X-59238502Y25639443D01*
X-59258987Y25648501D01*
X-59304195Y25648445D01*
X-59360669Y25644636D01*
X-59440614Y25639679D01*
X-59493273Y25639923D01*
X-59523001Y25647919D01*
X-59534152Y25666221D01*
X-59532863Y25679313D01*
X-60562125Y25679313D01*
X-60570062Y25671375D01*
X-60578000Y25679313D01*
X-60570062Y25687250D01*
X-60562125Y25679313D01*
X-59532863Y25679313D01*
X-59531082Y25697381D01*
X-59519919Y25737982D01*
X-59490348Y25819160D01*
X-59447298Y25914239D01*
X-59396506Y26011845D01*
X-59343710Y26100605D01*
X-59317227Y26139688D01*
X-59260212Y26219063D01*
X-59619193Y26230035D01*
X-59722784Y26233583D01*
X-59815485Y26237485D01*
X-59892672Y26241488D01*
X-59949723Y26245337D01*
X-59982014Y26248778D01*
X-59987460Y26250294D01*
X-59981401Y26264945D01*
X-59957183Y26295901D01*
X-59919475Y26337403D01*
X-59904045Y26353260D01*
X-59811344Y26446938D01*
X-59873203Y26460001D01*
X-59970530Y26471681D01*
X-60088610Y26471611D01*
X-60218958Y26460416D01*
X-60353087Y26438719D01*
X-60442782Y26418114D01*
X-60522430Y26397681D01*
X-60577020Y26385020D01*
X-60612122Y26379546D01*
X-60633308Y26380675D01*
X-60646150Y26387823D01*
X-60653126Y26396048D01*
X-60669557Y26424859D01*
X-60673250Y26438505D01*
X-60662797Y26469442D01*
X-60636373Y26511724D01*
X-60601380Y26555207D01*
X-60565221Y26589746D01*
X-60560091Y26593573D01*
X-60531224Y26617250D01*
X-60519687Y26633189D01*
X-60520292Y26634960D01*
X-60539765Y26636275D01*
X-60583905Y26630824D01*
X-60646668Y26619880D01*
X-60722006Y26604718D01*
X-60803873Y26586611D01*
X-60886222Y26566834D01*
X-60963007Y26546658D01*
X-61022500Y26529169D01*
X-61100011Y26505025D01*
X-61152670Y26490222D01*
X-61185835Y26484339D01*
X-61204865Y26486952D01*
X-61215120Y26497641D01*
X-61221184Y26513528D01*
X-61220332Y26552602D01*
X-61194714Y26601265D01*
X-61143030Y26661580D01*
X-61103641Y26699890D01*
X-61030437Y26767966D01*
X-61086000Y26757518D01*
X-61233727Y26721489D01*
X-61390895Y26668885D01*
X-61544281Y26604739D01*
X-61680661Y26534086D01*
X-61694558Y26525831D01*
X-61732588Y26503963D01*
X-61753754Y26498027D01*
X-61768218Y26507291D01*
X-61777902Y26519836D01*
X-61798823Y26572241D01*
X-61790004Y26632433D01*
X-61751261Y26701468D01*
X-61744917Y26709972D01*
X-61717519Y26748648D01*
X-61702917Y26775001D01*
X-61703211Y26782625D01*
X-61742352Y26773289D01*
X-61742352Y26773289D01*
G37*
X-61742352Y26773289D02*
X-61800894Y26747459D01*
X-61873386Y26708399D01*
X-61954379Y26659376D01*
X-62038423Y26603657D01*
X-62120066Y26544506D01*
X-62179935Y26496956D01*
X-62281683Y26412133D01*
X-62318183Y26457908D01*
X-62349658Y26507097D01*
X-62360141Y26555879D01*
X-62351580Y26616430D01*
X-62346557Y26635313D01*
X-62327639Y26702313D01*
X-62372060Y26679342D01*
X-62422857Y26647663D01*
X-62487965Y26599390D01*
X-62559781Y26540901D01*
X-62630699Y26478573D01*
X-62693113Y26418783D01*
X-62729933Y26379252D01*
X-62807018Y26289964D01*
X-62839478Y26322376D01*
X-62858937Y26350670D01*
X-62871493Y26393656D01*
X-62879354Y26459327D01*
X-62880113Y26469488D01*
X-62888289Y26584188D01*
X-63039699Y26433375D01*
X-63108646Y26363498D01*
X-63181180Y26287987D01*
X-63248198Y26216424D01*
X-63296107Y26163501D01*
X-63341281Y26114693D01*
X-63379286Y26078116D01*
X-63405171Y26058282D01*
X-63413312Y26056647D01*
X-63424055Y26077017D01*
X-63440542Y26118760D01*
X-63459229Y26172889D01*
X-63459450Y26173570D01*
X-63493380Y26278286D01*
X-63600103Y26161362D01*
X-63742631Y25990432D01*
X-63872208Y25805702D01*
X-63985641Y25613026D01*
X-64079734Y25418259D01*
X-64151295Y25227255D01*
X-64190563Y25079241D01*
X-64205231Y24980300D01*
X-64211972Y24868409D01*
X-64210821Y24755084D01*
X-64201814Y24651844D01*
X-64189040Y24584493D01*
X-64135202Y24439874D01*
X-64052624Y24308378D01*
X-63941711Y24190542D01*
X-63818431Y24096891D01*
X-63764275Y24062561D01*
X-63719640Y24036203D01*
X-63691494Y24021852D01*
X-63686303Y24020375D01*
X-63668906Y24029664D01*
X-63631721Y24055117D01*
X-63579795Y24093113D01*
X-63518172Y24140033D01*
X-63501809Y24152759D01*
X-63119246Y24433128D01*
X-62709407Y24697928D01*
X-62272174Y24947223D01*
X-61807432Y25181075D01*
X-61315061Y25399548D01*
X-60891248Y25567029D01*
X-60802888Y25599892D01*
X-60724635Y25628504D01*
X-60661380Y25651119D01*
X-60618014Y25665988D01*
X-60599426Y25671362D01*
X-60599406Y25671362D01*
X-60609114Y25664140D01*
X-60643313Y25643778D01*
X-60698555Y25612225D01*
X-60771396Y25571425D01*
X-60858387Y25523325D01*
X-60956083Y25469872D01*
X-60959000Y25468285D01*
X-61307142Y25274604D01*
X-61636202Y25083070D01*
X-61943817Y24895155D01*
X-62227630Y24712328D01*
X-62485281Y24536062D01*
X-62669078Y24402190D01*
X-62771112Y24323242D01*
X-62881002Y24234284D01*
X-62992997Y24140291D01*
X-63101347Y24046238D01*
X-63200300Y23957100D01*
X-63284108Y23877852D01*
X-63336708Y23824574D01*
X-63374174Y23783726D01*
X-63398445Y23750472D01*
X-63409423Y23718485D01*
X-63407014Y23681436D01*
X-63391120Y23632996D01*
X-63361646Y23566837D01*
X-63331846Y23504438D01*
X-63241088Y23346857D01*
X-63128898Y23209039D01*
X-62992840Y23088572D01*
X-62830482Y22983047D01*
X-62775387Y22953483D01*
X-62579949Y22867939D01*
X-62361283Y22799344D01*
X-62123523Y22748546D01*
X-61870802Y22716389D01*
X-61607255Y22703721D01*
X-61554312Y22703596D01*
X-61482803Y22704211D01*
X-61438728Y22705828D01*
X-61417770Y22709448D01*
X-61415611Y22716073D01*
X-61427935Y22726704D01*
X-61434594Y22731364D01*
X-61499238Y22779987D01*
X-61549438Y22825634D01*
X-61578512Y22862227D01*
X-61578684Y22862546D01*
X-61584678Y22881234D01*
X-61578132Y22896333D01*
X-61555666Y22908821D01*
X-61513898Y22919673D01*
X-61449447Y22929867D01*
X-61358931Y22940379D01*
X-61282786Y22948013D01*
X-61168923Y22959647D01*
X-61079767Y22970583D01*
X-61008338Y22982122D01*
X-60947656Y22995566D01*
X-60890740Y23012217D01*
X-60836289Y23031270D01*
X-60792290Y23051319D01*
X-60779669Y23067989D01*
X-60798350Y23082225D01*
X-60831436Y23091564D01*
X-60876303Y23108225D01*
X-60918998Y23134678D01*
X-60949689Y23163748D01*
X-60959000Y23184647D01*
X-60944703Y23196286D01*
X-60905394Y23214902D01*
X-60846444Y23238260D01*
X-60773223Y23264121D01*
X-60748656Y23272236D01*
X-60638378Y23310188D01*
X-60530739Y23351077D01*
X-60431641Y23392359D01*
X-60346984Y23431489D01*
X-60282666Y23465924D01*
X-60252562Y23486145D01*
X-60235381Y23501558D01*
X-60238235Y23509034D01*
X-60265743Y23511579D01*
X-60292250Y23511959D01*
X-60362885Y23517419D01*
X-60427547Y23530963D01*
X-60476627Y23550091D01*
X-60496179Y23564991D01*
X-60500593Y23582852D01*
X-60479922Y23602078D01*
X-60462179Y23612175D01*
X-60329798Y23682545D01*
X-60221874Y23741071D01*
X-60134437Y23790057D01*
X-60063521Y23831807D01*
X-60005158Y23868627D01*
X-59955380Y23902821D01*
X-59931094Y23920690D01*
X-59880322Y23960221D01*
X-59840993Y23993356D01*
X-59818844Y24015137D01*
X-59816000Y24020100D01*
X-59830615Y24026718D01*
X-59869440Y24032957D01*
X-59924941Y24037715D01*
X-59942291Y24038624D01*
X-60018639Y24043728D01*
X-60065957Y24052400D01*
X-60084563Y24067074D01*
X-60074779Y24090184D01*
X-60036922Y24124163D01*
X-59971313Y24171445D01*
X-59960682Y24178750D01*
X-59886236Y24233305D01*
X-59802204Y24300458D01*
X-59721087Y24369997D01*
X-59677534Y24410029D01*
X-59538187Y24542817D01*
X-59644596Y24543534D01*
X-59705994Y24546582D01*
X-59759782Y24553807D01*
X-59790679Y24562327D01*
X-59804345Y24569560D01*
X-59810493Y24578388D01*
X-59806581Y24592163D01*
X-59790068Y24614237D01*
X-59758412Y24647963D01*
X-59709072Y24696693D01*
X-59639507Y24763781D01*
X-59633800Y24769265D01*
X-59546574Y24855626D01*
X-59471297Y24935218D01*
X-59410592Y25004939D01*
X-59367080Y25061690D01*
X-59343385Y25102369D01*
X-59339749Y25116919D01*
X-59353284Y25119514D01*
X-59387828Y25113311D01*
X-59413710Y25106259D01*
X-59464871Y25092899D01*
X-59508187Y25085007D01*
X-59520866Y25084089D01*
X-59568880Y25089301D01*
X-59616877Y25102275D01*
X-59654847Y25119375D01*
X-59672781Y25136964D01*
X-59673124Y25139399D01*
X-59661728Y25157743D01*
X-59630619Y25191775D01*
X-59584424Y25236791D01*
X-59527766Y25288086D01*
X-59522122Y25293015D01*
X-59456449Y25353131D01*
X-59393178Y25416196D01*
X-59340040Y25474213D01*
X-59307934Y25514552D01*
X-59264720Y25576773D01*
X-59240994Y25616969D01*
X-59238502Y25639443D01*
X-59258987Y25648501D01*
X-59304195Y25648445D01*
X-59360669Y25644636D01*
X-59440614Y25639679D01*
X-59493273Y25639923D01*
X-59523001Y25647919D01*
X-59534152Y25666221D01*
X-59532863Y25679313D01*
X-60562125Y25679313D01*
X-60570062Y25671375D01*
X-60578000Y25679313D01*
X-60570062Y25687250D01*
X-60562125Y25679313D01*
X-59532863Y25679313D01*
X-59531082Y25697381D01*
X-59519919Y25737982D01*
X-59490348Y25819160D01*
X-59447298Y25914239D01*
X-59396506Y26011845D01*
X-59343710Y26100605D01*
X-59317227Y26139688D01*
X-59260212Y26219063D01*
X-59619193Y26230035D01*
X-59722784Y26233583D01*
X-59815485Y26237485D01*
X-59892672Y26241488D01*
X-59949723Y26245337D01*
X-59982014Y26248778D01*
X-59987460Y26250294D01*
X-59981401Y26264945D01*
X-59957183Y26295901D01*
X-59919475Y26337403D01*
X-59904045Y26353260D01*
X-59811344Y26446938D01*
X-59873203Y26460001D01*
X-59970530Y26471681D01*
X-60088610Y26471611D01*
X-60218958Y26460416D01*
X-60353087Y26438719D01*
X-60442782Y26418114D01*
X-60522430Y26397681D01*
X-60577020Y26385020D01*
X-60612122Y26379546D01*
X-60633308Y26380675D01*
X-60646150Y26387823D01*
X-60653126Y26396048D01*
X-60669557Y26424859D01*
X-60673250Y26438505D01*
X-60662797Y26469442D01*
X-60636373Y26511724D01*
X-60601380Y26555207D01*
X-60565221Y26589746D01*
X-60560091Y26593573D01*
X-60531224Y26617250D01*
X-60519687Y26633189D01*
X-60520292Y26634960D01*
X-60539765Y26636275D01*
X-60583905Y26630824D01*
X-60646668Y26619880D01*
X-60722006Y26604718D01*
X-60803873Y26586611D01*
X-60886222Y26566834D01*
X-60963007Y26546658D01*
X-61022500Y26529169D01*
X-61100011Y26505025D01*
X-61152670Y26490222D01*
X-61185835Y26484339D01*
X-61204865Y26486952D01*
X-61215120Y26497641D01*
X-61221184Y26513528D01*
X-61220332Y26552602D01*
X-61194714Y26601265D01*
X-61143030Y26661580D01*
X-61103641Y26699890D01*
X-61030437Y26767966D01*
X-61086000Y26757518D01*
X-61233727Y26721489D01*
X-61390895Y26668885D01*
X-61544281Y26604739D01*
X-61680661Y26534086D01*
X-61694558Y26525831D01*
X-61732588Y26503963D01*
X-61753754Y26498027D01*
X-61768218Y26507291D01*
X-61777902Y26519836D01*
X-61798823Y26572241D01*
X-61790004Y26632433D01*
X-61751261Y26701468D01*
X-61744917Y26709972D01*
X-61717519Y26748648D01*
X-61702917Y26775001D01*
X-61703211Y26782625D01*
X-61742352Y26773289D01*
G36*
X-67445373Y26778544D02*
X-67441230Y26762796D01*
X-67421294Y26733207D01*
X-67413286Y26723327D01*
X-67366504Y26653688D01*
X-67349792Y26591962D01*
X-67356038Y26553980D01*
X-67372362Y26521544D01*
X-67385088Y26506844D01*
X-67403978Y26510234D01*
X-67445149Y26525948D01*
X-67502782Y26551532D01*
X-67571058Y26584530D01*
X-67580536Y26589299D01*
X-67706693Y26648125D01*
X-67832409Y26695555D01*
X-67970093Y26735940D01*
X-68062650Y26758382D01*
X-68084279Y26762216D01*
X-68091428Y26758232D01*
X-68082051Y26742470D01*
X-68054102Y26710971D01*
X-68018993Y26673874D01*
X-67964276Y26609173D01*
X-67933162Y26555454D01*
X-67926460Y26514925D01*
X-67944982Y26489798D01*
X-67950583Y26487261D01*
X-67974569Y26488203D01*
X-68020887Y26497731D01*
X-68081855Y26514086D01*
X-68123151Y26526727D01*
X-68189353Y26546405D01*
X-68268842Y26567713D01*
X-68354340Y26588968D01*
X-68438568Y26608483D01*
X-68514247Y26624575D01*
X-68574097Y26635558D01*
X-68610839Y26639747D01*
X-68611447Y26639751D01*
X-68611426Y26629425D01*
X-68592990Y26602258D01*
X-68560069Y26563967D01*
X-68557359Y26561056D01*
X-68508138Y26500090D01*
X-68485866Y26449560D01*
X-68489199Y26405499D01*
X-68498428Y26387144D01*
X-68509560Y26377822D01*
X-68530717Y26375838D01*
X-68567774Y26381874D01*
X-68626607Y26396614D01*
X-68660903Y26406032D01*
X-68825482Y26445846D01*
X-68974824Y26469775D01*
X-69104500Y26477225D01*
X-69166375Y26474027D01*
X-69246058Y26465713D01*
X-69296532Y26457561D01*
X-69320101Y26445883D01*
X-69319074Y26426992D01*
X-69295754Y26397199D01*
X-69252449Y26352816D01*
X-69246139Y26346456D01*
X-69148389Y26247830D01*
X-69318601Y26237415D01*
X-69408457Y26233036D01*
X-69514469Y26229564D01*
X-69621048Y26227444D01*
X-69684782Y26227001D01*
X-69759451Y26226332D01*
X-69821017Y26224509D01*
X-69863431Y26221802D01*
X-69880642Y26218484D01*
X-69880750Y26218192D01*
X-69872482Y26201594D01*
X-69850778Y26166427D01*
X-69820289Y26120215D01*
X-69819447Y26118973D01*
X-69728808Y25968473D01*
X-69657876Y25815501D01*
X-69640527Y25768466D01*
X-69620714Y25709711D01*
X-69612401Y25671446D01*
X-69619689Y25649713D01*
X-69646684Y25640552D01*
X-69697489Y25640007D01*
X-69769804Y25643766D01*
X-69928733Y25652524D01*
X-69893521Y25586543D01*
X-69870414Y25553466D01*
X-69828838Y25503850D01*
X-69773470Y25442891D01*
X-69708987Y25375785D01*
X-69659693Y25326730D01*
X-69461077Y25132898D01*
X-69524070Y25106219D01*
X-69565216Y25091841D01*
X-69605136Y25087223D01*
X-69656691Y25091636D01*
X-69689756Y25096816D01*
X-69743079Y25104671D01*
X-69782576Y25108398D01*
X-69799235Y25107307D01*
X-69797230Y25087722D01*
X-69773936Y25049570D01*
X-69731623Y24995573D01*
X-69672558Y24928450D01*
X-69599012Y24850922D01*
X-69518902Y24771184D01*
X-69319298Y24577430D01*
X-69362932Y24560840D01*
X-69401925Y24552057D01*
X-69459020Y24546043D01*
X-69510664Y24544251D01*
X-69565657Y24543561D01*
X-69594314Y24540332D01*
X-69602040Y24532822D01*
X-69594239Y24519292D01*
X-69592975Y24517737D01*
X-69559352Y24482628D01*
X-69506193Y24433791D01*
X-69439569Y24376267D01*
X-69365552Y24315097D01*
X-69290213Y24255320D01*
X-69219625Y24201979D01*
X-69171915Y24168181D01*
X-69036519Y24076210D01*
X-69081603Y24056946D01*
X-69120770Y24046902D01*
X-69178558Y24039675D01*
X-69236813Y24036967D01*
X-69346940Y24036250D01*
X-69300313Y23987501D01*
X-69239537Y23934302D01*
X-69149910Y23871323D01*
X-69032552Y23799277D01*
X-68888578Y23718876D01*
X-68829812Y23687690D01*
X-68619570Y23577482D01*
X-68690566Y23545277D01*
X-68756967Y23523785D01*
X-68828572Y23513072D01*
X-68840370Y23512724D01*
X-68885779Y23511425D01*
X-68904656Y23506605D01*
X-68902189Y23496080D01*
X-68895933Y23489329D01*
X-68852657Y23457478D01*
X-68782894Y23419891D01*
X-68690970Y23378484D01*
X-68581209Y23335174D01*
X-68457940Y23291878D01*
X-68428187Y23282141D01*
X-68346417Y23255502D01*
X-68275735Y23232024D01*
X-68221474Y23213514D01*
X-68188964Y23201778D01*
X-68182135Y23198755D01*
X-68185573Y23184502D01*
X-68208686Y23160618D01*
X-68243545Y23133151D01*
X-68282216Y23108150D01*
X-68316768Y23091665D01*
X-68325894Y23089128D01*
X-68358859Y23078800D01*
X-68372624Y23067064D01*
X-68372625Y23067032D01*
X-68357717Y23050412D01*
X-68316474Y23031686D01*
X-68254118Y23012255D01*
X-68175870Y22993517D01*
X-68086950Y22976874D01*
X-67992580Y22963725D01*
X-67983687Y22962727D01*
X-67839988Y22946407D01*
X-67727251Y22932396D01*
X-67644780Y22920593D01*
X-67591878Y22910898D01*
X-67567850Y22903209D01*
X-67566884Y22902427D01*
X-67563845Y22879285D01*
X-67582458Y22845102D01*
X-67617821Y22806240D01*
X-67665034Y22769065D01*
X-67674066Y22763258D01*
X-67716432Y22736059D01*
X-67745249Y22715906D01*
X-67753500Y22708315D01*
X-67738783Y22706299D01*
X-67699240Y22705143D01*
X-67641781Y22704771D01*
X-67573315Y22705109D01*
X-67500753Y22706081D01*
X-67431004Y22707612D01*
X-67370979Y22709627D01*
X-67327587Y22712052D01*
X-67316937Y22713060D01*
X-67280155Y22717325D01*
X-67221851Y22724060D01*
X-67152045Y22732108D01*
X-67118500Y22735971D01*
X-66895814Y22772477D01*
X-66683383Y22828714D01*
X-66484981Y22902999D01*
X-66304382Y22993647D01*
X-66145358Y23098975D01*
X-66011685Y23217298D01*
X-65991421Y23238950D01*
X-65936164Y23307582D01*
X-65880427Y23390263D01*
X-65828665Y23478945D01*
X-65785331Y23565574D01*
X-65754880Y23642101D01*
X-65743242Y23687587D01*
X-65740866Y23708784D01*
X-65743232Y23728064D01*
X-65753386Y23749419D01*
X-65774372Y23776840D01*
X-65809237Y23814321D01*
X-65861024Y23865853D01*
X-65930938Y23933650D01*
X-66094638Y24085830D01*
X-66266180Y24233126D01*
X-66449958Y24378902D01*
X-66650367Y24526523D01*
X-66871804Y24679354D01*
X-67100669Y24829246D01*
X-67256073Y24927064D01*
X-67426985Y25031497D01*
X-67607373Y25139064D01*
X-67791206Y25246284D01*
X-67972450Y25349675D01*
X-68145076Y25445755D01*
X-68303051Y25531043D01*
X-68434445Y25599092D01*
X-68486949Y25626624D01*
X-68525390Y25648890D01*
X-68543551Y25662205D01*
X-68544026Y25664015D01*
X-68527047Y25661360D01*
X-68485013Y25648525D01*
X-68422337Y25627144D01*
X-68343433Y25598851D01*
X-68252717Y25565282D01*
X-68154602Y25528070D01*
X-68053502Y25488849D01*
X-67953832Y25449254D01*
X-67860007Y25410919D01*
X-67856687Y25409539D01*
X-67390433Y25203665D01*
X-66947003Y24983715D01*
X-66528021Y24750618D01*
X-66135109Y24505306D01*
X-65769892Y24248711D01*
X-65587698Y24108129D01*
X-65537569Y24068991D01*
X-65496915Y24038846D01*
X-65471948Y24022231D01*
X-65467545Y24020375D01*
X-65442510Y24029587D01*
X-65399750Y24054048D01*
X-65346190Y24089000D01*
X-65288754Y24129681D01*
X-65234370Y24171331D01*
X-65189961Y24209191D01*
X-65182383Y24216377D01*
X-65087611Y24322227D01*
X-65017601Y24433734D01*
X-64972189Y24541824D01*
X-64955081Y24597374D01*
X-64944277Y24651027D01*
X-64938560Y24712695D01*
X-64936709Y24792292D01*
X-64936771Y24830000D01*
X-64950185Y25012893D01*
X-64988875Y25197427D01*
X-65053754Y25386123D01*
X-65145739Y25581504D01*
X-65203111Y25679313D01*
X-68563125Y25679313D01*
X-68571062Y25671375D01*
X-68579000Y25679313D01*
X-68571062Y25687250D01*
X-68563125Y25679313D01*
X-65203111Y25679313D01*
X-65265744Y25786089D01*
X-65306179Y25847893D01*
X-65355832Y25919346D01*
X-65410799Y25993825D01*
X-65467483Y26066971D01*
X-65522287Y26134425D01*
X-65571612Y26191828D01*
X-65611861Y26234821D01*
X-65639437Y26259044D01*
X-65648551Y26262731D01*
X-65660294Y26247521D01*
X-65677528Y26210136D01*
X-65695962Y26160267D01*
X-65715443Y26109575D01*
X-65734047Y26073608D01*
X-65747445Y26060313D01*
X-65763900Y26071683D01*
X-65796630Y26102885D01*
X-65841352Y26149555D01*
X-65893782Y26207331D01*
X-65911093Y26227000D01*
X-65970209Y26292982D01*
X-66033202Y26360459D01*
X-66095917Y26425298D01*
X-66154204Y26483368D01*
X-66203909Y26530537D01*
X-66240880Y26562672D01*
X-66260965Y26575643D01*
X-66261554Y26575723D01*
X-66265731Y26561535D01*
X-66268590Y26523934D01*
X-66269492Y26474383D01*
X-66271413Y26413514D01*
X-66279398Y26373727D01*
X-66296106Y26344535D01*
X-66304999Y26334355D01*
X-66340811Y26296193D01*
X-66495499Y26448693D01*
X-66561435Y26511172D01*
X-66626382Y26568245D01*
X-66686765Y26617318D01*
X-66739008Y26655795D01*
X-66779538Y26681081D01*
X-66804779Y26690582D01*
X-66811157Y26681702D01*
X-66809523Y26676645D01*
X-66788505Y26591859D01*
X-66797152Y26516606D01*
X-66818760Y26473225D01*
X-66843772Y26439002D01*
X-66861398Y26419402D01*
X-66864612Y26417609D01*
X-66879875Y26426973D01*
X-66912531Y26451733D01*
X-66955786Y26486718D01*
X-66959862Y26490104D01*
X-67022307Y26539947D01*
X-67092692Y26593000D01*
X-67139492Y26626413D01*
X-67192753Y26660539D01*
X-67253609Y26695570D01*
X-67315516Y26728251D01*
X-67371933Y26755328D01*
X-67416317Y26773549D01*
X-67442126Y26779658D01*
X-67445373Y26778544D01*
X-67445373Y26778544D01*
G37*
X-67445373Y26778544D02*
X-67441230Y26762796D01*
X-67421294Y26733207D01*
X-67413286Y26723327D01*
X-67366504Y26653688D01*
X-67349792Y26591962D01*
X-67356038Y26553980D01*
X-67372362Y26521544D01*
X-67385088Y26506844D01*
X-67403978Y26510234D01*
X-67445149Y26525948D01*
X-67502782Y26551532D01*
X-67571058Y26584530D01*
X-67580536Y26589299D01*
X-67706693Y26648125D01*
X-67832409Y26695555D01*
X-67970093Y26735940D01*
X-68062650Y26758382D01*
X-68084279Y26762216D01*
X-68091428Y26758232D01*
X-68082051Y26742470D01*
X-68054102Y26710971D01*
X-68018993Y26673874D01*
X-67964276Y26609173D01*
X-67933162Y26555454D01*
X-67926460Y26514925D01*
X-67944982Y26489798D01*
X-67950583Y26487261D01*
X-67974569Y26488203D01*
X-68020887Y26497731D01*
X-68081855Y26514086D01*
X-68123151Y26526727D01*
X-68189353Y26546405D01*
X-68268842Y26567713D01*
X-68354340Y26588968D01*
X-68438568Y26608483D01*
X-68514247Y26624575D01*
X-68574097Y26635558D01*
X-68610839Y26639747D01*
X-68611447Y26639751D01*
X-68611426Y26629425D01*
X-68592990Y26602258D01*
X-68560069Y26563967D01*
X-68557359Y26561056D01*
X-68508138Y26500090D01*
X-68485866Y26449560D01*
X-68489199Y26405499D01*
X-68498428Y26387144D01*
X-68509560Y26377822D01*
X-68530717Y26375838D01*
X-68567774Y26381874D01*
X-68626607Y26396614D01*
X-68660903Y26406032D01*
X-68825482Y26445846D01*
X-68974824Y26469775D01*
X-69104500Y26477225D01*
X-69166375Y26474027D01*
X-69246058Y26465713D01*
X-69296532Y26457561D01*
X-69320101Y26445883D01*
X-69319074Y26426992D01*
X-69295754Y26397199D01*
X-69252449Y26352816D01*
X-69246139Y26346456D01*
X-69148389Y26247830D01*
X-69318601Y26237415D01*
X-69408457Y26233036D01*
X-69514469Y26229564D01*
X-69621048Y26227444D01*
X-69684782Y26227001D01*
X-69759451Y26226332D01*
X-69821017Y26224509D01*
X-69863431Y26221802D01*
X-69880642Y26218484D01*
X-69880750Y26218192D01*
X-69872482Y26201594D01*
X-69850778Y26166427D01*
X-69820289Y26120215D01*
X-69819447Y26118973D01*
X-69728808Y25968473D01*
X-69657876Y25815501D01*
X-69640527Y25768466D01*
X-69620714Y25709711D01*
X-69612401Y25671446D01*
X-69619689Y25649713D01*
X-69646684Y25640552D01*
X-69697489Y25640007D01*
X-69769804Y25643766D01*
X-69928733Y25652524D01*
X-69893521Y25586543D01*
X-69870414Y25553466D01*
X-69828838Y25503850D01*
X-69773470Y25442891D01*
X-69708987Y25375785D01*
X-69659693Y25326730D01*
X-69461077Y25132898D01*
X-69524070Y25106219D01*
X-69565216Y25091841D01*
X-69605136Y25087223D01*
X-69656691Y25091636D01*
X-69689756Y25096816D01*
X-69743079Y25104671D01*
X-69782576Y25108398D01*
X-69799235Y25107307D01*
X-69797230Y25087722D01*
X-69773936Y25049570D01*
X-69731623Y24995573D01*
X-69672558Y24928450D01*
X-69599012Y24850922D01*
X-69518902Y24771184D01*
X-69319298Y24577430D01*
X-69362932Y24560840D01*
X-69401925Y24552057D01*
X-69459020Y24546043D01*
X-69510664Y24544251D01*
X-69565657Y24543561D01*
X-69594314Y24540332D01*
X-69602040Y24532822D01*
X-69594239Y24519292D01*
X-69592975Y24517737D01*
X-69559352Y24482628D01*
X-69506193Y24433791D01*
X-69439569Y24376267D01*
X-69365552Y24315097D01*
X-69290213Y24255320D01*
X-69219625Y24201979D01*
X-69171915Y24168181D01*
X-69036519Y24076210D01*
X-69081603Y24056946D01*
X-69120770Y24046902D01*
X-69178558Y24039675D01*
X-69236813Y24036967D01*
X-69346940Y24036250D01*
X-69300313Y23987501D01*
X-69239537Y23934302D01*
X-69149910Y23871323D01*
X-69032552Y23799277D01*
X-68888578Y23718876D01*
X-68829812Y23687690D01*
X-68619570Y23577482D01*
X-68690566Y23545277D01*
X-68756967Y23523785D01*
X-68828572Y23513072D01*
X-68840370Y23512724D01*
X-68885779Y23511425D01*
X-68904656Y23506605D01*
X-68902189Y23496080D01*
X-68895933Y23489329D01*
X-68852657Y23457478D01*
X-68782894Y23419891D01*
X-68690970Y23378484D01*
X-68581209Y23335174D01*
X-68457940Y23291878D01*
X-68428187Y23282141D01*
X-68346417Y23255502D01*
X-68275735Y23232024D01*
X-68221474Y23213514D01*
X-68188964Y23201778D01*
X-68182135Y23198755D01*
X-68185573Y23184502D01*
X-68208686Y23160618D01*
X-68243545Y23133151D01*
X-68282216Y23108150D01*
X-68316768Y23091665D01*
X-68325894Y23089128D01*
X-68358859Y23078800D01*
X-68372624Y23067064D01*
X-68372625Y23067032D01*
X-68357717Y23050412D01*
X-68316474Y23031686D01*
X-68254118Y23012255D01*
X-68175870Y22993517D01*
X-68086950Y22976874D01*
X-67992580Y22963725D01*
X-67983687Y22962727D01*
X-67839988Y22946407D01*
X-67727251Y22932396D01*
X-67644780Y22920593D01*
X-67591878Y22910898D01*
X-67567850Y22903209D01*
X-67566884Y22902427D01*
X-67563845Y22879285D01*
X-67582458Y22845102D01*
X-67617821Y22806240D01*
X-67665034Y22769065D01*
X-67674066Y22763258D01*
X-67716432Y22736059D01*
X-67745249Y22715906D01*
X-67753500Y22708315D01*
X-67738783Y22706299D01*
X-67699240Y22705143D01*
X-67641781Y22704771D01*
X-67573315Y22705109D01*
X-67500753Y22706081D01*
X-67431004Y22707612D01*
X-67370979Y22709627D01*
X-67327587Y22712052D01*
X-67316937Y22713060D01*
X-67280155Y22717325D01*
X-67221851Y22724060D01*
X-67152045Y22732108D01*
X-67118500Y22735971D01*
X-66895814Y22772477D01*
X-66683383Y22828714D01*
X-66484981Y22902999D01*
X-66304382Y22993647D01*
X-66145358Y23098975D01*
X-66011685Y23217298D01*
X-65991421Y23238950D01*
X-65936164Y23307582D01*
X-65880427Y23390263D01*
X-65828665Y23478945D01*
X-65785331Y23565574D01*
X-65754880Y23642101D01*
X-65743242Y23687587D01*
X-65740866Y23708784D01*
X-65743232Y23728064D01*
X-65753386Y23749419D01*
X-65774372Y23776840D01*
X-65809237Y23814321D01*
X-65861024Y23865853D01*
X-65930938Y23933650D01*
X-66094638Y24085830D01*
X-66266180Y24233126D01*
X-66449958Y24378902D01*
X-66650367Y24526523D01*
X-66871804Y24679354D01*
X-67100669Y24829246D01*
X-67256073Y24927064D01*
X-67426985Y25031497D01*
X-67607373Y25139064D01*
X-67791206Y25246284D01*
X-67972450Y25349675D01*
X-68145076Y25445755D01*
X-68303051Y25531043D01*
X-68434445Y25599092D01*
X-68486949Y25626624D01*
X-68525390Y25648890D01*
X-68543551Y25662205D01*
X-68544026Y25664015D01*
X-68527047Y25661360D01*
X-68485013Y25648525D01*
X-68422337Y25627144D01*
X-68343433Y25598851D01*
X-68252717Y25565282D01*
X-68154602Y25528070D01*
X-68053502Y25488849D01*
X-67953832Y25449254D01*
X-67860007Y25410919D01*
X-67856687Y25409539D01*
X-67390433Y25203665D01*
X-66947003Y24983715D01*
X-66528021Y24750618D01*
X-66135109Y24505306D01*
X-65769892Y24248711D01*
X-65587698Y24108129D01*
X-65537569Y24068991D01*
X-65496915Y24038846D01*
X-65471948Y24022231D01*
X-65467545Y24020375D01*
X-65442510Y24029587D01*
X-65399750Y24054048D01*
X-65346190Y24089000D01*
X-65288754Y24129681D01*
X-65234370Y24171331D01*
X-65189961Y24209191D01*
X-65182383Y24216377D01*
X-65087611Y24322227D01*
X-65017601Y24433734D01*
X-64972189Y24541824D01*
X-64955081Y24597374D01*
X-64944277Y24651027D01*
X-64938560Y24712695D01*
X-64936709Y24792292D01*
X-64936771Y24830000D01*
X-64950185Y25012893D01*
X-64988875Y25197427D01*
X-65053754Y25386123D01*
X-65145739Y25581504D01*
X-65203111Y25679313D01*
X-68563125Y25679313D01*
X-68571062Y25671375D01*
X-68579000Y25679313D01*
X-68571062Y25687250D01*
X-68563125Y25679313D01*
X-65203111Y25679313D01*
X-65265744Y25786089D01*
X-65306179Y25847893D01*
X-65355832Y25919346D01*
X-65410799Y25993825D01*
X-65467483Y26066971D01*
X-65522287Y26134425D01*
X-65571612Y26191828D01*
X-65611861Y26234821D01*
X-65639437Y26259044D01*
X-65648551Y26262731D01*
X-65660294Y26247521D01*
X-65677528Y26210136D01*
X-65695962Y26160267D01*
X-65715443Y26109575D01*
X-65734047Y26073608D01*
X-65747445Y26060313D01*
X-65763900Y26071683D01*
X-65796630Y26102885D01*
X-65841352Y26149555D01*
X-65893782Y26207331D01*
X-65911093Y26227000D01*
X-65970209Y26292982D01*
X-66033202Y26360459D01*
X-66095917Y26425298D01*
X-66154204Y26483368D01*
X-66203909Y26530537D01*
X-66240880Y26562672D01*
X-66260965Y26575643D01*
X-66261554Y26575723D01*
X-66265731Y26561535D01*
X-66268590Y26523934D01*
X-66269492Y26474383D01*
X-66271413Y26413514D01*
X-66279398Y26373727D01*
X-66296106Y26344535D01*
X-66304999Y26334355D01*
X-66340811Y26296193D01*
X-66495499Y26448693D01*
X-66561435Y26511172D01*
X-66626382Y26568245D01*
X-66686765Y26617318D01*
X-66739008Y26655795D01*
X-66779538Y26681081D01*
X-66804779Y26690582D01*
X-66811157Y26681702D01*
X-66809523Y26676645D01*
X-66788505Y26591859D01*
X-66797152Y26516606D01*
X-66818760Y26473225D01*
X-66843772Y26439002D01*
X-66861398Y26419402D01*
X-66864612Y26417609D01*
X-66879875Y26426973D01*
X-66912531Y26451733D01*
X-66955786Y26486718D01*
X-66959862Y26490104D01*
X-67022307Y26539947D01*
X-67092692Y26593000D01*
X-67139492Y26626413D01*
X-67192753Y26660539D01*
X-67253609Y26695570D01*
X-67315516Y26728251D01*
X-67371933Y26755328D01*
X-67416317Y26773549D01*
X-67442126Y26779658D01*
X-67445373Y26778544D01*
M02*
