G04 #@! TF.FileFunction,Legend,Top*
%FSLAX46Y46*%
G04 Gerber Fmt 4.6, Leading zero omitted, Abs format (unit mm)*
G04 Created by KiCad (PCBNEW 4.0.1-stable) date 19-02-2017 19:17:03*
%MOMM*%
G01*
G04 APERTURE LIST*
%ADD10C,0.100000*%
%ADD11C,0.150000*%
%ADD12C,0.300000*%
%ADD13C,0.350000*%
%ADD14C,0.120000*%
%ADD15C,0.010000*%
G04 APERTURE END LIST*
D10*
D11*
X-43742619Y12328595D02*
X-44742619Y12328595D01*
X-44266429Y12328595D02*
X-44266429Y12900024D01*
X-43742619Y12900024D02*
X-44742619Y12900024D01*
X-43742619Y13947643D02*
X-44218810Y13614309D01*
X-43742619Y13376214D02*
X-44742619Y13376214D01*
X-44742619Y13757167D01*
X-44695000Y13852405D01*
X-44647381Y13900024D01*
X-44552143Y13947643D01*
X-44409286Y13947643D01*
X-44314048Y13900024D01*
X-44266429Y13852405D01*
X-44218810Y13757167D01*
X-44218810Y13376214D01*
X-44742619Y14280976D02*
X-43742619Y14947643D01*
X-44742619Y14947643D02*
X-43742619Y14280976D01*
X-48568619Y12574643D02*
X-49568619Y12574643D01*
X-49092429Y12574643D02*
X-49092429Y13146072D01*
X-48568619Y13146072D02*
X-49568619Y13146072D01*
X-49568619Y13479405D02*
X-49568619Y14050834D01*
X-48568619Y13765119D02*
X-49568619Y13765119D01*
X-49568619Y14288929D02*
X-48568619Y14955596D01*
X-49568619Y14955596D02*
X-48568619Y14288929D01*
D12*
X-38662714Y44883429D02*
X-39162714Y45597714D01*
X-39519857Y44883429D02*
X-39519857Y46383429D01*
X-38948429Y46383429D01*
X-38805571Y46312000D01*
X-38734143Y46240571D01*
X-38662714Y46097714D01*
X-38662714Y45883429D01*
X-38734143Y45740571D01*
X-38805571Y45669143D01*
X-38948429Y45597714D01*
X-39519857Y45597714D01*
X-37377000Y44883429D02*
X-37377000Y45669143D01*
X-37448429Y45812000D01*
X-37591286Y45883429D01*
X-37877000Y45883429D01*
X-38019857Y45812000D01*
X-37377000Y44954857D02*
X-37519857Y44883429D01*
X-37877000Y44883429D01*
X-38019857Y44954857D01*
X-38091286Y45097714D01*
X-38091286Y45240571D01*
X-38019857Y45383429D01*
X-37877000Y45454857D01*
X-37519857Y45454857D01*
X-37377000Y45526286D01*
X-36734143Y44954857D02*
X-36591286Y44883429D01*
X-36305571Y44883429D01*
X-36162714Y44954857D01*
X-36091286Y45097714D01*
X-36091286Y45169143D01*
X-36162714Y45312000D01*
X-36305571Y45383429D01*
X-36519857Y45383429D01*
X-36662714Y45454857D01*
X-36734143Y45597714D01*
X-36734143Y45669143D01*
X-36662714Y45812000D01*
X-36519857Y45883429D01*
X-36305571Y45883429D01*
X-36162714Y45812000D01*
X-35448428Y45883429D02*
X-35448428Y44383429D01*
X-35448428Y45812000D02*
X-35305571Y45883429D01*
X-35019857Y45883429D01*
X-34877000Y45812000D01*
X-34805571Y45740571D01*
X-34734142Y45597714D01*
X-34734142Y45169143D01*
X-34805571Y45026286D01*
X-34877000Y44954857D01*
X-35019857Y44883429D01*
X-35305571Y44883429D01*
X-35448428Y44954857D01*
X-34091285Y44883429D02*
X-34091285Y46383429D01*
X-34091285Y45812000D02*
X-33948428Y45883429D01*
X-33662714Y45883429D01*
X-33519857Y45812000D01*
X-33448428Y45740571D01*
X-33376999Y45597714D01*
X-33376999Y45169143D01*
X-33448428Y45026286D01*
X-33519857Y44954857D01*
X-33662714Y44883429D01*
X-33948428Y44883429D01*
X-34091285Y44954857D01*
X-32162714Y44954857D02*
X-32305571Y44883429D01*
X-32591285Y44883429D01*
X-32734142Y44954857D01*
X-32805571Y45097714D01*
X-32805571Y45669143D01*
X-32734142Y45812000D01*
X-32591285Y45883429D01*
X-32305571Y45883429D01*
X-32162714Y45812000D01*
X-32091285Y45669143D01*
X-32091285Y45526286D01*
X-32805571Y45383429D01*
X-31448428Y44883429D02*
X-31448428Y45883429D01*
X-31448428Y45597714D02*
X-31377000Y45740571D01*
X-31305571Y45812000D01*
X-31162714Y45883429D01*
X-31019857Y45883429D01*
X-30519857Y44883429D02*
X-30519857Y45883429D01*
X-30519857Y45597714D02*
X-30448429Y45740571D01*
X-30377000Y45812000D01*
X-30234143Y45883429D01*
X-30091286Y45883429D01*
X-29734143Y45883429D02*
X-29377000Y44883429D01*
X-29019858Y45883429D02*
X-29377000Y44883429D01*
X-29519858Y44526286D01*
X-29591286Y44454857D01*
X-29734143Y44383429D01*
X-27305572Y44883429D02*
X-27305572Y46383429D01*
X-26734144Y46383429D01*
X-26591286Y46312000D01*
X-26519858Y46240571D01*
X-26448429Y46097714D01*
X-26448429Y45883429D01*
X-26519858Y45740571D01*
X-26591286Y45669143D01*
X-26734144Y45597714D01*
X-27305572Y45597714D01*
X-25805572Y44883429D02*
X-25805572Y45883429D01*
X-25805572Y46383429D02*
X-25877001Y46312000D01*
X-25805572Y46240571D01*
X-25734144Y46312000D01*
X-25805572Y46383429D01*
X-25805572Y46240571D01*
X-39662714Y43983429D02*
X-38662714Y43983429D01*
X-39662714Y42483429D01*
X-38662714Y42483429D01*
X-37519858Y42554857D02*
X-37662715Y42483429D01*
X-37948429Y42483429D01*
X-38091286Y42554857D01*
X-38162715Y42697714D01*
X-38162715Y43269143D01*
X-38091286Y43412000D01*
X-37948429Y43483429D01*
X-37662715Y43483429D01*
X-37519858Y43412000D01*
X-37448429Y43269143D01*
X-37448429Y43126286D01*
X-38162715Y42983429D01*
X-36805572Y42483429D02*
X-36805572Y43483429D01*
X-36805572Y43197714D02*
X-36734144Y43340571D01*
X-36662715Y43412000D01*
X-36519858Y43483429D01*
X-36377001Y43483429D01*
X-35662715Y42483429D02*
X-35805573Y42554857D01*
X-35877001Y42626286D01*
X-35948430Y42769143D01*
X-35948430Y43197714D01*
X-35877001Y43340571D01*
X-35805573Y43412000D01*
X-35662715Y43483429D01*
X-35448430Y43483429D01*
X-35305573Y43412000D01*
X-35234144Y43340571D01*
X-35162715Y43197714D01*
X-35162715Y42769143D01*
X-35234144Y42626286D01*
X-35305573Y42554857D01*
X-35448430Y42483429D01*
X-35662715Y42483429D01*
X-33377001Y42483429D02*
X-33377001Y43983429D01*
X-32734144Y42483429D02*
X-32734144Y43269143D01*
X-32805573Y43412000D01*
X-32948430Y43483429D01*
X-33162715Y43483429D01*
X-33305573Y43412000D01*
X-33377001Y43340571D01*
X-31377001Y42483429D02*
X-31377001Y43269143D01*
X-31448430Y43412000D01*
X-31591287Y43483429D01*
X-31877001Y43483429D01*
X-32019858Y43412000D01*
X-31377001Y42554857D02*
X-31519858Y42483429D01*
X-31877001Y42483429D01*
X-32019858Y42554857D01*
X-32091287Y42697714D01*
X-32091287Y42840571D01*
X-32019858Y42983429D01*
X-31877001Y43054857D01*
X-31519858Y43054857D01*
X-31377001Y43126286D01*
X-30877001Y43483429D02*
X-30305572Y43483429D01*
X-30662715Y43983429D02*
X-30662715Y42697714D01*
X-30591287Y42554857D01*
X-30448429Y42483429D01*
X-30305572Y42483429D01*
X-38662714Y40226286D02*
X-38734143Y40154857D01*
X-38948429Y40083429D01*
X-39091286Y40083429D01*
X-39305571Y40154857D01*
X-39448429Y40297714D01*
X-39519857Y40440571D01*
X-39591286Y40726286D01*
X-39591286Y40940571D01*
X-39519857Y41226286D01*
X-39448429Y41369143D01*
X-39305571Y41512000D01*
X-39091286Y41583429D01*
X-38948429Y41583429D01*
X-38734143Y41512000D01*
X-38662714Y41440571D01*
X-37805571Y40083429D02*
X-37948429Y40154857D01*
X-38019857Y40226286D01*
X-38091286Y40369143D01*
X-38091286Y40797714D01*
X-38019857Y40940571D01*
X-37948429Y41012000D01*
X-37805571Y41083429D01*
X-37591286Y41083429D01*
X-37448429Y41012000D01*
X-37377000Y40940571D01*
X-37305571Y40797714D01*
X-37305571Y40369143D01*
X-37377000Y40226286D01*
X-37448429Y40154857D01*
X-37591286Y40083429D01*
X-37805571Y40083429D01*
X-36662714Y41083429D02*
X-36662714Y40083429D01*
X-36662714Y40940571D02*
X-36591286Y41012000D01*
X-36448428Y41083429D01*
X-36234143Y41083429D01*
X-36091286Y41012000D01*
X-36019857Y40869143D01*
X-36019857Y40083429D01*
X-35305571Y41083429D02*
X-35305571Y40083429D01*
X-35305571Y40940571D02*
X-35234143Y41012000D01*
X-35091285Y41083429D01*
X-34877000Y41083429D01*
X-34734143Y41012000D01*
X-34662714Y40869143D01*
X-34662714Y40083429D01*
X-33377000Y40154857D02*
X-33519857Y40083429D01*
X-33805571Y40083429D01*
X-33948428Y40154857D01*
X-34019857Y40297714D01*
X-34019857Y40869143D01*
X-33948428Y41012000D01*
X-33805571Y41083429D01*
X-33519857Y41083429D01*
X-33377000Y41012000D01*
X-33305571Y40869143D01*
X-33305571Y40726286D01*
X-34019857Y40583429D01*
X-32019857Y40154857D02*
X-32162714Y40083429D01*
X-32448428Y40083429D01*
X-32591286Y40154857D01*
X-32662714Y40226286D01*
X-32734143Y40369143D01*
X-32734143Y40797714D01*
X-32662714Y40940571D01*
X-32591286Y41012000D01*
X-32448428Y41083429D01*
X-32162714Y41083429D01*
X-32019857Y41012000D01*
X-31591286Y41083429D02*
X-31019857Y41083429D01*
X-31377000Y41583429D02*
X-31377000Y40297714D01*
X-31305572Y40154857D01*
X-31162714Y40083429D01*
X-31019857Y40083429D01*
X-29591286Y41083429D02*
X-29019857Y41083429D01*
X-29377000Y41583429D02*
X-29377000Y40297714D01*
X-29305572Y40154857D01*
X-29162714Y40083429D01*
X-29019857Y40083429D01*
X-28305571Y40083429D02*
X-28448429Y40154857D01*
X-28519857Y40226286D01*
X-28591286Y40369143D01*
X-28591286Y40797714D01*
X-28519857Y40940571D01*
X-28448429Y41012000D01*
X-28305571Y41083429D01*
X-28091286Y41083429D01*
X-27948429Y41012000D01*
X-27877000Y40940571D01*
X-27805571Y40797714D01*
X-27805571Y40369143D01*
X-27877000Y40226286D01*
X-27948429Y40154857D01*
X-28091286Y40083429D01*
X-28305571Y40083429D01*
X-38877000Y37683429D02*
X-38877000Y38469143D01*
X-38948429Y38612000D01*
X-39091286Y38683429D01*
X-39377000Y38683429D01*
X-39519857Y38612000D01*
X-38877000Y37754857D02*
X-39019857Y37683429D01*
X-39377000Y37683429D01*
X-39519857Y37754857D01*
X-39591286Y37897714D01*
X-39591286Y38040571D01*
X-39519857Y38183429D01*
X-39377000Y38254857D01*
X-39019857Y38254857D01*
X-38877000Y38326286D01*
X-38162714Y38683429D02*
X-38162714Y37683429D01*
X-38162714Y38540571D02*
X-38091286Y38612000D01*
X-37948428Y38683429D01*
X-37734143Y38683429D01*
X-37591286Y38612000D01*
X-37519857Y38469143D01*
X-37519857Y37683429D01*
X-36948428Y38683429D02*
X-36591285Y37683429D01*
X-36234143Y38683429D02*
X-36591285Y37683429D01*
X-36734143Y37326286D01*
X-36805571Y37254857D01*
X-36948428Y37183429D01*
X-34734143Y38683429D02*
X-34162714Y38683429D01*
X-34519857Y39183429D02*
X-34519857Y37897714D01*
X-34448429Y37754857D01*
X-34305571Y37683429D01*
X-34162714Y37683429D01*
X-33805571Y38683429D02*
X-33448428Y37683429D01*
X-33091286Y38683429D02*
X-33448428Y37683429D01*
X-33591286Y37326286D01*
X-33662714Y37254857D01*
X-33805571Y37183429D01*
X-32519857Y38683429D02*
X-32519857Y37183429D01*
X-32519857Y38612000D02*
X-32377000Y38683429D01*
X-32091286Y38683429D01*
X-31948429Y38612000D01*
X-31877000Y38540571D01*
X-31805571Y38397714D01*
X-31805571Y37969143D01*
X-31877000Y37826286D01*
X-31948429Y37754857D01*
X-32091286Y37683429D01*
X-32377000Y37683429D01*
X-32519857Y37754857D01*
X-30591286Y37754857D02*
X-30734143Y37683429D01*
X-31019857Y37683429D01*
X-31162714Y37754857D01*
X-31234143Y37897714D01*
X-31234143Y38469143D01*
X-31162714Y38612000D01*
X-31019857Y38683429D01*
X-30734143Y38683429D01*
X-30591286Y38612000D01*
X-30519857Y38469143D01*
X-30519857Y38326286D01*
X-31234143Y38183429D01*
X-28734143Y38683429D02*
X-28734143Y37183429D01*
X-28734143Y38612000D02*
X-28591286Y38683429D01*
X-28305572Y38683429D01*
X-28162715Y38612000D01*
X-28091286Y38540571D01*
X-28019857Y38397714D01*
X-28019857Y37969143D01*
X-28091286Y37826286D01*
X-28162715Y37754857D01*
X-28305572Y37683429D01*
X-28591286Y37683429D01*
X-28734143Y37754857D01*
X-27162714Y37683429D02*
X-27305572Y37754857D01*
X-27377000Y37826286D01*
X-27448429Y37969143D01*
X-27448429Y38397714D01*
X-27377000Y38540571D01*
X-27305572Y38612000D01*
X-27162714Y38683429D01*
X-26948429Y38683429D01*
X-26805572Y38612000D01*
X-26734143Y38540571D01*
X-26662714Y38397714D01*
X-26662714Y37969143D01*
X-26734143Y37826286D01*
X-26805572Y37754857D01*
X-26948429Y37683429D01*
X-27162714Y37683429D01*
X-26019857Y37683429D02*
X-26019857Y38683429D01*
X-26019857Y38397714D02*
X-25948429Y38540571D01*
X-25877000Y38612000D01*
X-25734143Y38683429D01*
X-25591286Y38683429D01*
X-25305572Y38683429D02*
X-24734143Y38683429D01*
X-25091286Y39183429D02*
X-25091286Y37897714D01*
X-25019858Y37754857D01*
X-24877000Y37683429D01*
X-24734143Y37683429D01*
X-24234143Y37826286D02*
X-24162715Y37754857D01*
X-24234143Y37683429D01*
X-24305572Y37754857D01*
X-24234143Y37826286D01*
X-24234143Y37683429D01*
X-39234143Y36783429D02*
X-38948429Y36783429D01*
X-38805571Y36712000D01*
X-38662714Y36569143D01*
X-38591286Y36283429D01*
X-38591286Y35783429D01*
X-38662714Y35497714D01*
X-38805571Y35354857D01*
X-38948429Y35283429D01*
X-39234143Y35283429D01*
X-39377000Y35354857D01*
X-39519857Y35497714D01*
X-39591286Y35783429D01*
X-39591286Y36283429D01*
X-39519857Y36569143D01*
X-39377000Y36712000D01*
X-39234143Y36783429D01*
X-37948428Y36283429D02*
X-37948428Y35283429D01*
X-37948428Y36140571D02*
X-37877000Y36212000D01*
X-37734142Y36283429D01*
X-37519857Y36283429D01*
X-37377000Y36212000D01*
X-37305571Y36069143D01*
X-37305571Y35283429D01*
X-36376999Y35283429D02*
X-36519857Y35354857D01*
X-36591285Y35497714D01*
X-36591285Y36783429D01*
X-35948428Y36283429D02*
X-35591285Y35283429D01*
X-35234143Y36283429D02*
X-35591285Y35283429D01*
X-35734143Y34926286D01*
X-35805571Y34854857D01*
X-35948428Y34783429D01*
X-33519857Y36783429D02*
X-33519857Y35569143D01*
X-33448429Y35426286D01*
X-33377000Y35354857D01*
X-33234143Y35283429D01*
X-32948429Y35283429D01*
X-32805571Y35354857D01*
X-32734143Y35426286D01*
X-32662714Y35569143D01*
X-32662714Y36783429D01*
X-30162714Y35283429D02*
X-30162714Y36069143D01*
X-30234143Y36212000D01*
X-30377000Y36283429D01*
X-30662714Y36283429D01*
X-30805571Y36212000D01*
X-30162714Y35354857D02*
X-30305571Y35283429D01*
X-30662714Y35283429D01*
X-30805571Y35354857D01*
X-30877000Y35497714D01*
X-30877000Y35640571D01*
X-30805571Y35783429D01*
X-30662714Y35854857D01*
X-30305571Y35854857D01*
X-30162714Y35926286D01*
X-29448428Y36283429D02*
X-29448428Y35283429D01*
X-29448428Y36140571D02*
X-29377000Y36212000D01*
X-29234142Y36283429D01*
X-29019857Y36283429D01*
X-28877000Y36212000D01*
X-28805571Y36069143D01*
X-28805571Y35283429D01*
X-27448428Y35283429D02*
X-27448428Y36783429D01*
X-27448428Y35354857D02*
X-27591285Y35283429D01*
X-27876999Y35283429D01*
X-28019857Y35354857D01*
X-28091285Y35426286D01*
X-28162714Y35569143D01*
X-28162714Y35997714D01*
X-28091285Y36140571D01*
X-28019857Y36212000D01*
X-27876999Y36283429D01*
X-27591285Y36283429D01*
X-27448428Y36212000D01*
X-25591285Y35283429D02*
X-25591285Y36783429D01*
X-24734142Y35283429D02*
X-25376999Y36140571D01*
X-24734142Y36783429D02*
X-25591285Y35926286D01*
X-39591286Y32954857D02*
X-39448429Y32883429D01*
X-39162714Y32883429D01*
X-39019857Y32954857D01*
X-38948429Y33097714D01*
X-38948429Y33169143D01*
X-39019857Y33312000D01*
X-39162714Y33383429D01*
X-39377000Y33383429D01*
X-39519857Y33454857D01*
X-39591286Y33597714D01*
X-39591286Y33669143D01*
X-39519857Y33812000D01*
X-39377000Y33883429D01*
X-39162714Y33883429D01*
X-39019857Y33812000D01*
X-37662714Y33883429D02*
X-37662714Y32883429D01*
X-38305571Y33883429D02*
X-38305571Y33097714D01*
X-38234143Y32954857D01*
X-38091285Y32883429D01*
X-37877000Y32883429D01*
X-37734143Y32954857D01*
X-37662714Y33026286D01*
X-36948428Y33883429D02*
X-36948428Y32383429D01*
X-36948428Y33812000D02*
X-36805571Y33883429D01*
X-36519857Y33883429D01*
X-36377000Y33812000D01*
X-36305571Y33740571D01*
X-36234142Y33597714D01*
X-36234142Y33169143D01*
X-36305571Y33026286D01*
X-36377000Y32954857D01*
X-36519857Y32883429D01*
X-36805571Y32883429D01*
X-36948428Y32954857D01*
X-35591285Y33883429D02*
X-35591285Y32383429D01*
X-35591285Y33812000D02*
X-35448428Y33883429D01*
X-35162714Y33883429D01*
X-35019857Y33812000D01*
X-34948428Y33740571D01*
X-34876999Y33597714D01*
X-34876999Y33169143D01*
X-34948428Y33026286D01*
X-35019857Y32954857D01*
X-35162714Y32883429D01*
X-35448428Y32883429D01*
X-35591285Y32954857D01*
X-34019856Y32883429D02*
X-34162714Y32954857D01*
X-34234142Y33026286D01*
X-34305571Y33169143D01*
X-34305571Y33597714D01*
X-34234142Y33740571D01*
X-34162714Y33812000D01*
X-34019856Y33883429D01*
X-33805571Y33883429D01*
X-33662714Y33812000D01*
X-33591285Y33740571D01*
X-33519856Y33597714D01*
X-33519856Y33169143D01*
X-33591285Y33026286D01*
X-33662714Y32954857D01*
X-33805571Y32883429D01*
X-34019856Y32883429D01*
X-32876999Y32883429D02*
X-32876999Y33883429D01*
X-32876999Y33597714D02*
X-32805571Y33740571D01*
X-32734142Y33812000D01*
X-32591285Y33883429D01*
X-32448428Y33883429D01*
X-32162714Y33883429D02*
X-31591285Y33883429D01*
X-31948428Y34383429D02*
X-31948428Y33097714D01*
X-31877000Y32954857D01*
X-31734142Y32883429D01*
X-31591285Y32883429D01*
X-31162714Y32954857D02*
X-31019857Y32883429D01*
X-30734142Y32883429D01*
X-30591285Y32954857D01*
X-30519857Y33097714D01*
X-30519857Y33169143D01*
X-30591285Y33312000D01*
X-30734142Y33383429D01*
X-30948428Y33383429D01*
X-31091285Y33454857D01*
X-31162714Y33597714D01*
X-31162714Y33669143D01*
X-31091285Y33812000D01*
X-30948428Y33883429D01*
X-30734142Y33883429D01*
X-30591285Y33812000D01*
X-28805571Y32954857D02*
X-28662714Y32883429D01*
X-28376999Y32883429D01*
X-28234142Y32954857D01*
X-28162714Y33097714D01*
X-28162714Y33169143D01*
X-28234142Y33312000D01*
X-28376999Y33383429D01*
X-28591285Y33383429D01*
X-28734142Y33454857D01*
X-28805571Y33597714D01*
X-28805571Y33669143D01*
X-28734142Y33812000D01*
X-28591285Y33883429D01*
X-28376999Y33883429D01*
X-28234142Y33812000D01*
X-26948428Y32954857D02*
X-27091285Y32883429D01*
X-27376999Y32883429D01*
X-27519856Y32954857D01*
X-27591285Y33097714D01*
X-27591285Y33669143D01*
X-27519856Y33812000D01*
X-27376999Y33883429D01*
X-27091285Y33883429D01*
X-26948428Y33812000D01*
X-26876999Y33669143D01*
X-26876999Y33526286D01*
X-27591285Y33383429D01*
X-26234142Y32883429D02*
X-26234142Y33883429D01*
X-26234142Y33597714D02*
X-26162714Y33740571D01*
X-26091285Y33812000D01*
X-25948428Y33883429D01*
X-25805571Y33883429D01*
X-25305571Y32883429D02*
X-25305571Y33883429D01*
X-25305571Y34383429D02*
X-25377000Y34312000D01*
X-25305571Y34240571D01*
X-25234143Y34312000D01*
X-25305571Y34383429D01*
X-25305571Y34240571D01*
X-23948428Y32883429D02*
X-23948428Y33669143D01*
X-24019857Y33812000D01*
X-24162714Y33883429D01*
X-24448428Y33883429D01*
X-24591285Y33812000D01*
X-23948428Y32954857D02*
X-24091285Y32883429D01*
X-24448428Y32883429D01*
X-24591285Y32954857D01*
X-24662714Y33097714D01*
X-24662714Y33240571D01*
X-24591285Y33383429D01*
X-24448428Y33454857D01*
X-24091285Y33454857D01*
X-23948428Y33526286D01*
X-23019856Y32883429D02*
X-23162714Y32954857D01*
X-23234142Y33097714D01*
X-23234142Y34383429D01*
D13*
X-68134048Y29354238D02*
X-66800714Y29354238D01*
X-68134048Y27354238D01*
X-66800714Y27354238D01*
X-66038810Y28401857D02*
X-65372143Y28401857D01*
X-65086429Y27354238D02*
X-66038810Y27354238D01*
X-66038810Y29354238D01*
X-65086429Y29354238D01*
X-63086428Y27354238D02*
X-63753095Y28306619D01*
X-64229286Y27354238D02*
X-64229286Y29354238D01*
X-63467381Y29354238D01*
X-63276905Y29259000D01*
X-63181666Y29163762D01*
X-63086428Y28973286D01*
X-63086428Y28687571D01*
X-63181666Y28497095D01*
X-63276905Y28401857D01*
X-63467381Y28306619D01*
X-64229286Y28306619D01*
X-61848333Y29354238D02*
X-61467381Y29354238D01*
X-61276905Y29259000D01*
X-61086428Y29068524D01*
X-60991190Y28687571D01*
X-60991190Y28020905D01*
X-61086428Y27639952D01*
X-61276905Y27449476D01*
X-61467381Y27354238D01*
X-61848333Y27354238D01*
X-62038809Y27449476D01*
X-62229286Y27639952D01*
X-62324524Y28020905D01*
X-62324524Y28687571D01*
X-62229286Y29068524D01*
X-62038809Y29259000D01*
X-61848333Y29354238D01*
D14*
X-42986500Y46603000D02*
X-42986500Y45673000D01*
X-42986500Y43443000D02*
X-42986500Y44373000D01*
X-42986500Y43443000D02*
X-40826500Y43443000D01*
X-42986500Y46603000D02*
X-41526500Y46603000D01*
X-49646000Y15120000D02*
X-49646000Y27720000D01*
X-49646000Y27720000D02*
X-54746000Y27720000D01*
X-54746000Y27720000D02*
X-54746000Y15120000D01*
X-49646000Y15120000D02*
X-54746000Y15120000D01*
D11*
X-31662000Y23860964D02*
X-31662000Y24860964D01*
X-30312000Y24860964D02*
X-30312000Y23860964D01*
D14*
X-33316000Y25881000D02*
X-34016000Y25881000D01*
X-34016000Y27081000D02*
X-33316000Y27081000D01*
X-44128400Y21880800D02*
X-44128400Y21180800D01*
X-45328400Y21180800D02*
X-45328400Y21880800D01*
D11*
X-6859000Y28771000D02*
X-6859000Y12771000D01*
X-28259000Y28771000D02*
X-28259000Y12771000D01*
X-6859000Y12771000D02*
X-28259000Y12771000D01*
X-6859000Y28771000D02*
X-28259000Y28771000D01*
X-28597500Y16325700D02*
X-28597500Y15325700D01*
X-29947500Y15325700D02*
X-29947500Y16325700D01*
D14*
X-30702000Y27208000D02*
X-30002000Y27208000D01*
X-30002000Y26008000D02*
X-30702000Y26008000D01*
D11*
X-28597500Y24860964D02*
X-28597500Y23860964D01*
X-29947500Y23860964D02*
X-29947500Y24860964D01*
X-35729336Y19367460D02*
X-36519336Y19367460D01*
X-42029336Y25667460D02*
X-41239336Y25667460D01*
X-42029336Y19367460D02*
X-41239336Y19367460D01*
X-35729336Y25667460D02*
X-35729336Y24877460D01*
X-42029336Y25667460D02*
X-42029336Y24877460D01*
X-42029336Y19367460D02*
X-42029336Y20157460D01*
X-35729336Y19367460D02*
X-35729336Y20157460D01*
X-31662000Y15325700D02*
X-31662000Y16325700D01*
X-30312000Y16325700D02*
X-30312000Y15325700D01*
X-61792920Y31693640D02*
X-44292920Y31693640D01*
X-44292920Y43193640D02*
X-61792920Y43193640D01*
X-44292920Y31693640D02*
X-44292920Y43193640D01*
X-61792920Y31693640D02*
X-61792920Y43193640D01*
D14*
X-61702160Y47160680D02*
X-61702160Y43860680D01*
X-61702160Y43860680D02*
X-56302160Y43860680D01*
X-61702160Y47160680D02*
X-56302160Y47160680D01*
X-54473320Y47155600D02*
X-54473320Y43855600D01*
X-54473320Y43855600D02*
X-49073320Y43855600D01*
X-54473320Y47155600D02*
X-49073320Y47155600D01*
D11*
X-63013800Y38689400D02*
X-63013800Y47089400D01*
X-72213800Y47089400D02*
X-63013800Y47089400D01*
X-72213800Y38689400D02*
X-72213800Y47089400D01*
X-72213800Y38689400D02*
X-63013800Y38689400D01*
D14*
X-62860000Y48760000D02*
X-14480000Y48760000D01*
X-14480000Y48760000D02*
X-14480000Y51540000D01*
X-14480000Y51540000D02*
X-62860000Y51540000D01*
X-62860000Y51540000D02*
X-62860000Y48760000D01*
X-64130000Y48760000D02*
X-65520000Y48760000D01*
X-65520000Y48760000D02*
X-65520000Y50150000D01*
X-62860000Y53840000D02*
X-14480000Y53840000D01*
X-14480000Y53840000D02*
X-14480000Y59160000D01*
X-14480000Y59160000D02*
X-65520000Y59160000D01*
X-65520000Y59160000D02*
X-65520000Y56500000D01*
X-65520000Y56500000D02*
X-62860000Y56500000D01*
X-62860000Y56500000D02*
X-62860000Y53840000D01*
X-64130000Y53840000D02*
X-65520000Y53840000D01*
X-65520000Y53840000D02*
X-65520000Y55230000D01*
D11*
X-8929640Y51525400D02*
X-8929640Y38825400D01*
X-8929640Y38825400D02*
X-14009640Y38825400D01*
X-14009640Y51525400D02*
X-14009640Y38825400D01*
X-8929640Y51525400D02*
X-14009640Y51525400D01*
D14*
X-62860000Y51300000D02*
X-14480000Y51300000D01*
X-14480000Y51300000D02*
X-14480000Y54080000D01*
X-14480000Y54080000D02*
X-62860000Y54080000D01*
X-62860000Y54080000D02*
X-62860000Y51300000D01*
X-64130000Y51300000D02*
X-65520000Y51300000D01*
X-65520000Y51300000D02*
X-65520000Y52690000D01*
X-21046000Y38831000D02*
X-21046000Y39531000D01*
X-19846000Y39531000D02*
X-19846000Y38831000D01*
X-55091040Y26704000D02*
X-55091040Y26004000D01*
X-56291040Y26004000D02*
X-56291040Y26704000D01*
X-56352000Y15336000D02*
X-56352000Y16036000D01*
X-55152000Y16036000D02*
X-55152000Y15336000D01*
X-22824000Y38831000D02*
X-22824000Y39531000D01*
X-21624000Y39531000D02*
X-21624000Y38831000D01*
X-48808200Y21180800D02*
X-48808200Y21880800D01*
X-47608200Y21880800D02*
X-47608200Y21180800D01*
X-38762500Y15780500D02*
X-38762500Y16480500D01*
X-37562500Y16480500D02*
X-37562500Y15780500D01*
X-33752500Y16024000D02*
X-33752500Y15324000D01*
X-34952500Y15324000D02*
X-34952500Y16024000D01*
D11*
X-31988400Y16313000D02*
X-31988400Y15313000D01*
X-33338400Y15313000D02*
X-33338400Y16313000D01*
X-47054400Y20878400D02*
X-47054400Y21878400D01*
X-45704400Y21878400D02*
X-45704400Y20878400D01*
X-31721700Y19615000D02*
X-31721700Y18615000D01*
X-33071700Y18615000D02*
X-33071700Y19615000D01*
X-30032600Y19615000D02*
X-30032600Y18615000D01*
X-31382600Y18615000D02*
X-31382600Y19615000D01*
D14*
X-40850000Y17937000D02*
X-40150000Y17937000D01*
X-40150000Y16737000D02*
X-40850000Y16737000D01*
D15*
G36*
X-64201324Y13249405D02*
X-64058105Y13244917D01*
X-63929208Y13237829D01*
X-63821100Y13228149D01*
X-63762881Y13220110D01*
X-63567160Y13181635D01*
X-63384679Y13134853D01*
X-63218167Y13080970D01*
X-63070351Y13021191D01*
X-62943960Y12956723D01*
X-62841723Y12888771D01*
X-62766367Y12818540D01*
X-62727844Y12762644D01*
X-62705356Y12691954D01*
X-62708406Y12614498D01*
X-62737634Y12528901D01*
X-62793680Y12433786D01*
X-62877183Y12327776D01*
X-62981889Y12216359D01*
X-63184446Y12035529D01*
X-63402625Y11881526D01*
X-63634740Y11755252D01*
X-63879107Y11657608D01*
X-64134040Y11589496D01*
X-64164709Y11583455D01*
X-64276102Y11568482D01*
X-64407551Y11560572D01*
X-64548182Y11559615D01*
X-64687122Y11565500D01*
X-64813498Y11578119D01*
X-64888063Y11590773D01*
X-65127321Y11656301D01*
X-65364210Y11750726D01*
X-65593380Y11871334D01*
X-65809481Y12015412D01*
X-65951688Y12130157D01*
X-66070082Y12240789D01*
X-66159469Y12341337D01*
X-66220341Y12433460D01*
X-66253188Y12518816D01*
X-66258504Y12599063D01*
X-66236780Y12675859D01*
X-66188507Y12750862D01*
X-66148597Y12794138D01*
X-66063912Y12862259D01*
X-65951351Y12929533D01*
X-65814782Y12994522D01*
X-65658076Y13055790D01*
X-65485099Y13111897D01*
X-65299721Y13161405D01*
X-65105811Y13202877D01*
X-64999188Y13221381D01*
X-64905865Y13232627D01*
X-64788057Y13241234D01*
X-64652231Y13247209D01*
X-64504855Y13250558D01*
X-64352397Y13251288D01*
X-64201324Y13249405D01*
X-64201324Y13249405D01*
G37*
X-64201324Y13249405D02*
X-64058105Y13244917D01*
X-63929208Y13237829D01*
X-63821100Y13228149D01*
X-63762881Y13220110D01*
X-63567160Y13181635D01*
X-63384679Y13134853D01*
X-63218167Y13080970D01*
X-63070351Y13021191D01*
X-62943960Y12956723D01*
X-62841723Y12888771D01*
X-62766367Y12818540D01*
X-62727844Y12762644D01*
X-62705356Y12691954D01*
X-62708406Y12614498D01*
X-62737634Y12528901D01*
X-62793680Y12433786D01*
X-62877183Y12327776D01*
X-62981889Y12216359D01*
X-63184446Y12035529D01*
X-63402625Y11881526D01*
X-63634740Y11755252D01*
X-63879107Y11657608D01*
X-64134040Y11589496D01*
X-64164709Y11583455D01*
X-64276102Y11568482D01*
X-64407551Y11560572D01*
X-64548182Y11559615D01*
X-64687122Y11565500D01*
X-64813498Y11578119D01*
X-64888063Y11590773D01*
X-65127321Y11656301D01*
X-65364210Y11750726D01*
X-65593380Y11871334D01*
X-65809481Y12015412D01*
X-65951688Y12130157D01*
X-66070082Y12240789D01*
X-66159469Y12341337D01*
X-66220341Y12433460D01*
X-66253188Y12518816D01*
X-66258504Y12599063D01*
X-66236780Y12675859D01*
X-66188507Y12750862D01*
X-66148597Y12794138D01*
X-66063912Y12862259D01*
X-65951351Y12929533D01*
X-65814782Y12994522D01*
X-65658076Y13055790D01*
X-65485099Y13111897D01*
X-65299721Y13161405D01*
X-65105811Y13202877D01*
X-64999188Y13221381D01*
X-64905865Y13232627D01*
X-64788057Y13241234D01*
X-64652231Y13247209D01*
X-64504855Y13250558D01*
X-64352397Y13251288D01*
X-64201324Y13249405D01*
G36*
X-60294866Y16550032D02*
X-60188486Y16527832D01*
X-60087010Y16486884D01*
X-59999022Y16431626D01*
X-59933108Y16366492D01*
X-59929083Y16361041D01*
X-59851541Y16230286D01*
X-59787356Y16075311D01*
X-59737039Y15900929D01*
X-59701102Y15711956D01*
X-59680055Y15513204D01*
X-59674410Y15309489D01*
X-59684676Y15105624D01*
X-59711364Y14906424D01*
X-59754723Y14717625D01*
X-59822763Y14528644D01*
X-59919902Y14335565D01*
X-60044296Y14141400D01*
X-60194101Y13949165D01*
X-60291671Y13839990D01*
X-60480634Y13659261D01*
X-60685156Y13502636D01*
X-60902071Y13372060D01*
X-61128212Y13269483D01*
X-61320981Y13206913D01*
X-61420794Y13186708D01*
X-61537823Y13173220D01*
X-61662425Y13166686D01*
X-61784958Y13167341D01*
X-61895781Y13175423D01*
X-61983348Y13190677D01*
X-62103518Y13227847D01*
X-62198349Y13272784D01*
X-62273925Y13328727D01*
X-62307667Y13363276D01*
X-62374427Y13462211D01*
X-62422126Y13583784D01*
X-62450980Y13725405D01*
X-62461203Y13884484D01*
X-62453011Y14058429D01*
X-62426618Y14244651D01*
X-62382240Y14440559D01*
X-62320091Y14643563D01*
X-62240388Y14851071D01*
X-62171500Y15003375D01*
X-62091082Y15160588D01*
X-62006605Y15304686D01*
X-61913978Y15441048D01*
X-61809113Y15575049D01*
X-61687919Y15712065D01*
X-61546307Y15857474D01*
X-61453035Y15947938D01*
X-61264468Y16117135D01*
X-61082211Y16259340D01*
X-60907109Y16374113D01*
X-60740011Y16461012D01*
X-60581763Y16519598D01*
X-60433212Y16549430D01*
X-60295205Y16550068D01*
X-60294866Y16550032D01*
X-60294866Y16550032D01*
G37*
X-60294866Y16550032D02*
X-60188486Y16527832D01*
X-60087010Y16486884D01*
X-59999022Y16431626D01*
X-59933108Y16366492D01*
X-59929083Y16361041D01*
X-59851541Y16230286D01*
X-59787356Y16075311D01*
X-59737039Y15900929D01*
X-59701102Y15711956D01*
X-59680055Y15513204D01*
X-59674410Y15309489D01*
X-59684676Y15105624D01*
X-59711364Y14906424D01*
X-59754723Y14717625D01*
X-59822763Y14528644D01*
X-59919902Y14335565D01*
X-60044296Y14141400D01*
X-60194101Y13949165D01*
X-60291671Y13839990D01*
X-60480634Y13659261D01*
X-60685156Y13502636D01*
X-60902071Y13372060D01*
X-61128212Y13269483D01*
X-61320981Y13206913D01*
X-61420794Y13186708D01*
X-61537823Y13173220D01*
X-61662425Y13166686D01*
X-61784958Y13167341D01*
X-61895781Y13175423D01*
X-61983348Y13190677D01*
X-62103518Y13227847D01*
X-62198349Y13272784D01*
X-62273925Y13328727D01*
X-62307667Y13363276D01*
X-62374427Y13462211D01*
X-62422126Y13583784D01*
X-62450980Y13725405D01*
X-62461203Y13884484D01*
X-62453011Y14058429D01*
X-62426618Y14244651D01*
X-62382240Y14440559D01*
X-62320091Y14643563D01*
X-62240388Y14851071D01*
X-62171500Y15003375D01*
X-62091082Y15160588D01*
X-62006605Y15304686D01*
X-61913978Y15441048D01*
X-61809113Y15575049D01*
X-61687919Y15712065D01*
X-61546307Y15857474D01*
X-61453035Y15947938D01*
X-61264468Y16117135D01*
X-61082211Y16259340D01*
X-60907109Y16374113D01*
X-60740011Y16461012D01*
X-60581763Y16519598D01*
X-60433212Y16549430D01*
X-60295205Y16550068D01*
X-60294866Y16550032D01*
G36*
X-68560841Y16284927D02*
X-68392913Y16255451D01*
X-68218403Y16199758D01*
X-68039661Y16118152D01*
X-67967813Y16078501D01*
X-67834310Y15993388D01*
X-67692910Y15889408D01*
X-67549266Y15771743D01*
X-67409029Y15645571D01*
X-67277849Y15516074D01*
X-67161378Y15388433D01*
X-67065267Y15267827D01*
X-67033070Y15221632D01*
X-66905362Y15007781D01*
X-66798052Y14783734D01*
X-66712840Y14554597D01*
X-66651425Y14325472D01*
X-66615507Y14101464D01*
X-66606321Y13939750D01*
X-66613814Y13768027D01*
X-66639668Y13621518D01*
X-66684439Y13499148D01*
X-66748688Y13399843D01*
X-66832971Y13322527D01*
X-66937849Y13266125D01*
X-66960664Y13257500D01*
X-67047526Y13235234D01*
X-67156293Y13220424D01*
X-67277954Y13213310D01*
X-67403495Y13214132D01*
X-67523902Y13223132D01*
X-67626500Y13239732D01*
X-67850599Y13305034D01*
X-68069522Y13400342D01*
X-68280902Y13524038D01*
X-68482371Y13674502D01*
X-68671560Y13850116D01*
X-68846100Y14049261D01*
X-68885616Y14100469D01*
X-68968819Y14226730D01*
X-69048630Y14377822D01*
X-69122211Y14546832D01*
X-69186724Y14726846D01*
X-69239329Y14910950D01*
X-69264611Y15023572D01*
X-69285242Y15156355D01*
X-69297422Y15299872D01*
X-69301149Y15445631D01*
X-69296418Y15585139D01*
X-69283227Y15709903D01*
X-69264938Y15799572D01*
X-69215644Y15946834D01*
X-69155661Y16064488D01*
X-69084751Y16152910D01*
X-69002676Y16212471D01*
X-69001660Y16212993D01*
X-68867562Y16264003D01*
X-68719840Y16287879D01*
X-68560841Y16284927D01*
X-68560841Y16284927D01*
G37*
X-68560841Y16284927D02*
X-68392913Y16255451D01*
X-68218403Y16199758D01*
X-68039661Y16118152D01*
X-67967813Y16078501D01*
X-67834310Y15993388D01*
X-67692910Y15889408D01*
X-67549266Y15771743D01*
X-67409029Y15645571D01*
X-67277849Y15516074D01*
X-67161378Y15388433D01*
X-67065267Y15267827D01*
X-67033070Y15221632D01*
X-66905362Y15007781D01*
X-66798052Y14783734D01*
X-66712840Y14554597D01*
X-66651425Y14325472D01*
X-66615507Y14101464D01*
X-66606321Y13939750D01*
X-66613814Y13768027D01*
X-66639668Y13621518D01*
X-66684439Y13499148D01*
X-66748688Y13399843D01*
X-66832971Y13322527D01*
X-66937849Y13266125D01*
X-66960664Y13257500D01*
X-67047526Y13235234D01*
X-67156293Y13220424D01*
X-67277954Y13213310D01*
X-67403495Y13214132D01*
X-67523902Y13223132D01*
X-67626500Y13239732D01*
X-67850599Y13305034D01*
X-68069522Y13400342D01*
X-68280902Y13524038D01*
X-68482371Y13674502D01*
X-68671560Y13850116D01*
X-68846100Y14049261D01*
X-68885616Y14100469D01*
X-68968819Y14226730D01*
X-69048630Y14377822D01*
X-69122211Y14546832D01*
X-69186724Y14726846D01*
X-69239329Y14910950D01*
X-69264611Y15023572D01*
X-69285242Y15156355D01*
X-69297422Y15299872D01*
X-69301149Y15445631D01*
X-69296418Y15585139D01*
X-69283227Y15709903D01*
X-69264938Y15799572D01*
X-69215644Y15946834D01*
X-69155661Y16064488D01*
X-69084751Y16152910D01*
X-69002676Y16212471D01*
X-69001660Y16212993D01*
X-68867562Y16264003D01*
X-68719840Y16287879D01*
X-68560841Y16284927D01*
G36*
X-64324264Y17184228D02*
X-64197387Y17176526D01*
X-64087982Y17163109D01*
X-64054625Y17156855D01*
X-63814163Y17091495D01*
X-63590618Y17001033D01*
X-63385450Y16886754D01*
X-63200117Y16749941D01*
X-63036080Y16591880D01*
X-62894798Y16413854D01*
X-62777730Y16217149D01*
X-62686336Y16003049D01*
X-62663052Y15932063D01*
X-62647459Y15879060D01*
X-62636091Y15833047D01*
X-62628286Y15787388D01*
X-62623380Y15735450D01*
X-62620711Y15670597D01*
X-62619615Y15586195D01*
X-62619425Y15495500D01*
X-62619716Y15389534D01*
X-62621026Y15308730D01*
X-62624008Y15246504D01*
X-62629315Y15196272D01*
X-62637602Y15151448D01*
X-62649522Y15105448D01*
X-62662425Y15062366D01*
X-62723012Y14890176D01*
X-62793315Y14738623D01*
X-62874881Y14602074D01*
X-63012607Y14423201D01*
X-63174653Y14262871D01*
X-63358418Y14122795D01*
X-63561301Y14004682D01*
X-63780702Y13910244D01*
X-64014020Y13841190D01*
X-64041328Y13835019D01*
X-64091485Y13826917D01*
X-64162434Y13819237D01*
X-64247122Y13812339D01*
X-64338501Y13806585D01*
X-64429517Y13802338D01*
X-64513122Y13799959D01*
X-64582263Y13799811D01*
X-64629890Y13802254D01*
X-64642000Y13804192D01*
X-64668603Y13809392D01*
X-64716779Y13817844D01*
X-64776740Y13827839D01*
X-64784875Y13829160D01*
X-64993349Y13877696D01*
X-65200967Y13954109D01*
X-65401367Y14055007D01*
X-65588187Y14176999D01*
X-65755064Y14316693D01*
X-65817442Y14379579D01*
X-65960972Y14555005D01*
X-66076653Y14742821D01*
X-66164529Y14940338D01*
X-66224646Y15144869D01*
X-66257050Y15353728D01*
X-66261787Y15564228D01*
X-66238901Y15773681D01*
X-66188440Y15979400D01*
X-66110447Y16178698D01*
X-66004970Y16368888D01*
X-65872054Y16547283D01*
X-65778927Y16647765D01*
X-65599000Y16805318D01*
X-65401531Y16936888D01*
X-65185858Y17042823D01*
X-64951319Y17123472D01*
X-64811731Y17157670D01*
X-64712349Y17172935D01*
X-64591485Y17182443D01*
X-64458877Y17186203D01*
X-64324264Y17184228D01*
X-64324264Y17184228D01*
G37*
X-64324264Y17184228D02*
X-64197387Y17176526D01*
X-64087982Y17163109D01*
X-64054625Y17156855D01*
X-63814163Y17091495D01*
X-63590618Y17001033D01*
X-63385450Y16886754D01*
X-63200117Y16749941D01*
X-63036080Y16591880D01*
X-62894798Y16413854D01*
X-62777730Y16217149D01*
X-62686336Y16003049D01*
X-62663052Y15932063D01*
X-62647459Y15879060D01*
X-62636091Y15833047D01*
X-62628286Y15787388D01*
X-62623380Y15735450D01*
X-62620711Y15670597D01*
X-62619615Y15586195D01*
X-62619425Y15495500D01*
X-62619716Y15389534D01*
X-62621026Y15308730D01*
X-62624008Y15246504D01*
X-62629315Y15196272D01*
X-62637602Y15151448D01*
X-62649522Y15105448D01*
X-62662425Y15062366D01*
X-62723012Y14890176D01*
X-62793315Y14738623D01*
X-62874881Y14602074D01*
X-63012607Y14423201D01*
X-63174653Y14262871D01*
X-63358418Y14122795D01*
X-63561301Y14004682D01*
X-63780702Y13910244D01*
X-64014020Y13841190D01*
X-64041328Y13835019D01*
X-64091485Y13826917D01*
X-64162434Y13819237D01*
X-64247122Y13812339D01*
X-64338501Y13806585D01*
X-64429517Y13802338D01*
X-64513122Y13799959D01*
X-64582263Y13799811D01*
X-64629890Y13802254D01*
X-64642000Y13804192D01*
X-64668603Y13809392D01*
X-64716779Y13817844D01*
X-64776740Y13827839D01*
X-64784875Y13829160D01*
X-64993349Y13877696D01*
X-65200967Y13954109D01*
X-65401367Y14055007D01*
X-65588187Y14176999D01*
X-65755064Y14316693D01*
X-65817442Y14379579D01*
X-65960972Y14555005D01*
X-66076653Y14742821D01*
X-66164529Y14940338D01*
X-66224646Y15144869D01*
X-66257050Y15353728D01*
X-66261787Y15564228D01*
X-66238901Y15773681D01*
X-66188440Y15979400D01*
X-66110447Y16178698D01*
X-66004970Y16368888D01*
X-65872054Y16547283D01*
X-65778927Y16647765D01*
X-65599000Y16805318D01*
X-65401531Y16936888D01*
X-65185858Y17042823D01*
X-64951319Y17123472D01*
X-64811731Y17157670D01*
X-64712349Y17172935D01*
X-64591485Y17182443D01*
X-64458877Y17186203D01*
X-64324264Y17184228D01*
G36*
X-69179068Y19517401D02*
X-69115741Y19489136D01*
X-69107557Y19483520D01*
X-69064021Y19438815D01*
X-69020393Y19369858D01*
X-68980320Y19283925D01*
X-68947450Y19188292D01*
X-68934788Y19138813D01*
X-68923326Y19068883D01*
X-68913876Y18973751D01*
X-68906598Y18859913D01*
X-68901650Y18733862D01*
X-68899191Y18602094D01*
X-68899381Y18471102D01*
X-68902378Y18347382D01*
X-68908342Y18237427D01*
X-68911727Y18197358D01*
X-68938524Y17965921D01*
X-68973501Y17741190D01*
X-69015799Y17525661D01*
X-69064565Y17321832D01*
X-69118941Y17132200D01*
X-69178071Y16959264D01*
X-69241101Y16805519D01*
X-69307172Y16673465D01*
X-69375431Y16565597D01*
X-69445020Y16484414D01*
X-69515084Y16432413D01*
X-69516990Y16431429D01*
X-69581896Y16405974D01*
X-69636850Y16405165D01*
X-69692838Y16429782D01*
X-69716074Y16445532D01*
X-69795536Y16515655D01*
X-69878347Y16611812D01*
X-69960830Y16729078D01*
X-70039309Y16862522D01*
X-70067248Y16916313D01*
X-70159277Y17133935D01*
X-70224559Y17363423D01*
X-70263075Y17600542D01*
X-70274807Y17841058D01*
X-70259735Y18080737D01*
X-70217840Y18315345D01*
X-70149103Y18540648D01*
X-70075353Y18710188D01*
X-69955280Y18915091D01*
X-69808093Y19103785D01*
X-69634317Y19275689D01*
X-69434472Y19430223D01*
X-69412438Y19445124D01*
X-69323574Y19495879D01*
X-69247064Y19519809D01*
X-69179068Y19517401D01*
X-69179068Y19517401D01*
G37*
X-69179068Y19517401D02*
X-69115741Y19489136D01*
X-69107557Y19483520D01*
X-69064021Y19438815D01*
X-69020393Y19369858D01*
X-68980320Y19283925D01*
X-68947450Y19188292D01*
X-68934788Y19138813D01*
X-68923326Y19068883D01*
X-68913876Y18973751D01*
X-68906598Y18859913D01*
X-68901650Y18733862D01*
X-68899191Y18602094D01*
X-68899381Y18471102D01*
X-68902378Y18347382D01*
X-68908342Y18237427D01*
X-68911727Y18197358D01*
X-68938524Y17965921D01*
X-68973501Y17741190D01*
X-69015799Y17525661D01*
X-69064565Y17321832D01*
X-69118941Y17132200D01*
X-69178071Y16959264D01*
X-69241101Y16805519D01*
X-69307172Y16673465D01*
X-69375431Y16565597D01*
X-69445020Y16484414D01*
X-69515084Y16432413D01*
X-69516990Y16431429D01*
X-69581896Y16405974D01*
X-69636850Y16405165D01*
X-69692838Y16429782D01*
X-69716074Y16445532D01*
X-69795536Y16515655D01*
X-69878347Y16611812D01*
X-69960830Y16729078D01*
X-70039309Y16862522D01*
X-70067248Y16916313D01*
X-70159277Y17133935D01*
X-70224559Y17363423D01*
X-70263075Y17600542D01*
X-70274807Y17841058D01*
X-70259735Y18080737D01*
X-70217840Y18315345D01*
X-70149103Y18540648D01*
X-70075353Y18710188D01*
X-69955280Y18915091D01*
X-69808093Y19103785D01*
X-69634317Y19275689D01*
X-69434472Y19430223D01*
X-69412438Y19445124D01*
X-69323574Y19495879D01*
X-69247064Y19519809D01*
X-69179068Y19517401D01*
G36*
X-59846725Y19565491D02*
X-59803421Y19548940D01*
X-59778632Y19537003D01*
X-59672187Y19474510D01*
X-59557421Y19390239D01*
X-59441162Y19290315D01*
X-59330235Y19180865D01*
X-59231467Y19068014D01*
X-59179635Y18999457D01*
X-59053641Y18795995D01*
X-58956804Y18583062D01*
X-58888377Y18358414D01*
X-58847610Y18119809D01*
X-58836158Y17969961D01*
X-58838686Y17724484D01*
X-58867415Y17486420D01*
X-58921325Y17258758D01*
X-58999400Y17044487D01*
X-59100621Y16846596D01*
X-59223971Y16668072D01*
X-59314683Y16564714D01*
X-59368260Y16510586D01*
X-59406918Y16476088D01*
X-59436717Y16457018D01*
X-59463715Y16449171D01*
X-59482747Y16448098D01*
X-59537030Y16455720D01*
X-59585813Y16472965D01*
X-59636092Y16504224D01*
X-59681054Y16545193D01*
X-59726804Y16602434D01*
X-59776761Y16678188D01*
X-59854309Y16821369D01*
X-59926588Y16991623D01*
X-59992690Y17184577D01*
X-60051703Y17395856D01*
X-60102717Y17621082D01*
X-60144823Y17855883D01*
X-60177110Y18095882D01*
X-60198668Y18336704D01*
X-60208586Y18573974D01*
X-60207762Y18749875D01*
X-60198224Y18945636D01*
X-60180530Y19111968D01*
X-60154193Y19250253D01*
X-60118726Y19361873D01*
X-60073644Y19448210D01*
X-60018459Y19510644D01*
X-59952684Y19550558D01*
X-59922065Y19560863D01*
X-59881867Y19568733D01*
X-59846725Y19565491D01*
X-59846725Y19565491D01*
G37*
X-59846725Y19565491D02*
X-59803421Y19548940D01*
X-59778632Y19537003D01*
X-59672187Y19474510D01*
X-59557421Y19390239D01*
X-59441162Y19290315D01*
X-59330235Y19180865D01*
X-59231467Y19068014D01*
X-59179635Y18999457D01*
X-59053641Y18795995D01*
X-58956804Y18583062D01*
X-58888377Y18358414D01*
X-58847610Y18119809D01*
X-58836158Y17969961D01*
X-58838686Y17724484D01*
X-58867415Y17486420D01*
X-58921325Y17258758D01*
X-58999400Y17044487D01*
X-59100621Y16846596D01*
X-59223971Y16668072D01*
X-59314683Y16564714D01*
X-59368260Y16510586D01*
X-59406918Y16476088D01*
X-59436717Y16457018D01*
X-59463715Y16449171D01*
X-59482747Y16448098D01*
X-59537030Y16455720D01*
X-59585813Y16472965D01*
X-59636092Y16504224D01*
X-59681054Y16545193D01*
X-59726804Y16602434D01*
X-59776761Y16678188D01*
X-59854309Y16821369D01*
X-59926588Y16991623D01*
X-59992690Y17184577D01*
X-60051703Y17395856D01*
X-60102717Y17621082D01*
X-60144823Y17855883D01*
X-60177110Y18095882D01*
X-60198668Y18336704D01*
X-60208586Y18573974D01*
X-60207762Y18749875D01*
X-60198224Y18945636D01*
X-60180530Y19111968D01*
X-60154193Y19250253D01*
X-60118726Y19361873D01*
X-60073644Y19448210D01*
X-60018459Y19510644D01*
X-59952684Y19550558D01*
X-59922065Y19560863D01*
X-59881867Y19568733D01*
X-59846725Y19565491D01*
G36*
X-66237736Y20555872D02*
X-66109894Y20547598D01*
X-65995122Y20532566D01*
X-65919938Y20516012D01*
X-65712234Y20442520D01*
X-65524061Y20344210D01*
X-65356162Y20221855D01*
X-65209282Y20076232D01*
X-65084162Y19908116D01*
X-64981546Y19718281D01*
X-64902178Y19507504D01*
X-64880849Y19432084D01*
X-64860160Y19328577D01*
X-64845144Y19204090D01*
X-64836300Y19068967D01*
X-64834126Y18933554D01*
X-64839121Y18808195D01*
X-64847117Y18732195D01*
X-64897403Y18482002D01*
X-64974678Y18242115D01*
X-65077037Y18014584D01*
X-65202578Y17801456D01*
X-65349397Y17604781D01*
X-65515591Y17426607D01*
X-65699257Y17268983D01*
X-65898490Y17133957D01*
X-66111389Y17023578D01*
X-66336048Y16939893D01*
X-66562123Y16886383D01*
X-66736362Y16866458D01*
X-66912931Y16864648D01*
X-67078478Y16881008D01*
X-67097203Y16884237D01*
X-67303116Y16936519D01*
X-67492447Y17014404D01*
X-67664311Y17115896D01*
X-67817823Y17238998D01*
X-67952099Y17381715D01*
X-68066253Y17542050D01*
X-68159399Y17718009D01*
X-68230654Y17907594D01*
X-68279131Y18108809D01*
X-68303946Y18319660D01*
X-68304214Y18538149D01*
X-68279050Y18762282D01*
X-68227568Y18990061D01*
X-68148884Y19219491D01*
X-68141130Y19238479D01*
X-68030711Y19467243D01*
X-67896226Y19680142D01*
X-67740099Y19875134D01*
X-67564754Y20050179D01*
X-67372614Y20203235D01*
X-67166104Y20332261D01*
X-66947647Y20435216D01*
X-66719668Y20510060D01*
X-66598989Y20537035D01*
X-66492352Y20550903D01*
X-66368578Y20557078D01*
X-66237736Y20555872D01*
X-66237736Y20555872D01*
G37*
X-66237736Y20555872D02*
X-66109894Y20547598D01*
X-65995122Y20532566D01*
X-65919938Y20516012D01*
X-65712234Y20442520D01*
X-65524061Y20344210D01*
X-65356162Y20221855D01*
X-65209282Y20076232D01*
X-65084162Y19908116D01*
X-64981546Y19718281D01*
X-64902178Y19507504D01*
X-64880849Y19432084D01*
X-64860160Y19328577D01*
X-64845144Y19204090D01*
X-64836300Y19068967D01*
X-64834126Y18933554D01*
X-64839121Y18808195D01*
X-64847117Y18732195D01*
X-64897403Y18482002D01*
X-64974678Y18242115D01*
X-65077037Y18014584D01*
X-65202578Y17801456D01*
X-65349397Y17604781D01*
X-65515591Y17426607D01*
X-65699257Y17268983D01*
X-65898490Y17133957D01*
X-66111389Y17023578D01*
X-66336048Y16939893D01*
X-66562123Y16886383D01*
X-66736362Y16866458D01*
X-66912931Y16864648D01*
X-67078478Y16881008D01*
X-67097203Y16884237D01*
X-67303116Y16936519D01*
X-67492447Y17014404D01*
X-67664311Y17115896D01*
X-67817823Y17238998D01*
X-67952099Y17381715D01*
X-68066253Y17542050D01*
X-68159399Y17718009D01*
X-68230654Y17907594D01*
X-68279131Y18108809D01*
X-68303946Y18319660D01*
X-68304214Y18538149D01*
X-68279050Y18762282D01*
X-68227568Y18990061D01*
X-68148884Y19219491D01*
X-68141130Y19238479D01*
X-68030711Y19467243D01*
X-67896226Y19680142D01*
X-67740099Y19875134D01*
X-67564754Y20050179D01*
X-67372614Y20203235D01*
X-67166104Y20332261D01*
X-66947647Y20435216D01*
X-66719668Y20510060D01*
X-66598989Y20537035D01*
X-66492352Y20550903D01*
X-66368578Y20557078D01*
X-66237736Y20555872D01*
G36*
X-62531703Y20643858D02*
X-62453059Y20641565D01*
X-62389609Y20636700D01*
X-62333083Y20628423D01*
X-62275208Y20615897D01*
X-62225040Y20602968D01*
X-61984499Y20522537D01*
X-61758482Y20414045D01*
X-61546395Y20277153D01*
X-61347640Y20111523D01*
X-61330364Y20095175D01*
X-61149889Y19902155D01*
X-60994776Y19693347D01*
X-60866109Y19471195D01*
X-60764975Y19238145D01*
X-60692460Y18996639D01*
X-60649650Y18749122D01*
X-60637428Y18535563D01*
X-60650145Y18302518D01*
X-60689342Y18082211D01*
X-60753751Y17876332D01*
X-60842103Y17686572D01*
X-60953131Y17514621D01*
X-61085567Y17362168D01*
X-61238141Y17230903D01*
X-61409588Y17122518D01*
X-61598637Y17038701D01*
X-61803675Y16981214D01*
X-61883710Y16969523D01*
X-61984588Y16961785D01*
X-62095628Y16958172D01*
X-62206151Y16958857D01*
X-62305475Y16964012D01*
X-62373155Y16972042D01*
X-62604413Y17026988D01*
X-62827197Y17110971D01*
X-63039353Y17221913D01*
X-63238726Y17357736D01*
X-63423162Y17516362D01*
X-63590505Y17695712D01*
X-63738601Y17893709D01*
X-63865295Y18108275D01*
X-63968432Y18337332D01*
X-64045857Y18578801D01*
X-64048022Y18587245D01*
X-64094924Y18830056D01*
X-64111740Y19069545D01*
X-64098646Y19303730D01*
X-64055816Y19530631D01*
X-63983427Y19748268D01*
X-63936107Y19853188D01*
X-63827935Y20039394D01*
X-63698644Y20201928D01*
X-63547966Y20341061D01*
X-63375635Y20457063D01*
X-63300563Y20497055D01*
X-63186964Y20550327D01*
X-63085722Y20589513D01*
X-62988009Y20616563D01*
X-62884995Y20633429D01*
X-62767849Y20642063D01*
X-62633813Y20644418D01*
X-62531703Y20643858D01*
X-62531703Y20643858D01*
G37*
X-62531703Y20643858D02*
X-62453059Y20641565D01*
X-62389609Y20636700D01*
X-62333083Y20628423D01*
X-62275208Y20615897D01*
X-62225040Y20602968D01*
X-61984499Y20522537D01*
X-61758482Y20414045D01*
X-61546395Y20277153D01*
X-61347640Y20111523D01*
X-61330364Y20095175D01*
X-61149889Y19902155D01*
X-60994776Y19693347D01*
X-60866109Y19471195D01*
X-60764975Y19238145D01*
X-60692460Y18996639D01*
X-60649650Y18749122D01*
X-60637428Y18535563D01*
X-60650145Y18302518D01*
X-60689342Y18082211D01*
X-60753751Y17876332D01*
X-60842103Y17686572D01*
X-60953131Y17514621D01*
X-61085567Y17362168D01*
X-61238141Y17230903D01*
X-61409588Y17122518D01*
X-61598637Y17038701D01*
X-61803675Y16981214D01*
X-61883710Y16969523D01*
X-61984588Y16961785D01*
X-62095628Y16958172D01*
X-62206151Y16958857D01*
X-62305475Y16964012D01*
X-62373155Y16972042D01*
X-62604413Y17026988D01*
X-62827197Y17110971D01*
X-63039353Y17221913D01*
X-63238726Y17357736D01*
X-63423162Y17516362D01*
X-63590505Y17695712D01*
X-63738601Y17893709D01*
X-63865295Y18108275D01*
X-63968432Y18337332D01*
X-64045857Y18578801D01*
X-64048022Y18587245D01*
X-64094924Y18830056D01*
X-64111740Y19069545D01*
X-64098646Y19303730D01*
X-64055816Y19530631D01*
X-63983427Y19748268D01*
X-63936107Y19853188D01*
X-63827935Y20039394D01*
X-63698644Y20201928D01*
X-63547966Y20341061D01*
X-63375635Y20457063D01*
X-63300563Y20497055D01*
X-63186964Y20550327D01*
X-63085722Y20589513D01*
X-62988009Y20616563D01*
X-62884995Y20633429D01*
X-62767849Y20642063D01*
X-62633813Y20644418D01*
X-62531703Y20643858D01*
G36*
X-62053346Y22288429D02*
X-61941253Y22284536D01*
X-61837078Y22277067D01*
X-61752750Y22266909D01*
X-61505127Y22214663D01*
X-61269565Y22135590D01*
X-61048828Y22031043D01*
X-60845678Y21902373D01*
X-60662879Y21750931D01*
X-60627550Y21716576D01*
X-60472441Y21539273D01*
X-60340247Y21341500D01*
X-60231917Y21125712D01*
X-60148398Y20894363D01*
X-60090640Y20649909D01*
X-60059591Y20394804D01*
X-60054170Y20232680D01*
X-60057936Y20143029D01*
X-60071515Y20081957D01*
X-60098228Y20046964D01*
X-60141397Y20035550D01*
X-60204344Y20045213D01*
X-60273793Y20067378D01*
X-60379886Y20112763D01*
X-60501680Y20177398D01*
X-60636776Y20259178D01*
X-60782778Y20355996D01*
X-60937287Y20465745D01*
X-61097908Y20586319D01*
X-61262241Y20715610D01*
X-61427891Y20851513D01*
X-61592458Y20991920D01*
X-61753547Y21134724D01*
X-61908760Y21277820D01*
X-62055698Y21419099D01*
X-62191966Y21556457D01*
X-62315165Y21687785D01*
X-62422898Y21810978D01*
X-62512768Y21923928D01*
X-62582377Y22024529D01*
X-62629329Y22110674D01*
X-62644463Y22150590D01*
X-62654285Y22196635D01*
X-62648458Y22225362D01*
X-62643866Y22231889D01*
X-62614959Y22247582D01*
X-62559317Y22261061D01*
X-62481890Y22272130D01*
X-62387629Y22280596D01*
X-62281485Y22286265D01*
X-62168407Y22288940D01*
X-62053346Y22288429D01*
X-62053346Y22288429D01*
G37*
X-62053346Y22288429D02*
X-61941253Y22284536D01*
X-61837078Y22277067D01*
X-61752750Y22266909D01*
X-61505127Y22214663D01*
X-61269565Y22135590D01*
X-61048828Y22031043D01*
X-60845678Y21902373D01*
X-60662879Y21750931D01*
X-60627550Y21716576D01*
X-60472441Y21539273D01*
X-60340247Y21341500D01*
X-60231917Y21125712D01*
X-60148398Y20894363D01*
X-60090640Y20649909D01*
X-60059591Y20394804D01*
X-60054170Y20232680D01*
X-60057936Y20143029D01*
X-60071515Y20081957D01*
X-60098228Y20046964D01*
X-60141397Y20035550D01*
X-60204344Y20045213D01*
X-60273793Y20067378D01*
X-60379886Y20112763D01*
X-60501680Y20177398D01*
X-60636776Y20259178D01*
X-60782778Y20355996D01*
X-60937287Y20465745D01*
X-61097908Y20586319D01*
X-61262241Y20715610D01*
X-61427891Y20851513D01*
X-61592458Y20991920D01*
X-61753547Y21134724D01*
X-61908760Y21277820D01*
X-62055698Y21419099D01*
X-62191966Y21556457D01*
X-62315165Y21687785D01*
X-62422898Y21810978D01*
X-62512768Y21923928D01*
X-62582377Y22024529D01*
X-62629329Y22110674D01*
X-62644463Y22150590D01*
X-62654285Y22196635D01*
X-62648458Y22225362D01*
X-62643866Y22231889D01*
X-62614959Y22247582D01*
X-62559317Y22261061D01*
X-62481890Y22272130D01*
X-62387629Y22280596D01*
X-62281485Y22286265D01*
X-62168407Y22288940D01*
X-62053346Y22288429D01*
G36*
X-66824864Y22331211D02*
X-66720884Y22325989D01*
X-66628407Y22318391D01*
X-66552583Y22308602D01*
X-66498562Y22296807D01*
X-66472511Y22284303D01*
X-66462731Y22254120D01*
X-66468764Y22205425D01*
X-66488773Y22146097D01*
X-66518201Y22088470D01*
X-66580762Y21995982D01*
X-66666242Y21887182D01*
X-66772085Y21764715D01*
X-66895737Y21631224D01*
X-67034646Y21489353D01*
X-67186257Y21341746D01*
X-67348016Y21191045D01*
X-67517370Y21039895D01*
X-67600984Y20967637D01*
X-67791562Y20808296D01*
X-67974580Y20662349D01*
X-68148529Y20530713D01*
X-68311901Y20414308D01*
X-68463186Y20314053D01*
X-68600875Y20230864D01*
X-68723458Y20165661D01*
X-68829426Y20119362D01*
X-68917270Y20092886D01*
X-68985481Y20087151D01*
X-69027469Y20099618D01*
X-69043640Y20126294D01*
X-69053578Y20179287D01*
X-69057655Y20253858D01*
X-69056248Y20345270D01*
X-69049730Y20448783D01*
X-69038474Y20559661D01*
X-69022857Y20673166D01*
X-69003251Y20784558D01*
X-68980031Y20889099D01*
X-68959159Y20964438D01*
X-68870930Y21199964D01*
X-68757962Y21416116D01*
X-68621338Y21611990D01*
X-68462142Y21786685D01*
X-68281460Y21939297D01*
X-68080376Y22068923D01*
X-67859973Y22174660D01*
X-67621336Y22255606D01*
X-67365549Y22310857D01*
X-67337016Y22315238D01*
X-67252788Y22324659D01*
X-67154308Y22330782D01*
X-67046727Y22333792D01*
X-66935195Y22333874D01*
X-66824864Y22331211D01*
X-66824864Y22331211D01*
G37*
X-66824864Y22331211D02*
X-66720884Y22325989D01*
X-66628407Y22318391D01*
X-66552583Y22308602D01*
X-66498562Y22296807D01*
X-66472511Y22284303D01*
X-66462731Y22254120D01*
X-66468764Y22205425D01*
X-66488773Y22146097D01*
X-66518201Y22088470D01*
X-66580762Y21995982D01*
X-66666242Y21887182D01*
X-66772085Y21764715D01*
X-66895737Y21631224D01*
X-67034646Y21489353D01*
X-67186257Y21341746D01*
X-67348016Y21191045D01*
X-67517370Y21039895D01*
X-67600984Y20967637D01*
X-67791562Y20808296D01*
X-67974580Y20662349D01*
X-68148529Y20530713D01*
X-68311901Y20414308D01*
X-68463186Y20314053D01*
X-68600875Y20230864D01*
X-68723458Y20165661D01*
X-68829426Y20119362D01*
X-68917270Y20092886D01*
X-68985481Y20087151D01*
X-69027469Y20099618D01*
X-69043640Y20126294D01*
X-69053578Y20179287D01*
X-69057655Y20253858D01*
X-69056248Y20345270D01*
X-69049730Y20448783D01*
X-69038474Y20559661D01*
X-69022857Y20673166D01*
X-69003251Y20784558D01*
X-68980031Y20889099D01*
X-68959159Y20964438D01*
X-68870930Y21199964D01*
X-68757962Y21416116D01*
X-68621338Y21611990D01*
X-68462142Y21786685D01*
X-68281460Y21939297D01*
X-68080376Y22068923D01*
X-67859973Y22174660D01*
X-67621336Y22255606D01*
X-67365549Y22310857D01*
X-67337016Y22315238D01*
X-67252788Y22324659D01*
X-67154308Y22330782D01*
X-67046727Y22333792D01*
X-66935195Y22333874D01*
X-66824864Y22331211D01*
G36*
X-64258441Y22644376D02*
X-64155993Y22630552D01*
X-63962165Y22586046D01*
X-63769187Y22521541D01*
X-63581886Y22439773D01*
X-63405089Y22343476D01*
X-63243623Y22235387D01*
X-63102317Y22118241D01*
X-62985997Y21994773D01*
X-62949352Y21946769D01*
X-62882314Y21841481D01*
X-62839163Y21744100D01*
X-62816750Y21645889D01*
X-62811645Y21564667D01*
X-62813861Y21494374D01*
X-62823874Y21438958D01*
X-62845503Y21381797D01*
X-62861317Y21348482D01*
X-62936381Y21230571D01*
X-63039913Y21121805D01*
X-63169552Y21023747D01*
X-63322934Y20937963D01*
X-63497695Y20866018D01*
X-63665688Y20815801D01*
X-63829023Y20781586D01*
X-64012872Y20754854D01*
X-64206704Y20736419D01*
X-64399991Y20727100D01*
X-64582204Y20727711D01*
X-64705500Y20735199D01*
X-64928774Y20764744D01*
X-65140285Y20810509D01*
X-65337701Y20871187D01*
X-65518692Y20945471D01*
X-65680927Y21032054D01*
X-65822073Y21129627D01*
X-65939799Y21236885D01*
X-66031775Y21352518D01*
X-66095668Y21475221D01*
X-66112291Y21524088D01*
X-66129460Y21630788D01*
X-66118117Y21737279D01*
X-66077627Y21845248D01*
X-66007353Y21956382D01*
X-65906659Y22072370D01*
X-65905075Y22073991D01*
X-65736662Y22224495D01*
X-65545334Y22356827D01*
X-65335776Y22468506D01*
X-65112675Y22557052D01*
X-64880716Y22619984D01*
X-64869006Y22622406D01*
X-64730771Y22642985D01*
X-64574697Y22653600D01*
X-64413135Y22654111D01*
X-64258441Y22644376D01*
X-64258441Y22644376D01*
G37*
X-64258441Y22644376D02*
X-64155993Y22630552D01*
X-63962165Y22586046D01*
X-63769187Y22521541D01*
X-63581886Y22439773D01*
X-63405089Y22343476D01*
X-63243623Y22235387D01*
X-63102317Y22118241D01*
X-62985997Y21994773D01*
X-62949352Y21946769D01*
X-62882314Y21841481D01*
X-62839163Y21744100D01*
X-62816750Y21645889D01*
X-62811645Y21564667D01*
X-62813861Y21494374D01*
X-62823874Y21438958D01*
X-62845503Y21381797D01*
X-62861317Y21348482D01*
X-62936381Y21230571D01*
X-63039913Y21121805D01*
X-63169552Y21023747D01*
X-63322934Y20937963D01*
X-63497695Y20866018D01*
X-63665688Y20815801D01*
X-63829023Y20781586D01*
X-64012872Y20754854D01*
X-64206704Y20736419D01*
X-64399991Y20727100D01*
X-64582204Y20727711D01*
X-64705500Y20735199D01*
X-64928774Y20764744D01*
X-65140285Y20810509D01*
X-65337701Y20871187D01*
X-65518692Y20945471D01*
X-65680927Y21032054D01*
X-65822073Y21129627D01*
X-65939799Y21236885D01*
X-66031775Y21352518D01*
X-66095668Y21475221D01*
X-66112291Y21524088D01*
X-66129460Y21630788D01*
X-66118117Y21737279D01*
X-66077627Y21845248D01*
X-66007353Y21956382D01*
X-65906659Y22072370D01*
X-65905075Y22073991D01*
X-65736662Y22224495D01*
X-65545334Y22356827D01*
X-65335776Y22468506D01*
X-65112675Y22557052D01*
X-64880716Y22619984D01*
X-64869006Y22622406D01*
X-64730771Y22642985D01*
X-64574697Y22653600D01*
X-64413135Y22654111D01*
X-64258441Y22644376D01*
G36*
X-67287648Y26773289D02*
X-67229106Y26747459D01*
X-67156614Y26708399D01*
X-67075621Y26659376D01*
X-66991577Y26603657D01*
X-66909934Y26544506D01*
X-66850065Y26496956D01*
X-66748317Y26412133D01*
X-66711817Y26457908D01*
X-66680342Y26507097D01*
X-66669859Y26555879D01*
X-66678420Y26616430D01*
X-66683443Y26635313D01*
X-66702361Y26702313D01*
X-66657940Y26679342D01*
X-66607143Y26647663D01*
X-66542035Y26599390D01*
X-66470219Y26540901D01*
X-66399301Y26478573D01*
X-66336887Y26418783D01*
X-66300067Y26379252D01*
X-66222982Y26289964D01*
X-66190522Y26322376D01*
X-66171063Y26350670D01*
X-66158507Y26393656D01*
X-66150646Y26459327D01*
X-66149887Y26469488D01*
X-66141711Y26584188D01*
X-65990301Y26433375D01*
X-65921354Y26363498D01*
X-65848820Y26287987D01*
X-65781802Y26216424D01*
X-65733893Y26163501D01*
X-65688719Y26114693D01*
X-65650714Y26078116D01*
X-65624829Y26058282D01*
X-65616688Y26056647D01*
X-65605945Y26077017D01*
X-65589458Y26118760D01*
X-65570771Y26172889D01*
X-65570550Y26173570D01*
X-65536620Y26278286D01*
X-65429897Y26161362D01*
X-65287369Y25990432D01*
X-65157792Y25805702D01*
X-65044359Y25613026D01*
X-64950266Y25418259D01*
X-64878705Y25227255D01*
X-64839437Y25079241D01*
X-64824769Y24980300D01*
X-64818028Y24868409D01*
X-64819179Y24755084D01*
X-64828186Y24651844D01*
X-64840960Y24584493D01*
X-64894798Y24439874D01*
X-64977376Y24308378D01*
X-65088289Y24190542D01*
X-65211569Y24096891D01*
X-65265725Y24062561D01*
X-65310360Y24036203D01*
X-65338506Y24021852D01*
X-65343697Y24020375D01*
X-65361094Y24029664D01*
X-65398279Y24055117D01*
X-65450205Y24093113D01*
X-65511828Y24140033D01*
X-65528191Y24152759D01*
X-65910754Y24433128D01*
X-66320593Y24697928D01*
X-66757826Y24947223D01*
X-67222568Y25181075D01*
X-67714939Y25399548D01*
X-68138752Y25567029D01*
X-68227112Y25599892D01*
X-68305365Y25628504D01*
X-68368620Y25651119D01*
X-68411986Y25665988D01*
X-68430574Y25671362D01*
X-68430594Y25671362D01*
X-68420886Y25664140D01*
X-68386687Y25643778D01*
X-68331445Y25612225D01*
X-68258604Y25571425D01*
X-68171613Y25523325D01*
X-68073917Y25469872D01*
X-68071000Y25468285D01*
X-67722858Y25274604D01*
X-67393798Y25083070D01*
X-67086183Y24895155D01*
X-66802370Y24712328D01*
X-66544719Y24536062D01*
X-66360922Y24402190D01*
X-66258888Y24323242D01*
X-66148998Y24234284D01*
X-66037003Y24140291D01*
X-65928653Y24046238D01*
X-65829700Y23957100D01*
X-65745892Y23877852D01*
X-65693292Y23824574D01*
X-65655826Y23783726D01*
X-65631555Y23750472D01*
X-65620577Y23718485D01*
X-65622986Y23681436D01*
X-65638880Y23632996D01*
X-65668354Y23566837D01*
X-65698154Y23504438D01*
X-65788912Y23346857D01*
X-65901102Y23209039D01*
X-66037160Y23088572D01*
X-66199518Y22983047D01*
X-66254613Y22953483D01*
X-66450051Y22867939D01*
X-66668717Y22799344D01*
X-66906477Y22748546D01*
X-67159198Y22716389D01*
X-67422745Y22703721D01*
X-67475688Y22703596D01*
X-67547197Y22704211D01*
X-67591272Y22705828D01*
X-67612230Y22709448D01*
X-67614389Y22716073D01*
X-67602065Y22726704D01*
X-67595406Y22731364D01*
X-67530762Y22779987D01*
X-67480562Y22825634D01*
X-67451488Y22862227D01*
X-67451316Y22862546D01*
X-67445322Y22881234D01*
X-67451868Y22896333D01*
X-67474334Y22908821D01*
X-67516102Y22919673D01*
X-67580553Y22929867D01*
X-67671069Y22940379D01*
X-67747214Y22948013D01*
X-67861077Y22959647D01*
X-67950233Y22970583D01*
X-68021662Y22982122D01*
X-68082344Y22995566D01*
X-68139260Y23012217D01*
X-68193711Y23031270D01*
X-68237710Y23051319D01*
X-68250331Y23067989D01*
X-68231650Y23082225D01*
X-68198564Y23091564D01*
X-68153697Y23108225D01*
X-68111002Y23134678D01*
X-68080311Y23163748D01*
X-68071000Y23184647D01*
X-68085297Y23196286D01*
X-68124606Y23214902D01*
X-68183556Y23238260D01*
X-68256777Y23264121D01*
X-68281344Y23272236D01*
X-68391622Y23310188D01*
X-68499261Y23351077D01*
X-68598359Y23392359D01*
X-68683016Y23431489D01*
X-68747334Y23465924D01*
X-68777438Y23486145D01*
X-68794619Y23501558D01*
X-68791765Y23509034D01*
X-68764257Y23511579D01*
X-68737750Y23511959D01*
X-68667115Y23517419D01*
X-68602453Y23530963D01*
X-68553373Y23550091D01*
X-68533821Y23564991D01*
X-68529407Y23582852D01*
X-68550078Y23602078D01*
X-68567821Y23612175D01*
X-68700202Y23682545D01*
X-68808126Y23741071D01*
X-68895563Y23790057D01*
X-68966479Y23831807D01*
X-69024842Y23868627D01*
X-69074620Y23902821D01*
X-69098906Y23920690D01*
X-69149678Y23960221D01*
X-69189007Y23993356D01*
X-69211156Y24015137D01*
X-69214000Y24020100D01*
X-69199385Y24026718D01*
X-69160560Y24032957D01*
X-69105059Y24037715D01*
X-69087709Y24038624D01*
X-69011361Y24043728D01*
X-68964043Y24052400D01*
X-68945437Y24067074D01*
X-68955221Y24090184D01*
X-68993078Y24124163D01*
X-69058687Y24171445D01*
X-69069318Y24178750D01*
X-69143764Y24233305D01*
X-69227796Y24300458D01*
X-69308913Y24369997D01*
X-69352466Y24410029D01*
X-69491813Y24542817D01*
X-69385404Y24543534D01*
X-69324006Y24546582D01*
X-69270218Y24553807D01*
X-69239321Y24562327D01*
X-69225655Y24569560D01*
X-69219507Y24578388D01*
X-69223419Y24592163D01*
X-69239932Y24614237D01*
X-69271588Y24647963D01*
X-69320928Y24696693D01*
X-69390493Y24763781D01*
X-69396200Y24769265D01*
X-69483426Y24855626D01*
X-69558703Y24935218D01*
X-69619408Y25004939D01*
X-69662920Y25061690D01*
X-69686615Y25102369D01*
X-69690251Y25116919D01*
X-69676716Y25119514D01*
X-69642172Y25113311D01*
X-69616290Y25106259D01*
X-69565129Y25092899D01*
X-69521813Y25085007D01*
X-69509134Y25084089D01*
X-69461120Y25089301D01*
X-69413123Y25102275D01*
X-69375153Y25119375D01*
X-69357219Y25136964D01*
X-69356876Y25139399D01*
X-69368272Y25157743D01*
X-69399381Y25191775D01*
X-69445576Y25236791D01*
X-69502234Y25288086D01*
X-69507878Y25293015D01*
X-69573551Y25353131D01*
X-69636822Y25416196D01*
X-69689960Y25474213D01*
X-69722066Y25514552D01*
X-69765280Y25576773D01*
X-69789006Y25616969D01*
X-69791498Y25639443D01*
X-69771013Y25648501D01*
X-69725805Y25648445D01*
X-69669331Y25644636D01*
X-69589386Y25639679D01*
X-69536727Y25639923D01*
X-69506999Y25647919D01*
X-69495848Y25666221D01*
X-69497137Y25679313D01*
X-68467875Y25679313D01*
X-68459938Y25671375D01*
X-68452000Y25679313D01*
X-68459938Y25687250D01*
X-68467875Y25679313D01*
X-69497137Y25679313D01*
X-69498918Y25697381D01*
X-69510081Y25737982D01*
X-69539652Y25819160D01*
X-69582702Y25914239D01*
X-69633494Y26011845D01*
X-69686290Y26100605D01*
X-69712773Y26139688D01*
X-69769788Y26219063D01*
X-69410807Y26230035D01*
X-69307216Y26233583D01*
X-69214515Y26237485D01*
X-69137328Y26241488D01*
X-69080277Y26245337D01*
X-69047986Y26248778D01*
X-69042540Y26250294D01*
X-69048599Y26264945D01*
X-69072817Y26295901D01*
X-69110525Y26337403D01*
X-69125955Y26353260D01*
X-69218656Y26446938D01*
X-69156797Y26460001D01*
X-69059470Y26471681D01*
X-68941390Y26471611D01*
X-68811042Y26460416D01*
X-68676913Y26438719D01*
X-68587218Y26418114D01*
X-68507570Y26397681D01*
X-68452980Y26385020D01*
X-68417878Y26379546D01*
X-68396692Y26380675D01*
X-68383850Y26387823D01*
X-68376874Y26396048D01*
X-68360443Y26424859D01*
X-68356750Y26438505D01*
X-68367203Y26469442D01*
X-68393627Y26511724D01*
X-68428620Y26555207D01*
X-68464779Y26589746D01*
X-68469909Y26593573D01*
X-68498776Y26617250D01*
X-68510313Y26633189D01*
X-68509708Y26634960D01*
X-68490235Y26636275D01*
X-68446095Y26630824D01*
X-68383332Y26619880D01*
X-68307994Y26604718D01*
X-68226127Y26586611D01*
X-68143778Y26566834D01*
X-68066993Y26546658D01*
X-68007500Y26529169D01*
X-67929989Y26505025D01*
X-67877330Y26490222D01*
X-67844165Y26484339D01*
X-67825135Y26486952D01*
X-67814880Y26497641D01*
X-67808816Y26513528D01*
X-67809668Y26552602D01*
X-67835286Y26601265D01*
X-67886970Y26661580D01*
X-67926359Y26699890D01*
X-67999563Y26767966D01*
X-67944000Y26757518D01*
X-67796273Y26721489D01*
X-67639105Y26668885D01*
X-67485719Y26604739D01*
X-67349339Y26534086D01*
X-67335442Y26525831D01*
X-67297412Y26503963D01*
X-67276246Y26498027D01*
X-67261782Y26507291D01*
X-67252098Y26519836D01*
X-67231177Y26572241D01*
X-67239996Y26632433D01*
X-67278739Y26701468D01*
X-67285083Y26709972D01*
X-67312481Y26748648D01*
X-67327083Y26775001D01*
X-67326789Y26782625D01*
X-67287648Y26773289D01*
X-67287648Y26773289D01*
G37*
X-67287648Y26773289D02*
X-67229106Y26747459D01*
X-67156614Y26708399D01*
X-67075621Y26659376D01*
X-66991577Y26603657D01*
X-66909934Y26544506D01*
X-66850065Y26496956D01*
X-66748317Y26412133D01*
X-66711817Y26457908D01*
X-66680342Y26507097D01*
X-66669859Y26555879D01*
X-66678420Y26616430D01*
X-66683443Y26635313D01*
X-66702361Y26702313D01*
X-66657940Y26679342D01*
X-66607143Y26647663D01*
X-66542035Y26599390D01*
X-66470219Y26540901D01*
X-66399301Y26478573D01*
X-66336887Y26418783D01*
X-66300067Y26379252D01*
X-66222982Y26289964D01*
X-66190522Y26322376D01*
X-66171063Y26350670D01*
X-66158507Y26393656D01*
X-66150646Y26459327D01*
X-66149887Y26469488D01*
X-66141711Y26584188D01*
X-65990301Y26433375D01*
X-65921354Y26363498D01*
X-65848820Y26287987D01*
X-65781802Y26216424D01*
X-65733893Y26163501D01*
X-65688719Y26114693D01*
X-65650714Y26078116D01*
X-65624829Y26058282D01*
X-65616688Y26056647D01*
X-65605945Y26077017D01*
X-65589458Y26118760D01*
X-65570771Y26172889D01*
X-65570550Y26173570D01*
X-65536620Y26278286D01*
X-65429897Y26161362D01*
X-65287369Y25990432D01*
X-65157792Y25805702D01*
X-65044359Y25613026D01*
X-64950266Y25418259D01*
X-64878705Y25227255D01*
X-64839437Y25079241D01*
X-64824769Y24980300D01*
X-64818028Y24868409D01*
X-64819179Y24755084D01*
X-64828186Y24651844D01*
X-64840960Y24584493D01*
X-64894798Y24439874D01*
X-64977376Y24308378D01*
X-65088289Y24190542D01*
X-65211569Y24096891D01*
X-65265725Y24062561D01*
X-65310360Y24036203D01*
X-65338506Y24021852D01*
X-65343697Y24020375D01*
X-65361094Y24029664D01*
X-65398279Y24055117D01*
X-65450205Y24093113D01*
X-65511828Y24140033D01*
X-65528191Y24152759D01*
X-65910754Y24433128D01*
X-66320593Y24697928D01*
X-66757826Y24947223D01*
X-67222568Y25181075D01*
X-67714939Y25399548D01*
X-68138752Y25567029D01*
X-68227112Y25599892D01*
X-68305365Y25628504D01*
X-68368620Y25651119D01*
X-68411986Y25665988D01*
X-68430574Y25671362D01*
X-68430594Y25671362D01*
X-68420886Y25664140D01*
X-68386687Y25643778D01*
X-68331445Y25612225D01*
X-68258604Y25571425D01*
X-68171613Y25523325D01*
X-68073917Y25469872D01*
X-68071000Y25468285D01*
X-67722858Y25274604D01*
X-67393798Y25083070D01*
X-67086183Y24895155D01*
X-66802370Y24712328D01*
X-66544719Y24536062D01*
X-66360922Y24402190D01*
X-66258888Y24323242D01*
X-66148998Y24234284D01*
X-66037003Y24140291D01*
X-65928653Y24046238D01*
X-65829700Y23957100D01*
X-65745892Y23877852D01*
X-65693292Y23824574D01*
X-65655826Y23783726D01*
X-65631555Y23750472D01*
X-65620577Y23718485D01*
X-65622986Y23681436D01*
X-65638880Y23632996D01*
X-65668354Y23566837D01*
X-65698154Y23504438D01*
X-65788912Y23346857D01*
X-65901102Y23209039D01*
X-66037160Y23088572D01*
X-66199518Y22983047D01*
X-66254613Y22953483D01*
X-66450051Y22867939D01*
X-66668717Y22799344D01*
X-66906477Y22748546D01*
X-67159198Y22716389D01*
X-67422745Y22703721D01*
X-67475688Y22703596D01*
X-67547197Y22704211D01*
X-67591272Y22705828D01*
X-67612230Y22709448D01*
X-67614389Y22716073D01*
X-67602065Y22726704D01*
X-67595406Y22731364D01*
X-67530762Y22779987D01*
X-67480562Y22825634D01*
X-67451488Y22862227D01*
X-67451316Y22862546D01*
X-67445322Y22881234D01*
X-67451868Y22896333D01*
X-67474334Y22908821D01*
X-67516102Y22919673D01*
X-67580553Y22929867D01*
X-67671069Y22940379D01*
X-67747214Y22948013D01*
X-67861077Y22959647D01*
X-67950233Y22970583D01*
X-68021662Y22982122D01*
X-68082344Y22995566D01*
X-68139260Y23012217D01*
X-68193711Y23031270D01*
X-68237710Y23051319D01*
X-68250331Y23067989D01*
X-68231650Y23082225D01*
X-68198564Y23091564D01*
X-68153697Y23108225D01*
X-68111002Y23134678D01*
X-68080311Y23163748D01*
X-68071000Y23184647D01*
X-68085297Y23196286D01*
X-68124606Y23214902D01*
X-68183556Y23238260D01*
X-68256777Y23264121D01*
X-68281344Y23272236D01*
X-68391622Y23310188D01*
X-68499261Y23351077D01*
X-68598359Y23392359D01*
X-68683016Y23431489D01*
X-68747334Y23465924D01*
X-68777438Y23486145D01*
X-68794619Y23501558D01*
X-68791765Y23509034D01*
X-68764257Y23511579D01*
X-68737750Y23511959D01*
X-68667115Y23517419D01*
X-68602453Y23530963D01*
X-68553373Y23550091D01*
X-68533821Y23564991D01*
X-68529407Y23582852D01*
X-68550078Y23602078D01*
X-68567821Y23612175D01*
X-68700202Y23682545D01*
X-68808126Y23741071D01*
X-68895563Y23790057D01*
X-68966479Y23831807D01*
X-69024842Y23868627D01*
X-69074620Y23902821D01*
X-69098906Y23920690D01*
X-69149678Y23960221D01*
X-69189007Y23993356D01*
X-69211156Y24015137D01*
X-69214000Y24020100D01*
X-69199385Y24026718D01*
X-69160560Y24032957D01*
X-69105059Y24037715D01*
X-69087709Y24038624D01*
X-69011361Y24043728D01*
X-68964043Y24052400D01*
X-68945437Y24067074D01*
X-68955221Y24090184D01*
X-68993078Y24124163D01*
X-69058687Y24171445D01*
X-69069318Y24178750D01*
X-69143764Y24233305D01*
X-69227796Y24300458D01*
X-69308913Y24369997D01*
X-69352466Y24410029D01*
X-69491813Y24542817D01*
X-69385404Y24543534D01*
X-69324006Y24546582D01*
X-69270218Y24553807D01*
X-69239321Y24562327D01*
X-69225655Y24569560D01*
X-69219507Y24578388D01*
X-69223419Y24592163D01*
X-69239932Y24614237D01*
X-69271588Y24647963D01*
X-69320928Y24696693D01*
X-69390493Y24763781D01*
X-69396200Y24769265D01*
X-69483426Y24855626D01*
X-69558703Y24935218D01*
X-69619408Y25004939D01*
X-69662920Y25061690D01*
X-69686615Y25102369D01*
X-69690251Y25116919D01*
X-69676716Y25119514D01*
X-69642172Y25113311D01*
X-69616290Y25106259D01*
X-69565129Y25092899D01*
X-69521813Y25085007D01*
X-69509134Y25084089D01*
X-69461120Y25089301D01*
X-69413123Y25102275D01*
X-69375153Y25119375D01*
X-69357219Y25136964D01*
X-69356876Y25139399D01*
X-69368272Y25157743D01*
X-69399381Y25191775D01*
X-69445576Y25236791D01*
X-69502234Y25288086D01*
X-69507878Y25293015D01*
X-69573551Y25353131D01*
X-69636822Y25416196D01*
X-69689960Y25474213D01*
X-69722066Y25514552D01*
X-69765280Y25576773D01*
X-69789006Y25616969D01*
X-69791498Y25639443D01*
X-69771013Y25648501D01*
X-69725805Y25648445D01*
X-69669331Y25644636D01*
X-69589386Y25639679D01*
X-69536727Y25639923D01*
X-69506999Y25647919D01*
X-69495848Y25666221D01*
X-69497137Y25679313D01*
X-68467875Y25679313D01*
X-68459938Y25671375D01*
X-68452000Y25679313D01*
X-68459938Y25687250D01*
X-68467875Y25679313D01*
X-69497137Y25679313D01*
X-69498918Y25697381D01*
X-69510081Y25737982D01*
X-69539652Y25819160D01*
X-69582702Y25914239D01*
X-69633494Y26011845D01*
X-69686290Y26100605D01*
X-69712773Y26139688D01*
X-69769788Y26219063D01*
X-69410807Y26230035D01*
X-69307216Y26233583D01*
X-69214515Y26237485D01*
X-69137328Y26241488D01*
X-69080277Y26245337D01*
X-69047986Y26248778D01*
X-69042540Y26250294D01*
X-69048599Y26264945D01*
X-69072817Y26295901D01*
X-69110525Y26337403D01*
X-69125955Y26353260D01*
X-69218656Y26446938D01*
X-69156797Y26460001D01*
X-69059470Y26471681D01*
X-68941390Y26471611D01*
X-68811042Y26460416D01*
X-68676913Y26438719D01*
X-68587218Y26418114D01*
X-68507570Y26397681D01*
X-68452980Y26385020D01*
X-68417878Y26379546D01*
X-68396692Y26380675D01*
X-68383850Y26387823D01*
X-68376874Y26396048D01*
X-68360443Y26424859D01*
X-68356750Y26438505D01*
X-68367203Y26469442D01*
X-68393627Y26511724D01*
X-68428620Y26555207D01*
X-68464779Y26589746D01*
X-68469909Y26593573D01*
X-68498776Y26617250D01*
X-68510313Y26633189D01*
X-68509708Y26634960D01*
X-68490235Y26636275D01*
X-68446095Y26630824D01*
X-68383332Y26619880D01*
X-68307994Y26604718D01*
X-68226127Y26586611D01*
X-68143778Y26566834D01*
X-68066993Y26546658D01*
X-68007500Y26529169D01*
X-67929989Y26505025D01*
X-67877330Y26490222D01*
X-67844165Y26484339D01*
X-67825135Y26486952D01*
X-67814880Y26497641D01*
X-67808816Y26513528D01*
X-67809668Y26552602D01*
X-67835286Y26601265D01*
X-67886970Y26661580D01*
X-67926359Y26699890D01*
X-67999563Y26767966D01*
X-67944000Y26757518D01*
X-67796273Y26721489D01*
X-67639105Y26668885D01*
X-67485719Y26604739D01*
X-67349339Y26534086D01*
X-67335442Y26525831D01*
X-67297412Y26503963D01*
X-67276246Y26498027D01*
X-67261782Y26507291D01*
X-67252098Y26519836D01*
X-67231177Y26572241D01*
X-67239996Y26632433D01*
X-67278739Y26701468D01*
X-67285083Y26709972D01*
X-67312481Y26748648D01*
X-67327083Y26775001D01*
X-67326789Y26782625D01*
X-67287648Y26773289D01*
G36*
X-61584627Y26778544D02*
X-61588770Y26762796D01*
X-61608706Y26733207D01*
X-61616714Y26723327D01*
X-61663496Y26653688D01*
X-61680208Y26591962D01*
X-61673962Y26553980D01*
X-61657638Y26521544D01*
X-61644912Y26506844D01*
X-61626022Y26510234D01*
X-61584851Y26525948D01*
X-61527218Y26551532D01*
X-61458942Y26584530D01*
X-61449464Y26589299D01*
X-61323307Y26648125D01*
X-61197591Y26695555D01*
X-61059907Y26735940D01*
X-60967350Y26758382D01*
X-60945721Y26762216D01*
X-60938572Y26758232D01*
X-60947949Y26742470D01*
X-60975898Y26710971D01*
X-61011007Y26673874D01*
X-61065724Y26609173D01*
X-61096838Y26555454D01*
X-61103540Y26514925D01*
X-61085018Y26489798D01*
X-61079417Y26487261D01*
X-61055431Y26488203D01*
X-61009113Y26497731D01*
X-60948145Y26514086D01*
X-60906849Y26526727D01*
X-60840647Y26546405D01*
X-60761158Y26567713D01*
X-60675660Y26588968D01*
X-60591432Y26608483D01*
X-60515753Y26624575D01*
X-60455903Y26635558D01*
X-60419161Y26639747D01*
X-60418553Y26639751D01*
X-60418574Y26629425D01*
X-60437010Y26602258D01*
X-60469931Y26563967D01*
X-60472641Y26561056D01*
X-60521862Y26500090D01*
X-60544134Y26449560D01*
X-60540801Y26405499D01*
X-60531572Y26387144D01*
X-60520440Y26377822D01*
X-60499283Y26375838D01*
X-60462226Y26381874D01*
X-60403393Y26396614D01*
X-60369097Y26406032D01*
X-60204518Y26445846D01*
X-60055176Y26469775D01*
X-59925500Y26477225D01*
X-59863625Y26474027D01*
X-59783942Y26465713D01*
X-59733468Y26457561D01*
X-59709899Y26445883D01*
X-59710926Y26426992D01*
X-59734246Y26397199D01*
X-59777551Y26352816D01*
X-59783861Y26346456D01*
X-59881611Y26247830D01*
X-59711399Y26237415D01*
X-59621543Y26233036D01*
X-59515531Y26229564D01*
X-59408952Y26227444D01*
X-59345218Y26227001D01*
X-59270549Y26226332D01*
X-59208983Y26224509D01*
X-59166569Y26221802D01*
X-59149358Y26218484D01*
X-59149250Y26218192D01*
X-59157518Y26201594D01*
X-59179222Y26166427D01*
X-59209711Y26120215D01*
X-59210553Y26118973D01*
X-59301192Y25968473D01*
X-59372124Y25815501D01*
X-59389473Y25768466D01*
X-59409286Y25709711D01*
X-59417599Y25671446D01*
X-59410311Y25649713D01*
X-59383316Y25640552D01*
X-59332511Y25640007D01*
X-59260196Y25643766D01*
X-59101267Y25652524D01*
X-59136479Y25586543D01*
X-59159586Y25553466D01*
X-59201162Y25503850D01*
X-59256530Y25442891D01*
X-59321013Y25375785D01*
X-59370307Y25326730D01*
X-59568923Y25132898D01*
X-59505930Y25106219D01*
X-59464784Y25091841D01*
X-59424864Y25087223D01*
X-59373309Y25091636D01*
X-59340244Y25096816D01*
X-59286921Y25104671D01*
X-59247424Y25108398D01*
X-59230765Y25107307D01*
X-59232770Y25087722D01*
X-59256064Y25049570D01*
X-59298377Y24995573D01*
X-59357442Y24928450D01*
X-59430988Y24850922D01*
X-59511098Y24771184D01*
X-59710702Y24577430D01*
X-59667068Y24560840D01*
X-59628075Y24552057D01*
X-59570980Y24546043D01*
X-59519336Y24544251D01*
X-59464343Y24543561D01*
X-59435686Y24540332D01*
X-59427960Y24532822D01*
X-59435761Y24519292D01*
X-59437025Y24517737D01*
X-59470648Y24482628D01*
X-59523807Y24433791D01*
X-59590431Y24376267D01*
X-59664448Y24315097D01*
X-59739787Y24255320D01*
X-59810375Y24201979D01*
X-59858085Y24168181D01*
X-59993481Y24076210D01*
X-59948397Y24056946D01*
X-59909230Y24046902D01*
X-59851442Y24039675D01*
X-59793187Y24036967D01*
X-59683060Y24036250D01*
X-59729687Y23987501D01*
X-59790463Y23934302D01*
X-59880090Y23871323D01*
X-59997448Y23799277D01*
X-60141422Y23718876D01*
X-60200188Y23687690D01*
X-60410430Y23577482D01*
X-60339434Y23545277D01*
X-60273033Y23523785D01*
X-60201428Y23513072D01*
X-60189630Y23512724D01*
X-60144221Y23511425D01*
X-60125344Y23506605D01*
X-60127811Y23496080D01*
X-60134067Y23489329D01*
X-60177343Y23457478D01*
X-60247106Y23419891D01*
X-60339030Y23378484D01*
X-60448791Y23335174D01*
X-60572060Y23291878D01*
X-60601813Y23282141D01*
X-60683583Y23255502D01*
X-60754265Y23232024D01*
X-60808526Y23213514D01*
X-60841036Y23201778D01*
X-60847865Y23198755D01*
X-60844427Y23184502D01*
X-60821314Y23160618D01*
X-60786455Y23133151D01*
X-60747784Y23108150D01*
X-60713232Y23091665D01*
X-60704106Y23089128D01*
X-60671141Y23078800D01*
X-60657376Y23067064D01*
X-60657375Y23067032D01*
X-60672283Y23050412D01*
X-60713526Y23031686D01*
X-60775882Y23012255D01*
X-60854130Y22993517D01*
X-60943050Y22976874D01*
X-61037420Y22963725D01*
X-61046313Y22962727D01*
X-61190012Y22946407D01*
X-61302749Y22932396D01*
X-61385220Y22920593D01*
X-61438122Y22910898D01*
X-61462150Y22903209D01*
X-61463116Y22902427D01*
X-61466155Y22879285D01*
X-61447542Y22845102D01*
X-61412179Y22806240D01*
X-61364966Y22769065D01*
X-61355934Y22763258D01*
X-61313568Y22736059D01*
X-61284751Y22715906D01*
X-61276500Y22708315D01*
X-61291217Y22706299D01*
X-61330760Y22705143D01*
X-61388219Y22704771D01*
X-61456685Y22705109D01*
X-61529247Y22706081D01*
X-61598996Y22707612D01*
X-61659021Y22709627D01*
X-61702413Y22712052D01*
X-61713063Y22713060D01*
X-61749845Y22717325D01*
X-61808149Y22724060D01*
X-61877955Y22732108D01*
X-61911500Y22735971D01*
X-62134186Y22772477D01*
X-62346617Y22828714D01*
X-62545019Y22902999D01*
X-62725618Y22993647D01*
X-62884642Y23098975D01*
X-63018315Y23217298D01*
X-63038579Y23238950D01*
X-63093836Y23307582D01*
X-63149573Y23390263D01*
X-63201335Y23478945D01*
X-63244669Y23565574D01*
X-63275120Y23642101D01*
X-63286758Y23687587D01*
X-63289134Y23708784D01*
X-63286768Y23728064D01*
X-63276614Y23749419D01*
X-63255628Y23776840D01*
X-63220763Y23814321D01*
X-63168976Y23865853D01*
X-63099062Y23933650D01*
X-62935362Y24085830D01*
X-62763820Y24233126D01*
X-62580042Y24378902D01*
X-62379633Y24526523D01*
X-62158196Y24679354D01*
X-61929331Y24829246D01*
X-61773927Y24927064D01*
X-61603015Y25031497D01*
X-61422627Y25139064D01*
X-61238794Y25246284D01*
X-61057550Y25349675D01*
X-60884924Y25445755D01*
X-60726949Y25531043D01*
X-60595555Y25599092D01*
X-60543051Y25626624D01*
X-60504610Y25648890D01*
X-60486449Y25662205D01*
X-60485974Y25664015D01*
X-60502953Y25661360D01*
X-60544987Y25648525D01*
X-60607663Y25627144D01*
X-60686567Y25598851D01*
X-60777283Y25565282D01*
X-60875398Y25528070D01*
X-60976498Y25488849D01*
X-61076168Y25449254D01*
X-61169993Y25410919D01*
X-61173313Y25409539D01*
X-61639567Y25203665D01*
X-62082997Y24983715D01*
X-62501979Y24750618D01*
X-62894891Y24505306D01*
X-63260108Y24248711D01*
X-63442302Y24108129D01*
X-63492431Y24068991D01*
X-63533085Y24038846D01*
X-63558052Y24022231D01*
X-63562455Y24020375D01*
X-63587490Y24029587D01*
X-63630250Y24054048D01*
X-63683810Y24089000D01*
X-63741246Y24129681D01*
X-63795630Y24171331D01*
X-63840039Y24209191D01*
X-63847617Y24216377D01*
X-63942389Y24322227D01*
X-64012399Y24433734D01*
X-64057811Y24541824D01*
X-64074919Y24597374D01*
X-64085723Y24651027D01*
X-64091440Y24712695D01*
X-64093291Y24792292D01*
X-64093229Y24830000D01*
X-64079815Y25012893D01*
X-64041125Y25197427D01*
X-63976246Y25386123D01*
X-63884261Y25581504D01*
X-63826889Y25679313D01*
X-60466875Y25679313D01*
X-60458938Y25671375D01*
X-60451000Y25679313D01*
X-60458938Y25687250D01*
X-60466875Y25679313D01*
X-63826889Y25679313D01*
X-63764256Y25786089D01*
X-63723821Y25847893D01*
X-63674168Y25919346D01*
X-63619201Y25993825D01*
X-63562517Y26066971D01*
X-63507713Y26134425D01*
X-63458388Y26191828D01*
X-63418139Y26234821D01*
X-63390563Y26259044D01*
X-63381449Y26262731D01*
X-63369706Y26247521D01*
X-63352472Y26210136D01*
X-63334038Y26160267D01*
X-63314557Y26109575D01*
X-63295953Y26073608D01*
X-63282555Y26060313D01*
X-63266100Y26071683D01*
X-63233370Y26102885D01*
X-63188648Y26149555D01*
X-63136218Y26207331D01*
X-63118907Y26227000D01*
X-63059791Y26292982D01*
X-62996798Y26360459D01*
X-62934083Y26425298D01*
X-62875796Y26483368D01*
X-62826091Y26530537D01*
X-62789120Y26562672D01*
X-62769035Y26575643D01*
X-62768446Y26575723D01*
X-62764269Y26561535D01*
X-62761410Y26523934D01*
X-62760508Y26474383D01*
X-62758587Y26413514D01*
X-62750602Y26373727D01*
X-62733894Y26344535D01*
X-62725001Y26334355D01*
X-62689189Y26296193D01*
X-62534501Y26448693D01*
X-62468565Y26511172D01*
X-62403618Y26568245D01*
X-62343235Y26617318D01*
X-62290992Y26655795D01*
X-62250462Y26681081D01*
X-62225221Y26690582D01*
X-62218843Y26681702D01*
X-62220477Y26676645D01*
X-62241495Y26591859D01*
X-62232848Y26516606D01*
X-62211240Y26473225D01*
X-62186228Y26439002D01*
X-62168602Y26419402D01*
X-62165388Y26417609D01*
X-62150125Y26426973D01*
X-62117469Y26451733D01*
X-62074214Y26486718D01*
X-62070138Y26490104D01*
X-62007693Y26539947D01*
X-61937308Y26593000D01*
X-61890508Y26626413D01*
X-61837247Y26660539D01*
X-61776391Y26695570D01*
X-61714484Y26728251D01*
X-61658067Y26755328D01*
X-61613683Y26773549D01*
X-61587874Y26779658D01*
X-61584627Y26778544D01*
X-61584627Y26778544D01*
G37*
X-61584627Y26778544D02*
X-61588770Y26762796D01*
X-61608706Y26733207D01*
X-61616714Y26723327D01*
X-61663496Y26653688D01*
X-61680208Y26591962D01*
X-61673962Y26553980D01*
X-61657638Y26521544D01*
X-61644912Y26506844D01*
X-61626022Y26510234D01*
X-61584851Y26525948D01*
X-61527218Y26551532D01*
X-61458942Y26584530D01*
X-61449464Y26589299D01*
X-61323307Y26648125D01*
X-61197591Y26695555D01*
X-61059907Y26735940D01*
X-60967350Y26758382D01*
X-60945721Y26762216D01*
X-60938572Y26758232D01*
X-60947949Y26742470D01*
X-60975898Y26710971D01*
X-61011007Y26673874D01*
X-61065724Y26609173D01*
X-61096838Y26555454D01*
X-61103540Y26514925D01*
X-61085018Y26489798D01*
X-61079417Y26487261D01*
X-61055431Y26488203D01*
X-61009113Y26497731D01*
X-60948145Y26514086D01*
X-60906849Y26526727D01*
X-60840647Y26546405D01*
X-60761158Y26567713D01*
X-60675660Y26588968D01*
X-60591432Y26608483D01*
X-60515753Y26624575D01*
X-60455903Y26635558D01*
X-60419161Y26639747D01*
X-60418553Y26639751D01*
X-60418574Y26629425D01*
X-60437010Y26602258D01*
X-60469931Y26563967D01*
X-60472641Y26561056D01*
X-60521862Y26500090D01*
X-60544134Y26449560D01*
X-60540801Y26405499D01*
X-60531572Y26387144D01*
X-60520440Y26377822D01*
X-60499283Y26375838D01*
X-60462226Y26381874D01*
X-60403393Y26396614D01*
X-60369097Y26406032D01*
X-60204518Y26445846D01*
X-60055176Y26469775D01*
X-59925500Y26477225D01*
X-59863625Y26474027D01*
X-59783942Y26465713D01*
X-59733468Y26457561D01*
X-59709899Y26445883D01*
X-59710926Y26426992D01*
X-59734246Y26397199D01*
X-59777551Y26352816D01*
X-59783861Y26346456D01*
X-59881611Y26247830D01*
X-59711399Y26237415D01*
X-59621543Y26233036D01*
X-59515531Y26229564D01*
X-59408952Y26227444D01*
X-59345218Y26227001D01*
X-59270549Y26226332D01*
X-59208983Y26224509D01*
X-59166569Y26221802D01*
X-59149358Y26218484D01*
X-59149250Y26218192D01*
X-59157518Y26201594D01*
X-59179222Y26166427D01*
X-59209711Y26120215D01*
X-59210553Y26118973D01*
X-59301192Y25968473D01*
X-59372124Y25815501D01*
X-59389473Y25768466D01*
X-59409286Y25709711D01*
X-59417599Y25671446D01*
X-59410311Y25649713D01*
X-59383316Y25640552D01*
X-59332511Y25640007D01*
X-59260196Y25643766D01*
X-59101267Y25652524D01*
X-59136479Y25586543D01*
X-59159586Y25553466D01*
X-59201162Y25503850D01*
X-59256530Y25442891D01*
X-59321013Y25375785D01*
X-59370307Y25326730D01*
X-59568923Y25132898D01*
X-59505930Y25106219D01*
X-59464784Y25091841D01*
X-59424864Y25087223D01*
X-59373309Y25091636D01*
X-59340244Y25096816D01*
X-59286921Y25104671D01*
X-59247424Y25108398D01*
X-59230765Y25107307D01*
X-59232770Y25087722D01*
X-59256064Y25049570D01*
X-59298377Y24995573D01*
X-59357442Y24928450D01*
X-59430988Y24850922D01*
X-59511098Y24771184D01*
X-59710702Y24577430D01*
X-59667068Y24560840D01*
X-59628075Y24552057D01*
X-59570980Y24546043D01*
X-59519336Y24544251D01*
X-59464343Y24543561D01*
X-59435686Y24540332D01*
X-59427960Y24532822D01*
X-59435761Y24519292D01*
X-59437025Y24517737D01*
X-59470648Y24482628D01*
X-59523807Y24433791D01*
X-59590431Y24376267D01*
X-59664448Y24315097D01*
X-59739787Y24255320D01*
X-59810375Y24201979D01*
X-59858085Y24168181D01*
X-59993481Y24076210D01*
X-59948397Y24056946D01*
X-59909230Y24046902D01*
X-59851442Y24039675D01*
X-59793187Y24036967D01*
X-59683060Y24036250D01*
X-59729687Y23987501D01*
X-59790463Y23934302D01*
X-59880090Y23871323D01*
X-59997448Y23799277D01*
X-60141422Y23718876D01*
X-60200188Y23687690D01*
X-60410430Y23577482D01*
X-60339434Y23545277D01*
X-60273033Y23523785D01*
X-60201428Y23513072D01*
X-60189630Y23512724D01*
X-60144221Y23511425D01*
X-60125344Y23506605D01*
X-60127811Y23496080D01*
X-60134067Y23489329D01*
X-60177343Y23457478D01*
X-60247106Y23419891D01*
X-60339030Y23378484D01*
X-60448791Y23335174D01*
X-60572060Y23291878D01*
X-60601813Y23282141D01*
X-60683583Y23255502D01*
X-60754265Y23232024D01*
X-60808526Y23213514D01*
X-60841036Y23201778D01*
X-60847865Y23198755D01*
X-60844427Y23184502D01*
X-60821314Y23160618D01*
X-60786455Y23133151D01*
X-60747784Y23108150D01*
X-60713232Y23091665D01*
X-60704106Y23089128D01*
X-60671141Y23078800D01*
X-60657376Y23067064D01*
X-60657375Y23067032D01*
X-60672283Y23050412D01*
X-60713526Y23031686D01*
X-60775882Y23012255D01*
X-60854130Y22993517D01*
X-60943050Y22976874D01*
X-61037420Y22963725D01*
X-61046313Y22962727D01*
X-61190012Y22946407D01*
X-61302749Y22932396D01*
X-61385220Y22920593D01*
X-61438122Y22910898D01*
X-61462150Y22903209D01*
X-61463116Y22902427D01*
X-61466155Y22879285D01*
X-61447542Y22845102D01*
X-61412179Y22806240D01*
X-61364966Y22769065D01*
X-61355934Y22763258D01*
X-61313568Y22736059D01*
X-61284751Y22715906D01*
X-61276500Y22708315D01*
X-61291217Y22706299D01*
X-61330760Y22705143D01*
X-61388219Y22704771D01*
X-61456685Y22705109D01*
X-61529247Y22706081D01*
X-61598996Y22707612D01*
X-61659021Y22709627D01*
X-61702413Y22712052D01*
X-61713063Y22713060D01*
X-61749845Y22717325D01*
X-61808149Y22724060D01*
X-61877955Y22732108D01*
X-61911500Y22735971D01*
X-62134186Y22772477D01*
X-62346617Y22828714D01*
X-62545019Y22902999D01*
X-62725618Y22993647D01*
X-62884642Y23098975D01*
X-63018315Y23217298D01*
X-63038579Y23238950D01*
X-63093836Y23307582D01*
X-63149573Y23390263D01*
X-63201335Y23478945D01*
X-63244669Y23565574D01*
X-63275120Y23642101D01*
X-63286758Y23687587D01*
X-63289134Y23708784D01*
X-63286768Y23728064D01*
X-63276614Y23749419D01*
X-63255628Y23776840D01*
X-63220763Y23814321D01*
X-63168976Y23865853D01*
X-63099062Y23933650D01*
X-62935362Y24085830D01*
X-62763820Y24233126D01*
X-62580042Y24378902D01*
X-62379633Y24526523D01*
X-62158196Y24679354D01*
X-61929331Y24829246D01*
X-61773927Y24927064D01*
X-61603015Y25031497D01*
X-61422627Y25139064D01*
X-61238794Y25246284D01*
X-61057550Y25349675D01*
X-60884924Y25445755D01*
X-60726949Y25531043D01*
X-60595555Y25599092D01*
X-60543051Y25626624D01*
X-60504610Y25648890D01*
X-60486449Y25662205D01*
X-60485974Y25664015D01*
X-60502953Y25661360D01*
X-60544987Y25648525D01*
X-60607663Y25627144D01*
X-60686567Y25598851D01*
X-60777283Y25565282D01*
X-60875398Y25528070D01*
X-60976498Y25488849D01*
X-61076168Y25449254D01*
X-61169993Y25410919D01*
X-61173313Y25409539D01*
X-61639567Y25203665D01*
X-62082997Y24983715D01*
X-62501979Y24750618D01*
X-62894891Y24505306D01*
X-63260108Y24248711D01*
X-63442302Y24108129D01*
X-63492431Y24068991D01*
X-63533085Y24038846D01*
X-63558052Y24022231D01*
X-63562455Y24020375D01*
X-63587490Y24029587D01*
X-63630250Y24054048D01*
X-63683810Y24089000D01*
X-63741246Y24129681D01*
X-63795630Y24171331D01*
X-63840039Y24209191D01*
X-63847617Y24216377D01*
X-63942389Y24322227D01*
X-64012399Y24433734D01*
X-64057811Y24541824D01*
X-64074919Y24597374D01*
X-64085723Y24651027D01*
X-64091440Y24712695D01*
X-64093291Y24792292D01*
X-64093229Y24830000D01*
X-64079815Y25012893D01*
X-64041125Y25197427D01*
X-63976246Y25386123D01*
X-63884261Y25581504D01*
X-63826889Y25679313D01*
X-60466875Y25679313D01*
X-60458938Y25671375D01*
X-60451000Y25679313D01*
X-60458938Y25687250D01*
X-60466875Y25679313D01*
X-63826889Y25679313D01*
X-63764256Y25786089D01*
X-63723821Y25847893D01*
X-63674168Y25919346D01*
X-63619201Y25993825D01*
X-63562517Y26066971D01*
X-63507713Y26134425D01*
X-63458388Y26191828D01*
X-63418139Y26234821D01*
X-63390563Y26259044D01*
X-63381449Y26262731D01*
X-63369706Y26247521D01*
X-63352472Y26210136D01*
X-63334038Y26160267D01*
X-63314557Y26109575D01*
X-63295953Y26073608D01*
X-63282555Y26060313D01*
X-63266100Y26071683D01*
X-63233370Y26102885D01*
X-63188648Y26149555D01*
X-63136218Y26207331D01*
X-63118907Y26227000D01*
X-63059791Y26292982D01*
X-62996798Y26360459D01*
X-62934083Y26425298D01*
X-62875796Y26483368D01*
X-62826091Y26530537D01*
X-62789120Y26562672D01*
X-62769035Y26575643D01*
X-62768446Y26575723D01*
X-62764269Y26561535D01*
X-62761410Y26523934D01*
X-62760508Y26474383D01*
X-62758587Y26413514D01*
X-62750602Y26373727D01*
X-62733894Y26344535D01*
X-62725001Y26334355D01*
X-62689189Y26296193D01*
X-62534501Y26448693D01*
X-62468565Y26511172D01*
X-62403618Y26568245D01*
X-62343235Y26617318D01*
X-62290992Y26655795D01*
X-62250462Y26681081D01*
X-62225221Y26690582D01*
X-62218843Y26681702D01*
X-62220477Y26676645D01*
X-62241495Y26591859D01*
X-62232848Y26516606D01*
X-62211240Y26473225D01*
X-62186228Y26439002D01*
X-62168602Y26419402D01*
X-62165388Y26417609D01*
X-62150125Y26426973D01*
X-62117469Y26451733D01*
X-62074214Y26486718D01*
X-62070138Y26490104D01*
X-62007693Y26539947D01*
X-61937308Y26593000D01*
X-61890508Y26626413D01*
X-61837247Y26660539D01*
X-61776391Y26695570D01*
X-61714484Y26728251D01*
X-61658067Y26755328D01*
X-61613683Y26773549D01*
X-61587874Y26779658D01*
X-61584627Y26778544D01*
D14*
X-34609600Y23159200D02*
X-34609600Y23859200D01*
X-33409600Y23859200D02*
X-33409600Y23159200D01*
X-46925600Y15203200D02*
X-48525600Y15203200D01*
X-48525600Y15203200D02*
X-48525600Y12603200D01*
X-46925600Y15203200D02*
X-46925600Y12603200D01*
X-44995200Y15203200D02*
X-46595200Y15203200D01*
X-46595200Y15203200D02*
X-46595200Y12603200D01*
X-44995200Y15203200D02*
X-44995200Y12603200D01*
X-19374000Y44182800D02*
X-20304000Y44182800D01*
X-22534000Y44182800D02*
X-21604000Y44182800D01*
X-22534000Y44182800D02*
X-22534000Y42022800D01*
X-19374000Y44182800D02*
X-19374000Y42722800D01*
D11*
X-46066600Y44936000D02*
X-45066600Y44936000D01*
X-45066600Y43586000D02*
X-46066600Y43586000D01*
X-22927200Y46650500D02*
X-21927200Y46650500D01*
X-21927200Y45300500D02*
X-22927200Y45300500D01*
D14*
X-43195000Y31316000D02*
X-45195000Y31316000D01*
X-45195000Y29266000D02*
X-43195000Y29266000D01*
D11*
X-42067738Y41808381D02*
X-42162976Y41856000D01*
X-42258214Y41951238D01*
X-42401071Y42094095D01*
X-42496310Y42141714D01*
X-42591548Y42141714D01*
X-42543929Y41903619D02*
X-42639167Y41951238D01*
X-42734405Y42046476D01*
X-42782024Y42236952D01*
X-42782024Y42570286D01*
X-42734405Y42760762D01*
X-42639167Y42856000D01*
X-42543929Y42903619D01*
X-42353452Y42903619D01*
X-42258214Y42856000D01*
X-42162976Y42760762D01*
X-42115357Y42570286D01*
X-42115357Y42236952D01*
X-42162976Y42046476D01*
X-42258214Y41951238D01*
X-42353452Y41903619D01*
X-42543929Y41903619D01*
X-41162976Y41903619D02*
X-41734405Y41903619D01*
X-41448691Y41903619D02*
X-41448691Y42903619D01*
X-41543929Y42760762D01*
X-41639167Y42665524D01*
X-41734405Y42617905D01*
X-55394810Y20543809D02*
X-54918619Y20543809D01*
X-55918619Y20210476D02*
X-55394810Y20543809D01*
X-55918619Y20877143D01*
X-54918619Y21734286D02*
X-54918619Y21162857D01*
X-54918619Y21448571D02*
X-55918619Y21448571D01*
X-55775762Y21353333D01*
X-55680524Y21258095D01*
X-55632905Y21162857D01*
X-31331466Y21786819D02*
X-31664800Y22263010D01*
X-31902895Y21786819D02*
X-31902895Y22786819D01*
X-31521942Y22786819D01*
X-31426704Y22739200D01*
X-31379085Y22691581D01*
X-31331466Y22596343D01*
X-31331466Y22453486D01*
X-31379085Y22358248D01*
X-31426704Y22310629D01*
X-31521942Y22263010D01*
X-31902895Y22263010D01*
X-30474323Y22786819D02*
X-30664800Y22786819D01*
X-30760038Y22739200D01*
X-30807657Y22691581D01*
X-30902895Y22548724D01*
X-30950514Y22358248D01*
X-30950514Y21977295D01*
X-30902895Y21882057D01*
X-30855276Y21834438D01*
X-30760038Y21786819D01*
X-30569561Y21786819D01*
X-30474323Y21834438D01*
X-30426704Y21882057D01*
X-30379085Y21977295D01*
X-30379085Y22215390D01*
X-30426704Y22310629D01*
X-30474323Y22358248D01*
X-30569561Y22405867D01*
X-30760038Y22405867D01*
X-30855276Y22358248D01*
X-30902895Y22310629D01*
X-30950514Y22215390D01*
X-33832666Y27393857D02*
X-33880285Y27346238D01*
X-34023142Y27298619D01*
X-34118380Y27298619D01*
X-34261238Y27346238D01*
X-34356476Y27441476D01*
X-34404095Y27536714D01*
X-34451714Y27727190D01*
X-34451714Y27870048D01*
X-34404095Y28060524D01*
X-34356476Y28155762D01*
X-34261238Y28251000D01*
X-34118380Y28298619D01*
X-34023142Y28298619D01*
X-33880285Y28251000D01*
X-33832666Y28203381D01*
X-32975523Y28298619D02*
X-33166000Y28298619D01*
X-33261238Y28251000D01*
X-33308857Y28203381D01*
X-33404095Y28060524D01*
X-33451714Y27870048D01*
X-33451714Y27489095D01*
X-33404095Y27393857D01*
X-33356476Y27346238D01*
X-33261238Y27298619D01*
X-33070761Y27298619D01*
X-32975523Y27346238D01*
X-32927904Y27393857D01*
X-32880285Y27489095D01*
X-32880285Y27727190D01*
X-32927904Y27822429D01*
X-32975523Y27870048D01*
X-33070761Y27917667D01*
X-33261238Y27917667D01*
X-33356476Y27870048D01*
X-33404095Y27822429D01*
X-33451714Y27727190D01*
X-44869666Y23202857D02*
X-44917285Y23155238D01*
X-45060142Y23107619D01*
X-45155380Y23107619D01*
X-45298238Y23155238D01*
X-45393476Y23250476D01*
X-45441095Y23345714D01*
X-45488714Y23536190D01*
X-45488714Y23679048D01*
X-45441095Y23869524D01*
X-45393476Y23964762D01*
X-45298238Y24060000D01*
X-45155380Y24107619D01*
X-45060142Y24107619D01*
X-44917285Y24060000D01*
X-44869666Y24012381D01*
X-44298238Y23679048D02*
X-44393476Y23726667D01*
X-44441095Y23774286D01*
X-44488714Y23869524D01*
X-44488714Y23917143D01*
X-44441095Y24012381D01*
X-44393476Y24060000D01*
X-44298238Y24107619D01*
X-44107761Y24107619D01*
X-44012523Y24060000D01*
X-43964904Y24012381D01*
X-43917285Y23917143D01*
X-43917285Y23869524D01*
X-43964904Y23774286D01*
X-44012523Y23726667D01*
X-44107761Y23679048D01*
X-44298238Y23679048D01*
X-44393476Y23631429D01*
X-44441095Y23583810D01*
X-44488714Y23488571D01*
X-44488714Y23298095D01*
X-44441095Y23202857D01*
X-44393476Y23155238D01*
X-44298238Y23107619D01*
X-44107761Y23107619D01*
X-44012523Y23155238D01*
X-43964904Y23202857D01*
X-43917285Y23298095D01*
X-43917285Y23488571D01*
X-43964904Y23583810D01*
X-44012523Y23631429D01*
X-44107761Y23679048D01*
X-5991857Y24636715D02*
X-5944238Y24589096D01*
X-5896619Y24446239D01*
X-5896619Y24351001D01*
X-5944238Y24208143D01*
X-6039476Y24112905D01*
X-6134714Y24065286D01*
X-6325190Y24017667D01*
X-6468048Y24017667D01*
X-6658524Y24065286D01*
X-6753762Y24112905D01*
X-6849000Y24208143D01*
X-6896619Y24351001D01*
X-6896619Y24446239D01*
X-6849000Y24589096D01*
X-6801381Y24636715D01*
X-6896619Y25255762D02*
X-6896619Y25446239D01*
X-6849000Y25541477D01*
X-6753762Y25636715D01*
X-6563286Y25684334D01*
X-6229952Y25684334D01*
X-6039476Y25636715D01*
X-5944238Y25541477D01*
X-5896619Y25446239D01*
X-5896619Y25255762D01*
X-5944238Y25160524D01*
X-6039476Y25065286D01*
X-6229952Y25017667D01*
X-6563286Y25017667D01*
X-6753762Y25065286D01*
X-6849000Y25160524D01*
X-6896619Y25255762D01*
X-5896619Y26112905D02*
X-6896619Y26112905D01*
X-5896619Y26684334D01*
X-6896619Y26684334D01*
X-5896619Y27684334D02*
X-5896619Y27112905D01*
X-5896619Y27398619D02*
X-6896619Y27398619D01*
X-6753762Y27303381D01*
X-6658524Y27208143D01*
X-6610905Y27112905D01*
X-29502666Y12312619D02*
X-29836000Y12788810D01*
X-30074095Y12312619D02*
X-30074095Y13312619D01*
X-29693142Y13312619D01*
X-29597904Y13265000D01*
X-29550285Y13217381D01*
X-29502666Y13122143D01*
X-29502666Y12979286D01*
X-29550285Y12884048D01*
X-29597904Y12836429D01*
X-29693142Y12788810D01*
X-30074095Y12788810D01*
X-28597904Y13312619D02*
X-29074095Y13312619D01*
X-29121714Y12836429D01*
X-29074095Y12884048D01*
X-28978857Y12931667D01*
X-28740761Y12931667D01*
X-28645523Y12884048D01*
X-28597904Y12836429D01*
X-28550285Y12741190D01*
X-28550285Y12503095D01*
X-28597904Y12407857D01*
X-28645523Y12360238D01*
X-28740761Y12312619D01*
X-28978857Y12312619D01*
X-29074095Y12360238D01*
X-29121714Y12407857D01*
X-30994857Y27647857D02*
X-31042476Y27600238D01*
X-31185333Y27552619D01*
X-31280571Y27552619D01*
X-31423429Y27600238D01*
X-31518667Y27695476D01*
X-31566286Y27790714D01*
X-31613905Y27981190D01*
X-31613905Y28124048D01*
X-31566286Y28314524D01*
X-31518667Y28409762D01*
X-31423429Y28505000D01*
X-31280571Y28552619D01*
X-31185333Y28552619D01*
X-31042476Y28505000D01*
X-30994857Y28457381D01*
X-30042476Y27552619D02*
X-30613905Y27552619D01*
X-30328191Y27552619D02*
X-30328191Y28552619D01*
X-30423429Y28409762D01*
X-30518667Y28314524D01*
X-30613905Y28266905D01*
X-29661524Y28457381D02*
X-29613905Y28505000D01*
X-29518667Y28552619D01*
X-29280571Y28552619D01*
X-29185333Y28505000D01*
X-29137714Y28457381D01*
X-29090095Y28362143D01*
X-29090095Y28266905D01*
X-29137714Y28124048D01*
X-29709143Y27552619D01*
X-29090095Y27552619D01*
X-29553466Y21329619D02*
X-29886800Y21805810D01*
X-30124895Y21329619D02*
X-30124895Y22329619D01*
X-29743942Y22329619D01*
X-29648704Y22282000D01*
X-29601085Y22234381D01*
X-29553466Y22139143D01*
X-29553466Y21996286D01*
X-29601085Y21901048D01*
X-29648704Y21853429D01*
X-29743942Y21805810D01*
X-30124895Y21805810D01*
X-29220133Y22329619D02*
X-28553466Y22329619D01*
X-28982038Y21329619D01*
X-42645505Y27308019D02*
X-42645505Y26498495D01*
X-42597886Y26403257D01*
X-42550267Y26355638D01*
X-42455029Y26308019D01*
X-42264552Y26308019D01*
X-42169314Y26355638D01*
X-42121695Y26403257D01*
X-42074076Y26498495D01*
X-42074076Y27308019D01*
X-41645505Y27212781D02*
X-41597886Y27260400D01*
X-41502648Y27308019D01*
X-41264552Y27308019D01*
X-41169314Y27260400D01*
X-41121695Y27212781D01*
X-41074076Y27117543D01*
X-41074076Y27022305D01*
X-41121695Y26879448D01*
X-41693124Y26308019D01*
X-41074076Y26308019D01*
X-31153666Y12312619D02*
X-31487000Y12788810D01*
X-31725095Y12312619D02*
X-31725095Y13312619D01*
X-31344142Y13312619D01*
X-31248904Y13265000D01*
X-31201285Y13217381D01*
X-31153666Y13122143D01*
X-31153666Y12979286D01*
X-31201285Y12884048D01*
X-31248904Y12836429D01*
X-31344142Y12788810D01*
X-31725095Y12788810D01*
X-30296523Y12979286D02*
X-30296523Y12312619D01*
X-30534619Y13360238D02*
X-30772714Y12645952D01*
X-30153666Y12645952D01*
X-63040539Y32881735D02*
X-62231015Y32881735D01*
X-62135777Y32929354D01*
X-62088158Y32976973D01*
X-62040539Y33072211D01*
X-62040539Y33262688D01*
X-62088158Y33357926D01*
X-62135777Y33405545D01*
X-62231015Y33453164D01*
X-63040539Y33453164D01*
X-62040539Y34453164D02*
X-62040539Y33881735D01*
X-62040539Y34167449D02*
X-63040539Y34167449D01*
X-62897682Y34072211D01*
X-62802444Y33976973D01*
X-62754825Y33881735D01*
X-56363095Y47491619D02*
X-56363095Y48491619D01*
X-56125000Y48491619D01*
X-55982142Y48444000D01*
X-55886904Y48348762D01*
X-55839285Y48253524D01*
X-55791666Y48063048D01*
X-55791666Y47920190D01*
X-55839285Y47729714D01*
X-55886904Y47634476D01*
X-55982142Y47539238D01*
X-56125000Y47491619D01*
X-56363095Y47491619D01*
X-54839285Y47491619D02*
X-55410714Y47491619D01*
X-55125000Y47491619D02*
X-55125000Y48491619D01*
X-55220238Y48348762D01*
X-55315476Y48253524D01*
X-55410714Y48205905D01*
X-49124095Y47491619D02*
X-49124095Y48491619D01*
X-48886000Y48491619D01*
X-48743142Y48444000D01*
X-48647904Y48348762D01*
X-48600285Y48253524D01*
X-48552666Y48063048D01*
X-48552666Y47920190D01*
X-48600285Y47729714D01*
X-48647904Y47634476D01*
X-48743142Y47539238D01*
X-48886000Y47491619D01*
X-49124095Y47491619D01*
X-48171714Y48396381D02*
X-48124095Y48444000D01*
X-48028857Y48491619D01*
X-47790761Y48491619D01*
X-47695523Y48444000D01*
X-47647904Y48396381D01*
X-47600285Y48301143D01*
X-47600285Y48205905D01*
X-47647904Y48063048D01*
X-48219333Y47491619D01*
X-47600285Y47491619D01*
X-65811895Y37357019D02*
X-65811895Y38357019D01*
X-65430942Y38357019D01*
X-65335704Y38309400D01*
X-65288085Y38261781D01*
X-65240466Y38166543D01*
X-65240466Y38023686D01*
X-65288085Y37928448D01*
X-65335704Y37880829D01*
X-65430942Y37833210D01*
X-65811895Y37833210D01*
X-64288085Y37357019D02*
X-64859514Y37357019D01*
X-64573800Y37357019D02*
X-64573800Y38357019D01*
X-64669038Y38214162D01*
X-64764276Y38118924D01*
X-64859514Y38071305D01*
X-66067619Y49411905D02*
X-67067619Y49411905D01*
X-67067619Y49792858D01*
X-67020000Y49888096D01*
X-66972381Y49935715D01*
X-66877143Y49983334D01*
X-66734286Y49983334D01*
X-66639048Y49935715D01*
X-66591429Y49888096D01*
X-66543810Y49792858D01*
X-66543810Y49411905D01*
X-66972381Y50364286D02*
X-67020000Y50411905D01*
X-67067619Y50507143D01*
X-67067619Y50745239D01*
X-67020000Y50840477D01*
X-66972381Y50888096D01*
X-66877143Y50935715D01*
X-66781905Y50935715D01*
X-66639048Y50888096D01*
X-66067619Y50316667D01*
X-66067619Y50935715D01*
X-67158095Y58794619D02*
X-67158095Y59794619D01*
X-66777142Y59794619D01*
X-66681904Y59747000D01*
X-66634285Y59699381D01*
X-66586666Y59604143D01*
X-66586666Y59461286D01*
X-66634285Y59366048D01*
X-66681904Y59318429D01*
X-66777142Y59270810D01*
X-67158095Y59270810D01*
X-66253333Y59794619D02*
X-65634285Y59794619D01*
X-65967619Y59413667D01*
X-65824761Y59413667D01*
X-65729523Y59366048D01*
X-65681904Y59318429D01*
X-65634285Y59223190D01*
X-65634285Y58985095D01*
X-65681904Y58889857D01*
X-65729523Y58842238D01*
X-65824761Y58794619D01*
X-66110476Y58794619D01*
X-66205714Y58842238D01*
X-66253333Y58889857D01*
X-10389095Y51809619D02*
X-10389095Y52809619D01*
X-10008142Y52809619D01*
X-9912904Y52762000D01*
X-9865285Y52714381D01*
X-9817666Y52619143D01*
X-9817666Y52476286D01*
X-9865285Y52381048D01*
X-9912904Y52333429D01*
X-10008142Y52285810D01*
X-10389095Y52285810D01*
X-8960523Y52476286D02*
X-8960523Y51809619D01*
X-9198619Y52857238D02*
X-9436714Y52142952D01*
X-8817666Y52142952D01*
X-66067619Y51951905D02*
X-67067619Y51951905D01*
X-67067619Y52332858D01*
X-67020000Y52428096D01*
X-66972381Y52475715D01*
X-66877143Y52523334D01*
X-66734286Y52523334D01*
X-66639048Y52475715D01*
X-66591429Y52428096D01*
X-66543810Y52332858D01*
X-66543810Y51951905D01*
X-67067619Y53428096D02*
X-67067619Y52951905D01*
X-66591429Y52904286D01*
X-66639048Y52951905D01*
X-66686667Y53047143D01*
X-66686667Y53285239D01*
X-66639048Y53380477D01*
X-66591429Y53428096D01*
X-66496190Y53475715D01*
X-66258095Y53475715D01*
X-66162857Y53428096D01*
X-66115238Y53380477D01*
X-66067619Y53285239D01*
X-66067619Y53047143D01*
X-66115238Y52951905D01*
X-66162857Y52904286D01*
X-20088857Y36601334D02*
X-20041238Y36553715D01*
X-19993619Y36410858D01*
X-19993619Y36315620D01*
X-20041238Y36172762D01*
X-20136476Y36077524D01*
X-20231714Y36029905D01*
X-20422190Y35982286D01*
X-20565048Y35982286D01*
X-20755524Y36029905D01*
X-20850762Y36077524D01*
X-20946000Y36172762D01*
X-20993619Y36315620D01*
X-20993619Y36410858D01*
X-20946000Y36553715D01*
X-20898381Y36601334D01*
X-20898381Y36982286D02*
X-20946000Y37029905D01*
X-20993619Y37125143D01*
X-20993619Y37363239D01*
X-20946000Y37458477D01*
X-20898381Y37506096D01*
X-20803143Y37553715D01*
X-20707905Y37553715D01*
X-20565048Y37506096D01*
X-19993619Y36934667D01*
X-19993619Y37553715D01*
X-56791857Y26187334D02*
X-56744238Y26139715D01*
X-56696619Y25996858D01*
X-56696619Y25901620D01*
X-56744238Y25758762D01*
X-56839476Y25663524D01*
X-56934714Y25615905D01*
X-57125190Y25568286D01*
X-57268048Y25568286D01*
X-57458524Y25615905D01*
X-57553762Y25663524D01*
X-57649000Y25758762D01*
X-57696619Y25901620D01*
X-57696619Y25996858D01*
X-57649000Y26139715D01*
X-57601381Y26187334D01*
X-57696619Y26520667D02*
X-57696619Y27139715D01*
X-57315667Y26806381D01*
X-57315667Y26949239D01*
X-57268048Y27044477D01*
X-57220429Y27092096D01*
X-57125190Y27139715D01*
X-56887095Y27139715D01*
X-56791857Y27092096D01*
X-56744238Y27044477D01*
X-56696619Y26949239D01*
X-56696619Y26663524D01*
X-56744238Y26568286D01*
X-56791857Y26520667D01*
X-56791857Y15519334D02*
X-56744238Y15471715D01*
X-56696619Y15328858D01*
X-56696619Y15233620D01*
X-56744238Y15090762D01*
X-56839476Y14995524D01*
X-56934714Y14947905D01*
X-57125190Y14900286D01*
X-57268048Y14900286D01*
X-57458524Y14947905D01*
X-57553762Y14995524D01*
X-57649000Y15090762D01*
X-57696619Y15233620D01*
X-57696619Y15328858D01*
X-57649000Y15471715D01*
X-57601381Y15519334D01*
X-57363286Y16376477D02*
X-56696619Y16376477D01*
X-57744238Y16138381D02*
X-57029952Y15900286D01*
X-57029952Y16519334D01*
X-21866857Y36601334D02*
X-21819238Y36553715D01*
X-21771619Y36410858D01*
X-21771619Y36315620D01*
X-21819238Y36172762D01*
X-21914476Y36077524D01*
X-22009714Y36029905D01*
X-22200190Y35982286D01*
X-22343048Y35982286D01*
X-22533524Y36029905D01*
X-22628762Y36077524D01*
X-22724000Y36172762D01*
X-22771619Y36315620D01*
X-22771619Y36410858D01*
X-22724000Y36553715D01*
X-22676381Y36601334D01*
X-22771619Y37506096D02*
X-22771619Y37029905D01*
X-22295429Y36982286D01*
X-22343048Y37029905D01*
X-22390667Y37125143D01*
X-22390667Y37363239D01*
X-22343048Y37458477D01*
X-22295429Y37506096D01*
X-22200190Y37553715D01*
X-21962095Y37553715D01*
X-21866857Y37506096D01*
X-21819238Y37458477D01*
X-21771619Y37363239D01*
X-21771619Y37125143D01*
X-21819238Y37029905D01*
X-21866857Y36982286D01*
X-48425666Y23202857D02*
X-48473285Y23155238D01*
X-48616142Y23107619D01*
X-48711380Y23107619D01*
X-48854238Y23155238D01*
X-48949476Y23250476D01*
X-48997095Y23345714D01*
X-49044714Y23536190D01*
X-49044714Y23679048D01*
X-48997095Y23869524D01*
X-48949476Y23964762D01*
X-48854238Y24060000D01*
X-48711380Y24107619D01*
X-48616142Y24107619D01*
X-48473285Y24060000D01*
X-48425666Y24012381D01*
X-48092333Y24107619D02*
X-47425666Y24107619D01*
X-47854238Y23107619D01*
X-38392666Y13550857D02*
X-38440285Y13503238D01*
X-38583142Y13455619D01*
X-38678380Y13455619D01*
X-38821238Y13503238D01*
X-38916476Y13598476D01*
X-38964095Y13693714D01*
X-39011714Y13884190D01*
X-39011714Y14027048D01*
X-38964095Y14217524D01*
X-38916476Y14312762D01*
X-38821238Y14408000D01*
X-38678380Y14455619D01*
X-38583142Y14455619D01*
X-38440285Y14408000D01*
X-38392666Y14360381D01*
X-37916476Y13455619D02*
X-37726000Y13455619D01*
X-37630761Y13503238D01*
X-37583142Y13550857D01*
X-37487904Y13693714D01*
X-37440285Y13884190D01*
X-37440285Y14265143D01*
X-37487904Y14360381D01*
X-37535523Y14408000D01*
X-37630761Y14455619D01*
X-37821238Y14455619D01*
X-37916476Y14408000D01*
X-37964095Y14360381D01*
X-38011714Y14265143D01*
X-38011714Y14027048D01*
X-37964095Y13931810D01*
X-37916476Y13884190D01*
X-37821238Y13836571D01*
X-37630761Y13836571D01*
X-37535523Y13884190D01*
X-37487904Y13931810D01*
X-37440285Y14027048D01*
X-34439857Y12249143D02*
X-34392238Y12201524D01*
X-34344619Y12058667D01*
X-34344619Y11963429D01*
X-34392238Y11820571D01*
X-34487476Y11725333D01*
X-34582714Y11677714D01*
X-34773190Y11630095D01*
X-34916048Y11630095D01*
X-35106524Y11677714D01*
X-35201762Y11725333D01*
X-35297000Y11820571D01*
X-35344619Y11963429D01*
X-35344619Y12058667D01*
X-35297000Y12201524D01*
X-35249381Y12249143D01*
X-34344619Y13201524D02*
X-34344619Y12630095D01*
X-34344619Y12915809D02*
X-35344619Y12915809D01*
X-35201762Y12820571D01*
X-35106524Y12725333D01*
X-35058905Y12630095D01*
X-34344619Y14153905D02*
X-34344619Y13582476D01*
X-34344619Y13868190D02*
X-35344619Y13868190D01*
X-35201762Y13772952D01*
X-35106524Y13677714D01*
X-35058905Y13582476D01*
X-32804666Y13328619D02*
X-33280857Y13328619D01*
X-33280857Y14328619D01*
X-31947523Y13328619D02*
X-32518952Y13328619D01*
X-32233238Y13328619D02*
X-32233238Y14328619D01*
X-32328476Y14185762D01*
X-32423714Y14090524D01*
X-32518952Y14042905D01*
X-46520666Y18916619D02*
X-46854000Y19392810D01*
X-47092095Y18916619D02*
X-47092095Y19916619D01*
X-46711142Y19916619D01*
X-46615904Y19869000D01*
X-46568285Y19821381D01*
X-46520666Y19726143D01*
X-46520666Y19583286D01*
X-46568285Y19488048D01*
X-46615904Y19440429D01*
X-46711142Y19392810D01*
X-47092095Y19392810D01*
X-45568285Y18916619D02*
X-46139714Y18916619D01*
X-45854000Y18916619D02*
X-45854000Y19916619D01*
X-45949238Y19773762D01*
X-46044476Y19678524D01*
X-46139714Y19630905D01*
X-33455619Y18440334D02*
X-33931810Y18107000D01*
X-33455619Y17868905D02*
X-34455619Y17868905D01*
X-34455619Y18249858D01*
X-34408000Y18345096D01*
X-34360381Y18392715D01*
X-34265143Y18440334D01*
X-34122286Y18440334D01*
X-34027048Y18392715D01*
X-33979429Y18345096D01*
X-33931810Y18249858D01*
X-33931810Y17868905D01*
X-34455619Y18773667D02*
X-34455619Y19392715D01*
X-34074667Y19059381D01*
X-34074667Y19202239D01*
X-34027048Y19297477D01*
X-33979429Y19345096D01*
X-33884190Y19392715D01*
X-33646095Y19392715D01*
X-33550857Y19345096D01*
X-33503238Y19297477D01*
X-33455619Y19202239D01*
X-33455619Y18916524D01*
X-33503238Y18821286D01*
X-33550857Y18773667D01*
X-31280666Y20567619D02*
X-31614000Y21043810D01*
X-31852095Y20567619D02*
X-31852095Y21567619D01*
X-31471142Y21567619D01*
X-31375904Y21520000D01*
X-31328285Y21472381D01*
X-31280666Y21377143D01*
X-31280666Y21234286D01*
X-31328285Y21139048D01*
X-31375904Y21091429D01*
X-31471142Y21043810D01*
X-31852095Y21043810D01*
X-30899714Y21472381D02*
X-30852095Y21520000D01*
X-30756857Y21567619D01*
X-30518761Y21567619D01*
X-30423523Y21520000D01*
X-30375904Y21472381D01*
X-30328285Y21377143D01*
X-30328285Y21281905D01*
X-30375904Y21139048D01*
X-30947333Y20567619D01*
X-30328285Y20567619D01*
X-41155557Y15455857D02*
X-41203176Y15408238D01*
X-41346033Y15360619D01*
X-41441271Y15360619D01*
X-41584129Y15408238D01*
X-41679367Y15503476D01*
X-41726986Y15598714D01*
X-41774605Y15789190D01*
X-41774605Y15932048D01*
X-41726986Y16122524D01*
X-41679367Y16217762D01*
X-41584129Y16313000D01*
X-41441271Y16360619D01*
X-41346033Y16360619D01*
X-41203176Y16313000D01*
X-41155557Y16265381D01*
X-40203176Y15360619D02*
X-40774605Y15360619D01*
X-40488891Y15360619D02*
X-40488891Y16360619D01*
X-40584129Y16217762D01*
X-40679367Y16122524D01*
X-40774605Y16074905D01*
X-39869843Y16360619D02*
X-39250795Y16360619D01*
X-39584129Y15979667D01*
X-39441271Y15979667D01*
X-39346033Y15932048D01*
X-39298414Y15884429D01*
X-39250795Y15789190D01*
X-39250795Y15551095D01*
X-39298414Y15455857D01*
X-39346033Y15408238D01*
X-39441271Y15360619D01*
X-39726986Y15360619D01*
X-39822224Y15408238D01*
X-39869843Y15455857D01*
X-32230057Y22866343D02*
X-32182438Y22818724D01*
X-32134819Y22675867D01*
X-32134819Y22580629D01*
X-32182438Y22437771D01*
X-32277676Y22342533D01*
X-32372914Y22294914D01*
X-32563390Y22247295D01*
X-32706248Y22247295D01*
X-32896724Y22294914D01*
X-32991962Y22342533D01*
X-33087200Y22437771D01*
X-33134819Y22580629D01*
X-33134819Y22675867D01*
X-33087200Y22818724D01*
X-33039581Y22866343D01*
X-32134819Y23818724D02*
X-32134819Y23247295D01*
X-32134819Y23533009D02*
X-33134819Y23533009D01*
X-32991962Y23437771D01*
X-32896724Y23342533D01*
X-32849105Y23247295D01*
X-33134819Y24437771D02*
X-33134819Y24533010D01*
X-33087200Y24628248D01*
X-33039581Y24675867D01*
X-32944343Y24723486D01*
X-32753867Y24771105D01*
X-32515771Y24771105D01*
X-32325295Y24723486D01*
X-32230057Y24675867D01*
X-32182438Y24628248D01*
X-32134819Y24533010D01*
X-32134819Y24437771D01*
X-32182438Y24342533D01*
X-32230057Y24294914D01*
X-32325295Y24247295D01*
X-32515771Y24199676D01*
X-32753867Y24199676D01*
X-32944343Y24247295D01*
X-33039581Y24294914D01*
X-33087200Y24342533D01*
X-33134819Y24437771D01*
X-22906381Y43327562D02*
X-22954000Y43232324D01*
X-23049238Y43137086D01*
X-23192095Y42994229D01*
X-23239714Y42898990D01*
X-23239714Y42803752D01*
X-23001619Y42851371D02*
X-23049238Y42756133D01*
X-23144476Y42660895D01*
X-23334952Y42613276D01*
X-23668286Y42613276D01*
X-23858762Y42660895D01*
X-23954000Y42756133D01*
X-24001619Y42851371D01*
X-24001619Y43041848D01*
X-23954000Y43137086D01*
X-23858762Y43232324D01*
X-23668286Y43279943D01*
X-23334952Y43279943D01*
X-23144476Y43232324D01*
X-23049238Y43137086D01*
X-23001619Y43041848D01*
X-23001619Y42851371D01*
X-23906381Y43660895D02*
X-23954000Y43708514D01*
X-24001619Y43803752D01*
X-24001619Y44041848D01*
X-23954000Y44137086D01*
X-23906381Y44184705D01*
X-23811143Y44232324D01*
X-23715905Y44232324D01*
X-23573048Y44184705D01*
X-23001619Y43613276D01*
X-23001619Y44232324D01*
X-45758666Y45332619D02*
X-46092000Y45808810D01*
X-46330095Y45332619D02*
X-46330095Y46332619D01*
X-45949142Y46332619D01*
X-45853904Y46285000D01*
X-45806285Y46237381D01*
X-45758666Y46142143D01*
X-45758666Y45999286D01*
X-45806285Y45904048D01*
X-45853904Y45856429D01*
X-45949142Y45808810D01*
X-46330095Y45808810D01*
X-45187238Y45904048D02*
X-45282476Y45951667D01*
X-45330095Y45999286D01*
X-45377714Y46094524D01*
X-45377714Y46142143D01*
X-45330095Y46237381D01*
X-45282476Y46285000D01*
X-45187238Y46332619D01*
X-44996761Y46332619D01*
X-44901523Y46285000D01*
X-44853904Y46237381D01*
X-44806285Y46142143D01*
X-44806285Y46094524D01*
X-44853904Y45999286D01*
X-44901523Y45951667D01*
X-44996761Y45904048D01*
X-45187238Y45904048D01*
X-45282476Y45856429D01*
X-45330095Y45808810D01*
X-45377714Y45713571D01*
X-45377714Y45523095D01*
X-45330095Y45427857D01*
X-45282476Y45380238D01*
X-45187238Y45332619D01*
X-44996761Y45332619D01*
X-44901523Y45380238D01*
X-44853904Y45427857D01*
X-44806285Y45523095D01*
X-44806285Y45713571D01*
X-44853904Y45808810D01*
X-44901523Y45856429D01*
X-44996761Y45904048D01*
X-20358666Y45510419D02*
X-20692000Y45986610D01*
X-20930095Y45510419D02*
X-20930095Y46510419D01*
X-20549142Y46510419D01*
X-20453904Y46462800D01*
X-20406285Y46415181D01*
X-20358666Y46319943D01*
X-20358666Y46177086D01*
X-20406285Y46081848D01*
X-20453904Y46034229D01*
X-20549142Y45986610D01*
X-20930095Y45986610D01*
X-19882476Y45510419D02*
X-19692000Y45510419D01*
X-19596761Y45558038D01*
X-19549142Y45605657D01*
X-19453904Y45748514D01*
X-19406285Y45938990D01*
X-19406285Y46319943D01*
X-19453904Y46415181D01*
X-19501523Y46462800D01*
X-19596761Y46510419D01*
X-19787238Y46510419D01*
X-19882476Y46462800D01*
X-19930095Y46415181D01*
X-19977714Y46319943D01*
X-19977714Y46081848D01*
X-19930095Y45986610D01*
X-19882476Y45938990D01*
X-19787238Y45891371D01*
X-19596761Y45891371D01*
X-19501523Y45938990D01*
X-19453904Y45986610D01*
X-19406285Y46081848D01*
X-44361666Y28028857D02*
X-44409285Y27981238D01*
X-44552142Y27933619D01*
X-44647380Y27933619D01*
X-44790238Y27981238D01*
X-44885476Y28076476D01*
X-44933095Y28171714D01*
X-44980714Y28362190D01*
X-44980714Y28505048D01*
X-44933095Y28695524D01*
X-44885476Y28790762D01*
X-44790238Y28886000D01*
X-44647380Y28933619D01*
X-44552142Y28933619D01*
X-44409285Y28886000D01*
X-44361666Y28838381D01*
X-43409285Y27933619D02*
X-43980714Y27933619D01*
X-43695000Y27933619D02*
X-43695000Y28933619D01*
X-43790238Y28790762D01*
X-43885476Y28695524D01*
X-43980714Y28647905D01*
M02*
