M48
;DRILL file {KiCad 4.0.1-stable} date 19-02-2017 19:18:06
;FORMAT={2:4/ absolute / inch / suppress leading zeros}
FMAT,2
INCH,TZ
T1C0.013
T2C0.039
T3C0.043
T4C0.047
T5C0.055
T6C0.067
T7C0.126
T8C0.130
%
G90
G05
M72
T1
X30150Y-28350
X33400Y-40300
X34255Y-39015
X34555Y-28015
X35120Y-39010
X35700Y-38250
X35700Y-38600
X36124Y-35606
X36124Y-35936
X36125Y-36660
X36125Y-36990
X37250Y-34700
X37300Y-34300
X37600Y-34700
X37640Y-28390
X37950Y-34700
X38100Y-38050
X38450Y-38050
X38600Y-39200
X38800Y-38050
X39850Y-37450
X40281Y-40291
X40425Y-26755
X40600Y-36700
X41075Y-36590
X41078Y-39821
X41405Y-36590
X41408Y-39821
X41636Y-38028
X41690Y-37400
X45650Y-30150
X46340Y-28700
X46800Y-27820
X46850Y-26550
X49350Y-26100
T2
X27902Y-22531
X27902Y-23531
X27902Y-24531
X27902Y-25531
X28902Y-22531
X28902Y-23531
X28902Y-24531
X28902Y-25531
X29902Y-22531
X29902Y-23531
X29902Y-24531
X29902Y-25531
X30902Y-22531
X30902Y-23531
X30902Y-24531
X30902Y-25531
X31902Y-22531
X31902Y-23531
X31902Y-24531
X31902Y-25531
X32902Y-22531
X32902Y-23531
X32902Y-24531
X32902Y-25531
X33902Y-22531
X33902Y-23531
X33902Y-24531
X33902Y-25531
X34902Y-22531
X34902Y-23531
X34902Y-24531
X34902Y-25531
X35902Y-22531
X35902Y-23531
X35902Y-24531
X35902Y-25531
X36302Y-29534
X36302Y-30534
X36302Y-31534
X36902Y-22531
X36902Y-23531
X36902Y-24531
X36902Y-25531
X37902Y-22531
X37902Y-23531
X37902Y-24531
X37902Y-25531
X38902Y-22531
X38902Y-23531
X38902Y-24531
X38902Y-25531
X39902Y-22531
X39902Y-23531
X39902Y-24531
X39902Y-25531
X40902Y-22531
X40902Y-23531
X40902Y-24531
X40902Y-25531
X41902Y-22531
X41902Y-23531
X41902Y-24531
X41902Y-25531
X42650Y-35350
X42650Y-36350
X42650Y-37350
X42650Y-38350
X42902Y-22531
X42902Y-23531
X42902Y-24531
X42902Y-25531
X43650Y-35850
X43650Y-36850
X43650Y-37850
X43650Y-38850
X43902Y-22531
X43902Y-23531
X43902Y-24531
X43902Y-25531
X44902Y-22531
X44902Y-23531
X44902Y-24531
X44902Y-25531
X45902Y-22531
X45902Y-23531
X45902Y-24531
X45902Y-25531
X46902Y-22531
X46902Y-23531
X46902Y-24531
X46902Y-25531
T3
X48079Y-34490
X48079Y-35490
X48079Y-38706
X48079Y-39706
T4
X48634Y-25180
X48634Y-29800
T5
X27869Y-27701
X27869Y-29079
T6
X44949Y-34049
X44949Y-40147
T7
X25984Y-23031
X25984Y-32087
X48819Y-23031
X48819Y-32087
T8
X46150Y-34848
X46150Y-39348
T0
M30
