G04 #@! TF.FileFunction,Copper,L2,Bot,Signal*
%FSLAX46Y46*%
G04 Gerber Fmt 4.6, Leading zero omitted, Abs format (unit mm)*
G04 Created by KiCad (PCBNEW 4.0.1-stable) date 19-02-2017 19:17:03*
%MOMM*%
G01*
G04 APERTURE LIST*
%ADD10C,0.100000*%
%ADD11C,1.500000*%
%ADD12C,2.500000*%
%ADD13C,1.700000*%
%ADD14O,2.500000X1.900000*%
%ADD15O,3.000000X2.000000*%
%ADD16R,1.700000X1.700000*%
%ADD17O,1.700000X1.700000*%
%ADD18C,1.800000*%
%ADD19C,0.685800*%
%ADD20C,0.609600*%
%ADD21C,0.406400*%
%ADD22C,0.254000*%
%ADD23C,0.812800*%
%ADD24C,0.152400*%
%ADD25C,0.203200*%
G04 APERTURE END LIST*
D10*
D11*
X-24129000Y16321000D03*
X-26669000Y17591000D03*
X-24129000Y18861000D03*
X-26669000Y20131000D03*
X-24129000Y21401000D03*
X-26669000Y22671000D03*
X-24129000Y23941000D03*
X-26669000Y25211000D03*
D12*
X-20829000Y28516000D03*
X-20829000Y13026000D03*
D13*
X-12879000Y14146000D03*
X-12879000Y16686000D03*
X-12879000Y24856000D03*
X-12879000Y27396000D03*
D14*
X-42792920Y34903640D03*
X-42792920Y37443640D03*
X-42792920Y39983640D03*
D15*
X-64213800Y41139400D03*
X-64213800Y44639400D03*
D16*
X-64130000Y50150000D03*
D17*
X-61590000Y50150000D03*
X-59050000Y50150000D03*
X-56510000Y50150000D03*
X-53970000Y50150000D03*
X-51430000Y50150000D03*
X-48890000Y50150000D03*
X-46350000Y50150000D03*
X-43810000Y50150000D03*
X-41270000Y50150000D03*
X-38730000Y50150000D03*
X-36190000Y50150000D03*
X-33650000Y50150000D03*
X-31110000Y50150000D03*
X-28570000Y50150000D03*
X-26030000Y50150000D03*
X-23490000Y50150000D03*
X-20950000Y50150000D03*
X-18410000Y50150000D03*
X-15870000Y50150000D03*
D16*
X-64130000Y55230000D03*
D17*
X-64130000Y57770000D03*
X-61590000Y55230000D03*
X-61590000Y57770000D03*
X-59050000Y55230000D03*
X-59050000Y57770000D03*
X-56510000Y55230000D03*
X-56510000Y57770000D03*
X-53970000Y55230000D03*
X-53970000Y57770000D03*
X-51430000Y55230000D03*
X-51430000Y57770000D03*
X-48890000Y55230000D03*
X-48890000Y57770000D03*
X-46350000Y55230000D03*
X-46350000Y57770000D03*
X-43810000Y55230000D03*
X-43810000Y57770000D03*
X-41270000Y55230000D03*
X-41270000Y57770000D03*
X-38730000Y55230000D03*
X-38730000Y57770000D03*
X-36190000Y55230000D03*
X-36190000Y57770000D03*
X-33650000Y55230000D03*
X-33650000Y57770000D03*
X-31110000Y55230000D03*
X-31110000Y57770000D03*
X-28570000Y55230000D03*
X-28570000Y57770000D03*
X-26030000Y55230000D03*
X-26030000Y57770000D03*
X-23490000Y55230000D03*
X-23490000Y57770000D03*
X-20950000Y55230000D03*
X-20950000Y57770000D03*
X-18410000Y55230000D03*
X-18410000Y57770000D03*
X-15870000Y55230000D03*
X-15870000Y57770000D03*
D18*
X-11469640Y51042900D03*
X-11469640Y39307900D03*
D16*
X-64130000Y52690000D03*
D17*
X-61590000Y52690000D03*
X-59050000Y52690000D03*
X-56510000Y52690000D03*
X-53970000Y52690000D03*
X-51430000Y52690000D03*
X-48890000Y52690000D03*
X-46350000Y52690000D03*
X-43810000Y52690000D03*
X-41270000Y52690000D03*
X-38730000Y52690000D03*
X-36190000Y52690000D03*
X-33650000Y52690000D03*
X-31110000Y52690000D03*
X-28570000Y52690000D03*
X-26030000Y52690000D03*
X-23490000Y52690000D03*
X-20950000Y52690000D03*
X-18410000Y52690000D03*
X-15870000Y52690000D03*
D19*
X-50164000Y12638000D03*
X-58419000Y42991000D03*
X-32320500Y47042300D03*
X-9651000Y48706000D03*
X-16128000Y44337200D03*
X-17296400Y42102000D03*
X-32687400Y12662000D03*
X-33781000Y19877000D03*
X-31876000Y21782000D03*
X-19049000Y38419000D03*
X-16001000Y47563000D03*
X-36956000Y15432000D03*
X-36448000Y18353000D03*
X-44322000Y17845000D03*
X-38226000Y18353000D03*
X-44322000Y16956000D03*
X-37337000Y18353000D03*
X-29244560Y18408880D03*
X-29107400Y20004000D03*
X-40385000Y26862000D03*
X-40258000Y27878000D03*
X-38607000Y26862000D03*
X-39496000Y26862000D03*
X-43243498Y21044482D03*
X-30660736Y13853579D03*
X-43243498Y21882682D03*
X-29822536Y13853579D03*
X-43244121Y23723360D03*
X-30669500Y22061400D03*
X-43244121Y24561560D03*
X-29831300Y22061400D03*
X-47992300Y15901900D03*
X-47230300Y43841900D03*
X-39394400Y42889400D03*
X-45795200Y15914600D03*
D20*
X-50164000Y12638000D02*
X-57911000Y20385000D01*
X-57911000Y20385000D02*
X-57911000Y42483000D01*
X-57911000Y42483000D02*
X-58419000Y42991000D01*
X-21436321Y47045119D02*
X-32317681Y47045119D01*
X-32317681Y47045119D02*
X-32320500Y47042300D01*
X-9651000Y48706000D02*
X-16925560Y48706000D01*
X-16925560Y48706000D02*
X-18586441Y47045119D01*
X-18586441Y47045119D02*
X-21436321Y47045119D01*
D21*
X-64130000Y55230000D02*
X-65383201Y53976799D01*
X-65383201Y53976799D02*
X-65383201Y51403201D01*
X-65383201Y51403201D02*
X-64130000Y50150000D01*
X-43810000Y55230000D02*
X-45063201Y53976799D01*
X-45063201Y53976799D02*
X-45063201Y51403201D01*
X-45063201Y51403201D02*
X-44659999Y50999999D01*
X-44659999Y50999999D02*
X-43810000Y50150000D01*
X-61590000Y55230000D02*
X-62843201Y53976799D01*
X-62843201Y53976799D02*
X-62843201Y51403201D01*
X-62843201Y51403201D02*
X-62439999Y50999999D01*
X-62439999Y50999999D02*
X-61590000Y50150000D01*
X-59050000Y55230000D02*
X-60303201Y53976799D01*
X-60303201Y53976799D02*
X-60303201Y51403201D01*
X-59899999Y50999999D02*
X-59050000Y50150000D01*
X-60303201Y51403201D02*
X-59899999Y50999999D01*
X-56510000Y55230000D02*
X-57763201Y53976799D01*
X-57763201Y53976799D02*
X-57763201Y51403201D01*
X-57763201Y51403201D02*
X-57359999Y50999999D01*
X-57359999Y50999999D02*
X-56510000Y50150000D01*
X-53970000Y55230000D02*
X-55223201Y53976799D01*
X-55223201Y53976799D02*
X-55223201Y51403201D01*
X-55223201Y51403201D02*
X-54819999Y50999999D01*
X-54819999Y50999999D02*
X-53970000Y50150000D01*
X-33650000Y55230000D02*
X-34903201Y53976799D01*
X-34499999Y50999999D02*
X-33650000Y50150000D01*
X-34903201Y53976799D02*
X-34903201Y51403201D01*
X-34903201Y51403201D02*
X-34499999Y50999999D01*
X-15870000Y55230000D02*
X-17123201Y53976799D01*
X-16719999Y50999999D02*
X-15870000Y50150000D01*
X-17123201Y53976799D02*
X-17123201Y51403201D01*
X-17123201Y51403201D02*
X-16719999Y50999999D01*
X-51430000Y55230000D02*
X-52683201Y53976799D01*
X-52683201Y53976799D02*
X-52683201Y51403201D01*
X-52683201Y51403201D02*
X-52279999Y50999999D01*
X-52279999Y50999999D02*
X-51430000Y50150000D01*
X-48890000Y55230000D02*
X-50143201Y53976799D01*
X-50143201Y53976799D02*
X-50143201Y51403201D01*
X-50143201Y51403201D02*
X-49739999Y50999999D01*
X-49739999Y50999999D02*
X-48890000Y50150000D01*
X-46350000Y55230000D02*
X-47603201Y53976799D01*
X-47603201Y53976799D02*
X-47603201Y51403201D01*
X-47603201Y51403201D02*
X-47199999Y50999999D01*
X-47199999Y50999999D02*
X-46350000Y50150000D01*
X-31110000Y55230000D02*
X-32363201Y53976799D01*
X-31959999Y50999999D02*
X-31110000Y50150000D01*
X-32363201Y53976799D02*
X-32363201Y51403201D01*
X-32363201Y51403201D02*
X-31959999Y50999999D01*
X-28570000Y55230000D02*
X-29823201Y53976799D01*
X-29823201Y53976799D02*
X-29823201Y51403201D01*
X-29823201Y51403201D02*
X-29419999Y50999999D01*
X-29419999Y50999999D02*
X-28570000Y50150000D01*
X-26030000Y55230000D02*
X-27283201Y53976799D01*
X-27283201Y53976799D02*
X-27283201Y51403201D01*
X-27283201Y51403201D02*
X-26879999Y50999999D01*
X-26879999Y50999999D02*
X-26030000Y50150000D01*
X-23490000Y55230000D02*
X-24743201Y53976799D01*
X-24743201Y53976799D02*
X-24743201Y51403201D01*
X-24743201Y51403201D02*
X-24339999Y50999999D01*
X-24339999Y50999999D02*
X-23490000Y50150000D01*
X-20950000Y55230000D02*
X-22203201Y53976799D01*
X-22203201Y53976799D02*
X-22203201Y51403201D01*
X-22203201Y51403201D02*
X-21799999Y50999999D01*
X-21799999Y50999999D02*
X-20950000Y50150000D01*
X-18410000Y55230000D02*
X-19663201Y53976799D01*
X-19663201Y53976799D02*
X-19663201Y51403201D01*
X-19663201Y51403201D02*
X-19259999Y50999999D01*
X-19259999Y50999999D02*
X-18410000Y50150000D01*
D22*
X-17296400Y42102000D02*
X-16128000Y43270400D01*
X-16128000Y43270400D02*
X-16128000Y44337200D01*
D23*
X-12879000Y14146000D02*
X-14985000Y16252000D01*
X-14985000Y16252000D02*
X-14985000Y16956000D01*
X-14985000Y16956000D02*
X-16128000Y18099000D01*
X-16128000Y18099000D02*
X-19049000Y18099000D01*
X-19049000Y18099000D02*
X-24510000Y12638000D01*
X-24510000Y12638000D02*
X-32663400Y12638000D01*
X-32663400Y12638000D02*
X-32687400Y12662000D01*
D22*
X-36956000Y16194000D02*
X-36956000Y15432000D01*
D24*
X-36448000Y16702000D02*
X-36575000Y16575000D01*
D22*
X-36956000Y16194000D02*
X-36575000Y16575000D01*
X-36448000Y18353000D02*
X-36448000Y16702000D01*
X-31876000Y21782000D02*
X-33781000Y19877000D01*
D20*
X-16001000Y47563000D02*
X-19049000Y44515000D01*
X-19049000Y44515000D02*
X-19049000Y38419000D01*
D24*
X-39091933Y17972000D02*
X-44195000Y17972000D01*
X-44195000Y17972000D02*
X-44322000Y17845000D01*
X-38226000Y18353000D02*
X-38710933Y18353000D01*
X-38710933Y18353000D02*
X-39091933Y17972000D01*
X-43837067Y17464000D02*
X-43837067Y17440933D01*
X-43837067Y17440933D02*
X-44322000Y16956000D01*
X-43837067Y17464000D02*
X-38226000Y17464000D01*
X-38226000Y17464000D02*
X-37337000Y18353000D01*
D22*
X-24688679Y17535999D02*
X-25904459Y18751779D01*
X-19841072Y18784811D02*
X-21089884Y17535999D01*
X-21089884Y17535999D02*
X-24688679Y17535999D01*
X-14977811Y18784811D02*
X-19841072Y18784811D01*
X-12879000Y16686000D02*
X-14977811Y18784811D01*
X-28901661Y18751779D02*
X-29244560Y18408880D01*
X-25904459Y18751779D02*
X-28901661Y18751779D01*
X-25386085Y22911599D02*
X-26174887Y23700401D01*
X-27519199Y23700401D02*
X-29107400Y22112200D01*
X-26174887Y23700401D02*
X-27519199Y23700401D01*
X-12879000Y24856000D02*
X-14823401Y22911599D01*
X-29107400Y22112200D02*
X-29107400Y20004000D01*
X-14823401Y22911599D02*
X-25386085Y22911599D01*
D25*
X-40385000Y26862000D02*
X-40893000Y27370000D01*
X-40893000Y27370000D02*
X-40893000Y28386000D01*
X-40893000Y28386000D02*
X-40512000Y28767000D01*
X-38734000Y29529000D02*
X-38734000Y44642000D01*
X-40512000Y28767000D02*
X-39496000Y28767000D01*
X-39496000Y28767000D02*
X-38734000Y29529000D01*
X-38734000Y44642000D02*
X-41270000Y47178000D01*
X-41270000Y47178000D02*
X-41270000Y50150000D01*
D21*
X-41270000Y55230000D02*
X-42523201Y53976799D01*
X-42523201Y53976799D02*
X-42523201Y51403201D01*
X-42523201Y51403201D02*
X-42119999Y50999999D01*
X-42119999Y50999999D02*
X-41270000Y50150000D01*
D25*
X-40258000Y27878000D02*
X-39915101Y28220899D01*
X-39915101Y28220899D02*
X-39280101Y28220899D01*
X-39280101Y28220899D02*
X-38099000Y29402000D01*
X-38099000Y46039000D02*
X-38099000Y29402000D01*
X-38730000Y46670000D02*
X-38099000Y46039000D01*
X-38730000Y50150000D02*
X-38730000Y46670000D01*
D21*
X-38730000Y55230000D02*
X-39983201Y53976799D01*
X-39983201Y53976799D02*
X-39983201Y51403201D01*
X-39983201Y51403201D02*
X-39579999Y50999999D01*
X-39579999Y50999999D02*
X-38730000Y50150000D01*
D25*
X-38607000Y26862000D02*
X-36190000Y29279000D01*
X-36190000Y29279000D02*
X-36190000Y50150000D01*
D21*
X-36190000Y55230000D02*
X-37443201Y53976799D01*
X-37443201Y53976799D02*
X-37443201Y51403201D01*
X-37443201Y51403201D02*
X-37039999Y50999999D01*
X-37039999Y50999999D02*
X-36190000Y50150000D01*
D25*
X-37464000Y29378933D02*
X-37464000Y50517922D01*
X-37464000Y50517922D02*
X-38730000Y51783922D01*
X-38730000Y51783922D02*
X-38730000Y52690000D01*
X-39496000Y26862000D02*
X-39496000Y27346933D01*
X-39496000Y27346933D02*
X-37464000Y29378933D01*
D24*
X-30394035Y14120280D02*
X-30660736Y13853579D01*
X-30394035Y16401509D02*
X-30394035Y14120280D01*
X-34225126Y17438600D02*
X-31431126Y17438600D01*
X-35749126Y18962600D02*
X-34225126Y17438600D01*
X-40754468Y18962600D02*
X-35749126Y18962600D01*
X-42836350Y21044482D02*
X-40754468Y18962600D01*
X-31431126Y17438600D02*
X-30394035Y16401509D01*
X-43243498Y21044482D02*
X-42836350Y21044482D01*
X-30089237Y16527763D02*
X-30089237Y14120280D01*
X-31304874Y17743400D02*
X-30089237Y16527763D01*
X-30089237Y14120280D02*
X-29822536Y13853579D01*
X-40628216Y19267400D02*
X-35622874Y19267400D01*
X-35622874Y19267400D02*
X-34098874Y17743400D01*
X-34098874Y17743400D02*
X-31304874Y17743400D01*
X-43243498Y21882682D02*
X-40628216Y19267400D01*
X-30402799Y22328101D02*
X-30669500Y22061400D01*
X-43244121Y23723360D02*
X-41019881Y25947600D01*
X-32447126Y25947600D02*
X-30402799Y23903273D01*
X-30402799Y23903273D02*
X-30402799Y22328101D01*
X-41019881Y25947600D02*
X-32447126Y25947600D01*
X-32320874Y26252400D02*
X-30098001Y24029527D01*
X-30098001Y22328101D02*
X-29831300Y22061400D01*
X-30098001Y24029527D02*
X-30098001Y22328101D01*
X-43244121Y24561560D02*
X-42836973Y24561560D01*
X-41146133Y26252400D02*
X-32320874Y26252400D01*
X-42836973Y24561560D02*
X-41146133Y26252400D01*
D21*
X-47230300Y43841900D02*
X-47573199Y43499001D01*
X-47573199Y43499001D02*
X-47573199Y16321001D01*
X-47573199Y16321001D02*
X-47992300Y15901900D01*
X-40296100Y41340000D02*
X-40296100Y30748200D01*
X-40296100Y41340000D02*
X-40296100Y41987700D01*
X-40296100Y41987700D02*
X-39394400Y42889400D01*
X-45973000Y25071300D02*
X-45973000Y16092400D01*
X-45973000Y16092400D02*
X-45795200Y15914600D01*
X-40296100Y30748200D02*
X-45973000Y25071300D01*
D22*
G36*
X-64698285Y59171054D02*
X-65180054Y58849147D01*
X-65501961Y58367378D01*
X-65615000Y57799093D01*
X-65615000Y57740907D01*
X-65501961Y57172622D01*
X-65180054Y56690853D01*
X-65178821Y56690029D01*
X-65215317Y56683162D01*
X-65431441Y56544090D01*
X-65576431Y56331890D01*
X-65627440Y56080000D01*
X-65627440Y54917954D01*
X-65975898Y54569496D01*
X-66157597Y54297565D01*
X-66218489Y53991441D01*
X-66221401Y53976799D01*
X-66221401Y51403201D01*
X-66157597Y51082435D01*
X-65975898Y50810504D01*
X-65627440Y50462046D01*
X-65627440Y49300000D01*
X-65583162Y49064683D01*
X-65444090Y48848559D01*
X-65231890Y48703569D01*
X-64980000Y48652560D01*
X-63280000Y48652560D01*
X-63044683Y48696838D01*
X-62828559Y48835910D01*
X-62683569Y49048110D01*
X-62669914Y49115541D01*
X-62640054Y49070853D01*
X-62158285Y48748946D01*
X-61590000Y48635907D01*
X-61021715Y48748946D01*
X-60539946Y49070853D01*
X-60320000Y49400026D01*
X-60100054Y49070853D01*
X-59618285Y48748946D01*
X-59050000Y48635907D01*
X-58481715Y48748946D01*
X-57999946Y49070853D01*
X-57780000Y49400026D01*
X-57560054Y49070853D01*
X-57078285Y48748946D01*
X-56510000Y48635907D01*
X-55941715Y48748946D01*
X-55459946Y49070853D01*
X-55240000Y49400026D01*
X-55020054Y49070853D01*
X-54538285Y48748946D01*
X-53970000Y48635907D01*
X-53401715Y48748946D01*
X-52919946Y49070853D01*
X-52700000Y49400026D01*
X-52480054Y49070853D01*
X-51998285Y48748946D01*
X-51430000Y48635907D01*
X-50861715Y48748946D01*
X-50379946Y49070853D01*
X-50160000Y49400026D01*
X-49940054Y49070853D01*
X-49458285Y48748946D01*
X-48890000Y48635907D01*
X-48321715Y48748946D01*
X-47839946Y49070853D01*
X-47620000Y49400026D01*
X-47400054Y49070853D01*
X-46918285Y48748946D01*
X-46350000Y48635907D01*
X-45781715Y48748946D01*
X-45299946Y49070853D01*
X-45080000Y49400026D01*
X-44860054Y49070853D01*
X-44378285Y48748946D01*
X-43810000Y48635907D01*
X-43241715Y48748946D01*
X-42759946Y49070853D01*
X-42540000Y49400026D01*
X-42320054Y49070853D01*
X-42006600Y48861410D01*
X-42006600Y47178000D01*
X-41950530Y46896115D01*
X-41790855Y46657145D01*
X-39470600Y44336890D01*
X-39470600Y44150705D01*
X-39491130Y44159230D01*
X-39880163Y44159569D01*
X-40239712Y44011007D01*
X-40515040Y43736159D01*
X-40655500Y43397894D01*
X-40888797Y43164597D01*
X-41070496Y42892666D01*
X-41094020Y42774400D01*
X-41134300Y42571900D01*
X-41134300Y40803696D01*
X-41335227Y41104404D01*
X-41849438Y41447989D01*
X-42455991Y41568640D01*
X-43129849Y41568640D01*
X-43736402Y41447989D01*
X-44250613Y41104404D01*
X-44594198Y40590193D01*
X-44714849Y39983640D01*
X-44594198Y39377087D01*
X-44250613Y38862876D01*
X-44013111Y38704182D01*
X-44303487Y38474601D01*
X-44605870Y37932860D01*
X-44633506Y37816228D01*
X-44513504Y37570640D01*
X-42919920Y37570640D01*
X-42919920Y37590640D01*
X-42665920Y37590640D01*
X-42665920Y37570640D01*
X-42645920Y37570640D01*
X-42645920Y37316640D01*
X-42665920Y37316640D01*
X-42665920Y37296640D01*
X-42919920Y37296640D01*
X-42919920Y37316640D01*
X-44513504Y37316640D01*
X-44633506Y37071052D01*
X-44605870Y36954420D01*
X-44303487Y36412679D01*
X-44013111Y36183098D01*
X-44250613Y36024404D01*
X-44594198Y35510193D01*
X-44714849Y34903640D01*
X-44594198Y34297087D01*
X-44250613Y33782876D01*
X-43736402Y33439291D01*
X-43129849Y33318640D01*
X-42455991Y33318640D01*
X-41849438Y33439291D01*
X-41335227Y33782876D01*
X-41134300Y34083584D01*
X-41134300Y31095394D01*
X-46565697Y25663997D01*
X-46734999Y25410619D01*
X-46734999Y42988465D01*
X-46677088Y43012393D01*
X-46401760Y43287241D01*
X-46252570Y43646530D01*
X-46252231Y44035563D01*
X-46400793Y44395112D01*
X-46675641Y44670440D01*
X-47034930Y44819630D01*
X-47423963Y44819969D01*
X-47783512Y44671407D01*
X-48058840Y44396559D01*
X-48208030Y44037270D01*
X-48208038Y44028629D01*
X-48347595Y43819767D01*
X-48364513Y43734712D01*
X-48411399Y43499001D01*
X-48411399Y16786821D01*
X-48545512Y16731407D01*
X-48820840Y16456559D01*
X-48970030Y16097270D01*
X-48970369Y15708237D01*
X-48821807Y15348688D01*
X-48546959Y15073360D01*
X-48187670Y14924170D01*
X-47798637Y14923831D01*
X-47439088Y15072393D01*
X-47163760Y15347241D01*
X-47023300Y15685506D01*
X-46980502Y15728304D01*
X-46798803Y16000235D01*
X-46795835Y16015155D01*
X-46773112Y15900919D01*
X-46773269Y15720937D01*
X-46624707Y15361388D01*
X-46349859Y15086060D01*
X-45990570Y14936870D01*
X-45601537Y14936531D01*
X-45241988Y15085093D01*
X-44966660Y15359941D01*
X-44817470Y15719230D01*
X-44817136Y16102744D01*
X-44517370Y15978270D01*
X-44128337Y15977931D01*
X-43768788Y16126493D01*
X-43493460Y16401341D01*
X-43347521Y16752800D01*
X-38226000Y16752800D01*
X-37953835Y16806937D01*
X-37723106Y16961106D01*
X-37309137Y17375075D01*
X-37210000Y17374989D01*
X-37210000Y17017631D01*
X-37494815Y16732815D01*
X-37659996Y16485605D01*
X-37718000Y16194000D01*
X-37718000Y16053083D01*
X-37784540Y15986659D01*
X-37933730Y15627370D01*
X-37934069Y15238337D01*
X-37785507Y14878788D01*
X-37510659Y14603460D01*
X-37151370Y14454270D01*
X-36762337Y14453931D01*
X-36402788Y14602493D01*
X-36127460Y14877341D01*
X-35978270Y15236630D01*
X-35977931Y15625663D01*
X-36114992Y15957377D01*
X-36036185Y16036184D01*
X-35985315Y16112316D01*
X-35909185Y16163185D01*
X-35744004Y16410395D01*
X-35686000Y16702000D01*
X-35686000Y17731917D01*
X-35619460Y17798341D01*
X-35611009Y17818694D01*
X-34728021Y16935706D01*
X-34625091Y16866931D01*
X-34497290Y16781537D01*
X-34225126Y16727400D01*
X-31725714Y16727400D01*
X-31105235Y16106921D01*
X-31105235Y14728005D01*
X-31213948Y14683086D01*
X-31489276Y14408238D01*
X-31638466Y14048949D01*
X-31638788Y13679400D01*
X-32566744Y13679400D01*
X-32687400Y13703400D01*
X-33085926Y13624128D01*
X-33423781Y13398381D01*
X-33649528Y13060526D01*
X-33728800Y12662000D01*
X-33649528Y12263474D01*
X-33423781Y11925619D01*
X-33399781Y11901619D01*
X-33061927Y11675872D01*
X-32663400Y11596600D01*
X-24510000Y11596600D01*
X-24111473Y11675872D01*
X-23773619Y11901619D01*
X-22712967Y12962271D01*
X-22703250Y12600565D01*
X-22455123Y12001533D01*
X-22162320Y11872285D01*
X-21008605Y13026000D01*
X-21022747Y13040142D01*
X-20843142Y13219747D01*
X-20829000Y13205605D01*
X-20814857Y13219747D01*
X-20635252Y13040142D01*
X-20649395Y13026000D01*
X-19495680Y11872285D01*
X-19202877Y12001533D01*
X-18934612Y12701806D01*
X-18944389Y13065750D01*
X-18235509Y12771397D01*
X-17326479Y12770604D01*
X-16486342Y13117742D01*
X-15843001Y13759961D01*
X-15494397Y14599491D01*
X-15493796Y15288034D01*
X-14363990Y14158228D01*
X-14364257Y13851911D01*
X-14138656Y13305914D01*
X-13721283Y12887812D01*
X-13175681Y12661258D01*
X-12584911Y12660743D01*
X-12038914Y12886344D01*
X-11620812Y13303717D01*
X-11394258Y13849319D01*
X-11393743Y14440089D01*
X-11619344Y14986086D01*
X-12036717Y15404188D01*
X-12064557Y15415748D01*
X-12038914Y15426344D01*
X-11620812Y15843717D01*
X-11394258Y16389319D01*
X-11393743Y16980089D01*
X-11619344Y17526086D01*
X-12036717Y17944188D01*
X-12582319Y18170742D01*
X-13173089Y18171257D01*
X-13253431Y18138061D01*
X-14438996Y19323626D01*
X-14471637Y19345436D01*
X-14686206Y19488807D01*
X-14977811Y19546811D01*
X-19841072Y19546811D01*
X-20132677Y19488807D01*
X-20347246Y19345436D01*
X-20379887Y19323626D01*
X-21405514Y18297999D01*
X-22863123Y18297999D01*
X-22744241Y18584298D01*
X-22743760Y19135285D01*
X-22954169Y19644515D01*
X-23343436Y20034461D01*
X-23575870Y20130976D01*
X-23345485Y20226169D01*
X-22955539Y20615436D01*
X-22744241Y21124298D01*
X-22743760Y21675285D01*
X-22939742Y22149599D01*
X-14823401Y22149599D01*
X-14531796Y22207603D01*
X-14284586Y22372784D01*
X-13253711Y23403659D01*
X-13175681Y23371258D01*
X-12584911Y23370743D01*
X-12038914Y23596344D01*
X-11620812Y24013717D01*
X-11394258Y24559319D01*
X-11393743Y25150089D01*
X-11619344Y25696086D01*
X-12036717Y26114188D01*
X-12064557Y26125748D01*
X-12038914Y26136344D01*
X-11620812Y26553717D01*
X-11394258Y27099319D01*
X-11393743Y27690089D01*
X-11619344Y28236086D01*
X-12036717Y28654188D01*
X-12582319Y28880742D01*
X-13173089Y28881257D01*
X-13719086Y28655656D01*
X-14137188Y28238283D01*
X-14363742Y27692681D01*
X-14364257Y27101911D01*
X-14138656Y26555914D01*
X-13721283Y26137812D01*
X-13693443Y26126252D01*
X-13719086Y26115656D01*
X-14137188Y25698283D01*
X-14363742Y25152681D01*
X-14364257Y24561911D01*
X-14331061Y24481570D01*
X-15139031Y23673599D01*
X-22744233Y23673599D01*
X-22743760Y24215285D01*
X-22954169Y24724515D01*
X-23343436Y25114461D01*
X-23852298Y25325759D01*
X-24403285Y25326240D01*
X-24912515Y25115831D01*
X-25302461Y24726564D01*
X-25513759Y24217702D01*
X-25513847Y24116991D01*
X-25636072Y24239216D01*
X-25642769Y24243691D01*
X-25582426Y24304034D01*
X-25697481Y24419089D01*
X-25456540Y24487077D01*
X-25271799Y25006171D01*
X-25299770Y25556448D01*
X-25456540Y25934923D01*
X-25697483Y26002912D01*
X-26489395Y25211000D01*
X-26475252Y25196857D01*
X-26654857Y25017252D01*
X-26669000Y25031395D01*
X-26683142Y25017252D01*
X-26862747Y25196857D01*
X-26848605Y25211000D01*
X-27640517Y26002912D01*
X-27881460Y25934923D01*
X-28066201Y25415829D01*
X-28038230Y24865552D01*
X-27881460Y24487077D01*
X-27680387Y24430339D01*
X-27810804Y24404397D01*
X-28058015Y24239216D01*
X-29368957Y22928273D01*
X-29386801Y22935682D01*
X-29386801Y24029527D01*
X-29431956Y24256537D01*
X-29440938Y24301692D01*
X-29595107Y24532421D01*
X-31245203Y26182517D01*
X-27460912Y26182517D01*
X-26669000Y25390605D01*
X-25877088Y26182517D01*
X-25945077Y26423460D01*
X-26464171Y26608201D01*
X-27014448Y26580230D01*
X-27392923Y26423460D01*
X-27460912Y26182517D01*
X-31245203Y26182517D01*
X-31817980Y26755294D01*
X-32048709Y26909463D01*
X-32320874Y26963600D01*
X-37463690Y26963600D01*
X-37244610Y27182680D01*
X-21982715Y27182680D01*
X-21853467Y26889877D01*
X-21153194Y26621612D01*
X-20403565Y26641750D01*
X-20063743Y26782509D01*
X-20064396Y26033479D01*
X-19717258Y25193342D01*
X-19075039Y24550001D01*
X-18235509Y24201397D01*
X-17326479Y24200604D01*
X-16486342Y24547742D01*
X-15843001Y25189961D01*
X-15494397Y26029491D01*
X-15493604Y26938521D01*
X-15840742Y27778658D01*
X-16482961Y28421999D01*
X-17322491Y28770603D01*
X-18231521Y28771396D01*
X-18942293Y28477711D01*
X-18954750Y28941435D01*
X-19202877Y29540467D01*
X-19495680Y29669715D01*
X-20649395Y28516000D01*
X-20635252Y28501857D01*
X-20814857Y28322252D01*
X-20829000Y28336395D01*
X-21982715Y27182680D01*
X-37244610Y27182680D01*
X-35669145Y28758145D01*
X-35614322Y28840194D01*
X-22723388Y28840194D01*
X-22703250Y28090565D01*
X-22455123Y27491533D01*
X-22162320Y27362285D01*
X-21008605Y28516000D01*
X-22162320Y29669715D01*
X-22455123Y29540467D01*
X-22723388Y28840194D01*
X-35614322Y28840194D01*
X-35509470Y28997115D01*
X-35453400Y29279000D01*
X-35453400Y29849320D01*
X-21982715Y29849320D01*
X-20829000Y28695605D01*
X-19675285Y29849320D01*
X-19804533Y30142123D01*
X-20504806Y30410388D01*
X-21254435Y30390250D01*
X-21853467Y30142123D01*
X-21982715Y29849320D01*
X-35453400Y29849320D01*
X-35453400Y33057381D01*
X-13235387Y33057381D01*
X-12895845Y32235628D01*
X-12267679Y31606364D01*
X-11446519Y31265389D01*
X-10557381Y31264613D01*
X-9735628Y31604155D01*
X-9106364Y32232321D01*
X-8765389Y33053481D01*
X-8764613Y33942619D01*
X-9104155Y34764372D01*
X-9732321Y35393636D01*
X-10553481Y35734611D01*
X-11442619Y35735387D01*
X-12264372Y35395845D01*
X-12893636Y34767679D01*
X-13234611Y33946519D01*
X-13235387Y33057381D01*
X-35453400Y33057381D01*
X-35453400Y48861410D01*
X-35139946Y49070853D01*
X-34920000Y49400026D01*
X-34700054Y49070853D01*
X-34218285Y48748946D01*
X-33650000Y48635907D01*
X-33081715Y48748946D01*
X-32599946Y49070853D01*
X-32380000Y49400026D01*
X-32160054Y49070853D01*
X-31678285Y48748946D01*
X-31110000Y48635907D01*
X-30541715Y48748946D01*
X-30059946Y49070853D01*
X-29840000Y49400026D01*
X-29620054Y49070853D01*
X-29138285Y48748946D01*
X-28570000Y48635907D01*
X-28001715Y48748946D01*
X-27519946Y49070853D01*
X-27300000Y49400026D01*
X-27080054Y49070853D01*
X-26598285Y48748946D01*
X-26030000Y48635907D01*
X-25461715Y48748946D01*
X-24979946Y49070853D01*
X-24760000Y49400026D01*
X-24540054Y49070853D01*
X-24058285Y48748946D01*
X-23490000Y48635907D01*
X-22921715Y48748946D01*
X-22439946Y49070853D01*
X-22220000Y49400026D01*
X-22000054Y49070853D01*
X-21518285Y48748946D01*
X-20950000Y48635907D01*
X-20381715Y48748946D01*
X-19899946Y49070853D01*
X-19680000Y49400026D01*
X-19460054Y49070853D01*
X-18978285Y48748946D01*
X-18410000Y48635907D01*
X-18303558Y48657080D01*
X-18975719Y47984919D01*
X-32040573Y47984919D01*
X-32125130Y48020030D01*
X-32514163Y48020369D01*
X-32873712Y47871807D01*
X-33149040Y47596959D01*
X-33298230Y47237670D01*
X-33298569Y46848637D01*
X-33150007Y46489088D01*
X-32875159Y46213760D01*
X-32515870Y46064570D01*
X-32126837Y46064231D01*
X-32027396Y46105319D01*
X-18787759Y46105319D01*
X-19713539Y45179539D01*
X-19917262Y44874646D01*
X-19988800Y44515000D01*
X-19988800Y38705715D01*
X-20026730Y38614370D01*
X-20027069Y38225337D01*
X-19878507Y37865788D01*
X-19603659Y37590460D01*
X-19244370Y37441270D01*
X-18855337Y37440931D01*
X-18495788Y37589493D01*
X-18220460Y37864341D01*
X-18071270Y38223630D01*
X-18070931Y38612663D01*
X-18109200Y38705281D01*
X-18109200Y39003909D01*
X-13004905Y39003909D01*
X-12771708Y38439529D01*
X-12340283Y38007349D01*
X-11776310Y37773167D01*
X-11165649Y37772635D01*
X-10601269Y38005832D01*
X-10169089Y38437257D01*
X-9934907Y39001230D01*
X-9934375Y39611891D01*
X-10167572Y40176271D01*
X-10598997Y40608451D01*
X-11162970Y40842633D01*
X-11773631Y40843165D01*
X-12338011Y40609968D01*
X-12770191Y40178543D01*
X-13004373Y39614570D01*
X-13004905Y39003909D01*
X-18109200Y39003909D01*
X-18109200Y41532052D01*
X-17851059Y41273460D01*
X-17491770Y41124270D01*
X-17102737Y41123931D01*
X-16743188Y41272493D01*
X-16467860Y41547341D01*
X-16318670Y41906630D01*
X-16318587Y42002183D01*
X-15589185Y42731585D01*
X-15424004Y42978795D01*
X-15403927Y43079730D01*
X-15366000Y43270400D01*
X-15366000Y43716117D01*
X-15299460Y43782541D01*
X-15150270Y44141830D01*
X-15149931Y44530863D01*
X-15298493Y44890412D01*
X-15573341Y45165740D01*
X-15932630Y45314930D01*
X-16321663Y45315269D01*
X-16681212Y45166707D01*
X-16956540Y44891859D01*
X-17105730Y44532570D01*
X-17106069Y44143537D01*
X-16957507Y43783988D01*
X-16890000Y43716363D01*
X-16890000Y43586030D01*
X-17396043Y43079987D01*
X-17490063Y43080069D01*
X-17849612Y42931507D01*
X-18109200Y42672372D01*
X-18109200Y44125722D01*
X-15539199Y46695723D01*
X-15447788Y46733493D01*
X-15172460Y47008341D01*
X-15023270Y47367630D01*
X-15022931Y47756663D01*
X-15026872Y47766200D01*
X-9937715Y47766200D01*
X-9846370Y47728270D01*
X-9457337Y47727931D01*
X-9097788Y47876493D01*
X-8822460Y48151341D01*
X-8673270Y48510630D01*
X-8672931Y48899663D01*
X-8821493Y49259212D01*
X-9096341Y49534540D01*
X-9455630Y49683730D01*
X-9844663Y49684069D01*
X-9937281Y49645800D01*
X-10831264Y49645800D01*
X-10601269Y49740832D01*
X-10169089Y50172257D01*
X-9934907Y50736230D01*
X-9934375Y51346891D01*
X-10167572Y51911271D01*
X-10598997Y52343451D01*
X-11162970Y52577633D01*
X-11773631Y52578165D01*
X-12338011Y52344968D01*
X-12770191Y51913543D01*
X-13004373Y51349570D01*
X-13004905Y50738909D01*
X-12771708Y50174529D01*
X-12340283Y49742349D01*
X-12107767Y49645800D01*
X-14479505Y49645800D01*
X-14385000Y50120907D01*
X-14385000Y50179093D01*
X-14498039Y50747378D01*
X-14819946Y51229147D01*
X-15105578Y51420000D01*
X-14819946Y51610853D01*
X-14498039Y52092622D01*
X-14385000Y52660907D01*
X-14385000Y52719093D01*
X-14498039Y53287378D01*
X-14819946Y53769147D01*
X-15105578Y53960000D01*
X-14819946Y54150853D01*
X-14498039Y54632622D01*
X-14385000Y55200907D01*
X-14385000Y55259093D01*
X-14498039Y55827378D01*
X-14651721Y56057381D01*
X-13235387Y56057381D01*
X-12895845Y55235628D01*
X-12267679Y54606364D01*
X-11446519Y54265389D01*
X-10557381Y54264613D01*
X-9735628Y54604155D01*
X-9106364Y55232321D01*
X-8765389Y56053481D01*
X-8764613Y56942619D01*
X-9104155Y57764372D01*
X-9732321Y58393636D01*
X-10553481Y58734611D01*
X-11442619Y58735387D01*
X-12264372Y58395845D01*
X-12893636Y57767679D01*
X-13234611Y56946519D01*
X-13235387Y56057381D01*
X-14651721Y56057381D01*
X-14819946Y56309147D01*
X-15105578Y56500000D01*
X-14819946Y56690853D01*
X-14498039Y57172622D01*
X-14385000Y57740907D01*
X-14385000Y57799093D01*
X-14498039Y58367378D01*
X-14819946Y58849147D01*
X-15301715Y59171054D01*
X-15774013Y59265000D01*
X-10437391Y59265000D01*
X-9312390Y59041223D01*
X-8420031Y58444969D01*
X-7823777Y57552610D01*
X-7600000Y56427610D01*
X-7600000Y14072390D01*
X-7823777Y12947390D01*
X-8420031Y12055031D01*
X-9312390Y11458777D01*
X-10437391Y11235000D01*
X-20202582Y11235000D01*
X-19804533Y11399877D01*
X-19675285Y11692680D01*
X-20829000Y12846395D01*
X-21982715Y11692680D01*
X-21853467Y11399877D01*
X-21423076Y11235000D01*
X-68927610Y11235000D01*
X-70052610Y11458777D01*
X-70944969Y12055031D01*
X-71541223Y12947390D01*
X-71765000Y14072391D01*
X-71765000Y33057381D01*
X-71235387Y33057381D01*
X-70895845Y32235628D01*
X-70267679Y31606364D01*
X-69446519Y31265389D01*
X-68557381Y31264613D01*
X-67735628Y31604155D01*
X-67106364Y32232321D01*
X-66765389Y33053481D01*
X-66764613Y33942619D01*
X-67104155Y34764372D01*
X-67732321Y35393636D01*
X-68553481Y35734611D01*
X-69442619Y35735387D01*
X-70264372Y35395845D01*
X-70893636Y34767679D01*
X-71234611Y33946519D01*
X-71235387Y33057381D01*
X-71765000Y33057381D01*
X-71765000Y40758966D01*
X-66303924Y40758966D01*
X-66272944Y40631045D01*
X-65959722Y40073083D01*
X-65456820Y39677458D01*
X-64840800Y39504400D01*
X-64340800Y39504400D01*
X-64340800Y41012400D01*
X-64086800Y41012400D01*
X-64086800Y39504400D01*
X-63586800Y39504400D01*
X-62970780Y39677458D01*
X-62467878Y40073083D01*
X-62154656Y40631045D01*
X-62123676Y40758966D01*
X-62243023Y41012400D01*
X-64086800Y41012400D01*
X-64340800Y41012400D01*
X-66184577Y41012400D01*
X-66303924Y40758966D01*
X-71765000Y40758966D01*
X-71765000Y41519834D01*
X-66303924Y41519834D01*
X-66184577Y41266400D01*
X-64340800Y41266400D01*
X-64340800Y42774400D01*
X-64086800Y42774400D01*
X-64086800Y41266400D01*
X-62243023Y41266400D01*
X-62123676Y41519834D01*
X-62154656Y41647755D01*
X-62467878Y42205717D01*
X-62970780Y42601342D01*
X-63586800Y42774400D01*
X-64086800Y42774400D01*
X-64340800Y42774400D01*
X-64840800Y42774400D01*
X-65456820Y42601342D01*
X-65959722Y42205717D01*
X-66272944Y41647755D01*
X-66303924Y41519834D01*
X-71765000Y41519834D01*
X-71765000Y42797337D01*
X-59397069Y42797337D01*
X-59248507Y42437788D01*
X-58973659Y42162460D01*
X-58881107Y42124029D01*
X-58850800Y42093722D01*
X-58850800Y20385000D01*
X-58779262Y20025354D01*
X-58575539Y19720461D01*
X-51031277Y12176199D01*
X-50993507Y12084788D01*
X-50718659Y11809460D01*
X-50359370Y11660270D01*
X-49970337Y11659931D01*
X-49610788Y11808493D01*
X-49335460Y12083341D01*
X-49186270Y12442630D01*
X-49185931Y12831663D01*
X-49334493Y13191212D01*
X-49609341Y13466540D01*
X-49701893Y13504971D01*
X-56971200Y20774278D01*
X-56971200Y42483000D01*
X-57042738Y42842646D01*
X-57246461Y43147539D01*
X-57551723Y43452801D01*
X-57589493Y43544212D01*
X-57864341Y43819540D01*
X-58223630Y43968730D01*
X-58612663Y43969069D01*
X-58972212Y43820507D01*
X-59247540Y43545659D01*
X-59396730Y43186370D01*
X-59397069Y42797337D01*
X-71765000Y42797337D01*
X-71765000Y44639400D01*
X-66390627Y44639400D01*
X-66266170Y44013713D01*
X-65911747Y43483280D01*
X-65381314Y43128857D01*
X-64755627Y43004400D01*
X-63671973Y43004400D01*
X-63046286Y43128857D01*
X-62515853Y43483280D01*
X-62161430Y44013713D01*
X-62036973Y44639400D01*
X-62161430Y45265087D01*
X-62515853Y45795520D01*
X-63046286Y46149943D01*
X-63671973Y46274400D01*
X-64755627Y46274400D01*
X-65381314Y46149943D01*
X-65911747Y45795520D01*
X-66266170Y45265087D01*
X-66390627Y44639400D01*
X-71765000Y44639400D01*
X-71765000Y56057381D01*
X-71235387Y56057381D01*
X-70895845Y55235628D01*
X-70267679Y54606364D01*
X-69446519Y54265389D01*
X-68557381Y54264613D01*
X-67735628Y54604155D01*
X-67106364Y55232321D01*
X-66765389Y56053481D01*
X-66764613Y56942619D01*
X-67104155Y57764372D01*
X-67732321Y58393636D01*
X-68553481Y58734611D01*
X-69442619Y58735387D01*
X-70264372Y58395845D01*
X-70893636Y57767679D01*
X-71234611Y56946519D01*
X-71235387Y56057381D01*
X-71765000Y56057381D01*
X-71765000Y56427609D01*
X-71541223Y57552610D01*
X-70944969Y58444969D01*
X-70052610Y59041223D01*
X-68927610Y59265000D01*
X-64225987Y59265000D01*
X-64698285Y59171054D01*
X-64698285Y59171054D01*
G37*
X-64698285Y59171054D02*
X-65180054Y58849147D01*
X-65501961Y58367378D01*
X-65615000Y57799093D01*
X-65615000Y57740907D01*
X-65501961Y57172622D01*
X-65180054Y56690853D01*
X-65178821Y56690029D01*
X-65215317Y56683162D01*
X-65431441Y56544090D01*
X-65576431Y56331890D01*
X-65627440Y56080000D01*
X-65627440Y54917954D01*
X-65975898Y54569496D01*
X-66157597Y54297565D01*
X-66218489Y53991441D01*
X-66221401Y53976799D01*
X-66221401Y51403201D01*
X-66157597Y51082435D01*
X-65975898Y50810504D01*
X-65627440Y50462046D01*
X-65627440Y49300000D01*
X-65583162Y49064683D01*
X-65444090Y48848559D01*
X-65231890Y48703569D01*
X-64980000Y48652560D01*
X-63280000Y48652560D01*
X-63044683Y48696838D01*
X-62828559Y48835910D01*
X-62683569Y49048110D01*
X-62669914Y49115541D01*
X-62640054Y49070853D01*
X-62158285Y48748946D01*
X-61590000Y48635907D01*
X-61021715Y48748946D01*
X-60539946Y49070853D01*
X-60320000Y49400026D01*
X-60100054Y49070853D01*
X-59618285Y48748946D01*
X-59050000Y48635907D01*
X-58481715Y48748946D01*
X-57999946Y49070853D01*
X-57780000Y49400026D01*
X-57560054Y49070853D01*
X-57078285Y48748946D01*
X-56510000Y48635907D01*
X-55941715Y48748946D01*
X-55459946Y49070853D01*
X-55240000Y49400026D01*
X-55020054Y49070853D01*
X-54538285Y48748946D01*
X-53970000Y48635907D01*
X-53401715Y48748946D01*
X-52919946Y49070853D01*
X-52700000Y49400026D01*
X-52480054Y49070853D01*
X-51998285Y48748946D01*
X-51430000Y48635907D01*
X-50861715Y48748946D01*
X-50379946Y49070853D01*
X-50160000Y49400026D01*
X-49940054Y49070853D01*
X-49458285Y48748946D01*
X-48890000Y48635907D01*
X-48321715Y48748946D01*
X-47839946Y49070853D01*
X-47620000Y49400026D01*
X-47400054Y49070853D01*
X-46918285Y48748946D01*
X-46350000Y48635907D01*
X-45781715Y48748946D01*
X-45299946Y49070853D01*
X-45080000Y49400026D01*
X-44860054Y49070853D01*
X-44378285Y48748946D01*
X-43810000Y48635907D01*
X-43241715Y48748946D01*
X-42759946Y49070853D01*
X-42540000Y49400026D01*
X-42320054Y49070853D01*
X-42006600Y48861410D01*
X-42006600Y47178000D01*
X-41950530Y46896115D01*
X-41790855Y46657145D01*
X-39470600Y44336890D01*
X-39470600Y44150705D01*
X-39491130Y44159230D01*
X-39880163Y44159569D01*
X-40239712Y44011007D01*
X-40515040Y43736159D01*
X-40655500Y43397894D01*
X-40888797Y43164597D01*
X-41070496Y42892666D01*
X-41094020Y42774400D01*
X-41134300Y42571900D01*
X-41134300Y40803696D01*
X-41335227Y41104404D01*
X-41849438Y41447989D01*
X-42455991Y41568640D01*
X-43129849Y41568640D01*
X-43736402Y41447989D01*
X-44250613Y41104404D01*
X-44594198Y40590193D01*
X-44714849Y39983640D01*
X-44594198Y39377087D01*
X-44250613Y38862876D01*
X-44013111Y38704182D01*
X-44303487Y38474601D01*
X-44605870Y37932860D01*
X-44633506Y37816228D01*
X-44513504Y37570640D01*
X-42919920Y37570640D01*
X-42919920Y37590640D01*
X-42665920Y37590640D01*
X-42665920Y37570640D01*
X-42645920Y37570640D01*
X-42645920Y37316640D01*
X-42665920Y37316640D01*
X-42665920Y37296640D01*
X-42919920Y37296640D01*
X-42919920Y37316640D01*
X-44513504Y37316640D01*
X-44633506Y37071052D01*
X-44605870Y36954420D01*
X-44303487Y36412679D01*
X-44013111Y36183098D01*
X-44250613Y36024404D01*
X-44594198Y35510193D01*
X-44714849Y34903640D01*
X-44594198Y34297087D01*
X-44250613Y33782876D01*
X-43736402Y33439291D01*
X-43129849Y33318640D01*
X-42455991Y33318640D01*
X-41849438Y33439291D01*
X-41335227Y33782876D01*
X-41134300Y34083584D01*
X-41134300Y31095394D01*
X-46565697Y25663997D01*
X-46734999Y25410619D01*
X-46734999Y42988465D01*
X-46677088Y43012393D01*
X-46401760Y43287241D01*
X-46252570Y43646530D01*
X-46252231Y44035563D01*
X-46400793Y44395112D01*
X-46675641Y44670440D01*
X-47034930Y44819630D01*
X-47423963Y44819969D01*
X-47783512Y44671407D01*
X-48058840Y44396559D01*
X-48208030Y44037270D01*
X-48208038Y44028629D01*
X-48347595Y43819767D01*
X-48364513Y43734712D01*
X-48411399Y43499001D01*
X-48411399Y16786821D01*
X-48545512Y16731407D01*
X-48820840Y16456559D01*
X-48970030Y16097270D01*
X-48970369Y15708237D01*
X-48821807Y15348688D01*
X-48546959Y15073360D01*
X-48187670Y14924170D01*
X-47798637Y14923831D01*
X-47439088Y15072393D01*
X-47163760Y15347241D01*
X-47023300Y15685506D01*
X-46980502Y15728304D01*
X-46798803Y16000235D01*
X-46795835Y16015155D01*
X-46773112Y15900919D01*
X-46773269Y15720937D01*
X-46624707Y15361388D01*
X-46349859Y15086060D01*
X-45990570Y14936870D01*
X-45601537Y14936531D01*
X-45241988Y15085093D01*
X-44966660Y15359941D01*
X-44817470Y15719230D01*
X-44817136Y16102744D01*
X-44517370Y15978270D01*
X-44128337Y15977931D01*
X-43768788Y16126493D01*
X-43493460Y16401341D01*
X-43347521Y16752800D01*
X-38226000Y16752800D01*
X-37953835Y16806937D01*
X-37723106Y16961106D01*
X-37309137Y17375075D01*
X-37210000Y17374989D01*
X-37210000Y17017631D01*
X-37494815Y16732815D01*
X-37659996Y16485605D01*
X-37718000Y16194000D01*
X-37718000Y16053083D01*
X-37784540Y15986659D01*
X-37933730Y15627370D01*
X-37934069Y15238337D01*
X-37785507Y14878788D01*
X-37510659Y14603460D01*
X-37151370Y14454270D01*
X-36762337Y14453931D01*
X-36402788Y14602493D01*
X-36127460Y14877341D01*
X-35978270Y15236630D01*
X-35977931Y15625663D01*
X-36114992Y15957377D01*
X-36036185Y16036184D01*
X-35985315Y16112316D01*
X-35909185Y16163185D01*
X-35744004Y16410395D01*
X-35686000Y16702000D01*
X-35686000Y17731917D01*
X-35619460Y17798341D01*
X-35611009Y17818694D01*
X-34728021Y16935706D01*
X-34625091Y16866931D01*
X-34497290Y16781537D01*
X-34225126Y16727400D01*
X-31725714Y16727400D01*
X-31105235Y16106921D01*
X-31105235Y14728005D01*
X-31213948Y14683086D01*
X-31489276Y14408238D01*
X-31638466Y14048949D01*
X-31638788Y13679400D01*
X-32566744Y13679400D01*
X-32687400Y13703400D01*
X-33085926Y13624128D01*
X-33423781Y13398381D01*
X-33649528Y13060526D01*
X-33728800Y12662000D01*
X-33649528Y12263474D01*
X-33423781Y11925619D01*
X-33399781Y11901619D01*
X-33061927Y11675872D01*
X-32663400Y11596600D01*
X-24510000Y11596600D01*
X-24111473Y11675872D01*
X-23773619Y11901619D01*
X-22712967Y12962271D01*
X-22703250Y12600565D01*
X-22455123Y12001533D01*
X-22162320Y11872285D01*
X-21008605Y13026000D01*
X-21022747Y13040142D01*
X-20843142Y13219747D01*
X-20829000Y13205605D01*
X-20814857Y13219747D01*
X-20635252Y13040142D01*
X-20649395Y13026000D01*
X-19495680Y11872285D01*
X-19202877Y12001533D01*
X-18934612Y12701806D01*
X-18944389Y13065750D01*
X-18235509Y12771397D01*
X-17326479Y12770604D01*
X-16486342Y13117742D01*
X-15843001Y13759961D01*
X-15494397Y14599491D01*
X-15493796Y15288034D01*
X-14363990Y14158228D01*
X-14364257Y13851911D01*
X-14138656Y13305914D01*
X-13721283Y12887812D01*
X-13175681Y12661258D01*
X-12584911Y12660743D01*
X-12038914Y12886344D01*
X-11620812Y13303717D01*
X-11394258Y13849319D01*
X-11393743Y14440089D01*
X-11619344Y14986086D01*
X-12036717Y15404188D01*
X-12064557Y15415748D01*
X-12038914Y15426344D01*
X-11620812Y15843717D01*
X-11394258Y16389319D01*
X-11393743Y16980089D01*
X-11619344Y17526086D01*
X-12036717Y17944188D01*
X-12582319Y18170742D01*
X-13173089Y18171257D01*
X-13253431Y18138061D01*
X-14438996Y19323626D01*
X-14471637Y19345436D01*
X-14686206Y19488807D01*
X-14977811Y19546811D01*
X-19841072Y19546811D01*
X-20132677Y19488807D01*
X-20347246Y19345436D01*
X-20379887Y19323626D01*
X-21405514Y18297999D01*
X-22863123Y18297999D01*
X-22744241Y18584298D01*
X-22743760Y19135285D01*
X-22954169Y19644515D01*
X-23343436Y20034461D01*
X-23575870Y20130976D01*
X-23345485Y20226169D01*
X-22955539Y20615436D01*
X-22744241Y21124298D01*
X-22743760Y21675285D01*
X-22939742Y22149599D01*
X-14823401Y22149599D01*
X-14531796Y22207603D01*
X-14284586Y22372784D01*
X-13253711Y23403659D01*
X-13175681Y23371258D01*
X-12584911Y23370743D01*
X-12038914Y23596344D01*
X-11620812Y24013717D01*
X-11394258Y24559319D01*
X-11393743Y25150089D01*
X-11619344Y25696086D01*
X-12036717Y26114188D01*
X-12064557Y26125748D01*
X-12038914Y26136344D01*
X-11620812Y26553717D01*
X-11394258Y27099319D01*
X-11393743Y27690089D01*
X-11619344Y28236086D01*
X-12036717Y28654188D01*
X-12582319Y28880742D01*
X-13173089Y28881257D01*
X-13719086Y28655656D01*
X-14137188Y28238283D01*
X-14363742Y27692681D01*
X-14364257Y27101911D01*
X-14138656Y26555914D01*
X-13721283Y26137812D01*
X-13693443Y26126252D01*
X-13719086Y26115656D01*
X-14137188Y25698283D01*
X-14363742Y25152681D01*
X-14364257Y24561911D01*
X-14331061Y24481570D01*
X-15139031Y23673599D01*
X-22744233Y23673599D01*
X-22743760Y24215285D01*
X-22954169Y24724515D01*
X-23343436Y25114461D01*
X-23852298Y25325759D01*
X-24403285Y25326240D01*
X-24912515Y25115831D01*
X-25302461Y24726564D01*
X-25513759Y24217702D01*
X-25513847Y24116991D01*
X-25636072Y24239216D01*
X-25642769Y24243691D01*
X-25582426Y24304034D01*
X-25697481Y24419089D01*
X-25456540Y24487077D01*
X-25271799Y25006171D01*
X-25299770Y25556448D01*
X-25456540Y25934923D01*
X-25697483Y26002912D01*
X-26489395Y25211000D01*
X-26475252Y25196857D01*
X-26654857Y25017252D01*
X-26669000Y25031395D01*
X-26683142Y25017252D01*
X-26862747Y25196857D01*
X-26848605Y25211000D01*
X-27640517Y26002912D01*
X-27881460Y25934923D01*
X-28066201Y25415829D01*
X-28038230Y24865552D01*
X-27881460Y24487077D01*
X-27680387Y24430339D01*
X-27810804Y24404397D01*
X-28058015Y24239216D01*
X-29368957Y22928273D01*
X-29386801Y22935682D01*
X-29386801Y24029527D01*
X-29431956Y24256537D01*
X-29440938Y24301692D01*
X-29595107Y24532421D01*
X-31245203Y26182517D01*
X-27460912Y26182517D01*
X-26669000Y25390605D01*
X-25877088Y26182517D01*
X-25945077Y26423460D01*
X-26464171Y26608201D01*
X-27014448Y26580230D01*
X-27392923Y26423460D01*
X-27460912Y26182517D01*
X-31245203Y26182517D01*
X-31817980Y26755294D01*
X-32048709Y26909463D01*
X-32320874Y26963600D01*
X-37463690Y26963600D01*
X-37244610Y27182680D01*
X-21982715Y27182680D01*
X-21853467Y26889877D01*
X-21153194Y26621612D01*
X-20403565Y26641750D01*
X-20063743Y26782509D01*
X-20064396Y26033479D01*
X-19717258Y25193342D01*
X-19075039Y24550001D01*
X-18235509Y24201397D01*
X-17326479Y24200604D01*
X-16486342Y24547742D01*
X-15843001Y25189961D01*
X-15494397Y26029491D01*
X-15493604Y26938521D01*
X-15840742Y27778658D01*
X-16482961Y28421999D01*
X-17322491Y28770603D01*
X-18231521Y28771396D01*
X-18942293Y28477711D01*
X-18954750Y28941435D01*
X-19202877Y29540467D01*
X-19495680Y29669715D01*
X-20649395Y28516000D01*
X-20635252Y28501857D01*
X-20814857Y28322252D01*
X-20829000Y28336395D01*
X-21982715Y27182680D01*
X-37244610Y27182680D01*
X-35669145Y28758145D01*
X-35614322Y28840194D01*
X-22723388Y28840194D01*
X-22703250Y28090565D01*
X-22455123Y27491533D01*
X-22162320Y27362285D01*
X-21008605Y28516000D01*
X-22162320Y29669715D01*
X-22455123Y29540467D01*
X-22723388Y28840194D01*
X-35614322Y28840194D01*
X-35509470Y28997115D01*
X-35453400Y29279000D01*
X-35453400Y29849320D01*
X-21982715Y29849320D01*
X-20829000Y28695605D01*
X-19675285Y29849320D01*
X-19804533Y30142123D01*
X-20504806Y30410388D01*
X-21254435Y30390250D01*
X-21853467Y30142123D01*
X-21982715Y29849320D01*
X-35453400Y29849320D01*
X-35453400Y33057381D01*
X-13235387Y33057381D01*
X-12895845Y32235628D01*
X-12267679Y31606364D01*
X-11446519Y31265389D01*
X-10557381Y31264613D01*
X-9735628Y31604155D01*
X-9106364Y32232321D01*
X-8765389Y33053481D01*
X-8764613Y33942619D01*
X-9104155Y34764372D01*
X-9732321Y35393636D01*
X-10553481Y35734611D01*
X-11442619Y35735387D01*
X-12264372Y35395845D01*
X-12893636Y34767679D01*
X-13234611Y33946519D01*
X-13235387Y33057381D01*
X-35453400Y33057381D01*
X-35453400Y48861410D01*
X-35139946Y49070853D01*
X-34920000Y49400026D01*
X-34700054Y49070853D01*
X-34218285Y48748946D01*
X-33650000Y48635907D01*
X-33081715Y48748946D01*
X-32599946Y49070853D01*
X-32380000Y49400026D01*
X-32160054Y49070853D01*
X-31678285Y48748946D01*
X-31110000Y48635907D01*
X-30541715Y48748946D01*
X-30059946Y49070853D01*
X-29840000Y49400026D01*
X-29620054Y49070853D01*
X-29138285Y48748946D01*
X-28570000Y48635907D01*
X-28001715Y48748946D01*
X-27519946Y49070853D01*
X-27300000Y49400026D01*
X-27080054Y49070853D01*
X-26598285Y48748946D01*
X-26030000Y48635907D01*
X-25461715Y48748946D01*
X-24979946Y49070853D01*
X-24760000Y49400026D01*
X-24540054Y49070853D01*
X-24058285Y48748946D01*
X-23490000Y48635907D01*
X-22921715Y48748946D01*
X-22439946Y49070853D01*
X-22220000Y49400026D01*
X-22000054Y49070853D01*
X-21518285Y48748946D01*
X-20950000Y48635907D01*
X-20381715Y48748946D01*
X-19899946Y49070853D01*
X-19680000Y49400026D01*
X-19460054Y49070853D01*
X-18978285Y48748946D01*
X-18410000Y48635907D01*
X-18303558Y48657080D01*
X-18975719Y47984919D01*
X-32040573Y47984919D01*
X-32125130Y48020030D01*
X-32514163Y48020369D01*
X-32873712Y47871807D01*
X-33149040Y47596959D01*
X-33298230Y47237670D01*
X-33298569Y46848637D01*
X-33150007Y46489088D01*
X-32875159Y46213760D01*
X-32515870Y46064570D01*
X-32126837Y46064231D01*
X-32027396Y46105319D01*
X-18787759Y46105319D01*
X-19713539Y45179539D01*
X-19917262Y44874646D01*
X-19988800Y44515000D01*
X-19988800Y38705715D01*
X-20026730Y38614370D01*
X-20027069Y38225337D01*
X-19878507Y37865788D01*
X-19603659Y37590460D01*
X-19244370Y37441270D01*
X-18855337Y37440931D01*
X-18495788Y37589493D01*
X-18220460Y37864341D01*
X-18071270Y38223630D01*
X-18070931Y38612663D01*
X-18109200Y38705281D01*
X-18109200Y39003909D01*
X-13004905Y39003909D01*
X-12771708Y38439529D01*
X-12340283Y38007349D01*
X-11776310Y37773167D01*
X-11165649Y37772635D01*
X-10601269Y38005832D01*
X-10169089Y38437257D01*
X-9934907Y39001230D01*
X-9934375Y39611891D01*
X-10167572Y40176271D01*
X-10598997Y40608451D01*
X-11162970Y40842633D01*
X-11773631Y40843165D01*
X-12338011Y40609968D01*
X-12770191Y40178543D01*
X-13004373Y39614570D01*
X-13004905Y39003909D01*
X-18109200Y39003909D01*
X-18109200Y41532052D01*
X-17851059Y41273460D01*
X-17491770Y41124270D01*
X-17102737Y41123931D01*
X-16743188Y41272493D01*
X-16467860Y41547341D01*
X-16318670Y41906630D01*
X-16318587Y42002183D01*
X-15589185Y42731585D01*
X-15424004Y42978795D01*
X-15403927Y43079730D01*
X-15366000Y43270400D01*
X-15366000Y43716117D01*
X-15299460Y43782541D01*
X-15150270Y44141830D01*
X-15149931Y44530863D01*
X-15298493Y44890412D01*
X-15573341Y45165740D01*
X-15932630Y45314930D01*
X-16321663Y45315269D01*
X-16681212Y45166707D01*
X-16956540Y44891859D01*
X-17105730Y44532570D01*
X-17106069Y44143537D01*
X-16957507Y43783988D01*
X-16890000Y43716363D01*
X-16890000Y43586030D01*
X-17396043Y43079987D01*
X-17490063Y43080069D01*
X-17849612Y42931507D01*
X-18109200Y42672372D01*
X-18109200Y44125722D01*
X-15539199Y46695723D01*
X-15447788Y46733493D01*
X-15172460Y47008341D01*
X-15023270Y47367630D01*
X-15022931Y47756663D01*
X-15026872Y47766200D01*
X-9937715Y47766200D01*
X-9846370Y47728270D01*
X-9457337Y47727931D01*
X-9097788Y47876493D01*
X-8822460Y48151341D01*
X-8673270Y48510630D01*
X-8672931Y48899663D01*
X-8821493Y49259212D01*
X-9096341Y49534540D01*
X-9455630Y49683730D01*
X-9844663Y49684069D01*
X-9937281Y49645800D01*
X-10831264Y49645800D01*
X-10601269Y49740832D01*
X-10169089Y50172257D01*
X-9934907Y50736230D01*
X-9934375Y51346891D01*
X-10167572Y51911271D01*
X-10598997Y52343451D01*
X-11162970Y52577633D01*
X-11773631Y52578165D01*
X-12338011Y52344968D01*
X-12770191Y51913543D01*
X-13004373Y51349570D01*
X-13004905Y50738909D01*
X-12771708Y50174529D01*
X-12340283Y49742349D01*
X-12107767Y49645800D01*
X-14479505Y49645800D01*
X-14385000Y50120907D01*
X-14385000Y50179093D01*
X-14498039Y50747378D01*
X-14819946Y51229147D01*
X-15105578Y51420000D01*
X-14819946Y51610853D01*
X-14498039Y52092622D01*
X-14385000Y52660907D01*
X-14385000Y52719093D01*
X-14498039Y53287378D01*
X-14819946Y53769147D01*
X-15105578Y53960000D01*
X-14819946Y54150853D01*
X-14498039Y54632622D01*
X-14385000Y55200907D01*
X-14385000Y55259093D01*
X-14498039Y55827378D01*
X-14651721Y56057381D01*
X-13235387Y56057381D01*
X-12895845Y55235628D01*
X-12267679Y54606364D01*
X-11446519Y54265389D01*
X-10557381Y54264613D01*
X-9735628Y54604155D01*
X-9106364Y55232321D01*
X-8765389Y56053481D01*
X-8764613Y56942619D01*
X-9104155Y57764372D01*
X-9732321Y58393636D01*
X-10553481Y58734611D01*
X-11442619Y58735387D01*
X-12264372Y58395845D01*
X-12893636Y57767679D01*
X-13234611Y56946519D01*
X-13235387Y56057381D01*
X-14651721Y56057381D01*
X-14819946Y56309147D01*
X-15105578Y56500000D01*
X-14819946Y56690853D01*
X-14498039Y57172622D01*
X-14385000Y57740907D01*
X-14385000Y57799093D01*
X-14498039Y58367378D01*
X-14819946Y58849147D01*
X-15301715Y59171054D01*
X-15774013Y59265000D01*
X-10437391Y59265000D01*
X-9312390Y59041223D01*
X-8420031Y58444969D01*
X-7823777Y57552610D01*
X-7600000Y56427610D01*
X-7600000Y14072390D01*
X-7823777Y12947390D01*
X-8420031Y12055031D01*
X-9312390Y11458777D01*
X-10437391Y11235000D01*
X-20202582Y11235000D01*
X-19804533Y11399877D01*
X-19675285Y11692680D01*
X-20829000Y12846395D01*
X-21982715Y11692680D01*
X-21853467Y11399877D01*
X-21423076Y11235000D01*
X-68927610Y11235000D01*
X-70052610Y11458777D01*
X-70944969Y12055031D01*
X-71541223Y12947390D01*
X-71765000Y14072391D01*
X-71765000Y33057381D01*
X-71235387Y33057381D01*
X-70895845Y32235628D01*
X-70267679Y31606364D01*
X-69446519Y31265389D01*
X-68557381Y31264613D01*
X-67735628Y31604155D01*
X-67106364Y32232321D01*
X-66765389Y33053481D01*
X-66764613Y33942619D01*
X-67104155Y34764372D01*
X-67732321Y35393636D01*
X-68553481Y35734611D01*
X-69442619Y35735387D01*
X-70264372Y35395845D01*
X-70893636Y34767679D01*
X-71234611Y33946519D01*
X-71235387Y33057381D01*
X-71765000Y33057381D01*
X-71765000Y40758966D01*
X-66303924Y40758966D01*
X-66272944Y40631045D01*
X-65959722Y40073083D01*
X-65456820Y39677458D01*
X-64840800Y39504400D01*
X-64340800Y39504400D01*
X-64340800Y41012400D01*
X-64086800Y41012400D01*
X-64086800Y39504400D01*
X-63586800Y39504400D01*
X-62970780Y39677458D01*
X-62467878Y40073083D01*
X-62154656Y40631045D01*
X-62123676Y40758966D01*
X-62243023Y41012400D01*
X-64086800Y41012400D01*
X-64340800Y41012400D01*
X-66184577Y41012400D01*
X-66303924Y40758966D01*
X-71765000Y40758966D01*
X-71765000Y41519834D01*
X-66303924Y41519834D01*
X-66184577Y41266400D01*
X-64340800Y41266400D01*
X-64340800Y42774400D01*
X-64086800Y42774400D01*
X-64086800Y41266400D01*
X-62243023Y41266400D01*
X-62123676Y41519834D01*
X-62154656Y41647755D01*
X-62467878Y42205717D01*
X-62970780Y42601342D01*
X-63586800Y42774400D01*
X-64086800Y42774400D01*
X-64340800Y42774400D01*
X-64840800Y42774400D01*
X-65456820Y42601342D01*
X-65959722Y42205717D01*
X-66272944Y41647755D01*
X-66303924Y41519834D01*
X-71765000Y41519834D01*
X-71765000Y42797337D01*
X-59397069Y42797337D01*
X-59248507Y42437788D01*
X-58973659Y42162460D01*
X-58881107Y42124029D01*
X-58850800Y42093722D01*
X-58850800Y20385000D01*
X-58779262Y20025354D01*
X-58575539Y19720461D01*
X-51031277Y12176199D01*
X-50993507Y12084788D01*
X-50718659Y11809460D01*
X-50359370Y11660270D01*
X-49970337Y11659931D01*
X-49610788Y11808493D01*
X-49335460Y12083341D01*
X-49186270Y12442630D01*
X-49185931Y12831663D01*
X-49334493Y13191212D01*
X-49609341Y13466540D01*
X-49701893Y13504971D01*
X-56971200Y20774278D01*
X-56971200Y42483000D01*
X-57042738Y42842646D01*
X-57246461Y43147539D01*
X-57551723Y43452801D01*
X-57589493Y43544212D01*
X-57864341Y43819540D01*
X-58223630Y43968730D01*
X-58612663Y43969069D01*
X-58972212Y43820507D01*
X-59247540Y43545659D01*
X-59396730Y43186370D01*
X-59397069Y42797337D01*
X-71765000Y42797337D01*
X-71765000Y44639400D01*
X-66390627Y44639400D01*
X-66266170Y44013713D01*
X-65911747Y43483280D01*
X-65381314Y43128857D01*
X-64755627Y43004400D01*
X-63671973Y43004400D01*
X-63046286Y43128857D01*
X-62515853Y43483280D01*
X-62161430Y44013713D01*
X-62036973Y44639400D01*
X-62161430Y45265087D01*
X-62515853Y45795520D01*
X-63046286Y46149943D01*
X-63671973Y46274400D01*
X-64755627Y46274400D01*
X-65381314Y46149943D01*
X-65911747Y45795520D01*
X-66266170Y45265087D01*
X-66390627Y44639400D01*
X-71765000Y44639400D01*
X-71765000Y56057381D01*
X-71235387Y56057381D01*
X-70895845Y55235628D01*
X-70267679Y54606364D01*
X-69446519Y54265389D01*
X-68557381Y54264613D01*
X-67735628Y54604155D01*
X-67106364Y55232321D01*
X-66765389Y56053481D01*
X-66764613Y56942619D01*
X-67104155Y57764372D01*
X-67732321Y58393636D01*
X-68553481Y58734611D01*
X-69442619Y58735387D01*
X-70264372Y58395845D01*
X-70893636Y57767679D01*
X-71234611Y56946519D01*
X-71235387Y56057381D01*
X-71765000Y56057381D01*
X-71765000Y56427609D01*
X-71541223Y57552610D01*
X-70944969Y58444969D01*
X-70052610Y59041223D01*
X-68927610Y59265000D01*
X-64225987Y59265000D01*
X-64698285Y59171054D01*
M02*
