%
M48
M72
T01C0.0197
T02C0.0400
T03C0.0472
T04C0.1260
%
T01
X6378Y7980
X6771Y7980
X6771Y8374
X6378Y8374
X6378Y8767
X6771Y8767
X7165Y8767
X7165Y8374
X7165Y7980
T02
X6590Y11394
X5590Y11494
X7590Y11494
T03
X11496Y6799
X11496Y5421
X3622Y5421
X3622Y6799
T04
X3622Y3256
X11496Y3256
X11496Y11130
X3622Y11130
M30
