M48
;DRILL file {KiCad (2017-03-04 revision f18196186)-makepkg} date 04/23/17 21:58:19
;FORMAT={-:-/ absolute / metric / decimal}
FMAT,2
METRIC,TZ
T1C0.400
T2C1.200
T3C1.500
%
G90
G05
M71
T1
X131.Y-105.
X132.Y-99.
X138.Y-101.
X140.Y-104.5
X140.Y-109.
X141.5Y-101.5
X142.5Y-105.5
X143.51Y-95.25
X145.5Y-107.5
X146.05Y-97.79
X146.5Y-102.
X148.59Y-101.6
X155.5Y-106.5
X157.Y-96.5
T2
X135.Y-99.132
X135.Y-110.867
T3
X146.Y-114.
X151.Y-114.
X159.Y-114.
X164.Y-114.
T0
M30
