G04 #@! TF.GenerationSoftware,KiCad,Pcbnew,(2017-03-04 revision f18196186)-makepkg*
G04 #@! TF.CreationDate,2017-04-23T22:00:33+02:00*
G04 #@! TF.ProjectId,SPI PT100,5350492050543130302E6B696361645F,1.0*
G04 #@! TF.FileFunction,Legend,Top*
G04 #@! TF.FilePolarity,Positive*
%FSLAX46Y46*%
G04 Gerber Fmt 4.6, Leading zero omitted, Abs format (unit mm)*
G04 Created by KiCad (PCBNEW (2017-03-04 revision f18196186)-makepkg) date 04/23/17 22:00:33*
%MOMM*%
%LPD*%
G01*
G04 APERTURE LIST*
%ADD10C,0.100000*%
%ADD11C,0.127000*%
%ADD12C,0.120000*%
%ADD13C,0.150000*%
G04 APERTURE END LIST*
D10*
D11*
X30200000Y5000000D02*
X32100000Y5000000D01*
X30200000Y6100000D02*
X30200000Y5000000D01*
X22900000Y5000000D02*
X22900000Y6100000D01*
X20900000Y5000000D02*
X22900000Y5000000D01*
X20900000Y5000000D02*
X20900000Y-4100000D01*
X20900000Y6100000D02*
X20900000Y5000000D01*
X22900000Y6100000D02*
X20900000Y6100000D01*
X30200000Y6100000D02*
X22900000Y6100000D01*
X32100000Y6100000D02*
X30200000Y6100000D01*
X32100000Y5000000D02*
X32100000Y6100000D01*
X32100000Y-4100000D02*
X32100000Y5000000D01*
X20900000Y-4100000D02*
X32100000Y-4100000D01*
X17200000Y5000000D02*
X19100000Y5000000D01*
X17200000Y6100000D02*
X17200000Y5000000D01*
X9900000Y5000000D02*
X9900000Y6100000D01*
X7900000Y5000000D02*
X9900000Y5000000D01*
X7900000Y5000000D02*
X7900000Y-4100000D01*
X7900000Y6100000D02*
X7900000Y5000000D01*
X9900000Y6100000D02*
X7900000Y6100000D01*
X17200000Y6100000D02*
X9900000Y6100000D01*
X19100000Y6100000D02*
X17200000Y6100000D01*
X19100000Y5000000D02*
X19100000Y6100000D01*
X19100000Y-4100000D02*
X19100000Y5000000D01*
X7900000Y-4100000D02*
X19100000Y-4100000D01*
D12*
X6120000Y17400000D02*
X6120000Y18600000D01*
X7880000Y18600000D02*
X7880000Y17400000D01*
D13*
X15625000Y11275000D02*
X17225000Y11275000D01*
X15625000Y18575000D02*
X9875000Y18575000D01*
X15625000Y10925000D02*
X9875000Y10925000D01*
X15625000Y18575000D02*
X15625000Y18125000D01*
X9875000Y18575000D02*
X9875000Y18125000D01*
X9875000Y10925000D02*
X9875000Y11375000D01*
X15625000Y10925000D02*
X15625000Y11275000D01*
X-2540000Y3650000D02*
X-2540000Y16350000D01*
X-2540000Y16350000D02*
X2540000Y16350000D01*
X2540000Y3650000D02*
X2540000Y16350000D01*
X-2540000Y3650000D02*
X2540000Y3650000D01*
D12*
X13250000Y21600000D02*
X12250000Y21600000D01*
X12250000Y19900000D02*
X13250000Y19900000D01*
X12500000Y6650000D02*
X13500000Y6650000D01*
X13500000Y8350000D02*
X12500000Y8350000D01*
X13500000Y10350000D02*
X12500000Y10350000D01*
X12500000Y8650000D02*
X13500000Y8650000D01*
X17350000Y19870000D02*
X16150000Y19870000D01*
X16150000Y21630000D02*
X17350000Y21630000D01*
X21870000Y14150000D02*
X21870000Y15350000D01*
X23630000Y15350000D02*
X23630000Y14150000D01*
X18870000Y18150000D02*
X18870000Y19350000D01*
X20630000Y19350000D02*
X20630000Y18150000D01*
X19150000Y17130000D02*
X20350000Y17130000D01*
X20350000Y15370000D02*
X19150000Y15370000D01*
D13*
X32785142Y-3799428D02*
X32785142Y-2275428D01*
X33365714Y-2275428D01*
X33510857Y-2348000D01*
X33583428Y-2420571D01*
X33656000Y-2565714D01*
X33656000Y-2783428D01*
X33583428Y-2928571D01*
X33510857Y-3001142D01*
X33365714Y-3073714D01*
X32785142Y-3073714D01*
X34164000Y-2275428D02*
X35107428Y-2275428D01*
X34599428Y-2856000D01*
X34817142Y-2856000D01*
X34962285Y-2928571D01*
X35034857Y-3001142D01*
X35107428Y-3146285D01*
X35107428Y-3509142D01*
X35034857Y-3654285D01*
X34962285Y-3726857D01*
X34817142Y-3799428D01*
X34381714Y-3799428D01*
X34236571Y-3726857D01*
X34164000Y-3654285D01*
X4845142Y-3799428D02*
X4845142Y-2275428D01*
X5425714Y-2275428D01*
X5570857Y-2348000D01*
X5643428Y-2420571D01*
X5716000Y-2565714D01*
X5716000Y-2783428D01*
X5643428Y-2928571D01*
X5570857Y-3001142D01*
X5425714Y-3073714D01*
X4845142Y-3073714D01*
X6296571Y-2420571D02*
X6369142Y-2348000D01*
X6514285Y-2275428D01*
X6877142Y-2275428D01*
X7022285Y-2348000D01*
X7094857Y-2420571D01*
X7167428Y-2565714D01*
X7167428Y-2710857D01*
X7094857Y-2928571D01*
X6224000Y-3799428D01*
X7167428Y-3799428D01*
X5802380Y17833334D02*
X5326190Y17500000D01*
X5802380Y17261905D02*
X4802380Y17261905D01*
X4802380Y17642858D01*
X4850000Y17738096D01*
X4897619Y17785715D01*
X4992857Y17833334D01*
X5135714Y17833334D01*
X5230952Y17785715D01*
X5278571Y17738096D01*
X5326190Y17642858D01*
X5326190Y17261905D01*
X4802380Y18738096D02*
X4802380Y18261905D01*
X5278571Y18214286D01*
X5230952Y18261905D01*
X5183333Y18357143D01*
X5183333Y18595239D01*
X5230952Y18690477D01*
X5278571Y18738096D01*
X5373809Y18785715D01*
X5611904Y18785715D01*
X5707142Y18738096D01*
X5754761Y18690477D01*
X5802380Y18595239D01*
X5802380Y18357143D01*
X5754761Y18261905D01*
X5707142Y18214286D01*
X18238095Y11547620D02*
X18238095Y10738096D01*
X18285714Y10642858D01*
X18333333Y10595239D01*
X18428571Y10547620D01*
X18619047Y10547620D01*
X18714285Y10595239D01*
X18761904Y10642858D01*
X18809523Y10738096D01*
X18809523Y11547620D01*
X19809523Y10547620D02*
X19238095Y10547620D01*
X19523809Y10547620D02*
X19523809Y11547620D01*
X19428571Y11404762D01*
X19333333Y11309524D01*
X19238095Y11261905D01*
X3961904Y4057620D02*
X3961904Y5057620D01*
X4342857Y5057620D01*
X4438095Y5010000D01*
X4485714Y4962381D01*
X4533333Y4867143D01*
X4533333Y4724286D01*
X4485714Y4629048D01*
X4438095Y4581429D01*
X4342857Y4533810D01*
X3961904Y4533810D01*
X5485714Y4057620D02*
X4914285Y4057620D01*
X5200000Y4057620D02*
X5200000Y5057620D01*
X5104761Y4914762D01*
X5009523Y4819524D01*
X4914285Y4771905D01*
X10883333Y21932858D02*
X10835714Y21885239D01*
X10692857Y21837620D01*
X10597619Y21837620D01*
X10454761Y21885239D01*
X10359523Y21980477D01*
X10311904Y22075715D01*
X10264285Y22266191D01*
X10264285Y22409048D01*
X10311904Y22599524D01*
X10359523Y22694762D01*
X10454761Y22790000D01*
X10597619Y22837620D01*
X10692857Y22837620D01*
X10835714Y22790000D01*
X10883333Y22742381D01*
X11216666Y22837620D02*
X11835714Y22837620D01*
X11502380Y22456667D01*
X11645238Y22456667D01*
X11740476Y22409048D01*
X11788095Y22361429D01*
X11835714Y22266191D01*
X11835714Y22028096D01*
X11788095Y21932858D01*
X11740476Y21885239D01*
X11645238Y21837620D01*
X11359523Y21837620D01*
X11264285Y21885239D01*
X11216666Y21932858D01*
X9613333Y6692858D02*
X9565714Y6645239D01*
X9422857Y6597620D01*
X9327619Y6597620D01*
X9184761Y6645239D01*
X9089523Y6740477D01*
X9041904Y6835715D01*
X8994285Y7026191D01*
X8994285Y7169048D01*
X9041904Y7359524D01*
X9089523Y7454762D01*
X9184761Y7550000D01*
X9327619Y7597620D01*
X9422857Y7597620D01*
X9565714Y7550000D01*
X9613333Y7502381D01*
X9994285Y7502381D02*
X10041904Y7550000D01*
X10137142Y7597620D01*
X10375238Y7597620D01*
X10470476Y7550000D01*
X10518095Y7502381D01*
X10565714Y7407143D01*
X10565714Y7311905D01*
X10518095Y7169048D01*
X9946666Y6597620D01*
X10565714Y6597620D01*
X9613333Y9232858D02*
X9565714Y9185239D01*
X9422857Y9137620D01*
X9327619Y9137620D01*
X9184761Y9185239D01*
X9089523Y9280477D01*
X9041904Y9375715D01*
X8994285Y9566191D01*
X8994285Y9709048D01*
X9041904Y9899524D01*
X9089523Y9994762D01*
X9184761Y10090000D01*
X9327619Y10137620D01*
X9422857Y10137620D01*
X9565714Y10090000D01*
X9613333Y10042381D01*
X10565714Y9137620D02*
X9994285Y9137620D01*
X10280000Y9137620D02*
X10280000Y10137620D01*
X10184761Y9994762D01*
X10089523Y9899524D01*
X9994285Y9851905D01*
X18503333Y21837620D02*
X18170000Y22313810D01*
X17931904Y21837620D02*
X17931904Y22837620D01*
X18312857Y22837620D01*
X18408095Y22790000D01*
X18455714Y22742381D01*
X18503333Y22647143D01*
X18503333Y22504286D01*
X18455714Y22409048D01*
X18408095Y22361429D01*
X18312857Y22313810D01*
X17931904Y22313810D01*
X19360476Y22504286D02*
X19360476Y21837620D01*
X19122380Y22885239D02*
X18884285Y22170953D01*
X19503333Y22170953D01*
X26742380Y14503334D02*
X26266190Y14170000D01*
X26742380Y13931905D02*
X25742380Y13931905D01*
X25742380Y14312858D01*
X25790000Y14408096D01*
X25837619Y14455715D01*
X25932857Y14503334D01*
X26075714Y14503334D01*
X26170952Y14455715D01*
X26218571Y14408096D01*
X26266190Y14312858D01*
X26266190Y13931905D01*
X25742380Y14836667D02*
X25742380Y15455715D01*
X26123333Y15122381D01*
X26123333Y15265239D01*
X26170952Y15360477D01*
X26218571Y15408096D01*
X26313809Y15455715D01*
X26551904Y15455715D01*
X26647142Y15408096D01*
X26694761Y15360477D01*
X26742380Y15265239D01*
X26742380Y14979524D01*
X26694761Y14884286D01*
X26647142Y14836667D01*
X22932380Y19583334D02*
X22456190Y19250000D01*
X22932380Y19011905D02*
X21932380Y19011905D01*
X21932380Y19392858D01*
X21980000Y19488096D01*
X22027619Y19535715D01*
X22122857Y19583334D01*
X22265714Y19583334D01*
X22360952Y19535715D01*
X22408571Y19488096D01*
X22456190Y19392858D01*
X22456190Y19011905D01*
X22027619Y19964286D02*
X21980000Y20011905D01*
X21932380Y20107143D01*
X21932380Y20345239D01*
X21980000Y20440477D01*
X22027619Y20488096D01*
X22122857Y20535715D01*
X22218095Y20535715D01*
X22360952Y20488096D01*
X22932380Y19916667D01*
X22932380Y20535715D01*
X19773333Y12947620D02*
X19440000Y13423810D01*
X19201904Y12947620D02*
X19201904Y13947620D01*
X19582857Y13947620D01*
X19678095Y13900000D01*
X19725714Y13852381D01*
X19773333Y13757143D01*
X19773333Y13614286D01*
X19725714Y13519048D01*
X19678095Y13471429D01*
X19582857Y13423810D01*
X19201904Y13423810D01*
X20725714Y12947620D02*
X20154285Y12947620D01*
X20440000Y12947620D02*
X20440000Y13947620D01*
X20344761Y13804762D01*
X20249523Y13709524D01*
X20154285Y13661905D01*
M02*
