M48
;DRILL file {KiCad (2017-03-04 revision f18196186)-makepkg} date 05/27/17 01:19:35
;FORMAT={-:-/ absolute / metric / decimal}
FMAT,2
METRIC,TZ
T1C0.400
T2C1.200
T3C1.500
%
G90
G05
M71
T1
X136.Y-105.
X136.053Y-105.836
X137.Y-99.
X142.612Y-100.05
X142.969Y-98.643
X143.Y-101.
X144.047Y-105.123
X145.Y-104.5
X145.Y-109.
X145.565Y-116.802
X146.5Y-101.5
X147.5Y-105.5
X148.51Y-95.25
X150.248Y-105.812
X150.5Y-107.5
X151.5Y-98.
X151.5Y-102.
X154.Y-100.
X160.5Y-106.5
X162.Y-96.5
X163.129Y-105.583
X164.844Y-104.262
X165.728Y-110.725
X165.75Y-104.75
X166.4Y-100.6
X170.Y-106.506
X170.Y-107.962
T2
X140.Y-99.132
X140.Y-110.867
X170.Y-99.132
X170.Y-110.867
T3
X146.Y-114.
X151.Y-114.
X159.Y-114.
X164.Y-114.
T0
M30
