G04 #@! TF.GenerationSoftware,KiCad,Pcbnew,(2017-03-04 revision f18196186)-makepkg*
G04 #@! TF.CreationDate,2017-05-27T01:25:53+02:00*
G04 #@! TF.ProjectId,SPI PT100,5350492050543130302E6B696361645F,1.0*
G04 #@! TF.FileFunction,Soldermask,Top*
G04 #@! TF.FilePolarity,Negative*
%FSLAX46Y46*%
G04 Gerber Fmt 4.6, Leading zero omitted, Abs format (unit mm)*
G04 Created by KiCad (PCBNEW (2017-03-04 revision f18196186)-makepkg) date 05/27/17 01:25:53*
%MOMM*%
%LPD*%
G01*
G04 APERTURE LIST*
%ADD10C,0.100000*%
%ADD11O,2.250000X4.500000*%
%ADD12R,1.300000X0.700000*%
%ADD13R,1.750000X0.450000*%
%ADD14C,1.800000*%
%ADD15R,2.795000X0.740000*%
%ADD16R,1.000000X1.250000*%
%ADD17R,0.700000X1.300000*%
%ADD18C,3.200000*%
%ADD19R,1.700000X0.900000*%
G04 APERTURE END LIST*
D10*
D11*
X29000000Y1000000D03*
X24000000Y1000000D03*
X16000000Y1000000D03*
X11000000Y1000000D03*
D12*
X12000000Y18950000D03*
X12000000Y17050000D03*
D13*
X14150000Y11825000D03*
X14150000Y12475000D03*
X14150000Y13125000D03*
X14150000Y13775000D03*
X14150000Y14425000D03*
X14150000Y15075000D03*
X14150000Y15725000D03*
X14150000Y16375000D03*
X14150000Y17025000D03*
X14150000Y17675000D03*
X21350000Y17675000D03*
X21350000Y17025000D03*
X21350000Y16375000D03*
X21350000Y15725000D03*
X21350000Y15075000D03*
X21350000Y14425000D03*
X21350000Y13775000D03*
X21350000Y13125000D03*
X21350000Y12475000D03*
X21350000Y11825000D03*
D14*
X5000000Y4132500D03*
X5000000Y15867500D03*
D15*
X7032500Y7460000D03*
X2967500Y7460000D03*
X7032500Y8730000D03*
X2967500Y8730000D03*
X7032500Y10000000D03*
X2967500Y10000000D03*
X7032500Y11270000D03*
X2967500Y11270000D03*
X7032500Y12540000D03*
X2967500Y12540000D03*
D16*
X16750000Y20750000D03*
X18750000Y20750000D03*
X19000000Y7500000D03*
X17000000Y7500000D03*
X17000000Y9500000D03*
X19000000Y9500000D03*
D17*
X20800000Y20750000D03*
X22700000Y20750000D03*
D12*
X24750000Y19700000D03*
X24750000Y17800000D03*
D17*
X25700000Y16250000D03*
X23800000Y16250000D03*
D18*
X0Y0D03*
X40000000Y0D03*
X0Y20000000D03*
X40000000Y20000000D03*
D14*
X35000000Y4132500D03*
X35000000Y15867500D03*
D15*
X37032500Y7460000D03*
X32967500Y7460000D03*
X37032500Y8730000D03*
X32967500Y8730000D03*
X37032500Y10000000D03*
X32967500Y10000000D03*
X37032500Y11270000D03*
X32967500Y11270000D03*
X37032500Y12540000D03*
X32967500Y12540000D03*
D19*
X27500000Y15950000D03*
X27500000Y13050000D03*
M02*
