M48
METRIC,TZ
T1C0.500
T2C1.199
T3C1.500
T4C3.200
%
G90
G05
T1
X141.Y-96.
X141.Y-97.
X141.Y-98.
X141.Y-99.
X141.Y-100.
X141.Y-101.
X142.Y-96.
X142.Y-97.
X142.Y-98.
X142.Y-99.
X142.Y-100.
X142.Y-101.
X143.Y-98.
X143.Y-99.
X143.Y-100.
X143.Y-101.
X144.Y-99.
X144.Y-100.
X144.Y-101.
X145.Y-99.
X145.Y-100.
X145.Y-101.
X146.Y-99.
X146.Y-100.
X146.Y-101.
X147.Y-100.
X147.Y-101.
T2
X145.46Y-92.5
X148.Y-92.5
X150.54Y-92.5
T3
X135.75Y-105.5
X135.75Y-110.5
X161.25Y-105.5
X161.25Y-110.5
T4
X133.5Y-92.5
X133.5Y-117.5
X163.5Y-92.5
X163.5Y-117.5
T0
M30
