G04 #@! TF.FileFunction,Legend,Top*
%FSLAX46Y46*%
G04 Gerber Fmt 4.6, Leading zero omitted, Abs format (unit mm)*
G04 Created by KiCad (PCBNEW 4.0.2-stable) date 04/06/2016 20:31:28*
%MOMM*%
G01*
G04 APERTURE LIST*
%ADD10C,0.100000*%
%ADD11C,0.065024*%
%ADD12C,0.304800*%
%ADD13C,0.142240*%
%ADD14C,0.101600*%
%ADD15C,0.093472*%
%ADD16C,0.150000*%
%ADD17C,0.127000*%
%ADD18C,0.254000*%
%ADD19C,0.200000*%
%ADD20C,0.096520*%
G04 APERTURE END LIST*
D10*
D11*
X154183848Y-97169074D02*
X154772160Y-97169074D01*
D12*
X141361786Y-105448786D02*
X144119500Y-105448786D01*
X142740643Y-106827643D02*
X142740643Y-104069929D01*
X141948786Y-112138214D02*
X141948786Y-109380500D01*
X154948786Y-111878857D02*
X154948786Y-109121143D01*
X152861786Y-105448786D02*
X155619500Y-105448786D01*
X154240643Y-106827643D02*
X154240643Y-104069929D01*
D13*
X131071733Y-98641333D02*
X131152167Y-98560900D01*
X131313033Y-98480467D01*
X131715200Y-98480467D01*
X131876067Y-98560900D01*
X131956500Y-98641333D01*
X132036933Y-98802200D01*
X132036933Y-98963067D01*
X131956500Y-99204367D01*
X130991300Y-100169567D01*
X132036933Y-100169567D01*
X133484734Y-99043500D02*
X133484734Y-100169567D01*
X133082567Y-98400033D02*
X132680400Y-99606533D01*
X133726034Y-99606533D01*
X134128201Y-98480467D02*
X134691234Y-100169567D01*
X135254267Y-98480467D01*
X133402167Y-102169567D02*
X133402167Y-100480467D01*
X133965200Y-101686967D01*
X134528233Y-100480467D01*
X134528233Y-102169567D01*
X135252133Y-101686967D02*
X136056467Y-101686967D01*
X135091267Y-102169567D02*
X135654300Y-100480467D01*
X136217333Y-102169567D01*
X136619500Y-100480467D02*
X137745567Y-102169567D01*
X137745567Y-100480467D02*
X136619500Y-102169567D01*
D14*
X143919238Y-96293500D02*
X143804333Y-96236048D01*
X143631976Y-96236048D01*
X143459619Y-96293500D01*
X143344714Y-96408405D01*
X143287262Y-96523310D01*
X143229810Y-96753119D01*
X143229810Y-96925476D01*
X143287262Y-97155286D01*
X143344714Y-97270190D01*
X143459619Y-97385095D01*
X143631976Y-97442548D01*
X143746881Y-97442548D01*
X143919238Y-97385095D01*
X143976690Y-97327643D01*
X143976690Y-96925476D01*
X143746881Y-96925476D01*
X144493762Y-96638214D02*
X144493762Y-97442548D01*
X144493762Y-96753119D02*
X144551214Y-96695667D01*
X144666119Y-96638214D01*
X144838476Y-96638214D01*
X144953381Y-96695667D01*
X145010833Y-96810571D01*
X145010833Y-97442548D01*
X146102428Y-97442548D02*
X146102428Y-96236048D01*
X146102428Y-97385095D02*
X145987524Y-97442548D01*
X145757714Y-97442548D01*
X145642809Y-97385095D01*
X145585357Y-97327643D01*
X145527905Y-97212738D01*
X145527905Y-96868024D01*
X145585357Y-96753119D01*
X145642809Y-96695667D01*
X145757714Y-96638214D01*
X145987524Y-96638214D01*
X146102428Y-96695667D01*
X147861786Y-96236048D02*
X147287262Y-96236048D01*
X147229810Y-96810571D01*
X147287262Y-96753119D01*
X147402167Y-96695667D01*
X147689429Y-96695667D01*
X147804333Y-96753119D01*
X147861786Y-96810571D01*
X147919238Y-96925476D01*
X147919238Y-97212738D01*
X147861786Y-97327643D01*
X147804333Y-97385095D01*
X147689429Y-97442548D01*
X147402167Y-97442548D01*
X147287262Y-97385095D01*
X147229810Y-97327643D01*
X148321405Y-96638214D02*
X148608667Y-97442548D01*
X148895929Y-96638214D01*
X150229810Y-97385095D02*
X150402167Y-97442548D01*
X150689429Y-97442548D01*
X150804333Y-97385095D01*
X150861786Y-97327643D01*
X150919238Y-97212738D01*
X150919238Y-97097833D01*
X150861786Y-96982929D01*
X150804333Y-96925476D01*
X150689429Y-96868024D01*
X150459619Y-96810571D01*
X150344714Y-96753119D01*
X150287262Y-96695667D01*
X150229810Y-96580762D01*
X150229810Y-96465857D01*
X150287262Y-96350952D01*
X150344714Y-96293500D01*
X150459619Y-96236048D01*
X150746881Y-96236048D01*
X150919238Y-96293500D01*
X151436310Y-97442548D02*
X151436310Y-96638214D01*
X151436310Y-96236048D02*
X151378858Y-96293500D01*
X151436310Y-96350952D01*
X151493762Y-96293500D01*
X151436310Y-96236048D01*
X151436310Y-96350952D01*
X152527905Y-96638214D02*
X152527905Y-97614905D01*
X152470453Y-97729810D01*
X152413001Y-97787262D01*
X152298096Y-97844714D01*
X152125739Y-97844714D01*
X152010834Y-97787262D01*
X152527905Y-97385095D02*
X152413001Y-97442548D01*
X152183191Y-97442548D01*
X152068286Y-97385095D01*
X152010834Y-97327643D01*
X151953382Y-97212738D01*
X151953382Y-96868024D01*
X152010834Y-96753119D01*
X152068286Y-96695667D01*
X152183191Y-96638214D01*
X152413001Y-96638214D01*
X152527905Y-96695667D01*
X153102429Y-96638214D02*
X153102429Y-97442548D01*
X153102429Y-96753119D02*
X153159881Y-96695667D01*
X153274786Y-96638214D01*
X153447143Y-96638214D01*
X153562048Y-96695667D01*
X153619500Y-96810571D01*
X153619500Y-97442548D01*
X154711095Y-97442548D02*
X154711095Y-96810571D01*
X154653643Y-96695667D01*
X154538738Y-96638214D01*
X154308929Y-96638214D01*
X154194024Y-96695667D01*
X154711095Y-97385095D02*
X154596191Y-97442548D01*
X154308929Y-97442548D01*
X154194024Y-97385095D01*
X154136572Y-97270190D01*
X154136572Y-97155286D01*
X154194024Y-97040381D01*
X154308929Y-96982929D01*
X154596191Y-96982929D01*
X154711095Y-96925476D01*
X155457976Y-97442548D02*
X155343071Y-97385095D01*
X155285619Y-97270190D01*
X155285619Y-96236048D01*
X138361786Y-91942548D02*
X137787262Y-91942548D01*
X137787262Y-90736048D01*
X139281023Y-91942548D02*
X139281023Y-91310571D01*
X139223571Y-91195667D01*
X139108666Y-91138214D01*
X138878857Y-91138214D01*
X138763952Y-91195667D01*
X139281023Y-91885095D02*
X139166119Y-91942548D01*
X138878857Y-91942548D01*
X138763952Y-91885095D01*
X138706500Y-91770190D01*
X138706500Y-91655286D01*
X138763952Y-91540381D01*
X138878857Y-91482929D01*
X139166119Y-91482929D01*
X139281023Y-91425476D01*
X139855547Y-91942548D02*
X139855547Y-91138214D01*
X139855547Y-91368024D02*
X139912999Y-91253119D01*
X139970452Y-91195667D01*
X140085356Y-91138214D01*
X140200261Y-91138214D01*
X141119499Y-91138214D02*
X141119499Y-92114905D01*
X141062047Y-92229810D01*
X141004595Y-92287262D01*
X140889690Y-92344714D01*
X140717333Y-92344714D01*
X140602428Y-92287262D01*
X141119499Y-91885095D02*
X141004595Y-91942548D01*
X140774785Y-91942548D01*
X140659880Y-91885095D01*
X140602428Y-91827643D01*
X140544976Y-91712738D01*
X140544976Y-91368024D01*
X140602428Y-91253119D01*
X140659880Y-91195667D01*
X140774785Y-91138214D01*
X141004595Y-91138214D01*
X141119499Y-91195667D01*
X142153642Y-91885095D02*
X142038737Y-91942548D01*
X141808928Y-91942548D01*
X141694023Y-91885095D01*
X141636571Y-91770190D01*
X141636571Y-91310571D01*
X141694023Y-91195667D01*
X141808928Y-91138214D01*
X142038737Y-91138214D01*
X142153642Y-91195667D01*
X142211094Y-91310571D01*
X142211094Y-91425476D01*
X141636571Y-91540381D01*
D15*
X152711425Y-93894288D02*
X152869993Y-93947144D01*
X153134274Y-93947144D01*
X153239987Y-93894288D01*
X153292843Y-93841431D01*
X153345699Y-93735719D01*
X153345699Y-93630007D01*
X153292843Y-93524294D01*
X153239987Y-93471438D01*
X153134274Y-93418582D01*
X152922850Y-93365726D01*
X152817137Y-93312870D01*
X152764281Y-93260013D01*
X152711425Y-93154301D01*
X152711425Y-93048589D01*
X152764281Y-92942876D01*
X152817137Y-92890020D01*
X152922850Y-92837164D01*
X153187130Y-92837164D01*
X153345699Y-92890020D01*
X153821405Y-93947144D02*
X153821405Y-93207157D01*
X153821405Y-93312870D02*
X153874261Y-93260013D01*
X153979974Y-93207157D01*
X154138542Y-93207157D01*
X154244254Y-93260013D01*
X154297111Y-93365726D01*
X154297111Y-93947144D01*
X154297111Y-93365726D02*
X154349967Y-93260013D01*
X154455679Y-93207157D01*
X154614248Y-93207157D01*
X154719960Y-93260013D01*
X154772816Y-93365726D01*
X154772816Y-93947144D01*
X155459947Y-93947144D02*
X155354234Y-93894288D01*
X155301378Y-93841431D01*
X155248522Y-93735719D01*
X155248522Y-93418582D01*
X155301378Y-93312870D01*
X155354234Y-93260013D01*
X155459947Y-93207157D01*
X155618515Y-93207157D01*
X155724227Y-93260013D01*
X155777084Y-93312870D01*
X155829940Y-93418582D01*
X155829940Y-93735719D01*
X155777084Y-93841431D01*
X155724227Y-93894288D01*
X155618515Y-93947144D01*
X155459947Y-93947144D01*
X156464215Y-93947144D02*
X156358502Y-93894288D01*
X156305646Y-93841431D01*
X156252790Y-93735719D01*
X156252790Y-93418582D01*
X156305646Y-93312870D01*
X156358502Y-93260013D01*
X156464215Y-93207157D01*
X156622783Y-93207157D01*
X156728495Y-93260013D01*
X156781352Y-93312870D01*
X156834208Y-93418582D01*
X156834208Y-93735719D01*
X156781352Y-93841431D01*
X156728495Y-93894288D01*
X156622783Y-93947144D01*
X156464215Y-93947144D01*
X157151345Y-93207157D02*
X157574195Y-93207157D01*
X157309914Y-92837164D02*
X157309914Y-93788575D01*
X157362770Y-93894288D01*
X157468483Y-93947144D01*
X157574195Y-93947144D01*
X157944188Y-93947144D02*
X157944188Y-92837164D01*
X158419894Y-93947144D02*
X158419894Y-93365726D01*
X158367037Y-93260013D01*
X158261325Y-93207157D01*
X158102757Y-93207157D01*
X157997044Y-93260013D01*
X157944188Y-93312870D01*
X158948456Y-93947144D02*
X158948456Y-93207157D01*
X158948456Y-92837164D02*
X158895600Y-92890020D01*
X158948456Y-92942876D01*
X159001312Y-92890020D01*
X158948456Y-92837164D01*
X158948456Y-92942876D01*
X159899867Y-93894288D02*
X159794155Y-93947144D01*
X159582730Y-93947144D01*
X159477018Y-93894288D01*
X159424162Y-93788575D01*
X159424162Y-93365726D01*
X159477018Y-93260013D01*
X159582730Y-93207157D01*
X159794155Y-93207157D01*
X159899867Y-93260013D01*
X159952724Y-93365726D01*
X159952724Y-93471438D01*
X159424162Y-93577150D01*
D14*
X136787262Y-93942548D02*
X136787262Y-92736048D01*
X137189429Y-93597833D01*
X137591595Y-92736048D01*
X137591595Y-93942548D01*
X138395928Y-92736048D02*
X138625738Y-92736048D01*
X138740643Y-92793500D01*
X138855547Y-92908405D01*
X138913000Y-93138214D01*
X138913000Y-93540381D01*
X138855547Y-93770190D01*
X138740643Y-93885095D01*
X138625738Y-93942548D01*
X138395928Y-93942548D01*
X138281024Y-93885095D01*
X138166119Y-93770190D01*
X138108667Y-93540381D01*
X138108667Y-93138214D01*
X138166119Y-92908405D01*
X138281024Y-92793500D01*
X138395928Y-92736048D01*
X139372619Y-93885095D02*
X139544976Y-93942548D01*
X139832238Y-93942548D01*
X139947142Y-93885095D01*
X140004595Y-93827643D01*
X140062047Y-93712738D01*
X140062047Y-93597833D01*
X140004595Y-93482929D01*
X139947142Y-93425476D01*
X139832238Y-93368024D01*
X139602428Y-93310571D01*
X139487523Y-93253119D01*
X139430071Y-93195667D01*
X139372619Y-93080762D01*
X139372619Y-92965857D01*
X139430071Y-92850952D01*
X139487523Y-92793500D01*
X139602428Y-92736048D01*
X139889690Y-92736048D01*
X140062047Y-92793500D01*
X140981286Y-93310571D02*
X140579119Y-93310571D01*
X140579119Y-93942548D02*
X140579119Y-92736048D01*
X141153643Y-92736048D01*
X141613262Y-93310571D02*
X142015429Y-93310571D01*
X142187786Y-93942548D02*
X141613262Y-93942548D01*
X141613262Y-92736048D01*
X142187786Y-92736048D01*
X142532500Y-92736048D02*
X143221928Y-92736048D01*
X142877214Y-93942548D02*
X142877214Y-92736048D01*
D15*
X152764281Y-94865726D02*
X153134274Y-94865726D01*
X153292843Y-95447144D02*
X152764281Y-95447144D01*
X152764281Y-94337164D01*
X153292843Y-94337164D01*
X153662837Y-95447144D02*
X154244255Y-94707157D01*
X153662837Y-94707157D02*
X154244255Y-95447144D01*
X154667104Y-94707157D02*
X154667104Y-95817137D01*
X154667104Y-94760013D02*
X154772816Y-94707157D01*
X154984241Y-94707157D01*
X155089953Y-94760013D01*
X155142810Y-94812870D01*
X155195666Y-94918582D01*
X155195666Y-95235719D01*
X155142810Y-95341431D01*
X155089953Y-95394288D01*
X154984241Y-95447144D01*
X154772816Y-95447144D01*
X154667104Y-95394288D01*
X156147078Y-95447144D02*
X156147078Y-94865726D01*
X156094221Y-94760013D01*
X155988509Y-94707157D01*
X155777084Y-94707157D01*
X155671372Y-94760013D01*
X156147078Y-95394288D02*
X156041365Y-95447144D01*
X155777084Y-95447144D01*
X155671372Y-95394288D01*
X155618516Y-95288575D01*
X155618516Y-95182863D01*
X155671372Y-95077150D01*
X155777084Y-95024294D01*
X156041365Y-95024294D01*
X156147078Y-94971438D01*
X156675640Y-94707157D02*
X156675640Y-95447144D01*
X156675640Y-94812870D02*
X156728496Y-94760013D01*
X156834209Y-94707157D01*
X156992777Y-94707157D01*
X157098489Y-94760013D01*
X157151346Y-94865726D01*
X157151346Y-95447144D01*
X157627052Y-95394288D02*
X157732764Y-95447144D01*
X157944189Y-95447144D01*
X158049901Y-95394288D01*
X158102757Y-95288575D01*
X158102757Y-95235719D01*
X158049901Y-95130007D01*
X157944189Y-95077150D01*
X157785620Y-95077150D01*
X157679908Y-95024294D01*
X157627052Y-94918582D01*
X157627052Y-94865726D01*
X157679908Y-94760013D01*
X157785620Y-94707157D01*
X157944189Y-94707157D01*
X158049901Y-94760013D01*
X158578463Y-95447144D02*
X158578463Y-94707157D01*
X158578463Y-94337164D02*
X158525607Y-94390020D01*
X158578463Y-94442876D01*
X158631319Y-94390020D01*
X158578463Y-94337164D01*
X158578463Y-94442876D01*
X159265594Y-95447144D02*
X159159881Y-95394288D01*
X159107025Y-95341431D01*
X159054169Y-95235719D01*
X159054169Y-94918582D01*
X159107025Y-94812870D01*
X159159881Y-94760013D01*
X159265594Y-94707157D01*
X159424162Y-94707157D01*
X159529874Y-94760013D01*
X159582731Y-94812870D01*
X159635587Y-94918582D01*
X159635587Y-95235719D01*
X159582731Y-95341431D01*
X159529874Y-95394288D01*
X159424162Y-95447144D01*
X159265594Y-95447144D01*
X160111293Y-94707157D02*
X160111293Y-95447144D01*
X160111293Y-94812870D02*
X160164149Y-94760013D01*
X160269862Y-94707157D01*
X160428430Y-94707157D01*
X160534142Y-94760013D01*
X160586999Y-94865726D01*
X160586999Y-95447144D01*
D13*
X137286933Y-100169567D02*
X136321733Y-100169567D01*
X136804333Y-100169567D02*
X136804333Y-98480467D01*
X136643467Y-98721767D01*
X136482600Y-98882633D01*
X136321733Y-98963067D01*
X137930400Y-98641333D02*
X138010834Y-98560900D01*
X138171700Y-98480467D01*
X138573867Y-98480467D01*
X138734734Y-98560900D01*
X138815167Y-98641333D01*
X138895600Y-98802200D01*
X138895600Y-98963067D01*
X138815167Y-99204367D01*
X137849967Y-100169567D01*
X138895600Y-100169567D01*
X139539067Y-99686967D02*
X140343401Y-99686967D01*
X139378201Y-100169567D02*
X139941234Y-98480467D01*
X140504267Y-100169567D01*
D16*
X159750000Y-100500000D02*
X159500000Y-100500000D01*
X160250000Y-100500000D02*
X160500000Y-100500000D01*
X160250000Y-100500000D02*
X159750000Y-100850000D01*
X159750000Y-100850000D02*
X159750000Y-100150000D01*
X159750000Y-100150000D02*
X160250000Y-100500000D01*
X160250000Y-100850000D02*
X160250000Y-100150000D01*
X161300000Y-99700000D02*
X158900000Y-99700000D01*
X161300000Y-101300000D02*
X158900000Y-101300000D01*
X151810000Y-95040000D02*
X144190000Y-95040000D01*
X151810000Y-94405000D02*
X151810000Y-95675000D01*
X144190000Y-90595000D02*
X144190000Y-89325000D01*
X144190000Y-89325000D02*
X151810000Y-89325000D01*
X151810000Y-89325000D02*
X151810000Y-90595000D01*
X151810000Y-95675000D02*
X144190000Y-95675000D01*
X144190000Y-95675000D02*
X144190000Y-94405000D01*
X153950000Y-98400000D02*
X153950000Y-100300000D01*
X155050000Y-98400000D02*
X155050000Y-100300000D01*
X154500000Y-99300000D02*
X154500000Y-99750000D01*
X154750000Y-99250000D02*
X154250000Y-99250000D01*
X154500000Y-99250000D02*
X154750000Y-99500000D01*
X154750000Y-99500000D02*
X154250000Y-99500000D01*
X154250000Y-99500000D02*
X154500000Y-99250000D01*
X151175000Y-99000000D02*
X151175000Y-100000000D01*
X149825000Y-100000000D02*
X149825000Y-99000000D01*
X149175000Y-99000000D02*
X149175000Y-100000000D01*
X147825000Y-100000000D02*
X147825000Y-99000000D01*
X151825000Y-100000000D02*
X151825000Y-99000000D01*
X153175000Y-99000000D02*
X153175000Y-100000000D01*
D17*
X166350000Y-113600000D02*
X166350000Y-102400000D01*
X166350000Y-102400000D02*
X157250000Y-102400000D01*
X157250000Y-102400000D02*
X156150000Y-102400000D01*
X156150000Y-102400000D02*
X156150000Y-104300000D01*
X156150000Y-104300000D02*
X156150000Y-111600000D01*
X156150000Y-111600000D02*
X156150000Y-113600000D01*
X156150000Y-113600000D02*
X157250000Y-113600000D01*
X157250000Y-113600000D02*
X166350000Y-113600000D01*
X157250000Y-113600000D02*
X157250000Y-111600000D01*
X157250000Y-111600000D02*
X156150000Y-111600000D01*
X156150000Y-104300000D02*
X157250000Y-104300000D01*
X157250000Y-104300000D02*
X157250000Y-102400000D01*
X130650000Y-102400000D02*
X130650000Y-113600000D01*
X130650000Y-113600000D02*
X139750000Y-113600000D01*
X139750000Y-113600000D02*
X140850000Y-113600000D01*
X140850000Y-113600000D02*
X140850000Y-111700000D01*
X140850000Y-111700000D02*
X140850000Y-104400000D01*
X140850000Y-104400000D02*
X140850000Y-102400000D01*
X140850000Y-102400000D02*
X139750000Y-102400000D01*
X139750000Y-102400000D02*
X130650000Y-102400000D01*
X139750000Y-102400000D02*
X139750000Y-104400000D01*
X139750000Y-104400000D02*
X140850000Y-104400000D01*
X140850000Y-111700000D02*
X139750000Y-111700000D01*
X139750000Y-111700000D02*
X139750000Y-113600000D01*
D18*
X153430800Y-108460600D02*
X143169200Y-108460600D01*
X153430800Y-108460600D02*
X153430800Y-110238600D01*
X143169200Y-108460600D02*
X143169200Y-110238600D01*
D10*
G36*
X151551200Y-105819000D02*
X150128800Y-105819000D01*
X150128800Y-108308200D01*
X151551200Y-108308200D01*
X151551200Y-105819000D01*
G37*
G36*
X146471200Y-105819000D02*
X145048800Y-105819000D01*
X145048800Y-108308200D01*
X146471200Y-108308200D01*
X146471200Y-105819000D01*
G37*
G36*
X149011200Y-105819000D02*
X147588800Y-105819000D01*
X147588800Y-108308200D01*
X149011200Y-108308200D01*
X149011200Y-105819000D01*
G37*
D19*
X153035714Y-91178571D02*
X153035714Y-89678571D01*
X153750000Y-90178571D02*
X153750000Y-91178571D01*
X153750000Y-90321429D02*
X153821428Y-90250000D01*
X153964286Y-90178571D01*
X154178571Y-90178571D01*
X154321428Y-90250000D01*
X154392857Y-90392857D01*
X154392857Y-91178571D01*
X155107143Y-90178571D02*
X155107143Y-91678571D01*
X155107143Y-90250000D02*
X155250000Y-90178571D01*
X155535714Y-90178571D01*
X155678571Y-90250000D01*
X155750000Y-90321429D01*
X155821429Y-90464286D01*
X155821429Y-90892857D01*
X155750000Y-91035714D01*
X155678571Y-91107143D01*
X155535714Y-91178571D01*
X155250000Y-91178571D01*
X155107143Y-91107143D01*
X157107143Y-90178571D02*
X157107143Y-91178571D01*
X156464286Y-90178571D02*
X156464286Y-90964286D01*
X156535714Y-91107143D01*
X156678572Y-91178571D01*
X156892857Y-91178571D01*
X157035714Y-91107143D01*
X157107143Y-91035714D01*
X157607143Y-90178571D02*
X158178572Y-90178571D01*
X157821429Y-89678571D02*
X157821429Y-90964286D01*
X157892857Y-91107143D01*
X158035715Y-91178571D01*
X158178572Y-91178571D01*
D16*
X164165429Y-109270000D02*
X165254000Y-109270000D01*
X165471714Y-109342572D01*
X165616857Y-109487715D01*
X165689429Y-109705429D01*
X165689429Y-109850572D01*
X165689429Y-108544286D02*
X164165429Y-108544286D01*
X164165429Y-107963714D01*
X164238000Y-107818572D01*
X164310571Y-107746000D01*
X164455714Y-107673429D01*
X164673429Y-107673429D01*
X164818571Y-107746000D01*
X164891143Y-107818572D01*
X164963714Y-107963714D01*
X164963714Y-108544286D01*
X164165429Y-107165429D02*
X164165429Y-106222000D01*
X164746000Y-106730000D01*
X164746000Y-106512286D01*
X164818571Y-106367143D01*
X164891143Y-106294572D01*
X165036286Y-106222000D01*
X165399143Y-106222000D01*
X165544286Y-106294572D01*
X165616857Y-106367143D01*
X165689429Y-106512286D01*
X165689429Y-106947714D01*
X165616857Y-107092857D01*
X165544286Y-107165429D01*
X163404762Y-101000000D02*
X163404762Y-100619048D01*
X163500000Y-100428572D01*
X163690476Y-100238095D01*
X164071429Y-100142857D01*
X164738095Y-100142857D01*
X165119048Y-100238095D01*
X165309524Y-100428572D01*
X165404762Y-100619048D01*
X165404762Y-101000000D01*
X165309524Y-101190476D01*
X165119048Y-101380953D01*
X164738095Y-101476191D01*
X164071429Y-101476191D01*
X163690476Y-101380953D01*
X163500000Y-101190476D01*
X163404762Y-101000000D01*
X163404762Y-99285715D02*
X165023810Y-99285715D01*
X165214286Y-99190476D01*
X165309524Y-99095238D01*
X165404762Y-98904762D01*
X165404762Y-98523810D01*
X165309524Y-98333334D01*
X165214286Y-98238095D01*
X165023810Y-98142857D01*
X163404762Y-98142857D01*
X163404762Y-97476191D02*
X163404762Y-96333334D01*
X165404762Y-96904762D02*
X163404762Y-96904762D01*
X131165429Y-109770000D02*
X132254000Y-109770000D01*
X132471714Y-109842572D01*
X132616857Y-109987715D01*
X132689429Y-110205429D01*
X132689429Y-110350572D01*
X132689429Y-109044286D02*
X131165429Y-109044286D01*
X131165429Y-108463714D01*
X131238000Y-108318572D01*
X131310571Y-108246000D01*
X131455714Y-108173429D01*
X131673429Y-108173429D01*
X131818571Y-108246000D01*
X131891143Y-108318572D01*
X131963714Y-108463714D01*
X131963714Y-109044286D01*
X131310571Y-107592857D02*
X131238000Y-107520286D01*
X131165429Y-107375143D01*
X131165429Y-107012286D01*
X131238000Y-106867143D01*
X131310571Y-106794572D01*
X131455714Y-106722000D01*
X131600857Y-106722000D01*
X131818571Y-106794572D01*
X132689429Y-107665429D01*
X132689429Y-106722000D01*
X131226286Y-97689429D02*
X131226286Y-96165429D01*
X131806858Y-96165429D01*
X131952000Y-96238000D01*
X132024572Y-96310571D01*
X132097143Y-96455714D01*
X132097143Y-96673429D01*
X132024572Y-96818571D01*
X131952000Y-96891143D01*
X131806858Y-96963714D01*
X131226286Y-96963714D01*
X132605143Y-96165429D02*
X132968000Y-97689429D01*
X133258286Y-96600857D01*
X133548572Y-97689429D01*
X133911429Y-96165429D01*
X135362857Y-97689429D02*
X134854857Y-96963714D01*
X134492000Y-97689429D02*
X134492000Y-96165429D01*
X135072572Y-96165429D01*
X135217714Y-96238000D01*
X135290286Y-96310571D01*
X135362857Y-96455714D01*
X135362857Y-96673429D01*
X135290286Y-96818571D01*
X135217714Y-96891143D01*
X135072572Y-96963714D01*
X134492000Y-96963714D01*
X135653143Y-97834571D02*
X136814286Y-97834571D01*
X137177143Y-97689429D02*
X137177143Y-96165429D01*
X137902857Y-97689429D02*
X137902857Y-96165429D01*
X138773714Y-97689429D01*
X138773714Y-96165429D01*
D20*
X155678595Y-119263952D02*
X155563690Y-119206500D01*
X155448786Y-119091595D01*
X155276429Y-118919238D01*
X155161524Y-118861786D01*
X155046619Y-118861786D01*
X155104071Y-119149048D02*
X154989167Y-119091595D01*
X154874262Y-118976690D01*
X154816810Y-118746881D01*
X154816810Y-118344714D01*
X154874262Y-118114905D01*
X154989167Y-118000000D01*
X155104071Y-117942548D01*
X155333881Y-117942548D01*
X155448786Y-118000000D01*
X155563690Y-118114905D01*
X155621143Y-118344714D01*
X155621143Y-118746881D01*
X155563690Y-118976690D01*
X155448786Y-119091595D01*
X155333881Y-119149048D01*
X155104071Y-119149048D01*
X156770190Y-119149048D02*
X156080762Y-119149048D01*
X156425476Y-119149048D02*
X156425476Y-117942548D01*
X156310571Y-118114905D01*
X156195666Y-118229810D01*
X156080762Y-118287262D01*
X144950429Y-110149048D02*
X144950429Y-108942548D01*
X145352596Y-109804333D01*
X145754762Y-108942548D01*
X145754762Y-110149048D01*
X146559095Y-108942548D02*
X146788905Y-108942548D01*
X146903810Y-109000000D01*
X147018714Y-109114905D01*
X147076167Y-109344714D01*
X147076167Y-109746881D01*
X147018714Y-109976690D01*
X146903810Y-110091595D01*
X146788905Y-110149048D01*
X146559095Y-110149048D01*
X146444191Y-110091595D01*
X146329286Y-109976690D01*
X146271834Y-109746881D01*
X146271834Y-109344714D01*
X146329286Y-109114905D01*
X146444191Y-109000000D01*
X146559095Y-108942548D01*
X147535786Y-110091595D02*
X147708143Y-110149048D01*
X147995405Y-110149048D01*
X148110309Y-110091595D01*
X148167762Y-110034143D01*
X148225214Y-109919238D01*
X148225214Y-109804333D01*
X148167762Y-109689429D01*
X148110309Y-109631976D01*
X147995405Y-109574524D01*
X147765595Y-109517071D01*
X147650690Y-109459619D01*
X147593238Y-109402167D01*
X147535786Y-109287262D01*
X147535786Y-109172357D01*
X147593238Y-109057452D01*
X147650690Y-109000000D01*
X147765595Y-108942548D01*
X148052857Y-108942548D01*
X148225214Y-109000000D01*
X149144453Y-109517071D02*
X148742286Y-109517071D01*
X148742286Y-110149048D02*
X148742286Y-108942548D01*
X149316810Y-108942548D01*
X149776429Y-109517071D02*
X150178596Y-109517071D01*
X150350953Y-110149048D02*
X149776429Y-110149048D01*
X149776429Y-108942548D01*
X150350953Y-108942548D01*
X150695667Y-108942548D02*
X151385095Y-108942548D01*
X151040381Y-110149048D02*
X151040381Y-108942548D01*
M02*
