%
M48
M72
T01C0.0197
T02C0.0400
T03C0.0591
T04C0.1260
%
T01
X4852Y11355
X5246Y11355
X5640Y11355
X5640Y11748
X5246Y11748
X4852Y11748
X4852Y12142
X5246Y12142
X5640Y12142
X6052Y12142
X6052Y11748
X6446Y11748
X6840Y11748
X6840Y12142
X6446Y12142
X6446Y11355
X6840Y11355
X6052Y11355
X5640Y12555
X5640Y12948
X5246Y12948
X5246Y12555
X4852Y12555
X4852Y12948
X4852Y13342
X5246Y13342
X5640Y13342
T02
X4333Y14938
X3333Y15038
X5333Y15038
T03
X2265Y9549
X2265Y7581
X12365Y7599
X12365Y9568
T04
X1396Y4830
X1396Y14673
X13207Y14673
X13207Y4830
M30
