G75*
G70*
%OFA0B0*%
%FSLAX24Y24*%
%IPPOS*%
%LPD*%
%AMOC8*
5,1,8,0,0,1.08239X$1,22.5*
%
%ADD10R,0.0493X0.0454*%
%ADD11R,0.0375X0.0375*%
%ADD12R,0.0454X0.0493*%
%ADD13C,0.0800*%
%ADD14R,0.0308X0.0387*%
%ADD15R,0.0880X0.1560*%
%ADD16R,0.4560X0.3560*%
%ADD17C,0.0946*%
%ADD18C,0.2310*%
%ADD19C,0.0397*%
D10*
X006436Y012803D03*
X006436Y013472D03*
X007420Y013472D03*
X007420Y012803D03*
D11*
X008455Y013409D03*
X009046Y013409D03*
D12*
X009050Y012547D03*
X008381Y012547D03*
D13*
X005333Y015038D03*
X004333Y014938D03*
X003333Y015038D03*
D14*
X012305Y011492D03*
X013210Y011492D03*
D15*
X008215Y010281D03*
X006215Y010281D03*
D16*
X007215Y005781D03*
D17*
X002708Y007581D02*
X001822Y007581D01*
X001822Y009549D02*
X002708Y009549D01*
X011922Y009568D02*
X012808Y009568D01*
X012808Y007599D02*
X011922Y007599D01*
D18*
X001396Y004830D03*
X001396Y014673D03*
X013207Y014673D03*
X013207Y004830D03*
D19*
X006840Y011355D03*
X006446Y011355D03*
X006052Y011355D03*
X006052Y011748D03*
X006446Y011748D03*
X006840Y011748D03*
X006840Y012142D03*
X006446Y012142D03*
X006052Y012142D03*
X005640Y012142D03*
X005640Y011748D03*
X005246Y011748D03*
X004852Y011748D03*
X004852Y012142D03*
X005246Y012142D03*
X005246Y012555D03*
X005246Y012948D03*
X005640Y012948D03*
X005640Y012555D03*
X005640Y013342D03*
X005246Y013342D03*
X004852Y013342D03*
X004852Y012948D03*
X004852Y012555D03*
X004852Y011355D03*
X005246Y011355D03*
X005640Y011355D03*
M02*
