G75*
G70*
%OFA0B0*%
%FSLAX24Y24*%
%IPPOS*%
%LPD*%
%AMOC8*
5,1,8,0,0,1.08239X$1,22.5*
%
%ADD10C,0.0030*%
D10*
X005216Y008881D02*
X005277Y008881D01*
X005216Y008881D02*
X005154Y008942D01*
X005154Y009251D01*
X005401Y009251D02*
X005401Y009066D01*
X005339Y009004D01*
X005154Y009004D01*
X005523Y009004D02*
X005708Y009127D01*
X005523Y009251D01*
X005708Y009374D02*
X005708Y009004D01*
X005829Y009066D02*
X005891Y009127D01*
X006014Y009127D01*
X006076Y009189D01*
X006014Y009251D01*
X005829Y009251D01*
X005829Y009066D02*
X005891Y009004D01*
X006076Y009004D01*
X006321Y009004D02*
X006197Y009251D01*
X006444Y009251D02*
X006321Y009004D01*
X006566Y009066D02*
X006566Y009189D01*
X006628Y009251D01*
X006751Y009251D01*
X006813Y009189D01*
X006813Y009066D01*
X006751Y009004D01*
X006628Y009004D01*
X006566Y009066D01*
X006628Y009431D02*
X006566Y009492D01*
X006566Y009801D01*
X006813Y009801D02*
X006813Y009616D01*
X006751Y009554D01*
X006566Y009554D01*
X006628Y009431D02*
X006689Y009431D01*
X006934Y009374D02*
X006934Y009004D01*
X007119Y009004D01*
X007181Y009066D01*
X007181Y009189D01*
X007119Y009251D01*
X006934Y009251D01*
X006996Y009554D02*
X006934Y009616D01*
X006934Y009739D01*
X006996Y009801D01*
X007181Y009801D01*
X007181Y009924D02*
X007181Y009554D01*
X006996Y009554D01*
X007302Y009189D02*
X007364Y009251D01*
X007488Y009251D01*
X007549Y009189D01*
X007549Y009066D01*
X007488Y009004D01*
X007364Y009004D01*
X007302Y009066D01*
X007302Y009189D01*
X007671Y009004D02*
X007795Y009004D01*
X007733Y009004D02*
X007733Y009374D01*
X007795Y009374D01*
X007856Y009554D02*
X007671Y009554D01*
X007671Y009924D01*
X007671Y009801D02*
X007856Y009801D01*
X007918Y009739D01*
X007918Y009616D01*
X007856Y009554D01*
X008039Y009677D02*
X008286Y009677D01*
X008286Y009616D02*
X008286Y009739D01*
X008224Y009801D01*
X008101Y009801D01*
X008039Y009739D01*
X008039Y009677D01*
X008101Y009554D02*
X008224Y009554D01*
X008286Y009616D01*
X008407Y009554D02*
X008407Y009739D01*
X008469Y009801D01*
X008654Y009801D01*
X008654Y009554D01*
X008776Y009554D02*
X008961Y009554D01*
X009023Y009616D01*
X009023Y009739D01*
X008961Y009801D01*
X008776Y009801D01*
X008776Y009492D01*
X008837Y009431D01*
X008899Y009431D01*
X008900Y009374D02*
X008900Y009004D01*
X008900Y009127D02*
X008653Y009374D01*
X008531Y009374D02*
X008531Y009004D01*
X008653Y009004D02*
X008838Y009189D01*
X008531Y009189D02*
X008470Y009251D01*
X008346Y009251D01*
X008285Y009189D01*
X008285Y009004D01*
X008163Y009066D02*
X008101Y009004D01*
X007978Y009004D01*
X007916Y009066D01*
X007916Y009189D01*
X007978Y009251D01*
X008101Y009251D01*
X008163Y009189D01*
X008163Y009066D01*
X009145Y009554D02*
X009268Y009554D01*
X009206Y009554D02*
X009206Y009801D01*
X009268Y009801D01*
X009390Y009801D02*
X009575Y009801D01*
X009636Y009739D01*
X009575Y009677D01*
X009451Y009677D01*
X009390Y009616D01*
X009451Y009554D01*
X009636Y009554D01*
X009758Y009677D02*
X010005Y009677D01*
X010005Y009616D02*
X010005Y009739D01*
X009943Y009801D01*
X009820Y009801D01*
X009758Y009739D01*
X009758Y009677D01*
X009820Y009554D02*
X009943Y009554D01*
X010005Y009616D01*
X010126Y009616D02*
X010126Y009863D01*
X010188Y009924D01*
X010373Y009924D01*
X010373Y009554D01*
X010188Y009554D01*
X010126Y009616D01*
X010188Y009374D02*
X010126Y009313D01*
X010126Y009189D01*
X010188Y009127D01*
X010373Y009127D01*
X010373Y009004D02*
X010373Y009374D01*
X010188Y009374D01*
X010250Y009127D02*
X010126Y009004D01*
X010005Y009066D02*
X009943Y009127D01*
X009758Y009127D01*
X009758Y009189D02*
X009758Y009004D01*
X009943Y009004D01*
X010005Y009066D01*
X009943Y009251D02*
X009820Y009251D01*
X009758Y009189D01*
X009636Y009251D02*
X009636Y009066D01*
X009575Y009004D01*
X009390Y009004D01*
X009390Y008942D02*
X009451Y008881D01*
X009513Y008881D01*
X009390Y008942D02*
X009390Y009251D01*
X009206Y009924D02*
X009206Y009986D01*
M02*
