G75*
G70*
%OFA0B0*%
%FSLAX24Y24*%
%IPPOS*%
%LPD*%
%AMOC8*
5,1,8,0,0,1.08239X$1,22.5*
%
%ADD10C,0.0740*%
%ADD11C,0.0886*%
%ADD12C,0.2250*%
%ADD13C,0.0100*%
%ADD14C,0.0337*%
%ADD15C,0.1500*%
D10*
X004333Y014938D03*
X003333Y015038D03*
X005333Y015038D03*
D11*
X002708Y009549D02*
X001822Y009549D01*
X001822Y007581D02*
X002708Y007581D01*
X011922Y007599D02*
X012808Y007599D01*
X012808Y009568D02*
X011922Y009568D01*
D12*
X013207Y004830D03*
X013207Y014673D03*
X001396Y014673D03*
X001396Y004830D03*
D13*
X000425Y003859D02*
X000425Y008114D01*
X011513Y008114D01*
X011369Y007969D01*
X011269Y007729D01*
X011269Y007469D01*
X011369Y007229D01*
X011552Y007046D01*
X011792Y006946D01*
X012938Y006946D01*
X013178Y007046D01*
X013362Y007229D01*
X013461Y007469D01*
X013461Y007729D01*
X013362Y007969D01*
X013217Y008114D01*
X014178Y008114D01*
X014178Y003859D01*
X000425Y003859D01*
X000425Y003945D02*
X014178Y003945D01*
X014178Y004043D02*
X000425Y004043D01*
X000425Y004142D02*
X014178Y004142D01*
X014178Y004240D02*
X000425Y004240D01*
X000425Y004339D02*
X014178Y004339D01*
X014178Y004437D02*
X000425Y004437D01*
X000425Y004536D02*
X014178Y004536D01*
X014178Y004634D02*
X000425Y004634D01*
X000425Y004733D02*
X014178Y004733D01*
X014178Y004831D02*
X000425Y004831D01*
X000425Y004930D02*
X014178Y004930D01*
X014178Y005028D02*
X000425Y005028D01*
X000425Y005127D02*
X014178Y005127D01*
X014178Y005225D02*
X000425Y005225D01*
X000425Y005324D02*
X014178Y005324D01*
X014178Y005422D02*
X000425Y005422D01*
X000425Y005521D02*
X014178Y005521D01*
X014178Y005619D02*
X000425Y005619D01*
X000425Y005718D02*
X014178Y005718D01*
X014178Y005816D02*
X000425Y005816D01*
X000425Y005915D02*
X014178Y005915D01*
X014178Y006013D02*
X000425Y006013D01*
X000425Y006112D02*
X014178Y006112D01*
X014178Y006210D02*
X000425Y006210D01*
X000425Y006309D02*
X014178Y006309D01*
X014178Y006407D02*
X000425Y006407D01*
X000425Y006506D02*
X014178Y006506D01*
X014178Y006604D02*
X000425Y006604D01*
X000425Y006703D02*
X014178Y006703D01*
X014178Y006801D02*
X000425Y006801D01*
X000425Y006900D02*
X014178Y006900D01*
X014178Y006998D02*
X013063Y006998D01*
X013229Y007097D02*
X014178Y007097D01*
X014178Y007195D02*
X013328Y007195D01*
X013388Y007294D02*
X014178Y007294D01*
X014178Y007392D02*
X013429Y007392D01*
X013461Y007491D02*
X014178Y007491D01*
X014178Y007589D02*
X013461Y007589D01*
X013461Y007688D02*
X014178Y007688D01*
X014178Y007786D02*
X013437Y007786D01*
X013397Y007885D02*
X014178Y007885D01*
X014178Y007983D02*
X013347Y007983D01*
X013249Y008082D02*
X014178Y008082D01*
X014188Y008374D02*
X000415Y008374D01*
X000415Y010736D01*
X014188Y010736D01*
X014188Y008374D01*
X014188Y008377D02*
X000415Y008377D01*
X000415Y008476D02*
X014188Y008476D01*
X014188Y008574D02*
X000415Y008574D01*
X000415Y008673D02*
X014188Y008673D01*
X014188Y008771D02*
X000415Y008771D01*
X000415Y008870D02*
X014188Y008870D01*
X014188Y008968D02*
X000415Y008968D01*
X000415Y009067D02*
X014188Y009067D01*
X014188Y009165D02*
X000415Y009165D01*
X000415Y009264D02*
X014188Y009264D01*
X014188Y009362D02*
X000415Y009362D01*
X000415Y009461D02*
X014188Y009461D01*
X014188Y009559D02*
X000415Y009559D01*
X000415Y009658D02*
X014188Y009658D01*
X014188Y009756D02*
X000415Y009756D01*
X000415Y009855D02*
X014188Y009855D01*
X014188Y009953D02*
X000415Y009953D01*
X000415Y010052D02*
X014188Y010052D01*
X014188Y010150D02*
X000415Y010150D01*
X000415Y010249D02*
X014188Y010249D01*
X014188Y010347D02*
X000415Y010347D01*
X000415Y010446D02*
X014188Y010446D01*
X014188Y010544D02*
X000415Y010544D01*
X000415Y010643D02*
X014188Y010643D01*
X014178Y010996D02*
X000425Y010996D01*
X000425Y015644D01*
X014178Y015644D01*
X014178Y010996D01*
X014178Y011037D02*
X000425Y011037D01*
X000425Y011135D02*
X014178Y011135D01*
X014178Y011234D02*
X000425Y011234D01*
X000425Y011332D02*
X014178Y011332D01*
X014178Y011431D02*
X000425Y011431D01*
X000425Y011529D02*
X014178Y011529D01*
X014178Y011628D02*
X000425Y011628D01*
X000425Y011726D02*
X014178Y011726D01*
X014178Y011825D02*
X000425Y011825D01*
X000425Y011923D02*
X014178Y011923D01*
X014178Y012022D02*
X000425Y012022D01*
X000425Y012120D02*
X014178Y012120D01*
X014178Y012219D02*
X000425Y012219D01*
X000425Y012317D02*
X014178Y012317D01*
X014178Y012416D02*
X000425Y012416D01*
X000425Y012514D02*
X014178Y012514D01*
X014178Y012613D02*
X000425Y012613D01*
X000425Y012711D02*
X014178Y012711D01*
X014178Y012810D02*
X000425Y012810D01*
X000425Y012908D02*
X014178Y012908D01*
X014178Y013007D02*
X000425Y013007D01*
X000425Y013105D02*
X014178Y013105D01*
X014178Y013204D02*
X000425Y013204D01*
X000425Y013302D02*
X014178Y013302D01*
X014178Y013401D02*
X000425Y013401D01*
X000425Y013499D02*
X014178Y013499D01*
X014178Y013598D02*
X000425Y013598D01*
X000425Y013696D02*
X014178Y013696D01*
X014178Y013795D02*
X000425Y013795D01*
X000425Y013893D02*
X014178Y013893D01*
X014178Y013992D02*
X000425Y013992D01*
X000425Y014090D02*
X014178Y014090D01*
X014178Y014189D02*
X000425Y014189D01*
X000425Y014287D02*
X014178Y014287D01*
X014178Y014386D02*
X004516Y014386D01*
X004449Y014358D02*
X004662Y014446D01*
X004825Y014609D01*
X004859Y014692D01*
X005005Y014546D01*
X005218Y014458D01*
X005449Y014458D01*
X005662Y014546D01*
X005825Y014709D01*
X005913Y014922D01*
X005913Y015153D01*
X005825Y015366D01*
X005662Y015529D01*
X005449Y015618D01*
X005218Y015618D01*
X005005Y015529D01*
X004842Y015366D01*
X004807Y015284D01*
X004662Y015429D01*
X004449Y015518D01*
X004218Y015518D01*
X004005Y015429D01*
X003842Y015266D01*
X003753Y015053D01*
X003753Y014822D01*
X003842Y014609D01*
X004005Y014446D01*
X004218Y014358D01*
X004449Y014358D01*
X004700Y014484D02*
X005154Y014484D01*
X004968Y014583D02*
X004799Y014583D01*
X004855Y014681D02*
X004870Y014681D01*
X004150Y014386D02*
X000425Y014386D01*
X000425Y014484D02*
X003967Y014484D01*
X003868Y014583D02*
X000425Y014583D01*
X000425Y014681D02*
X003812Y014681D01*
X003771Y014780D02*
X000425Y014780D01*
X000425Y014878D02*
X003753Y014878D01*
X003753Y014977D02*
X000425Y014977D01*
X000425Y015075D02*
X003762Y015075D01*
X003803Y015174D02*
X000425Y015174D01*
X000425Y015272D02*
X003848Y015272D01*
X003946Y015371D02*
X000425Y015371D01*
X000425Y015469D02*
X004101Y015469D01*
X004566Y015469D02*
X004945Y015469D01*
X004846Y015371D02*
X004721Y015371D01*
X005097Y015568D02*
X000425Y015568D01*
X005570Y015568D02*
X014178Y015568D01*
X014178Y015469D02*
X005722Y015469D01*
X005821Y015371D02*
X014178Y015371D01*
X014178Y015272D02*
X005864Y015272D01*
X005905Y015174D02*
X014178Y015174D01*
X014178Y015075D02*
X005913Y015075D01*
X005913Y014977D02*
X014178Y014977D01*
X014178Y014878D02*
X005895Y014878D01*
X005854Y014780D02*
X014178Y014780D01*
X014178Y014681D02*
X005797Y014681D01*
X005699Y014583D02*
X014178Y014583D01*
X014178Y014484D02*
X005513Y014484D01*
X000425Y008082D02*
X011481Y008082D01*
X011383Y007983D02*
X000425Y007983D01*
X000425Y007885D02*
X011334Y007885D01*
X011293Y007786D02*
X000425Y007786D01*
X000425Y007688D02*
X011269Y007688D01*
X011269Y007589D02*
X000425Y007589D01*
X000425Y007491D02*
X011269Y007491D01*
X011301Y007392D02*
X000425Y007392D01*
X000425Y007294D02*
X011342Y007294D01*
X011403Y007195D02*
X000425Y007195D01*
X000425Y007097D02*
X011501Y007097D01*
X011667Y006998D02*
X000425Y006998D01*
D14*
X004852Y011355D03*
X005246Y011355D03*
X005640Y011355D03*
X005640Y011748D03*
X005246Y011748D03*
X004852Y011748D03*
X004852Y012142D03*
X005246Y012142D03*
X005640Y012142D03*
X006052Y012142D03*
X006052Y011748D03*
X006446Y011748D03*
X006840Y011748D03*
X006840Y012142D03*
X006446Y012142D03*
X006446Y011355D03*
X006840Y011355D03*
X006052Y011355D03*
X005640Y012555D03*
X005640Y012948D03*
X005246Y012948D03*
X005246Y012555D03*
X004852Y012555D03*
X004852Y012948D03*
X004852Y013342D03*
X005246Y013342D03*
X005640Y013342D03*
D15*
X002284Y009568D02*
X002265Y009549D01*
X002284Y009568D02*
X012365Y009568D01*
M02*
