G04 #@! TF.FileFunction,Copper,L1,Top,Signal*
%FSLAX46Y46*%
G04 Gerber Fmt 4.6, Leading zero omitted, Abs format (unit mm)*
G04 Created by KiCad (PCBNEW (2015-12-07 BZR 6352)-product) date Fri 09 Sep 2016 08:12:53 PM EDT*
%MOMM*%
G01*
G04 APERTURE LIST*
%ADD10C,0.100000*%
%ADD11C,0.700000*%
%ADD12R,0.800000X0.750000*%
%ADD13R,2.032000X2.032000*%
%ADD14O,2.032000X2.032000*%
%ADD15R,0.500000X0.900000*%
%ADD16R,1.500000X1.524000*%
%ADD17C,4.000000*%
%ADD18C,0.800000*%
%ADD19C,0.381000*%
G04 APERTURE END LIST*
D10*
D11*
X8890000Y58420000D03*
X10160000Y58420000D03*
X8890000Y57150000D03*
X10160000Y57150000D03*
X8890000Y55880000D03*
X10160000Y55880000D03*
X8890000Y54610000D03*
X10160000Y54610000D03*
X8890000Y53340000D03*
X10160000Y53340000D03*
D12*
X19800000Y38735000D03*
X18300000Y38735000D03*
X33540000Y52070000D03*
X35040000Y52070000D03*
X33540000Y73660000D03*
X35040000Y73660000D03*
X33540000Y19685000D03*
X35040000Y19685000D03*
X33540000Y62865000D03*
X35040000Y62865000D03*
X33540000Y8890000D03*
X35040000Y8890000D03*
X33540000Y30480000D03*
X35040000Y30480000D03*
D13*
X12954000Y76200000D03*
D14*
X15494000Y76200000D03*
D13*
X38100000Y76200000D03*
D14*
X40640000Y76200000D03*
D15*
X19800000Y71120000D03*
X18300000Y71120000D03*
X19800000Y60325000D03*
X18300000Y60325000D03*
X19800000Y49530000D03*
X18300000Y49530000D03*
X33760000Y41275000D03*
X35260000Y41275000D03*
X35040000Y71120000D03*
X33540000Y71120000D03*
X35040000Y60325000D03*
X33540000Y60325000D03*
X35040000Y49530000D03*
X33540000Y49530000D03*
X18300000Y41275000D03*
X19800000Y41275000D03*
X19800000Y27940000D03*
X18300000Y27940000D03*
X19800000Y17145000D03*
X18300000Y17145000D03*
X19800000Y6350000D03*
X18300000Y6350000D03*
X35040000Y27940000D03*
X33540000Y27940000D03*
X35040000Y17145000D03*
X33540000Y17145000D03*
X35040000Y6350000D03*
X33540000Y6350000D03*
D16*
X22090000Y76200000D03*
X22090000Y73660000D03*
X22090000Y71120000D03*
X22090000Y68580000D03*
X31250000Y68580000D03*
X31250000Y71120000D03*
X31250000Y73660000D03*
X31250000Y76200000D03*
X22090000Y65405000D03*
X22090000Y62865000D03*
X22090000Y60325000D03*
X22090000Y57785000D03*
X31250000Y57785000D03*
X31250000Y60325000D03*
X31250000Y62865000D03*
X31250000Y65405000D03*
X22090000Y54610000D03*
X22090000Y52070000D03*
X22090000Y49530000D03*
X22090000Y46990000D03*
X31250000Y46990000D03*
X31250000Y49530000D03*
X31250000Y52070000D03*
X31250000Y54610000D03*
X31250000Y36195000D03*
X31250000Y38735000D03*
X31250000Y41275000D03*
X31250000Y43815000D03*
X22090000Y43815000D03*
X22090000Y41275000D03*
X22090000Y38735000D03*
X22090000Y36195000D03*
X22090000Y33020000D03*
X22090000Y30480000D03*
X22090000Y27940000D03*
X22090000Y25400000D03*
X31250000Y25400000D03*
X31250000Y27940000D03*
X31250000Y30480000D03*
X31250000Y33020000D03*
X22090000Y22225000D03*
X22090000Y19685000D03*
X22090000Y17145000D03*
X22090000Y14605000D03*
X31250000Y14605000D03*
X31250000Y17145000D03*
X31250000Y19685000D03*
X31250000Y22225000D03*
X22090000Y11430000D03*
X22090000Y8890000D03*
X22090000Y6350000D03*
X22090000Y3810000D03*
X31250000Y3810000D03*
X31250000Y6350000D03*
X31250000Y8890000D03*
X31250000Y11430000D03*
D11*
X41910000Y58420000D03*
X43180000Y58420000D03*
X41910000Y57150000D03*
X43180000Y57150000D03*
X41910000Y55880000D03*
X43180000Y55880000D03*
X41910000Y54610000D03*
X43180000Y54610000D03*
X41910000Y53340000D03*
X43180000Y53340000D03*
D17*
X45000000Y5080000D03*
X5000000Y5080000D03*
X5000000Y75000000D03*
X45000000Y75000000D03*
D18*
X11853268Y58420000D03*
X17145000Y6350000D03*
X17145000Y17145000D03*
X17145000Y27940000D03*
X17145000Y71120000D03*
X17145000Y60325000D03*
X17145000Y49530000D03*
X20320000Y43815000D03*
X17145000Y38735000D03*
X6575229Y57429905D03*
X7143852Y62347491D03*
X4931340Y54740664D03*
X11853268Y61468000D03*
X8890000Y61468000D03*
X7977619Y59831563D03*
X11853268Y59944000D03*
X36195000Y41275000D03*
X36195000Y73660000D03*
X33020000Y68580000D03*
X36195000Y62865000D03*
X33020000Y57785000D03*
X36195000Y52070000D03*
X33020000Y46990000D03*
X36195000Y30480000D03*
X33020000Y25400000D03*
X36195000Y19685000D03*
X33020000Y14605000D03*
X36195000Y8890000D03*
X33020000Y3810000D03*
X44179398Y59919326D03*
X44844835Y57748053D03*
X44450000Y60960000D03*
X41910000Y64135000D03*
D19*
X22090000Y38735000D02*
X22090000Y38747000D01*
X22090000Y38747000D02*
X23249816Y39906816D01*
X23249816Y39906816D02*
X23249816Y42279268D01*
X23249816Y42279268D02*
X22979817Y42549267D01*
X22979817Y42549267D02*
X19273692Y42549267D01*
X19273692Y42549267D02*
X13335701Y48487258D01*
X13335701Y48487258D02*
X13335701Y56937567D01*
X13335701Y56937567D02*
X12253267Y58020001D01*
X12253267Y58020001D02*
X11853268Y58420000D01*
X10225813Y58354187D02*
X10160000Y58420000D01*
X15494000Y75293671D02*
X15494000Y76200000D01*
X10160000Y69959671D02*
X15494000Y75293671D01*
X10160000Y58420000D02*
X10160000Y69959671D01*
X19800000Y38735000D02*
X22090000Y38735000D01*
X18300000Y41275000D02*
X18300000Y40235000D01*
X18300000Y40235000D02*
X19800000Y38735000D01*
X22090000Y36195000D02*
X22090000Y38735000D01*
X18300000Y6350000D02*
X17145000Y6350000D01*
X18300000Y17145000D02*
X17145000Y17145000D01*
X18300000Y27940000D02*
X17145000Y27940000D01*
X18300000Y71120000D02*
X17145000Y71120000D01*
X18300000Y60325000D02*
X17145000Y60325000D01*
X18300000Y49530000D02*
X17145000Y49530000D01*
X22090000Y43815000D02*
X20320000Y43815000D01*
X18300000Y38735000D02*
X17145000Y38735000D01*
X22090000Y30480000D02*
X17526000Y30480000D01*
X17526000Y30480000D02*
X15640022Y32365978D01*
X15640022Y32365978D02*
X15640022Y44539592D01*
X15640022Y44539592D02*
X6663012Y53516602D01*
X6663012Y53516602D02*
X6663012Y56776437D01*
X6663012Y56776437D02*
X6575229Y56864220D01*
X6575229Y56864220D02*
X6575229Y57429905D01*
X22090000Y19685000D02*
X17145000Y19685000D01*
X5764666Y55271902D02*
X5764666Y60968305D01*
X6743853Y61947492D02*
X7143852Y62347491D01*
X17145000Y19685000D02*
X15059011Y21770989D01*
X15059011Y21770989D02*
X15059011Y44298930D01*
X6082001Y54954567D02*
X5764666Y55271902D01*
X5764666Y60968305D02*
X6743853Y61947492D01*
X15059011Y44298930D02*
X6082001Y53275940D01*
X6082001Y53275940D02*
X6082001Y54954567D01*
X5500990Y52832000D02*
X5500990Y54171014D01*
X14478000Y10668000D02*
X14478000Y43854990D01*
X14478000Y43854990D02*
X5500990Y52832000D01*
X16256000Y8890000D02*
X14478000Y10668000D01*
X22090000Y8890000D02*
X16256000Y8890000D01*
X5500990Y54171014D02*
X4931340Y54740664D01*
X22090000Y73660000D02*
X17526000Y73660000D01*
X17526000Y73660000D02*
X11034764Y67168764D01*
X11034764Y67168764D02*
X11034764Y56754764D01*
X11034764Y56754764D02*
X10509999Y56229999D01*
X10509999Y56229999D02*
X10160000Y55880000D01*
X8890000Y61468000D02*
X8890000Y59574002D01*
X8890000Y59574002D02*
X8021501Y58705503D01*
X8021501Y58705503D02*
X8021501Y55478499D01*
X8021501Y55478499D02*
X8540001Y54959999D01*
X8540001Y54959999D02*
X8890000Y54610000D01*
X22090000Y62865000D02*
X13250268Y62865000D01*
X12253267Y61867999D02*
X11853268Y61468000D01*
X13250268Y62865000D02*
X12253267Y61867999D01*
X10509999Y54260001D02*
X10160000Y54610000D01*
X12372989Y48628297D02*
X12372989Y52397011D01*
X19726286Y41275000D02*
X12372989Y48628297D01*
X19800000Y41275000D02*
X19726286Y41275000D01*
X12372989Y52397011D02*
X10509999Y54260001D01*
X19800000Y41275000D02*
X22090000Y41275000D01*
X7577620Y59431564D02*
X7977619Y59831563D01*
X7431345Y59285289D02*
X7577620Y59431564D01*
X7431345Y54798655D02*
X7431345Y59285289D01*
X8890000Y53340000D02*
X7431345Y54798655D01*
X22090000Y52070000D02*
X19727268Y52070000D01*
X12253267Y59544001D02*
X11853268Y59944000D01*
X19727268Y52070000D02*
X12253267Y59544001D01*
X41910000Y72390000D02*
X41910000Y73152000D01*
X41910000Y73152000D02*
X40640000Y74422000D01*
X40640000Y74422000D02*
X40640000Y76200000D01*
X33020000Y76200000D02*
X31250000Y76200000D01*
X34544000Y74676000D02*
X33020000Y76200000D01*
X37084000Y73996972D02*
X36404972Y74676000D01*
X36404972Y74676000D02*
X34544000Y74676000D01*
X41275000Y71755000D02*
X37973000Y71755000D01*
X37973000Y71755000D02*
X37084000Y72644000D01*
X37084000Y72644000D02*
X37084000Y73996972D01*
X41910000Y71120000D02*
X41910000Y69152576D01*
X41910000Y69152576D02*
X43180000Y67882576D01*
X43180000Y67882576D02*
X43180000Y58420000D01*
X41910000Y71755000D02*
X41910000Y71120000D01*
X41275000Y71755000D02*
X41910000Y71120000D01*
X41275000Y71755000D02*
X41910000Y71755000D01*
X41910000Y72390000D02*
X41910000Y71755000D01*
X41275000Y71755000D02*
X41910000Y72390000D01*
X31250000Y19685000D02*
X31250000Y19673000D01*
X31250000Y19673000D02*
X30109499Y18532499D01*
X30109499Y18532499D02*
X30109499Y12582501D01*
X30109499Y12582501D02*
X31250000Y11442000D01*
X31250000Y11442000D02*
X31250000Y11430000D01*
X31250000Y30480000D02*
X31250000Y30468000D01*
X31250000Y30468000D02*
X30109499Y29327499D01*
X30109499Y29327499D02*
X30109499Y23377501D01*
X30109499Y23377501D02*
X31250000Y22237000D01*
X31250000Y22237000D02*
X31250000Y22225000D01*
X31250000Y52070000D02*
X31250000Y52058000D01*
X31250000Y52058000D02*
X30109499Y50917499D01*
X30109499Y50917499D02*
X30109499Y34172501D01*
X30109499Y34172501D02*
X31250000Y33032000D01*
X31250000Y33032000D02*
X31250000Y33020000D01*
X31250000Y62865000D02*
X31250000Y62853000D01*
X31250000Y62853000D02*
X30109499Y61712499D01*
X30109499Y61712499D02*
X30109499Y55762501D01*
X30109499Y55762501D02*
X31250000Y54622000D01*
X31250000Y54622000D02*
X31250000Y54610000D01*
X31250000Y73660000D02*
X31250000Y73648000D01*
X31250000Y73648000D02*
X30109499Y72507499D01*
X30109499Y72507499D02*
X30109499Y66557501D01*
X30109499Y66557501D02*
X31250000Y65417000D01*
X31250000Y65417000D02*
X31250000Y65405000D01*
X31250000Y73660000D02*
X31250000Y76200000D01*
X31250000Y73660000D02*
X33540000Y73660000D01*
X35040000Y71120000D02*
X35040000Y72160000D01*
X35040000Y72160000D02*
X33540000Y73660000D01*
X31250000Y62865000D02*
X31250000Y65405000D01*
X31250000Y62865000D02*
X33540000Y62865000D01*
X35040000Y60325000D02*
X35040000Y61365000D01*
X35040000Y61365000D02*
X33540000Y62865000D01*
X31250000Y52070000D02*
X31250000Y54610000D01*
X31250000Y52070000D02*
X33540000Y52070000D01*
X35040000Y49530000D02*
X35040000Y50570000D01*
X35040000Y50570000D02*
X33540000Y52070000D01*
X31250000Y30480000D02*
X31250000Y33020000D01*
X31250000Y30480000D02*
X33540000Y30480000D01*
X35040000Y27940000D02*
X35040000Y28980000D01*
X35040000Y28980000D02*
X33540000Y30480000D01*
X31250000Y19685000D02*
X31250000Y22225000D01*
X35040000Y17145000D02*
X35040000Y18185000D01*
X35040000Y18185000D02*
X33540000Y19685000D01*
X31250000Y19685000D02*
X33540000Y19685000D01*
X31250000Y8890000D02*
X31250000Y11430000D01*
X35040000Y6350000D02*
X35040000Y7390000D01*
X35040000Y7390000D02*
X33540000Y8890000D01*
X31250000Y8890000D02*
X33540000Y8890000D01*
X35260000Y41275000D02*
X36195000Y41275000D01*
X35040000Y73660000D02*
X36195000Y73660000D01*
X31250000Y68580000D02*
X33020000Y68580000D01*
X35040000Y62865000D02*
X36195000Y62865000D01*
X31250000Y57785000D02*
X33020000Y57785000D01*
X35040000Y52070000D02*
X36195000Y52070000D01*
X31250000Y46990000D02*
X33020000Y46990000D01*
X35040000Y30480000D02*
X36195000Y30480000D01*
X31250000Y25400000D02*
X33020000Y25400000D01*
X35040000Y19685000D02*
X36195000Y19685000D01*
X31250000Y14605000D02*
X33020000Y14605000D01*
X35040000Y8890000D02*
X36195000Y8890000D01*
X31250000Y3810000D02*
X33020000Y3810000D01*
X33540000Y27940000D02*
X33540000Y27144877D01*
X44501512Y52731348D02*
X44501512Y56921432D01*
X43929277Y57493667D02*
X43929277Y59103520D01*
X44179398Y59353641D02*
X44179398Y59919326D01*
X33540000Y27144877D02*
X34114387Y26570490D01*
X36711830Y26570490D02*
X38100000Y27958660D01*
X34114387Y26570490D02*
X36711830Y26570490D01*
X44501512Y56921432D02*
X43929277Y57493667D01*
X38100000Y27958660D02*
X38100000Y46329836D01*
X38100000Y46329836D02*
X44501512Y52731348D01*
X43929277Y59103520D02*
X44179398Y59353641D01*
X31250000Y27940000D02*
X33540000Y27940000D01*
X38735000Y17673793D02*
X38735000Y46143163D01*
X33540000Y17145000D02*
X33540000Y16945000D01*
X45082523Y52490686D02*
X45082523Y57510365D01*
X34546459Y15938541D02*
X36999748Y15938541D01*
X38735000Y46143163D02*
X45082523Y52490686D01*
X45082523Y57510365D02*
X44844835Y57748053D01*
X36999748Y15938541D02*
X38735000Y17673793D01*
X33540000Y16945000D02*
X34546459Y15938541D01*
X31250000Y17145000D02*
X33540000Y17145000D01*
X44849999Y60560001D02*
X44450000Y60960000D01*
X34524610Y5165390D02*
X36978789Y5165390D01*
X33540000Y6150000D02*
X34524610Y5165390D01*
X45663534Y52250024D02*
X45663534Y59746466D01*
X33540000Y6350000D02*
X33540000Y6150000D01*
X39370000Y7556601D02*
X39370000Y45956490D01*
X36978789Y5165390D02*
X39370000Y7556601D01*
X45663534Y59746466D02*
X44849999Y60560001D01*
X39370000Y45956490D02*
X45663534Y52250024D01*
X31250000Y6350000D02*
X33540000Y6350000D01*
X40894000Y64135000D02*
X41910000Y64135000D01*
X33540000Y71120000D02*
X33540000Y70289000D01*
X33540000Y70289000D02*
X39694000Y64135000D01*
X39694000Y64135000D02*
X40894000Y64135000D01*
X31250000Y71120000D02*
X33540000Y71120000D01*
X33540000Y60325000D02*
X33540000Y59494000D01*
X33540000Y59494000D02*
X38424000Y54610000D01*
X38424000Y54610000D02*
X41415026Y54610000D01*
X41415026Y54610000D02*
X41910000Y54610000D01*
X31250000Y60325000D02*
X33540000Y60325000D01*
X43529999Y54260001D02*
X43180000Y54610000D01*
X43920501Y52972010D02*
X43920501Y53869499D01*
X43920501Y53869499D02*
X43529999Y54260001D01*
X37465000Y46516509D02*
X43920501Y52972010D01*
X35560000Y38735000D02*
X37465000Y40640000D01*
X31250000Y38735000D02*
X35560000Y38735000D01*
X37465000Y40640000D02*
X37465000Y46516509D01*
X41910000Y53340000D02*
X41910000Y51783182D01*
X33540000Y48646506D02*
X33540000Y49530000D01*
X41910000Y51783182D02*
X38405733Y48278915D01*
X38405733Y48278915D02*
X33907591Y48278915D01*
X33907591Y48278915D02*
X33540000Y48646506D01*
X31250000Y49530000D02*
X33540000Y49530000D01*
X19800000Y71120000D02*
X22090000Y71120000D01*
X19800000Y60325000D02*
X22090000Y60325000D01*
X19800000Y49530000D02*
X22090000Y49530000D01*
X33760000Y41275000D02*
X31250000Y41275000D01*
X22090000Y27940000D02*
X19800000Y27940000D01*
X22090000Y17145000D02*
X19800000Y17145000D01*
X22090000Y6350000D02*
X19800000Y6350000D01*
M02*
