M48
;DRILL file {KiCad (2015-12-07 BZR 6352)-product} date Fri 09 Sep 2016 08:12:55 PM EDT
;FORMAT={-:-/ absolute / metric / decimal}
FMAT,2
METRIC,TZ
T1C0.400
T2C0.500
T3C1.016
T4C3.000
%
G90
G05
M71
T1
X4.931Y54.741
X6.575Y57.43
X7.144Y62.347
X7.978Y59.832
X8.89Y61.468
X11.853Y61.468
X11.853Y59.944
X11.853Y58.42
X17.145Y71.12
X17.145Y60.325
X17.145Y49.53
X17.145Y38.735
X17.145Y27.94
X17.145Y17.145
X17.145Y6.35
X20.32Y43.815
X33.02Y68.58
X33.02Y57.785
X33.02Y46.99
X33.02Y25.4
X33.02Y14.605
X33.02Y3.81
X36.195Y73.66
X36.195Y62.865
X36.195Y52.07
X36.195Y41.275
X36.195Y30.48
X36.195Y19.685
X36.195Y8.89
X41.91Y64.135
X44.179Y59.919
X44.45Y60.96
X44.845Y57.748
T2
X8.89Y58.42
X8.89Y57.15
X8.89Y55.88
X8.89Y54.61
X8.89Y53.34
X10.16Y58.42
X10.16Y57.15
X10.16Y55.88
X10.16Y54.61
X10.16Y53.34
X41.91Y58.42
X41.91Y57.15
X41.91Y55.88
X41.91Y54.61
X41.91Y53.34
X43.18Y58.42
X43.18Y57.15
X43.18Y55.88
X43.18Y54.61
X43.18Y53.34
T3
X12.954Y76.2
X15.494Y76.2
X38.1Y76.2
X40.64Y76.2
T4
X5.Y75.
X5.Y5.08
X45.Y75.
X45.Y5.08
T0
M30
