G04 #@! TF.FileFunction,Copper,L2,Bot,Signal*
%FSLAX46Y46*%
G04 Gerber Fmt 4.6, Leading zero omitted, Abs format (unit mm)*
G04 Created by KiCad (PCBNEW (2015-12-07 BZR 6352)-product) date Fri 09 Sep 2016 08:12:53 PM EDT*
%MOMM*%
G01*
G04 APERTURE LIST*
%ADD10C,0.100000*%
%ADD11C,0.700000*%
%ADD12R,2.032000X2.032000*%
%ADD13O,2.032000X2.032000*%
%ADD14C,4.000000*%
%ADD15C,0.800000*%
%ADD16C,0.381000*%
%ADD17C,0.254000*%
G04 APERTURE END LIST*
D10*
D11*
X8890000Y58420000D03*
X10160000Y58420000D03*
X8890000Y57150000D03*
X10160000Y57150000D03*
X8890000Y55880000D03*
X10160000Y55880000D03*
X8890000Y54610000D03*
X10160000Y54610000D03*
X8890000Y53340000D03*
X10160000Y53340000D03*
D12*
X12954000Y76200000D03*
D13*
X15494000Y76200000D03*
D12*
X38100000Y76200000D03*
D13*
X40640000Y76200000D03*
D11*
X41910000Y58420000D03*
X43180000Y58420000D03*
X41910000Y57150000D03*
X43180000Y57150000D03*
X41910000Y55880000D03*
X43180000Y55880000D03*
X41910000Y54610000D03*
X43180000Y54610000D03*
X41910000Y53340000D03*
X43180000Y53340000D03*
D14*
X45000000Y5080000D03*
X5000000Y5080000D03*
X5000000Y75000000D03*
X45000000Y75000000D03*
D15*
X11853268Y58420000D03*
X17145000Y6350000D03*
X17145000Y17145000D03*
X17145000Y27940000D03*
X17145000Y71120000D03*
X17145000Y60325000D03*
X17145000Y49530000D03*
X20320000Y43815000D03*
X17145000Y38735000D03*
X6575229Y57429905D03*
X7143852Y62347491D03*
X4931340Y54740664D03*
X11853268Y61468000D03*
X8890000Y61468000D03*
X7977619Y59831563D03*
X11853268Y59944000D03*
X36195000Y41275000D03*
X36195000Y73660000D03*
X33020000Y68580000D03*
X36195000Y62865000D03*
X33020000Y57785000D03*
X36195000Y52070000D03*
X33020000Y46990000D03*
X36195000Y30480000D03*
X33020000Y25400000D03*
X36195000Y19685000D03*
X33020000Y14605000D03*
X36195000Y8890000D03*
X33020000Y3810000D03*
X44179398Y59919326D03*
X44844835Y57748053D03*
X44450000Y60960000D03*
X41910000Y64135000D03*
D16*
X10160000Y58420000D02*
X11853268Y58420000D01*
X6855134Y57150000D02*
X6575229Y57429905D01*
X8890000Y57150000D02*
X6855134Y57150000D01*
X7143852Y62347491D02*
X12190335Y62347491D01*
X12190335Y62347491D02*
X12643788Y61894038D01*
X12643788Y57812970D02*
X11980818Y57150000D01*
X12643788Y61894038D02*
X12643788Y57812970D01*
X11980818Y57150000D02*
X10160000Y57150000D01*
X6070676Y55880000D02*
X5331339Y55140663D01*
X5331339Y55140663D02*
X4931340Y54740664D01*
X8890000Y55880000D02*
X6070676Y55880000D01*
X8890000Y61468000D02*
X11853268Y61468000D01*
X8090056Y59944000D02*
X7977619Y59831563D01*
X11853268Y59944000D02*
X8090056Y59944000D01*
X43180000Y53340000D02*
X43180000Y51435000D01*
X41910000Y57150000D02*
X41169499Y57890501D01*
X42313384Y59919326D02*
X43613713Y59919326D01*
X41169499Y58775441D02*
X42313384Y59919326D01*
X41169499Y57890501D02*
X41169499Y58775441D01*
X43613713Y59919326D02*
X44179398Y59919326D01*
X44246782Y57150000D02*
X44444836Y57348054D01*
X44444836Y57348054D02*
X44844835Y57748053D01*
X43180000Y57150000D02*
X44246782Y57150000D01*
X41560001Y56229999D02*
X41910000Y55880000D01*
X40588489Y57201511D02*
X41560001Y56229999D01*
X40588489Y59016103D02*
X40588489Y57201511D01*
X42532386Y60960000D02*
X40588489Y59016103D01*
X44450000Y60960000D02*
X42532386Y60960000D01*
X41910000Y64135000D02*
X42475685Y64135000D01*
X43674974Y55880000D02*
X43180000Y55880000D01*
X45697878Y57138557D02*
X44439321Y55880000D01*
X42475685Y64135000D02*
X45697878Y60912807D01*
X44439321Y55880000D02*
X43674974Y55880000D01*
X45697878Y60912807D02*
X45697878Y57138557D01*
D17*
G36*
X22987000Y2159000D02*
X1397000Y2159000D01*
X1397000Y4558166D01*
X2364543Y4558166D01*
X2764853Y3589342D01*
X3505443Y2847458D01*
X4473567Y2445458D01*
X5521834Y2444543D01*
X6490658Y2844853D01*
X7232542Y3585443D01*
X7634542Y4553567D01*
X7635457Y5601834D01*
X7235147Y6570658D01*
X6494557Y7312542D01*
X5526433Y7714542D01*
X4478166Y7715457D01*
X3509342Y7315147D01*
X2767458Y6574557D01*
X2365458Y5606433D01*
X2364543Y4558166D01*
X1397000Y4558166D01*
X1397000Y54535693D01*
X3896161Y54535693D01*
X4053398Y54155149D01*
X4344294Y53863745D01*
X4724563Y53705844D01*
X5136311Y53705485D01*
X5516855Y53862722D01*
X5808259Y54153618D01*
X5966160Y54533887D01*
X5966225Y54608115D01*
X6412609Y55054500D01*
X8008031Y55054500D01*
X7905172Y54806788D01*
X7904830Y54414931D01*
X8054471Y54052771D01*
X8132000Y53975107D01*
X8055445Y53898686D01*
X7905172Y53536788D01*
X7904830Y53144931D01*
X8054471Y52782771D01*
X8331314Y52505445D01*
X8693212Y52355172D01*
X9085069Y52354830D01*
X9447229Y52504471D01*
X9513050Y52570178D01*
X9541418Y52541810D01*
X9658693Y52659085D01*
X9677173Y52459380D01*
X10050925Y52341643D01*
X10441282Y52375897D01*
X10642827Y52459380D01*
X10661307Y52659088D01*
X10160000Y53160395D01*
X10145858Y53146253D01*
X9966253Y53325858D01*
X9980395Y53340000D01*
X9966253Y53354143D01*
X10145858Y53533748D01*
X10160000Y53519605D01*
X10174143Y53533748D01*
X10353748Y53354143D01*
X10339605Y53340000D01*
X10840912Y52838693D01*
X11040620Y52857173D01*
X11158357Y53230925D01*
X11124103Y53621282D01*
X11040620Y53822827D01*
X10840915Y53841307D01*
X10958190Y53958582D01*
X10929950Y53986822D01*
X10994555Y54051314D01*
X11144828Y54413212D01*
X11145170Y54805069D01*
X10995529Y55167229D01*
X10918000Y55244893D01*
X10994555Y55321314D01*
X11144828Y55683212D01*
X11145170Y56075069D01*
X11042108Y56324500D01*
X11980818Y56324500D01*
X12296724Y56387337D01*
X12564535Y56566283D01*
X13227505Y57229253D01*
X13406451Y57497064D01*
X13469288Y57812970D01*
X13469288Y61894038D01*
X13406451Y62209943D01*
X13227505Y62477755D01*
X13227502Y62477757D01*
X12774052Y62931208D01*
X12506241Y63110154D01*
X12190335Y63172991D01*
X7782227Y63172991D01*
X7730898Y63224410D01*
X7350629Y63382311D01*
X6938881Y63382670D01*
X6558337Y63225433D01*
X6266933Y62934537D01*
X6109032Y62554268D01*
X6108673Y62142520D01*
X6265910Y61761976D01*
X6556806Y61470572D01*
X6937075Y61312671D01*
X7348823Y61312312D01*
X7729367Y61469549D01*
X7781901Y61521991D01*
X7855047Y61521991D01*
X7854821Y61263029D01*
X8012058Y60882485D01*
X8027996Y60866519D01*
X7772648Y60866742D01*
X7392104Y60709505D01*
X7100700Y60418609D01*
X6942799Y60038340D01*
X6942440Y59626592D01*
X7099677Y59246048D01*
X7390573Y58954644D01*
X7770842Y58796743D01*
X7979820Y58796561D01*
X7905172Y58616788D01*
X7904830Y58224931D01*
X8007892Y57975500D01*
X7469666Y57975500D01*
X7453171Y58015420D01*
X7162275Y58306824D01*
X6782006Y58464725D01*
X6370258Y58465084D01*
X5989714Y58307847D01*
X5698310Y58016951D01*
X5540409Y57636682D01*
X5540050Y57224934D01*
X5697287Y56844390D01*
X5874824Y56666543D01*
X5754771Y56642663D01*
X5486959Y56463717D01*
X5486957Y56463714D01*
X4799022Y55775780D01*
X4726369Y55775843D01*
X4345825Y55618606D01*
X4054421Y55327710D01*
X3896520Y54947441D01*
X3896161Y54535693D01*
X1397000Y54535693D01*
X1397000Y74478166D01*
X2364543Y74478166D01*
X2764853Y73509342D01*
X3505443Y72767458D01*
X4473567Y72365458D01*
X5521834Y72364543D01*
X6490658Y72764853D01*
X7232542Y73505443D01*
X7634542Y74473567D01*
X7635457Y75521834D01*
X7473314Y75914250D01*
X11303000Y75914250D01*
X11303000Y75057691D01*
X11399673Y74824302D01*
X11578301Y74645673D01*
X11811690Y74549000D01*
X12668250Y74549000D01*
X12827000Y74707750D01*
X12827000Y76073000D01*
X11461750Y76073000D01*
X11303000Y75914250D01*
X7473314Y75914250D01*
X7235147Y76490658D01*
X6494557Y77232542D01*
X6230209Y77342309D01*
X11303000Y77342309D01*
X11303000Y76485750D01*
X11461750Y76327000D01*
X12827000Y76327000D01*
X12827000Y77692250D01*
X13081000Y77692250D01*
X13081000Y76327000D01*
X13101000Y76327000D01*
X13101000Y76073000D01*
X13081000Y76073000D01*
X13081000Y74707750D01*
X13239750Y74549000D01*
X14096310Y74549000D01*
X14329699Y74645673D01*
X14508327Y74824302D01*
X14525999Y74866966D01*
X14862190Y74642330D01*
X15494000Y74516655D01*
X16125810Y74642330D01*
X16661433Y75000222D01*
X17019325Y75535845D01*
X17145000Y76167655D01*
X17145000Y76232345D01*
X17019325Y76864155D01*
X16661433Y77399778D01*
X16125810Y77757670D01*
X15494000Y77883345D01*
X14862190Y77757670D01*
X14525999Y77533034D01*
X14508327Y77575698D01*
X14329699Y77754327D01*
X14096310Y77851000D01*
X13239750Y77851000D01*
X13081000Y77692250D01*
X12827000Y77692250D01*
X12668250Y77851000D01*
X11811690Y77851000D01*
X11578301Y77754327D01*
X11399673Y77575698D01*
X11303000Y77342309D01*
X6230209Y77342309D01*
X5526433Y77634542D01*
X4478166Y77635457D01*
X3509342Y77235147D01*
X2767458Y76494557D01*
X2365458Y75526433D01*
X2364543Y74478166D01*
X1397000Y74478166D01*
X1397000Y78613000D01*
X22987000Y78613000D01*
X22987000Y2159000D01*
X22987000Y2159000D01*
G37*
X22987000Y2159000D02*
X1397000Y2159000D01*
X1397000Y4558166D01*
X2364543Y4558166D01*
X2764853Y3589342D01*
X3505443Y2847458D01*
X4473567Y2445458D01*
X5521834Y2444543D01*
X6490658Y2844853D01*
X7232542Y3585443D01*
X7634542Y4553567D01*
X7635457Y5601834D01*
X7235147Y6570658D01*
X6494557Y7312542D01*
X5526433Y7714542D01*
X4478166Y7715457D01*
X3509342Y7315147D01*
X2767458Y6574557D01*
X2365458Y5606433D01*
X2364543Y4558166D01*
X1397000Y4558166D01*
X1397000Y54535693D01*
X3896161Y54535693D01*
X4053398Y54155149D01*
X4344294Y53863745D01*
X4724563Y53705844D01*
X5136311Y53705485D01*
X5516855Y53862722D01*
X5808259Y54153618D01*
X5966160Y54533887D01*
X5966225Y54608115D01*
X6412609Y55054500D01*
X8008031Y55054500D01*
X7905172Y54806788D01*
X7904830Y54414931D01*
X8054471Y54052771D01*
X8132000Y53975107D01*
X8055445Y53898686D01*
X7905172Y53536788D01*
X7904830Y53144931D01*
X8054471Y52782771D01*
X8331314Y52505445D01*
X8693212Y52355172D01*
X9085069Y52354830D01*
X9447229Y52504471D01*
X9513050Y52570178D01*
X9541418Y52541810D01*
X9658693Y52659085D01*
X9677173Y52459380D01*
X10050925Y52341643D01*
X10441282Y52375897D01*
X10642827Y52459380D01*
X10661307Y52659088D01*
X10160000Y53160395D01*
X10145858Y53146253D01*
X9966253Y53325858D01*
X9980395Y53340000D01*
X9966253Y53354143D01*
X10145858Y53533748D01*
X10160000Y53519605D01*
X10174143Y53533748D01*
X10353748Y53354143D01*
X10339605Y53340000D01*
X10840912Y52838693D01*
X11040620Y52857173D01*
X11158357Y53230925D01*
X11124103Y53621282D01*
X11040620Y53822827D01*
X10840915Y53841307D01*
X10958190Y53958582D01*
X10929950Y53986822D01*
X10994555Y54051314D01*
X11144828Y54413212D01*
X11145170Y54805069D01*
X10995529Y55167229D01*
X10918000Y55244893D01*
X10994555Y55321314D01*
X11144828Y55683212D01*
X11145170Y56075069D01*
X11042108Y56324500D01*
X11980818Y56324500D01*
X12296724Y56387337D01*
X12564535Y56566283D01*
X13227505Y57229253D01*
X13406451Y57497064D01*
X13469288Y57812970D01*
X13469288Y61894038D01*
X13406451Y62209943D01*
X13227505Y62477755D01*
X13227502Y62477757D01*
X12774052Y62931208D01*
X12506241Y63110154D01*
X12190335Y63172991D01*
X7782227Y63172991D01*
X7730898Y63224410D01*
X7350629Y63382311D01*
X6938881Y63382670D01*
X6558337Y63225433D01*
X6266933Y62934537D01*
X6109032Y62554268D01*
X6108673Y62142520D01*
X6265910Y61761976D01*
X6556806Y61470572D01*
X6937075Y61312671D01*
X7348823Y61312312D01*
X7729367Y61469549D01*
X7781901Y61521991D01*
X7855047Y61521991D01*
X7854821Y61263029D01*
X8012058Y60882485D01*
X8027996Y60866519D01*
X7772648Y60866742D01*
X7392104Y60709505D01*
X7100700Y60418609D01*
X6942799Y60038340D01*
X6942440Y59626592D01*
X7099677Y59246048D01*
X7390573Y58954644D01*
X7770842Y58796743D01*
X7979820Y58796561D01*
X7905172Y58616788D01*
X7904830Y58224931D01*
X8007892Y57975500D01*
X7469666Y57975500D01*
X7453171Y58015420D01*
X7162275Y58306824D01*
X6782006Y58464725D01*
X6370258Y58465084D01*
X5989714Y58307847D01*
X5698310Y58016951D01*
X5540409Y57636682D01*
X5540050Y57224934D01*
X5697287Y56844390D01*
X5874824Y56666543D01*
X5754771Y56642663D01*
X5486959Y56463717D01*
X5486957Y56463714D01*
X4799022Y55775780D01*
X4726369Y55775843D01*
X4345825Y55618606D01*
X4054421Y55327710D01*
X3896520Y54947441D01*
X3896161Y54535693D01*
X1397000Y54535693D01*
X1397000Y74478166D01*
X2364543Y74478166D01*
X2764853Y73509342D01*
X3505443Y72767458D01*
X4473567Y72365458D01*
X5521834Y72364543D01*
X6490658Y72764853D01*
X7232542Y73505443D01*
X7634542Y74473567D01*
X7635457Y75521834D01*
X7473314Y75914250D01*
X11303000Y75914250D01*
X11303000Y75057691D01*
X11399673Y74824302D01*
X11578301Y74645673D01*
X11811690Y74549000D01*
X12668250Y74549000D01*
X12827000Y74707750D01*
X12827000Y76073000D01*
X11461750Y76073000D01*
X11303000Y75914250D01*
X7473314Y75914250D01*
X7235147Y76490658D01*
X6494557Y77232542D01*
X6230209Y77342309D01*
X11303000Y77342309D01*
X11303000Y76485750D01*
X11461750Y76327000D01*
X12827000Y76327000D01*
X12827000Y77692250D01*
X13081000Y77692250D01*
X13081000Y76327000D01*
X13101000Y76327000D01*
X13101000Y76073000D01*
X13081000Y76073000D01*
X13081000Y74707750D01*
X13239750Y74549000D01*
X14096310Y74549000D01*
X14329699Y74645673D01*
X14508327Y74824302D01*
X14525999Y74866966D01*
X14862190Y74642330D01*
X15494000Y74516655D01*
X16125810Y74642330D01*
X16661433Y75000222D01*
X17019325Y75535845D01*
X17145000Y76167655D01*
X17145000Y76232345D01*
X17019325Y76864155D01*
X16661433Y77399778D01*
X16125810Y77757670D01*
X15494000Y77883345D01*
X14862190Y77757670D01*
X14525999Y77533034D01*
X14508327Y77575698D01*
X14329699Y77754327D01*
X14096310Y77851000D01*
X13239750Y77851000D01*
X13081000Y77692250D01*
X12827000Y77692250D01*
X12668250Y77851000D01*
X11811690Y77851000D01*
X11578301Y77754327D01*
X11399673Y77575698D01*
X11303000Y77342309D01*
X6230209Y77342309D01*
X5526433Y77634542D01*
X4478166Y77635457D01*
X3509342Y77235147D01*
X2767458Y76494557D01*
X2365458Y75526433D01*
X2364543Y74478166D01*
X1397000Y74478166D01*
X1397000Y78613000D01*
X22987000Y78613000D01*
X22987000Y2159000D01*
G36*
X48895000Y2159000D02*
X30353000Y2159000D01*
X30353000Y4558166D01*
X42364543Y4558166D01*
X42764853Y3589342D01*
X43505443Y2847458D01*
X44473567Y2445458D01*
X45521834Y2444543D01*
X46490658Y2844853D01*
X47232542Y3585443D01*
X47634542Y4553567D01*
X47635457Y5601834D01*
X47235147Y6570658D01*
X46494557Y7312542D01*
X45526433Y7714542D01*
X44478166Y7715457D01*
X43509342Y7315147D01*
X42767458Y6574557D01*
X42365458Y5606433D01*
X42364543Y4558166D01*
X30353000Y4558166D01*
X30353000Y59016103D01*
X39762989Y59016103D01*
X39762989Y57201511D01*
X39825826Y56885605D01*
X40004772Y56617794D01*
X40924841Y55697726D01*
X40924830Y55684931D01*
X41074471Y55322771D01*
X41152000Y55245107D01*
X41075445Y55168686D01*
X40925172Y54806788D01*
X40924830Y54414931D01*
X41074471Y54052771D01*
X41152000Y53975107D01*
X41075445Y53898686D01*
X40925172Y53536788D01*
X40924830Y53144931D01*
X41074471Y52782771D01*
X41351314Y52505445D01*
X41713212Y52355172D01*
X42105069Y52354830D01*
X42467229Y52504471D01*
X42533050Y52570178D01*
X42561418Y52541810D01*
X42678693Y52659085D01*
X42697173Y52459380D01*
X43070925Y52341643D01*
X43461282Y52375897D01*
X43662827Y52459380D01*
X43681307Y52659088D01*
X43180000Y53160395D01*
X43165858Y53146253D01*
X42986253Y53325858D01*
X43000395Y53340000D01*
X42986253Y53354143D01*
X43165858Y53533748D01*
X43180000Y53519605D01*
X43194143Y53533748D01*
X43373748Y53354143D01*
X43359605Y53340000D01*
X43860912Y52838693D01*
X44060620Y52857173D01*
X44178357Y53230925D01*
X44144103Y53621282D01*
X44060620Y53822827D01*
X43860915Y53841307D01*
X43978190Y53958582D01*
X43949950Y53986822D01*
X44014555Y54051314D01*
X44164828Y54413212D01*
X44165170Y54805069D01*
X44062108Y55054500D01*
X44439321Y55054500D01*
X44755227Y55117337D01*
X45023038Y55296283D01*
X46281592Y56554838D01*
X46281595Y56554840D01*
X46460541Y56822652D01*
X46523378Y57138557D01*
X46523378Y60912807D01*
X46460541Y61228712D01*
X46460541Y61228713D01*
X46281595Y61496524D01*
X43059402Y64718717D01*
X42791591Y64897663D01*
X42566385Y64942459D01*
X42497046Y65011919D01*
X42116777Y65169820D01*
X41705029Y65170179D01*
X41324485Y65012942D01*
X41033081Y64722046D01*
X40875180Y64341777D01*
X40874821Y63930029D01*
X41032058Y63549485D01*
X41322954Y63258081D01*
X41703223Y63100180D01*
X42114971Y63099821D01*
X42276633Y63166618D01*
X43657751Y61785500D01*
X42532391Y61785500D01*
X42532386Y61785501D01*
X42216481Y61722663D01*
X41948669Y61543717D01*
X41948667Y61543714D01*
X40004772Y59599820D01*
X39825826Y59332009D01*
X39825826Y59332008D01*
X39762989Y59016103D01*
X30353000Y59016103D01*
X30353000Y74478166D01*
X42364543Y74478166D01*
X42764853Y73509342D01*
X43505443Y72767458D01*
X44473567Y72365458D01*
X45521834Y72364543D01*
X46490658Y72764853D01*
X47232542Y73505443D01*
X47634542Y74473567D01*
X47635457Y75521834D01*
X47235147Y76490658D01*
X46494557Y77232542D01*
X45526433Y77634542D01*
X44478166Y77635457D01*
X43509342Y77235147D01*
X42767458Y76494557D01*
X42365458Y75526433D01*
X42364543Y74478166D01*
X30353000Y74478166D01*
X30353000Y75914250D01*
X36449000Y75914250D01*
X36449000Y75057691D01*
X36545673Y74824302D01*
X36724301Y74645673D01*
X36957690Y74549000D01*
X37814250Y74549000D01*
X37973000Y74707750D01*
X37973000Y76073000D01*
X36607750Y76073000D01*
X36449000Y75914250D01*
X30353000Y75914250D01*
X30353000Y77342309D01*
X36449000Y77342309D01*
X36449000Y76485750D01*
X36607750Y76327000D01*
X37973000Y76327000D01*
X37973000Y77692250D01*
X38227000Y77692250D01*
X38227000Y76327000D01*
X38247000Y76327000D01*
X38247000Y76073000D01*
X38227000Y76073000D01*
X38227000Y74707750D01*
X38385750Y74549000D01*
X39242310Y74549000D01*
X39475699Y74645673D01*
X39654327Y74824302D01*
X39671999Y74866966D01*
X40008190Y74642330D01*
X40640000Y74516655D01*
X41271810Y74642330D01*
X41807433Y75000222D01*
X42165325Y75535845D01*
X42291000Y76167655D01*
X42291000Y76232345D01*
X42165325Y76864155D01*
X41807433Y77399778D01*
X41271810Y77757670D01*
X40640000Y77883345D01*
X40008190Y77757670D01*
X39671999Y77533034D01*
X39654327Y77575698D01*
X39475699Y77754327D01*
X39242310Y77851000D01*
X38385750Y77851000D01*
X38227000Y77692250D01*
X37973000Y77692250D01*
X37814250Y77851000D01*
X36957690Y77851000D01*
X36724301Y77754327D01*
X36545673Y77575698D01*
X36449000Y77342309D01*
X30353000Y77342309D01*
X30353000Y78613000D01*
X48895000Y78613000D01*
X48895000Y2159000D01*
X48895000Y2159000D01*
G37*
X48895000Y2159000D02*
X30353000Y2159000D01*
X30353000Y4558166D01*
X42364543Y4558166D01*
X42764853Y3589342D01*
X43505443Y2847458D01*
X44473567Y2445458D01*
X45521834Y2444543D01*
X46490658Y2844853D01*
X47232542Y3585443D01*
X47634542Y4553567D01*
X47635457Y5601834D01*
X47235147Y6570658D01*
X46494557Y7312542D01*
X45526433Y7714542D01*
X44478166Y7715457D01*
X43509342Y7315147D01*
X42767458Y6574557D01*
X42365458Y5606433D01*
X42364543Y4558166D01*
X30353000Y4558166D01*
X30353000Y59016103D01*
X39762989Y59016103D01*
X39762989Y57201511D01*
X39825826Y56885605D01*
X40004772Y56617794D01*
X40924841Y55697726D01*
X40924830Y55684931D01*
X41074471Y55322771D01*
X41152000Y55245107D01*
X41075445Y55168686D01*
X40925172Y54806788D01*
X40924830Y54414931D01*
X41074471Y54052771D01*
X41152000Y53975107D01*
X41075445Y53898686D01*
X40925172Y53536788D01*
X40924830Y53144931D01*
X41074471Y52782771D01*
X41351314Y52505445D01*
X41713212Y52355172D01*
X42105069Y52354830D01*
X42467229Y52504471D01*
X42533050Y52570178D01*
X42561418Y52541810D01*
X42678693Y52659085D01*
X42697173Y52459380D01*
X43070925Y52341643D01*
X43461282Y52375897D01*
X43662827Y52459380D01*
X43681307Y52659088D01*
X43180000Y53160395D01*
X43165858Y53146253D01*
X42986253Y53325858D01*
X43000395Y53340000D01*
X42986253Y53354143D01*
X43165858Y53533748D01*
X43180000Y53519605D01*
X43194143Y53533748D01*
X43373748Y53354143D01*
X43359605Y53340000D01*
X43860912Y52838693D01*
X44060620Y52857173D01*
X44178357Y53230925D01*
X44144103Y53621282D01*
X44060620Y53822827D01*
X43860915Y53841307D01*
X43978190Y53958582D01*
X43949950Y53986822D01*
X44014555Y54051314D01*
X44164828Y54413212D01*
X44165170Y54805069D01*
X44062108Y55054500D01*
X44439321Y55054500D01*
X44755227Y55117337D01*
X45023038Y55296283D01*
X46281592Y56554838D01*
X46281595Y56554840D01*
X46460541Y56822652D01*
X46523378Y57138557D01*
X46523378Y60912807D01*
X46460541Y61228712D01*
X46460541Y61228713D01*
X46281595Y61496524D01*
X43059402Y64718717D01*
X42791591Y64897663D01*
X42566385Y64942459D01*
X42497046Y65011919D01*
X42116777Y65169820D01*
X41705029Y65170179D01*
X41324485Y65012942D01*
X41033081Y64722046D01*
X40875180Y64341777D01*
X40874821Y63930029D01*
X41032058Y63549485D01*
X41322954Y63258081D01*
X41703223Y63100180D01*
X42114971Y63099821D01*
X42276633Y63166618D01*
X43657751Y61785500D01*
X42532391Y61785500D01*
X42532386Y61785501D01*
X42216481Y61722663D01*
X41948669Y61543717D01*
X41948667Y61543714D01*
X40004772Y59599820D01*
X39825826Y59332009D01*
X39825826Y59332008D01*
X39762989Y59016103D01*
X30353000Y59016103D01*
X30353000Y74478166D01*
X42364543Y74478166D01*
X42764853Y73509342D01*
X43505443Y72767458D01*
X44473567Y72365458D01*
X45521834Y72364543D01*
X46490658Y72764853D01*
X47232542Y73505443D01*
X47634542Y74473567D01*
X47635457Y75521834D01*
X47235147Y76490658D01*
X46494557Y77232542D01*
X45526433Y77634542D01*
X44478166Y77635457D01*
X43509342Y77235147D01*
X42767458Y76494557D01*
X42365458Y75526433D01*
X42364543Y74478166D01*
X30353000Y74478166D01*
X30353000Y75914250D01*
X36449000Y75914250D01*
X36449000Y75057691D01*
X36545673Y74824302D01*
X36724301Y74645673D01*
X36957690Y74549000D01*
X37814250Y74549000D01*
X37973000Y74707750D01*
X37973000Y76073000D01*
X36607750Y76073000D01*
X36449000Y75914250D01*
X30353000Y75914250D01*
X30353000Y77342309D01*
X36449000Y77342309D01*
X36449000Y76485750D01*
X36607750Y76327000D01*
X37973000Y76327000D01*
X37973000Y77692250D01*
X38227000Y77692250D01*
X38227000Y76327000D01*
X38247000Y76327000D01*
X38247000Y76073000D01*
X38227000Y76073000D01*
X38227000Y74707750D01*
X38385750Y74549000D01*
X39242310Y74549000D01*
X39475699Y74645673D01*
X39654327Y74824302D01*
X39671999Y74866966D01*
X40008190Y74642330D01*
X40640000Y74516655D01*
X41271810Y74642330D01*
X41807433Y75000222D01*
X42165325Y75535845D01*
X42291000Y76167655D01*
X42291000Y76232345D01*
X42165325Y76864155D01*
X41807433Y77399778D01*
X41271810Y77757670D01*
X40640000Y77883345D01*
X40008190Y77757670D01*
X39671999Y77533034D01*
X39654327Y77575698D01*
X39475699Y77754327D01*
X39242310Y77851000D01*
X38385750Y77851000D01*
X38227000Y77692250D01*
X37973000Y77692250D01*
X37814250Y77851000D01*
X36957690Y77851000D01*
X36724301Y77754327D01*
X36545673Y77575698D01*
X36449000Y77342309D01*
X30353000Y77342309D01*
X30353000Y78613000D01*
X48895000Y78613000D01*
X48895000Y2159000D01*
M02*
