G04 #@! TF.FileFunction,Soldermask,Top*
%FSLAX46Y46*%
G04 Gerber Fmt 4.6, Leading zero omitted, Abs format (unit mm)*
G04 Created by KiCad (PCBNEW (2015-12-07 BZR 6352)-product) date Fri 09 Sep 2016 08:12:53 PM EDT*
%MOMM*%
G01*
G04 APERTURE LIST*
%ADD10C,0.100000*%
%ADD11C,1.100000*%
%ADD12R,1.200000X1.150000*%
%ADD13R,2.432000X2.432000*%
%ADD14O,2.432000X2.432000*%
%ADD15R,0.900000X1.300000*%
%ADD16R,1.900000X1.924000*%
%ADD17C,4.400000*%
G04 APERTURE END LIST*
D10*
D11*
X8890000Y58420000D03*
X10160000Y58420000D03*
X8890000Y57150000D03*
X10160000Y57150000D03*
X8890000Y55880000D03*
X10160000Y55880000D03*
X8890000Y54610000D03*
X10160000Y54610000D03*
X8890000Y53340000D03*
X10160000Y53340000D03*
D12*
X19800000Y38735000D03*
X18300000Y38735000D03*
X33540000Y52070000D03*
X35040000Y52070000D03*
X33540000Y73660000D03*
X35040000Y73660000D03*
X33540000Y19685000D03*
X35040000Y19685000D03*
X33540000Y62865000D03*
X35040000Y62865000D03*
X33540000Y8890000D03*
X35040000Y8890000D03*
X33540000Y30480000D03*
X35040000Y30480000D03*
D13*
X12954000Y76200000D03*
D14*
X15494000Y76200000D03*
D13*
X38100000Y76200000D03*
D14*
X40640000Y76200000D03*
D15*
X19800000Y71120000D03*
X18300000Y71120000D03*
X19800000Y60325000D03*
X18300000Y60325000D03*
X19800000Y49530000D03*
X18300000Y49530000D03*
X33760000Y41275000D03*
X35260000Y41275000D03*
X35040000Y71120000D03*
X33540000Y71120000D03*
X35040000Y60325000D03*
X33540000Y60325000D03*
X35040000Y49530000D03*
X33540000Y49530000D03*
X18300000Y41275000D03*
X19800000Y41275000D03*
X19800000Y27940000D03*
X18300000Y27940000D03*
X19800000Y17145000D03*
X18300000Y17145000D03*
X19800000Y6350000D03*
X18300000Y6350000D03*
X35040000Y27940000D03*
X33540000Y27940000D03*
X35040000Y17145000D03*
X33540000Y17145000D03*
X35040000Y6350000D03*
X33540000Y6350000D03*
D16*
X22090000Y76200000D03*
X22090000Y73660000D03*
X22090000Y71120000D03*
X22090000Y68580000D03*
X31250000Y68580000D03*
X31250000Y71120000D03*
X31250000Y73660000D03*
X31250000Y76200000D03*
X22090000Y65405000D03*
X22090000Y62865000D03*
X22090000Y60325000D03*
X22090000Y57785000D03*
X31250000Y57785000D03*
X31250000Y60325000D03*
X31250000Y62865000D03*
X31250000Y65405000D03*
X22090000Y54610000D03*
X22090000Y52070000D03*
X22090000Y49530000D03*
X22090000Y46990000D03*
X31250000Y46990000D03*
X31250000Y49530000D03*
X31250000Y52070000D03*
X31250000Y54610000D03*
X31250000Y36195000D03*
X31250000Y38735000D03*
X31250000Y41275000D03*
X31250000Y43815000D03*
X22090000Y43815000D03*
X22090000Y41275000D03*
X22090000Y38735000D03*
X22090000Y36195000D03*
X22090000Y33020000D03*
X22090000Y30480000D03*
X22090000Y27940000D03*
X22090000Y25400000D03*
X31250000Y25400000D03*
X31250000Y27940000D03*
X31250000Y30480000D03*
X31250000Y33020000D03*
X22090000Y22225000D03*
X22090000Y19685000D03*
X22090000Y17145000D03*
X22090000Y14605000D03*
X31250000Y14605000D03*
X31250000Y17145000D03*
X31250000Y19685000D03*
X31250000Y22225000D03*
X22090000Y11430000D03*
X22090000Y8890000D03*
X22090000Y6350000D03*
X22090000Y3810000D03*
X31250000Y3810000D03*
X31250000Y6350000D03*
X31250000Y8890000D03*
X31250000Y11430000D03*
D11*
X41910000Y58420000D03*
X43180000Y58420000D03*
X41910000Y57150000D03*
X43180000Y57150000D03*
X41910000Y55880000D03*
X43180000Y55880000D03*
X41910000Y54610000D03*
X43180000Y54610000D03*
X41910000Y53340000D03*
X43180000Y53340000D03*
D17*
X45000000Y5080000D03*
X5000000Y5080000D03*
X5000000Y75000000D03*
X45000000Y75000000D03*
M02*
