G04 #@! TF.FileFunction,Legend,Bot*
%FSLAX46Y46*%
G04 Gerber Fmt 4.6, Leading zero omitted, Abs format (unit mm)*
G04 Created by KiCad (PCBNEW (2015-12-07 BZR 6352)-product) date Fri 09 Sep 2016 08:12:53 PM EDT*
%MOMM*%
G01*
G04 APERTURE LIST*
%ADD10C,0.100000*%
%ADD11C,0.300000*%
G04 APERTURE END LIST*
D10*
D11*
X39928570Y49207143D02*
X39428570Y49207143D01*
X39214284Y48421429D02*
X39928570Y48421429D01*
X39928570Y49921429D01*
X39214284Y49921429D01*
X38714284Y48421429D02*
X37928570Y49421429D01*
X38714284Y49421429D02*
X37928570Y48421429D01*
X37571427Y49421429D02*
X36999998Y49421429D01*
X37357141Y49921429D02*
X37357141Y48635714D01*
X37285713Y48492857D01*
X37142855Y48421429D01*
X36999998Y48421429D01*
X35928570Y48492857D02*
X36071427Y48421429D01*
X36357141Y48421429D01*
X36499998Y48492857D01*
X36571427Y48635714D01*
X36571427Y49207143D01*
X36499998Y49350000D01*
X36357141Y49421429D01*
X36071427Y49421429D01*
X35928570Y49350000D01*
X35857141Y49207143D01*
X35857141Y49064286D01*
X36571427Y48921429D01*
X35214284Y48421429D02*
X35214284Y49421429D01*
X35214284Y49135714D02*
X35142856Y49278571D01*
X35071427Y49350000D01*
X34928570Y49421429D01*
X34785713Y49421429D01*
X34285713Y49421429D02*
X34285713Y48421429D01*
X34285713Y49278571D02*
X34214285Y49350000D01*
X34071427Y49421429D01*
X33857142Y49421429D01*
X33714285Y49350000D01*
X33642856Y49207143D01*
X33642856Y48421429D01*
X32285713Y48421429D02*
X32285713Y49207143D01*
X32357142Y49350000D01*
X32499999Y49421429D01*
X32785713Y49421429D01*
X32928570Y49350000D01*
X32285713Y48492857D02*
X32428570Y48421429D01*
X32785713Y48421429D01*
X32928570Y48492857D01*
X32999999Y48635714D01*
X32999999Y48778571D01*
X32928570Y48921429D01*
X32785713Y48992857D01*
X32428570Y48992857D01*
X32285713Y49064286D01*
X31357141Y48421429D02*
X31499999Y48492857D01*
X31571427Y48635714D01*
X31571427Y49921429D01*
X28999999Y48492857D02*
X29142856Y48421429D01*
X29428570Y48421429D01*
X29571428Y48492857D01*
X29642856Y48564286D01*
X29714285Y48707143D01*
X29714285Y49135714D01*
X29642856Y49278571D01*
X29571428Y49350000D01*
X29428570Y49421429D01*
X29142856Y49421429D01*
X28999999Y49350000D01*
X28357142Y48421429D02*
X28357142Y49421429D01*
X28357142Y49921429D02*
X28428571Y49850000D01*
X28357142Y49778571D01*
X28285714Y49850000D01*
X28357142Y49921429D01*
X28357142Y49778571D01*
X27642856Y48421429D02*
X27642856Y49421429D01*
X27642856Y49135714D02*
X27571428Y49278571D01*
X27499999Y49350000D01*
X27357142Y49421429D01*
X27214285Y49421429D01*
X26071428Y48492857D02*
X26214285Y48421429D01*
X26499999Y48421429D01*
X26642857Y48492857D01*
X26714285Y48564286D01*
X26785714Y48707143D01*
X26785714Y49135714D01*
X26714285Y49278571D01*
X26642857Y49350000D01*
X26499999Y49421429D01*
X26214285Y49421429D01*
X26071428Y49350000D01*
X24785714Y49421429D02*
X24785714Y48421429D01*
X25428571Y49421429D02*
X25428571Y48635714D01*
X25357143Y48492857D01*
X25214285Y48421429D01*
X25000000Y48421429D01*
X24857143Y48492857D01*
X24785714Y48564286D01*
X24071428Y48421429D02*
X24071428Y49421429D01*
X24071428Y49921429D02*
X24142857Y49850000D01*
X24071428Y49778571D01*
X24000000Y49850000D01*
X24071428Y49921429D01*
X24071428Y49778571D01*
X23571428Y49421429D02*
X22999999Y49421429D01*
X23357142Y49921429D02*
X23357142Y48635714D01*
X23285714Y48492857D01*
X23142856Y48421429D01*
X22999999Y48421429D01*
X22499999Y48421429D02*
X22499999Y49421429D01*
X22499999Y49135714D02*
X22428571Y49278571D01*
X22357142Y49350000D01*
X22214285Y49421429D01*
X22071428Y49421429D01*
X21714285Y49421429D02*
X21357142Y48421429D01*
X21000000Y49421429D02*
X21357142Y48421429D01*
X21500000Y48064286D01*
X21571428Y47992857D01*
X21714285Y47921429D01*
X18642857Y48492857D02*
X18785714Y48421429D01*
X19071428Y48421429D01*
X19214286Y48492857D01*
X19285714Y48564286D01*
X19357143Y48707143D01*
X19357143Y49135714D01*
X19285714Y49278571D01*
X19214286Y49350000D01*
X19071428Y49421429D01*
X18785714Y49421429D01*
X18642857Y49350000D01*
X17357143Y48421429D02*
X17357143Y49207143D01*
X17428572Y49350000D01*
X17571429Y49421429D01*
X17857143Y49421429D01*
X18000000Y49350000D01*
X17357143Y48492857D02*
X17500000Y48421429D01*
X17857143Y48421429D01*
X18000000Y48492857D01*
X18071429Y48635714D01*
X18071429Y48778571D01*
X18000000Y48921429D01*
X17857143Y48992857D01*
X17500000Y48992857D01*
X17357143Y49064286D01*
X16642857Y49421429D02*
X16642857Y48421429D01*
X16642857Y49278571D02*
X16571429Y49350000D01*
X16428571Y49421429D01*
X16214286Y49421429D01*
X16071429Y49350000D01*
X16000000Y49207143D01*
X16000000Y48421429D01*
X14142857Y48421429D02*
X14142857Y49921429D01*
X14142857Y49350000D02*
X14000000Y49421429D01*
X13714286Y49421429D01*
X13571429Y49350000D01*
X13500000Y49278571D01*
X13428571Y49135714D01*
X13428571Y48707143D01*
X13500000Y48564286D01*
X13571429Y48492857D01*
X13714286Y48421429D01*
X14000000Y48421429D01*
X14142857Y48492857D01*
X12214286Y48492857D02*
X12357143Y48421429D01*
X12642857Y48421429D01*
X12785714Y48492857D01*
X12857143Y48635714D01*
X12857143Y49207143D01*
X12785714Y49350000D01*
X12642857Y49421429D01*
X12357143Y49421429D01*
X12214286Y49350000D01*
X12142857Y49207143D01*
X12142857Y49064286D01*
X12857143Y48921429D01*
X43142857Y47021429D02*
X43142857Y45521429D01*
X43142857Y46950000D02*
X43000000Y47021429D01*
X42714286Y47021429D01*
X42571429Y46950000D01*
X42500000Y46878571D01*
X42428571Y46735714D01*
X42428571Y46307143D01*
X42500000Y46164286D01*
X42571429Y46092857D01*
X42714286Y46021429D01*
X43000000Y46021429D01*
X43142857Y46092857D01*
X41571428Y46021429D02*
X41714286Y46092857D01*
X41785714Y46164286D01*
X41857143Y46307143D01*
X41857143Y46735714D01*
X41785714Y46878571D01*
X41714286Y46950000D01*
X41571428Y47021429D01*
X41357143Y47021429D01*
X41214286Y46950000D01*
X41142857Y46878571D01*
X41071428Y46735714D01*
X41071428Y46307143D01*
X41142857Y46164286D01*
X41214286Y46092857D01*
X41357143Y46021429D01*
X41571428Y46021429D01*
X40571428Y47021429D02*
X40285714Y46021429D01*
X40000000Y46735714D01*
X39714285Y46021429D01*
X39428571Y47021429D01*
X38285714Y46092857D02*
X38428571Y46021429D01*
X38714285Y46021429D01*
X38857142Y46092857D01*
X38928571Y46235714D01*
X38928571Y46807143D01*
X38857142Y46950000D01*
X38714285Y47021429D01*
X38428571Y47021429D01*
X38285714Y46950000D01*
X38214285Y46807143D01*
X38214285Y46664286D01*
X38928571Y46521429D01*
X37571428Y46021429D02*
X37571428Y47021429D01*
X37571428Y46735714D02*
X37500000Y46878571D01*
X37428571Y46950000D01*
X37285714Y47021429D01*
X37142857Y47021429D01*
X36071429Y46092857D02*
X36214286Y46021429D01*
X36500000Y46021429D01*
X36642857Y46092857D01*
X36714286Y46235714D01*
X36714286Y46807143D01*
X36642857Y46950000D01*
X36500000Y47021429D01*
X36214286Y47021429D01*
X36071429Y46950000D01*
X36000000Y46807143D01*
X36000000Y46664286D01*
X36714286Y46521429D01*
X34714286Y46021429D02*
X34714286Y47521429D01*
X34714286Y46092857D02*
X34857143Y46021429D01*
X35142857Y46021429D01*
X35285715Y46092857D01*
X35357143Y46164286D01*
X35428572Y46307143D01*
X35428572Y46735714D01*
X35357143Y46878571D01*
X35285715Y46950000D01*
X35142857Y47021429D01*
X34857143Y47021429D01*
X34714286Y46950000D01*
X32857143Y46021429D02*
X32857143Y47521429D01*
X32857143Y46950000D02*
X32714286Y47021429D01*
X32428572Y47021429D01*
X32285715Y46950000D01*
X32214286Y46878571D01*
X32142857Y46735714D01*
X32142857Y46307143D01*
X32214286Y46164286D01*
X32285715Y46092857D01*
X32428572Y46021429D01*
X32714286Y46021429D01*
X32857143Y46092857D01*
X31642857Y47021429D02*
X31285714Y46021429D01*
X30928572Y47021429D02*
X31285714Y46021429D01*
X31428572Y45664286D01*
X31500000Y45592857D01*
X31642857Y45521429D01*
X29428572Y47021429D02*
X28857143Y47021429D01*
X29214286Y47521429D02*
X29214286Y46235714D01*
X29142858Y46092857D01*
X29000000Y46021429D01*
X28857143Y46021429D01*
X28357143Y46021429D02*
X28357143Y47521429D01*
X27714286Y46021429D02*
X27714286Y46807143D01*
X27785715Y46950000D01*
X27928572Y47021429D01*
X28142857Y47021429D01*
X28285715Y46950000D01*
X28357143Y46878571D01*
X26428572Y46092857D02*
X26571429Y46021429D01*
X26857143Y46021429D01*
X27000000Y46092857D01*
X27071429Y46235714D01*
X27071429Y46807143D01*
X27000000Y46950000D01*
X26857143Y47021429D01*
X26571429Y47021429D01*
X26428572Y46950000D01*
X26357143Y46807143D01*
X26357143Y46664286D01*
X27071429Y46521429D01*
X24642858Y46092857D02*
X24428572Y46021429D01*
X24071429Y46021429D01*
X23928572Y46092857D01*
X23857143Y46164286D01*
X23785715Y46307143D01*
X23785715Y46450000D01*
X23857143Y46592857D01*
X23928572Y46664286D01*
X24071429Y46735714D01*
X24357143Y46807143D01*
X24500001Y46878571D01*
X24571429Y46950000D01*
X24642858Y47092857D01*
X24642858Y47235714D01*
X24571429Y47378571D01*
X24500001Y47450000D01*
X24357143Y47521429D01*
X24000001Y47521429D01*
X23785715Y47450000D01*
X23142858Y46021429D02*
X23142858Y47021429D01*
X23142858Y46878571D02*
X23071430Y46950000D01*
X22928572Y47021429D01*
X22714287Y47021429D01*
X22571430Y46950000D01*
X22500001Y46807143D01*
X22500001Y46021429D01*
X22500001Y46807143D02*
X22428572Y46950000D01*
X22285715Y47021429D01*
X22071430Y47021429D01*
X21928572Y46950000D01*
X21857144Y46807143D01*
X21857144Y46021429D01*
X20928572Y46021429D02*
X21071430Y46092857D01*
X21142858Y46164286D01*
X21214287Y46307143D01*
X21214287Y46735714D01*
X21142858Y46878571D01*
X21071430Y46950000D01*
X20928572Y47021429D01*
X20714287Y47021429D01*
X20571430Y46950000D01*
X20500001Y46878571D01*
X20428572Y46735714D01*
X20428572Y46307143D01*
X20500001Y46164286D01*
X20571430Y46092857D01*
X20714287Y46021429D01*
X20928572Y46021429D01*
X19571429Y46021429D02*
X19714287Y46092857D01*
X19785715Y46164286D01*
X19857144Y46307143D01*
X19857144Y46735714D01*
X19785715Y46878571D01*
X19714287Y46950000D01*
X19571429Y47021429D01*
X19357144Y47021429D01*
X19214287Y46950000D01*
X19142858Y46878571D01*
X19071429Y46735714D01*
X19071429Y46307143D01*
X19142858Y46164286D01*
X19214287Y46092857D01*
X19357144Y46021429D01*
X19571429Y46021429D01*
X18642858Y47021429D02*
X18071429Y47021429D01*
X18428572Y47521429D02*
X18428572Y46235714D01*
X18357144Y46092857D01*
X18214286Y46021429D01*
X18071429Y46021429D01*
X17571429Y46021429D02*
X17571429Y47521429D01*
X16928572Y46021429D02*
X16928572Y46807143D01*
X17000001Y46950000D01*
X17142858Y47021429D01*
X17357143Y47021429D01*
X17500001Y46950000D01*
X17571429Y46878571D01*
X16214286Y46021429D02*
X16214286Y47021429D01*
X16214286Y47521429D02*
X16285715Y47450000D01*
X16214286Y47378571D01*
X16142858Y47450000D01*
X16214286Y47521429D01*
X16214286Y47378571D01*
X14928572Y46092857D02*
X15071429Y46021429D01*
X15357143Y46021429D01*
X15500000Y46092857D01*
X15571429Y46235714D01*
X15571429Y46807143D01*
X15500000Y46950000D01*
X15357143Y47021429D01*
X15071429Y47021429D01*
X14928572Y46950000D01*
X14857143Y46807143D01*
X14857143Y46664286D01*
X15571429Y46521429D01*
X14214286Y46021429D02*
X14214286Y47521429D01*
X14214286Y46950000D02*
X14071429Y47021429D01*
X13785715Y47021429D01*
X13642858Y46950000D01*
X13571429Y46878571D01*
X13500000Y46735714D01*
X13500000Y46307143D01*
X13571429Y46164286D01*
X13642858Y46092857D01*
X13785715Y46021429D01*
X14071429Y46021429D01*
X14214286Y46092857D01*
X12642857Y46021429D02*
X12785715Y46092857D01*
X12857143Y46164286D01*
X12928572Y46307143D01*
X12928572Y46735714D01*
X12857143Y46878571D01*
X12785715Y46950000D01*
X12642857Y47021429D01*
X12428572Y47021429D01*
X12285715Y46950000D01*
X12214286Y46878571D01*
X12142857Y46735714D01*
X12142857Y46307143D01*
X12214286Y46164286D01*
X12285715Y46092857D01*
X12428572Y46021429D01*
X12642857Y46021429D01*
X10857143Y46021429D02*
X10857143Y46807143D01*
X10928572Y46950000D01*
X11071429Y47021429D01*
X11357143Y47021429D01*
X11500000Y46950000D01*
X10857143Y46092857D02*
X11000000Y46021429D01*
X11357143Y46021429D01*
X11500000Y46092857D01*
X11571429Y46235714D01*
X11571429Y46378571D01*
X11500000Y46521429D01*
X11357143Y46592857D01*
X11000000Y46592857D01*
X10857143Y46664286D01*
X10142857Y46021429D02*
X10142857Y47021429D01*
X10142857Y46735714D02*
X10071429Y46878571D01*
X10000000Y46950000D01*
X9857143Y47021429D01*
X9714286Y47021429D01*
X8571429Y46021429D02*
X8571429Y47521429D01*
X8571429Y46092857D02*
X8714286Y46021429D01*
X9000000Y46021429D01*
X9142858Y46092857D01*
X9214286Y46164286D01*
X9285715Y46307143D01*
X9285715Y46735714D01*
X9214286Y46878571D01*
X9142858Y46950000D01*
X9000000Y47021429D01*
X8714286Y47021429D01*
X8571429Y46950000D01*
X7857143Y46164286D02*
X7785715Y46092857D01*
X7857143Y46021429D01*
X7928572Y46092857D01*
X7857143Y46164286D01*
X7857143Y46021429D01*
X41750000Y43764286D02*
X41821429Y43692857D01*
X42035715Y43621429D01*
X42178572Y43621429D01*
X42392857Y43692857D01*
X42535715Y43835714D01*
X42607143Y43978571D01*
X42678572Y44264286D01*
X42678572Y44478571D01*
X42607143Y44764286D01*
X42535715Y44907143D01*
X42392857Y45050000D01*
X42178572Y45121429D01*
X42035715Y45121429D01*
X41821429Y45050000D01*
X41750000Y44978571D01*
X40892857Y43621429D02*
X41035715Y43692857D01*
X41107143Y43764286D01*
X41178572Y43907143D01*
X41178572Y44335714D01*
X41107143Y44478571D01*
X41035715Y44550000D01*
X40892857Y44621429D01*
X40678572Y44621429D01*
X40535715Y44550000D01*
X40464286Y44478571D01*
X40392857Y44335714D01*
X40392857Y43907143D01*
X40464286Y43764286D01*
X40535715Y43692857D01*
X40678572Y43621429D01*
X40892857Y43621429D01*
X39750000Y44621429D02*
X39750000Y43621429D01*
X39750000Y44478571D02*
X39678572Y44550000D01*
X39535714Y44621429D01*
X39321429Y44621429D01*
X39178572Y44550000D01*
X39107143Y44407143D01*
X39107143Y43621429D01*
X38392857Y44621429D02*
X38392857Y43621429D01*
X38392857Y44478571D02*
X38321429Y44550000D01*
X38178571Y44621429D01*
X37964286Y44621429D01*
X37821429Y44550000D01*
X37750000Y44407143D01*
X37750000Y43621429D01*
X36464286Y43692857D02*
X36607143Y43621429D01*
X36892857Y43621429D01*
X37035714Y43692857D01*
X37107143Y43835714D01*
X37107143Y44407143D01*
X37035714Y44550000D01*
X36892857Y44621429D01*
X36607143Y44621429D01*
X36464286Y44550000D01*
X36392857Y44407143D01*
X36392857Y44264286D01*
X37107143Y44121429D01*
X35107143Y43692857D02*
X35250000Y43621429D01*
X35535714Y43621429D01*
X35678572Y43692857D01*
X35750000Y43764286D01*
X35821429Y43907143D01*
X35821429Y44335714D01*
X35750000Y44478571D01*
X35678572Y44550000D01*
X35535714Y44621429D01*
X35250000Y44621429D01*
X35107143Y44550000D01*
X34678572Y44621429D02*
X34107143Y44621429D01*
X34464286Y45121429D02*
X34464286Y43835714D01*
X34392858Y43692857D01*
X34250000Y43621429D01*
X34107143Y43621429D01*
X32678572Y44621429D02*
X32107143Y44621429D01*
X32464286Y45121429D02*
X32464286Y43835714D01*
X32392858Y43692857D01*
X32250000Y43621429D01*
X32107143Y43621429D01*
X31607143Y43621429D02*
X31607143Y45121429D01*
X30964286Y43621429D02*
X30964286Y44407143D01*
X31035715Y44550000D01*
X31178572Y44621429D01*
X31392857Y44621429D01*
X31535715Y44550000D01*
X31607143Y44478571D01*
X29678572Y43692857D02*
X29821429Y43621429D01*
X30107143Y43621429D01*
X30250000Y43692857D01*
X30321429Y43835714D01*
X30321429Y44407143D01*
X30250000Y44550000D01*
X30107143Y44621429D01*
X29821429Y44621429D01*
X29678572Y44550000D01*
X29607143Y44407143D01*
X29607143Y44264286D01*
X30321429Y44121429D01*
X27107143Y45121429D02*
X27821429Y45121429D01*
X27892858Y44407143D01*
X27821429Y44478571D01*
X27678572Y44550000D01*
X27321429Y44550000D01*
X27178572Y44478571D01*
X27107143Y44407143D01*
X27035715Y44264286D01*
X27035715Y43907143D01*
X27107143Y43764286D01*
X27178572Y43692857D01*
X27321429Y43621429D01*
X27678572Y43621429D01*
X27821429Y43692857D01*
X27892858Y43764286D01*
X26607144Y45121429D02*
X26107144Y43621429D01*
X25607144Y45121429D01*
X23321430Y43621429D02*
X23321430Y44407143D01*
X23392859Y44550000D01*
X23535716Y44621429D01*
X23821430Y44621429D01*
X23964287Y44550000D01*
X23321430Y43692857D02*
X23464287Y43621429D01*
X23821430Y43621429D01*
X23964287Y43692857D01*
X24035716Y43835714D01*
X24035716Y43978571D01*
X23964287Y44121429D01*
X23821430Y44192857D01*
X23464287Y44192857D01*
X23321430Y44264286D01*
X22607144Y44621429D02*
X22607144Y43621429D01*
X22607144Y44478571D02*
X22535716Y44550000D01*
X22392858Y44621429D01*
X22178573Y44621429D01*
X22035716Y44550000D01*
X21964287Y44407143D01*
X21964287Y43621429D01*
X20607144Y43621429D02*
X20607144Y45121429D01*
X20607144Y43692857D02*
X20750001Y43621429D01*
X21035715Y43621429D01*
X21178573Y43692857D01*
X21250001Y43764286D01*
X21321430Y43907143D01*
X21321430Y44335714D01*
X21250001Y44478571D01*
X21178573Y44550000D01*
X21035715Y44621429D01*
X20750001Y44621429D01*
X20607144Y44550000D01*
X17964287Y45050000D02*
X18107144Y45121429D01*
X18321430Y45121429D01*
X18535715Y45050000D01*
X18678573Y44907143D01*
X18750001Y44764286D01*
X18821430Y44478571D01*
X18821430Y44264286D01*
X18750001Y43978571D01*
X18678573Y43835714D01*
X18535715Y43692857D01*
X18321430Y43621429D01*
X18178573Y43621429D01*
X17964287Y43692857D01*
X17892858Y43764286D01*
X17892858Y44264286D01*
X18178573Y44264286D01*
X17250001Y43621429D02*
X17250001Y45121429D01*
X16392858Y43621429D01*
X16392858Y45121429D01*
X15678572Y43621429D02*
X15678572Y45121429D01*
X15321429Y45121429D01*
X15107144Y45050000D01*
X14964286Y44907143D01*
X14892858Y44764286D01*
X14821429Y44478571D01*
X14821429Y44264286D01*
X14892858Y43978571D01*
X14964286Y43835714D01*
X15107144Y43692857D01*
X15321429Y43621429D01*
X15678572Y43621429D01*
X13035715Y44621429D02*
X13035715Y43121429D01*
X13035715Y44550000D02*
X12892858Y44621429D01*
X12607144Y44621429D01*
X12464287Y44550000D01*
X12392858Y44478571D01*
X12321429Y44335714D01*
X12321429Y43907143D01*
X12392858Y43764286D01*
X12464287Y43692857D01*
X12607144Y43621429D01*
X12892858Y43621429D01*
X13035715Y43692857D01*
X11678572Y43621429D02*
X11678572Y44621429D01*
X11678572Y45121429D02*
X11750001Y45050000D01*
X11678572Y44978571D01*
X11607144Y45050000D01*
X11678572Y45121429D01*
X11678572Y44978571D01*
X10964286Y44621429D02*
X10964286Y43621429D01*
X10964286Y44478571D02*
X10892858Y44550000D01*
X10750000Y44621429D01*
X10535715Y44621429D01*
X10392858Y44550000D01*
X10321429Y44407143D01*
X10321429Y43621429D01*
X9678572Y43692857D02*
X9535715Y43621429D01*
X9250000Y43621429D01*
X9107143Y43692857D01*
X9035715Y43835714D01*
X9035715Y43907143D01*
X9107143Y44050000D01*
X9250000Y44121429D01*
X9464286Y44121429D01*
X9607143Y44192857D01*
X9678572Y44335714D01*
X9678572Y44407143D01*
X9607143Y44550000D01*
X9464286Y44621429D01*
X9250000Y44621429D01*
X9107143Y44550000D01*
X8392857Y43764286D02*
X8321429Y43692857D01*
X8392857Y43621429D01*
X8464286Y43692857D01*
X8392857Y43764286D01*
X8392857Y43621429D01*
X41321430Y42721429D02*
X40464287Y42721429D01*
X40892858Y41221429D02*
X40892858Y42721429D01*
X39964287Y41221429D02*
X39964287Y42721429D01*
X39321430Y41221429D02*
X39321430Y42007143D01*
X39392859Y42150000D01*
X39535716Y42221429D01*
X39750001Y42221429D01*
X39892859Y42150000D01*
X39964287Y42078571D01*
X38607144Y41221429D02*
X38607144Y42221429D01*
X38607144Y42721429D02*
X38678573Y42650000D01*
X38607144Y42578571D01*
X38535716Y42650000D01*
X38607144Y42721429D01*
X38607144Y42578571D01*
X37964287Y41292857D02*
X37821430Y41221429D01*
X37535715Y41221429D01*
X37392858Y41292857D01*
X37321430Y41435714D01*
X37321430Y41507143D01*
X37392858Y41650000D01*
X37535715Y41721429D01*
X37750001Y41721429D01*
X37892858Y41792857D01*
X37964287Y41935714D01*
X37964287Y42007143D01*
X37892858Y42150000D01*
X37750001Y42221429D01*
X37535715Y42221429D01*
X37392858Y42150000D01*
X35535715Y41221429D02*
X35535715Y42721429D01*
X35535715Y42150000D02*
X35392858Y42221429D01*
X35107144Y42221429D01*
X34964287Y42150000D01*
X34892858Y42078571D01*
X34821429Y41935714D01*
X34821429Y41507143D01*
X34892858Y41364286D01*
X34964287Y41292857D01*
X35107144Y41221429D01*
X35392858Y41221429D01*
X35535715Y41292857D01*
X34321429Y42221429D02*
X33964286Y41221429D01*
X33607144Y42221429D02*
X33964286Y41221429D01*
X34107144Y40864286D01*
X34178572Y40792857D01*
X34321429Y40721429D01*
X33035715Y42221429D02*
X33035715Y40721429D01*
X33035715Y42150000D02*
X32892858Y42221429D01*
X32607144Y42221429D01*
X32464287Y42150000D01*
X32392858Y42078571D01*
X32321429Y41935714D01*
X32321429Y41507143D01*
X32392858Y41364286D01*
X32464287Y41292857D01*
X32607144Y41221429D01*
X32892858Y41221429D01*
X33035715Y41292857D01*
X31035715Y41221429D02*
X31035715Y42007143D01*
X31107144Y42150000D01*
X31250001Y42221429D01*
X31535715Y42221429D01*
X31678572Y42150000D01*
X31035715Y41292857D02*
X31178572Y41221429D01*
X31535715Y41221429D01*
X31678572Y41292857D01*
X31750001Y41435714D01*
X31750001Y41578571D01*
X31678572Y41721429D01*
X31535715Y41792857D01*
X31178572Y41792857D01*
X31035715Y41864286D01*
X30392858Y41292857D02*
X30250001Y41221429D01*
X29964286Y41221429D01*
X29821429Y41292857D01*
X29750001Y41435714D01*
X29750001Y41507143D01*
X29821429Y41650000D01*
X29964286Y41721429D01*
X30178572Y41721429D01*
X30321429Y41792857D01*
X30392858Y41935714D01*
X30392858Y42007143D01*
X30321429Y42150000D01*
X30178572Y42221429D01*
X29964286Y42221429D01*
X29821429Y42150000D01*
X29178572Y41292857D02*
X29035715Y41221429D01*
X28750000Y41221429D01*
X28607143Y41292857D01*
X28535715Y41435714D01*
X28535715Y41507143D01*
X28607143Y41650000D01*
X28750000Y41721429D01*
X28964286Y41721429D01*
X29107143Y41792857D01*
X29178572Y41935714D01*
X29178572Y42007143D01*
X29107143Y42150000D01*
X28964286Y42221429D01*
X28750000Y42221429D01*
X28607143Y42150000D01*
X27321429Y41292857D02*
X27464286Y41221429D01*
X27750000Y41221429D01*
X27892857Y41292857D01*
X27964286Y41435714D01*
X27964286Y42007143D01*
X27892857Y42150000D01*
X27750000Y42221429D01*
X27464286Y42221429D01*
X27321429Y42150000D01*
X27250000Y42007143D01*
X27250000Y41864286D01*
X27964286Y41721429D01*
X26678572Y41292857D02*
X26535715Y41221429D01*
X26250000Y41221429D01*
X26107143Y41292857D01*
X26035715Y41435714D01*
X26035715Y41507143D01*
X26107143Y41650000D01*
X26250000Y41721429D01*
X26464286Y41721429D01*
X26607143Y41792857D01*
X26678572Y41935714D01*
X26678572Y42007143D01*
X26607143Y42150000D01*
X26464286Y42221429D01*
X26250000Y42221429D01*
X26107143Y42150000D01*
X24464286Y42221429D02*
X23892857Y42221429D01*
X24250000Y42721429D02*
X24250000Y41435714D01*
X24178572Y41292857D01*
X24035714Y41221429D01*
X23892857Y41221429D01*
X23392857Y41221429D02*
X23392857Y42721429D01*
X22750000Y41221429D02*
X22750000Y42007143D01*
X22821429Y42150000D01*
X22964286Y42221429D01*
X23178571Y42221429D01*
X23321429Y42150000D01*
X23392857Y42078571D01*
X21464286Y41292857D02*
X21607143Y41221429D01*
X21892857Y41221429D01*
X22035714Y41292857D01*
X22107143Y41435714D01*
X22107143Y42007143D01*
X22035714Y42150000D01*
X21892857Y42221429D01*
X21607143Y42221429D01*
X21464286Y42150000D01*
X21392857Y42007143D01*
X21392857Y41864286D01*
X22107143Y41721429D01*
X19607143Y41221429D02*
X19607143Y42221429D01*
X19607143Y42721429D02*
X19678572Y42650000D01*
X19607143Y42578571D01*
X19535715Y42650000D01*
X19607143Y42721429D01*
X19607143Y42578571D01*
X18964286Y41292857D02*
X18821429Y41221429D01*
X18535714Y41221429D01*
X18392857Y41292857D01*
X18321429Y41435714D01*
X18321429Y41507143D01*
X18392857Y41650000D01*
X18535714Y41721429D01*
X18750000Y41721429D01*
X18892857Y41792857D01*
X18964286Y41935714D01*
X18964286Y42007143D01*
X18892857Y42150000D01*
X18750000Y42221429D01*
X18535714Y42221429D01*
X18392857Y42150000D01*
X17464285Y41221429D02*
X17607143Y41292857D01*
X17678571Y41364286D01*
X17750000Y41507143D01*
X17750000Y41935714D01*
X17678571Y42078571D01*
X17607143Y42150000D01*
X17464285Y42221429D01*
X17250000Y42221429D01*
X17107143Y42150000D01*
X17035714Y42078571D01*
X16964285Y41935714D01*
X16964285Y41507143D01*
X17035714Y41364286D01*
X17107143Y41292857D01*
X17250000Y41221429D01*
X17464285Y41221429D01*
X16107142Y41221429D02*
X16250000Y41292857D01*
X16321428Y41435714D01*
X16321428Y42721429D01*
X14892857Y41221429D02*
X14892857Y42007143D01*
X14964286Y42150000D01*
X15107143Y42221429D01*
X15392857Y42221429D01*
X15535714Y42150000D01*
X14892857Y41292857D02*
X15035714Y41221429D01*
X15392857Y41221429D01*
X15535714Y41292857D01*
X15607143Y41435714D01*
X15607143Y41578571D01*
X15535714Y41721429D01*
X15392857Y41792857D01*
X15035714Y41792857D01*
X14892857Y41864286D01*
X14392857Y42221429D02*
X13821428Y42221429D01*
X14178571Y42721429D02*
X14178571Y41435714D01*
X14107143Y41292857D01*
X13964285Y41221429D01*
X13821428Y41221429D01*
X13321428Y41221429D02*
X13321428Y42221429D01*
X13321428Y42721429D02*
X13392857Y42650000D01*
X13321428Y42578571D01*
X13250000Y42650000D01*
X13321428Y42721429D01*
X13321428Y42578571D01*
X12392856Y41221429D02*
X12535714Y41292857D01*
X12607142Y41364286D01*
X12678571Y41507143D01*
X12678571Y41935714D01*
X12607142Y42078571D01*
X12535714Y42150000D01*
X12392856Y42221429D01*
X12178571Y42221429D01*
X12035714Y42150000D01*
X11964285Y42078571D01*
X11892856Y41935714D01*
X11892856Y41507143D01*
X11964285Y41364286D01*
X12035714Y41292857D01*
X12178571Y41221429D01*
X12392856Y41221429D01*
X11249999Y42221429D02*
X11249999Y41221429D01*
X11249999Y42078571D02*
X11178571Y42150000D01*
X11035713Y42221429D01*
X10821428Y42221429D01*
X10678571Y42150000D01*
X10607142Y42007143D01*
X10607142Y41221429D01*
X9892856Y41364286D02*
X9821428Y41292857D01*
X9892856Y41221429D01*
X9964285Y41292857D01*
X9892856Y41364286D01*
X9892856Y41221429D01*
X9892856Y41792857D02*
X9964285Y42650000D01*
X9892856Y42721429D01*
X9821428Y42650000D01*
X9892856Y41792857D01*
X9892856Y42721429D01*
X22571429Y70592857D02*
X22357143Y70521429D01*
X22000000Y70521429D01*
X21857143Y70592857D01*
X21785714Y70664286D01*
X21714286Y70807143D01*
X21714286Y70950000D01*
X21785714Y71092857D01*
X21857143Y71164286D01*
X22000000Y71235714D01*
X22285714Y71307143D01*
X22428572Y71378571D01*
X22500000Y71450000D01*
X22571429Y71592857D01*
X22571429Y71735714D01*
X22500000Y71878571D01*
X22428572Y71950000D01*
X22285714Y72021429D01*
X21928572Y72021429D01*
X21714286Y71950000D01*
X21071429Y70521429D02*
X21071429Y71521429D01*
X21071429Y71378571D02*
X21000001Y71450000D01*
X20857143Y71521429D01*
X20642858Y71521429D01*
X20500001Y71450000D01*
X20428572Y71307143D01*
X20428572Y70521429D01*
X20428572Y71307143D02*
X20357143Y71450000D01*
X20214286Y71521429D01*
X20000001Y71521429D01*
X19857143Y71450000D01*
X19785715Y71307143D01*
X19785715Y70521429D01*
X18857143Y70521429D02*
X19000001Y70592857D01*
X19071429Y70664286D01*
X19142858Y70807143D01*
X19142858Y71235714D01*
X19071429Y71378571D01*
X19000001Y71450000D01*
X18857143Y71521429D01*
X18642858Y71521429D01*
X18500001Y71450000D01*
X18428572Y71378571D01*
X18357143Y71235714D01*
X18357143Y70807143D01*
X18428572Y70664286D01*
X18500001Y70592857D01*
X18642858Y70521429D01*
X18857143Y70521429D01*
X17500000Y70521429D02*
X17642858Y70592857D01*
X17714286Y70664286D01*
X17785715Y70807143D01*
X17785715Y71235714D01*
X17714286Y71378571D01*
X17642858Y71450000D01*
X17500000Y71521429D01*
X17285715Y71521429D01*
X17142858Y71450000D01*
X17071429Y71378571D01*
X17000000Y71235714D01*
X17000000Y70807143D01*
X17071429Y70664286D01*
X17142858Y70592857D01*
X17285715Y70521429D01*
X17500000Y70521429D01*
X16571429Y71521429D02*
X16000000Y71521429D01*
X16357143Y72021429D02*
X16357143Y70735714D01*
X16285715Y70592857D01*
X16142857Y70521429D01*
X16000000Y70521429D01*
X15500000Y70521429D02*
X15500000Y72021429D01*
X14857143Y70521429D02*
X14857143Y71307143D01*
X14928572Y71450000D01*
X15071429Y71521429D01*
X15285714Y71521429D01*
X15428572Y71450000D01*
X15500000Y71378571D01*
X14142857Y70521429D02*
X14142857Y71521429D01*
X14142857Y72021429D02*
X14214286Y71950000D01*
X14142857Y71878571D01*
X14071429Y71950000D01*
X14142857Y72021429D01*
X14142857Y71878571D01*
X12857143Y70592857D02*
X13000000Y70521429D01*
X13285714Y70521429D01*
X13428571Y70592857D01*
X13500000Y70735714D01*
X13500000Y71307143D01*
X13428571Y71450000D01*
X13285714Y71521429D01*
X13000000Y71521429D01*
X12857143Y71450000D01*
X12785714Y71307143D01*
X12785714Y71164286D01*
X13500000Y71021429D01*
X12142857Y70521429D02*
X12142857Y72021429D01*
X12142857Y71450000D02*
X12000000Y71521429D01*
X11714286Y71521429D01*
X11571429Y71450000D01*
X11500000Y71378571D01*
X11428571Y71235714D01*
X11428571Y70807143D01*
X11500000Y70664286D01*
X11571429Y70592857D01*
X11714286Y70521429D01*
X12000000Y70521429D01*
X12142857Y70592857D01*
X10571428Y70521429D02*
X10714286Y70592857D01*
X10785714Y70664286D01*
X10857143Y70807143D01*
X10857143Y71235714D01*
X10785714Y71378571D01*
X10714286Y71450000D01*
X10571428Y71521429D01*
X10357143Y71521429D01*
X10214286Y71450000D01*
X10142857Y71378571D01*
X10071428Y71235714D01*
X10071428Y70807143D01*
X10142857Y70664286D01*
X10214286Y70592857D01*
X10357143Y70521429D01*
X10571428Y70521429D01*
X8785714Y70521429D02*
X8785714Y71307143D01*
X8857143Y71450000D01*
X9000000Y71521429D01*
X9285714Y71521429D01*
X9428571Y71450000D01*
X8785714Y70592857D02*
X8928571Y70521429D01*
X9285714Y70521429D01*
X9428571Y70592857D01*
X9500000Y70735714D01*
X9500000Y70878571D01*
X9428571Y71021429D01*
X9285714Y71092857D01*
X8928571Y71092857D01*
X8785714Y71164286D01*
X8071428Y70521429D02*
X8071428Y71521429D01*
X8071428Y71235714D02*
X8000000Y71378571D01*
X7928571Y71450000D01*
X7785714Y71521429D01*
X7642857Y71521429D01*
X6500000Y70521429D02*
X6500000Y72021429D01*
X6500000Y70592857D02*
X6642857Y70521429D01*
X6928571Y70521429D01*
X7071429Y70592857D01*
X7142857Y70664286D01*
X7214286Y70807143D01*
X7214286Y71235714D01*
X7142857Y71378571D01*
X7071429Y71450000D01*
X6928571Y71521429D01*
X6642857Y71521429D01*
X6500000Y71450000D01*
X17464285Y68121429D02*
X17464285Y69621429D01*
X16892857Y69621429D01*
X16749999Y69550000D01*
X16678571Y69478571D01*
X16607142Y69335714D01*
X16607142Y69121429D01*
X16678571Y68978571D01*
X16749999Y68907143D01*
X16892857Y68835714D01*
X17464285Y68835714D01*
X15749999Y68121429D02*
X15892857Y68192857D01*
X15964285Y68264286D01*
X16035714Y68407143D01*
X16035714Y68835714D01*
X15964285Y68978571D01*
X15892857Y69050000D01*
X15749999Y69121429D01*
X15535714Y69121429D01*
X15392857Y69050000D01*
X15321428Y68978571D01*
X15249999Y68835714D01*
X15249999Y68407143D01*
X15321428Y68264286D01*
X15392857Y68192857D01*
X15535714Y68121429D01*
X15749999Y68121429D01*
X14749999Y69121429D02*
X14464285Y68121429D01*
X14178571Y68835714D01*
X13892856Y68121429D01*
X13607142Y69121429D01*
X12464285Y68192857D02*
X12607142Y68121429D01*
X12892856Y68121429D01*
X13035713Y68192857D01*
X13107142Y68335714D01*
X13107142Y68907143D01*
X13035713Y69050000D01*
X12892856Y69121429D01*
X12607142Y69121429D01*
X12464285Y69050000D01*
X12392856Y68907143D01*
X12392856Y68764286D01*
X13107142Y68621429D01*
X11749999Y68121429D02*
X11749999Y69121429D01*
X11749999Y68835714D02*
X11678571Y68978571D01*
X11607142Y69050000D01*
X11464285Y69121429D01*
X11321428Y69121429D01*
X42714285Y71307143D02*
X42214285Y71307143D01*
X41999999Y70521429D02*
X42714285Y70521429D01*
X42714285Y72021429D01*
X41999999Y72021429D01*
X41499999Y70521429D02*
X40714285Y71521429D01*
X41499999Y71521429D02*
X40714285Y70521429D01*
X40357142Y71521429D02*
X39785713Y71521429D01*
X40142856Y72021429D02*
X40142856Y70735714D01*
X40071428Y70592857D01*
X39928570Y70521429D01*
X39785713Y70521429D01*
X38714285Y70592857D02*
X38857142Y70521429D01*
X39142856Y70521429D01*
X39285713Y70592857D01*
X39357142Y70735714D01*
X39357142Y71307143D01*
X39285713Y71450000D01*
X39142856Y71521429D01*
X38857142Y71521429D01*
X38714285Y71450000D01*
X38642856Y71307143D01*
X38642856Y71164286D01*
X39357142Y71021429D01*
X37999999Y70521429D02*
X37999999Y71521429D01*
X37999999Y71235714D02*
X37928571Y71378571D01*
X37857142Y71450000D01*
X37714285Y71521429D01*
X37571428Y71521429D01*
X37071428Y71521429D02*
X37071428Y70521429D01*
X37071428Y71378571D02*
X37000000Y71450000D01*
X36857142Y71521429D01*
X36642857Y71521429D01*
X36500000Y71450000D01*
X36428571Y71307143D01*
X36428571Y70521429D01*
X35071428Y70521429D02*
X35071428Y71307143D01*
X35142857Y71450000D01*
X35285714Y71521429D01*
X35571428Y71521429D01*
X35714285Y71450000D01*
X35071428Y70592857D02*
X35214285Y70521429D01*
X35571428Y70521429D01*
X35714285Y70592857D01*
X35785714Y70735714D01*
X35785714Y70878571D01*
X35714285Y71021429D01*
X35571428Y71092857D01*
X35214285Y71092857D01*
X35071428Y71164286D01*
X34142856Y70521429D02*
X34285714Y70592857D01*
X34357142Y70735714D01*
X34357142Y72021429D01*
X41464285Y68121429D02*
X41464285Y69621429D01*
X40892857Y69621429D01*
X40749999Y69550000D01*
X40678571Y69478571D01*
X40607142Y69335714D01*
X40607142Y69121429D01*
X40678571Y68978571D01*
X40749999Y68907143D01*
X40892857Y68835714D01*
X41464285Y68835714D01*
X39749999Y68121429D02*
X39892857Y68192857D01*
X39964285Y68264286D01*
X40035714Y68407143D01*
X40035714Y68835714D01*
X39964285Y68978571D01*
X39892857Y69050000D01*
X39749999Y69121429D01*
X39535714Y69121429D01*
X39392857Y69050000D01*
X39321428Y68978571D01*
X39249999Y68835714D01*
X39249999Y68407143D01*
X39321428Y68264286D01*
X39392857Y68192857D01*
X39535714Y68121429D01*
X39749999Y68121429D01*
X38749999Y69121429D02*
X38464285Y68121429D01*
X38178571Y68835714D01*
X37892856Y68121429D01*
X37607142Y69121429D01*
X36464285Y68192857D02*
X36607142Y68121429D01*
X36892856Y68121429D01*
X37035713Y68192857D01*
X37107142Y68335714D01*
X37107142Y68907143D01*
X37035713Y69050000D01*
X36892856Y69121429D01*
X36607142Y69121429D01*
X36464285Y69050000D01*
X36392856Y68907143D01*
X36392856Y68764286D01*
X37107142Y68621429D01*
X35749999Y68121429D02*
X35749999Y69121429D01*
X35749999Y68835714D02*
X35678571Y68978571D01*
X35607142Y69050000D01*
X35464285Y69121429D01*
X35321428Y69121429D01*
M02*
