G04 #@! TF.FileFunction,Legend,Top*
%FSLAX46Y46*%
G04 Gerber Fmt 4.6, Leading zero omitted, Abs format (unit mm)*
G04 Created by KiCad (PCBNEW (2015-12-07 BZR 6352)-product) date Fri 09 Sep 2016 08:12:53 PM EDT*
%MOMM*%
G01*
G04 APERTURE LIST*
%ADD10C,0.100000*%
%ADD11C,0.300000*%
%ADD12C,0.250000*%
%ADD13C,0.150000*%
G04 APERTURE END LIST*
D10*
D11*
X46807143Y38714285D02*
X46807143Y38214285D01*
X46021429Y37999999D02*
X46021429Y38714285D01*
X47521429Y38714285D01*
X47521429Y37999999D01*
X46021429Y37499999D02*
X47021429Y36714285D01*
X47021429Y37499999D02*
X46021429Y36714285D01*
X47021429Y36357142D02*
X47021429Y35785713D01*
X47521429Y36142856D02*
X46235714Y36142856D01*
X46092857Y36071428D01*
X46021429Y35928570D01*
X46021429Y35785713D01*
X46092857Y34714285D02*
X46021429Y34857142D01*
X46021429Y35142856D01*
X46092857Y35285713D01*
X46235714Y35357142D01*
X46807143Y35357142D01*
X46950000Y35285713D01*
X47021429Y35142856D01*
X47021429Y34857142D01*
X46950000Y34714285D01*
X46807143Y34642856D01*
X46664286Y34642856D01*
X46521429Y35357142D01*
X46021429Y33999999D02*
X47021429Y33999999D01*
X46735714Y33999999D02*
X46878571Y33928571D01*
X46950000Y33857142D01*
X47021429Y33714285D01*
X47021429Y33571428D01*
X47021429Y33071428D02*
X46021429Y33071428D01*
X46878571Y33071428D02*
X46950000Y33000000D01*
X47021429Y32857142D01*
X47021429Y32642857D01*
X46950000Y32500000D01*
X46807143Y32428571D01*
X46021429Y32428571D01*
X46021429Y31071428D02*
X46807143Y31071428D01*
X46950000Y31142857D01*
X47021429Y31285714D01*
X47021429Y31571428D01*
X46950000Y31714285D01*
X46092857Y31071428D02*
X46021429Y31214285D01*
X46021429Y31571428D01*
X46092857Y31714285D01*
X46235714Y31785714D01*
X46378571Y31785714D01*
X46521429Y31714285D01*
X46592857Y31571428D01*
X46592857Y31214285D01*
X46664286Y31071428D01*
X46021429Y30142856D02*
X46092857Y30285714D01*
X46235714Y30357142D01*
X47521429Y30357142D01*
X43692857Y36607143D02*
X43621429Y36392857D01*
X43621429Y36035714D01*
X43692857Y35892857D01*
X43764286Y35821428D01*
X43907143Y35750000D01*
X44050000Y35750000D01*
X44192857Y35821428D01*
X44264286Y35892857D01*
X44335714Y36035714D01*
X44407143Y36321428D01*
X44478571Y36464286D01*
X44550000Y36535714D01*
X44692857Y36607143D01*
X44835714Y36607143D01*
X44978571Y36535714D01*
X45050000Y36464286D01*
X45121429Y36321428D01*
X45121429Y35964286D01*
X45050000Y35750000D01*
X43621429Y35107143D02*
X44621429Y35107143D01*
X45121429Y35107143D02*
X45050000Y35178572D01*
X44978571Y35107143D01*
X45050000Y35035715D01*
X45121429Y35107143D01*
X44978571Y35107143D01*
X43621429Y33750000D02*
X45121429Y33750000D01*
X43692857Y33750000D02*
X43621429Y33892857D01*
X43621429Y34178571D01*
X43692857Y34321429D01*
X43764286Y34392857D01*
X43907143Y34464286D01*
X44335714Y34464286D01*
X44478571Y34392857D01*
X44550000Y34321429D01*
X44621429Y34178571D01*
X44621429Y33892857D01*
X44550000Y33750000D01*
X43692857Y32464286D02*
X43621429Y32607143D01*
X43621429Y32892857D01*
X43692857Y33035714D01*
X43835714Y33107143D01*
X44407143Y33107143D01*
X44550000Y33035714D01*
X44621429Y32892857D01*
X44621429Y32607143D01*
X44550000Y32464286D01*
X44407143Y32392857D01*
X44264286Y32392857D01*
X44121429Y33107143D01*
X5407143Y28928571D02*
X5478571Y29142857D01*
X5478571Y29500000D01*
X5407143Y29642857D01*
X5335714Y29714286D01*
X5192857Y29785714D01*
X5050000Y29785714D01*
X4907143Y29714286D01*
X4835714Y29642857D01*
X4764286Y29500000D01*
X4692857Y29214286D01*
X4621429Y29071428D01*
X4550000Y29000000D01*
X4407143Y28928571D01*
X4264286Y28928571D01*
X4121429Y29000000D01*
X4050000Y29071428D01*
X3978571Y29214286D01*
X3978571Y29571428D01*
X4050000Y29785714D01*
X5478571Y30428571D02*
X4478571Y30428571D01*
X4621429Y30428571D02*
X4550000Y30499999D01*
X4478571Y30642857D01*
X4478571Y30857142D01*
X4550000Y30999999D01*
X4692857Y31071428D01*
X5478571Y31071428D01*
X4692857Y31071428D02*
X4550000Y31142857D01*
X4478571Y31285714D01*
X4478571Y31499999D01*
X4550000Y31642857D01*
X4692857Y31714285D01*
X5478571Y31714285D01*
X5478571Y32642857D02*
X5407143Y32499999D01*
X5335714Y32428571D01*
X5192857Y32357142D01*
X4764286Y32357142D01*
X4621429Y32428571D01*
X4550000Y32499999D01*
X4478571Y32642857D01*
X4478571Y32857142D01*
X4550000Y32999999D01*
X4621429Y33071428D01*
X4764286Y33142857D01*
X5192857Y33142857D01*
X5335714Y33071428D01*
X5407143Y32999999D01*
X5478571Y32857142D01*
X5478571Y32642857D01*
X5478571Y34000000D02*
X5407143Y33857142D01*
X5335714Y33785714D01*
X5192857Y33714285D01*
X4764286Y33714285D01*
X4621429Y33785714D01*
X4550000Y33857142D01*
X4478571Y34000000D01*
X4478571Y34214285D01*
X4550000Y34357142D01*
X4621429Y34428571D01*
X4764286Y34500000D01*
X5192857Y34500000D01*
X5335714Y34428571D01*
X5407143Y34357142D01*
X5478571Y34214285D01*
X5478571Y34000000D01*
X4478571Y34928571D02*
X4478571Y35500000D01*
X3978571Y35142857D02*
X5264286Y35142857D01*
X5407143Y35214285D01*
X5478571Y35357143D01*
X5478571Y35500000D01*
X5478571Y36000000D02*
X3978571Y36000000D01*
X5478571Y36642857D02*
X4692857Y36642857D01*
X4550000Y36571428D01*
X4478571Y36428571D01*
X4478571Y36214286D01*
X4550000Y36071428D01*
X4621429Y36000000D01*
X5478571Y37357143D02*
X4478571Y37357143D01*
X3978571Y37357143D02*
X4050000Y37285714D01*
X4121429Y37357143D01*
X4050000Y37428571D01*
X3978571Y37357143D01*
X4121429Y37357143D01*
X5407143Y38642857D02*
X5478571Y38500000D01*
X5478571Y38214286D01*
X5407143Y38071429D01*
X5264286Y38000000D01*
X4692857Y38000000D01*
X4550000Y38071429D01*
X4478571Y38214286D01*
X4478571Y38500000D01*
X4550000Y38642857D01*
X4692857Y38714286D01*
X4835714Y38714286D01*
X4978571Y38000000D01*
X5478571Y39357143D02*
X3978571Y39357143D01*
X4550000Y39357143D02*
X4478571Y39500000D01*
X4478571Y39785714D01*
X4550000Y39928571D01*
X4621429Y40000000D01*
X4764286Y40071429D01*
X5192857Y40071429D01*
X5335714Y40000000D01*
X5407143Y39928571D01*
X5478571Y39785714D01*
X5478571Y39500000D01*
X5407143Y39357143D01*
X5478571Y40928572D02*
X5407143Y40785714D01*
X5335714Y40714286D01*
X5192857Y40642857D01*
X4764286Y40642857D01*
X4621429Y40714286D01*
X4550000Y40785714D01*
X4478571Y40928572D01*
X4478571Y41142857D01*
X4550000Y41285714D01*
X4621429Y41357143D01*
X4764286Y41428572D01*
X5192857Y41428572D01*
X5335714Y41357143D01*
X5407143Y41285714D01*
X5478571Y41142857D01*
X5478571Y40928572D01*
X5478571Y42714286D02*
X4692857Y42714286D01*
X4550000Y42642857D01*
X4478571Y42500000D01*
X4478571Y42214286D01*
X4550000Y42071429D01*
X5407143Y42714286D02*
X5478571Y42571429D01*
X5478571Y42214286D01*
X5407143Y42071429D01*
X5264286Y42000000D01*
X5121429Y42000000D01*
X4978571Y42071429D01*
X4907143Y42214286D01*
X4907143Y42571429D01*
X4835714Y42714286D01*
X5478571Y43428572D02*
X4478571Y43428572D01*
X4764286Y43428572D02*
X4621429Y43500000D01*
X4550000Y43571429D01*
X4478571Y43714286D01*
X4478571Y43857143D01*
X5478571Y45000000D02*
X3978571Y45000000D01*
X5407143Y45000000D02*
X5478571Y44857143D01*
X5478571Y44571429D01*
X5407143Y44428571D01*
X5335714Y44357143D01*
X5192857Y44285714D01*
X4764286Y44285714D01*
X4621429Y44357143D01*
X4550000Y44428571D01*
X4478571Y44571429D01*
X4478571Y44857143D01*
X4550000Y45000000D01*
X7807143Y34892857D02*
X7878571Y35107143D01*
X7878571Y35464286D01*
X7807143Y35607143D01*
X7735714Y35678572D01*
X7592857Y35750000D01*
X7450000Y35750000D01*
X7307143Y35678572D01*
X7235714Y35607143D01*
X7164286Y35464286D01*
X7092857Y35178572D01*
X7021429Y35035714D01*
X6950000Y34964286D01*
X6807143Y34892857D01*
X6664286Y34892857D01*
X6521429Y34964286D01*
X6450000Y35035714D01*
X6378571Y35178572D01*
X6378571Y35535714D01*
X6450000Y35750000D01*
X7878571Y36392857D02*
X6878571Y36392857D01*
X6378571Y36392857D02*
X6450000Y36321428D01*
X6521429Y36392857D01*
X6450000Y36464285D01*
X6378571Y36392857D01*
X6521429Y36392857D01*
X7878571Y37750000D02*
X6378571Y37750000D01*
X7807143Y37750000D02*
X7878571Y37607143D01*
X7878571Y37321429D01*
X7807143Y37178571D01*
X7735714Y37107143D01*
X7592857Y37035714D01*
X7164286Y37035714D01*
X7021429Y37107143D01*
X6950000Y37178571D01*
X6878571Y37321429D01*
X6878571Y37607143D01*
X6950000Y37750000D01*
X7807143Y39035714D02*
X7878571Y38892857D01*
X7878571Y38607143D01*
X7807143Y38464286D01*
X7664286Y38392857D01*
X7092857Y38392857D01*
X6950000Y38464286D01*
X6878571Y38607143D01*
X6878571Y38892857D01*
X6950000Y39035714D01*
X7092857Y39107143D01*
X7235714Y39107143D01*
X7378571Y38392857D01*
X37550000Y70857143D02*
X37478571Y70714286D01*
X37478571Y70500000D01*
X37550000Y70285715D01*
X37692857Y70142857D01*
X37835714Y70071429D01*
X38121429Y70000000D01*
X38335714Y70000000D01*
X38621429Y70071429D01*
X38764286Y70142857D01*
X38907143Y70285715D01*
X38978571Y70500000D01*
X38978571Y70642857D01*
X38907143Y70857143D01*
X38835714Y70928572D01*
X38335714Y70928572D01*
X38335714Y70642857D01*
X38978571Y71571429D02*
X37478571Y71571429D01*
X38978571Y72428572D01*
X37478571Y72428572D01*
X38978571Y73142858D02*
X37478571Y73142858D01*
X37478571Y73500001D01*
X37550000Y73714286D01*
X37692857Y73857144D01*
X37835714Y73928572D01*
X38121429Y74000001D01*
X38335714Y74000001D01*
X38621429Y73928572D01*
X38764286Y73857144D01*
X38907143Y73714286D01*
X38978571Y73500001D01*
X38978571Y73142858D01*
X39878571Y71714287D02*
X39878571Y71000001D01*
X40592857Y70928572D01*
X40521429Y71000001D01*
X40450000Y71142858D01*
X40450000Y71500001D01*
X40521429Y71642858D01*
X40592857Y71714287D01*
X40735714Y71785715D01*
X41092857Y71785715D01*
X41235714Y71714287D01*
X41307143Y71642858D01*
X41378571Y71500001D01*
X41378571Y71142858D01*
X41307143Y71000001D01*
X41235714Y70928572D01*
X39878571Y72214286D02*
X41378571Y72714286D01*
X39878571Y73214286D01*
X12550000Y70857143D02*
X12478571Y70714286D01*
X12478571Y70500000D01*
X12550000Y70285715D01*
X12692857Y70142857D01*
X12835714Y70071429D01*
X13121429Y70000000D01*
X13335714Y70000000D01*
X13621429Y70071429D01*
X13764286Y70142857D01*
X13907143Y70285715D01*
X13978571Y70500000D01*
X13978571Y70642857D01*
X13907143Y70857143D01*
X13835714Y70928572D01*
X13335714Y70928572D01*
X13335714Y70642857D01*
X13978571Y71571429D02*
X12478571Y71571429D01*
X13978571Y72428572D01*
X12478571Y72428572D01*
X13978571Y73142858D02*
X12478571Y73142858D01*
X12478571Y73500001D01*
X12550000Y73714286D01*
X12692857Y73857144D01*
X12835714Y73928572D01*
X13121429Y74000001D01*
X13335714Y74000001D01*
X13621429Y73928572D01*
X13764286Y73857144D01*
X13907143Y73714286D01*
X13978571Y73500001D01*
X13978571Y73142858D01*
X14878571Y71714287D02*
X14878571Y71000001D01*
X15592857Y70928572D01*
X15521429Y71000001D01*
X15450000Y71142858D01*
X15450000Y71500001D01*
X15521429Y71642858D01*
X15592857Y71714287D01*
X15735714Y71785715D01*
X16092857Y71785715D01*
X16235714Y71714287D01*
X16307143Y71642858D01*
X16378571Y71500001D01*
X16378571Y71142858D01*
X16307143Y71000001D01*
X16235714Y70928572D01*
X14878571Y72214286D02*
X16378571Y72714286D01*
X14878571Y73214286D01*
D12*
X37214286Y58847619D02*
X37214286Y59847619D01*
X37785715Y58847619D01*
X37785715Y59847619D01*
X38833334Y58942857D02*
X38785715Y58895238D01*
X38642858Y58847619D01*
X38547620Y58847619D01*
X38404762Y58895238D01*
X38309524Y58990476D01*
X38261905Y59085714D01*
X38214286Y59276190D01*
X38214286Y59419048D01*
X38261905Y59609524D01*
X38309524Y59704762D01*
X38404762Y59800000D01*
X38547620Y59847619D01*
X38642858Y59847619D01*
X38785715Y59800000D01*
X38833334Y59752381D01*
X37000001Y58150000D02*
X36904763Y58197619D01*
X36761906Y58197619D01*
X36619048Y58150000D01*
X36523810Y58054762D01*
X36476191Y57959524D01*
X36428572Y57769048D01*
X36428572Y57626190D01*
X36476191Y57435714D01*
X36523810Y57340476D01*
X36619048Y57245238D01*
X36761906Y57197619D01*
X36857144Y57197619D01*
X37000001Y57245238D01*
X37047620Y57292857D01*
X37047620Y57626190D01*
X36857144Y57626190D01*
X37476191Y57197619D02*
X37476191Y58197619D01*
X37857144Y58197619D01*
X37952382Y58150000D01*
X38000001Y58102381D01*
X38047620Y58007143D01*
X38047620Y57864286D01*
X38000001Y57769048D01*
X37952382Y57721429D01*
X37857144Y57673810D01*
X37476191Y57673810D01*
X38476191Y57197619D02*
X38476191Y58197619D01*
X39142857Y58197619D02*
X39333334Y58197619D01*
X39428572Y58150000D01*
X39523810Y58054762D01*
X39571429Y57864286D01*
X39571429Y57530952D01*
X39523810Y57340476D01*
X39428572Y57245238D01*
X39333334Y57197619D01*
X39142857Y57197619D01*
X39047619Y57245238D01*
X38952381Y57340476D01*
X38904762Y57530952D01*
X38904762Y57864286D01*
X38952381Y58054762D01*
X39047619Y58150000D01*
X39142857Y58197619D01*
X37000001Y56500000D02*
X36904763Y56547619D01*
X36761906Y56547619D01*
X36619048Y56500000D01*
X36523810Y56404762D01*
X36476191Y56309524D01*
X36428572Y56119048D01*
X36428572Y55976190D01*
X36476191Y55785714D01*
X36523810Y55690476D01*
X36619048Y55595238D01*
X36761906Y55547619D01*
X36857144Y55547619D01*
X37000001Y55595238D01*
X37047620Y55642857D01*
X37047620Y55976190D01*
X36857144Y55976190D01*
X37476191Y55547619D02*
X37476191Y56547619D01*
X37857144Y56547619D01*
X37952382Y56500000D01*
X38000001Y56452381D01*
X38047620Y56357143D01*
X38047620Y56214286D01*
X38000001Y56119048D01*
X37952382Y56071429D01*
X37857144Y56023810D01*
X37476191Y56023810D01*
X38476191Y55547619D02*
X38476191Y56547619D01*
X39142857Y56547619D02*
X39333334Y56547619D01*
X39428572Y56500000D01*
X39523810Y56404762D01*
X39571429Y56214286D01*
X39571429Y55880952D01*
X39523810Y55690476D01*
X39428572Y55595238D01*
X39333334Y55547619D01*
X39142857Y55547619D01*
X39047619Y55595238D01*
X38952381Y55690476D01*
X38904762Y55880952D01*
X38904762Y56214286D01*
X38952381Y56404762D01*
X39047619Y56500000D01*
X39142857Y56547619D01*
X36428572Y53897619D02*
X36428572Y54897619D01*
X36761906Y54183333D01*
X37095239Y54897619D01*
X37095239Y53897619D01*
X37761905Y54897619D02*
X37952382Y54897619D01*
X38047620Y54850000D01*
X38142858Y54754762D01*
X38190477Y54564286D01*
X38190477Y54230952D01*
X38142858Y54040476D01*
X38047620Y53945238D01*
X37952382Y53897619D01*
X37761905Y53897619D01*
X37666667Y53945238D01*
X37571429Y54040476D01*
X37523810Y54230952D01*
X37523810Y54564286D01*
X37571429Y54754762D01*
X37666667Y54850000D01*
X37761905Y54897619D01*
X38571429Y53945238D02*
X38714286Y53897619D01*
X38952382Y53897619D01*
X39047620Y53945238D01*
X39095239Y53992857D01*
X39142858Y54088095D01*
X39142858Y54183333D01*
X39095239Y54278571D01*
X39047620Y54326190D01*
X38952382Y54373810D01*
X38761905Y54421429D01*
X38666667Y54469048D01*
X38619048Y54516667D01*
X38571429Y54611905D01*
X38571429Y54707143D01*
X38619048Y54802381D01*
X38666667Y54850000D01*
X38761905Y54897619D01*
X39000001Y54897619D01*
X39142858Y54850000D01*
X39571429Y53897619D02*
X39571429Y54897619D01*
X36714286Y52295238D02*
X36857143Y52247619D01*
X37095239Y52247619D01*
X37190477Y52295238D01*
X37238096Y52342857D01*
X37285715Y52438095D01*
X37285715Y52533333D01*
X37238096Y52628571D01*
X37190477Y52676190D01*
X37095239Y52723810D01*
X36904762Y52771429D01*
X36809524Y52819048D01*
X36761905Y52866667D01*
X36714286Y52961905D01*
X36714286Y53057143D01*
X36761905Y53152381D01*
X36809524Y53200000D01*
X36904762Y53247619D01*
X37142858Y53247619D01*
X37285715Y53200000D01*
X38285715Y52342857D02*
X38238096Y52295238D01*
X38095239Y52247619D01*
X38000001Y52247619D01*
X37857143Y52295238D01*
X37761905Y52390476D01*
X37714286Y52485714D01*
X37666667Y52676190D01*
X37666667Y52819048D01*
X37714286Y53009524D01*
X37761905Y53104762D01*
X37857143Y53200000D01*
X38000001Y53247619D01*
X38095239Y53247619D01*
X38238096Y53200000D01*
X38285715Y53152381D01*
X38714286Y52247619D02*
X38714286Y53247619D01*
X39285715Y52247619D02*
X38857143Y52819048D01*
X39285715Y53247619D02*
X38714286Y52676190D01*
X46809524Y59347619D02*
X46333333Y59347619D01*
X46285714Y58871429D01*
X46333333Y58919048D01*
X46428571Y58966667D01*
X46666667Y58966667D01*
X46761905Y58919048D01*
X46809524Y58871429D01*
X46857143Y58776190D01*
X46857143Y58538095D01*
X46809524Y58442857D01*
X46761905Y58395238D01*
X46666667Y58347619D01*
X46428571Y58347619D01*
X46333333Y58395238D01*
X46285714Y58442857D01*
X47142857Y59347619D02*
X47476190Y58347619D01*
X47809524Y59347619D01*
X46000001Y57650000D02*
X45904763Y57697619D01*
X45761906Y57697619D01*
X45619048Y57650000D01*
X45523810Y57554762D01*
X45476191Y57459524D01*
X45428572Y57269048D01*
X45428572Y57126190D01*
X45476191Y56935714D01*
X45523810Y56840476D01*
X45619048Y56745238D01*
X45761906Y56697619D01*
X45857144Y56697619D01*
X46000001Y56745238D01*
X46047620Y56792857D01*
X46047620Y57126190D01*
X45857144Y57126190D01*
X46476191Y56697619D02*
X46476191Y57697619D01*
X46857144Y57697619D01*
X46952382Y57650000D01*
X47000001Y57602381D01*
X47047620Y57507143D01*
X47047620Y57364286D01*
X47000001Y57269048D01*
X46952382Y57221429D01*
X46857144Y57173810D01*
X46476191Y57173810D01*
X47476191Y56697619D02*
X47476191Y57697619D01*
X48142857Y57697619D02*
X48333334Y57697619D01*
X48428572Y57650000D01*
X48523810Y57554762D01*
X48571429Y57364286D01*
X48571429Y57030952D01*
X48523810Y56840476D01*
X48428572Y56745238D01*
X48333334Y56697619D01*
X48142857Y56697619D01*
X48047619Y56745238D01*
X47952381Y56840476D01*
X47904762Y57030952D01*
X47904762Y57364286D01*
X47952381Y57554762D01*
X48047619Y57650000D01*
X48142857Y57697619D01*
X46833334Y55142857D02*
X46785715Y55095238D01*
X46642858Y55047619D01*
X46547620Y55047619D01*
X46404762Y55095238D01*
X46309524Y55190476D01*
X46261905Y55285714D01*
X46214286Y55476190D01*
X46214286Y55619048D01*
X46261905Y55809524D01*
X46309524Y55904762D01*
X46404762Y56000000D01*
X46547620Y56047619D01*
X46642858Y56047619D01*
X46785715Y56000000D01*
X46833334Y55952381D01*
X47214286Y55095238D02*
X47357143Y55047619D01*
X47595239Y55047619D01*
X47690477Y55095238D01*
X47738096Y55142857D01*
X47785715Y55238095D01*
X47785715Y55333333D01*
X47738096Y55428571D01*
X47690477Y55476190D01*
X47595239Y55523810D01*
X47404762Y55571429D01*
X47309524Y55619048D01*
X47261905Y55666667D01*
X47214286Y55761905D01*
X47214286Y55857143D01*
X47261905Y55952381D01*
X47309524Y56000000D01*
X47404762Y56047619D01*
X47642858Y56047619D01*
X47785715Y56000000D01*
X45428572Y53397619D02*
X45428572Y54397619D01*
X45761906Y53683333D01*
X46095239Y54397619D01*
X46095239Y53397619D01*
X46571429Y53397619D02*
X46571429Y54397619D01*
X47000000Y53445238D02*
X47142857Y53397619D01*
X47380953Y53397619D01*
X47476191Y53445238D01*
X47523810Y53492857D01*
X47571429Y53588095D01*
X47571429Y53683333D01*
X47523810Y53778571D01*
X47476191Y53826190D01*
X47380953Y53873810D01*
X47190476Y53921429D01*
X47095238Y53969048D01*
X47047619Y54016667D01*
X47000000Y54111905D01*
X47000000Y54207143D01*
X47047619Y54302381D01*
X47095238Y54350000D01*
X47190476Y54397619D01*
X47428572Y54397619D01*
X47571429Y54350000D01*
X48190476Y54397619D02*
X48380953Y54397619D01*
X48476191Y54350000D01*
X48571429Y54254762D01*
X48619048Y54064286D01*
X48619048Y53730952D01*
X48571429Y53540476D01*
X48476191Y53445238D01*
X48380953Y53397619D01*
X48190476Y53397619D01*
X48095238Y53445238D01*
X48000000Y53540476D01*
X47952381Y53730952D01*
X47952381Y54064286D01*
X48000000Y54254762D01*
X48095238Y54350000D01*
X48190476Y54397619D01*
X46238096Y52700000D02*
X46142858Y52747619D01*
X46000001Y52747619D01*
X45857143Y52700000D01*
X45761905Y52604762D01*
X45714286Y52509524D01*
X45666667Y52319048D01*
X45666667Y52176190D01*
X45714286Y51985714D01*
X45761905Y51890476D01*
X45857143Y51795238D01*
X46000001Y51747619D01*
X46095239Y51747619D01*
X46238096Y51795238D01*
X46285715Y51842857D01*
X46285715Y52176190D01*
X46095239Y52176190D01*
X46714286Y51747619D02*
X46714286Y52747619D01*
X47285715Y51747619D01*
X47285715Y52747619D01*
X47761905Y51747619D02*
X47761905Y52747619D01*
X48000000Y52747619D01*
X48142858Y52700000D01*
X48238096Y52604762D01*
X48285715Y52509524D01*
X48333334Y52319048D01*
X48333334Y52176190D01*
X48285715Y51985714D01*
X48238096Y51890476D01*
X48142858Y51795238D01*
X48000000Y51747619D01*
X47761905Y51747619D01*
X13309524Y48547619D02*
X12738095Y48547619D01*
X13023809Y48547619D02*
X13023809Y49547619D01*
X12928571Y49404762D01*
X12833333Y49309524D01*
X12738095Y49261905D01*
X13928571Y49547619D02*
X14023810Y49547619D01*
X14119048Y49500000D01*
X14166667Y49452381D01*
X14214286Y49357143D01*
X14261905Y49166667D01*
X14261905Y48928571D01*
X14214286Y48738095D01*
X14166667Y48642857D01*
X14119048Y48595238D01*
X14023810Y48547619D01*
X13928571Y48547619D01*
X13833333Y48595238D01*
X13785714Y48642857D01*
X13738095Y48738095D01*
X13690476Y48928571D01*
X13690476Y49166667D01*
X13738095Y49357143D01*
X13785714Y49452381D01*
X13833333Y49500000D01*
X13928571Y49547619D01*
X4214286Y58847619D02*
X4214286Y59847619D01*
X4785715Y58847619D01*
X4785715Y59847619D01*
X5833334Y58942857D02*
X5785715Y58895238D01*
X5642858Y58847619D01*
X5547620Y58847619D01*
X5404762Y58895238D01*
X5309524Y58990476D01*
X5261905Y59085714D01*
X5214286Y59276190D01*
X5214286Y59419048D01*
X5261905Y59609524D01*
X5309524Y59704762D01*
X5404762Y59800000D01*
X5547620Y59847619D01*
X5642858Y59847619D01*
X5785715Y59800000D01*
X5833334Y59752381D01*
X4000001Y58150000D02*
X3904763Y58197619D01*
X3761906Y58197619D01*
X3619048Y58150000D01*
X3523810Y58054762D01*
X3476191Y57959524D01*
X3428572Y57769048D01*
X3428572Y57626190D01*
X3476191Y57435714D01*
X3523810Y57340476D01*
X3619048Y57245238D01*
X3761906Y57197619D01*
X3857144Y57197619D01*
X4000001Y57245238D01*
X4047620Y57292857D01*
X4047620Y57626190D01*
X3857144Y57626190D01*
X4476191Y57197619D02*
X4476191Y58197619D01*
X4857144Y58197619D01*
X4952382Y58150000D01*
X5000001Y58102381D01*
X5047620Y58007143D01*
X5047620Y57864286D01*
X5000001Y57769048D01*
X4952382Y57721429D01*
X4857144Y57673810D01*
X4476191Y57673810D01*
X5476191Y57197619D02*
X5476191Y58197619D01*
X6142857Y58197619D02*
X6333334Y58197619D01*
X6428572Y58150000D01*
X6523810Y58054762D01*
X6571429Y57864286D01*
X6571429Y57530952D01*
X6523810Y57340476D01*
X6428572Y57245238D01*
X6333334Y57197619D01*
X6142857Y57197619D01*
X6047619Y57245238D01*
X5952381Y57340476D01*
X5904762Y57530952D01*
X5904762Y57864286D01*
X5952381Y58054762D01*
X6047619Y58150000D01*
X6142857Y58197619D01*
X4000001Y56500000D02*
X3904763Y56547619D01*
X3761906Y56547619D01*
X3619048Y56500000D01*
X3523810Y56404762D01*
X3476191Y56309524D01*
X3428572Y56119048D01*
X3428572Y55976190D01*
X3476191Y55785714D01*
X3523810Y55690476D01*
X3619048Y55595238D01*
X3761906Y55547619D01*
X3857144Y55547619D01*
X4000001Y55595238D01*
X4047620Y55642857D01*
X4047620Y55976190D01*
X3857144Y55976190D01*
X4476191Y55547619D02*
X4476191Y56547619D01*
X4857144Y56547619D01*
X4952382Y56500000D01*
X5000001Y56452381D01*
X5047620Y56357143D01*
X5047620Y56214286D01*
X5000001Y56119048D01*
X4952382Y56071429D01*
X4857144Y56023810D01*
X4476191Y56023810D01*
X5476191Y55547619D02*
X5476191Y56547619D01*
X6142857Y56547619D02*
X6333334Y56547619D01*
X6428572Y56500000D01*
X6523810Y56404762D01*
X6571429Y56214286D01*
X6571429Y55880952D01*
X6523810Y55690476D01*
X6428572Y55595238D01*
X6333334Y55547619D01*
X6142857Y55547619D01*
X6047619Y55595238D01*
X5952381Y55690476D01*
X5904762Y55880952D01*
X5904762Y56214286D01*
X5952381Y56404762D01*
X6047619Y56500000D01*
X6142857Y56547619D01*
X3428572Y53897619D02*
X3428572Y54897619D01*
X3761906Y54183333D01*
X4095239Y54897619D01*
X4095239Y53897619D01*
X4761905Y54897619D02*
X4952382Y54897619D01*
X5047620Y54850000D01*
X5142858Y54754762D01*
X5190477Y54564286D01*
X5190477Y54230952D01*
X5142858Y54040476D01*
X5047620Y53945238D01*
X4952382Y53897619D01*
X4761905Y53897619D01*
X4666667Y53945238D01*
X4571429Y54040476D01*
X4523810Y54230952D01*
X4523810Y54564286D01*
X4571429Y54754762D01*
X4666667Y54850000D01*
X4761905Y54897619D01*
X5571429Y53945238D02*
X5714286Y53897619D01*
X5952382Y53897619D01*
X6047620Y53945238D01*
X6095239Y53992857D01*
X6142858Y54088095D01*
X6142858Y54183333D01*
X6095239Y54278571D01*
X6047620Y54326190D01*
X5952382Y54373810D01*
X5761905Y54421429D01*
X5666667Y54469048D01*
X5619048Y54516667D01*
X5571429Y54611905D01*
X5571429Y54707143D01*
X5619048Y54802381D01*
X5666667Y54850000D01*
X5761905Y54897619D01*
X6000001Y54897619D01*
X6142858Y54850000D01*
X6571429Y53897619D02*
X6571429Y54897619D01*
X3714286Y52295238D02*
X3857143Y52247619D01*
X4095239Y52247619D01*
X4190477Y52295238D01*
X4238096Y52342857D01*
X4285715Y52438095D01*
X4285715Y52533333D01*
X4238096Y52628571D01*
X4190477Y52676190D01*
X4095239Y52723810D01*
X3904762Y52771429D01*
X3809524Y52819048D01*
X3761905Y52866667D01*
X3714286Y52961905D01*
X3714286Y53057143D01*
X3761905Y53152381D01*
X3809524Y53200000D01*
X3904762Y53247619D01*
X4142858Y53247619D01*
X4285715Y53200000D01*
X5285715Y52342857D02*
X5238096Y52295238D01*
X5095239Y52247619D01*
X5000001Y52247619D01*
X4857143Y52295238D01*
X4761905Y52390476D01*
X4714286Y52485714D01*
X4666667Y52676190D01*
X4666667Y52819048D01*
X4714286Y53009524D01*
X4761905Y53104762D01*
X4857143Y53200000D01*
X5000001Y53247619D01*
X5095239Y53247619D01*
X5238096Y53200000D01*
X5285715Y53152381D01*
X5714286Y52247619D02*
X5714286Y53247619D01*
X6285715Y52247619D02*
X5857143Y52819048D01*
X6285715Y53247619D02*
X5714286Y52676190D01*
X13809524Y59847619D02*
X13333333Y59847619D01*
X13285714Y59371429D01*
X13333333Y59419048D01*
X13428571Y59466667D01*
X13666667Y59466667D01*
X13761905Y59419048D01*
X13809524Y59371429D01*
X13857143Y59276190D01*
X13857143Y59038095D01*
X13809524Y58942857D01*
X13761905Y58895238D01*
X13666667Y58847619D01*
X13428571Y58847619D01*
X13333333Y58895238D01*
X13285714Y58942857D01*
X14142857Y59847619D02*
X14476190Y58847619D01*
X14809524Y59847619D01*
X13000001Y58150000D02*
X12904763Y58197619D01*
X12761906Y58197619D01*
X12619048Y58150000D01*
X12523810Y58054762D01*
X12476191Y57959524D01*
X12428572Y57769048D01*
X12428572Y57626190D01*
X12476191Y57435714D01*
X12523810Y57340476D01*
X12619048Y57245238D01*
X12761906Y57197619D01*
X12857144Y57197619D01*
X13000001Y57245238D01*
X13047620Y57292857D01*
X13047620Y57626190D01*
X12857144Y57626190D01*
X13476191Y57197619D02*
X13476191Y58197619D01*
X13857144Y58197619D01*
X13952382Y58150000D01*
X14000001Y58102381D01*
X14047620Y58007143D01*
X14047620Y57864286D01*
X14000001Y57769048D01*
X13952382Y57721429D01*
X13857144Y57673810D01*
X13476191Y57673810D01*
X14476191Y57197619D02*
X14476191Y58197619D01*
X15142857Y58197619D02*
X15333334Y58197619D01*
X15428572Y58150000D01*
X15523810Y58054762D01*
X15571429Y57864286D01*
X15571429Y57530952D01*
X15523810Y57340476D01*
X15428572Y57245238D01*
X15333334Y57197619D01*
X15142857Y57197619D01*
X15047619Y57245238D01*
X14952381Y57340476D01*
X14904762Y57530952D01*
X14904762Y57864286D01*
X14952381Y58054762D01*
X15047619Y58150000D01*
X15142857Y58197619D01*
X13833334Y55642857D02*
X13785715Y55595238D01*
X13642858Y55547619D01*
X13547620Y55547619D01*
X13404762Y55595238D01*
X13309524Y55690476D01*
X13261905Y55785714D01*
X13214286Y55976190D01*
X13214286Y56119048D01*
X13261905Y56309524D01*
X13309524Y56404762D01*
X13404762Y56500000D01*
X13547620Y56547619D01*
X13642858Y56547619D01*
X13785715Y56500000D01*
X13833334Y56452381D01*
X14214286Y55595238D02*
X14357143Y55547619D01*
X14595239Y55547619D01*
X14690477Y55595238D01*
X14738096Y55642857D01*
X14785715Y55738095D01*
X14785715Y55833333D01*
X14738096Y55928571D01*
X14690477Y55976190D01*
X14595239Y56023810D01*
X14404762Y56071429D01*
X14309524Y56119048D01*
X14261905Y56166667D01*
X14214286Y56261905D01*
X14214286Y56357143D01*
X14261905Y56452381D01*
X14309524Y56500000D01*
X14404762Y56547619D01*
X14642858Y56547619D01*
X14785715Y56500000D01*
X12428572Y53897619D02*
X12428572Y54897619D01*
X12761906Y54183333D01*
X13095239Y54897619D01*
X13095239Y53897619D01*
X13571429Y53897619D02*
X13571429Y54897619D01*
X14000000Y53945238D02*
X14142857Y53897619D01*
X14380953Y53897619D01*
X14476191Y53945238D01*
X14523810Y53992857D01*
X14571429Y54088095D01*
X14571429Y54183333D01*
X14523810Y54278571D01*
X14476191Y54326190D01*
X14380953Y54373810D01*
X14190476Y54421429D01*
X14095238Y54469048D01*
X14047619Y54516667D01*
X14000000Y54611905D01*
X14000000Y54707143D01*
X14047619Y54802381D01*
X14095238Y54850000D01*
X14190476Y54897619D01*
X14428572Y54897619D01*
X14571429Y54850000D01*
X15190476Y54897619D02*
X15380953Y54897619D01*
X15476191Y54850000D01*
X15571429Y54754762D01*
X15619048Y54564286D01*
X15619048Y54230952D01*
X15571429Y54040476D01*
X15476191Y53945238D01*
X15380953Y53897619D01*
X15190476Y53897619D01*
X15095238Y53945238D01*
X15000000Y54040476D01*
X14952381Y54230952D01*
X14952381Y54564286D01*
X15000000Y54754762D01*
X15095238Y54850000D01*
X15190476Y54897619D01*
X13238096Y53200000D02*
X13142858Y53247619D01*
X13000001Y53247619D01*
X12857143Y53200000D01*
X12761905Y53104762D01*
X12714286Y53009524D01*
X12666667Y52819048D01*
X12666667Y52676190D01*
X12714286Y52485714D01*
X12761905Y52390476D01*
X12857143Y52295238D01*
X13000001Y52247619D01*
X13095239Y52247619D01*
X13238096Y52295238D01*
X13285715Y52342857D01*
X13285715Y52676190D01*
X13095239Y52676190D01*
X13714286Y52247619D02*
X13714286Y53247619D01*
X14285715Y52247619D01*
X14285715Y53247619D01*
X14761905Y52247619D02*
X14761905Y53247619D01*
X15000000Y53247619D01*
X15142858Y53200000D01*
X15238096Y53104762D01*
X15285715Y53009524D01*
X15333334Y52819048D01*
X15333334Y52676190D01*
X15285715Y52485714D01*
X15238096Y52390476D01*
X15142858Y52295238D01*
X15000000Y52247619D01*
X14761905Y52247619D01*
X6785715Y62547619D02*
X6214286Y62547619D01*
X6500000Y62547619D02*
X6500000Y63547619D01*
X6404762Y63404762D01*
X6309524Y63309524D01*
X6214286Y63261905D01*
X46309524Y48547619D02*
X45738095Y48547619D01*
X46023809Y48547619D02*
X46023809Y49547619D01*
X45928571Y49404762D01*
X45833333Y49309524D01*
X45738095Y49261905D01*
X46928571Y49547619D02*
X47023810Y49547619D01*
X47119048Y49500000D01*
X47166667Y49452381D01*
X47214286Y49357143D01*
X47261905Y49166667D01*
X47261905Y48928571D01*
X47214286Y48738095D01*
X47166667Y48642857D01*
X47119048Y48595238D01*
X47023810Y48547619D01*
X46928571Y48547619D01*
X46833333Y48595238D01*
X46785714Y48642857D01*
X46738095Y48738095D01*
X46690476Y48928571D01*
X46690476Y49166667D01*
X46738095Y49357143D01*
X46785714Y49452381D01*
X46833333Y49500000D01*
X46928571Y49547619D01*
X39785715Y62547619D02*
X39214286Y62547619D01*
X39500000Y62547619D02*
X39500000Y63547619D01*
X39404762Y63404762D01*
X39309524Y63309524D01*
X39214286Y63261905D01*
D13*
X7025000Y62380000D02*
X7025000Y55880000D01*
X12025000Y62380000D02*
X7025000Y62380000D01*
X12025000Y49380000D02*
X12025000Y62380000D01*
X7025000Y49380000D02*
X12025000Y49380000D01*
X7025000Y55880000D02*
X7025000Y49380000D01*
X19400000Y38135000D02*
X18700000Y38135000D01*
X18700000Y39335000D02*
X19400000Y39335000D01*
X33940000Y52670000D02*
X34640000Y52670000D01*
X34640000Y51470000D02*
X33940000Y51470000D01*
X33940000Y74260000D02*
X34640000Y74260000D01*
X34640000Y73060000D02*
X33940000Y73060000D01*
X33940000Y20285000D02*
X34640000Y20285000D01*
X34640000Y19085000D02*
X33940000Y19085000D01*
X33940000Y63465000D02*
X34640000Y63465000D01*
X34640000Y62265000D02*
X33940000Y62265000D01*
X33940000Y9490000D02*
X34640000Y9490000D01*
X34640000Y8290000D02*
X33940000Y8290000D01*
X33940000Y31080000D02*
X34640000Y31080000D01*
X34640000Y29880000D02*
X33940000Y29880000D01*
X14224000Y77470000D02*
X16764000Y77470000D01*
X11404000Y77750000D02*
X12954000Y77750000D01*
X14224000Y77470000D02*
X14224000Y74930000D01*
X12954000Y74650000D02*
X11404000Y74650000D01*
X11404000Y74650000D02*
X11404000Y77750000D01*
X14224000Y74930000D02*
X16764000Y74930000D01*
X16764000Y74930000D02*
X16764000Y77470000D01*
X39370000Y77470000D02*
X41910000Y77470000D01*
X36550000Y77750000D02*
X38100000Y77750000D01*
X39370000Y77470000D02*
X39370000Y74930000D01*
X38100000Y74650000D02*
X36550000Y74650000D01*
X36550000Y74650000D02*
X36550000Y77750000D01*
X39370000Y74930000D02*
X41910000Y74930000D01*
X41910000Y74930000D02*
X41910000Y77470000D01*
X18550000Y71795000D02*
X19550000Y71795000D01*
X19550000Y70445000D02*
X18550000Y70445000D01*
X18550000Y61000000D02*
X19550000Y61000000D01*
X19550000Y59650000D02*
X18550000Y59650000D01*
X18550000Y50205000D02*
X19550000Y50205000D01*
X19550000Y48855000D02*
X18550000Y48855000D01*
X35010000Y40600000D02*
X34010000Y40600000D01*
X34010000Y41950000D02*
X35010000Y41950000D01*
X33790000Y71795000D02*
X34790000Y71795000D01*
X34790000Y70445000D02*
X33790000Y70445000D01*
X33790000Y61000000D02*
X34790000Y61000000D01*
X34790000Y59650000D02*
X33790000Y59650000D01*
X33790000Y50205000D02*
X34790000Y50205000D01*
X34790000Y48855000D02*
X33790000Y48855000D01*
X19550000Y40600000D02*
X18550000Y40600000D01*
X18550000Y41950000D02*
X19550000Y41950000D01*
X18550000Y28615000D02*
X19550000Y28615000D01*
X19550000Y27265000D02*
X18550000Y27265000D01*
X18550000Y17820000D02*
X19550000Y17820000D01*
X19550000Y16470000D02*
X18550000Y16470000D01*
X18550000Y7025000D02*
X19550000Y7025000D01*
X19550000Y5675000D02*
X18550000Y5675000D01*
X33790000Y28615000D02*
X34790000Y28615000D01*
X34790000Y27265000D02*
X33790000Y27265000D01*
X33790000Y17820000D02*
X34790000Y17820000D01*
X34790000Y16470000D02*
X33790000Y16470000D01*
X33790000Y7025000D02*
X34790000Y7025000D01*
X34790000Y5675000D02*
X33790000Y5675000D01*
X29210000Y77470000D02*
X24130000Y77470000D01*
X24130000Y77470000D02*
X24130000Y67310000D01*
X24130000Y67310000D02*
X29210000Y67310000D01*
X29210000Y67310000D02*
X29210000Y77470000D01*
X27940000Y77470000D02*
X27940000Y76200000D01*
X27940000Y76200000D02*
X25400000Y76200000D01*
X25400000Y76200000D02*
X25400000Y77470000D01*
X29210000Y66675000D02*
X24130000Y66675000D01*
X24130000Y66675000D02*
X24130000Y56515000D01*
X24130000Y56515000D02*
X29210000Y56515000D01*
X29210000Y56515000D02*
X29210000Y66675000D01*
X27940000Y66675000D02*
X27940000Y65405000D01*
X27940000Y65405000D02*
X25400000Y65405000D01*
X25400000Y65405000D02*
X25400000Y66675000D01*
X29210000Y55880000D02*
X24130000Y55880000D01*
X24130000Y55880000D02*
X24130000Y45720000D01*
X24130000Y45720000D02*
X29210000Y45720000D01*
X29210000Y45720000D02*
X29210000Y55880000D01*
X27940000Y55880000D02*
X27940000Y54610000D01*
X27940000Y54610000D02*
X25400000Y54610000D01*
X25400000Y54610000D02*
X25400000Y55880000D01*
X24130000Y34925000D02*
X29210000Y34925000D01*
X29210000Y34925000D02*
X29210000Y45085000D01*
X29210000Y45085000D02*
X24130000Y45085000D01*
X24130000Y45085000D02*
X24130000Y34925000D01*
X25400000Y34925000D02*
X25400000Y36195000D01*
X25400000Y36195000D02*
X27940000Y36195000D01*
X27940000Y36195000D02*
X27940000Y34925000D01*
X29210000Y34290000D02*
X24130000Y34290000D01*
X24130000Y34290000D02*
X24130000Y24130000D01*
X24130000Y24130000D02*
X29210000Y24130000D01*
X29210000Y24130000D02*
X29210000Y34290000D01*
X27940000Y34290000D02*
X27940000Y33020000D01*
X27940000Y33020000D02*
X25400000Y33020000D01*
X25400000Y33020000D02*
X25400000Y34290000D01*
X29210000Y23495000D02*
X24130000Y23495000D01*
X24130000Y23495000D02*
X24130000Y13335000D01*
X24130000Y13335000D02*
X29210000Y13335000D01*
X29210000Y13335000D02*
X29210000Y23495000D01*
X27940000Y23495000D02*
X27940000Y22225000D01*
X27940000Y22225000D02*
X25400000Y22225000D01*
X25400000Y22225000D02*
X25400000Y23495000D01*
X29210000Y12700000D02*
X24130000Y12700000D01*
X24130000Y12700000D02*
X24130000Y2540000D01*
X24130000Y2540000D02*
X29210000Y2540000D01*
X29210000Y2540000D02*
X29210000Y12700000D01*
X27940000Y12700000D02*
X27940000Y11430000D01*
X27940000Y11430000D02*
X25400000Y11430000D01*
X25400000Y11430000D02*
X25400000Y12700000D01*
X40045000Y62380000D02*
X40045000Y55880000D01*
X45045000Y62380000D02*
X40045000Y62380000D01*
X45045000Y49380000D02*
X45045000Y62380000D01*
X40045000Y49380000D02*
X45045000Y49380000D01*
X40045000Y55880000D02*
X40045000Y49380000D01*
X47286000Y5080000D02*
G75*
G03X47286000Y5080000I-2286000J0D01*
G01*
X7286000Y5080000D02*
G75*
G03X7286000Y5080000I-2286000J0D01*
G01*
X7286000Y75000000D02*
G75*
G03X7286000Y75000000I-2286000J0D01*
G01*
X47286000Y75000000D02*
G75*
G03X47286000Y75000000I-2286000J0D01*
G01*
X5976191Y48142857D02*
X5928572Y48095238D01*
X5785715Y48047619D01*
X5690477Y48047619D01*
X5547619Y48095238D01*
X5452381Y48190476D01*
X5404762Y48285714D01*
X5357143Y48476190D01*
X5357143Y48619048D01*
X5404762Y48809524D01*
X5452381Y48904762D01*
X5547619Y49000000D01*
X5690477Y49047619D01*
X5785715Y49047619D01*
X5928572Y49000000D01*
X5976191Y48952381D01*
X6547619Y48047619D02*
X6452381Y48095238D01*
X6404762Y48142857D01*
X6357143Y48238095D01*
X6357143Y48523810D01*
X6404762Y48619048D01*
X6452381Y48666667D01*
X6547619Y48714286D01*
X6690477Y48714286D01*
X6785715Y48666667D01*
X6833334Y48619048D01*
X6880953Y48523810D01*
X6880953Y48238095D01*
X6833334Y48142857D01*
X6785715Y48095238D01*
X6690477Y48047619D01*
X6547619Y48047619D01*
X7309524Y48714286D02*
X7309524Y48047619D01*
X7309524Y48619048D02*
X7357143Y48666667D01*
X7452381Y48714286D01*
X7595239Y48714286D01*
X7690477Y48666667D01*
X7738096Y48571429D01*
X7738096Y48047619D01*
X8214286Y48714286D02*
X8214286Y48047619D01*
X8214286Y48619048D02*
X8261905Y48666667D01*
X8357143Y48714286D01*
X8500001Y48714286D01*
X8595239Y48666667D01*
X8642858Y48571429D01*
X8642858Y48047619D01*
X9642858Y48047619D02*
X9071429Y48047619D01*
X9357143Y48047619D02*
X9357143Y49047619D01*
X9261905Y48904762D01*
X9166667Y48809524D01*
X9071429Y48761905D01*
X18883334Y36477857D02*
X18835715Y36430238D01*
X18692858Y36382619D01*
X18597620Y36382619D01*
X18454762Y36430238D01*
X18359524Y36525476D01*
X18311905Y36620714D01*
X18264286Y36811190D01*
X18264286Y36954048D01*
X18311905Y37144524D01*
X18359524Y37239762D01*
X18454762Y37335000D01*
X18597620Y37382619D01*
X18692858Y37382619D01*
X18835715Y37335000D01*
X18883334Y37287381D01*
X19835715Y36382619D02*
X19264286Y36382619D01*
X19550000Y36382619D02*
X19550000Y37382619D01*
X19454762Y37239762D01*
X19359524Y37144524D01*
X19264286Y37096905D01*
X34123334Y53612857D02*
X34075715Y53565238D01*
X33932858Y53517619D01*
X33837620Y53517619D01*
X33694762Y53565238D01*
X33599524Y53660476D01*
X33551905Y53755714D01*
X33504286Y53946190D01*
X33504286Y54089048D01*
X33551905Y54279524D01*
X33599524Y54374762D01*
X33694762Y54470000D01*
X33837620Y54517619D01*
X33932858Y54517619D01*
X34075715Y54470000D01*
X34123334Y54422381D01*
X34456667Y54517619D02*
X35075715Y54517619D01*
X34742381Y54136667D01*
X34885239Y54136667D01*
X34980477Y54089048D01*
X35028096Y54041429D01*
X35075715Y53946190D01*
X35075715Y53708095D01*
X35028096Y53612857D01*
X34980477Y53565238D01*
X34885239Y53517619D01*
X34599524Y53517619D01*
X34504286Y53565238D01*
X34456667Y53612857D01*
X34123334Y75202857D02*
X34075715Y75155238D01*
X33932858Y75107619D01*
X33837620Y75107619D01*
X33694762Y75155238D01*
X33599524Y75250476D01*
X33551905Y75345714D01*
X33504286Y75536190D01*
X33504286Y75679048D01*
X33551905Y75869524D01*
X33599524Y75964762D01*
X33694762Y76060000D01*
X33837620Y76107619D01*
X33932858Y76107619D01*
X34075715Y76060000D01*
X34123334Y76012381D01*
X34980477Y75774286D02*
X34980477Y75107619D01*
X34742381Y76155238D02*
X34504286Y75440952D01*
X35123334Y75440952D01*
X34123334Y21227857D02*
X34075715Y21180238D01*
X33932858Y21132619D01*
X33837620Y21132619D01*
X33694762Y21180238D01*
X33599524Y21275476D01*
X33551905Y21370714D01*
X33504286Y21561190D01*
X33504286Y21704048D01*
X33551905Y21894524D01*
X33599524Y21989762D01*
X33694762Y22085000D01*
X33837620Y22132619D01*
X33932858Y22132619D01*
X34075715Y22085000D01*
X34123334Y22037381D01*
X35028096Y22132619D02*
X34551905Y22132619D01*
X34504286Y21656429D01*
X34551905Y21704048D01*
X34647143Y21751667D01*
X34885239Y21751667D01*
X34980477Y21704048D01*
X35028096Y21656429D01*
X35075715Y21561190D01*
X35075715Y21323095D01*
X35028096Y21227857D01*
X34980477Y21180238D01*
X34885239Y21132619D01*
X34647143Y21132619D01*
X34551905Y21180238D01*
X34504286Y21227857D01*
X34123334Y64407857D02*
X34075715Y64360238D01*
X33932858Y64312619D01*
X33837620Y64312619D01*
X33694762Y64360238D01*
X33599524Y64455476D01*
X33551905Y64550714D01*
X33504286Y64741190D01*
X33504286Y64884048D01*
X33551905Y65074524D01*
X33599524Y65169762D01*
X33694762Y65265000D01*
X33837620Y65312619D01*
X33932858Y65312619D01*
X34075715Y65265000D01*
X34123334Y65217381D01*
X34456667Y65312619D02*
X35123334Y65312619D01*
X34694762Y64312619D01*
X34123334Y10432857D02*
X34075715Y10385238D01*
X33932858Y10337619D01*
X33837620Y10337619D01*
X33694762Y10385238D01*
X33599524Y10480476D01*
X33551905Y10575714D01*
X33504286Y10766190D01*
X33504286Y10909048D01*
X33551905Y11099524D01*
X33599524Y11194762D01*
X33694762Y11290000D01*
X33837620Y11337619D01*
X33932858Y11337619D01*
X34075715Y11290000D01*
X34123334Y11242381D01*
X34694762Y10909048D02*
X34599524Y10956667D01*
X34551905Y11004286D01*
X34504286Y11099524D01*
X34504286Y11147143D01*
X34551905Y11242381D01*
X34599524Y11290000D01*
X34694762Y11337619D01*
X34885239Y11337619D01*
X34980477Y11290000D01*
X35028096Y11242381D01*
X35075715Y11147143D01*
X35075715Y11099524D01*
X35028096Y11004286D01*
X34980477Y10956667D01*
X34885239Y10909048D01*
X34694762Y10909048D01*
X34599524Y10861429D01*
X34551905Y10813810D01*
X34504286Y10718571D01*
X34504286Y10528095D01*
X34551905Y10432857D01*
X34599524Y10385238D01*
X34694762Y10337619D01*
X34885239Y10337619D01*
X34980477Y10385238D01*
X35028096Y10432857D01*
X35075715Y10528095D01*
X35075715Y10718571D01*
X35028096Y10813810D01*
X34980477Y10861429D01*
X34885239Y10909048D01*
X34123334Y32022857D02*
X34075715Y31975238D01*
X33932858Y31927619D01*
X33837620Y31927619D01*
X33694762Y31975238D01*
X33599524Y32070476D01*
X33551905Y32165714D01*
X33504286Y32356190D01*
X33504286Y32499048D01*
X33551905Y32689524D01*
X33599524Y32784762D01*
X33694762Y32880000D01*
X33837620Y32927619D01*
X33932858Y32927619D01*
X34075715Y32880000D01*
X34123334Y32832381D01*
X34599524Y31927619D02*
X34790000Y31927619D01*
X34885239Y31975238D01*
X34932858Y32022857D01*
X35028096Y32165714D01*
X35075715Y32356190D01*
X35075715Y32737143D01*
X35028096Y32832381D01*
X34980477Y32880000D01*
X34885239Y32927619D01*
X34694762Y32927619D01*
X34599524Y32880000D01*
X34551905Y32832381D01*
X34504286Y32737143D01*
X34504286Y32499048D01*
X34551905Y32403810D01*
X34599524Y32356190D01*
X34694762Y32308571D01*
X34885239Y32308571D01*
X34980477Y32356190D01*
X35028096Y32403810D01*
X35075715Y32499048D01*
X18883334Y68767619D02*
X18550000Y69243810D01*
X18311905Y68767619D02*
X18311905Y69767619D01*
X18692858Y69767619D01*
X18788096Y69720000D01*
X18835715Y69672381D01*
X18883334Y69577143D01*
X18883334Y69434286D01*
X18835715Y69339048D01*
X18788096Y69291429D01*
X18692858Y69243810D01*
X18311905Y69243810D01*
X19835715Y68767619D02*
X19264286Y68767619D01*
X19550000Y68767619D02*
X19550000Y69767619D01*
X19454762Y69624762D01*
X19359524Y69529524D01*
X19264286Y69481905D01*
X18883334Y57972619D02*
X18550000Y58448810D01*
X18311905Y57972619D02*
X18311905Y58972619D01*
X18692858Y58972619D01*
X18788096Y58925000D01*
X18835715Y58877381D01*
X18883334Y58782143D01*
X18883334Y58639286D01*
X18835715Y58544048D01*
X18788096Y58496429D01*
X18692858Y58448810D01*
X18311905Y58448810D01*
X19264286Y58877381D02*
X19311905Y58925000D01*
X19407143Y58972619D01*
X19645239Y58972619D01*
X19740477Y58925000D01*
X19788096Y58877381D01*
X19835715Y58782143D01*
X19835715Y58686905D01*
X19788096Y58544048D01*
X19216667Y57972619D01*
X19835715Y57972619D01*
X18883334Y47177619D02*
X18550000Y47653810D01*
X18311905Y47177619D02*
X18311905Y48177619D01*
X18692858Y48177619D01*
X18788096Y48130000D01*
X18835715Y48082381D01*
X18883334Y47987143D01*
X18883334Y47844286D01*
X18835715Y47749048D01*
X18788096Y47701429D01*
X18692858Y47653810D01*
X18311905Y47653810D01*
X19216667Y48177619D02*
X19835715Y48177619D01*
X19502381Y47796667D01*
X19645239Y47796667D01*
X19740477Y47749048D01*
X19788096Y47701429D01*
X19835715Y47606190D01*
X19835715Y47368095D01*
X19788096Y47272857D01*
X19740477Y47225238D01*
X19645239Y47177619D01*
X19359524Y47177619D01*
X19264286Y47225238D01*
X19216667Y47272857D01*
X34343334Y42722619D02*
X34010000Y43198810D01*
X33771905Y42722619D02*
X33771905Y43722619D01*
X34152858Y43722619D01*
X34248096Y43675000D01*
X34295715Y43627381D01*
X34343334Y43532143D01*
X34343334Y43389286D01*
X34295715Y43294048D01*
X34248096Y43246429D01*
X34152858Y43198810D01*
X33771905Y43198810D01*
X35200477Y43389286D02*
X35200477Y42722619D01*
X34962381Y43770238D02*
X34724286Y43055952D01*
X35343334Y43055952D01*
X34123334Y68767619D02*
X33790000Y69243810D01*
X33551905Y68767619D02*
X33551905Y69767619D01*
X33932858Y69767619D01*
X34028096Y69720000D01*
X34075715Y69672381D01*
X34123334Y69577143D01*
X34123334Y69434286D01*
X34075715Y69339048D01*
X34028096Y69291429D01*
X33932858Y69243810D01*
X33551905Y69243810D01*
X35028096Y69767619D02*
X34551905Y69767619D01*
X34504286Y69291429D01*
X34551905Y69339048D01*
X34647143Y69386667D01*
X34885239Y69386667D01*
X34980477Y69339048D01*
X35028096Y69291429D01*
X35075715Y69196190D01*
X35075715Y68958095D01*
X35028096Y68862857D01*
X34980477Y68815238D01*
X34885239Y68767619D01*
X34647143Y68767619D01*
X34551905Y68815238D01*
X34504286Y68862857D01*
X34123334Y57972619D02*
X33790000Y58448810D01*
X33551905Y57972619D02*
X33551905Y58972619D01*
X33932858Y58972619D01*
X34028096Y58925000D01*
X34075715Y58877381D01*
X34123334Y58782143D01*
X34123334Y58639286D01*
X34075715Y58544048D01*
X34028096Y58496429D01*
X33932858Y58448810D01*
X33551905Y58448810D01*
X34980477Y58972619D02*
X34790000Y58972619D01*
X34694762Y58925000D01*
X34647143Y58877381D01*
X34551905Y58734524D01*
X34504286Y58544048D01*
X34504286Y58163095D01*
X34551905Y58067857D01*
X34599524Y58020238D01*
X34694762Y57972619D01*
X34885239Y57972619D01*
X34980477Y58020238D01*
X35028096Y58067857D01*
X35075715Y58163095D01*
X35075715Y58401190D01*
X35028096Y58496429D01*
X34980477Y58544048D01*
X34885239Y58591667D01*
X34694762Y58591667D01*
X34599524Y58544048D01*
X34551905Y58496429D01*
X34504286Y58401190D01*
X34123334Y47177619D02*
X33790000Y47653810D01*
X33551905Y47177619D02*
X33551905Y48177619D01*
X33932858Y48177619D01*
X34028096Y48130000D01*
X34075715Y48082381D01*
X34123334Y47987143D01*
X34123334Y47844286D01*
X34075715Y47749048D01*
X34028096Y47701429D01*
X33932858Y47653810D01*
X33551905Y47653810D01*
X34456667Y48177619D02*
X35123334Y48177619D01*
X34694762Y47177619D01*
X18883334Y42722619D02*
X18550000Y43198810D01*
X18311905Y42722619D02*
X18311905Y43722619D01*
X18692858Y43722619D01*
X18788096Y43675000D01*
X18835715Y43627381D01*
X18883334Y43532143D01*
X18883334Y43389286D01*
X18835715Y43294048D01*
X18788096Y43246429D01*
X18692858Y43198810D01*
X18311905Y43198810D01*
X19454762Y43294048D02*
X19359524Y43341667D01*
X19311905Y43389286D01*
X19264286Y43484524D01*
X19264286Y43532143D01*
X19311905Y43627381D01*
X19359524Y43675000D01*
X19454762Y43722619D01*
X19645239Y43722619D01*
X19740477Y43675000D01*
X19788096Y43627381D01*
X19835715Y43532143D01*
X19835715Y43484524D01*
X19788096Y43389286D01*
X19740477Y43341667D01*
X19645239Y43294048D01*
X19454762Y43294048D01*
X19359524Y43246429D01*
X19311905Y43198810D01*
X19264286Y43103571D01*
X19264286Y42913095D01*
X19311905Y42817857D01*
X19359524Y42770238D01*
X19454762Y42722619D01*
X19645239Y42722619D01*
X19740477Y42770238D01*
X19788096Y42817857D01*
X19835715Y42913095D01*
X19835715Y43103571D01*
X19788096Y43198810D01*
X19740477Y43246429D01*
X19645239Y43294048D01*
X18883334Y25587619D02*
X18550000Y26063810D01*
X18311905Y25587619D02*
X18311905Y26587619D01*
X18692858Y26587619D01*
X18788096Y26540000D01*
X18835715Y26492381D01*
X18883334Y26397143D01*
X18883334Y26254286D01*
X18835715Y26159048D01*
X18788096Y26111429D01*
X18692858Y26063810D01*
X18311905Y26063810D01*
X19359524Y25587619D02*
X19550000Y25587619D01*
X19645239Y25635238D01*
X19692858Y25682857D01*
X19788096Y25825714D01*
X19835715Y26016190D01*
X19835715Y26397143D01*
X19788096Y26492381D01*
X19740477Y26540000D01*
X19645239Y26587619D01*
X19454762Y26587619D01*
X19359524Y26540000D01*
X19311905Y26492381D01*
X19264286Y26397143D01*
X19264286Y26159048D01*
X19311905Y26063810D01*
X19359524Y26016190D01*
X19454762Y25968571D01*
X19645239Y25968571D01*
X19740477Y26016190D01*
X19788096Y26063810D01*
X19835715Y26159048D01*
X18407143Y14792619D02*
X18073809Y15268810D01*
X17835714Y14792619D02*
X17835714Y15792619D01*
X18216667Y15792619D01*
X18311905Y15745000D01*
X18359524Y15697381D01*
X18407143Y15602143D01*
X18407143Y15459286D01*
X18359524Y15364048D01*
X18311905Y15316429D01*
X18216667Y15268810D01*
X17835714Y15268810D01*
X19359524Y14792619D02*
X18788095Y14792619D01*
X19073809Y14792619D02*
X19073809Y15792619D01*
X18978571Y15649762D01*
X18883333Y15554524D01*
X18788095Y15506905D01*
X19978571Y15792619D02*
X20073810Y15792619D01*
X20169048Y15745000D01*
X20216667Y15697381D01*
X20264286Y15602143D01*
X20311905Y15411667D01*
X20311905Y15173571D01*
X20264286Y14983095D01*
X20216667Y14887857D01*
X20169048Y14840238D01*
X20073810Y14792619D01*
X19978571Y14792619D01*
X19883333Y14840238D01*
X19835714Y14887857D01*
X19788095Y14983095D01*
X19740476Y15173571D01*
X19740476Y15411667D01*
X19788095Y15602143D01*
X19835714Y15697381D01*
X19883333Y15745000D01*
X19978571Y15792619D01*
X18407143Y3997619D02*
X18073809Y4473810D01*
X17835714Y3997619D02*
X17835714Y4997619D01*
X18216667Y4997619D01*
X18311905Y4950000D01*
X18359524Y4902381D01*
X18407143Y4807143D01*
X18407143Y4664286D01*
X18359524Y4569048D01*
X18311905Y4521429D01*
X18216667Y4473810D01*
X17835714Y4473810D01*
X19359524Y3997619D02*
X18788095Y3997619D01*
X19073809Y3997619D02*
X19073809Y4997619D01*
X18978571Y4854762D01*
X18883333Y4759524D01*
X18788095Y4711905D01*
X20311905Y3997619D02*
X19740476Y3997619D01*
X20026190Y3997619D02*
X20026190Y4997619D01*
X19930952Y4854762D01*
X19835714Y4759524D01*
X19740476Y4711905D01*
X33647143Y25587619D02*
X33313809Y26063810D01*
X33075714Y25587619D02*
X33075714Y26587619D01*
X33456667Y26587619D01*
X33551905Y26540000D01*
X33599524Y26492381D01*
X33647143Y26397143D01*
X33647143Y26254286D01*
X33599524Y26159048D01*
X33551905Y26111429D01*
X33456667Y26063810D01*
X33075714Y26063810D01*
X34599524Y25587619D02*
X34028095Y25587619D01*
X34313809Y25587619D02*
X34313809Y26587619D01*
X34218571Y26444762D01*
X34123333Y26349524D01*
X34028095Y26301905D01*
X34980476Y26492381D02*
X35028095Y26540000D01*
X35123333Y26587619D01*
X35361429Y26587619D01*
X35456667Y26540000D01*
X35504286Y26492381D01*
X35551905Y26397143D01*
X35551905Y26301905D01*
X35504286Y26159048D01*
X34932857Y25587619D01*
X35551905Y25587619D01*
X33647143Y14792619D02*
X33313809Y15268810D01*
X33075714Y14792619D02*
X33075714Y15792619D01*
X33456667Y15792619D01*
X33551905Y15745000D01*
X33599524Y15697381D01*
X33647143Y15602143D01*
X33647143Y15459286D01*
X33599524Y15364048D01*
X33551905Y15316429D01*
X33456667Y15268810D01*
X33075714Y15268810D01*
X34599524Y14792619D02*
X34028095Y14792619D01*
X34313809Y14792619D02*
X34313809Y15792619D01*
X34218571Y15649762D01*
X34123333Y15554524D01*
X34028095Y15506905D01*
X34932857Y15792619D02*
X35551905Y15792619D01*
X35218571Y15411667D01*
X35361429Y15411667D01*
X35456667Y15364048D01*
X35504286Y15316429D01*
X35551905Y15221190D01*
X35551905Y14983095D01*
X35504286Y14887857D01*
X35456667Y14840238D01*
X35361429Y14792619D01*
X35075714Y14792619D01*
X34980476Y14840238D01*
X34932857Y14887857D01*
X33647143Y3997619D02*
X33313809Y4473810D01*
X33075714Y3997619D02*
X33075714Y4997619D01*
X33456667Y4997619D01*
X33551905Y4950000D01*
X33599524Y4902381D01*
X33647143Y4807143D01*
X33647143Y4664286D01*
X33599524Y4569048D01*
X33551905Y4521429D01*
X33456667Y4473810D01*
X33075714Y4473810D01*
X34599524Y3997619D02*
X34028095Y3997619D01*
X34313809Y3997619D02*
X34313809Y4997619D01*
X34218571Y4854762D01*
X34123333Y4759524D01*
X34028095Y4711905D01*
X35456667Y4664286D02*
X35456667Y3997619D01*
X35218571Y5045238D02*
X34980476Y4330952D01*
X35599524Y4330952D01*
X27265381Y71247095D02*
X28074905Y71247095D01*
X28170143Y71294714D01*
X28217762Y71342333D01*
X28265381Y71437571D01*
X28265381Y71628048D01*
X28217762Y71723286D01*
X28170143Y71770905D01*
X28074905Y71818524D01*
X27265381Y71818524D01*
X28265381Y72818524D02*
X28265381Y72247095D01*
X28265381Y72532809D02*
X27265381Y72532809D01*
X27408238Y72437571D01*
X27503476Y72342333D01*
X27551095Y72247095D01*
X27265381Y60452095D02*
X28074905Y60452095D01*
X28170143Y60499714D01*
X28217762Y60547333D01*
X28265381Y60642571D01*
X28265381Y60833048D01*
X28217762Y60928286D01*
X28170143Y60975905D01*
X28074905Y61023524D01*
X27265381Y61023524D01*
X27360619Y61452095D02*
X27313000Y61499714D01*
X27265381Y61594952D01*
X27265381Y61833048D01*
X27313000Y61928286D01*
X27360619Y61975905D01*
X27455857Y62023524D01*
X27551095Y62023524D01*
X27693952Y61975905D01*
X28265381Y61404476D01*
X28265381Y62023524D01*
X27265381Y49657095D02*
X28074905Y49657095D01*
X28170143Y49704714D01*
X28217762Y49752333D01*
X28265381Y49847571D01*
X28265381Y50038048D01*
X28217762Y50133286D01*
X28170143Y50180905D01*
X28074905Y50228524D01*
X27265381Y50228524D01*
X27265381Y50609476D02*
X27265381Y51228524D01*
X27646333Y50895190D01*
X27646333Y51038048D01*
X27693952Y51133286D01*
X27741571Y51180905D01*
X27836810Y51228524D01*
X28074905Y51228524D01*
X28170143Y51180905D01*
X28217762Y51133286D01*
X28265381Y51038048D01*
X28265381Y50752333D01*
X28217762Y50657095D01*
X28170143Y50609476D01*
X27392381Y38608095D02*
X28201905Y38608095D01*
X28297143Y38655714D01*
X28344762Y38703333D01*
X28392381Y38798571D01*
X28392381Y38989048D01*
X28344762Y39084286D01*
X28297143Y39131905D01*
X28201905Y39179524D01*
X27392381Y39179524D01*
X27725714Y40084286D02*
X28392381Y40084286D01*
X27344762Y39846190D02*
X28059048Y39608095D01*
X28059048Y40227143D01*
X27265381Y28067095D02*
X28074905Y28067095D01*
X28170143Y28114714D01*
X28217762Y28162333D01*
X28265381Y28257571D01*
X28265381Y28448048D01*
X28217762Y28543286D01*
X28170143Y28590905D01*
X28074905Y28638524D01*
X27265381Y28638524D01*
X27265381Y29590905D02*
X27265381Y29114714D01*
X27741571Y29067095D01*
X27693952Y29114714D01*
X27646333Y29209952D01*
X27646333Y29448048D01*
X27693952Y29543286D01*
X27741571Y29590905D01*
X27836810Y29638524D01*
X28074905Y29638524D01*
X28170143Y29590905D01*
X28217762Y29543286D01*
X28265381Y29448048D01*
X28265381Y29209952D01*
X28217762Y29114714D01*
X28170143Y29067095D01*
X27265381Y17272095D02*
X28074905Y17272095D01*
X28170143Y17319714D01*
X28217762Y17367333D01*
X28265381Y17462571D01*
X28265381Y17653048D01*
X28217762Y17748286D01*
X28170143Y17795905D01*
X28074905Y17843524D01*
X27265381Y17843524D01*
X27265381Y18748286D02*
X27265381Y18557809D01*
X27313000Y18462571D01*
X27360619Y18414952D01*
X27503476Y18319714D01*
X27693952Y18272095D01*
X28074905Y18272095D01*
X28170143Y18319714D01*
X28217762Y18367333D01*
X28265381Y18462571D01*
X28265381Y18653048D01*
X28217762Y18748286D01*
X28170143Y18795905D01*
X28074905Y18843524D01*
X27836810Y18843524D01*
X27741571Y18795905D01*
X27693952Y18748286D01*
X27646333Y18653048D01*
X27646333Y18462571D01*
X27693952Y18367333D01*
X27741571Y18319714D01*
X27836810Y18272095D01*
X27265381Y6477095D02*
X28074905Y6477095D01*
X28170143Y6524714D01*
X28217762Y6572333D01*
X28265381Y6667571D01*
X28265381Y6858048D01*
X28217762Y6953286D01*
X28170143Y7000905D01*
X28074905Y7048524D01*
X27265381Y7048524D01*
X27265381Y7429476D02*
X27265381Y8096143D01*
X28265381Y7667571D01*
X39476191Y48142857D02*
X39428572Y48095238D01*
X39285715Y48047619D01*
X39190477Y48047619D01*
X39047619Y48095238D01*
X38952381Y48190476D01*
X38904762Y48285714D01*
X38857143Y48476190D01*
X38857143Y48619048D01*
X38904762Y48809524D01*
X38952381Y48904762D01*
X39047619Y49000000D01*
X39190477Y49047619D01*
X39285715Y49047619D01*
X39428572Y49000000D01*
X39476191Y48952381D01*
X40047619Y48047619D02*
X39952381Y48095238D01*
X39904762Y48142857D01*
X39857143Y48238095D01*
X39857143Y48523810D01*
X39904762Y48619048D01*
X39952381Y48666667D01*
X40047619Y48714286D01*
X40190477Y48714286D01*
X40285715Y48666667D01*
X40333334Y48619048D01*
X40380953Y48523810D01*
X40380953Y48238095D01*
X40333334Y48142857D01*
X40285715Y48095238D01*
X40190477Y48047619D01*
X40047619Y48047619D01*
X40809524Y48714286D02*
X40809524Y48047619D01*
X40809524Y48619048D02*
X40857143Y48666667D01*
X40952381Y48714286D01*
X41095239Y48714286D01*
X41190477Y48666667D01*
X41238096Y48571429D01*
X41238096Y48047619D01*
X41714286Y48714286D02*
X41714286Y48047619D01*
X41714286Y48619048D02*
X41761905Y48666667D01*
X41857143Y48714286D01*
X42000001Y48714286D01*
X42095239Y48666667D01*
X42142858Y48571429D01*
X42142858Y48047619D01*
X42571429Y48952381D02*
X42619048Y49000000D01*
X42714286Y49047619D01*
X42952382Y49047619D01*
X43047620Y49000000D01*
X43095239Y48952381D01*
X43142858Y48857143D01*
X43142858Y48761905D01*
X43095239Y48619048D01*
X42523810Y48047619D01*
X43142858Y48047619D01*
M02*
