G04 #@! TF.FileFunction,Copper,L1,Top,Signal*
%FSLAX46Y46*%
G04 Gerber Fmt 4.6, Leading zero omitted, Abs format (unit mm)*
G04 Created by KiCad (PCBNEW 4.0.2-stable) date 28/05/2016 00:58:03*
%MOMM*%
G01*
G04 APERTURE LIST*
%ADD10C,0.100000*%
%ADD11C,0.150000*%
%ADD12C,7.000000*%
%ADD13R,0.797560X0.797560*%
%ADD14C,0.600000*%
%ADD15C,0.250000*%
G04 APERTURE END LIST*
D10*
D11*
X37000000Y5000000D02*
X37000000Y2000000D01*
X0Y5000000D02*
X0Y2000000D01*
X3500000Y8500000D02*
G75*
G03X0Y5000000I0J-3500000D01*
G01*
X37000000Y5000000D02*
G75*
G03X33500000Y8500000I-3500000J0D01*
G01*
X3500000Y8500000D02*
X33500000Y8500000D01*
X3500000Y-1500000D02*
X33500000Y-1500000D01*
X33500000Y-1500000D02*
G75*
G03X37000000Y2000000I0J3500000D01*
G01*
X0Y2000000D02*
G75*
G03X3500000Y-1500000I3500000J0D01*
G01*
D12*
X3500000Y3500000D03*
X33500000Y3500000D03*
D13*
X9500000Y4249300D03*
X9500000Y2750700D03*
X12500000Y4249300D03*
X12500000Y2750700D03*
X15500000Y4249300D03*
X15500000Y2750700D03*
X18500000Y4249300D03*
X18500000Y2750700D03*
X21500000Y4249300D03*
X21500000Y2750700D03*
X24500000Y4249300D03*
X24500000Y2750700D03*
X27500000Y4249300D03*
X27500000Y2750700D03*
D14*
X10916600Y3474800D03*
X17573900Y3128100D03*
X14432800Y5356400D03*
X19415000Y3363800D03*
X12541800Y7331500D03*
X21927800Y7535600D03*
X14116200Y2750700D03*
X7737400Y5036800D03*
X11057000Y4294700D03*
X13404300Y4249300D03*
X16704700Y4044800D03*
X7625000Y2225000D03*
X24561600Y5155300D03*
X28421200Y4249300D03*
D15*
X16199000Y3474800D02*
X10916600Y3474800D01*
X16545700Y3128100D02*
X16199000Y3474800D01*
X17573900Y3128100D02*
X16545700Y3128100D01*
X19415000Y4619900D02*
X19415000Y3363800D01*
X18678500Y5356400D02*
X19415000Y4619900D01*
X14432800Y5356400D02*
X18678500Y5356400D01*
X12745900Y7535600D02*
X12541800Y7331500D01*
X21927800Y7535600D02*
X12745900Y7535600D01*
X12500000Y2750700D02*
X14116200Y2750700D01*
X9500000Y2750700D02*
X10224100Y2750700D01*
X12500000Y2750700D02*
X11775900Y2750700D01*
X21500000Y2750700D02*
X20775900Y2750700D01*
X21500000Y2750700D02*
X22224100Y2750700D01*
X27500000Y2750700D02*
X24500000Y2750700D01*
X24500000Y2750700D02*
X22224100Y2750700D01*
X10224100Y2750700D02*
X11775900Y2750700D01*
X14116200Y2750700D02*
X15500000Y2750700D01*
X20749900Y2724700D02*
X20775900Y2750700D01*
X18526000Y2724700D02*
X20749900Y2724700D01*
X18500000Y2750700D02*
X18526000Y2724700D01*
X15500000Y2750700D02*
X16224100Y2750700D01*
X16478500Y2496300D02*
X16224100Y2750700D01*
X18245600Y2496300D02*
X16478500Y2496300D01*
X18500000Y2750700D02*
X18245600Y2496300D01*
X9500000Y4249300D02*
X8775900Y4249300D01*
X7988400Y5036800D02*
X7737400Y5036800D01*
X8775900Y4249300D02*
X7988400Y5036800D01*
X11730500Y4294700D02*
X11775900Y4249300D01*
X11057000Y4294700D02*
X11730500Y4294700D01*
X12500000Y4249300D02*
X11775900Y4249300D01*
X15500000Y4249300D02*
X13404300Y4249300D01*
X16909200Y4249300D02*
X18500000Y4249300D01*
X16704700Y4044800D02*
X16909200Y4249300D01*
X21500000Y4249300D02*
X20775900Y4249300D01*
X8899000Y3499000D02*
X7625000Y2225000D01*
X10012300Y3499000D02*
X8899000Y3499000D01*
X10431700Y3918400D02*
X10012300Y3499000D01*
X10431700Y4553700D02*
X10431700Y3918400D01*
X11889800Y6011800D02*
X10431700Y4553700D01*
X19013400Y6011800D02*
X11889800Y6011800D01*
X20775900Y4249300D02*
X19013400Y6011800D01*
X24500000Y5093700D02*
X24500000Y4249300D01*
X24561600Y5155300D02*
X24500000Y5093700D01*
X27500000Y4249300D02*
X28224100Y4249300D01*
X28224100Y4249300D02*
X28421200Y4249300D01*
M02*
