G04 #@! TF.FileFunction,Legend,Bot*
%FSLAX46Y46*%
G04 Gerber Fmt 4.6, Leading zero omitted, Abs format (unit mm)*
G04 Created by KiCad (PCBNEW 4.0.2-stable) date 28/05/2016 00:58:03*
%MOMM*%
G01*
G04 APERTURE LIST*
%ADD10C,0.100000*%
%ADD11C,0.200000*%
%ADD12C,0.150000*%
%ADD13C,0.198120*%
G04 APERTURE END LIST*
D10*
D11*
X29500000Y2500000D02*
X25500000Y2500000D01*
X29500000Y-500000D02*
X29500000Y2500000D01*
X25500000Y-500000D02*
X29500000Y-500000D01*
X25500000Y2500000D02*
X25500000Y-500000D01*
D12*
X37000000Y5000000D02*
X37000000Y2000000D01*
X0Y5000000D02*
X0Y2000000D01*
X3500000Y8500000D02*
G75*
G03X0Y5000000I0J-3500000D01*
G01*
X37000000Y5000000D02*
G75*
G03X33500000Y8500000I-3500000J0D01*
G01*
X3500000Y8500000D02*
X33500000Y8500000D01*
X3500000Y-1500000D02*
X33500000Y-1500000D01*
X33500000Y-1500000D02*
G75*
G03X37000000Y2000000I0J3500000D01*
G01*
X0Y2000000D02*
G75*
G03X3500000Y-1500000I3500000J0D01*
G01*
X9750000Y7675000D02*
X8750000Y7675000D01*
X8750000Y6325000D02*
X9750000Y6325000D01*
X9750000Y5925000D02*
X8750000Y5925000D01*
X8750000Y4575000D02*
X9750000Y4575000D01*
X9750000Y4175000D02*
X8750000Y4175000D01*
X8750000Y2825000D02*
X9750000Y2825000D01*
X9750000Y2425000D02*
X8750000Y2425000D01*
X8750000Y1075000D02*
X9750000Y1075000D01*
X9750000Y675000D02*
X8750000Y675000D01*
X8750000Y-675000D02*
X9750000Y-675000D01*
X26250000Y6325000D02*
X27250000Y6325000D01*
X27250000Y7675000D02*
X26250000Y7675000D01*
X26250000Y4325000D02*
X27250000Y4325000D01*
X27250000Y5675000D02*
X26250000Y5675000D01*
D13*
X22430000Y100000D02*
X22430000Y300000D01*
X22530000Y300000D02*
X22530000Y100000D01*
X22630000Y0D02*
X22630000Y400000D01*
X22730000Y400000D02*
X22730000Y0D01*
X22830000Y-100000D02*
X22830000Y500000D01*
X22130000Y200000D02*
X22930000Y-200000D01*
X22930000Y-200000D02*
X22930000Y600000D01*
X22930000Y600000D02*
X22130000Y200000D01*
D11*
X19238095Y3047619D02*
X19238095Y4047619D01*
X18857142Y4047619D01*
X18761904Y4000000D01*
X18714285Y3952381D01*
X18666666Y3857143D01*
X18666666Y3714286D01*
X18714285Y3619048D01*
X18761904Y3571429D01*
X18857142Y3523810D01*
X19238095Y3523810D01*
X17714285Y3047619D02*
X18285714Y3047619D01*
X18000000Y3047619D02*
X18000000Y4047619D01*
X18095238Y3904762D01*
X18190476Y3809524D01*
X18285714Y3761905D01*
X29023810Y2095238D02*
X27690476Y95238D01*
X27690476Y2095238D02*
X29023810Y95238D01*
X26547619Y1047619D02*
X26547619Y95238D01*
X27214286Y2095238D02*
X26547619Y1047619D01*
X25880952Y2095238D01*
M02*
