G04 #@! TF.FileFunction,Legend,Bot*
%FSLAX46Y46*%
G04 Gerber Fmt 4.6, Leading zero omitted, Abs format (unit mm)*
G04 Created by KiCad (PCBNEW 4.0.2-stable) date 31/05/2016 22:00:56*
%MOMM*%
G01*
G04 APERTURE LIST*
%ADD10C,0.100000*%
%ADD11C,0.150000*%
%ADD12C,0.002540*%
G04 APERTURE END LIST*
D10*
D11*
X75000000Y28500000D02*
X5000000Y28500000D01*
X5000000Y1500000D02*
X75000000Y1500000D01*
X78500000Y25000000D02*
G75*
G03X75000000Y28500000I-3500000J0D01*
G01*
X75000000Y1500000D02*
G75*
G03X78500000Y5000000I0J3500000D01*
G01*
X78500000Y25000000D02*
X78500000Y5000000D01*
X1500000Y25000000D02*
X1500000Y5000000D01*
X5000000Y28500000D02*
G75*
G03X1500000Y25000000I0J-3500000D01*
G01*
X1500000Y5000000D02*
G75*
G03X5000000Y1500000I3500000J0D01*
G01*
X28210000Y19110000D02*
X28310000Y19040000D01*
X28030000Y19110000D02*
X28210000Y19110000D01*
X27930000Y19040000D02*
X28030000Y19110000D01*
X27880000Y18900000D02*
X27930000Y19040000D01*
X27880000Y18320000D02*
X27880000Y18900000D01*
X27940000Y18170000D02*
X27880000Y18320000D01*
X28040000Y18100000D02*
X27940000Y18170000D01*
X28210000Y18100000D02*
X28040000Y18100000D01*
X28310000Y18190000D02*
X28210000Y18100000D01*
X28360000Y18320000D02*
X28310000Y18190000D01*
X28360000Y18590000D02*
X28360000Y18320000D01*
X27880000Y18590000D02*
X28360000Y18590000D01*
X27310000Y18110000D02*
X27310000Y19110000D01*
X27360000Y18250000D02*
X27310000Y18420000D01*
X27400000Y18190000D02*
X27360000Y18250000D01*
X27500000Y18110000D02*
X27400000Y18190000D01*
X27610000Y18110000D02*
X27500000Y18110000D01*
X25260000Y18100000D02*
X25450000Y19110000D01*
X25450000Y19110000D02*
X25640000Y18390000D01*
X25640000Y18390000D02*
X25830000Y19110000D01*
X25830000Y19110000D02*
X26030000Y18100000D01*
X24880000Y19030000D02*
X24790000Y19110000D01*
X24790000Y19110000D02*
X24600000Y19110000D01*
X24600000Y19110000D02*
X24530000Y19060000D01*
X24530000Y19060000D02*
X24460000Y18980000D01*
X24460000Y18980000D02*
X24400000Y18820000D01*
X24400000Y18820000D02*
X24400000Y18400000D01*
X24400000Y18400000D02*
X24450000Y18250000D01*
X24450000Y18250000D02*
X24520000Y18160000D01*
X24520000Y18160000D02*
X24600000Y18110000D01*
X24600000Y18110000D02*
X24780000Y18110000D01*
X24780000Y18110000D02*
X24880000Y18190000D01*
X24880000Y17610000D02*
X24880000Y19110000D01*
X24130000Y18110000D02*
X24020000Y18110000D01*
X24020000Y18110000D02*
X23920000Y18190000D01*
X23920000Y18190000D02*
X23880000Y18250000D01*
X23880000Y18250000D02*
X23830000Y18420000D01*
X23830000Y18110000D02*
X23830000Y19110000D01*
X26840000Y18320000D02*
X26840000Y19110000D01*
X26780000Y18170000D02*
X26840000Y18320000D01*
X26690000Y18100000D02*
X26780000Y18170000D01*
X26510000Y18100000D02*
X26690000Y18100000D01*
X26400000Y18180000D02*
X26510000Y18100000D01*
X26360000Y18880000D02*
X26400000Y19020000D01*
X26360000Y18750000D02*
X26360000Y18880000D01*
X26410000Y18610000D02*
X26360000Y18750000D01*
X26510000Y18530000D02*
X26410000Y18610000D01*
X26750000Y18530000D02*
X26510000Y18530000D01*
X26840000Y18460000D02*
X26750000Y18530000D01*
X26740000Y19110000D02*
X26840000Y19030000D01*
X26510000Y19110000D02*
X26740000Y19110000D01*
X26400000Y19020000D02*
X26510000Y19110000D01*
X22920000Y19020000D02*
X23030000Y19110000D01*
X23030000Y19110000D02*
X23260000Y19110000D01*
X23260000Y19110000D02*
X23360000Y19030000D01*
X23360000Y18460000D02*
X23270000Y18530000D01*
X23270000Y18530000D02*
X23030000Y18530000D01*
X23030000Y18530000D02*
X22930000Y18610000D01*
X22930000Y18610000D02*
X22880000Y18750000D01*
X22880000Y18750000D02*
X22880000Y18880000D01*
X22880000Y18880000D02*
X22920000Y19020000D01*
X22920000Y18180000D02*
X23030000Y18100000D01*
X23030000Y18100000D02*
X23210000Y18100000D01*
X23210000Y18100000D02*
X23300000Y18170000D01*
X23300000Y18170000D02*
X23360000Y18320000D01*
X23360000Y18320000D02*
X23360000Y19110000D01*
X22020000Y19110000D02*
X22020000Y17610000D01*
X22080000Y18170000D02*
X22020000Y18240000D01*
X22160000Y18110000D02*
X22080000Y18170000D01*
X22300000Y18110000D02*
X22160000Y18110000D01*
X22400000Y18180000D02*
X22300000Y18110000D01*
X22450000Y18330000D02*
X22400000Y18180000D01*
X22450000Y19110000D02*
X22450000Y18330000D01*
X20790000Y19110000D02*
X20790000Y18330000D01*
X20790000Y18330000D02*
X20740000Y18180000D01*
X20740000Y18180000D02*
X20640000Y18110000D01*
X20640000Y18110000D02*
X20500000Y18110000D01*
X20500000Y18110000D02*
X20420000Y18170000D01*
X20420000Y18170000D02*
X20360000Y18240000D01*
X20360000Y18110000D02*
X20360000Y19110000D01*
X19450000Y18590000D02*
X19930000Y18590000D01*
X19930000Y18590000D02*
X19930000Y18320000D01*
X19930000Y18320000D02*
X19880000Y18190000D01*
X19880000Y18190000D02*
X19780000Y18100000D01*
X19780000Y18100000D02*
X19610000Y18100000D01*
X19610000Y18100000D02*
X19510000Y18170000D01*
X19510000Y18170000D02*
X19450000Y18320000D01*
X19450000Y18320000D02*
X19450000Y18900000D01*
X19450000Y18900000D02*
X19500000Y19040000D01*
X19500000Y19040000D02*
X19600000Y19110000D01*
X19600000Y19110000D02*
X19780000Y19110000D01*
X19780000Y19110000D02*
X19880000Y19040000D01*
X18590000Y18100000D02*
X18590000Y19610000D01*
X18700000Y18100000D02*
X18880000Y18100000D01*
X18700000Y19100000D02*
X18890000Y19100000D01*
X18700000Y18100000D02*
X18620000Y18160000D01*
X18970000Y18170000D02*
X18880000Y18100000D01*
X19020000Y18240000D02*
X18970000Y18170000D01*
X19070000Y18400000D02*
X19020000Y18240000D01*
X19070000Y18810000D02*
X19070000Y18400000D01*
X19020000Y18950000D02*
X19070000Y18810000D01*
X18980000Y19020000D02*
X19020000Y18950000D01*
X18880000Y19100000D02*
X18980000Y19020000D01*
X18600000Y19030000D02*
X18700000Y19100000D01*
X17640000Y18400000D02*
X17640000Y18810000D01*
X17640000Y18810000D02*
X17690000Y18950000D01*
X17690000Y18950000D02*
X17740000Y19040000D01*
X17740000Y19040000D02*
X17840000Y19110000D01*
X17840000Y19110000D02*
X17980000Y19110000D01*
X17980000Y19110000D02*
X18080000Y19030000D01*
X18080000Y19030000D02*
X18120000Y18960000D01*
X18120000Y18960000D02*
X18170000Y18820000D01*
X18170000Y18820000D02*
X18170000Y18410000D01*
X18170000Y18410000D02*
X18120000Y18250000D01*
X18120000Y18250000D02*
X18070000Y18180000D01*
X18070000Y18180000D02*
X17980000Y18110000D01*
X17980000Y18110000D02*
X17830000Y18110000D01*
X17830000Y18110000D02*
X17750000Y18170000D01*
X17750000Y18170000D02*
X17690000Y18250000D01*
X17690000Y18250000D02*
X17640000Y18400000D01*
D12*
G36*
X19362720Y17389880D02*
X19426220Y17356860D01*
X19565920Y17267960D01*
X19766580Y17138420D01*
X20002800Y16978400D01*
X20241560Y16818380D01*
X20437140Y16686300D01*
X20574300Y16599940D01*
X20630180Y16566920D01*
X20660660Y16577080D01*
X20774960Y16632960D01*
X20937520Y16719320D01*
X21034040Y16767580D01*
X21183900Y16833620D01*
X21257560Y16846320D01*
X21270260Y16826000D01*
X21326140Y16709160D01*
X21412500Y16513580D01*
X21526800Y16251960D01*
X21656340Y15949700D01*
X21793500Y15619500D01*
X21933200Y15284220D01*
X22065280Y14966720D01*
X22184660Y14679700D01*
X22278640Y14446020D01*
X22339600Y14283460D01*
X22362460Y14212340D01*
X22354840Y14197100D01*
X22281180Y14125980D01*
X22149100Y14026920D01*
X21864620Y13795780D01*
X21585220Y13445260D01*
X21415040Y13049020D01*
X21356620Y12607060D01*
X21404880Y12198120D01*
X21567440Y11804420D01*
X21841760Y11451360D01*
X22174500Y11187200D01*
X22563120Y11022100D01*
X23000000Y10966220D01*
X23419100Y11014480D01*
X23820420Y11171960D01*
X24173480Y11441200D01*
X24323340Y11613920D01*
X24529080Y11972060D01*
X24645920Y12358140D01*
X24658620Y12454660D01*
X24640840Y12876300D01*
X24516380Y13280160D01*
X24295400Y13640840D01*
X23985520Y13938020D01*
X23947420Y13965960D01*
X23802640Y14072640D01*
X23708660Y14146300D01*
X23632460Y14207260D01*
X24168400Y15500120D01*
X24254760Y15705860D01*
X24402080Y16056380D01*
X24531620Y16361180D01*
X24635760Y16605020D01*
X24706880Y16765040D01*
X24737360Y16831080D01*
X24742440Y16833620D01*
X24788160Y16841240D01*
X24887220Y16805680D01*
X25067560Y16719320D01*
X25186940Y16658360D01*
X25324100Y16592320D01*
X25385060Y16566920D01*
X25438400Y16594860D01*
X25570480Y16681220D01*
X25760980Y16810760D01*
X25992120Y16965700D01*
X26213100Y17115560D01*
X26416300Y17250180D01*
X26563620Y17344160D01*
X26634740Y17382260D01*
X26644900Y17382260D01*
X26708400Y17346700D01*
X26825240Y17250180D01*
X27000500Y17082540D01*
X27249420Y16838700D01*
X27287520Y16800600D01*
X27493260Y16592320D01*
X27658360Y16417060D01*
X27770120Y16292600D01*
X27810760Y16236720D01*
X27810760Y16236720D01*
X27772660Y16165600D01*
X27681220Y16018280D01*
X27546600Y15815080D01*
X27384040Y15573780D01*
X26954780Y14954020D01*
X27191000Y14367280D01*
X27262120Y14186940D01*
X27353560Y13968500D01*
X27422140Y13813560D01*
X27457700Y13744980D01*
X27521200Y13722120D01*
X27681220Y13684020D01*
X27914900Y13635760D01*
X28191760Y13584960D01*
X28455920Y13536700D01*
X28694680Y13490980D01*
X28867400Y13457960D01*
X28946140Y13442720D01*
X28963920Y13430020D01*
X28979160Y13391920D01*
X28989320Y13310640D01*
X28994400Y13165860D01*
X28999480Y12937260D01*
X28999480Y12607060D01*
X28999480Y12571500D01*
X28994400Y12256540D01*
X28989320Y12005080D01*
X28981700Y11839980D01*
X28969000Y11773940D01*
X28969000Y11773940D01*
X28895340Y11756160D01*
X28725160Y11720600D01*
X28486400Y11672340D01*
X28201920Y11619000D01*
X28184140Y11616460D01*
X27899660Y11560580D01*
X27663440Y11512320D01*
X27495800Y11474220D01*
X27427220Y11451360D01*
X27411980Y11431040D01*
X27353560Y11319280D01*
X27272280Y11144020D01*
X27178300Y10930660D01*
X27086860Y10707140D01*
X27005580Y10506480D01*
X26952240Y10356620D01*
X26937000Y10288040D01*
X26937000Y10288040D01*
X26980180Y10219460D01*
X27076700Y10072140D01*
X27216400Y9868940D01*
X27381500Y9627640D01*
X27394200Y9607320D01*
X27556760Y9368560D01*
X27688840Y9165360D01*
X27777740Y9020580D01*
X27810760Y8957080D01*
X27810760Y8952000D01*
X27754880Y8880880D01*
X27632960Y8743720D01*
X27457700Y8560840D01*
X27249420Y8350020D01*
X27180840Y8283980D01*
X26949700Y8055380D01*
X26787140Y7908060D01*
X26685540Y7826780D01*
X26637280Y7809000D01*
X26634740Y7811540D01*
X26563620Y7854720D01*
X26411220Y7953780D01*
X26205480Y8093480D01*
X25961640Y8258580D01*
X25946400Y8268740D01*
X25705100Y8431300D01*
X25506980Y8568460D01*
X25364740Y8662440D01*
X25301240Y8698000D01*
X25291080Y8698000D01*
X25194560Y8670060D01*
X25024380Y8611640D01*
X24813560Y8530360D01*
X24592580Y8441460D01*
X24389380Y8355100D01*
X24239520Y8286520D01*
X24168400Y8245880D01*
X24165860Y8243340D01*
X24140460Y8156980D01*
X24099820Y7976640D01*
X24046480Y7730260D01*
X23993140Y7435620D01*
X23982980Y7389900D01*
X23929640Y7102880D01*
X23883920Y6866660D01*
X23848360Y6704100D01*
X23833120Y6635520D01*
X23792480Y6627900D01*
X23652780Y6617740D01*
X23439420Y6610120D01*
X23180340Y6607580D01*
X22908560Y6610120D01*
X22644400Y6615200D01*
X22418340Y6622820D01*
X22255780Y6635520D01*
X22187200Y6648220D01*
X22184660Y6653300D01*
X22161800Y6742200D01*
X22121160Y6920000D01*
X22070360Y7168920D01*
X22014480Y7463560D01*
X22004320Y7516900D01*
X21950980Y7801380D01*
X21902720Y8035060D01*
X21867160Y8195080D01*
X21849380Y8258580D01*
X21823980Y8271280D01*
X21707140Y8324620D01*
X21516640Y8403360D01*
X21277880Y8499880D01*
X20729240Y8720860D01*
X20056140Y8258580D01*
X19995180Y8217940D01*
X19751340Y8052840D01*
X19553220Y7920760D01*
X19413520Y7831860D01*
X19357640Y7798840D01*
X19352560Y7801380D01*
X19283980Y7859800D01*
X19151900Y7984260D01*
X18969020Y8162060D01*
X18758200Y8372880D01*
X18600720Y8530360D01*
X18415300Y8718320D01*
X18298460Y8845320D01*
X18232420Y8926600D01*
X18209560Y8977400D01*
X18217180Y9010420D01*
X18260360Y9079000D01*
X18359420Y9226320D01*
X18496580Y9432060D01*
X18661680Y9668280D01*
X18796300Y9868940D01*
X18943620Y10095000D01*
X19037600Y10255020D01*
X19070620Y10333760D01*
X19063000Y10366780D01*
X19014740Y10498860D01*
X18936000Y10699520D01*
X18834400Y10935740D01*
X18600720Y11469140D01*
X18250200Y11535180D01*
X18039380Y11575820D01*
X17742200Y11634240D01*
X17457720Y11687580D01*
X17015760Y11773940D01*
X17000520Y13399540D01*
X17069100Y13430020D01*
X17135140Y13447800D01*
X17297700Y13483360D01*
X17531380Y13529080D01*
X17808240Y13582420D01*
X18044460Y13625600D01*
X18280680Y13671320D01*
X18450860Y13704340D01*
X18527060Y13719580D01*
X18544840Y13744980D01*
X18605800Y13861820D01*
X18689620Y14042160D01*
X18783600Y14263140D01*
X18877580Y14489200D01*
X18961400Y14700020D01*
X19019820Y14860040D01*
X19042680Y14943860D01*
X19009660Y15004820D01*
X18920760Y15144520D01*
X18788680Y15342640D01*
X18628660Y15578860D01*
X18466100Y15815080D01*
X18331480Y16015740D01*
X18234960Y16160520D01*
X18196860Y16226560D01*
X18217180Y16272280D01*
X18311160Y16386580D01*
X18488960Y16569460D01*
X18753120Y16831080D01*
X18796300Y16874260D01*
X19007120Y17074920D01*
X19184920Y17240020D01*
X19306840Y17349240D01*
X19362720Y17389880D01*
X19362720Y17389880D01*
G37*
X19362720Y17389880D02*
X19426220Y17356860D01*
X19565920Y17267960D01*
X19766580Y17138420D01*
X20002800Y16978400D01*
X20241560Y16818380D01*
X20437140Y16686300D01*
X20574300Y16599940D01*
X20630180Y16566920D01*
X20660660Y16577080D01*
X20774960Y16632960D01*
X20937520Y16719320D01*
X21034040Y16767580D01*
X21183900Y16833620D01*
X21257560Y16846320D01*
X21270260Y16826000D01*
X21326140Y16709160D01*
X21412500Y16513580D01*
X21526800Y16251960D01*
X21656340Y15949700D01*
X21793500Y15619500D01*
X21933200Y15284220D01*
X22065280Y14966720D01*
X22184660Y14679700D01*
X22278640Y14446020D01*
X22339600Y14283460D01*
X22362460Y14212340D01*
X22354840Y14197100D01*
X22281180Y14125980D01*
X22149100Y14026920D01*
X21864620Y13795780D01*
X21585220Y13445260D01*
X21415040Y13049020D01*
X21356620Y12607060D01*
X21404880Y12198120D01*
X21567440Y11804420D01*
X21841760Y11451360D01*
X22174500Y11187200D01*
X22563120Y11022100D01*
X23000000Y10966220D01*
X23419100Y11014480D01*
X23820420Y11171960D01*
X24173480Y11441200D01*
X24323340Y11613920D01*
X24529080Y11972060D01*
X24645920Y12358140D01*
X24658620Y12454660D01*
X24640840Y12876300D01*
X24516380Y13280160D01*
X24295400Y13640840D01*
X23985520Y13938020D01*
X23947420Y13965960D01*
X23802640Y14072640D01*
X23708660Y14146300D01*
X23632460Y14207260D01*
X24168400Y15500120D01*
X24254760Y15705860D01*
X24402080Y16056380D01*
X24531620Y16361180D01*
X24635760Y16605020D01*
X24706880Y16765040D01*
X24737360Y16831080D01*
X24742440Y16833620D01*
X24788160Y16841240D01*
X24887220Y16805680D01*
X25067560Y16719320D01*
X25186940Y16658360D01*
X25324100Y16592320D01*
X25385060Y16566920D01*
X25438400Y16594860D01*
X25570480Y16681220D01*
X25760980Y16810760D01*
X25992120Y16965700D01*
X26213100Y17115560D01*
X26416300Y17250180D01*
X26563620Y17344160D01*
X26634740Y17382260D01*
X26644900Y17382260D01*
X26708400Y17346700D01*
X26825240Y17250180D01*
X27000500Y17082540D01*
X27249420Y16838700D01*
X27287520Y16800600D01*
X27493260Y16592320D01*
X27658360Y16417060D01*
X27770120Y16292600D01*
X27810760Y16236720D01*
X27810760Y16236720D01*
X27772660Y16165600D01*
X27681220Y16018280D01*
X27546600Y15815080D01*
X27384040Y15573780D01*
X26954780Y14954020D01*
X27191000Y14367280D01*
X27262120Y14186940D01*
X27353560Y13968500D01*
X27422140Y13813560D01*
X27457700Y13744980D01*
X27521200Y13722120D01*
X27681220Y13684020D01*
X27914900Y13635760D01*
X28191760Y13584960D01*
X28455920Y13536700D01*
X28694680Y13490980D01*
X28867400Y13457960D01*
X28946140Y13442720D01*
X28963920Y13430020D01*
X28979160Y13391920D01*
X28989320Y13310640D01*
X28994400Y13165860D01*
X28999480Y12937260D01*
X28999480Y12607060D01*
X28999480Y12571500D01*
X28994400Y12256540D01*
X28989320Y12005080D01*
X28981700Y11839980D01*
X28969000Y11773940D01*
X28969000Y11773940D01*
X28895340Y11756160D01*
X28725160Y11720600D01*
X28486400Y11672340D01*
X28201920Y11619000D01*
X28184140Y11616460D01*
X27899660Y11560580D01*
X27663440Y11512320D01*
X27495800Y11474220D01*
X27427220Y11451360D01*
X27411980Y11431040D01*
X27353560Y11319280D01*
X27272280Y11144020D01*
X27178300Y10930660D01*
X27086860Y10707140D01*
X27005580Y10506480D01*
X26952240Y10356620D01*
X26937000Y10288040D01*
X26937000Y10288040D01*
X26980180Y10219460D01*
X27076700Y10072140D01*
X27216400Y9868940D01*
X27381500Y9627640D01*
X27394200Y9607320D01*
X27556760Y9368560D01*
X27688840Y9165360D01*
X27777740Y9020580D01*
X27810760Y8957080D01*
X27810760Y8952000D01*
X27754880Y8880880D01*
X27632960Y8743720D01*
X27457700Y8560840D01*
X27249420Y8350020D01*
X27180840Y8283980D01*
X26949700Y8055380D01*
X26787140Y7908060D01*
X26685540Y7826780D01*
X26637280Y7809000D01*
X26634740Y7811540D01*
X26563620Y7854720D01*
X26411220Y7953780D01*
X26205480Y8093480D01*
X25961640Y8258580D01*
X25946400Y8268740D01*
X25705100Y8431300D01*
X25506980Y8568460D01*
X25364740Y8662440D01*
X25301240Y8698000D01*
X25291080Y8698000D01*
X25194560Y8670060D01*
X25024380Y8611640D01*
X24813560Y8530360D01*
X24592580Y8441460D01*
X24389380Y8355100D01*
X24239520Y8286520D01*
X24168400Y8245880D01*
X24165860Y8243340D01*
X24140460Y8156980D01*
X24099820Y7976640D01*
X24046480Y7730260D01*
X23993140Y7435620D01*
X23982980Y7389900D01*
X23929640Y7102880D01*
X23883920Y6866660D01*
X23848360Y6704100D01*
X23833120Y6635520D01*
X23792480Y6627900D01*
X23652780Y6617740D01*
X23439420Y6610120D01*
X23180340Y6607580D01*
X22908560Y6610120D01*
X22644400Y6615200D01*
X22418340Y6622820D01*
X22255780Y6635520D01*
X22187200Y6648220D01*
X22184660Y6653300D01*
X22161800Y6742200D01*
X22121160Y6920000D01*
X22070360Y7168920D01*
X22014480Y7463560D01*
X22004320Y7516900D01*
X21950980Y7801380D01*
X21902720Y8035060D01*
X21867160Y8195080D01*
X21849380Y8258580D01*
X21823980Y8271280D01*
X21707140Y8324620D01*
X21516640Y8403360D01*
X21277880Y8499880D01*
X20729240Y8720860D01*
X20056140Y8258580D01*
X19995180Y8217940D01*
X19751340Y8052840D01*
X19553220Y7920760D01*
X19413520Y7831860D01*
X19357640Y7798840D01*
X19352560Y7801380D01*
X19283980Y7859800D01*
X19151900Y7984260D01*
X18969020Y8162060D01*
X18758200Y8372880D01*
X18600720Y8530360D01*
X18415300Y8718320D01*
X18298460Y8845320D01*
X18232420Y8926600D01*
X18209560Y8977400D01*
X18217180Y9010420D01*
X18260360Y9079000D01*
X18359420Y9226320D01*
X18496580Y9432060D01*
X18661680Y9668280D01*
X18796300Y9868940D01*
X18943620Y10095000D01*
X19037600Y10255020D01*
X19070620Y10333760D01*
X19063000Y10366780D01*
X19014740Y10498860D01*
X18936000Y10699520D01*
X18834400Y10935740D01*
X18600720Y11469140D01*
X18250200Y11535180D01*
X18039380Y11575820D01*
X17742200Y11634240D01*
X17457720Y11687580D01*
X17015760Y11773940D01*
X17000520Y13399540D01*
X17069100Y13430020D01*
X17135140Y13447800D01*
X17297700Y13483360D01*
X17531380Y13529080D01*
X17808240Y13582420D01*
X18044460Y13625600D01*
X18280680Y13671320D01*
X18450860Y13704340D01*
X18527060Y13719580D01*
X18544840Y13744980D01*
X18605800Y13861820D01*
X18689620Y14042160D01*
X18783600Y14263140D01*
X18877580Y14489200D01*
X18961400Y14700020D01*
X19019820Y14860040D01*
X19042680Y14943860D01*
X19009660Y15004820D01*
X18920760Y15144520D01*
X18788680Y15342640D01*
X18628660Y15578860D01*
X18466100Y15815080D01*
X18331480Y16015740D01*
X18234960Y16160520D01*
X18196860Y16226560D01*
X18217180Y16272280D01*
X18311160Y16386580D01*
X18488960Y16569460D01*
X18753120Y16831080D01*
X18796300Y16874260D01*
X19007120Y17074920D01*
X19184920Y17240020D01*
X19306840Y17349240D01*
X19362720Y17389880D01*
M02*
