M48
METRIC,TZ
T1C0.400
T2C1.016
T3C1.199
T4C1.194
T5C3.200
%
G90
G05
T1
X3.25Y18.5
X6.721Y14.938
X6.763Y16.479
X11.398Y14.674
X11.553Y19.915
X13.16Y10.884
X18.412Y10.209
X21.686Y8.755
X26.167Y9.869
X27.562Y11.25
X34.181Y10.205
X39.063Y10.912
X42.895Y14.207
X43.176Y9.913
X44.873Y11.338
X50.939Y13.75
X50.984Y10.878
X56.713Y13.75
X59.75Y10.893
X67.3Y11.2
X69.975Y18.417
X74.261Y16.148
X74.493Y13.341
X74.627Y14.407
T2
X36.5Y5.5
X39.04Y5.5
X41.58Y5.5
T3
X10.46Y25.
X13.Y25.
X15.54Y25.
X19.46Y25.
X22.Y25.
X24.54Y25.
X28.46Y25.
X31.Y25.
X33.54Y25.
X37.46Y25.
X40.Y25.
X42.54Y25.
X46.46Y25.
X49.Y25.
X51.54Y25.
X55.46Y25.
X58.Y25.
X60.54Y25.
X64.46Y25.
X67.Y25.
X69.54Y25.
T4
X6.Y20.87
X6.Y9.13
X74.Y20.87
X74.Y9.13
T5
X5.Y25.
X5.Y5.
X75.Y25.
X75.Y5.
T0
M30
