G04 #@! TF.FileFunction,Copper,L2,Bot,Signal*
%FSLAX46Y46*%
G04 Gerber Fmt 4.6, Leading zero omitted, Abs format (unit mm)*
G04 Created by KiCad (PCBNEW 4.0.2-stable) date 31/05/2016 22:00:56*
%MOMM*%
G01*
G04 APERTURE LIST*
%ADD10C,0.100000*%
%ADD11C,0.150000*%
%ADD12R,1.727200X2.032000*%
%ADD13O,1.727200X2.032000*%
%ADD14C,7.000000*%
%ADD15C,1.270000*%
%ADD16O,1.800860X3.500120*%
%ADD17C,0.600000*%
%ADD18C,0.250000*%
%ADD19C,0.149860*%
G04 APERTURE END LIST*
D10*
D11*
X75000000Y28500000D02*
X5000000Y28500000D01*
X5000000Y1500000D02*
X75000000Y1500000D01*
X78500000Y25000000D02*
G75*
G03X75000000Y28500000I-3500000J0D01*
G01*
X75000000Y1500000D02*
G75*
G03X78500000Y5000000I0J3500000D01*
G01*
X78500000Y25000000D02*
X78500000Y5000000D01*
X1500000Y25000000D02*
X1500000Y5000000D01*
X5000000Y28500000D02*
G75*
G03X1500000Y25000000I0J-3500000D01*
G01*
X1500000Y5000000D02*
G75*
G03X5000000Y1500000I3500000J0D01*
G01*
D12*
X36500000Y5500000D03*
D13*
X39040000Y5500000D03*
X41580000Y5500000D03*
D14*
X5000000Y25000000D03*
X75000000Y25000000D03*
X75000000Y5000000D03*
X5000000Y5000000D03*
D15*
X6000000Y9130000D03*
X6000000Y20870000D03*
X74000000Y9130000D03*
X74000000Y20870000D03*
D16*
X10460000Y25000000D03*
X13000000Y25000000D03*
X15540000Y25000000D03*
X19460000Y25000000D03*
X22000000Y25000000D03*
X24540000Y25000000D03*
X28460000Y25000000D03*
X31000000Y25000000D03*
X33540000Y25000000D03*
X37460000Y25000000D03*
X40000000Y25000000D03*
X42540000Y25000000D03*
X46460000Y25000000D03*
X49000000Y25000000D03*
X51540000Y25000000D03*
X55460000Y25000000D03*
X58000000Y25000000D03*
X60540000Y25000000D03*
X64460000Y25000000D03*
X67000000Y25000000D03*
X69540000Y25000000D03*
D17*
X42895400Y14206900D03*
X50939100Y13750000D03*
X56713000Y13750000D03*
X3250000Y18500000D03*
X43176000Y9913100D03*
X34181000Y10205500D03*
X50984000Y10878400D03*
X67300000Y11200000D03*
X59750000Y10893300D03*
X18412000Y10208900D03*
X26167000Y9869200D03*
X69975000Y18416700D03*
X13160000Y10883900D03*
X74493400Y13340700D03*
X27562500Y11250000D03*
X74627100Y14407000D03*
X11398200Y14674400D03*
X6721300Y14937500D03*
X21686400Y8755200D03*
X74261300Y16147500D03*
X11553200Y19914500D03*
X44873500Y11338400D03*
X39062600Y10911700D03*
X6763500Y16478800D03*
D18*
X36500000Y5500000D02*
X37688900Y5500000D01*
X44070100Y9845700D02*
X44070100Y10501800D01*
X40300400Y6076000D02*
X44070100Y9845700D01*
X40300400Y4879000D02*
X40300400Y6076000D01*
X39562800Y4141400D02*
X40300400Y4879000D01*
X38527400Y4141400D02*
X39562800Y4141400D01*
X37688900Y4979900D02*
X38527400Y4141400D01*
X37688900Y5500000D02*
X37688900Y4979900D01*
X42895400Y11676500D02*
X42895400Y14206900D01*
X44070100Y10501800D02*
X42895400Y11676500D01*
X47690900Y10501800D02*
X50939100Y13750000D01*
X44070100Y10501800D02*
X47690900Y10501800D01*
X50939100Y13750000D02*
X56713000Y13750000D01*
X22000000Y27750000D02*
X22000000Y25000000D01*
X31000000Y27750000D02*
X31000000Y25000000D01*
X40000000Y27750000D02*
X40000000Y25000000D01*
X49000000Y27750000D02*
X49000000Y25000000D01*
X58000000Y27750000D02*
X58000000Y25000000D01*
X67000000Y27250000D02*
X67000000Y25000000D01*
X66500000Y27750000D02*
X67000000Y27250000D01*
X58000000Y27750000D02*
X66500000Y27750000D01*
X49000000Y27750000D02*
X58000000Y27750000D01*
X40000000Y27750000D02*
X49000000Y27750000D01*
X31000000Y27750000D02*
X40000000Y27750000D01*
X13750000Y27750000D02*
X22000000Y27750000D01*
X13000000Y27000000D02*
X13750000Y27750000D01*
X13000000Y25000000D02*
X13000000Y27000000D01*
X22000000Y27750000D02*
X31000000Y27750000D01*
X39698000Y7499300D02*
X39040000Y6841300D01*
X39698000Y13014900D02*
X39698000Y7499300D01*
X37460000Y15252900D02*
X39698000Y13014900D01*
X37460000Y25000000D02*
X37460000Y15252900D01*
X39040000Y5500000D02*
X39040000Y6841300D01*
X64350200Y3197500D02*
X74493400Y13340700D01*
X20846400Y3197500D02*
X64350200Y3197500D01*
X13160000Y10883900D02*
X20846400Y3197500D01*
X35121500Y3691000D02*
X27562500Y11250000D01*
X63911100Y3691000D02*
X35121500Y3691000D01*
X74627100Y14407000D02*
X63911100Y3691000D01*
X24138100Y14674400D02*
X11398200Y14674400D01*
X27562500Y11250000D02*
X24138100Y14674400D01*
X16392500Y14049100D02*
X21686400Y8755200D01*
X7609700Y14049100D02*
X16392500Y14049100D01*
X6721300Y14937500D02*
X7609700Y14049100D01*
X44873500Y11338400D02*
X44873500Y16147500D01*
X74261300Y16147500D02*
X44873500Y16147500D01*
X31094900Y19914500D02*
X11553200Y19914500D01*
X35500000Y24319600D02*
X31094900Y19914500D01*
X35500000Y25714900D02*
X35500000Y24319600D01*
X36901200Y27116100D02*
X35500000Y25714900D01*
X37994800Y27116100D02*
X36901200Y27116100D01*
X38730000Y26380900D02*
X37994800Y27116100D01*
X38730000Y22291000D02*
X38730000Y26380900D01*
X44873500Y16147500D02*
X38730000Y22291000D01*
X33495500Y16478800D02*
X6763500Y16478800D01*
X39062600Y10911700D02*
X33495500Y16478800D01*
D19*
G36*
X71755884Y27171746D02*
X71171736Y25764963D01*
X71170407Y24241720D01*
X71752099Y22833919D01*
X72828254Y21755884D01*
X73318933Y21552136D01*
X73183296Y21416736D01*
X73036237Y21062579D01*
X73035903Y20679104D01*
X73182343Y20324691D01*
X73453264Y20053296D01*
X73807421Y19906237D01*
X74190896Y19905903D01*
X74545309Y20052343D01*
X74816704Y20323264D01*
X74963763Y20677421D01*
X74964097Y21060896D01*
X74918545Y21171140D01*
X75758280Y21170407D01*
X77166081Y21752099D01*
X78096070Y22680466D01*
X78096070Y7318177D01*
X77171746Y8244116D01*
X75764963Y8828264D01*
X74918744Y8829002D01*
X74963763Y8937421D01*
X74964097Y9320896D01*
X74817657Y9675309D01*
X74546736Y9946704D01*
X74192579Y10093763D01*
X73809104Y10094097D01*
X73454691Y9947657D01*
X73183296Y9676736D01*
X73036237Y9322579D01*
X73035903Y8939104D01*
X73182343Y8584691D01*
X73318620Y8448176D01*
X72833919Y8247901D01*
X71755884Y7171746D01*
X71171736Y5764963D01*
X71170407Y4241720D01*
X71752099Y2833919D01*
X72680466Y1903930D01*
X7318177Y1903930D01*
X8244116Y2828254D01*
X8828264Y4235037D01*
X8829593Y5758280D01*
X8247901Y7166081D01*
X7171746Y8244116D01*
X6681067Y8447864D01*
X6816704Y8583264D01*
X6963763Y8937421D01*
X6964097Y9320896D01*
X6817657Y9675309D01*
X6546736Y9946704D01*
X6192579Y10093763D01*
X5809104Y10094097D01*
X5454691Y9947657D01*
X5183296Y9676736D01*
X5036237Y9322579D01*
X5035903Y8939104D01*
X5081455Y8828860D01*
X4241720Y8829593D01*
X2833919Y8247901D01*
X1903930Y7319534D01*
X1903930Y14812947D01*
X6092262Y14812947D01*
X6187809Y14581705D01*
X6364575Y14404630D01*
X6595649Y14308680D01*
X6708264Y14308582D01*
X7288723Y13728123D01*
X7435989Y13629723D01*
X7609700Y13595170D01*
X16204476Y13595170D01*
X21057459Y8742187D01*
X21057362Y8630647D01*
X21152909Y8399405D01*
X21329675Y8222330D01*
X21560749Y8126380D01*
X21810953Y8126162D01*
X22042195Y8221709D01*
X22219270Y8398475D01*
X22315220Y8629549D01*
X22315438Y8879753D01*
X22219891Y9110995D01*
X22043125Y9288070D01*
X21812051Y9384020D01*
X21699436Y9384118D01*
X16863084Y14220470D01*
X23950076Y14220470D01*
X26933559Y11236987D01*
X26933462Y11125447D01*
X27029009Y10894205D01*
X27205775Y10717130D01*
X27436849Y10621180D01*
X27549464Y10621082D01*
X34519116Y3651430D01*
X21034424Y3651430D01*
X13788941Y10896913D01*
X13789038Y11008453D01*
X13693491Y11239695D01*
X13516725Y11416770D01*
X13285651Y11512720D01*
X13035447Y11512938D01*
X12804205Y11417391D01*
X12627130Y11240625D01*
X12531180Y11009551D01*
X12530962Y10759347D01*
X12626509Y10528105D01*
X12803275Y10351030D01*
X13034349Y10255080D01*
X13146964Y10254982D01*
X20525423Y2876523D01*
X20672689Y2778123D01*
X20846400Y2743570D01*
X64350200Y2743570D01*
X64523912Y2778123D01*
X64671177Y2876523D01*
X74506413Y12711759D01*
X74617953Y12711662D01*
X74849195Y12807209D01*
X75026270Y12983975D01*
X75122220Y13215049D01*
X75122438Y13465253D01*
X75026891Y13696495D01*
X74888940Y13834688D01*
X74982895Y13873509D01*
X75159970Y14050275D01*
X75255920Y14281349D01*
X75256138Y14531553D01*
X75160591Y14762795D01*
X74983825Y14939870D01*
X74752751Y15035820D01*
X74502547Y15036038D01*
X74271305Y14940491D01*
X74094230Y14763725D01*
X73998280Y14532651D01*
X73998182Y14420036D01*
X63723076Y4144930D01*
X41661488Y4144930D01*
X42036361Y4219497D01*
X42423246Y4478005D01*
X42681754Y4864890D01*
X42772530Y5321251D01*
X42772530Y5678749D01*
X42681754Y6135110D01*
X42423246Y6521995D01*
X42036361Y6780503D01*
X41711480Y6845126D01*
X44391077Y9524723D01*
X44489477Y9671988D01*
X44524030Y9845700D01*
X44524030Y10047870D01*
X47690900Y10047870D01*
X47864612Y10082423D01*
X48011877Y10180823D01*
X50952113Y13121059D01*
X51063653Y13120962D01*
X51294895Y13216509D01*
X51374595Y13296070D01*
X56277473Y13296070D01*
X56356275Y13217130D01*
X56587349Y13121180D01*
X56837553Y13120962D01*
X57068795Y13216509D01*
X57245870Y13393275D01*
X57341820Y13624349D01*
X57342038Y13874553D01*
X57246491Y14105795D01*
X57069725Y14282870D01*
X56838651Y14378820D01*
X56588447Y14379038D01*
X56357205Y14283491D01*
X56277505Y14203930D01*
X51374627Y14203930D01*
X51295825Y14282870D01*
X51064751Y14378820D01*
X50814547Y14379038D01*
X50583305Y14283491D01*
X50406230Y14106725D01*
X50310280Y13875651D01*
X50310182Y13763036D01*
X47502876Y10955730D01*
X45380380Y10955730D01*
X45406370Y10981675D01*
X45502320Y11212749D01*
X45502538Y11462953D01*
X45406991Y11694195D01*
X45327430Y11773895D01*
X45327430Y15693570D01*
X73825773Y15693570D01*
X73904575Y15614630D01*
X74135649Y15518680D01*
X74385853Y15518462D01*
X74617095Y15614009D01*
X74794170Y15790775D01*
X74890120Y16021849D01*
X74890338Y16272053D01*
X74794791Y16503295D01*
X74618025Y16680370D01*
X74386951Y16776320D01*
X74136747Y16776538D01*
X73905505Y16680991D01*
X73825805Y16601430D01*
X45061524Y16601430D01*
X39183930Y22479024D01*
X39183930Y23385647D01*
X39205247Y23353822D01*
X39570570Y23110317D01*
X39822723Y23039203D01*
X39998730Y23081348D01*
X39998730Y24998730D01*
X40001270Y24998730D01*
X40001270Y23081348D01*
X40177277Y23039203D01*
X40429430Y23110317D01*
X40794753Y23353822D01*
X41039082Y23718594D01*
X41125220Y24149100D01*
X41125220Y24998730D01*
X40001270Y24998730D01*
X39998730Y24998730D01*
X39978730Y24998730D01*
X39978730Y25001270D01*
X39998730Y25001270D01*
X39998730Y26918652D01*
X40001270Y26918652D01*
X40001270Y25001270D01*
X41125220Y25001270D01*
X41125220Y25850900D01*
X41117325Y25890360D01*
X41310640Y25890360D01*
X41310640Y24109640D01*
X41404219Y23639184D01*
X41670711Y23240351D01*
X42069544Y22973859D01*
X42540000Y22880280D01*
X43010456Y22973859D01*
X43409289Y23240351D01*
X43675781Y23639184D01*
X43769360Y24109640D01*
X43769360Y25890360D01*
X45230640Y25890360D01*
X45230640Y24109640D01*
X45324219Y23639184D01*
X45590711Y23240351D01*
X45989544Y22973859D01*
X46460000Y22880280D01*
X46930456Y22973859D01*
X47329289Y23240351D01*
X47595781Y23639184D01*
X47689360Y24109640D01*
X47689360Y24998730D01*
X47874780Y24998730D01*
X47874780Y24149100D01*
X47960918Y23718594D01*
X48205247Y23353822D01*
X48570570Y23110317D01*
X48822723Y23039203D01*
X48998730Y23081348D01*
X48998730Y24998730D01*
X49001270Y24998730D01*
X49001270Y23081348D01*
X49177277Y23039203D01*
X49429430Y23110317D01*
X49794753Y23353822D01*
X50039082Y23718594D01*
X50125220Y24149100D01*
X50125220Y24998730D01*
X49001270Y24998730D01*
X48998730Y24998730D01*
X47874780Y24998730D01*
X47689360Y24998730D01*
X47689360Y25850900D01*
X47874780Y25850900D01*
X47874780Y25001270D01*
X48998730Y25001270D01*
X48998730Y26918652D01*
X49001270Y26918652D01*
X49001270Y25001270D01*
X50125220Y25001270D01*
X50125220Y25850900D01*
X50117325Y25890360D01*
X50310640Y25890360D01*
X50310640Y24109640D01*
X50404219Y23639184D01*
X50670711Y23240351D01*
X51069544Y22973859D01*
X51540000Y22880280D01*
X52010456Y22973859D01*
X52409289Y23240351D01*
X52675781Y23639184D01*
X52769360Y24109640D01*
X52769360Y25890360D01*
X54230640Y25890360D01*
X54230640Y24109640D01*
X54324219Y23639184D01*
X54590711Y23240351D01*
X54989544Y22973859D01*
X55460000Y22880280D01*
X55930456Y22973859D01*
X56329289Y23240351D01*
X56595781Y23639184D01*
X56689360Y24109640D01*
X56689360Y24998730D01*
X56874780Y24998730D01*
X56874780Y24149100D01*
X56960918Y23718594D01*
X57205247Y23353822D01*
X57570570Y23110317D01*
X57822723Y23039203D01*
X57998730Y23081348D01*
X57998730Y24998730D01*
X58001270Y24998730D01*
X58001270Y23081348D01*
X58177277Y23039203D01*
X58429430Y23110317D01*
X58794753Y23353822D01*
X59039082Y23718594D01*
X59125220Y24149100D01*
X59125220Y24998730D01*
X58001270Y24998730D01*
X57998730Y24998730D01*
X56874780Y24998730D01*
X56689360Y24998730D01*
X56689360Y25850900D01*
X56874780Y25850900D01*
X56874780Y25001270D01*
X57998730Y25001270D01*
X57998730Y26918652D01*
X58001270Y26918652D01*
X58001270Y25001270D01*
X59125220Y25001270D01*
X59125220Y25850900D01*
X59117325Y25890360D01*
X59310640Y25890360D01*
X59310640Y24109640D01*
X59404219Y23639184D01*
X59670711Y23240351D01*
X60069544Y22973859D01*
X60540000Y22880280D01*
X61010456Y22973859D01*
X61409289Y23240351D01*
X61675781Y23639184D01*
X61769360Y24109640D01*
X61769360Y25890360D01*
X63230640Y25890360D01*
X63230640Y24109640D01*
X63324219Y23639184D01*
X63590711Y23240351D01*
X63989544Y22973859D01*
X64460000Y22880280D01*
X64930456Y22973859D01*
X65329289Y23240351D01*
X65595781Y23639184D01*
X65689360Y24109640D01*
X65689360Y24998730D01*
X65874780Y24998730D01*
X65874780Y24149100D01*
X65960918Y23718594D01*
X66205247Y23353822D01*
X66570570Y23110317D01*
X66822723Y23039203D01*
X66998730Y23081348D01*
X66998730Y24998730D01*
X67001270Y24998730D01*
X67001270Y23081348D01*
X67177277Y23039203D01*
X67429430Y23110317D01*
X67794753Y23353822D01*
X68039082Y23718594D01*
X68125220Y24149100D01*
X68125220Y24998730D01*
X67001270Y24998730D01*
X66998730Y24998730D01*
X65874780Y24998730D01*
X65689360Y24998730D01*
X65689360Y25850900D01*
X65874780Y25850900D01*
X65874780Y25001270D01*
X66998730Y25001270D01*
X66998730Y26918652D01*
X67001270Y26918652D01*
X67001270Y25001270D01*
X68125220Y25001270D01*
X68125220Y25850900D01*
X68117325Y25890360D01*
X68310640Y25890360D01*
X68310640Y24109640D01*
X68404219Y23639184D01*
X68670711Y23240351D01*
X69069544Y22973859D01*
X69540000Y22880280D01*
X70010456Y22973859D01*
X70409289Y23240351D01*
X70675781Y23639184D01*
X70769360Y24109640D01*
X70769360Y25890360D01*
X70675781Y26360816D01*
X70409289Y26759649D01*
X70010456Y27026141D01*
X69540000Y27119720D01*
X69069544Y27026141D01*
X68670711Y26759649D01*
X68404219Y26360816D01*
X68310640Y25890360D01*
X68117325Y25890360D01*
X68039082Y26281406D01*
X67794753Y26646178D01*
X67429430Y26889683D01*
X67177277Y26960797D01*
X67001270Y26918652D01*
X66998730Y26918652D01*
X66822723Y26960797D01*
X66570570Y26889683D01*
X66205247Y26646178D01*
X65960918Y26281406D01*
X65874780Y25850900D01*
X65689360Y25850900D01*
X65689360Y25890360D01*
X65595781Y26360816D01*
X65329289Y26759649D01*
X64930456Y27026141D01*
X64460000Y27119720D01*
X63989544Y27026141D01*
X63590711Y26759649D01*
X63324219Y26360816D01*
X63230640Y25890360D01*
X61769360Y25890360D01*
X61675781Y26360816D01*
X61409289Y26759649D01*
X61010456Y27026141D01*
X60540000Y27119720D01*
X60069544Y27026141D01*
X59670711Y26759649D01*
X59404219Y26360816D01*
X59310640Y25890360D01*
X59117325Y25890360D01*
X59039082Y26281406D01*
X58794753Y26646178D01*
X58429430Y26889683D01*
X58177277Y26960797D01*
X58001270Y26918652D01*
X57998730Y26918652D01*
X57822723Y26960797D01*
X57570570Y26889683D01*
X57205247Y26646178D01*
X56960918Y26281406D01*
X56874780Y25850900D01*
X56689360Y25850900D01*
X56689360Y25890360D01*
X56595781Y26360816D01*
X56329289Y26759649D01*
X55930456Y27026141D01*
X55460000Y27119720D01*
X54989544Y27026141D01*
X54590711Y26759649D01*
X54324219Y26360816D01*
X54230640Y25890360D01*
X52769360Y25890360D01*
X52675781Y26360816D01*
X52409289Y26759649D01*
X52010456Y27026141D01*
X51540000Y27119720D01*
X51069544Y27026141D01*
X50670711Y26759649D01*
X50404219Y26360816D01*
X50310640Y25890360D01*
X50117325Y25890360D01*
X50039082Y26281406D01*
X49794753Y26646178D01*
X49429430Y26889683D01*
X49177277Y26960797D01*
X49001270Y26918652D01*
X48998730Y26918652D01*
X48822723Y26960797D01*
X48570570Y26889683D01*
X48205247Y26646178D01*
X47960918Y26281406D01*
X47874780Y25850900D01*
X47689360Y25850900D01*
X47689360Y25890360D01*
X47595781Y26360816D01*
X47329289Y26759649D01*
X46930456Y27026141D01*
X46460000Y27119720D01*
X45989544Y27026141D01*
X45590711Y26759649D01*
X45324219Y26360816D01*
X45230640Y25890360D01*
X43769360Y25890360D01*
X43675781Y26360816D01*
X43409289Y26759649D01*
X43010456Y27026141D01*
X42540000Y27119720D01*
X42069544Y27026141D01*
X41670711Y26759649D01*
X41404219Y26360816D01*
X41310640Y25890360D01*
X41117325Y25890360D01*
X41039082Y26281406D01*
X40794753Y26646178D01*
X40429430Y26889683D01*
X40177277Y26960797D01*
X40001270Y26918652D01*
X39998730Y26918652D01*
X39822723Y26960797D01*
X39570570Y26889683D01*
X39205247Y26646178D01*
X39146649Y26558694D01*
X39050977Y26701877D01*
X38315777Y27437077D01*
X38168512Y27535477D01*
X37994800Y27570030D01*
X36901200Y27570030D01*
X36727488Y27535477D01*
X36580223Y27437077D01*
X35179023Y26035877D01*
X35080623Y25888612D01*
X35080623Y25888611D01*
X35046070Y25714900D01*
X35046070Y24507624D01*
X34769360Y24230914D01*
X34769360Y25890360D01*
X34675781Y26360816D01*
X34409289Y26759649D01*
X34010456Y27026141D01*
X33540000Y27119720D01*
X33069544Y27026141D01*
X32670711Y26759649D01*
X32404219Y26360816D01*
X32310640Y25890360D01*
X32310640Y24109640D01*
X32404219Y23639184D01*
X32670711Y23240351D01*
X33069544Y22973859D01*
X33438847Y22900401D01*
X30906876Y20368430D01*
X11988727Y20368430D01*
X11909925Y20447370D01*
X11678851Y20543320D01*
X11428647Y20543538D01*
X11197405Y20447991D01*
X11020330Y20271225D01*
X10924380Y20040151D01*
X10924162Y19789947D01*
X11019709Y19558705D01*
X11196475Y19381630D01*
X11427549Y19285680D01*
X11677753Y19285462D01*
X11908995Y19381009D01*
X11988695Y19460570D01*
X31094900Y19460570D01*
X31268612Y19495123D01*
X31415877Y19593523D01*
X35820977Y23998623D01*
X35919376Y24145888D01*
X35919377Y24145889D01*
X35953930Y24319600D01*
X35953930Y25526876D01*
X36230640Y25803586D01*
X36230640Y24109640D01*
X36324219Y23639184D01*
X36590711Y23240351D01*
X36989544Y22973859D01*
X37006070Y22970572D01*
X37006070Y15252900D01*
X37040623Y15079188D01*
X37139023Y14931923D01*
X39244070Y12826876D01*
X39244070Y11517342D01*
X39188251Y11540520D01*
X39075636Y11540618D01*
X33816477Y16799777D01*
X33669212Y16898177D01*
X33495500Y16932730D01*
X7199027Y16932730D01*
X7120225Y17011670D01*
X6889151Y17107620D01*
X6638947Y17107838D01*
X6407705Y17012291D01*
X6230630Y16835525D01*
X6134680Y16604451D01*
X6134462Y16354247D01*
X6230009Y16123005D01*
X6406775Y15945930D01*
X6637849Y15849980D01*
X6888053Y15849762D01*
X7119295Y15945309D01*
X7198995Y16024870D01*
X33307476Y16024870D01*
X38433659Y10898687D01*
X38433562Y10787147D01*
X38529109Y10555905D01*
X38705875Y10378830D01*
X38936949Y10282880D01*
X39187153Y10282662D01*
X39244070Y10306180D01*
X39244070Y7687324D01*
X38719023Y7162277D01*
X38620623Y7015012D01*
X38620623Y7015011D01*
X38586070Y6841300D01*
X38586070Y6780987D01*
X38583639Y6780503D01*
X38196754Y6521995D01*
X37938246Y6135110D01*
X37891495Y5900077D01*
X37862611Y5919377D01*
X37698974Y5951926D01*
X37698974Y6516000D01*
X37676038Y6637894D01*
X37603999Y6749847D01*
X37494079Y6824951D01*
X37363600Y6851374D01*
X35636400Y6851374D01*
X35514506Y6828438D01*
X35402553Y6756399D01*
X35327449Y6646479D01*
X35301026Y6516000D01*
X35301026Y4484000D01*
X35323962Y4362106D01*
X35396001Y4250153D01*
X35505921Y4175049D01*
X35636400Y4148626D01*
X37363600Y4148626D01*
X37485494Y4171562D01*
X37597447Y4243601D01*
X37672551Y4353521D01*
X37672681Y4354165D01*
X37881916Y4144930D01*
X35309524Y4144930D01*
X28191441Y11263013D01*
X28191538Y11374553D01*
X28095991Y11605795D01*
X27919225Y11782870D01*
X27688151Y11878820D01*
X27575536Y11878918D01*
X24459077Y14995377D01*
X24311812Y15093777D01*
X24138100Y15128330D01*
X11833727Y15128330D01*
X11754925Y15207270D01*
X11523851Y15303220D01*
X11273647Y15303438D01*
X11042405Y15207891D01*
X10865330Y15031125D01*
X10769380Y14800051D01*
X10769162Y14549847D01*
X10788506Y14503030D01*
X7797724Y14503030D01*
X7350241Y14950513D01*
X7350338Y15062053D01*
X7254791Y15293295D01*
X7078025Y15470370D01*
X6846951Y15566320D01*
X6596747Y15566538D01*
X6365505Y15470991D01*
X6188430Y15294225D01*
X6092480Y15063151D01*
X6092262Y14812947D01*
X1903930Y14812947D01*
X1903930Y22681823D01*
X2828254Y21755884D01*
X4235037Y21171736D01*
X5081256Y21170998D01*
X5036237Y21062579D01*
X5035903Y20679104D01*
X5182343Y20324691D01*
X5453264Y20053296D01*
X5807421Y19906237D01*
X6190896Y19905903D01*
X6545309Y20052343D01*
X6816704Y20323264D01*
X6963763Y20677421D01*
X6964097Y21060896D01*
X6817657Y21415309D01*
X6681380Y21551824D01*
X7166081Y21752099D01*
X8244116Y22828254D01*
X8828264Y24235037D01*
X8829593Y25758280D01*
X8775019Y25890360D01*
X9230640Y25890360D01*
X9230640Y24109640D01*
X9324219Y23639184D01*
X9590711Y23240351D01*
X9989544Y22973859D01*
X10460000Y22880280D01*
X10930456Y22973859D01*
X11329289Y23240351D01*
X11595781Y23639184D01*
X11689360Y24109640D01*
X11689360Y24998730D01*
X11874780Y24998730D01*
X11874780Y24149100D01*
X11960918Y23718594D01*
X12205247Y23353822D01*
X12570570Y23110317D01*
X12822723Y23039203D01*
X12998730Y23081348D01*
X12998730Y24998730D01*
X13001270Y24998730D01*
X13001270Y23081348D01*
X13177277Y23039203D01*
X13429430Y23110317D01*
X13794753Y23353822D01*
X14039082Y23718594D01*
X14125220Y24149100D01*
X14125220Y24998730D01*
X13001270Y24998730D01*
X12998730Y24998730D01*
X11874780Y24998730D01*
X11689360Y24998730D01*
X11689360Y25850900D01*
X11874780Y25850900D01*
X11874780Y25001270D01*
X12998730Y25001270D01*
X12998730Y26918652D01*
X13001270Y26918652D01*
X13001270Y25001270D01*
X14125220Y25001270D01*
X14125220Y25850900D01*
X14117325Y25890360D01*
X14310640Y25890360D01*
X14310640Y24109640D01*
X14404219Y23639184D01*
X14670711Y23240351D01*
X15069544Y22973859D01*
X15540000Y22880280D01*
X16010456Y22973859D01*
X16409289Y23240351D01*
X16675781Y23639184D01*
X16769360Y24109640D01*
X16769360Y25890360D01*
X18230640Y25890360D01*
X18230640Y24109640D01*
X18324219Y23639184D01*
X18590711Y23240351D01*
X18989544Y22973859D01*
X19460000Y22880280D01*
X19930456Y22973859D01*
X20329289Y23240351D01*
X20595781Y23639184D01*
X20689360Y24109640D01*
X20689360Y24998730D01*
X20874780Y24998730D01*
X20874780Y24149100D01*
X20960918Y23718594D01*
X21205247Y23353822D01*
X21570570Y23110317D01*
X21822723Y23039203D01*
X21998730Y23081348D01*
X21998730Y24998730D01*
X22001270Y24998730D01*
X22001270Y23081348D01*
X22177277Y23039203D01*
X22429430Y23110317D01*
X22794753Y23353822D01*
X23039082Y23718594D01*
X23125220Y24149100D01*
X23125220Y24998730D01*
X22001270Y24998730D01*
X21998730Y24998730D01*
X20874780Y24998730D01*
X20689360Y24998730D01*
X20689360Y25850900D01*
X20874780Y25850900D01*
X20874780Y25001270D01*
X21998730Y25001270D01*
X21998730Y26918652D01*
X22001270Y26918652D01*
X22001270Y25001270D01*
X23125220Y25001270D01*
X23125220Y25850900D01*
X23117325Y25890360D01*
X23310640Y25890360D01*
X23310640Y24109640D01*
X23404219Y23639184D01*
X23670711Y23240351D01*
X24069544Y22973859D01*
X24540000Y22880280D01*
X25010456Y22973859D01*
X25409289Y23240351D01*
X25675781Y23639184D01*
X25769360Y24109640D01*
X25769360Y25890360D01*
X27230640Y25890360D01*
X27230640Y24109640D01*
X27324219Y23639184D01*
X27590711Y23240351D01*
X27989544Y22973859D01*
X28460000Y22880280D01*
X28930456Y22973859D01*
X29329289Y23240351D01*
X29595781Y23639184D01*
X29689360Y24109640D01*
X29689360Y24998730D01*
X29874780Y24998730D01*
X29874780Y24149100D01*
X29960918Y23718594D01*
X30205247Y23353822D01*
X30570570Y23110317D01*
X30822723Y23039203D01*
X30998730Y23081348D01*
X30998730Y24998730D01*
X31001270Y24998730D01*
X31001270Y23081348D01*
X31177277Y23039203D01*
X31429430Y23110317D01*
X31794753Y23353822D01*
X32039082Y23718594D01*
X32125220Y24149100D01*
X32125220Y24998730D01*
X31001270Y24998730D01*
X30998730Y24998730D01*
X29874780Y24998730D01*
X29689360Y24998730D01*
X29689360Y25850900D01*
X29874780Y25850900D01*
X29874780Y25001270D01*
X30998730Y25001270D01*
X30998730Y26918652D01*
X31001270Y26918652D01*
X31001270Y25001270D01*
X32125220Y25001270D01*
X32125220Y25850900D01*
X32039082Y26281406D01*
X31794753Y26646178D01*
X31429430Y26889683D01*
X31177277Y26960797D01*
X31001270Y26918652D01*
X30998730Y26918652D01*
X30822723Y26960797D01*
X30570570Y26889683D01*
X30205247Y26646178D01*
X29960918Y26281406D01*
X29874780Y25850900D01*
X29689360Y25850900D01*
X29689360Y25890360D01*
X29595781Y26360816D01*
X29329289Y26759649D01*
X28930456Y27026141D01*
X28460000Y27119720D01*
X27989544Y27026141D01*
X27590711Y26759649D01*
X27324219Y26360816D01*
X27230640Y25890360D01*
X25769360Y25890360D01*
X25675781Y26360816D01*
X25409289Y26759649D01*
X25010456Y27026141D01*
X24540000Y27119720D01*
X24069544Y27026141D01*
X23670711Y26759649D01*
X23404219Y26360816D01*
X23310640Y25890360D01*
X23117325Y25890360D01*
X23039082Y26281406D01*
X22794753Y26646178D01*
X22429430Y26889683D01*
X22177277Y26960797D01*
X22001270Y26918652D01*
X21998730Y26918652D01*
X21822723Y26960797D01*
X21570570Y26889683D01*
X21205247Y26646178D01*
X20960918Y26281406D01*
X20874780Y25850900D01*
X20689360Y25850900D01*
X20689360Y25890360D01*
X20595781Y26360816D01*
X20329289Y26759649D01*
X19930456Y27026141D01*
X19460000Y27119720D01*
X18989544Y27026141D01*
X18590711Y26759649D01*
X18324219Y26360816D01*
X18230640Y25890360D01*
X16769360Y25890360D01*
X16675781Y26360816D01*
X16409289Y26759649D01*
X16010456Y27026141D01*
X15540000Y27119720D01*
X15069544Y27026141D01*
X14670711Y26759649D01*
X14404219Y26360816D01*
X14310640Y25890360D01*
X14117325Y25890360D01*
X14039082Y26281406D01*
X13794753Y26646178D01*
X13429430Y26889683D01*
X13177277Y26960797D01*
X13001270Y26918652D01*
X12998730Y26918652D01*
X12822723Y26960797D01*
X12570570Y26889683D01*
X12205247Y26646178D01*
X11960918Y26281406D01*
X11874780Y25850900D01*
X11689360Y25850900D01*
X11689360Y25890360D01*
X11595781Y26360816D01*
X11329289Y26759649D01*
X10930456Y27026141D01*
X10460000Y27119720D01*
X9989544Y27026141D01*
X9590711Y26759649D01*
X9324219Y26360816D01*
X9230640Y25890360D01*
X8775019Y25890360D01*
X8247901Y27166081D01*
X7319534Y28096070D01*
X72681823Y28096070D01*
X71755884Y27171746D01*
X71755884Y27171746D01*
G37*
X71755884Y27171746D02*
X71171736Y25764963D01*
X71170407Y24241720D01*
X71752099Y22833919D01*
X72828254Y21755884D01*
X73318933Y21552136D01*
X73183296Y21416736D01*
X73036237Y21062579D01*
X73035903Y20679104D01*
X73182343Y20324691D01*
X73453264Y20053296D01*
X73807421Y19906237D01*
X74190896Y19905903D01*
X74545309Y20052343D01*
X74816704Y20323264D01*
X74963763Y20677421D01*
X74964097Y21060896D01*
X74918545Y21171140D01*
X75758280Y21170407D01*
X77166081Y21752099D01*
X78096070Y22680466D01*
X78096070Y7318177D01*
X77171746Y8244116D01*
X75764963Y8828264D01*
X74918744Y8829002D01*
X74963763Y8937421D01*
X74964097Y9320896D01*
X74817657Y9675309D01*
X74546736Y9946704D01*
X74192579Y10093763D01*
X73809104Y10094097D01*
X73454691Y9947657D01*
X73183296Y9676736D01*
X73036237Y9322579D01*
X73035903Y8939104D01*
X73182343Y8584691D01*
X73318620Y8448176D01*
X72833919Y8247901D01*
X71755884Y7171746D01*
X71171736Y5764963D01*
X71170407Y4241720D01*
X71752099Y2833919D01*
X72680466Y1903930D01*
X7318177Y1903930D01*
X8244116Y2828254D01*
X8828264Y4235037D01*
X8829593Y5758280D01*
X8247901Y7166081D01*
X7171746Y8244116D01*
X6681067Y8447864D01*
X6816704Y8583264D01*
X6963763Y8937421D01*
X6964097Y9320896D01*
X6817657Y9675309D01*
X6546736Y9946704D01*
X6192579Y10093763D01*
X5809104Y10094097D01*
X5454691Y9947657D01*
X5183296Y9676736D01*
X5036237Y9322579D01*
X5035903Y8939104D01*
X5081455Y8828860D01*
X4241720Y8829593D01*
X2833919Y8247901D01*
X1903930Y7319534D01*
X1903930Y14812947D01*
X6092262Y14812947D01*
X6187809Y14581705D01*
X6364575Y14404630D01*
X6595649Y14308680D01*
X6708264Y14308582D01*
X7288723Y13728123D01*
X7435989Y13629723D01*
X7609700Y13595170D01*
X16204476Y13595170D01*
X21057459Y8742187D01*
X21057362Y8630647D01*
X21152909Y8399405D01*
X21329675Y8222330D01*
X21560749Y8126380D01*
X21810953Y8126162D01*
X22042195Y8221709D01*
X22219270Y8398475D01*
X22315220Y8629549D01*
X22315438Y8879753D01*
X22219891Y9110995D01*
X22043125Y9288070D01*
X21812051Y9384020D01*
X21699436Y9384118D01*
X16863084Y14220470D01*
X23950076Y14220470D01*
X26933559Y11236987D01*
X26933462Y11125447D01*
X27029009Y10894205D01*
X27205775Y10717130D01*
X27436849Y10621180D01*
X27549464Y10621082D01*
X34519116Y3651430D01*
X21034424Y3651430D01*
X13788941Y10896913D01*
X13789038Y11008453D01*
X13693491Y11239695D01*
X13516725Y11416770D01*
X13285651Y11512720D01*
X13035447Y11512938D01*
X12804205Y11417391D01*
X12627130Y11240625D01*
X12531180Y11009551D01*
X12530962Y10759347D01*
X12626509Y10528105D01*
X12803275Y10351030D01*
X13034349Y10255080D01*
X13146964Y10254982D01*
X20525423Y2876523D01*
X20672689Y2778123D01*
X20846400Y2743570D01*
X64350200Y2743570D01*
X64523912Y2778123D01*
X64671177Y2876523D01*
X74506413Y12711759D01*
X74617953Y12711662D01*
X74849195Y12807209D01*
X75026270Y12983975D01*
X75122220Y13215049D01*
X75122438Y13465253D01*
X75026891Y13696495D01*
X74888940Y13834688D01*
X74982895Y13873509D01*
X75159970Y14050275D01*
X75255920Y14281349D01*
X75256138Y14531553D01*
X75160591Y14762795D01*
X74983825Y14939870D01*
X74752751Y15035820D01*
X74502547Y15036038D01*
X74271305Y14940491D01*
X74094230Y14763725D01*
X73998280Y14532651D01*
X73998182Y14420036D01*
X63723076Y4144930D01*
X41661488Y4144930D01*
X42036361Y4219497D01*
X42423246Y4478005D01*
X42681754Y4864890D01*
X42772530Y5321251D01*
X42772530Y5678749D01*
X42681754Y6135110D01*
X42423246Y6521995D01*
X42036361Y6780503D01*
X41711480Y6845126D01*
X44391077Y9524723D01*
X44489477Y9671988D01*
X44524030Y9845700D01*
X44524030Y10047870D01*
X47690900Y10047870D01*
X47864612Y10082423D01*
X48011877Y10180823D01*
X50952113Y13121059D01*
X51063653Y13120962D01*
X51294895Y13216509D01*
X51374595Y13296070D01*
X56277473Y13296070D01*
X56356275Y13217130D01*
X56587349Y13121180D01*
X56837553Y13120962D01*
X57068795Y13216509D01*
X57245870Y13393275D01*
X57341820Y13624349D01*
X57342038Y13874553D01*
X57246491Y14105795D01*
X57069725Y14282870D01*
X56838651Y14378820D01*
X56588447Y14379038D01*
X56357205Y14283491D01*
X56277505Y14203930D01*
X51374627Y14203930D01*
X51295825Y14282870D01*
X51064751Y14378820D01*
X50814547Y14379038D01*
X50583305Y14283491D01*
X50406230Y14106725D01*
X50310280Y13875651D01*
X50310182Y13763036D01*
X47502876Y10955730D01*
X45380380Y10955730D01*
X45406370Y10981675D01*
X45502320Y11212749D01*
X45502538Y11462953D01*
X45406991Y11694195D01*
X45327430Y11773895D01*
X45327430Y15693570D01*
X73825773Y15693570D01*
X73904575Y15614630D01*
X74135649Y15518680D01*
X74385853Y15518462D01*
X74617095Y15614009D01*
X74794170Y15790775D01*
X74890120Y16021849D01*
X74890338Y16272053D01*
X74794791Y16503295D01*
X74618025Y16680370D01*
X74386951Y16776320D01*
X74136747Y16776538D01*
X73905505Y16680991D01*
X73825805Y16601430D01*
X45061524Y16601430D01*
X39183930Y22479024D01*
X39183930Y23385647D01*
X39205247Y23353822D01*
X39570570Y23110317D01*
X39822723Y23039203D01*
X39998730Y23081348D01*
X39998730Y24998730D01*
X40001270Y24998730D01*
X40001270Y23081348D01*
X40177277Y23039203D01*
X40429430Y23110317D01*
X40794753Y23353822D01*
X41039082Y23718594D01*
X41125220Y24149100D01*
X41125220Y24998730D01*
X40001270Y24998730D01*
X39998730Y24998730D01*
X39978730Y24998730D01*
X39978730Y25001270D01*
X39998730Y25001270D01*
X39998730Y26918652D01*
X40001270Y26918652D01*
X40001270Y25001270D01*
X41125220Y25001270D01*
X41125220Y25850900D01*
X41117325Y25890360D01*
X41310640Y25890360D01*
X41310640Y24109640D01*
X41404219Y23639184D01*
X41670711Y23240351D01*
X42069544Y22973859D01*
X42540000Y22880280D01*
X43010456Y22973859D01*
X43409289Y23240351D01*
X43675781Y23639184D01*
X43769360Y24109640D01*
X43769360Y25890360D01*
X45230640Y25890360D01*
X45230640Y24109640D01*
X45324219Y23639184D01*
X45590711Y23240351D01*
X45989544Y22973859D01*
X46460000Y22880280D01*
X46930456Y22973859D01*
X47329289Y23240351D01*
X47595781Y23639184D01*
X47689360Y24109640D01*
X47689360Y24998730D01*
X47874780Y24998730D01*
X47874780Y24149100D01*
X47960918Y23718594D01*
X48205247Y23353822D01*
X48570570Y23110317D01*
X48822723Y23039203D01*
X48998730Y23081348D01*
X48998730Y24998730D01*
X49001270Y24998730D01*
X49001270Y23081348D01*
X49177277Y23039203D01*
X49429430Y23110317D01*
X49794753Y23353822D01*
X50039082Y23718594D01*
X50125220Y24149100D01*
X50125220Y24998730D01*
X49001270Y24998730D01*
X48998730Y24998730D01*
X47874780Y24998730D01*
X47689360Y24998730D01*
X47689360Y25850900D01*
X47874780Y25850900D01*
X47874780Y25001270D01*
X48998730Y25001270D01*
X48998730Y26918652D01*
X49001270Y26918652D01*
X49001270Y25001270D01*
X50125220Y25001270D01*
X50125220Y25850900D01*
X50117325Y25890360D01*
X50310640Y25890360D01*
X50310640Y24109640D01*
X50404219Y23639184D01*
X50670711Y23240351D01*
X51069544Y22973859D01*
X51540000Y22880280D01*
X52010456Y22973859D01*
X52409289Y23240351D01*
X52675781Y23639184D01*
X52769360Y24109640D01*
X52769360Y25890360D01*
X54230640Y25890360D01*
X54230640Y24109640D01*
X54324219Y23639184D01*
X54590711Y23240351D01*
X54989544Y22973859D01*
X55460000Y22880280D01*
X55930456Y22973859D01*
X56329289Y23240351D01*
X56595781Y23639184D01*
X56689360Y24109640D01*
X56689360Y24998730D01*
X56874780Y24998730D01*
X56874780Y24149100D01*
X56960918Y23718594D01*
X57205247Y23353822D01*
X57570570Y23110317D01*
X57822723Y23039203D01*
X57998730Y23081348D01*
X57998730Y24998730D01*
X58001270Y24998730D01*
X58001270Y23081348D01*
X58177277Y23039203D01*
X58429430Y23110317D01*
X58794753Y23353822D01*
X59039082Y23718594D01*
X59125220Y24149100D01*
X59125220Y24998730D01*
X58001270Y24998730D01*
X57998730Y24998730D01*
X56874780Y24998730D01*
X56689360Y24998730D01*
X56689360Y25850900D01*
X56874780Y25850900D01*
X56874780Y25001270D01*
X57998730Y25001270D01*
X57998730Y26918652D01*
X58001270Y26918652D01*
X58001270Y25001270D01*
X59125220Y25001270D01*
X59125220Y25850900D01*
X59117325Y25890360D01*
X59310640Y25890360D01*
X59310640Y24109640D01*
X59404219Y23639184D01*
X59670711Y23240351D01*
X60069544Y22973859D01*
X60540000Y22880280D01*
X61010456Y22973859D01*
X61409289Y23240351D01*
X61675781Y23639184D01*
X61769360Y24109640D01*
X61769360Y25890360D01*
X63230640Y25890360D01*
X63230640Y24109640D01*
X63324219Y23639184D01*
X63590711Y23240351D01*
X63989544Y22973859D01*
X64460000Y22880280D01*
X64930456Y22973859D01*
X65329289Y23240351D01*
X65595781Y23639184D01*
X65689360Y24109640D01*
X65689360Y24998730D01*
X65874780Y24998730D01*
X65874780Y24149100D01*
X65960918Y23718594D01*
X66205247Y23353822D01*
X66570570Y23110317D01*
X66822723Y23039203D01*
X66998730Y23081348D01*
X66998730Y24998730D01*
X67001270Y24998730D01*
X67001270Y23081348D01*
X67177277Y23039203D01*
X67429430Y23110317D01*
X67794753Y23353822D01*
X68039082Y23718594D01*
X68125220Y24149100D01*
X68125220Y24998730D01*
X67001270Y24998730D01*
X66998730Y24998730D01*
X65874780Y24998730D01*
X65689360Y24998730D01*
X65689360Y25850900D01*
X65874780Y25850900D01*
X65874780Y25001270D01*
X66998730Y25001270D01*
X66998730Y26918652D01*
X67001270Y26918652D01*
X67001270Y25001270D01*
X68125220Y25001270D01*
X68125220Y25850900D01*
X68117325Y25890360D01*
X68310640Y25890360D01*
X68310640Y24109640D01*
X68404219Y23639184D01*
X68670711Y23240351D01*
X69069544Y22973859D01*
X69540000Y22880280D01*
X70010456Y22973859D01*
X70409289Y23240351D01*
X70675781Y23639184D01*
X70769360Y24109640D01*
X70769360Y25890360D01*
X70675781Y26360816D01*
X70409289Y26759649D01*
X70010456Y27026141D01*
X69540000Y27119720D01*
X69069544Y27026141D01*
X68670711Y26759649D01*
X68404219Y26360816D01*
X68310640Y25890360D01*
X68117325Y25890360D01*
X68039082Y26281406D01*
X67794753Y26646178D01*
X67429430Y26889683D01*
X67177277Y26960797D01*
X67001270Y26918652D01*
X66998730Y26918652D01*
X66822723Y26960797D01*
X66570570Y26889683D01*
X66205247Y26646178D01*
X65960918Y26281406D01*
X65874780Y25850900D01*
X65689360Y25850900D01*
X65689360Y25890360D01*
X65595781Y26360816D01*
X65329289Y26759649D01*
X64930456Y27026141D01*
X64460000Y27119720D01*
X63989544Y27026141D01*
X63590711Y26759649D01*
X63324219Y26360816D01*
X63230640Y25890360D01*
X61769360Y25890360D01*
X61675781Y26360816D01*
X61409289Y26759649D01*
X61010456Y27026141D01*
X60540000Y27119720D01*
X60069544Y27026141D01*
X59670711Y26759649D01*
X59404219Y26360816D01*
X59310640Y25890360D01*
X59117325Y25890360D01*
X59039082Y26281406D01*
X58794753Y26646178D01*
X58429430Y26889683D01*
X58177277Y26960797D01*
X58001270Y26918652D01*
X57998730Y26918652D01*
X57822723Y26960797D01*
X57570570Y26889683D01*
X57205247Y26646178D01*
X56960918Y26281406D01*
X56874780Y25850900D01*
X56689360Y25850900D01*
X56689360Y25890360D01*
X56595781Y26360816D01*
X56329289Y26759649D01*
X55930456Y27026141D01*
X55460000Y27119720D01*
X54989544Y27026141D01*
X54590711Y26759649D01*
X54324219Y26360816D01*
X54230640Y25890360D01*
X52769360Y25890360D01*
X52675781Y26360816D01*
X52409289Y26759649D01*
X52010456Y27026141D01*
X51540000Y27119720D01*
X51069544Y27026141D01*
X50670711Y26759649D01*
X50404219Y26360816D01*
X50310640Y25890360D01*
X50117325Y25890360D01*
X50039082Y26281406D01*
X49794753Y26646178D01*
X49429430Y26889683D01*
X49177277Y26960797D01*
X49001270Y26918652D01*
X48998730Y26918652D01*
X48822723Y26960797D01*
X48570570Y26889683D01*
X48205247Y26646178D01*
X47960918Y26281406D01*
X47874780Y25850900D01*
X47689360Y25850900D01*
X47689360Y25890360D01*
X47595781Y26360816D01*
X47329289Y26759649D01*
X46930456Y27026141D01*
X46460000Y27119720D01*
X45989544Y27026141D01*
X45590711Y26759649D01*
X45324219Y26360816D01*
X45230640Y25890360D01*
X43769360Y25890360D01*
X43675781Y26360816D01*
X43409289Y26759649D01*
X43010456Y27026141D01*
X42540000Y27119720D01*
X42069544Y27026141D01*
X41670711Y26759649D01*
X41404219Y26360816D01*
X41310640Y25890360D01*
X41117325Y25890360D01*
X41039082Y26281406D01*
X40794753Y26646178D01*
X40429430Y26889683D01*
X40177277Y26960797D01*
X40001270Y26918652D01*
X39998730Y26918652D01*
X39822723Y26960797D01*
X39570570Y26889683D01*
X39205247Y26646178D01*
X39146649Y26558694D01*
X39050977Y26701877D01*
X38315777Y27437077D01*
X38168512Y27535477D01*
X37994800Y27570030D01*
X36901200Y27570030D01*
X36727488Y27535477D01*
X36580223Y27437077D01*
X35179023Y26035877D01*
X35080623Y25888612D01*
X35080623Y25888611D01*
X35046070Y25714900D01*
X35046070Y24507624D01*
X34769360Y24230914D01*
X34769360Y25890360D01*
X34675781Y26360816D01*
X34409289Y26759649D01*
X34010456Y27026141D01*
X33540000Y27119720D01*
X33069544Y27026141D01*
X32670711Y26759649D01*
X32404219Y26360816D01*
X32310640Y25890360D01*
X32310640Y24109640D01*
X32404219Y23639184D01*
X32670711Y23240351D01*
X33069544Y22973859D01*
X33438847Y22900401D01*
X30906876Y20368430D01*
X11988727Y20368430D01*
X11909925Y20447370D01*
X11678851Y20543320D01*
X11428647Y20543538D01*
X11197405Y20447991D01*
X11020330Y20271225D01*
X10924380Y20040151D01*
X10924162Y19789947D01*
X11019709Y19558705D01*
X11196475Y19381630D01*
X11427549Y19285680D01*
X11677753Y19285462D01*
X11908995Y19381009D01*
X11988695Y19460570D01*
X31094900Y19460570D01*
X31268612Y19495123D01*
X31415877Y19593523D01*
X35820977Y23998623D01*
X35919376Y24145888D01*
X35919377Y24145889D01*
X35953930Y24319600D01*
X35953930Y25526876D01*
X36230640Y25803586D01*
X36230640Y24109640D01*
X36324219Y23639184D01*
X36590711Y23240351D01*
X36989544Y22973859D01*
X37006070Y22970572D01*
X37006070Y15252900D01*
X37040623Y15079188D01*
X37139023Y14931923D01*
X39244070Y12826876D01*
X39244070Y11517342D01*
X39188251Y11540520D01*
X39075636Y11540618D01*
X33816477Y16799777D01*
X33669212Y16898177D01*
X33495500Y16932730D01*
X7199027Y16932730D01*
X7120225Y17011670D01*
X6889151Y17107620D01*
X6638947Y17107838D01*
X6407705Y17012291D01*
X6230630Y16835525D01*
X6134680Y16604451D01*
X6134462Y16354247D01*
X6230009Y16123005D01*
X6406775Y15945930D01*
X6637849Y15849980D01*
X6888053Y15849762D01*
X7119295Y15945309D01*
X7198995Y16024870D01*
X33307476Y16024870D01*
X38433659Y10898687D01*
X38433562Y10787147D01*
X38529109Y10555905D01*
X38705875Y10378830D01*
X38936949Y10282880D01*
X39187153Y10282662D01*
X39244070Y10306180D01*
X39244070Y7687324D01*
X38719023Y7162277D01*
X38620623Y7015012D01*
X38620623Y7015011D01*
X38586070Y6841300D01*
X38586070Y6780987D01*
X38583639Y6780503D01*
X38196754Y6521995D01*
X37938246Y6135110D01*
X37891495Y5900077D01*
X37862611Y5919377D01*
X37698974Y5951926D01*
X37698974Y6516000D01*
X37676038Y6637894D01*
X37603999Y6749847D01*
X37494079Y6824951D01*
X37363600Y6851374D01*
X35636400Y6851374D01*
X35514506Y6828438D01*
X35402553Y6756399D01*
X35327449Y6646479D01*
X35301026Y6516000D01*
X35301026Y4484000D01*
X35323962Y4362106D01*
X35396001Y4250153D01*
X35505921Y4175049D01*
X35636400Y4148626D01*
X37363600Y4148626D01*
X37485494Y4171562D01*
X37597447Y4243601D01*
X37672551Y4353521D01*
X37672681Y4354165D01*
X37881916Y4144930D01*
X35309524Y4144930D01*
X28191441Y11263013D01*
X28191538Y11374553D01*
X28095991Y11605795D01*
X27919225Y11782870D01*
X27688151Y11878820D01*
X27575536Y11878918D01*
X24459077Y14995377D01*
X24311812Y15093777D01*
X24138100Y15128330D01*
X11833727Y15128330D01*
X11754925Y15207270D01*
X11523851Y15303220D01*
X11273647Y15303438D01*
X11042405Y15207891D01*
X10865330Y15031125D01*
X10769380Y14800051D01*
X10769162Y14549847D01*
X10788506Y14503030D01*
X7797724Y14503030D01*
X7350241Y14950513D01*
X7350338Y15062053D01*
X7254791Y15293295D01*
X7078025Y15470370D01*
X6846951Y15566320D01*
X6596747Y15566538D01*
X6365505Y15470991D01*
X6188430Y15294225D01*
X6092480Y15063151D01*
X6092262Y14812947D01*
X1903930Y14812947D01*
X1903930Y22681823D01*
X2828254Y21755884D01*
X4235037Y21171736D01*
X5081256Y21170998D01*
X5036237Y21062579D01*
X5035903Y20679104D01*
X5182343Y20324691D01*
X5453264Y20053296D01*
X5807421Y19906237D01*
X6190896Y19905903D01*
X6545309Y20052343D01*
X6816704Y20323264D01*
X6963763Y20677421D01*
X6964097Y21060896D01*
X6817657Y21415309D01*
X6681380Y21551824D01*
X7166081Y21752099D01*
X8244116Y22828254D01*
X8828264Y24235037D01*
X8829593Y25758280D01*
X8775019Y25890360D01*
X9230640Y25890360D01*
X9230640Y24109640D01*
X9324219Y23639184D01*
X9590711Y23240351D01*
X9989544Y22973859D01*
X10460000Y22880280D01*
X10930456Y22973859D01*
X11329289Y23240351D01*
X11595781Y23639184D01*
X11689360Y24109640D01*
X11689360Y24998730D01*
X11874780Y24998730D01*
X11874780Y24149100D01*
X11960918Y23718594D01*
X12205247Y23353822D01*
X12570570Y23110317D01*
X12822723Y23039203D01*
X12998730Y23081348D01*
X12998730Y24998730D01*
X13001270Y24998730D01*
X13001270Y23081348D01*
X13177277Y23039203D01*
X13429430Y23110317D01*
X13794753Y23353822D01*
X14039082Y23718594D01*
X14125220Y24149100D01*
X14125220Y24998730D01*
X13001270Y24998730D01*
X12998730Y24998730D01*
X11874780Y24998730D01*
X11689360Y24998730D01*
X11689360Y25850900D01*
X11874780Y25850900D01*
X11874780Y25001270D01*
X12998730Y25001270D01*
X12998730Y26918652D01*
X13001270Y26918652D01*
X13001270Y25001270D01*
X14125220Y25001270D01*
X14125220Y25850900D01*
X14117325Y25890360D01*
X14310640Y25890360D01*
X14310640Y24109640D01*
X14404219Y23639184D01*
X14670711Y23240351D01*
X15069544Y22973859D01*
X15540000Y22880280D01*
X16010456Y22973859D01*
X16409289Y23240351D01*
X16675781Y23639184D01*
X16769360Y24109640D01*
X16769360Y25890360D01*
X18230640Y25890360D01*
X18230640Y24109640D01*
X18324219Y23639184D01*
X18590711Y23240351D01*
X18989544Y22973859D01*
X19460000Y22880280D01*
X19930456Y22973859D01*
X20329289Y23240351D01*
X20595781Y23639184D01*
X20689360Y24109640D01*
X20689360Y24998730D01*
X20874780Y24998730D01*
X20874780Y24149100D01*
X20960918Y23718594D01*
X21205247Y23353822D01*
X21570570Y23110317D01*
X21822723Y23039203D01*
X21998730Y23081348D01*
X21998730Y24998730D01*
X22001270Y24998730D01*
X22001270Y23081348D01*
X22177277Y23039203D01*
X22429430Y23110317D01*
X22794753Y23353822D01*
X23039082Y23718594D01*
X23125220Y24149100D01*
X23125220Y24998730D01*
X22001270Y24998730D01*
X21998730Y24998730D01*
X20874780Y24998730D01*
X20689360Y24998730D01*
X20689360Y25850900D01*
X20874780Y25850900D01*
X20874780Y25001270D01*
X21998730Y25001270D01*
X21998730Y26918652D01*
X22001270Y26918652D01*
X22001270Y25001270D01*
X23125220Y25001270D01*
X23125220Y25850900D01*
X23117325Y25890360D01*
X23310640Y25890360D01*
X23310640Y24109640D01*
X23404219Y23639184D01*
X23670711Y23240351D01*
X24069544Y22973859D01*
X24540000Y22880280D01*
X25010456Y22973859D01*
X25409289Y23240351D01*
X25675781Y23639184D01*
X25769360Y24109640D01*
X25769360Y25890360D01*
X27230640Y25890360D01*
X27230640Y24109640D01*
X27324219Y23639184D01*
X27590711Y23240351D01*
X27989544Y22973859D01*
X28460000Y22880280D01*
X28930456Y22973859D01*
X29329289Y23240351D01*
X29595781Y23639184D01*
X29689360Y24109640D01*
X29689360Y24998730D01*
X29874780Y24998730D01*
X29874780Y24149100D01*
X29960918Y23718594D01*
X30205247Y23353822D01*
X30570570Y23110317D01*
X30822723Y23039203D01*
X30998730Y23081348D01*
X30998730Y24998730D01*
X31001270Y24998730D01*
X31001270Y23081348D01*
X31177277Y23039203D01*
X31429430Y23110317D01*
X31794753Y23353822D01*
X32039082Y23718594D01*
X32125220Y24149100D01*
X32125220Y24998730D01*
X31001270Y24998730D01*
X30998730Y24998730D01*
X29874780Y24998730D01*
X29689360Y24998730D01*
X29689360Y25850900D01*
X29874780Y25850900D01*
X29874780Y25001270D01*
X30998730Y25001270D01*
X30998730Y26918652D01*
X31001270Y26918652D01*
X31001270Y25001270D01*
X32125220Y25001270D01*
X32125220Y25850900D01*
X32039082Y26281406D01*
X31794753Y26646178D01*
X31429430Y26889683D01*
X31177277Y26960797D01*
X31001270Y26918652D01*
X30998730Y26918652D01*
X30822723Y26960797D01*
X30570570Y26889683D01*
X30205247Y26646178D01*
X29960918Y26281406D01*
X29874780Y25850900D01*
X29689360Y25850900D01*
X29689360Y25890360D01*
X29595781Y26360816D01*
X29329289Y26759649D01*
X28930456Y27026141D01*
X28460000Y27119720D01*
X27989544Y27026141D01*
X27590711Y26759649D01*
X27324219Y26360816D01*
X27230640Y25890360D01*
X25769360Y25890360D01*
X25675781Y26360816D01*
X25409289Y26759649D01*
X25010456Y27026141D01*
X24540000Y27119720D01*
X24069544Y27026141D01*
X23670711Y26759649D01*
X23404219Y26360816D01*
X23310640Y25890360D01*
X23117325Y25890360D01*
X23039082Y26281406D01*
X22794753Y26646178D01*
X22429430Y26889683D01*
X22177277Y26960797D01*
X22001270Y26918652D01*
X21998730Y26918652D01*
X21822723Y26960797D01*
X21570570Y26889683D01*
X21205247Y26646178D01*
X20960918Y26281406D01*
X20874780Y25850900D01*
X20689360Y25850900D01*
X20689360Y25890360D01*
X20595781Y26360816D01*
X20329289Y26759649D01*
X19930456Y27026141D01*
X19460000Y27119720D01*
X18989544Y27026141D01*
X18590711Y26759649D01*
X18324219Y26360816D01*
X18230640Y25890360D01*
X16769360Y25890360D01*
X16675781Y26360816D01*
X16409289Y26759649D01*
X16010456Y27026141D01*
X15540000Y27119720D01*
X15069544Y27026141D01*
X14670711Y26759649D01*
X14404219Y26360816D01*
X14310640Y25890360D01*
X14117325Y25890360D01*
X14039082Y26281406D01*
X13794753Y26646178D01*
X13429430Y26889683D01*
X13177277Y26960797D01*
X13001270Y26918652D01*
X12998730Y26918652D01*
X12822723Y26960797D01*
X12570570Y26889683D01*
X12205247Y26646178D01*
X11960918Y26281406D01*
X11874780Y25850900D01*
X11689360Y25850900D01*
X11689360Y25890360D01*
X11595781Y26360816D01*
X11329289Y26759649D01*
X10930456Y27026141D01*
X10460000Y27119720D01*
X9989544Y27026141D01*
X9590711Y26759649D01*
X9324219Y26360816D01*
X9230640Y25890360D01*
X8775019Y25890360D01*
X8247901Y27166081D01*
X7319534Y28096070D01*
X72681823Y28096070D01*
X71755884Y27171746D01*
G36*
X38276070Y22291000D02*
X38310623Y22117288D01*
X38409023Y21970023D01*
X44419570Y15959476D01*
X44419570Y11773927D01*
X44340630Y11695125D01*
X44244680Y11464051D01*
X44244462Y11213847D01*
X44340009Y10982605D01*
X44366837Y10955730D01*
X44258124Y10955730D01*
X43349330Y11864524D01*
X43349330Y13771373D01*
X43428270Y13850175D01*
X43524220Y14081249D01*
X43524438Y14331453D01*
X43428891Y14562695D01*
X43252125Y14739770D01*
X43021051Y14835720D01*
X42770847Y14835938D01*
X42539605Y14740391D01*
X42362530Y14563625D01*
X42266580Y14332551D01*
X42266362Y14082347D01*
X42361909Y13851105D01*
X42441470Y13771405D01*
X42441470Y11676500D01*
X42476023Y11502788D01*
X42574423Y11355523D01*
X43616170Y10313776D01*
X43616170Y10033724D01*
X39979423Y6396977D01*
X39973102Y6387516D01*
X39883246Y6521995D01*
X39571171Y6730517D01*
X40018977Y7178323D01*
X40117377Y7325588D01*
X40151930Y7499300D01*
X40151930Y13014900D01*
X40117377Y13188611D01*
X40117377Y13188612D01*
X40018977Y13335877D01*
X37913930Y15440924D01*
X37913930Y22970572D01*
X37930456Y22973859D01*
X38276070Y23204791D01*
X38276070Y22291000D01*
X38276070Y22291000D01*
G37*
X38276070Y22291000D02*
X38310623Y22117288D01*
X38409023Y21970023D01*
X44419570Y15959476D01*
X44419570Y11773927D01*
X44340630Y11695125D01*
X44244680Y11464051D01*
X44244462Y11213847D01*
X44340009Y10982605D01*
X44366837Y10955730D01*
X44258124Y10955730D01*
X43349330Y11864524D01*
X43349330Y13771373D01*
X43428270Y13850175D01*
X43524220Y14081249D01*
X43524438Y14331453D01*
X43428891Y14562695D01*
X43252125Y14739770D01*
X43021051Y14835720D01*
X42770847Y14835938D01*
X42539605Y14740391D01*
X42362530Y14563625D01*
X42266580Y14332551D01*
X42266362Y14082347D01*
X42361909Y13851105D01*
X42441470Y13771405D01*
X42441470Y11676500D01*
X42476023Y11502788D01*
X42574423Y11355523D01*
X43616170Y10313776D01*
X43616170Y10033724D01*
X39979423Y6396977D01*
X39973102Y6387516D01*
X39883246Y6521995D01*
X39571171Y6730517D01*
X40018977Y7178323D01*
X40117377Y7325588D01*
X40151930Y7499300D01*
X40151930Y13014900D01*
X40117377Y13188611D01*
X40117377Y13188612D01*
X40018977Y13335877D01*
X37913930Y15440924D01*
X37913930Y22970572D01*
X37930456Y22973859D01*
X38276070Y23204791D01*
X38276070Y22291000D01*
M02*
