G04 #@! TF.FileFunction,Legend,Top*
%FSLAX46Y46*%
G04 Gerber Fmt 4.6, Leading zero omitted, Abs format (unit mm)*
G04 Created by KiCad (PCBNEW 4.0.2-stable) date 31/05/2016 22:00:56*
%MOMM*%
G01*
G04 APERTURE LIST*
%ADD10C,0.100000*%
%ADD11C,0.300000*%
%ADD12C,0.150000*%
%ADD13C,0.200000*%
%ADD14C,0.500000*%
%ADD15C,0.198120*%
G04 APERTURE END LIST*
D10*
D11*
X49607143Y4592857D02*
X49821429Y4521429D01*
X50178572Y4521429D01*
X50321429Y4592857D01*
X50392858Y4664286D01*
X50464286Y4807143D01*
X50464286Y4950000D01*
X50392858Y5092857D01*
X50321429Y5164286D01*
X50178572Y5235714D01*
X49892858Y5307143D01*
X49750000Y5378571D01*
X49678572Y5450000D01*
X49607143Y5592857D01*
X49607143Y5735714D01*
X49678572Y5878571D01*
X49750000Y5950000D01*
X49892858Y6021429D01*
X50250000Y6021429D01*
X50464286Y5950000D01*
X51107143Y4521429D02*
X51107143Y5521429D01*
X51107143Y5378571D02*
X51178571Y5450000D01*
X51321429Y5521429D01*
X51535714Y5521429D01*
X51678571Y5450000D01*
X51750000Y5307143D01*
X51750000Y4521429D01*
X51750000Y5307143D02*
X51821429Y5450000D01*
X51964286Y5521429D01*
X52178571Y5521429D01*
X52321429Y5450000D01*
X52392857Y5307143D01*
X52392857Y4521429D01*
X53321429Y4521429D02*
X53178571Y4592857D01*
X53107143Y4664286D01*
X53035714Y4807143D01*
X53035714Y5235714D01*
X53107143Y5378571D01*
X53178571Y5450000D01*
X53321429Y5521429D01*
X53535714Y5521429D01*
X53678571Y5450000D01*
X53750000Y5378571D01*
X53821429Y5235714D01*
X53821429Y4807143D01*
X53750000Y4664286D01*
X53678571Y4592857D01*
X53535714Y4521429D01*
X53321429Y4521429D01*
X54678572Y4521429D02*
X54535714Y4592857D01*
X54464286Y4664286D01*
X54392857Y4807143D01*
X54392857Y5235714D01*
X54464286Y5378571D01*
X54535714Y5450000D01*
X54678572Y5521429D01*
X54892857Y5521429D01*
X55035714Y5450000D01*
X55107143Y5378571D01*
X55178572Y5235714D01*
X55178572Y4807143D01*
X55107143Y4664286D01*
X55035714Y4592857D01*
X54892857Y4521429D01*
X54678572Y4521429D01*
X55607143Y5521429D02*
X56178572Y5521429D01*
X55821429Y6021429D02*
X55821429Y4735714D01*
X55892857Y4592857D01*
X56035715Y4521429D01*
X56178572Y4521429D01*
X56678572Y4521429D02*
X56678572Y6021429D01*
X57321429Y4521429D02*
X57321429Y5307143D01*
X57250000Y5450000D01*
X57107143Y5521429D01*
X56892858Y5521429D01*
X56750000Y5450000D01*
X56678572Y5378571D01*
X58035715Y4521429D02*
X58035715Y5521429D01*
X58035715Y6021429D02*
X57964286Y5950000D01*
X58035715Y5878571D01*
X58107143Y5950000D01*
X58035715Y6021429D01*
X58035715Y5878571D01*
X59321429Y4592857D02*
X59178572Y4521429D01*
X58892858Y4521429D01*
X58750001Y4592857D01*
X58678572Y4735714D01*
X58678572Y5307143D01*
X58750001Y5450000D01*
X58892858Y5521429D01*
X59178572Y5521429D01*
X59321429Y5450000D01*
X59392858Y5307143D01*
X59392858Y5164286D01*
X58678572Y5021429D01*
X60535715Y5307143D02*
X60750001Y5235714D01*
X60821429Y5164286D01*
X60892858Y5021429D01*
X60892858Y4807143D01*
X60821429Y4664286D01*
X60750001Y4592857D01*
X60607143Y4521429D01*
X60035715Y4521429D01*
X60035715Y6021429D01*
X60535715Y6021429D01*
X60678572Y5950000D01*
X60750001Y5878571D01*
X60821429Y5735714D01*
X60821429Y5592857D01*
X60750001Y5450000D01*
X60678572Y5378571D01*
X60535715Y5307143D01*
X60035715Y5307143D01*
X61750001Y4521429D02*
X61607143Y4592857D01*
X61535715Y4664286D01*
X61464286Y4807143D01*
X61464286Y5235714D01*
X61535715Y5378571D01*
X61607143Y5450000D01*
X61750001Y5521429D01*
X61964286Y5521429D01*
X62107143Y5450000D01*
X62178572Y5378571D01*
X62250001Y5235714D01*
X62250001Y4807143D01*
X62178572Y4664286D01*
X62107143Y4592857D01*
X61964286Y4521429D01*
X61750001Y4521429D01*
X63535715Y4521429D02*
X63535715Y5307143D01*
X63464286Y5450000D01*
X63321429Y5521429D01*
X63035715Y5521429D01*
X62892858Y5450000D01*
X63535715Y4592857D02*
X63392858Y4521429D01*
X63035715Y4521429D01*
X62892858Y4592857D01*
X62821429Y4735714D01*
X62821429Y4878571D01*
X62892858Y5021429D01*
X63035715Y5092857D01*
X63392858Y5092857D01*
X63535715Y5164286D01*
X64250001Y4521429D02*
X64250001Y5521429D01*
X64250001Y5235714D02*
X64321429Y5378571D01*
X64392858Y5450000D01*
X64535715Y5521429D01*
X64678572Y5521429D01*
X65821429Y4521429D02*
X65821429Y6021429D01*
X65821429Y4592857D02*
X65678572Y4521429D01*
X65392858Y4521429D01*
X65250000Y4592857D01*
X65178572Y4664286D01*
X65107143Y4807143D01*
X65107143Y5235714D01*
X65178572Y5378571D01*
X65250000Y5450000D01*
X65392858Y5521429D01*
X65678572Y5521429D01*
X65821429Y5450000D01*
X50321429Y2264286D02*
X50250000Y2192857D01*
X50035714Y2121429D01*
X49892857Y2121429D01*
X49678572Y2192857D01*
X49535714Y2335714D01*
X49464286Y2478571D01*
X49392857Y2764286D01*
X49392857Y2978571D01*
X49464286Y3264286D01*
X49535714Y3407143D01*
X49678572Y3550000D01*
X49892857Y3621429D01*
X50035714Y3621429D01*
X50250000Y3550000D01*
X50321429Y3478571D01*
X50964286Y2907143D02*
X51464286Y2907143D01*
X51678572Y2121429D02*
X50964286Y2121429D01*
X50964286Y3621429D01*
X51678572Y3621429D01*
X53178572Y2121429D02*
X52678572Y2835714D01*
X52321429Y2121429D02*
X52321429Y3621429D01*
X52892857Y3621429D01*
X53035715Y3550000D01*
X53107143Y3478571D01*
X53178572Y3335714D01*
X53178572Y3121429D01*
X53107143Y2978571D01*
X53035715Y2907143D01*
X52892857Y2835714D01*
X52321429Y2835714D01*
X53821429Y2121429D02*
X53821429Y3621429D01*
X54678572Y2121429D01*
X54678572Y3621429D01*
X56821429Y3621429D02*
X57107143Y3621429D01*
X57250001Y3550000D01*
X57392858Y3407143D01*
X57464286Y3121429D01*
X57464286Y2621429D01*
X57392858Y2335714D01*
X57250001Y2192857D01*
X57107143Y2121429D01*
X56821429Y2121429D01*
X56678572Y2192857D01*
X56535715Y2335714D01*
X56464286Y2621429D01*
X56464286Y3121429D01*
X56535715Y3407143D01*
X56678572Y3550000D01*
X56821429Y3621429D01*
X58107144Y2121429D02*
X58107144Y3621429D01*
X58107144Y2907143D02*
X58964287Y2907143D01*
X58964287Y2121429D02*
X58964287Y3621429D01*
X60392859Y2121429D02*
X59678573Y2121429D01*
X59678573Y3621429D01*
X61892859Y3121429D02*
X62250002Y2121429D01*
X62607144Y3121429D01*
X63964287Y2121429D02*
X63107144Y2121429D01*
X63535716Y2121429D02*
X63535716Y3621429D01*
X63392859Y3407143D01*
X63250001Y3264286D01*
X63107144Y3192857D01*
X64607144Y2264286D02*
X64678572Y2192857D01*
X64607144Y2121429D01*
X64535715Y2192857D01*
X64607144Y2264286D01*
X64607144Y2121429D01*
X65250001Y3478571D02*
X65321430Y3550000D01*
X65464287Y3621429D01*
X65821430Y3621429D01*
X65964287Y3550000D01*
X66035716Y3478571D01*
X66107144Y3335714D01*
X66107144Y3192857D01*
X66035716Y2978571D01*
X65178573Y2121429D01*
X66107144Y2121429D01*
D12*
X75000000Y28500000D02*
X5000000Y28500000D01*
X5000000Y1500000D02*
X75000000Y1500000D01*
D13*
X63642858Y18892857D02*
X64785715Y18892857D01*
X64214286Y18321429D02*
X64214286Y19464286D01*
X66642858Y18892857D02*
X67785715Y18892857D01*
X69571429Y18392857D02*
X69785715Y18321429D01*
X70142858Y18321429D01*
X70285715Y18392857D01*
X70357144Y18464286D01*
X70428572Y18607143D01*
X70428572Y18750000D01*
X70357144Y18892857D01*
X70285715Y18964286D01*
X70142858Y19035714D01*
X69857144Y19107143D01*
X69714286Y19178571D01*
X69642858Y19250000D01*
X69571429Y19392857D01*
X69571429Y19535714D01*
X69642858Y19678571D01*
X69714286Y19750000D01*
X69857144Y19821429D01*
X70214286Y19821429D01*
X70428572Y19750000D01*
D12*
X78500000Y25000000D02*
G75*
G03X75000000Y28500000I-3500000J0D01*
G01*
X75000000Y1500000D02*
G75*
G03X78500000Y5000000I0J3500000D01*
G01*
X78500000Y25000000D02*
X78500000Y5000000D01*
X1500000Y25000000D02*
X1500000Y5000000D01*
D11*
X12500000Y3107143D02*
X13000000Y3107143D01*
X13214286Y2321429D02*
X12500000Y2321429D01*
X12500000Y3821429D01*
X13214286Y3821429D01*
X13857143Y3321429D02*
X13857143Y2321429D01*
X13857143Y3178571D02*
X13928571Y3250000D01*
X14071429Y3321429D01*
X14285714Y3321429D01*
X14428571Y3250000D01*
X14500000Y3107143D01*
X14500000Y2321429D01*
X15857143Y2321429D02*
X15857143Y3821429D01*
X15857143Y2392857D02*
X15714286Y2321429D01*
X15428572Y2321429D01*
X15285714Y2392857D01*
X15214286Y2464286D01*
X15142857Y2607143D01*
X15142857Y3035714D01*
X15214286Y3178571D01*
X15285714Y3250000D01*
X15428572Y3321429D01*
X15714286Y3321429D01*
X15857143Y3250000D01*
X16500000Y2392857D02*
X16642857Y2321429D01*
X16928572Y2321429D01*
X17071429Y2392857D01*
X17142857Y2535714D01*
X17142857Y2607143D01*
X17071429Y2750000D01*
X16928572Y2821429D01*
X16714286Y2821429D01*
X16571429Y2892857D01*
X16500000Y3035714D01*
X16500000Y3107143D01*
X16571429Y3250000D01*
X16714286Y3321429D01*
X16928572Y3321429D01*
X17071429Y3250000D01*
X17571429Y3321429D02*
X18142858Y3321429D01*
X17785715Y3821429D02*
X17785715Y2535714D01*
X17857143Y2392857D01*
X18000001Y2321429D01*
X18142858Y2321429D01*
X18857144Y2321429D02*
X18714286Y2392857D01*
X18642858Y2464286D01*
X18571429Y2607143D01*
X18571429Y3035714D01*
X18642858Y3178571D01*
X18714286Y3250000D01*
X18857144Y3321429D01*
X19071429Y3321429D01*
X19214286Y3250000D01*
X19285715Y3178571D01*
X19357144Y3035714D01*
X19357144Y2607143D01*
X19285715Y2464286D01*
X19214286Y2392857D01*
X19071429Y2321429D01*
X18857144Y2321429D01*
X20000001Y3321429D02*
X20000001Y1821429D01*
X20000001Y3250000D02*
X20142858Y3321429D01*
X20428572Y3321429D01*
X20571429Y3250000D01*
X20642858Y3178571D01*
X20714287Y3035714D01*
X20714287Y2607143D01*
X20642858Y2464286D01*
X20571429Y2392857D01*
X20428572Y2321429D01*
X20142858Y2321429D01*
X20000001Y2392857D01*
X21285715Y2392857D02*
X21428572Y2321429D01*
X21714287Y2321429D01*
X21857144Y2392857D01*
X21928572Y2535714D01*
X21928572Y2607143D01*
X21857144Y2750000D01*
X21714287Y2821429D01*
X21500001Y2821429D01*
X21357144Y2892857D01*
X21285715Y3035714D01*
X21285715Y3107143D01*
X21357144Y3250000D01*
X21500001Y3321429D01*
X21714287Y3321429D01*
X21857144Y3250000D01*
X24214287Y3107143D02*
X24428573Y3035714D01*
X24500001Y2964286D01*
X24571430Y2821429D01*
X24571430Y2607143D01*
X24500001Y2464286D01*
X24428573Y2392857D01*
X24285715Y2321429D01*
X23714287Y2321429D01*
X23714287Y3821429D01*
X24214287Y3821429D01*
X24357144Y3750000D01*
X24428573Y3678571D01*
X24500001Y3535714D01*
X24500001Y3392857D01*
X24428573Y3250000D01*
X24357144Y3178571D01*
X24214287Y3107143D01*
X23714287Y3107143D01*
X25428573Y2321429D02*
X25285715Y2392857D01*
X25214287Y2464286D01*
X25142858Y2607143D01*
X25142858Y3035714D01*
X25214287Y3178571D01*
X25285715Y3250000D01*
X25428573Y3321429D01*
X25642858Y3321429D01*
X25785715Y3250000D01*
X25857144Y3178571D01*
X25928573Y3035714D01*
X25928573Y2607143D01*
X25857144Y2464286D01*
X25785715Y2392857D01*
X25642858Y2321429D01*
X25428573Y2321429D01*
X27214287Y2321429D02*
X27214287Y3107143D01*
X27142858Y3250000D01*
X27000001Y3321429D01*
X26714287Y3321429D01*
X26571430Y3250000D01*
X27214287Y2392857D02*
X27071430Y2321429D01*
X26714287Y2321429D01*
X26571430Y2392857D01*
X26500001Y2535714D01*
X26500001Y2678571D01*
X26571430Y2821429D01*
X26714287Y2892857D01*
X27071430Y2892857D01*
X27214287Y2964286D01*
X27928573Y2321429D02*
X27928573Y3321429D01*
X27928573Y3035714D02*
X28000001Y3178571D01*
X28071430Y3250000D01*
X28214287Y3321429D01*
X28357144Y3321429D01*
X29500001Y2321429D02*
X29500001Y3821429D01*
X29500001Y2392857D02*
X29357144Y2321429D01*
X29071430Y2321429D01*
X28928572Y2392857D01*
X28857144Y2464286D01*
X28785715Y2607143D01*
X28785715Y3035714D01*
X28857144Y3178571D01*
X28928572Y3250000D01*
X29071430Y3321429D01*
X29357144Y3321429D01*
X29500001Y3250000D01*
D13*
X68000000Y5000000D02*
X68000000Y8000000D01*
X71000000Y5000000D02*
X68000000Y5000000D01*
X71000000Y8000000D02*
X71000000Y5000000D01*
X68000000Y8000000D02*
X71000000Y8000000D01*
X9000000Y5000000D02*
X9000000Y8000000D01*
X12000000Y5000000D02*
X9000000Y5000000D01*
X12000000Y8000000D02*
X12000000Y5000000D01*
X9000000Y8000000D02*
X12000000Y8000000D01*
D11*
X44714287Y6321429D02*
X44000001Y6321429D01*
X43928572Y5607143D01*
X44000001Y5678571D01*
X44142858Y5750000D01*
X44500001Y5750000D01*
X44642858Y5678571D01*
X44714287Y5607143D01*
X44785715Y5464286D01*
X44785715Y5107143D01*
X44714287Y4964286D01*
X44642858Y4892857D01*
X44500001Y4821429D01*
X44142858Y4821429D01*
X44000001Y4892857D01*
X43928572Y4964286D01*
X45214286Y6321429D02*
X45714286Y4821429D01*
X46214286Y6321429D01*
X29785715Y6321429D02*
X30714286Y6321429D01*
X30214286Y5750000D01*
X30428572Y5750000D01*
X30571429Y5678571D01*
X30642858Y5607143D01*
X30714286Y5464286D01*
X30714286Y5107143D01*
X30642858Y4964286D01*
X30571429Y4892857D01*
X30428572Y4821429D01*
X30000000Y4821429D01*
X29857143Y4892857D01*
X29785715Y4964286D01*
X31357143Y4964286D02*
X31428571Y4892857D01*
X31357143Y4821429D01*
X31285714Y4892857D01*
X31357143Y4964286D01*
X31357143Y4821429D01*
X31928572Y6321429D02*
X32857143Y6321429D01*
X32357143Y5750000D01*
X32571429Y5750000D01*
X32714286Y5678571D01*
X32785715Y5607143D01*
X32857143Y5464286D01*
X32857143Y5107143D01*
X32785715Y4964286D01*
X32714286Y4892857D01*
X32571429Y4821429D01*
X32142857Y4821429D01*
X32000000Y4892857D01*
X31928572Y4964286D01*
X33285714Y6321429D02*
X33785714Y4821429D01*
X34285714Y6321429D01*
D13*
X36642858Y18892857D02*
X37785715Y18892857D01*
X37214286Y18321429D02*
X37214286Y19464286D01*
X39642858Y18892857D02*
X40785715Y18892857D01*
X42571429Y18392857D02*
X42785715Y18321429D01*
X43142858Y18321429D01*
X43285715Y18392857D01*
X43357144Y18464286D01*
X43428572Y18607143D01*
X43428572Y18750000D01*
X43357144Y18892857D01*
X43285715Y18964286D01*
X43142858Y19035714D01*
X42857144Y19107143D01*
X42714286Y19178571D01*
X42642858Y19250000D01*
X42571429Y19392857D01*
X42571429Y19535714D01*
X42642858Y19678571D01*
X42714286Y19750000D01*
X42857144Y19821429D01*
X43214286Y19821429D01*
X43428572Y19750000D01*
X45642858Y18892857D02*
X46785715Y18892857D01*
X46214286Y18321429D02*
X46214286Y19464286D01*
X48642858Y18892857D02*
X49785715Y18892857D01*
X51571429Y18392857D02*
X51785715Y18321429D01*
X52142858Y18321429D01*
X52285715Y18392857D01*
X52357144Y18464286D01*
X52428572Y18607143D01*
X52428572Y18750000D01*
X52357144Y18892857D01*
X52285715Y18964286D01*
X52142858Y19035714D01*
X51857144Y19107143D01*
X51714286Y19178571D01*
X51642858Y19250000D01*
X51571429Y19392857D01*
X51571429Y19535714D01*
X51642858Y19678571D01*
X51714286Y19750000D01*
X51857144Y19821429D01*
X52214286Y19821429D01*
X52428572Y19750000D01*
X54642858Y18892857D02*
X55785715Y18892857D01*
X55214286Y18321429D02*
X55214286Y19464286D01*
X57642858Y18892857D02*
X58785715Y18892857D01*
X60571429Y18392857D02*
X60785715Y18321429D01*
X61142858Y18321429D01*
X61285715Y18392857D01*
X61357144Y18464286D01*
X61428572Y18607143D01*
X61428572Y18750000D01*
X61357144Y18892857D01*
X61285715Y18964286D01*
X61142858Y19035714D01*
X60857144Y19107143D01*
X60714286Y19178571D01*
X60642858Y19250000D01*
X60571429Y19392857D01*
X60571429Y19535714D01*
X60642858Y19678571D01*
X60714286Y19750000D01*
X60857144Y19821429D01*
X61214286Y19821429D01*
X61428572Y19750000D01*
X27642858Y18892857D02*
X28785715Y18892857D01*
X28214286Y18321429D02*
X28214286Y19464286D01*
X30642858Y18892857D02*
X31785715Y18892857D01*
X33571429Y18392857D02*
X33785715Y18321429D01*
X34142858Y18321429D01*
X34285715Y18392857D01*
X34357144Y18464286D01*
X34428572Y18607143D01*
X34428572Y18750000D01*
X34357144Y18892857D01*
X34285715Y18964286D01*
X34142858Y19035714D01*
X33857144Y19107143D01*
X33714286Y19178571D01*
X33642858Y19250000D01*
X33571429Y19392857D01*
X33571429Y19535714D01*
X33642858Y19678571D01*
X33714286Y19750000D01*
X33857144Y19821429D01*
X34214286Y19821429D01*
X34428572Y19750000D01*
X18642858Y18892857D02*
X19785715Y18892857D01*
X19214286Y18321429D02*
X19214286Y19464286D01*
X21642858Y18892857D02*
X22785715Y18892857D01*
X24571429Y18392857D02*
X24785715Y18321429D01*
X25142858Y18321429D01*
X25285715Y18392857D01*
X25357144Y18464286D01*
X25428572Y18607143D01*
X25428572Y18750000D01*
X25357144Y18892857D01*
X25285715Y18964286D01*
X25142858Y19035714D01*
X24857144Y19107143D01*
X24714286Y19178571D01*
X24642858Y19250000D01*
X24571429Y19392857D01*
X24571429Y19535714D01*
X24642858Y19678571D01*
X24714286Y19750000D01*
X24857144Y19821429D01*
X25214286Y19821429D01*
X25428572Y19750000D01*
X9642858Y18892857D02*
X10785715Y18892857D01*
X10214286Y18321429D02*
X10214286Y19464286D01*
X12642858Y18892857D02*
X13785715Y18892857D01*
X15571429Y18392857D02*
X15785715Y18321429D01*
X16142858Y18321429D01*
X16285715Y18392857D01*
X16357144Y18464286D01*
X16428572Y18607143D01*
X16428572Y18750000D01*
X16357144Y18892857D01*
X16285715Y18964286D01*
X16142858Y19035714D01*
X15857144Y19107143D01*
X15714286Y19178571D01*
X15642858Y19250000D01*
X15571429Y19392857D01*
X15571429Y19535714D01*
X15642858Y19678571D01*
X15714286Y19750000D01*
X15857144Y19821429D01*
X16214286Y19821429D01*
X16428572Y19750000D01*
D12*
X5000000Y28500000D02*
G75*
G03X1500000Y25000000I0J-3500000D01*
G01*
X1500000Y5000000D02*
G75*
G03X5000000Y1500000I3500000J0D01*
G01*
X16400000Y10600000D02*
X17100000Y10600000D01*
X17100000Y9400000D02*
X16400000Y9400000D01*
X24150000Y10600000D02*
X24850000Y10600000D01*
X24850000Y9400000D02*
X24150000Y9400000D01*
X32150000Y10600000D02*
X32850000Y10600000D01*
X32850000Y9400000D02*
X32150000Y9400000D01*
X41150000Y10600000D02*
X41850000Y10600000D01*
X41850000Y9400000D02*
X41150000Y9400000D01*
X50150000Y10600000D02*
X50850000Y10600000D01*
X50850000Y9400000D02*
X50150000Y9400000D01*
X58650000Y10600000D02*
X59350000Y10600000D01*
X59350000Y9400000D02*
X58650000Y9400000D01*
X66150000Y10600000D02*
X66850000Y10600000D01*
X66850000Y9400000D02*
X66150000Y9400000D01*
X11900000Y16950000D02*
X13800000Y16950000D01*
X11900000Y18050000D02*
X13800000Y18050000D01*
X12800000Y17500000D02*
X13250000Y17500000D01*
X12750000Y17750000D02*
X12750000Y17250000D01*
X12750000Y17500000D02*
X13000000Y17750000D01*
X13000000Y17750000D02*
X13000000Y17250000D01*
X13000000Y17250000D02*
X12750000Y17500000D01*
X20900000Y16950000D02*
X22800000Y16950000D01*
X20900000Y18050000D02*
X22800000Y18050000D01*
X21800000Y17500000D02*
X22250000Y17500000D01*
X21750000Y17750000D02*
X21750000Y17250000D01*
X21750000Y17500000D02*
X22000000Y17750000D01*
X22000000Y17750000D02*
X22000000Y17250000D01*
X22000000Y17250000D02*
X21750000Y17500000D01*
X29900000Y16950000D02*
X31800000Y16950000D01*
X29900000Y18050000D02*
X31800000Y18050000D01*
X30800000Y17500000D02*
X31250000Y17500000D01*
X30750000Y17750000D02*
X30750000Y17250000D01*
X30750000Y17500000D02*
X31000000Y17750000D01*
X31000000Y17750000D02*
X31000000Y17250000D01*
X31000000Y17250000D02*
X30750000Y17500000D01*
X38900000Y16950000D02*
X40800000Y16950000D01*
X38900000Y18050000D02*
X40800000Y18050000D01*
X39800000Y17500000D02*
X40250000Y17500000D01*
X39750000Y17750000D02*
X39750000Y17250000D01*
X39750000Y17500000D02*
X40000000Y17750000D01*
X40000000Y17750000D02*
X40000000Y17250000D01*
X40000000Y17250000D02*
X39750000Y17500000D01*
X37770000Y4230000D02*
X42850000Y4230000D01*
X42850000Y4230000D02*
X42850000Y6770000D01*
X42850000Y6770000D02*
X37770000Y6770000D01*
X34950000Y7050000D02*
X36500000Y7050000D01*
X37770000Y6770000D02*
X37770000Y4230000D01*
X36500000Y3950000D02*
X34950000Y3950000D01*
X34950000Y3950000D02*
X34950000Y7050000D01*
D14*
X22500000Y8500000D02*
X26500000Y8500000D01*
X26500000Y8500000D02*
X26500000Y4500000D01*
X26500000Y4500000D02*
X22500000Y4500000D01*
X22500000Y4500000D02*
X22500000Y8500000D01*
X25500000Y7500000D02*
X23500000Y7500000D01*
X23500000Y7500000D02*
X23500000Y5500000D01*
X23500000Y5500000D02*
X25500000Y5500000D01*
X25500000Y5500000D02*
X25500000Y6500000D01*
X25500000Y6500000D02*
X24500000Y6500000D01*
D12*
X16250000Y15675000D02*
X17250000Y15675000D01*
X17250000Y14325000D02*
X16250000Y14325000D01*
X16250000Y13175000D02*
X17250000Y13175000D01*
X17250000Y11825000D02*
X16250000Y11825000D01*
X13750000Y11825000D02*
X12750000Y11825000D01*
X12750000Y13175000D02*
X13750000Y13175000D01*
X24000000Y15675000D02*
X25000000Y15675000D01*
X25000000Y14325000D02*
X24000000Y14325000D01*
X24000000Y13175000D02*
X25000000Y13175000D01*
X25000000Y11825000D02*
X24000000Y11825000D01*
X21000000Y11825000D02*
X20000000Y11825000D01*
X20000000Y13175000D02*
X21000000Y13175000D01*
X32000000Y15675000D02*
X33000000Y15675000D01*
X33000000Y14325000D02*
X32000000Y14325000D01*
X32000000Y13175000D02*
X33000000Y13175000D01*
X33000000Y11825000D02*
X32000000Y11825000D01*
X29000000Y11825000D02*
X28000000Y11825000D01*
X28000000Y13175000D02*
X29000000Y13175000D01*
X41000000Y15675000D02*
X42000000Y15675000D01*
X42000000Y14325000D02*
X41000000Y14325000D01*
X41000000Y13175000D02*
X42000000Y13175000D01*
X42000000Y11825000D02*
X41000000Y11825000D01*
X38000000Y11825000D02*
X37000000Y11825000D01*
X37000000Y13175000D02*
X38000000Y13175000D01*
X50000000Y15675000D02*
X51000000Y15675000D01*
X51000000Y14325000D02*
X50000000Y14325000D01*
X50000000Y13175000D02*
X51000000Y13175000D01*
X51000000Y11825000D02*
X50000000Y11825000D01*
X47000000Y11825000D02*
X46000000Y11825000D01*
X46000000Y13175000D02*
X47000000Y13175000D01*
X58500000Y15675000D02*
X59500000Y15675000D01*
X59500000Y14325000D02*
X58500000Y14325000D01*
X58500000Y13175000D02*
X59500000Y13175000D01*
X59500000Y11825000D02*
X58500000Y11825000D01*
X55500000Y11825000D02*
X54500000Y11825000D01*
X54500000Y13175000D02*
X55500000Y13175000D01*
X66000000Y15675000D02*
X67000000Y15675000D01*
X67000000Y14325000D02*
X66000000Y14325000D01*
X66000000Y13175000D02*
X67000000Y13175000D01*
X67000000Y11825000D02*
X66000000Y11825000D01*
X63500000Y11825000D02*
X62500000Y11825000D01*
X62500000Y13175000D02*
X63500000Y13175000D01*
X47900000Y16950000D02*
X49800000Y16950000D01*
X47900000Y18050000D02*
X49800000Y18050000D01*
X48800000Y17500000D02*
X49250000Y17500000D01*
X48750000Y17750000D02*
X48750000Y17250000D01*
X48750000Y17500000D02*
X49000000Y17750000D01*
X49000000Y17750000D02*
X49000000Y17250000D01*
X49000000Y17250000D02*
X48750000Y17500000D01*
X56900000Y16950000D02*
X58800000Y16950000D01*
X56900000Y18050000D02*
X58800000Y18050000D01*
X57800000Y17500000D02*
X58250000Y17500000D01*
X57750000Y17750000D02*
X57750000Y17250000D01*
X57750000Y17500000D02*
X58000000Y17750000D01*
X58000000Y17750000D02*
X58000000Y17250000D01*
X58000000Y17250000D02*
X57750000Y17500000D01*
X65900000Y16950000D02*
X67800000Y16950000D01*
X65900000Y18050000D02*
X67800000Y18050000D01*
X66800000Y17500000D02*
X67250000Y17500000D01*
X66750000Y17750000D02*
X66750000Y17250000D01*
X66750000Y17500000D02*
X67000000Y17750000D01*
X67000000Y17750000D02*
X67000000Y17250000D01*
X67000000Y17250000D02*
X66750000Y17500000D01*
D15*
X9400000Y11070000D02*
X9200000Y11070000D01*
X9200000Y10970000D02*
X9400000Y10970000D01*
X9500000Y10870000D02*
X9100000Y10870000D01*
X9100000Y10770000D02*
X9500000Y10770000D01*
X9600000Y10670000D02*
X9000000Y10670000D01*
X9300000Y11370000D02*
X9700000Y10570000D01*
X9700000Y10570000D02*
X8900000Y10570000D01*
X8900000Y10570000D02*
X9300000Y11370000D01*
X77400000Y11070000D02*
X77200000Y11070000D01*
X77200000Y10970000D02*
X77400000Y10970000D01*
X77500000Y10870000D02*
X77100000Y10870000D01*
X77100000Y10770000D02*
X77500000Y10770000D01*
X77600000Y10670000D02*
X77000000Y10670000D01*
X77300000Y11370000D02*
X77700000Y10570000D01*
X77700000Y10570000D02*
X76900000Y10570000D01*
X76900000Y10570000D02*
X77300000Y11370000D01*
D12*
X37750000Y15000000D02*
X38000000Y15000000D01*
X37250000Y15000000D02*
X37000000Y15000000D01*
X37250000Y15000000D02*
X37750000Y15350000D01*
X37750000Y15350000D02*
X37750000Y14650000D01*
X37750000Y14650000D02*
X37250000Y15000000D01*
X37250000Y15350000D02*
X37250000Y14650000D01*
X36200000Y14200000D02*
X38600000Y14200000D01*
X36200000Y15800000D02*
X38600000Y15800000D01*
X46750000Y15000000D02*
X47000000Y15000000D01*
X46250000Y15000000D02*
X46000000Y15000000D01*
X46250000Y15000000D02*
X46750000Y15350000D01*
X46750000Y15350000D02*
X46750000Y14650000D01*
X46750000Y14650000D02*
X46250000Y15000000D01*
X46250000Y15350000D02*
X46250000Y14650000D01*
X45200000Y14200000D02*
X47600000Y14200000D01*
X45200000Y15800000D02*
X47600000Y15800000D01*
X55250000Y15000000D02*
X55500000Y15000000D01*
X54750000Y15000000D02*
X54500000Y15000000D01*
X54750000Y15000000D02*
X55250000Y15350000D01*
X55250000Y15350000D02*
X55250000Y14650000D01*
X55250000Y14650000D02*
X54750000Y15000000D01*
X54750000Y15350000D02*
X54750000Y14650000D01*
X53700000Y14200000D02*
X56100000Y14200000D01*
X53700000Y15800000D02*
X56100000Y15800000D01*
X63250000Y15000000D02*
X63500000Y15000000D01*
X62750000Y15000000D02*
X62500000Y15000000D01*
X62750000Y15000000D02*
X63250000Y15350000D01*
X63250000Y15350000D02*
X63250000Y14650000D01*
X63250000Y14650000D02*
X62750000Y15000000D01*
X62750000Y15350000D02*
X62750000Y14650000D01*
X61700000Y14200000D02*
X64100000Y14200000D01*
X61700000Y15800000D02*
X64100000Y15800000D01*
X13500000Y15000000D02*
X13750000Y15000000D01*
X13000000Y15000000D02*
X12750000Y15000000D01*
X13000000Y15000000D02*
X13500000Y15350000D01*
X13500000Y15350000D02*
X13500000Y14650000D01*
X13500000Y14650000D02*
X13000000Y15000000D01*
X13000000Y15350000D02*
X13000000Y14650000D01*
X11950000Y14200000D02*
X14350000Y14200000D01*
X11950000Y15800000D02*
X14350000Y15800000D01*
X20750000Y15000000D02*
X21000000Y15000000D01*
X20250000Y15000000D02*
X20000000Y15000000D01*
X20250000Y15000000D02*
X20750000Y15350000D01*
X20750000Y15350000D02*
X20750000Y14650000D01*
X20750000Y14650000D02*
X20250000Y15000000D01*
X20250000Y15350000D02*
X20250000Y14650000D01*
X19200000Y14200000D02*
X21600000Y14200000D01*
X19200000Y15800000D02*
X21600000Y15800000D01*
X28750000Y15000000D02*
X29000000Y15000000D01*
X28250000Y15000000D02*
X28000000Y15000000D01*
X28250000Y15000000D02*
X28750000Y15350000D01*
X28750000Y15350000D02*
X28750000Y14650000D01*
X28750000Y14650000D02*
X28250000Y15000000D01*
X28250000Y15350000D02*
X28250000Y14650000D01*
X27200000Y14200000D02*
X29600000Y14200000D01*
X27200000Y15800000D02*
X29600000Y15800000D01*
X16810000Y22460000D02*
X9190000Y22460000D01*
X16810000Y23095000D02*
X16810000Y21825000D01*
X9190000Y26905000D02*
X9190000Y28175000D01*
X9190000Y28175000D02*
X16810000Y28175000D01*
X16810000Y28175000D02*
X16810000Y26905000D01*
X16810000Y21825000D02*
X9190000Y21825000D01*
X9190000Y21825000D02*
X9190000Y23095000D01*
X25810000Y22460000D02*
X18190000Y22460000D01*
X25810000Y23095000D02*
X25810000Y21825000D01*
X18190000Y26905000D02*
X18190000Y28175000D01*
X18190000Y28175000D02*
X25810000Y28175000D01*
X25810000Y28175000D02*
X25810000Y26905000D01*
X25810000Y21825000D02*
X18190000Y21825000D01*
X18190000Y21825000D02*
X18190000Y23095000D01*
X34810000Y22460000D02*
X27190000Y22460000D01*
X34810000Y23095000D02*
X34810000Y21825000D01*
X27190000Y26905000D02*
X27190000Y28175000D01*
X27190000Y28175000D02*
X34810000Y28175000D01*
X34810000Y28175000D02*
X34810000Y26905000D01*
X34810000Y21825000D02*
X27190000Y21825000D01*
X27190000Y21825000D02*
X27190000Y23095000D01*
X43810000Y22460000D02*
X36190000Y22460000D01*
X43810000Y23095000D02*
X43810000Y21825000D01*
X36190000Y26905000D02*
X36190000Y28175000D01*
X36190000Y28175000D02*
X43810000Y28175000D01*
X43810000Y28175000D02*
X43810000Y26905000D01*
X43810000Y21825000D02*
X36190000Y21825000D01*
X36190000Y21825000D02*
X36190000Y23095000D01*
X52810000Y22460000D02*
X45190000Y22460000D01*
X52810000Y23095000D02*
X52810000Y21825000D01*
X45190000Y26905000D02*
X45190000Y28175000D01*
X45190000Y28175000D02*
X52810000Y28175000D01*
X52810000Y28175000D02*
X52810000Y26905000D01*
X52810000Y21825000D02*
X45190000Y21825000D01*
X45190000Y21825000D02*
X45190000Y23095000D01*
X61810000Y22460000D02*
X54190000Y22460000D01*
X61810000Y23095000D02*
X61810000Y21825000D01*
X54190000Y26905000D02*
X54190000Y28175000D01*
X54190000Y28175000D02*
X61810000Y28175000D01*
X61810000Y28175000D02*
X61810000Y26905000D01*
X61810000Y21825000D02*
X54190000Y21825000D01*
X54190000Y21825000D02*
X54190000Y23095000D01*
X70810000Y22460000D02*
X63190000Y22460000D01*
X70810000Y23095000D02*
X70810000Y21825000D01*
X63190000Y26905000D02*
X63190000Y28175000D01*
X63190000Y28175000D02*
X70810000Y28175000D01*
X70810000Y28175000D02*
X70810000Y26905000D01*
X70810000Y21825000D02*
X63190000Y21825000D01*
X63190000Y21825000D02*
X63190000Y23095000D01*
X12750000Y10675000D02*
X13750000Y10675000D01*
X13750000Y9325000D02*
X12750000Y9325000D01*
X62500000Y10675000D02*
X63500000Y10675000D01*
X63500000Y9325000D02*
X62500000Y9325000D01*
X54500000Y10675000D02*
X55500000Y10675000D01*
X55500000Y9325000D02*
X54500000Y9325000D01*
X46000000Y10675000D02*
X47000000Y10675000D01*
X47000000Y9325000D02*
X46000000Y9325000D01*
X37000000Y10675000D02*
X38000000Y10675000D01*
X38000000Y9325000D02*
X37000000Y9325000D01*
X28000000Y10675000D02*
X29000000Y10675000D01*
X29000000Y9325000D02*
X28000000Y9325000D01*
X20000000Y10675000D02*
X21000000Y10675000D01*
X21000000Y9325000D02*
X20000000Y9325000D01*
X36476190Y2571429D02*
X36809524Y2571429D01*
X36952381Y2047619D02*
X36476190Y2047619D01*
X36476190Y3047619D01*
X36952381Y3047619D01*
X37333333Y2095238D02*
X37476190Y2047619D01*
X37714286Y2047619D01*
X37809524Y2095238D01*
X37857143Y2142857D01*
X37904762Y2238095D01*
X37904762Y2333333D01*
X37857143Y2428571D01*
X37809524Y2476190D01*
X37714286Y2523810D01*
X37523809Y2571429D01*
X37428571Y2619048D01*
X37380952Y2666667D01*
X37333333Y2761905D01*
X37333333Y2857143D01*
X37380952Y2952381D01*
X37428571Y3000000D01*
X37523809Y3047619D01*
X37761905Y3047619D01*
X37904762Y3000000D01*
X38190476Y3047619D02*
X38761905Y3047619D01*
X38476190Y2047619D02*
X38476190Y3047619D01*
X39285714Y3047619D02*
X39476191Y3047619D01*
X39571429Y3000000D01*
X39666667Y2904762D01*
X39714286Y2714286D01*
X39714286Y2380952D01*
X39666667Y2190476D01*
X39571429Y2095238D01*
X39476191Y2047619D01*
X39285714Y2047619D01*
X39190476Y2095238D01*
X39095238Y2190476D01*
X39047619Y2380952D01*
X39047619Y2714286D01*
X39095238Y2904762D01*
X39190476Y3000000D01*
X39285714Y3047619D01*
X40142857Y2047619D02*
X40142857Y3047619D01*
X40523810Y3047619D01*
X40619048Y3000000D01*
X40666667Y2952381D01*
X40714286Y2857143D01*
X40714286Y2714286D01*
X40666667Y2619048D01*
X40619048Y2571429D01*
X40523810Y2523810D01*
X40142857Y2523810D01*
X41000000Y3047619D02*
X41333333Y2047619D01*
X41666667Y3047619D01*
D13*
X10452381Y6500000D02*
X11404762Y6500000D01*
X9404762Y5833333D02*
X10452381Y6500000D01*
X9404762Y7166667D01*
X69452381Y6500000D02*
X70404762Y6500000D01*
X68404762Y5833333D02*
X69452381Y6500000D01*
X68404762Y7166667D01*
X10750000Y20003429D02*
X10750000Y21503429D01*
X11464286Y20003429D02*
X11464286Y21503429D01*
X12321429Y20003429D01*
X12321429Y21503429D01*
X13035715Y20003429D02*
X13035715Y21503429D01*
X13607143Y21503429D01*
X13750001Y21432000D01*
X13821429Y21360571D01*
X13892858Y21217714D01*
X13892858Y21003429D01*
X13821429Y20860571D01*
X13750001Y20789143D01*
X13607143Y20717714D01*
X13035715Y20717714D01*
X14821429Y21503429D02*
X14964286Y21503429D01*
X15107143Y21432000D01*
X15178572Y21360571D01*
X15250001Y21217714D01*
X15321429Y20932000D01*
X15321429Y20574857D01*
X15250001Y20289143D01*
X15178572Y20146286D01*
X15107143Y20074857D01*
X14964286Y20003429D01*
X14821429Y20003429D01*
X14678572Y20074857D01*
X14607143Y20146286D01*
X14535715Y20289143D01*
X14464286Y20574857D01*
X14464286Y20932000D01*
X14535715Y21217714D01*
X14607143Y21360571D01*
X14678572Y21432000D01*
X14821429Y21503429D01*
X19750000Y20003429D02*
X19750000Y21503429D01*
X20464286Y20003429D02*
X20464286Y21503429D01*
X21321429Y20003429D01*
X21321429Y21503429D01*
X22035715Y20003429D02*
X22035715Y21503429D01*
X22607143Y21503429D01*
X22750001Y21432000D01*
X22821429Y21360571D01*
X22892858Y21217714D01*
X22892858Y21003429D01*
X22821429Y20860571D01*
X22750001Y20789143D01*
X22607143Y20717714D01*
X22035715Y20717714D01*
X24321429Y20003429D02*
X23464286Y20003429D01*
X23892858Y20003429D02*
X23892858Y21503429D01*
X23750001Y21289143D01*
X23607143Y21146286D01*
X23464286Y21074857D01*
X28750000Y20003429D02*
X28750000Y21503429D01*
X29464286Y20003429D02*
X29464286Y21503429D01*
X30321429Y20003429D01*
X30321429Y21503429D01*
X31035715Y20003429D02*
X31035715Y21503429D01*
X31607143Y21503429D01*
X31750001Y21432000D01*
X31821429Y21360571D01*
X31892858Y21217714D01*
X31892858Y21003429D01*
X31821429Y20860571D01*
X31750001Y20789143D01*
X31607143Y20717714D01*
X31035715Y20717714D01*
X32464286Y21360571D02*
X32535715Y21432000D01*
X32678572Y21503429D01*
X33035715Y21503429D01*
X33178572Y21432000D01*
X33250001Y21360571D01*
X33321429Y21217714D01*
X33321429Y21074857D01*
X33250001Y20860571D01*
X32392858Y20003429D01*
X33321429Y20003429D01*
X37750000Y20003429D02*
X37750000Y21503429D01*
X38464286Y20003429D02*
X38464286Y21503429D01*
X39321429Y20003429D01*
X39321429Y21503429D01*
X40035715Y20003429D02*
X40035715Y21503429D01*
X40607143Y21503429D01*
X40750001Y21432000D01*
X40821429Y21360571D01*
X40892858Y21217714D01*
X40892858Y21003429D01*
X40821429Y20860571D01*
X40750001Y20789143D01*
X40607143Y20717714D01*
X40035715Y20717714D01*
X41392858Y21503429D02*
X42321429Y21503429D01*
X41821429Y20932000D01*
X42035715Y20932000D01*
X42178572Y20860571D01*
X42250001Y20789143D01*
X42321429Y20646286D01*
X42321429Y20289143D01*
X42250001Y20146286D01*
X42178572Y20074857D01*
X42035715Y20003429D01*
X41607143Y20003429D01*
X41464286Y20074857D01*
X41392858Y20146286D01*
X46750000Y20003429D02*
X46750000Y21503429D01*
X47464286Y20003429D02*
X47464286Y21503429D01*
X48321429Y20003429D01*
X48321429Y21503429D01*
X49035715Y20003429D02*
X49035715Y21503429D01*
X49607143Y21503429D01*
X49750001Y21432000D01*
X49821429Y21360571D01*
X49892858Y21217714D01*
X49892858Y21003429D01*
X49821429Y20860571D01*
X49750001Y20789143D01*
X49607143Y20717714D01*
X49035715Y20717714D01*
X51178572Y21003429D02*
X51178572Y20003429D01*
X50821429Y21574857D02*
X50464286Y20503429D01*
X51392858Y20503429D01*
X55750000Y20003429D02*
X55750000Y21503429D01*
X56464286Y20003429D02*
X56464286Y21503429D01*
X57321429Y20003429D01*
X57321429Y21503429D01*
X58035715Y20003429D02*
X58035715Y21503429D01*
X58607143Y21503429D01*
X58750001Y21432000D01*
X58821429Y21360571D01*
X58892858Y21217714D01*
X58892858Y21003429D01*
X58821429Y20860571D01*
X58750001Y20789143D01*
X58607143Y20717714D01*
X58035715Y20717714D01*
X60250001Y21503429D02*
X59535715Y21503429D01*
X59464286Y20789143D01*
X59535715Y20860571D01*
X59678572Y20932000D01*
X60035715Y20932000D01*
X60178572Y20860571D01*
X60250001Y20789143D01*
X60321429Y20646286D01*
X60321429Y20289143D01*
X60250001Y20146286D01*
X60178572Y20074857D01*
X60035715Y20003429D01*
X59678572Y20003429D01*
X59535715Y20074857D01*
X59464286Y20146286D01*
X64750000Y20003429D02*
X64750000Y21503429D01*
X65464286Y20003429D02*
X65464286Y21503429D01*
X66321429Y20003429D01*
X66321429Y21503429D01*
X67035715Y20003429D02*
X67035715Y21503429D01*
X67607143Y21503429D01*
X67750001Y21432000D01*
X67821429Y21360571D01*
X67892858Y21217714D01*
X67892858Y21003429D01*
X67821429Y20860571D01*
X67750001Y20789143D01*
X67607143Y20717714D01*
X67035715Y20717714D01*
X69178572Y21503429D02*
X68892858Y21503429D01*
X68750001Y21432000D01*
X68678572Y21360571D01*
X68535715Y21146286D01*
X68464286Y20860571D01*
X68464286Y20289143D01*
X68535715Y20146286D01*
X68607143Y20074857D01*
X68750001Y20003429D01*
X69035715Y20003429D01*
X69178572Y20074857D01*
X69250001Y20146286D01*
X69321429Y20289143D01*
X69321429Y20646286D01*
X69250001Y20789143D01*
X69178572Y20860571D01*
X69035715Y20932000D01*
X68750001Y20932000D01*
X68607143Y20860571D01*
X68535715Y20789143D01*
X68464286Y20646286D01*
D12*
X12916667Y8547619D02*
X12916667Y7833333D01*
X12869047Y7690476D01*
X12773809Y7595238D01*
X12630952Y7547619D01*
X12535714Y7547619D01*
X13392857Y7547619D02*
X13392857Y8547619D01*
X13773810Y8547619D01*
X13869048Y8500000D01*
X13916667Y8452381D01*
X13964286Y8357143D01*
X13964286Y8214286D01*
X13916667Y8119048D01*
X13869048Y8071429D01*
X13773810Y8023810D01*
X13392857Y8023810D01*
X14345238Y8452381D02*
X14392857Y8500000D01*
X14488095Y8547619D01*
X14726191Y8547619D01*
X14821429Y8500000D01*
X14869048Y8452381D01*
X14916667Y8357143D01*
X14916667Y8261905D01*
X14869048Y8119048D01*
X14297619Y7547619D01*
X14916667Y7547619D01*
X62166667Y8647619D02*
X62166667Y7933333D01*
X62119047Y7790476D01*
X62023809Y7695238D01*
X61880952Y7647619D01*
X61785714Y7647619D01*
X62642857Y7647619D02*
X62642857Y8647619D01*
X63023810Y8647619D01*
X63119048Y8600000D01*
X63166667Y8552381D01*
X63214286Y8457143D01*
X63214286Y8314286D01*
X63166667Y8219048D01*
X63119048Y8171429D01*
X63023810Y8123810D01*
X62642857Y8123810D01*
X63785714Y8219048D02*
X63690476Y8266667D01*
X63642857Y8314286D01*
X63595238Y8409524D01*
X63595238Y8457143D01*
X63642857Y8552381D01*
X63690476Y8600000D01*
X63785714Y8647619D01*
X63976191Y8647619D01*
X64071429Y8600000D01*
X64119048Y8552381D01*
X64166667Y8457143D01*
X64166667Y8409524D01*
X64119048Y8314286D01*
X64071429Y8266667D01*
X63976191Y8219048D01*
X63785714Y8219048D01*
X63690476Y8171429D01*
X63642857Y8123810D01*
X63595238Y8028571D01*
X63595238Y7838095D01*
X63642857Y7742857D01*
X63690476Y7695238D01*
X63785714Y7647619D01*
X63976191Y7647619D01*
X64071429Y7695238D01*
X64119048Y7742857D01*
X64166667Y7838095D01*
X64166667Y8028571D01*
X64119048Y8123810D01*
X64071429Y8171429D01*
X63976191Y8219048D01*
X54166667Y8647619D02*
X54166667Y7933333D01*
X54119047Y7790476D01*
X54023809Y7695238D01*
X53880952Y7647619D01*
X53785714Y7647619D01*
X54642857Y7647619D02*
X54642857Y8647619D01*
X55023810Y8647619D01*
X55119048Y8600000D01*
X55166667Y8552381D01*
X55214286Y8457143D01*
X55214286Y8314286D01*
X55166667Y8219048D01*
X55119048Y8171429D01*
X55023810Y8123810D01*
X54642857Y8123810D01*
X55547619Y8647619D02*
X56214286Y8647619D01*
X55785714Y7647619D01*
X45666667Y8647619D02*
X45666667Y7933333D01*
X45619047Y7790476D01*
X45523809Y7695238D01*
X45380952Y7647619D01*
X45285714Y7647619D01*
X46142857Y7647619D02*
X46142857Y8647619D01*
X46523810Y8647619D01*
X46619048Y8600000D01*
X46666667Y8552381D01*
X46714286Y8457143D01*
X46714286Y8314286D01*
X46666667Y8219048D01*
X46619048Y8171429D01*
X46523810Y8123810D01*
X46142857Y8123810D01*
X47571429Y8647619D02*
X47380952Y8647619D01*
X47285714Y8600000D01*
X47238095Y8552381D01*
X47142857Y8409524D01*
X47095238Y8219048D01*
X47095238Y7838095D01*
X47142857Y7742857D01*
X47190476Y7695238D01*
X47285714Y7647619D01*
X47476191Y7647619D01*
X47571429Y7695238D01*
X47619048Y7742857D01*
X47666667Y7838095D01*
X47666667Y8076190D01*
X47619048Y8171429D01*
X47571429Y8219048D01*
X47476191Y8266667D01*
X47285714Y8266667D01*
X47190476Y8219048D01*
X47142857Y8171429D01*
X47095238Y8076190D01*
X36666667Y8647619D02*
X36666667Y7933333D01*
X36619047Y7790476D01*
X36523809Y7695238D01*
X36380952Y7647619D01*
X36285714Y7647619D01*
X37142857Y7647619D02*
X37142857Y8647619D01*
X37523810Y8647619D01*
X37619048Y8600000D01*
X37666667Y8552381D01*
X37714286Y8457143D01*
X37714286Y8314286D01*
X37666667Y8219048D01*
X37619048Y8171429D01*
X37523810Y8123810D01*
X37142857Y8123810D01*
X38619048Y8647619D02*
X38142857Y8647619D01*
X38095238Y8171429D01*
X38142857Y8219048D01*
X38238095Y8266667D01*
X38476191Y8266667D01*
X38571429Y8219048D01*
X38619048Y8171429D01*
X38666667Y8076190D01*
X38666667Y7838095D01*
X38619048Y7742857D01*
X38571429Y7695238D01*
X38476191Y7647619D01*
X38238095Y7647619D01*
X38142857Y7695238D01*
X38095238Y7742857D01*
X27666667Y8647619D02*
X27666667Y7933333D01*
X27619047Y7790476D01*
X27523809Y7695238D01*
X27380952Y7647619D01*
X27285714Y7647619D01*
X28142857Y7647619D02*
X28142857Y8647619D01*
X28523810Y8647619D01*
X28619048Y8600000D01*
X28666667Y8552381D01*
X28714286Y8457143D01*
X28714286Y8314286D01*
X28666667Y8219048D01*
X28619048Y8171429D01*
X28523810Y8123810D01*
X28142857Y8123810D01*
X29571429Y8314286D02*
X29571429Y7647619D01*
X29333333Y8695238D02*
X29095238Y7980952D01*
X29714286Y7980952D01*
X19666667Y8647619D02*
X19666667Y7933333D01*
X19619047Y7790476D01*
X19523809Y7695238D01*
X19380952Y7647619D01*
X19285714Y7647619D01*
X20142857Y7647619D02*
X20142857Y8647619D01*
X20523810Y8647619D01*
X20619048Y8600000D01*
X20666667Y8552381D01*
X20714286Y8457143D01*
X20714286Y8314286D01*
X20666667Y8219048D01*
X20619048Y8171429D01*
X20523810Y8123810D01*
X20142857Y8123810D01*
X21047619Y8647619D02*
X21666667Y8647619D01*
X21333333Y8266667D01*
X21476191Y8266667D01*
X21571429Y8219048D01*
X21619048Y8171429D01*
X21666667Y8076190D01*
X21666667Y7838095D01*
X21619048Y7742857D01*
X21571429Y7695238D01*
X21476191Y7647619D01*
X21190476Y7647619D01*
X21095238Y7695238D01*
X21047619Y7742857D01*
M02*
