M48
; DRILL file {KiCad 8.0.3-8.0.3-0~ubuntu20.04.1} date 2024-06-26T21:45:46-0700
; FORMAT={-:-/ absolute / inch / decimal}
; #@! TF.CreationDate,2024-06-26T21:45:46-07:00
; #@! TF.GenerationSoftware,Kicad,Pcbnew,8.0.3-8.0.3-0~ubuntu20.04.1
; #@! TF.FileFunction,Plated,1,4,PTH
FMAT,2
INCH
; #@! TA.AperFunction,Plated,PTH,ViaDrill
T1C0.0079
; #@! TA.AperFunction,Plated,PTH,ViaDrill
T2C0.0098
; #@! TA.AperFunction,Plated,PTH,ViaDrill
T3C0.0118
; #@! TA.AperFunction,Plated,PTH,ComponentDrill
T4C0.0118
; #@! TA.AperFunction,Plated,PTH,ComponentDrill
T5C0.0256
; #@! TA.AperFunction,Plated,PTH,ComponentDrill
T6C0.0354
; #@! TA.AperFunction,Plated,PTH,ComponentDrill
T7C0.0362
; #@! TA.AperFunction,Plated,PTH,ComponentDrill
T8C0.0390
; #@! TA.AperFunction,Plated,PTH,ComponentDrill
T9C0.0394
; #@! TA.AperFunction,Plated,PTH,ComponentDrill
T10C0.0402
; #@! TA.AperFunction,Plated,PTH,ComponentDrill
T11C0.0469
; #@! TA.AperFunction,Plated,PTH,ComponentDrill
T12C0.0512
; #@! TA.AperFunction,Plated,PTH,ComponentDrill
T13C0.0591
; #@! TA.AperFunction,Plated,PTH,ComponentDrill
T14C0.0642
; #@! TA.AperFunction,Plated,PTH,ComponentDrill
T15C0.0917
; #@! TA.AperFunction,Plated,PTH,ComponentDrill
T16C0.0984
; #@! TA.AperFunction,Plated,PTH,ComponentDrill
T17C0.1260
%
G90
G05
T1
X4.4685Y-4.0591
X4.4766Y-4.0346
X4.5012Y-4.0224
X4.5201Y-4.0626
X4.5201Y-4.0938
X4.5352Y-4.1135
X4.5876Y-2.937
X4.6213Y-2.8785
X4.6303Y-5.1929
X4.6365Y-2.8961
X4.6628Y-2.8384
X4.6831Y-3.1358
X4.689Y-2.9941
X4.7101Y-2.8268
X4.7122Y-2.9927
X4.7126Y-3.0984
X4.7205Y-3.063
X4.7222Y-2.7589
X4.7223Y-3.0392
X4.7228Y-2.7188
X4.7346Y-2.615
X4.7349Y-2.7395
X4.748Y-3.0994
X4.7486Y-2.7171
X4.7549Y-2.6781
X4.7717Y-2.6604
X4.7856Y-2.6275
X4.7878Y-2.8823
X4.7903Y-2.9571
X4.7953Y-2.6486
X4.7988Y-2.9045
X4.8215Y-3.1382
X4.8227Y-5.2073
X4.8248Y-4.0394
X4.8325Y-2.8187
X4.8339Y-2.8732
X4.8368Y-2.7921
X4.8449Y-2.9877
X4.8478Y-2.9563
X4.8519Y-2.7462
X4.8686Y-2.73
X4.8705Y-2.9614
X4.8976Y-2.9902
X4.9035Y-4.0787
X4.9134Y-3.1388
X4.9142Y-2.8752
X4.9177Y-2.8996
X4.9213Y-2.6555
X4.923Y-2.8514
X4.9277Y-2.9899
X4.9348Y-2.4847
X4.9443Y-3.3598
X4.9478Y-3.4656
X4.9507Y-2.9931
X4.9508Y-2.8324
X4.9531Y-2.463
X4.9575Y-2.8638
X4.9577Y-4.2431
X4.9626Y-4.1831
X4.965Y-2.061
X4.9679Y-2.7292
X4.9754Y-2.5872
X4.9754Y-2.8337
X4.9764Y-2.4784
X4.9853Y-2.6965
X4.9878Y-3.3894
X4.9931Y-2.9488
X4.9941Y-2.4587
X4.9993Y-2.9788
X4.9998Y-2.6045
X5.0007Y-3.4122
X5.0045Y-2.5773
X5.0085Y-2.6978
X5.0095Y-3.0183
X5.0129Y-2.4794
X5.0148Y-4.5837
X5.0165Y-2.5574
X5.0187Y-4.627
X5.0304Y-4.2341
X5.0327Y-4.211
X5.0358Y-2.4606
X5.0391Y-4.1887
X5.0404Y-4.5876
X5.0476Y-3.4179
X5.0544Y-2.6821
X5.0551Y-3.0012
X5.0554Y-4.2304
X5.0598Y-4.1746
X5.0643Y-2.7031
X5.0659Y-4.5856
X5.0673Y-5.1819
X5.0742Y-2.5517
X5.0772Y-4.2383
X5.0783Y-3.0022
X5.088Y-2.9071
X5.0896Y-4.5856
X5.0933Y-3.815
X5.0933Y-3.8938
X5.0969Y-4.1432
X5.1003Y-4.2409
X5.1161Y-4.5846
X5.1235Y-4.2425
X5.126Y-3.3061
X5.128Y-3.8543
X5.1299Y-2.3413
X5.1335Y-3.1352
X5.1361Y-2.9207
X5.1378Y-3.0787
X5.1384Y-3.188
X5.1417Y-4.5856
X5.1467Y-4.2419
X5.1673Y-3.815
X5.1673Y-3.8937
X5.1678Y-2.7006
X5.1683Y-2.8258
X5.1688Y-2.7933
X5.1693Y-2.9213
X5.1693Y-2.9852
X5.1699Y-4.2422
X5.1701Y-2.7352
X5.1704Y-2.6074
X5.1704Y-2.6659
X5.1718Y-2.5011
X5.1771Y-3.5257
X5.1801Y-4.4748
X5.1835Y-3.4493
X5.1853Y-3.127
X5.1949Y-2.5295
X5.1974Y-2.796
X5.1988Y-2.9213
X5.1988Y-3.0157
X5.1988Y-3.0785
X5.1988Y-4.0866
X5.1992Y-3.0472
X5.1993Y-2.6683
X5.2008Y-2.8258
X5.2015Y-2.6413
X5.2028Y-2.7028
X5.2028Y-2.7343
X5.2028Y-2.8583
X5.208Y-3.1189
X5.2106Y-4.5709
X5.2301Y-2.7637
X5.2311Y-2.6996
X5.2323Y-2.9868
X5.2323Y-2.7303
X5.2323Y-2.8583
X5.2323Y-2.8898
X5.2343Y-3.0138
X5.2357Y-3.0465
X5.2386Y-2.4858
X5.2406Y-2.3783
X5.2587Y-2.4717
X5.2617Y-2.6689
X5.2628Y-3.6594
X5.2632Y-2.6373
X5.2637Y-3.0491
X5.2638Y-3.0138
X5.2665Y-2.8307
X5.2713Y-2.9433
X5.2781Y-2.9211
X5.2831Y-2.5671
X5.2854Y-2.7539
X5.2928Y-3.0157
X5.2948Y-3.0468
X5.2953Y-2.7008
X5.2957Y-2.6693
X5.2972Y-2.7303
X5.3031Y-4.5512
X5.3071Y-4.7825
X5.3135Y-2.5335
X5.3162Y-3.1388
X5.318Y-2.4058
X5.3201Y-2.2917
X5.3218Y-3.0495
X5.3245Y-2.6121
X5.3248Y-2.8248
X5.3248Y-2.8917
X5.326Y-4.802
X5.3268Y-2.6984
X5.3268Y-2.9508
X5.3292Y-2.6673
X5.3337Y-4.7569
X5.3374Y-2.2685
X5.34Y-4.2005
X5.3465Y-3.9839
X5.3473Y-4.1784
X5.3474Y-4.373
X5.348Y-5.198
X5.3484Y-2.7953
X5.3488Y-4.1438
X5.3543Y-3.8146
X5.3558Y-3.0157
X5.3575Y-3.5843
X5.3583Y-2.8602
X5.3594Y-3.6303
X5.3602Y-2.6984
X5.3602Y-2.8287
X5.3612Y-4.4429
X5.3617Y-2.9835
X5.3634Y-4.5047
X5.3638Y-2.6667
X5.3642Y-1.9708
X5.3682Y-4.1293
X5.3711Y-4.3593
X5.3714Y-4.1655
X5.3817Y-3.4779
X5.3849Y-3.5009
X5.3851Y-3.133
X5.3893Y-4.1073
X5.3898Y-2.8602
X5.3904Y-3.0174
X5.3907Y-3.0775
X5.3907Y-2.4794
X5.3912Y-2.9846
X5.3917Y-2.6713
X5.3917Y-2.7303
X5.3934Y-2.4319
X5.4062Y-1.9643
X5.4091Y-4.8213
X5.4114Y-2.4465
X5.4132Y-3.2976
X5.4198Y-2.6371
X5.4213Y-2.6668
X5.4213Y-2.7953
X5.4213Y-2.8563
X5.4223Y-3.9949
X5.4232Y-2.8917
X5.4236Y-3.4422
X5.4252Y-3.017
X5.4256Y-3.0774
X5.4343Y-4.8328
X5.4343Y-4.2545
X5.4358Y-4.2777
X5.436Y-4.5925
X5.437Y-2.9472
X5.446Y-4.2172
X5.4468Y-4.3957
X5.447Y-3.6981
X5.4484Y-3.7957
X5.4484Y-2.4465
X5.4508Y-3.8236
X5.4531Y-3.7287
X5.4537Y-2.6731
X5.4544Y-2.6406
X5.4545Y-3.0466
X5.4547Y-3.0177
X5.4606Y-2.7992
X5.463Y-3.9291
X5.4636Y-4.5827
X5.4642Y-4.1401
X5.4724Y-2.7402
X5.4728Y-4.0667
X5.4823Y-2.9862
X5.4827Y-2.8898
X5.4831Y-3.0484
X5.4833Y-3.1064
X5.4833Y-4.3445
X5.4839Y-2.6672
X5.4843Y-3.0807
X5.4843Y-2.6983
X5.4845Y-2.8265
X5.4855Y-2.954
X5.486Y-2.606
X5.4925Y-3.4563
X5.4949Y-4.0738
X5.4961Y-4.5896
X5.5028Y-3.385
X5.5031Y-4.1547
X5.5113Y-3.1564
X5.5151Y-2.6388
X5.5157Y-2.7323
X5.5157Y-2.8287
X5.5157Y-2.8583
X5.5157Y-2.6718
X5.5165Y-2.9846
X5.5196Y-3.8671
X5.5217Y-2.5571
X5.5256Y-3.6057
X5.54Y-4.6
X5.547Y-2.761
X5.5472Y-2.8898
X5.5472Y-2.9213
X5.5472Y-2.6983
X5.5474Y-2.5155
X5.5484Y-2.8264
X5.5492Y-3.0161
X5.5498Y-2.6378
X5.5516Y-2.9862
X5.5531Y-4.689
X5.5561Y-4.6545
X5.5578Y-4.0579
X5.5662Y-3.1986
X5.5738Y-3.0175
X5.576Y-2.6948
X5.5764Y-2.9844
X5.5787Y-4.8926
X5.5787Y-2.8583
X5.5787Y-2.8873
X5.579Y-2.9219
X5.5797Y-4.8602
X5.5801Y-2.733
X5.5807Y-2.6693
X5.5827Y-4.7116
X5.5827Y-4.7441
X5.5827Y-4.7795
X5.5865Y-4.9162
X5.5866Y-3.8991
X5.5905Y-2.4762
X5.5945Y-1.9776
X5.596Y-4.0449
X5.5968Y-3.2431
X5.6024Y-3.3705
X5.62Y-5.055
X5.6261Y-1.851
X5.6286Y-2.3151
X5.6309Y-4.3406
X5.6331Y-3.4846
X5.6352Y-4.2732
X5.6377Y-3.1162
X5.6393Y-4.3161
X5.6413Y-1.8685
X5.6429Y-2.5754
X5.6486Y-4.6821
X5.656Y-2.9605
X5.6573Y-2.2978
X5.6591Y-4.0319
X5.6595Y-3.2894
X5.6605Y-1.9135
X5.6614Y-2.779
X5.6654Y-4.6427
X5.6687Y-3.0781
X5.6701Y-3.0536
X5.6716Y-2.9777
X5.6733Y-2.9149
X5.6752Y-2.7378
X5.6753Y-2.2822
X5.6764Y-4.3583
X5.6781Y-3.7352
X5.6819Y-3.9587
X5.6845Y-3.2275
X5.689Y-4.686
X5.6896Y-2.9444
X5.6919Y-4.6476
X5.6926Y-3.026
X5.6959Y-3.1907
X5.6988Y-3.8661
X5.6994Y-3.1677
X5.6999Y-3.048
X5.7039Y-4.4032
X5.7052Y-2.6503
X5.7087Y-3.8346
X5.7214Y-2.2907
X5.7323Y-2.6535
X5.7323Y-2.4554
X5.7327Y-3.8165
X5.7354Y-2.1467
X5.7381Y-2.9584
X5.7381Y-2.6764
X5.741Y-3.7948
X5.7458Y-1.8861
X5.754Y-3.7756
X5.7541Y-2.4472
X5.756Y-2.2893
X5.758Y-2.8895
X5.759Y-2.9483
X5.7592Y-2.8655
X5.7618Y-2.3266
X5.7618Y-2.5335
X5.7654Y-3.2402
X5.7677Y-2.6969
X5.7713Y-3.7252
X5.7795Y-2.628
X5.7819Y-2.9443
X5.7823Y-2.2566
X5.783Y-2.8643
X5.7831Y-4.4646
X5.7858Y-2.2925
X5.7886Y-3.961
X5.7886Y-2.3685
X5.8002Y-4.0233
X5.8011Y-3.1109
X5.8025Y-2.5529
X5.8026Y-3.1499
X5.8046Y-4.0595
X5.8059Y-3.7049
X5.8075Y-2.2358
X5.8083Y-2.356
X5.8149Y-2.2739
X5.8152Y-3.655
X5.8162Y-2.2971
X5.8264Y-4.5105
X5.828Y-2.2185
X5.8465Y-3.54
X5.8586Y-4.3787
X5.8843Y-4.3508
X5.8896Y-2.65
X5.9028Y-3.0365
X5.9156Y-2.6508
X5.9191Y-2.8703
X5.9191Y-2.3051
X5.9193Y-2.4929
X5.9232Y-2.6988
X5.9248Y-3.0437
X5.9264Y-1.9043
X5.9386Y-3.5492
X5.9465Y-2.7147
X5.9488Y-3.6801
X5.9505Y-3.1752
X5.9521Y-2.3256
X5.9539Y-2.5128
X5.9539Y-2.4849
X5.9559Y-1.8925
X5.9571Y-1.9222
X5.9577Y-3.378
X5.959Y-3.0314
X5.9606Y-3.3346
X5.9693Y-2.6462
X5.9696Y-2.7128
X5.9719Y-3.528
X5.9723Y-2.6821
X5.9793Y-2.325
X5.9921Y-2.5217
X5.9927Y-2.7106
X5.997Y-3.3376
X6.0007Y-2.9974
X6.0033Y-2.3256
X6.007Y-2.8645
X6.0097Y-3.1999
X6.0171Y-3.1682
X6.0214Y-2.0332
X6.0236Y-1.8496
X6.0236Y-2.6614
X6.0276Y-3.5482
X6.0291Y-2.8717
X6.0295Y-2.5118
X6.0354Y-3.0531
X6.0441Y-3.3976
X6.0461Y-2.3247
X6.0514Y-2.8652
X6.0531Y-3.0177
X6.0551Y-3.2002
X6.0654Y-2.0665
X6.0692Y-2.3272
X6.0744Y-2.8622
X6.0749Y-2.3736
X6.0787Y-3.5108
X6.0827Y-2.5256
X6.0827Y-2.7069
X6.0831Y-3.0453
X6.0831Y-3.2008
X6.0896Y-3.3547
X6.0906Y-1.935
X6.0913Y-2.3203
X6.0945Y-4.2024
X6.0945Y-4.4114
X6.0945Y-4.752
X6.0965Y-3.7264
X6.099Y-4.0512
X6.1118Y-3.3946
X6.1127Y-3.3568
X6.1151Y-2.0503
X6.1185Y-3.5213
X6.1276Y-4.6972
X6.128Y-2.239
X6.1291Y-4.1626
X6.1315Y-4.1008
X6.1382Y-4.1382
X6.145Y-4.0407
X6.1453Y-4.0653
X6.1457Y-2.0547
X6.1561Y-2.2968
X6.1654Y-1.8299
X6.1667Y-2.3175
X6.1693Y-2.2409
X6.1693Y-5.0236
X6.1772Y-4.9902
X6.1826Y-2.2927
X6.1848Y-2.349
X6.189Y-2.8337
X6.1891Y-4.9489
X6.1953Y-2.2622
X6.1965Y-4.9209
X6.2013Y-2.3228
X6.2018Y-2.3947
X6.2087Y-1.8902
X6.2303Y-2.2953
X6.2707Y-2.4528
X6.2736Y-2.3287
X6.2744Y-1.913
X6.3189Y-1.8957
X6.3258Y-2.3287
X6.4183Y-2.2437
X6.4323Y-2.1411
X6.447Y-2.0763
X6.4537Y-2.1281
X6.4754Y-2.1063
X6.4852Y-1.9815
X6.5352Y-1.9539
X6.561Y-1.9715
X6.6339Y-3.5
X6.6526Y-2.1555
X6.6719Y-2.8113
X6.6732Y-4.3307
X6.6732Y-4.874
X6.7933Y-5.7067
X6.8583Y-5.8106
X6.8612Y-5.7654
X6.8762Y-5.7473
X6.883Y-5.7925
X6.9976Y-5.6781
X7.1161Y-5.7008
X7.2791Y-5.7028
X7.3996Y-5.7146
X7.5177Y-5.7146
X7.6358Y-5.7165
X7.7598Y-5.7165
X7.8819Y-5.7165
T2
X4.1862Y-4.295
X4.245Y-4.59
X4.245Y-4.625
X4.245Y-4.66
X4.245Y-4.705
X4.255Y-5.065
X4.2746Y-5.7766
X4.325Y-4.685
X4.3504Y-4.9296
X4.36Y-4.685
X4.3898Y-4.2264
X4.4Y-4.685
X4.41Y-4.64
X4.445Y-4.64
X4.515Y-4.64
X4.525Y-4.99
X4.5551Y-2.8858
X4.5669Y-3.4764
X4.5768Y-3.0531
X4.5778Y-3.0935
X4.5846Y-3.1594
X4.5906Y-2.9671
X4.6Y-4.99
X4.635Y-4.84
X4.69Y-5.02
X4.6982Y-2.7591
X4.7159Y-4.8132
X4.7392Y-2.0364
X4.74Y-4.92
X4.7503Y-2.2871
X4.7539Y-1.9528
X4.78Y-5.37
X4.811Y-2.1654
X4.9104Y-3.0433
X4.9232Y-3.9646
X4.9313Y-2.5084
X4.937Y-2.0669
X4.9407Y-3.2549
X4.9419Y-1.8927
X4.945Y-4.78
X4.9471Y-2.2969
X4.953Y-3.8054
X4.9543Y-3.8403
X4.9543Y-3.8836
X4.9543Y-3.9178
X4.9849Y-2.2918
X5.0118Y-2.2638
X5.0142Y-3.7564
X5.0266Y-4.402
X5.0382Y-2.2461
X5.061Y-2.2677
X5.0646Y-5.2312
X5.0921Y-2.2689
X5.0933Y-4.0531
X5.0957Y-2.5197
X5.1762Y-3.2963
X5.1851Y-3.1723
X5.1984Y-3.9724
X5.2077Y-4.2411
X5.2298Y-3.1491
X5.252Y-3.8602
X5.2733Y-3.1294
X5.2933Y-4.6654
X5.2951Y-3.1176
X5.3Y-5.179
X5.3145Y-4.05
X5.3228Y-4.2402
X5.335Y-5.31
X5.3435Y-3.3081
X5.3878Y-2.7953
X5.42Y-4.98
X5.4291Y-2.2736
X5.4555Y-2.2488
X5.4747Y-5.048
X5.5116Y-5.4528
X5.6148Y-5.2044
X5.6327Y-3.5334
X5.6575Y-2.0394
X5.675Y-4.91
X5.68Y-4.86
X5.6924Y-4.2973
X5.6978Y-2.0354
X5.7024Y-2.2232
X5.7048Y-4.467
X5.7067Y-2.0787
X5.7084Y-1.9625
X5.7122Y-1.987
X5.7157Y-2.4732
X5.7209Y-2.0535
X5.7212Y-2.1835
X5.7329Y-2.0187
X5.735Y-4.835
X5.7353Y-2.2039
X5.737Y-2.1012
X5.7377Y-5.1627
X5.7445Y-1.987
X5.7626Y-2.0223
X5.7632Y-2.1634
X5.7817Y-2.1282
X5.7851Y-5.025
X5.7866Y-2.0919
X5.7924Y-2.0282
X5.8114Y-2.1093
X6.1435Y-5.0563
X6.1732Y-1.9734
X6.27Y-4.85
X6.2831Y-3.8531
X6.3122Y-3.7339
X6.3161Y-4.9331
X6.3199Y-4.3878
X6.3199Y-4.4311
X6.33Y-3.615
X6.3445Y-4.9508
X6.355Y-4.2268
X6.3553Y-4.4104
X6.36Y-3.615
X6.3813Y-4.8707
X6.3848Y-4.3898
X6.3868Y-4.439
X6.39Y-3.615
X6.405Y-3.67
X6.4134Y-4.3455
X6.4163Y-4.4193
X6.42Y-3.615
X6.4429Y-4.3868
X6.4498Y-4.4557
X6.45Y-3.615
X6.4577Y-4.33
X6.46Y-1.8189
X6.4675Y-2.2972
X6.485Y-1.795
X6.4872Y-2.6713
X6.4892Y-4.3533
X6.4892Y-4.4213
X6.4921Y-2.9154
X6.4931Y-4.0207
X6.4975Y-2.0734
X6.499Y-4.2726
X6.501Y-5.7884
X6.5011Y-2.6346
X6.505Y-3.21
X6.5118Y-2.7726
X6.5128Y-2.0955
X6.515Y-3.04
X6.5182Y-2.5898
X6.5197Y-3.7539
X6.5226Y-2.6959
X6.5256Y-2.9419
X6.5295Y-2.8287
X6.5335Y-2.9026
X6.5394Y-4.3041
X6.5413Y-2.7913
X6.5423Y-4.4636
X6.5443Y-2.5777
X6.5492Y-4.3917
X6.5541Y-2.0945
X6.5581Y-4.2175
X6.56Y-2.96
X6.561Y-2.8494
X6.5659Y-2.9252
X6.5738Y-2.0453
X6.5866Y-2.8711
X6.59Y-3.61
X6.5935Y-4.1043
X6.6004Y-3.9341
X6.6033Y-2.0709
X6.6043Y-2.9134
X6.6043Y-3.0522
X6.6063Y-2.9587
X6.615Y-3.0
X6.6189Y-3.5405
X6.623Y-4.437
X6.626Y-4.3553
X6.6299Y-4.189
X6.6299Y-4.2766
X6.6315Y-4.8789
X6.6319Y-2.0709
X6.6339Y-2.124
X6.6437Y-5.5039
X6.6457Y-4.1122
X6.66Y-2.0844
X6.6845Y-5.5645
X6.689Y-2.1004
X6.69Y-4.0226
X6.6929Y-4.1457
X6.6988Y-4.0984
X6.7106Y-4.0492
X6.7197Y-2.079
X6.7254Y-4.0226
X6.727Y-4.928
X6.7291Y-2.8078
X6.7307Y-2.1626
X6.7441Y-1.9705
X6.7461Y-1.8386
X6.7469Y-5.0402
X6.7469Y-4.8747
X6.7472Y-4.9076
X6.7511Y-2.8391
X6.7599Y-2.6955
X6.76Y-3.325
X6.7629Y-4.9795
X6.7697Y-2.6685
X6.7707Y-2.8603
X6.7825Y-4.1644
X6.7837Y-2.9016
X6.785Y-3.0177
X6.7874Y-4.0197
X6.7882Y-4.2801
X6.7885Y-2.6468
X6.7933Y-4.0748
X6.8051Y-2.2224
X6.8059Y-2.9535
X6.8071Y-2.1063
X6.8082Y-3.9037
X6.8091Y-3.6486
X6.8091Y-3.6801
X6.8159Y-3.9685
X6.8172Y-2.6457
X6.8245Y-4.0539
X6.8278Y-5.5177
X6.8287Y-5.625
X6.8297Y-5.3711
X6.8317Y-5.4154
X6.8321Y-4.212
X6.8327Y-5.189
X6.8327Y-5.565
X6.8337Y-5.253
X6.8356Y-5.4705
X6.8366Y-2.4567
X6.8366Y-2.4843
X6.8366Y-2.5118
X6.8376Y-5.3002
X6.8386Y-2.5394
X6.8442Y-4.1704
X6.8488Y-4.1362
X6.8632Y-5.3346
X6.8642Y-2.4567
X6.8642Y-2.4843
X6.8642Y-2.5118
X6.8642Y-5.503
X6.8642Y-5.5935
X6.865Y-5.65
X6.8652Y-5.5472
X6.8661Y-2.5394
X6.8661Y-5.2746
X6.8661Y-5.4439
X6.8681Y-5.2274
X6.8691Y-5.4006
X6.8819Y-4.5236
X6.8858Y-4.6496
X6.8858Y-4.8839
X6.8967Y-5.2539
X6.8967Y-5.2923
X6.8996Y-4.5
X6.9016Y-2.3031
X6.9016Y-5.126
X6.9026Y-5.4262
X6.9035Y-2.3425
X6.9035Y-5.5236
X6.9055Y-4.6752
X6.9065Y-5.4744
X6.9065Y-5.623
X6.9075Y-5.5709
X6.9114Y-3.1181
X6.9154Y-2.6437
X6.9193Y-4.5236
X6.9213Y-2.1575
X6.9232Y-2.1181
X6.9232Y-2.2126
X6.9252Y-4.6496
X6.9272Y-1.9311
X6.9272Y-2.3701
X6.9337Y-2.9062
X6.9348Y-4.1866
X6.939Y-2.187
X6.9409Y-3.0709
X6.9429Y-2.9508
X6.9429Y-4.7441
X6.9449Y-3.0394
X6.9449Y-4.1575
X6.9459Y-1.9498
X6.9488Y-2.1398
X6.9488Y-2.9882
X6.9547Y-4.5433
X6.9557Y-2.7234
X6.9587Y-4.6299
X6.9626Y-2.3701
X6.9626Y-3.1713
X6.9665Y-2.8898
X6.9665Y-2.9232
X6.9685Y-4.5886
X6.9724Y-1.935
X6.9724Y-2.2067
X6.9744Y-2.1654
X6.9783Y-2.1161
X6.9783Y-4.3287
X6.9862Y-2.7382
X6.9921Y-2.9744
X6.9921Y-4.4311
X6.9961Y-2.9272
X6.9996Y-4.0335
X7.0Y-2.2736
X7.0Y-2.8917
X7.0Y-5.3642
X7.002Y-2.1909
X7.002Y-4.937
X7.0039Y-2.1417
X7.0138Y-5.4055
X7.0177Y-4.9606
X7.0217Y-5.2303
X7.0236Y-2.1693
X7.0236Y-2.9528
X7.0236Y-3.065
X7.0236Y-5.1831
X7.0256Y-2.5945
X7.0276Y-1.8287
X7.0276Y-2.1181
X7.0276Y-2.9862
X7.0295Y-2.9154
X7.0295Y-5.0413
X7.0315Y-2.2795
X7.0335Y-2.2047
X7.0413Y-4.0315
X7.0413Y-4.9665
X7.0453Y-1.8012
X7.0472Y-3.0531
X7.0512Y-2.1476
X7.0531Y-2.6102
X7.0551Y-2.1811
X7.0571Y-5.2126
X7.0591Y-2.8898
X7.061Y-2.9409
X7.063Y-1.9331
X7.063Y-2.9783
X7.063Y-5.4075
X7.0669Y-1.8327
X7.0689Y-2.2795
X7.0689Y-3.0689
X7.0709Y-2.1201
X7.0709Y-2.5906
X7.0748Y-2.376
X7.0807Y-5.0217
X7.0827Y-2.2067
X7.0827Y-5.1831
X7.0846Y-2.1575
X7.0846Y-5.0531
X7.0945Y-1.8051
X7.0945Y-2.8976
X7.0945Y-2.935
X7.0965Y-1.9311
X7.0984Y-3.1654
X7.0984Y-5.2146
X7.1024Y-2.748
X7.1024Y-2.9724
X7.1024Y-4.5472
X7.1043Y-2.1319
X7.1063Y-2.185
X7.1063Y-2.376
X7.1063Y-5.2992
X7.1142Y-2.7224
X7.1142Y-4.5965
X7.1142Y-5.0374
X7.1161Y-3.185
X7.1201Y-5.185
X7.122Y-2.9213
X7.124Y-1.9272
X7.126Y-5.2776
X7.128Y-4.2441
X7.1319Y-2.1575
X7.1319Y-2.2126
X7.1319Y-2.8878
X7.1319Y-4.1594
X7.1319Y-4.378
X7.1319Y-4.4291
X7.1337Y-2.3698
X7.1339Y-2.1181
X7.1339Y-4.8307
X7.1358Y-5.2146
X7.1378Y-2.9606
X7.1378Y-2.9902
X7.1398Y-3.1713
X7.1417Y-2.7362
X7.1417Y-5.0157
X7.1441Y-1.8055
X7.1457Y-4.5945
X7.1476Y-5.0492
X7.1496Y-5.2972
X7.1516Y-4.8543
X7.1567Y-4.1843
X7.1575Y-2.6142
X7.1594Y-2.187
X7.1594Y-4.1555
X7.1614Y-5.1831
X7.1673Y-4.2461
X7.1673Y-4.3484
X7.1673Y-4.4094
X7.1693Y-2.1299
X7.1713Y-2.8917
X7.1732Y-1.9862
X7.1752Y-2.9213
X7.1752Y-4.8287
X7.1772Y-2.1594
X7.1772Y-4.9547
X7.1772Y-5.2185
X7.1791Y-2.9606
X7.1791Y-5.0315
X7.1811Y-2.2815
X7.1831Y-1.8209
X7.185Y-4.3799
X7.185Y-5.4075
X7.189Y-3.0846
X7.1909Y-2.9941
X7.1929Y-2.2067
X7.1929Y-2.6122
X7.1929Y-3.0571
X7.1969Y-2.7902
X7.1988Y-5.185
X7.2008Y-4.9705
X7.2028Y-2.1358
X7.2047Y-2.2776
X7.2047Y-2.4331
X7.2067Y-2.1713
X7.2067Y-4.3484
X7.2067Y-4.4075
X7.2067Y-5.3957
X7.2087Y-5.2165
X7.2106Y-1.811
X7.2106Y-1.9862
X7.2106Y-2.4862
X7.2106Y-2.9547
X7.2106Y-4.2461
X7.2106Y-2.5453
X7.2126Y-5.0118
X7.2165Y-2.0689
X7.2165Y-4.9488
X7.2185Y-3.0846
X7.2205Y-4.4744
X7.2224Y-2.6024
X7.2224Y-4.0531
X7.2224Y-4.5079
X7.2244Y-5.0531
X7.2244Y-5.4213
X7.2264Y-2.2047
X7.2264Y-2.4449
X7.2264Y-4.3799
X7.2283Y-2.2776
X7.2284Y-2.7872
X7.2343Y-5.189
X7.2362Y-2.9902
X7.2363Y-2.048
X7.2421Y-2.1594
X7.2421Y-5.2323
X7.2461Y-4.2461
X7.248Y-1.9902
X7.248Y-4.3484
X7.2491Y-2.826
X7.25Y-2.4449
X7.25Y-2.937
X7.252Y-4.4075
X7.252Y-5.0276
X7.2539Y-4.0413
X7.2539Y-4.498
X7.2539Y-5.1083
X7.2579Y-2.0248
X7.2579Y-2.0787
X7.2579Y-4.8406
X7.2637Y-2.8695
X7.2638Y-1.7382
X7.2638Y-2.1102
X7.2677Y-4.376
X7.2697Y-2.8976
X7.2697Y-5.2992
X7.2717Y-3.2126
X7.2717Y-5.2106
X7.2736Y-2.4449
X7.2776Y-2.8346
X7.2835Y-3.2382
X7.2835Y-4.0413
X7.2835Y-4.2461
X7.2854Y-4.1673
X7.2854Y-5.0098
X7.2874Y-3.3524
X7.2885Y-5.1153
X7.2913Y-1.7382
X7.2913Y-4.3484
X7.2913Y-4.4055
X7.2913Y-4.6102
X7.2913Y-4.8445
X7.2933Y-5.2835
X7.2953Y-5.1811
X7.2972Y-2.6555
X7.2972Y-2.687
X7.2992Y-3.2185
X7.3051Y-1.6004
X7.3051Y-4.5906
X7.311Y-4.1575
X7.311Y-4.376
X7.313Y-2.5413
X7.313Y-3.2382
X7.315Y-5.1024
X7.3169Y-2.5138
X7.3169Y-5.2972
X7.3189Y-1.7382
X7.3189Y-4.8406
X7.3189Y-5.002
X7.3228Y-3.3524
X7.3268Y-4.6102
X7.3287Y-4.248
X7.3287Y-5.1791
X7.3327Y-4.3465
X7.3335Y-4.1843
X7.3366Y-2.5394
X7.3366Y-4.4075
X7.3406Y-2.5098
X7.3425Y-1.6142
X7.3504Y-1.7382
X7.3543Y-1.6457
X7.3543Y-1.7067
X7.3543Y-5.0059
X7.3563Y-4.376
X7.3581Y-5.1034
X7.3602Y-4.0433
X7.3622Y-1.6752
X7.3622Y-3.3524
X7.3622Y-4.6732
X7.3622Y-5.1319
X7.3701Y-1.9862
X7.372Y-4.4862
X7.376Y-4.3465
X7.3816Y-4.2409
X7.3819Y-4.4075
X7.3839Y-2.5059
X7.3845Y-4.302
X7.3858Y-2.6476
X7.3858Y-2.6713
X7.3878Y-2.6988
X7.3878Y-3.3307
X7.3917Y-4.0413
X7.3917Y-5.5827
X7.3937Y-4.4665
X7.3976Y-4.374
X7.3976Y-4.6732
X7.3996Y-2.5295
X7.4016Y-3.3031
X7.4094Y-1.9902
X7.4094Y-4.4902
X7.4134Y-2.5059
X7.4154Y-4.3504
X7.4173Y-2.1083
X7.4173Y-4.4016
X7.4173Y-4.302
X7.4193Y-4.0413
X7.4195Y-4.2374
X7.4232Y-5.5886
X7.4272Y-2.5295
X7.4429Y-2.5059
X7.4469Y-2.0248
X7.4469Y-4.7697
X7.4488Y-2.1713
X7.4508Y-1.7303
X7.4508Y-4.7008
X7.4537Y-1.6988
X7.4567Y-4.3051
X7.4571Y-4.3342
X7.4587Y-2.5295
X7.4587Y-3.2185
X7.4587Y-3.8799
X7.4587Y-5.5827
X7.4587Y-4.3629
X7.4646Y-2.0098
X7.4685Y-2.0492
X7.4705Y-2.5059
X7.4724Y-5.4961
X7.4744Y-3.2441
X7.4764Y-5.5551
X7.4813Y-1.7146
X7.4823Y-4.6988
X7.4843Y-2.0248
X7.4843Y-5.5276
X7.4862Y-3.2185
X7.4862Y-3.878
X7.502Y-3.2441
X7.502Y-5.5492
X7.5039Y-2.0492
X7.5079Y-5.502
X7.5098Y-2.0248
X7.5118Y-1.687
X7.5118Y-3.878
X7.5128Y-1.7126
X7.5138Y-1.7382
X7.5138Y-3.2185
X7.5138Y-5.1339
X7.5217Y-5.4764
X7.5315Y-2.0492
X7.5335Y-3.2441
X7.5354Y-4.7106
X7.5394Y-2.0248
X7.5394Y-5.2697
X7.5413Y-3.2185
X7.5433Y-3.878
X7.5433Y-4.6299
X7.5453Y-3.9134
X7.5453Y-4.9587
X7.5453Y-5.4567
X7.5482Y-1.7126
X7.5492Y-4.0217
X7.5492Y-5.4882
X7.5571Y-4.6024
X7.5591Y-2.0472
X7.565Y-3.2441
X7.565Y-4.0
X7.5669Y-2.0248
X7.5689Y-5.4311
X7.5719Y-1.6988
X7.5728Y-4.6299
X7.5748Y-1.7283
X7.5748Y-5.4665
X7.5768Y-3.878
X7.5768Y-3.9114
X7.5787Y-4.0217
X7.5886Y-4.6004
X7.5906Y-4.6555
X7.5945Y-4.0
X7.5945Y-5.4055
X7.6024Y-2.3878
X7.6024Y-5.4409
X7.6043Y-2.5079
X7.6043Y-3.878
X7.6043Y-3.9114
X7.6043Y-4.628
X7.6083Y-4.0236
X7.6122Y-4.2402
X7.6181Y-4.6004
X7.624Y-3.998
X7.628Y-5.4154
X7.6299Y-2.5079
X7.6319Y-2.3878
X7.6339Y-4.628
X7.6358Y-4.0217
X7.6437Y-4.7913
X7.6457Y-4.7343
X7.6457Y-4.7638
X7.6535Y-2.5098
X7.6555Y-2.3898
X7.6575Y-4.5197
X7.6575Y-4.5453
X7.6654Y-4.4862
X7.6752Y-2.5079
X7.6811Y-2.3917
X7.6909Y-4.4724
X7.7106Y-4.4488
X7.7106Y-4.7874
X7.7126Y-4.748
X7.7224Y-4.4744
X7.7539Y-4.5315
X7.7559Y-4.561
X7.7874Y-1.8799
X7.7884Y-1.7785
X7.7894Y-1.8081
X7.7982Y-2.5453
X7.7982Y-4.6378
X7.8012Y-5.5541
X7.8022Y-2.5738
X7.8022Y-5.5837
X7.8022Y-5.6171
X7.8031Y-5.5285
X7.8278Y-4.6378
X7.8327Y-4.6004
X7.8396Y-3.877
X7.8406Y-4.7067
X7.8543Y-2.497
X7.8622Y-4.8248
X7.8652Y-3.253
X7.8671Y-3.878
X7.8671Y-4.6368
X7.876Y-4.7047
X7.8976Y-3.251
X7.8996Y-4.8287
X7.9075Y-4.7087
X7.9213Y-4.7776
X7.9232Y-4.7461
X7.9793Y-4.7156
X7.9803Y-4.7431
X8.0059Y-4.7283
X8.0689Y-3.2579
X8.0787Y-3.8986
X8.0994Y-3.2569
X8.1122Y-2.5059
X8.1152Y-2.5689
X8.1181Y-3.9144
T3
X4.25Y-5.4744
X4.265Y-5.27
X4.3669Y-5.2822
X4.38Y-2.51
X4.38Y-2.58
X4.38Y-2.64
X4.39Y-5.145
X4.4587Y-3.0404
X4.48Y-4.64
X4.5236Y-1.5807
X4.5969Y-3.4429
X4.6152Y-3.2833
X4.6444Y-5.1447
X4.6526Y-2.4154
X4.6676Y-2.2463
X4.6904Y-2.5951
X4.6929Y-1.7933
X4.6949Y-2.4124
X4.7014Y-2.2443
X4.81Y-2.0817
X4.83Y-4.72
X4.8425Y-1.8878
X4.8445Y-1.9646
X4.8645Y-4.7154
X4.8839Y-1.5787
X4.9009Y-4.7165
X4.9213Y-3.6024
X4.9311Y-5.1398
X4.9593Y-3.4941
X5.0079Y-1.8228
X5.0236Y-1.9272
X5.0827Y-1.9687
X5.09Y-3.978
X5.0933Y-2.3411
X5.2037Y-4.7047
X5.2037Y-4.7293
X5.2272Y-5.1378
X5.2303Y-1.5833
X5.2354Y-4.7232
X5.2781Y-1.9389
X5.295Y-5.335
X5.3376Y-1.9648
X5.3524Y-3.8524
X5.3642Y-1.8248
X5.374Y-1.874
X5.4071Y-4.4574
X5.4232Y-5.0482
X5.5111Y-1.8004
X5.5292Y-1.8251
X5.5846Y-1.5768
X5.5915Y-4.4941
X5.6122Y-4.3622
X5.6171Y-4.2953
X5.7835Y-1.6047
X5.813Y-4.8917
X5.8287Y-2.4547
X5.8287Y-2.7736
X5.8289Y-3.7973
X5.8397Y-1.8819
X5.8401Y-4.1265
X5.8404Y-4.8178
X5.8484Y-2.0036
X5.8579Y-3.6118
X5.861Y-3.085
X5.8616Y-3.459
X5.8707Y-4.6838
X5.8711Y-2.5856
X5.8711Y-4.0089
X5.8718Y-2.2816
X5.8747Y-2.9254
X5.8774Y-4.4083
X5.9032Y-3.2068
X5.937Y-1.5876
X5.9481Y-4.3559
X5.9744Y-5.0906
X5.9921Y-1.8504
X6.105Y-5.52
X6.11Y-5.345
X6.2126Y-3.375
X6.2126Y-3.4222
X6.2372Y-3.4715
X6.2402Y-3.3986
X6.2402Y-3.4419
X6.252Y-3.0581
X6.2707Y-3.0984
X6.2717Y-3.376
X6.2756Y-3.2126
X6.2756Y-3.4222
X6.2854Y-1.5852
X6.2943Y-3.185
X6.3012Y-2.7343
X6.3012Y-2.7618
X6.3012Y-2.7943
X6.3012Y-2.8258
X6.3095Y-2.8588
X6.3115Y-2.6993
X6.312Y-2.6211
X6.3194Y-3.1599
X6.3296Y-1.8581
X6.3435Y-2.6211
X6.3654Y-3.3653
X6.3691Y-2.6211
X6.4077Y-3.3653
X6.4262Y-1.8189
X6.4491Y-3.3653
X6.4914Y-3.3544
X6.6693Y-1.5852
X7.0768Y-3.4114
X7.0768Y-3.4429
X7.0787Y-3.4783
X7.0787Y-3.689
X7.0807Y-3.622
X7.0807Y-3.6555
X7.0807Y-3.7244
X7.0807Y-3.7598
X7.1909Y-3.4783
X7.1929Y-3.4469
X7.1949Y-3.4134
X7.1949Y-3.7244
X7.1949Y-3.7539
X7.1969Y-3.624
X7.1969Y-3.6575
X7.1988Y-3.6909
X7.435Y-3.3583
X7.435Y-3.3878
X7.435Y-3.4193
X7.435Y-3.4508
X7.435Y-3.6949
X7.437Y-3.4862
X7.437Y-3.628
X7.437Y-3.6614
X7.437Y-3.7303
X7.437Y-3.7657
X7.5472Y-3.3543
X7.5492Y-3.3878
X7.5492Y-3.4862
X7.5512Y-3.4547
X7.5512Y-3.7303
X7.5512Y-3.7598
X7.5531Y-3.4213
X7.5531Y-3.6299
X7.5531Y-3.6634
X7.5551Y-3.6969
T4
X5.6565Y-5.5738
X5.6604Y-5.3691
X5.6745Y-5.5226
X5.6773Y-5.4176
X5.68Y-5.6228
X5.6828Y-5.3229
X5.7234Y-5.44
X5.7234Y-5.499
X5.7313Y-5.3061
X5.7313Y-5.6407
X5.7719Y-5.4231
X5.7747Y-5.517
X5.7775Y-5.3285
X5.7803Y-5.6172
X5.7943Y-5.377
X5.7982Y-5.5659
X5.8898Y-5.5748
X5.8937Y-5.3701
X5.9077Y-5.5235
X5.9105Y-5.4186
X5.9133Y-5.6238
X5.9161Y-5.3239
X5.9567Y-5.4409
X5.9567Y-5.5
X5.9646Y-5.3071
X5.9646Y-5.6417
X6.0052Y-5.4241
X6.008Y-5.518
X6.0107Y-5.3295
X6.0135Y-5.6182
X6.0276Y-5.378
X6.0315Y-5.5669
X6.3051Y-5.5866
X6.3091Y-5.3819
X6.3231Y-5.5354
X6.3259Y-5.4304
X6.3287Y-5.6356
X6.3314Y-5.3357
X6.372Y-5.4528
X6.372Y-5.5118
X6.3799Y-5.3189
X6.3799Y-5.6535
X6.4205Y-5.4359
X6.4233Y-5.5298
X6.4261Y-5.3413
X6.4289Y-5.63
X6.4291Y-3.7884
X6.4291Y-3.8356
X6.4291Y-3.8868
X6.4291Y-3.9301
X6.4429Y-5.3898
X6.4469Y-5.5787
X6.4764Y-3.7884
X6.4764Y-3.8356
X6.4764Y-3.8868
X6.4764Y-3.9301
X7.8799Y-3.4783
X7.8839Y-3.6673
X7.8979Y-3.4271
X7.9007Y-3.7158
X7.9035Y-3.5273
X7.9062Y-3.6211
X7.9469Y-3.4035
X7.9469Y-3.7382
X7.9547Y-3.5453
X7.9547Y-3.6043
X7.9953Y-3.7214
X7.9981Y-3.4215
X8.0009Y-3.6267
X8.0037Y-3.5217
X8.0177Y-3.6752
X8.0217Y-3.4705
T5
X4.7797Y-3.1992
X4.7797Y-3.2492
X4.7797Y-3.2992
X4.7797Y-3.3492
X4.7797Y-3.3992
X4.8297Y-3.1992
X4.8297Y-3.2492
X4.8297Y-3.2992
X4.8297Y-3.3492
X4.8297Y-3.3992
T6
X4.6161Y-3.6969
X4.6161Y-3.7969
X4.6161Y-3.8969
X4.6161Y-3.9969
X4.7161Y-3.7465
X4.7161Y-3.8465
X4.7161Y-3.9465
X4.7161Y-4.0465
T7
X4.4291Y-2.0315
X4.4646Y-2.4803
X4.4646Y-2.5787
X4.5079Y-2.0315
X4.5433Y-2.4803
X4.5433Y-2.5787
X4.5866Y-2.0315
X4.6654Y-2.0315
T8
X4.0413Y-4.3917
X4.0413Y-4.5689
T9
X4.8041Y-4.9862
X4.9041Y-4.9862
X5.0248Y-5.4094
X5.1248Y-5.4094
X5.2618Y-4.9813
X5.2772Y-2.1598
X5.3516Y-5.4094
X5.3618Y-4.9813
X5.3772Y-2.1598
X5.4516Y-5.4094
X5.4772Y-2.1598
X5.8937Y-5.1752
X5.9937Y-5.1752
X6.3169Y-5.1732
X6.374Y-2.5039
X6.4169Y-5.1732
X6.474Y-2.5039
X7.7843Y-4.0843
X7.7843Y-4.1843
X7.7843Y-4.2843
X7.7843Y-4.3843
X7.7909Y-5.0189
X7.7909Y-5.1189
X7.7909Y-5.2189
X7.7909Y-5.3189
X7.8024Y-2.7024
X7.8024Y-2.8024
X7.8024Y-2.9024
X7.8024Y-3.0024
X7.828Y-2.0134
X7.828Y-2.1134
X7.828Y-2.2134
X7.828Y-2.3134
X8.0843Y-4.0843
X8.0843Y-4.1843
X8.0843Y-4.2843
X8.0843Y-4.3843
X8.0909Y-5.0189
X8.0909Y-5.1189
X8.0909Y-5.2189
X8.0909Y-5.3189
X8.1024Y-2.7024
X8.1024Y-2.8024
X8.1024Y-2.9024
X8.1024Y-3.0024
X8.128Y-2.0134
X8.128Y-2.1134
X8.128Y-2.2134
X8.128Y-2.3134
X8.1516Y-3.5315
X8.1516Y-3.6315
T10
X4.1728Y-3.6108
X4.1728Y-3.7108
X4.1728Y-4.0325
X4.1728Y-4.1325
T11
X4.126Y-4.7957
X4.126Y-4.8957
X4.126Y-5.0476
X4.126Y-5.1476
X4.128Y-5.3016
X4.128Y-5.4016
X4.4122Y-1.6969
X4.4472Y-5.5846
X4.5122Y-1.6969
X4.5472Y-5.5846
X4.6122Y-1.6969
X4.7091Y-5.5846
X4.7646Y-1.6969
X4.8091Y-5.5846
X4.8646Y-1.6969
X4.9646Y-1.6969
X5.115Y-1.6969
X5.215Y-1.6969
X5.315Y-1.6969
X5.4654Y-1.6969
X5.5654Y-1.6969
X5.6654Y-1.6969
X5.8157Y-1.6969
X5.9157Y-1.6969
X6.0157Y-1.6969
X6.1642Y-1.6969
X6.2642Y-1.6969
X6.3642Y-1.6969
X6.5169Y-1.628
X6.6169Y-1.628
X6.7169Y-1.628
X6.8169Y-1.628
T12
X4.1394Y-4.3421
X4.1394Y-4.6181
X4.3366Y-4.4508
X4.4744Y-4.4508
X4.6949Y-4.4508
X4.8327Y-4.4508
T13
X4.4004Y-1.9244
X4.4004Y-2.1386
X4.676Y-1.9244
X4.676Y-2.1386
X5.0059Y-5.5844
X5.1437Y-5.5844
X5.3327Y-5.5844
X5.4705Y-5.5844
X7.9843Y-4.0276
X7.9843Y-4.1654
X7.9843Y-4.3031
X7.9843Y-4.4409
X7.9909Y-4.9622
X7.9909Y-5.1
X7.9909Y-5.2378
X7.9909Y-5.3756
X8.0024Y-2.6457
X8.0024Y-2.7835
X8.0024Y-2.9213
X8.0024Y-3.0591
X8.028Y-1.9567
X8.028Y-2.0945
X8.028Y-2.2323
X8.028Y-2.3701
T14
X4.4858Y-3.5667
X4.4858Y-4.1766
T15
X4.3579Y-2.2925
X4.3579Y-2.7665
T16
X5.7274Y-5.373
X5.7274Y-5.5699
X5.9606Y-5.374
X5.9606Y-5.5709
X6.376Y-5.3858
X6.376Y-5.5827
X7.9508Y-3.4744
X7.9508Y-3.6713
T17
X4.1272Y-1.6941
X4.1272Y-5.6311
M30
