G04 #@! TF.GenerationSoftware,KiCad,Pcbnew,8.0.3-8.0.3-0~ubuntu20.04.1*
G04 #@! TF.CreationDate,2024-06-26T21:45:41-07:00*
G04 #@! TF.ProjectId,smoothiev2-prime-2660,736d6f6f-7468-4696-9576-322d7072696d,rev?*
G04 #@! TF.SameCoordinates,Original*
G04 #@! TF.FileFunction,Soldermask,Top*
G04 #@! TF.FilePolarity,Negative*
%FSLAX46Y46*%
G04 Gerber Fmt 4.6, Leading zero omitted, Abs format (unit mm)*
G04 Created by KiCad (PCBNEW 8.0.3-8.0.3-0~ubuntu20.04.1) date 2024-06-26 21:45:41*
%MOMM*%
%LPD*%
G01*
G04 APERTURE LIST*
G04 Aperture macros list*
%AMRoundRect*
0 Rectangle with rounded corners*
0 $1 Rounding radius*
0 $2 $3 $4 $5 $6 $7 $8 $9 X,Y pos of 4 corners*
0 Add a 4 corners polygon primitive as box body*
4,1,4,$2,$3,$4,$5,$6,$7,$8,$9,$2,$3,0*
0 Add four circle primitives for the rounded corners*
1,1,$1+$1,$2,$3*
1,1,$1+$1,$4,$5*
1,1,$1+$1,$6,$7*
1,1,$1+$1,$8,$9*
0 Add four rect primitives between the rounded corners*
20,1,$1+$1,$2,$3,$4,$5,0*
20,1,$1+$1,$4,$5,$6,$7,0*
20,1,$1+$1,$6,$7,$8,$9,0*
20,1,$1+$1,$8,$9,$2,$3,0*%
%AMFreePoly0*
4,1,6,1.000000,0.000000,0.500000,-0.750000,-0.500000,-0.750000,-0.500000,0.750000,0.500000,0.750000,1.000000,0.000000,1.000000,0.000000,$1*%
%AMFreePoly1*
4,1,6,0.500000,-0.750000,-0.650000,-0.750000,-0.150000,0.000000,-0.650000,0.750000,0.500000,0.750000,0.500000,-0.750000,0.500000,-0.750000,$1*%
G04 Aperture macros list end*
%ADD10C,0.002540*%
%ADD11R,1.600000X1.600000*%
%ADD12C,1.600000*%
%ADD13C,2.150000*%
%ADD14C,0.325000*%
%ADD15RoundRect,0.140000X0.170000X-0.140000X0.170000X0.140000X-0.170000X0.140000X-0.170000X-0.140000X0*%
%ADD16RoundRect,0.225000X-0.225000X-0.250000X0.225000X-0.250000X0.225000X0.250000X-0.225000X0.250000X0*%
%ADD17RoundRect,0.140000X-0.140000X-0.170000X0.140000X-0.170000X0.140000X0.170000X-0.140000X0.170000X0*%
%ADD18RoundRect,0.135000X0.135000X0.185000X-0.135000X0.185000X-0.135000X-0.185000X0.135000X-0.185000X0*%
%ADD19RoundRect,0.135000X0.185000X-0.135000X0.185000X0.135000X-0.185000X0.135000X-0.185000X-0.135000X0*%
%ADD20RoundRect,0.135000X-0.185000X0.135000X-0.185000X-0.135000X0.185000X-0.135000X0.185000X0.135000X0*%
%ADD21R,0.900000X0.400000*%
%ADD22RoundRect,0.062500X0.062500X-0.350000X0.062500X0.350000X-0.062500X0.350000X-0.062500X-0.350000X0*%
%ADD23RoundRect,0.062500X0.350000X-0.062500X0.350000X0.062500X-0.350000X0.062500X-0.350000X-0.062500X0*%
%ADD24R,2.600000X2.600000*%
%ADD25C,3.250000*%
%ADD26RoundRect,0.250500X-0.499500X0.499500X-0.499500X-0.499500X0.499500X-0.499500X0.499500X0.499500X0*%
%ADD27C,1.500000*%
%ADD28C,2.500000*%
%ADD29RoundRect,0.140000X-0.170000X0.140000X-0.170000X-0.140000X0.170000X-0.140000X0.170000X0.140000X0*%
%ADD30RoundRect,0.135000X-0.135000X-0.185000X0.135000X-0.185000X0.135000X0.185000X-0.135000X0.185000X0*%
%ADD31R,1.700000X1.700000*%
%ADD32C,1.700000*%
%ADD33C,3.500000*%
%ADD34RoundRect,0.150000X-0.650000X-0.150000X0.650000X-0.150000X0.650000X0.150000X-0.650000X0.150000X0*%
%ADD35O,5.000000X2.500000*%
%ADD36RoundRect,0.218750X0.256250X-0.218750X0.256250X0.218750X-0.256250X0.218750X-0.256250X-0.218750X0*%
%ADD37R,0.400000X0.650000*%
%ADD38RoundRect,0.249996X-0.700004X1.825004X-0.700004X-1.825004X0.700004X-1.825004X0.700004X1.825004X0*%
%ADD39C,0.600000*%
%ADD40C,4.500000*%
%ADD41O,1.700000X1.700000*%
%ADD42R,0.630000X0.500000*%
%ADD43R,0.950000X1.230000*%
%ADD44O,2.500000X5.000000*%
%ADD45R,0.500000X0.630000*%
%ADD46R,1.230000X0.950000*%
%ADD47RoundRect,0.249999X0.620001X0.845001X-0.620001X0.845001X-0.620001X-0.845001X0.620001X-0.845001X0*%
%ADD48O,1.740000X2.190000*%
%ADD49RoundRect,0.100000X-0.100000X0.637500X-0.100000X-0.637500X0.100000X-0.637500X0.100000X0.637500X0*%
%ADD50RoundRect,0.218750X0.218750X0.256250X-0.218750X0.256250X-0.218750X-0.256250X0.218750X-0.256250X0*%
%ADD51R,0.650000X0.400000*%
%ADD52RoundRect,0.249999X0.845001X-0.620001X0.845001X0.620001X-0.845001X0.620001X-0.845001X-0.620001X0*%
%ADD53O,2.190000X1.740000*%
%ADD54RoundRect,0.200000X-0.200000X-0.275000X0.200000X-0.275000X0.200000X0.275000X-0.200000X0.275000X0*%
%ADD55RoundRect,0.140000X0.140000X0.170000X-0.140000X0.170000X-0.140000X-0.170000X0.140000X-0.170000X0*%
%ADD56RoundRect,0.100000X0.100000X-0.637500X0.100000X0.637500X-0.100000X0.637500X-0.100000X-0.637500X0*%
%ADD57R,1.060000X0.650000*%
%ADD58RoundRect,0.225000X-0.250000X0.225000X-0.250000X-0.225000X0.250000X-0.225000X0.250000X0.225000X0*%
%ADD59R,0.740000X2.400000*%
%ADD60R,1.000000X1.000000*%
%ADD61O,1.000000X1.000000*%
%ADD62RoundRect,0.147500X0.172500X-0.147500X0.172500X0.147500X-0.172500X0.147500X-0.172500X-0.147500X0*%
%ADD63C,2.100000*%
%ADD64C,1.750000*%
%ADD65R,1.200000X1.400000*%
%ADD66R,1.800000X1.000000*%
%ADD67RoundRect,0.225000X0.225000X0.250000X-0.225000X0.250000X-0.225000X-0.250000X0.225000X-0.250000X0*%
%ADD68RoundRect,0.250000X0.850000X-0.375000X0.850000X0.375000X-0.850000X0.375000X-0.850000X-0.375000X0*%
%ADD69C,3.200000*%
%ADD70C,6.400000*%
%ADD71R,0.900000X0.800000*%
%ADD72C,2.600000*%
%ADD73RoundRect,0.250000X0.475000X-0.250000X0.475000X0.250000X-0.475000X0.250000X-0.475000X-0.250000X0*%
%ADD74RoundRect,0.249999X-0.650001X0.325001X-0.650001X-0.325001X0.650001X-0.325001X0.650001X0.325001X0*%
%ADD75RoundRect,0.250000X0.250000X0.475000X-0.250000X0.475000X-0.250000X-0.475000X0.250000X-0.475000X0*%
%ADD76RoundRect,0.250000X-0.250000X-0.475000X0.250000X-0.475000X0.250000X0.475000X-0.250000X0.475000X0*%
%ADD77RoundRect,0.250000X-0.475000X0.250000X-0.475000X-0.250000X0.475000X-0.250000X0.475000X0.250000X0*%
%ADD78R,0.650000X1.060000*%
%ADD79RoundRect,0.147500X-0.147500X-0.172500X0.147500X-0.172500X0.147500X0.172500X-0.147500X0.172500X0*%
%ADD80RoundRect,0.147500X0.147500X0.172500X-0.147500X0.172500X-0.147500X-0.172500X0.147500X-0.172500X0*%
%ADD81RoundRect,0.147500X-0.172500X0.147500X-0.172500X-0.147500X0.172500X-0.147500X0.172500X0.147500X0*%
%ADD82R,0.800000X0.900000*%
%ADD83R,0.900000X1.000000*%
%ADD84C,1.000000*%
%ADD85RoundRect,0.175000X-0.475000X-0.175000X0.475000X-0.175000X0.475000X0.175000X-0.475000X0.175000X0*%
%ADD86RoundRect,0.300000X-0.400000X-0.300000X0.400000X-0.300000X0.400000X0.300000X-0.400000X0.300000X0*%
%ADD87RoundRect,0.300000X-0.700000X-0.300000X0.700000X-0.300000X0.700000X0.300000X-0.700000X0.300000X0*%
%ADD88R,0.600000X0.450000*%
%ADD89R,2.500000X1.800000*%
%ADD90R,3.400000X2.000000*%
%ADD91R,1.550000X0.600000*%
%ADD92R,2.600000X3.100000*%
%ADD93RoundRect,0.250000X-0.375000X-0.850000X0.375000X-0.850000X0.375000X0.850000X-0.375000X0.850000X0*%
%ADD94R,0.400000X0.900000*%
%ADD95FreePoly0,180.000000*%
%ADD96FreePoly1,180.000000*%
%ADD97RoundRect,0.225000X0.250000X-0.225000X0.250000X0.225000X-0.250000X0.225000X-0.250000X-0.225000X0*%
%ADD98RoundRect,0.249999X0.650001X-0.325001X0.650001X0.325001X-0.650001X0.325001X-0.650001X-0.325001X0*%
%ADD99RoundRect,0.249999X0.362501X1.425001X-0.362501X1.425001X-0.362501X-1.425001X0.362501X-1.425001X0*%
%ADD100RoundRect,0.249999X1.425001X-0.362501X1.425001X0.362501X-1.425001X0.362501X-1.425001X-0.362501X0*%
%ADD101RoundRect,0.249999X-0.325001X-0.650001X0.325001X-0.650001X0.325001X0.650001X-0.325001X0.650001X0*%
%ADD102RoundRect,0.249999X-0.362501X-1.425001X0.362501X-1.425001X0.362501X1.425001X-0.362501X1.425001X0*%
%ADD103RoundRect,0.137500X-0.137500X0.600000X-0.137500X-0.600000X0.137500X-0.600000X0.137500X0.600000X0*%
%ADD104RoundRect,0.137500X-0.600000X0.137500X-0.600000X-0.137500X0.600000X-0.137500X0.600000X0.137500X0*%
%ADD105RoundRect,0.249996X1.825004X0.700004X-1.825004X0.700004X-1.825004X-0.700004X1.825004X-0.700004X0*%
%ADD106R,0.510000X0.700000*%
%ADD107R,0.700000X0.510000*%
%ADD108RoundRect,0.160000X0.197500X0.160000X-0.197500X0.160000X-0.197500X-0.160000X0.197500X-0.160000X0*%
G04 APERTURE END LIST*
D10*
X167372546Y-117917960D02*
X167056700Y-117917960D01*
X166721010Y-116451176D01*
X166386973Y-117917960D01*
X166071127Y-117917960D01*
X165702364Y-115449067D01*
X166028133Y-115449067D01*
X166264604Y-117453285D01*
X166545723Y-116127062D01*
X166894643Y-116127062D01*
X167179070Y-117456593D01*
X167979986Y-113614622D01*
X168305754Y-113614622D01*
X167372546Y-117917960D01*
G36*
X167372546Y-117917960D02*
G01*
X167056700Y-117917960D01*
X166721010Y-116451176D01*
X166386973Y-117917960D01*
X166071127Y-117917960D01*
X165702364Y-115449067D01*
X166028133Y-115449067D01*
X166264604Y-117453285D01*
X166545723Y-116127062D01*
X166894643Y-116127062D01*
X167179070Y-117456593D01*
X167979986Y-113614622D01*
X168305754Y-113614622D01*
X167372546Y-117917960D01*
G37*
D11*
X112500000Y-51600000D03*
D12*
X114500000Y-51600000D03*
X116500000Y-51600000D03*
X118500000Y-51600000D03*
D13*
X111770000Y-48880000D03*
X111770000Y-54320000D03*
X118770000Y-48880000D03*
X118770000Y-54320000D03*
D14*
X130100000Y-78600000D03*
X130100000Y-77800000D03*
X130100000Y-77000000D03*
X130100000Y-76200000D03*
X130100000Y-75400000D03*
X130100000Y-74600000D03*
X130100000Y-73800000D03*
X130100000Y-73000000D03*
X130100000Y-72200000D03*
X130100000Y-71400000D03*
X130100000Y-70600000D03*
X130100000Y-69800000D03*
X130100000Y-69000000D03*
X130100000Y-68200000D03*
X130100000Y-67400000D03*
X130100000Y-66600000D03*
X130100000Y-65800000D03*
X130900000Y-78600000D03*
X130900000Y-77800000D03*
X130900000Y-77000000D03*
X130900000Y-76200000D03*
X130900000Y-75400000D03*
X130900000Y-74600000D03*
X130900000Y-73800000D03*
X130900000Y-73000000D03*
X130900000Y-72200000D03*
X130900000Y-71400000D03*
X130900000Y-70600000D03*
X130900000Y-69800000D03*
X130900000Y-69000000D03*
X130900000Y-68200000D03*
X130900000Y-67400000D03*
X130900000Y-66600000D03*
X130900000Y-65800000D03*
X131700000Y-78600000D03*
X131700000Y-77800000D03*
X131700000Y-77000000D03*
X131700000Y-76200000D03*
X131700000Y-75400000D03*
X131700000Y-74600000D03*
X131700000Y-73800000D03*
X131700000Y-73000000D03*
X131700000Y-72200000D03*
X131700000Y-71400000D03*
X131700000Y-70600000D03*
X131700000Y-69800000D03*
X131700000Y-69000000D03*
X131700000Y-68200000D03*
X131700000Y-67400000D03*
X131700000Y-66600000D03*
X131700000Y-65800000D03*
X132500000Y-78600000D03*
X132500000Y-77800000D03*
X132500000Y-77000000D03*
X132500000Y-76200000D03*
X132500000Y-75400000D03*
X132500000Y-74600000D03*
X132500000Y-73800000D03*
X132500000Y-73000000D03*
X132500000Y-72200000D03*
X132500000Y-71400000D03*
X132500000Y-70600000D03*
X132500000Y-69800000D03*
X132500000Y-69000000D03*
X132500000Y-68200000D03*
X132500000Y-67400000D03*
X132500000Y-66600000D03*
X132500000Y-65800000D03*
X133300000Y-78600000D03*
X133300000Y-77800000D03*
X133300000Y-77000000D03*
X133300000Y-76200000D03*
X133300000Y-75400000D03*
X133300000Y-74600000D03*
X133300000Y-73800000D03*
X133300000Y-73000000D03*
X133300000Y-72200000D03*
X133300000Y-71400000D03*
X133300000Y-70600000D03*
X133300000Y-69800000D03*
X133300000Y-69000000D03*
X133300000Y-68200000D03*
X133300000Y-67400000D03*
X133300000Y-66600000D03*
X133300000Y-65800000D03*
X134100000Y-78600000D03*
X134100000Y-77800000D03*
X134100000Y-77000000D03*
X134100000Y-76200000D03*
X134100000Y-75400000D03*
X134100000Y-69000000D03*
X134100000Y-68200000D03*
X134100000Y-67400000D03*
X134100000Y-66600000D03*
X134100000Y-65800000D03*
X134900000Y-78600000D03*
X134900000Y-77800000D03*
X134900000Y-77000000D03*
X134900000Y-76200000D03*
X134900000Y-75400000D03*
X134900000Y-73800000D03*
X134900000Y-73000000D03*
X134900000Y-72200000D03*
X134900000Y-71400000D03*
X134900000Y-70600000D03*
X134900000Y-69000000D03*
X134900000Y-68200000D03*
X134900000Y-67400000D03*
X134900000Y-66600000D03*
X134900000Y-65800000D03*
X135700000Y-78600000D03*
X135700000Y-77800000D03*
X135700000Y-77000000D03*
X135700000Y-76200000D03*
X135700000Y-75400000D03*
X135700000Y-73800000D03*
X135700000Y-73000000D03*
X135700000Y-72200000D03*
X135700000Y-71400000D03*
X135700000Y-70600000D03*
X135700000Y-69000000D03*
X135700000Y-68200000D03*
X135700000Y-67400000D03*
X135700000Y-66600000D03*
X135700000Y-65800000D03*
X136500000Y-78600000D03*
X136500000Y-77800000D03*
X136500000Y-77000000D03*
X136500000Y-76200000D03*
X136500000Y-75400000D03*
X136500000Y-73800000D03*
X136500000Y-73000000D03*
X136500000Y-72200000D03*
X136500000Y-71400000D03*
X136500000Y-70600000D03*
X136500000Y-69000000D03*
X136500000Y-68200000D03*
X136500000Y-67400000D03*
X136500000Y-66600000D03*
X136500000Y-65800000D03*
X137300000Y-78600000D03*
X137300000Y-77800000D03*
X137300000Y-77000000D03*
X137300000Y-76200000D03*
X137300000Y-75400000D03*
X137300000Y-73800000D03*
X137300000Y-73000000D03*
X137300000Y-72200000D03*
X137300000Y-71400000D03*
X137300000Y-70600000D03*
X137300000Y-69000000D03*
X137300000Y-68200000D03*
X137300000Y-67400000D03*
X137300000Y-66600000D03*
X137300000Y-65800000D03*
X138100000Y-78600000D03*
X138100000Y-77800000D03*
X138100000Y-77000000D03*
X138100000Y-76200000D03*
X138100000Y-75400000D03*
X138100000Y-73800000D03*
X138100000Y-73000000D03*
X138100000Y-72200000D03*
X138100000Y-71400000D03*
X138100000Y-70600000D03*
X138100000Y-69000000D03*
X138100000Y-68200000D03*
X138100000Y-67400000D03*
X138100000Y-66600000D03*
X138100000Y-65800000D03*
X138900000Y-78600000D03*
X138900000Y-77800000D03*
X138900000Y-77000000D03*
X138900000Y-76200000D03*
X138900000Y-75400000D03*
X138900000Y-69000000D03*
X138900000Y-68200000D03*
X138900000Y-67400000D03*
X138900000Y-66600000D03*
X138900000Y-65800000D03*
X139700000Y-78600000D03*
X139700000Y-77800000D03*
X139700000Y-77000000D03*
X139700000Y-76200000D03*
X139700000Y-75400000D03*
X139700000Y-74600000D03*
X139700000Y-73800000D03*
X139700000Y-73000000D03*
X139700000Y-72200000D03*
X139700000Y-71400000D03*
X139700000Y-70600000D03*
X139700000Y-69800000D03*
X139700000Y-69000000D03*
X139700000Y-68200000D03*
X139700000Y-67400000D03*
X139700000Y-66600000D03*
X139700000Y-65800000D03*
X140500000Y-78600000D03*
X140500000Y-77800000D03*
X140500000Y-77000000D03*
X140500000Y-76200000D03*
X140500000Y-75400000D03*
X140500000Y-74600000D03*
X140500000Y-73800000D03*
X140500000Y-73000000D03*
X140500000Y-72200000D03*
X140500000Y-71400000D03*
X140500000Y-70600000D03*
X140500000Y-69800000D03*
X140500000Y-69000000D03*
X140500000Y-68200000D03*
X140500000Y-67400000D03*
X140500000Y-66600000D03*
X140500000Y-65800000D03*
X141300000Y-78600000D03*
X141300000Y-77800000D03*
X141300000Y-77000000D03*
X141300000Y-76200000D03*
X141300000Y-75400000D03*
X141300000Y-74600000D03*
X141300000Y-73800000D03*
X141300000Y-73000000D03*
X141300000Y-72200000D03*
X141300000Y-71400000D03*
X141300000Y-70600000D03*
X141300000Y-69800000D03*
X141300000Y-69000000D03*
X141300000Y-68200000D03*
X141300000Y-67400000D03*
X141300000Y-66600000D03*
X141300000Y-65800000D03*
X142100000Y-78600000D03*
X142100000Y-77800000D03*
X142100000Y-77000000D03*
X142100000Y-76200000D03*
X142100000Y-75400000D03*
X142100000Y-74600000D03*
X142100000Y-73800000D03*
X142100000Y-73000000D03*
X142100000Y-72200000D03*
X142100000Y-71400000D03*
X142100000Y-70600000D03*
X142100000Y-69800000D03*
X142100000Y-69000000D03*
X142100000Y-68200000D03*
X142100000Y-67400000D03*
X142100000Y-66600000D03*
X142100000Y-65800000D03*
X142900000Y-78600000D03*
X142900000Y-77800000D03*
X142900000Y-77000000D03*
X142900000Y-76200000D03*
X142900000Y-75400000D03*
X142900000Y-74600000D03*
X142900000Y-73800000D03*
X142900000Y-73000000D03*
X142900000Y-72200000D03*
X142900000Y-71400000D03*
X142900000Y-70600000D03*
X142900000Y-69800000D03*
X142900000Y-69000000D03*
X142900000Y-68200000D03*
X142900000Y-67400000D03*
X142900000Y-66600000D03*
X142900000Y-65800000D03*
D15*
X122550000Y-95160000D03*
X122550000Y-94200000D03*
D16*
X126800000Y-93100000D03*
X128350000Y-93100000D03*
D17*
X127590000Y-101500000D03*
X128550000Y-101500000D03*
X126490000Y-94500000D03*
X127450000Y-94500000D03*
D18*
X126870000Y-100500000D03*
X125850000Y-100500000D03*
D19*
X125350000Y-104620000D03*
X125350000Y-103600000D03*
D20*
X107000000Y-107380000D03*
X107000000Y-108400000D03*
X122550000Y-103215000D03*
X122550000Y-104235000D03*
X123650000Y-103215000D03*
X123650000Y-104235000D03*
D21*
X124700000Y-99100000D03*
X124700000Y-98300000D03*
X124700000Y-97500000D03*
X124700000Y-96700000D03*
X123000000Y-96700000D03*
X123000000Y-97500000D03*
X123000000Y-98300000D03*
X123000000Y-99100000D03*
D22*
X129000000Y-99837500D03*
X129500000Y-99837500D03*
X130000000Y-99837500D03*
X130500000Y-99837500D03*
X131000000Y-99837500D03*
X131500000Y-99837500D03*
D23*
X132187500Y-99150000D03*
X132187500Y-98650000D03*
X132187500Y-98150000D03*
X132187500Y-97650000D03*
X132187500Y-97150000D03*
X132187500Y-96650000D03*
D22*
X131500000Y-95962500D03*
X131000000Y-95962500D03*
X130500000Y-95962500D03*
X130000000Y-95962500D03*
X129500000Y-95962500D03*
X129000000Y-95962500D03*
D23*
X128312500Y-96650000D03*
X128312500Y-97150000D03*
X128312500Y-97650000D03*
X128312500Y-98150000D03*
X128312500Y-98650000D03*
X128312500Y-99150000D03*
D24*
X130250000Y-97900000D03*
D25*
X110890000Y-92625000D03*
X110890000Y-104055000D03*
D26*
X117250000Y-93900000D03*
D27*
X119790000Y-95160000D03*
X117250000Y-96440000D03*
X119790000Y-97700000D03*
X117250000Y-98980000D03*
X119790000Y-100240000D03*
X117250000Y-101520000D03*
X119790000Y-102780000D03*
X105990000Y-91715000D03*
X105990000Y-94255000D03*
X105990000Y-102425000D03*
X105990000Y-104965000D03*
D28*
X113940000Y-90595000D03*
X113940000Y-106085000D03*
D29*
X122550000Y-100800000D03*
X122550000Y-101760000D03*
D19*
X131050000Y-93820000D03*
X131050000Y-92800000D03*
D30*
X134230000Y-95400000D03*
X135250000Y-95400000D03*
D17*
X134190000Y-101100000D03*
X135150000Y-101100000D03*
D30*
X134180000Y-98900000D03*
X135200000Y-98900000D03*
D17*
X134190000Y-97900000D03*
X135150000Y-97900000D03*
D30*
X134180000Y-99900000D03*
X135200000Y-99900000D03*
D19*
X132050000Y-94375000D03*
X132050000Y-93355000D03*
D17*
X134190000Y-102100000D03*
X135150000Y-102100000D03*
D30*
X134230000Y-94400000D03*
X135250000Y-94400000D03*
D19*
X128450000Y-89620000D03*
X128450000Y-88600000D03*
X127450000Y-89620000D03*
X127450000Y-88600000D03*
X129500000Y-89650000D03*
X129500000Y-88630000D03*
D31*
X115400000Y-65500000D03*
D32*
X115400000Y-63000000D03*
X113400000Y-63000000D03*
X113400000Y-65500000D03*
D33*
X110690000Y-70270000D03*
X110690000Y-58230000D03*
D34*
X134880000Y-89105000D03*
X134880000Y-90375000D03*
X134880000Y-91645000D03*
X134880000Y-92915000D03*
X142080000Y-92915000D03*
X142080000Y-91645000D03*
X142080000Y-90375000D03*
X142080000Y-89105000D03*
D35*
X203910000Y-60200000D03*
D32*
X198830000Y-58760000D03*
X206450000Y-58760000D03*
D35*
X203910000Y-56700000D03*
D32*
X198830000Y-56220000D03*
X206450000Y-56220000D03*
X198830000Y-53680000D03*
X206450000Y-53680000D03*
D35*
X203910000Y-53200000D03*
D32*
X198830000Y-51140000D03*
X206450000Y-51140000D03*
D35*
X203910000Y-49700000D03*
X203260000Y-77700000D03*
D32*
X198180000Y-76260000D03*
X205800000Y-76260000D03*
D35*
X203260000Y-74200000D03*
D32*
X198180000Y-73720000D03*
X205800000Y-73720000D03*
X198180000Y-71180000D03*
X205800000Y-71180000D03*
D35*
X203260000Y-70700000D03*
D32*
X198180000Y-68640000D03*
X205800000Y-68640000D03*
D35*
X203260000Y-67200000D03*
X202800000Y-112800000D03*
D32*
X197720000Y-111360000D03*
X205340000Y-111360000D03*
D35*
X202800000Y-109300000D03*
D32*
X197720000Y-108820000D03*
X205340000Y-108820000D03*
X197720000Y-106280000D03*
X205340000Y-106280000D03*
D35*
X202800000Y-105800000D03*
D32*
X197720000Y-103740000D03*
X205340000Y-103740000D03*
D35*
X202800000Y-102300000D03*
X202970000Y-136540000D03*
D32*
X197890000Y-135100000D03*
X205510000Y-135100000D03*
D35*
X202970000Y-133040000D03*
D32*
X197890000Y-132560000D03*
X205510000Y-132560000D03*
X197890000Y-130020000D03*
X205510000Y-130020000D03*
D35*
X202970000Y-129540000D03*
D32*
X197890000Y-127480000D03*
X205510000Y-127480000D03*
D35*
X202970000Y-126040000D03*
D36*
X126175000Y-91500000D03*
X126175000Y-89925000D03*
D37*
X118450000Y-65400000D03*
X119100000Y-65400000D03*
X119750000Y-65400000D03*
X119750000Y-63500000D03*
X119100000Y-63500000D03*
X118450000Y-63500000D03*
D17*
X118020000Y-70400000D03*
X118980000Y-70400000D03*
D30*
X117980000Y-71500000D03*
X119000000Y-71500000D03*
D38*
X190350000Y-85875000D03*
X190350000Y-92825000D03*
D39*
X151300000Y-139700000D03*
X152602082Y-140156497D03*
X150056497Y-140297918D03*
X153200000Y-141400000D03*
D40*
X151400000Y-141500000D03*
D39*
X149600000Y-141600000D03*
X152743503Y-142702082D03*
X150197918Y-142843503D03*
X151500000Y-143300000D03*
X151500000Y-134800000D03*
X150268629Y-135227208D03*
X152672792Y-135368629D03*
X149700000Y-136400000D03*
D40*
X151400000Y-136500000D03*
D39*
X153100000Y-136600000D03*
X150127208Y-137631371D03*
X152531371Y-137772792D03*
X151300000Y-138200000D03*
D31*
X160450000Y-131400000D03*
D41*
X162990000Y-131400000D03*
D39*
X161850000Y-140000000D03*
X163152082Y-140456497D03*
X160606497Y-140597918D03*
X163750000Y-141700000D03*
D40*
X161950000Y-141800000D03*
D39*
X160150000Y-141900000D03*
X163293503Y-143002082D03*
X160747918Y-143143503D03*
X162050000Y-143600000D03*
X162050000Y-135100000D03*
X160818629Y-135527208D03*
X163222792Y-135668629D03*
X160250000Y-136700000D03*
D40*
X161950000Y-136800000D03*
D39*
X163650000Y-136900000D03*
X160677208Y-137931371D03*
X163081371Y-138072792D03*
X161850000Y-138500000D03*
D42*
X155125000Y-136940000D03*
X155125000Y-137580000D03*
X155125000Y-138240000D03*
X155125000Y-138880000D03*
D43*
X156475000Y-137300000D03*
X156475000Y-138520000D03*
X157425000Y-137300000D03*
X157425000Y-138520000D03*
D42*
X158005000Y-136940000D03*
X158005000Y-137580000D03*
X158005000Y-138240000D03*
X158005000Y-138880000D03*
D39*
X202050000Y-90050000D03*
X200747918Y-89593503D03*
X203293503Y-89452082D03*
X200150000Y-88350000D03*
D40*
X201950000Y-88250000D03*
D39*
X203750000Y-88150000D03*
X200606497Y-87047918D03*
X203152082Y-86906497D03*
X201850000Y-86450000D03*
X201850000Y-94950000D03*
X203081371Y-94522792D03*
X200677208Y-94381371D03*
X203650000Y-93350000D03*
D40*
X201950000Y-93250000D03*
D39*
X200250000Y-93150000D03*
X203222792Y-92118629D03*
X200818629Y-91977208D03*
X202050000Y-91550000D03*
D31*
X207050000Y-89700000D03*
D41*
X207050000Y-92240000D03*
D38*
X181250000Y-88075000D03*
X181250000Y-95025000D03*
D31*
X149700000Y-131450000D03*
D41*
X152240000Y-131450000D03*
D44*
X138950000Y-141845000D03*
D32*
X138470000Y-137400000D03*
X135930000Y-137400000D03*
D44*
X135450000Y-141845000D03*
D21*
X134925000Y-114550000D03*
X134925000Y-113750000D03*
X134925000Y-112950000D03*
X134925000Y-112150000D03*
X133225000Y-112150000D03*
X133225000Y-112950000D03*
X133225000Y-113750000D03*
X133225000Y-114550000D03*
D44*
X130650000Y-141845000D03*
D32*
X130170000Y-137400000D03*
X127630000Y-137400000D03*
D44*
X127150000Y-141845000D03*
D45*
X125820000Y-131960000D03*
X125180000Y-131960000D03*
X124520000Y-131960000D03*
X123880000Y-131960000D03*
D46*
X125460000Y-133310000D03*
X124240000Y-133310000D03*
X125460000Y-134260000D03*
X124240000Y-134260000D03*
D45*
X125820000Y-134840000D03*
X125180000Y-134840000D03*
X124520000Y-134840000D03*
X123880000Y-134840000D03*
D47*
X122150000Y-141850000D03*
D48*
X119610000Y-141850000D03*
D45*
X139620000Y-132260000D03*
X138980000Y-132260000D03*
X138320000Y-132260000D03*
X137680000Y-132260000D03*
D46*
X139260000Y-133610000D03*
X138040000Y-133610000D03*
X139260000Y-134560000D03*
X138040000Y-134560000D03*
D45*
X139620000Y-135140000D03*
X138980000Y-135140000D03*
X138320000Y-135140000D03*
X137680000Y-135140000D03*
X131370000Y-131960000D03*
X130730000Y-131960000D03*
X130070000Y-131960000D03*
X129430000Y-131960000D03*
D46*
X131010000Y-133310000D03*
X129790000Y-133310000D03*
X131010000Y-134260000D03*
X129790000Y-134260000D03*
D45*
X131370000Y-134840000D03*
X130730000Y-134840000D03*
X130070000Y-134840000D03*
X129430000Y-134840000D03*
D47*
X115500000Y-141850000D03*
D48*
X112960000Y-141850000D03*
D45*
X120220000Y-131960000D03*
X119580000Y-131960000D03*
X118920000Y-131960000D03*
X118280000Y-131960000D03*
D46*
X119860000Y-133310000D03*
X118640000Y-133310000D03*
X119860000Y-134260000D03*
X118640000Y-134260000D03*
D45*
X120220000Y-134840000D03*
X119580000Y-134840000D03*
X118920000Y-134840000D03*
X118280000Y-134840000D03*
D49*
X131925000Y-109087500D03*
X131275000Y-109087500D03*
X130625000Y-109087500D03*
X129975000Y-109087500D03*
X129325000Y-109087500D03*
X128675000Y-109087500D03*
X128025000Y-109087500D03*
X127375000Y-109087500D03*
X126725000Y-109087500D03*
X126075000Y-109087500D03*
X126075000Y-114812500D03*
X126725000Y-114812500D03*
X127375000Y-114812500D03*
X128025000Y-114812500D03*
X128675000Y-114812500D03*
X129325000Y-114812500D03*
X129975000Y-114812500D03*
X130625000Y-114812500D03*
X131275000Y-114812500D03*
X131925000Y-114812500D03*
D50*
X156387500Y-129650000D03*
X154812500Y-129650000D03*
D36*
X133250000Y-135025000D03*
X133250000Y-133450000D03*
X141375000Y-134987500D03*
X141375000Y-133412500D03*
X116100000Y-135975000D03*
X116100000Y-134400000D03*
D18*
X153385000Y-129159000D03*
X152365000Y-129159000D03*
D19*
X127900000Y-134270000D03*
X127900000Y-133250000D03*
X135950000Y-134270000D03*
X135950000Y-133250000D03*
X116400000Y-132920000D03*
X116400000Y-131900000D03*
X122300000Y-132920000D03*
X122300000Y-131900000D03*
D51*
X124200000Y-92150000D03*
X124200000Y-91500000D03*
X124200000Y-90850000D03*
X122300000Y-90850000D03*
X122300000Y-91500000D03*
X122300000Y-92150000D03*
D50*
X133460000Y-123900000D03*
X131885000Y-123900000D03*
D18*
X135650000Y-124150000D03*
X134630000Y-124150000D03*
D52*
X104800000Y-124350000D03*
D53*
X104800000Y-121810000D03*
D52*
X104800000Y-130750000D03*
D53*
X104800000Y-128210000D03*
D52*
X104850000Y-137200000D03*
D53*
X104850000Y-134660000D03*
D15*
X109728000Y-130401000D03*
X109728000Y-129441000D03*
D29*
X108800000Y-131590000D03*
X108800000Y-132550000D03*
X108800000Y-137840000D03*
X108800000Y-138800000D03*
D37*
X110400000Y-133500000D03*
X111050000Y-133500000D03*
X111700000Y-133500000D03*
X111700000Y-131600000D03*
X111050000Y-131600000D03*
X110400000Y-131600000D03*
D50*
X126987500Y-123800000D03*
X125412500Y-123800000D03*
D30*
X127090000Y-125200000D03*
X128110000Y-125200000D03*
D17*
X159920000Y-123250000D03*
X160880000Y-123250000D03*
D21*
X142825000Y-119675000D03*
X142825000Y-120475000D03*
X142825000Y-121275000D03*
X142825000Y-122075000D03*
X144525000Y-122075000D03*
X144525000Y-121275000D03*
X144525000Y-120475000D03*
X144525000Y-119675000D03*
D54*
X159575000Y-124500000D03*
X161225000Y-124500000D03*
D21*
X165840000Y-53930000D03*
X165840000Y-54730000D03*
X165840000Y-55530000D03*
X165840000Y-56330000D03*
X167540000Y-56330000D03*
X167540000Y-55530000D03*
X167540000Y-54730000D03*
X167540000Y-53930000D03*
D17*
X142095000Y-118250000D03*
X143055000Y-118250000D03*
X126590000Y-48100000D03*
X127550000Y-48100000D03*
X134750000Y-48150000D03*
X135710000Y-48150000D03*
X138390000Y-48100000D03*
X139350000Y-48100000D03*
X146640000Y-48150000D03*
X147600000Y-48150000D03*
X156040000Y-48150000D03*
X157000000Y-48150000D03*
D55*
X162175000Y-48025000D03*
X161215000Y-48025000D03*
D47*
X117150000Y-43100000D03*
D48*
X114610000Y-43100000D03*
X112070000Y-43100000D03*
D47*
X126100000Y-43100000D03*
D48*
X123560000Y-43100000D03*
X121020000Y-43100000D03*
D47*
X152800000Y-43100000D03*
D48*
X150260000Y-43100000D03*
X147720000Y-43100000D03*
D47*
X161650000Y-43100000D03*
D48*
X159110000Y-43100000D03*
X156570000Y-43100000D03*
D47*
X173150000Y-41350000D03*
D48*
X170610000Y-41350000D03*
X168070000Y-41350000D03*
X165530000Y-41350000D03*
D18*
X122200000Y-47250000D03*
X121180000Y-47250000D03*
D20*
X163131500Y-47080000D03*
X163131500Y-48100000D03*
D18*
X127600000Y-47100000D03*
X126580000Y-47100000D03*
X135720000Y-47100000D03*
X134700000Y-47100000D03*
X139400000Y-47050000D03*
X138380000Y-47050000D03*
X147620000Y-47100000D03*
X146600000Y-47100000D03*
X157020000Y-47100000D03*
X156000000Y-47100000D03*
D47*
X135000000Y-43100000D03*
D48*
X132460000Y-43100000D03*
X129920000Y-43100000D03*
D47*
X143900000Y-43100000D03*
D48*
X141360000Y-43100000D03*
X138820000Y-43100000D03*
D17*
X121190000Y-48250000D03*
X122150000Y-48250000D03*
X125170000Y-51800000D03*
X126130000Y-51800000D03*
D19*
X133400000Y-51020000D03*
X133400000Y-50000000D03*
D30*
X151930000Y-49600000D03*
X152950000Y-49600000D03*
X151980000Y-48150000D03*
X153000000Y-48150000D03*
D19*
X125250000Y-49950000D03*
X125250000Y-48930000D03*
D30*
X127080000Y-50750000D03*
X128100000Y-50750000D03*
D51*
X161325000Y-50575000D03*
X161325000Y-49925000D03*
X161325000Y-49275000D03*
X159425000Y-49275000D03*
X159425000Y-49925000D03*
X159425000Y-50575000D03*
X130100000Y-49450000D03*
X130100000Y-50100000D03*
X130100000Y-50750000D03*
X132000000Y-50750000D03*
X132000000Y-50100000D03*
X132000000Y-49450000D03*
D56*
X124850000Y-59712500D03*
X125500000Y-59712500D03*
X126150000Y-59712500D03*
X126800000Y-59712500D03*
X127450000Y-59712500D03*
X128100000Y-59712500D03*
X128750000Y-59712500D03*
X128750000Y-53987500D03*
X128100000Y-53987500D03*
X127450000Y-53987500D03*
X126800000Y-53987500D03*
X126150000Y-53987500D03*
X125500000Y-53987500D03*
X124850000Y-53987500D03*
D30*
X121065000Y-62800000D03*
X122085000Y-62800000D03*
D19*
X163775000Y-50460000D03*
X163775000Y-49440000D03*
D57*
X120700000Y-59525000D03*
X120700000Y-60475000D03*
X120700000Y-61425000D03*
X122900000Y-61425000D03*
X122900000Y-59525000D03*
D28*
X106250000Y-97500000D03*
X106250000Y-57500000D03*
D20*
X162800000Y-49440000D03*
X162800000Y-50460000D03*
D28*
X206250000Y-117500000D03*
D58*
X116930000Y-84490000D03*
X116930000Y-86040000D03*
D59*
X149710000Y-57100000D03*
X149710000Y-53200000D03*
X150980000Y-57100000D03*
X150980000Y-53200000D03*
X152250000Y-57100000D03*
X152250000Y-53200000D03*
X153520000Y-57100000D03*
X153520000Y-53200000D03*
X154790000Y-57100000D03*
X154790000Y-53200000D03*
X149710000Y-65750000D03*
X149710000Y-61850000D03*
X150980000Y-65750000D03*
X150980000Y-61850000D03*
X152250000Y-65750000D03*
X152250000Y-61850000D03*
X153520000Y-65750000D03*
X153520000Y-61850000D03*
X154790000Y-65750000D03*
X154790000Y-61850000D03*
X149710000Y-74350000D03*
X149710000Y-70450000D03*
X150980000Y-74350000D03*
X150980000Y-70450000D03*
X152250000Y-74350000D03*
X152250000Y-70450000D03*
X153520000Y-74350000D03*
X153520000Y-70450000D03*
X154790000Y-74350000D03*
X154790000Y-70450000D03*
X149710000Y-83000000D03*
X149710000Y-79100000D03*
X150980000Y-83000000D03*
X150980000Y-79100000D03*
X152250000Y-83000000D03*
X152250000Y-79100000D03*
X153520000Y-83000000D03*
X153520000Y-79100000D03*
X154790000Y-83000000D03*
X154790000Y-79100000D03*
X149710000Y-91650000D03*
X149710000Y-87750000D03*
X150980000Y-91650000D03*
X150980000Y-87750000D03*
X152250000Y-91650000D03*
X152250000Y-87750000D03*
X153520000Y-91650000D03*
X153520000Y-87750000D03*
X154790000Y-91650000D03*
X154790000Y-87750000D03*
X149710000Y-100300000D03*
X149710000Y-96400000D03*
X150980000Y-100300000D03*
X150980000Y-96400000D03*
X152250000Y-100300000D03*
X152250000Y-96400000D03*
X153520000Y-100300000D03*
X153520000Y-96400000D03*
X154790000Y-100300000D03*
X154790000Y-96400000D03*
X149710000Y-108950000D03*
X149710000Y-105050000D03*
X150980000Y-108950000D03*
X150980000Y-105050000D03*
X152250000Y-108950000D03*
X152250000Y-105050000D03*
X153520000Y-108950000D03*
X153520000Y-105050000D03*
X154790000Y-108950000D03*
X154790000Y-105050000D03*
X149710000Y-117600000D03*
X149710000Y-113700000D03*
X150980000Y-117600000D03*
X150980000Y-113700000D03*
X152250000Y-117600000D03*
X152250000Y-113700000D03*
X153520000Y-117600000D03*
X153520000Y-113700000D03*
X154790000Y-117600000D03*
X154790000Y-113700000D03*
X149710000Y-126250000D03*
X149710000Y-122350000D03*
X150980000Y-126250000D03*
X150980000Y-122350000D03*
X152250000Y-126250000D03*
X152250000Y-122350000D03*
X153520000Y-126250000D03*
X153520000Y-122350000D03*
X154790000Y-126250000D03*
X154790000Y-122350000D03*
D60*
X122675000Y-86340000D03*
D61*
X121405000Y-86340000D03*
X122675000Y-85070000D03*
X121405000Y-85070000D03*
X122675000Y-83800000D03*
X121405000Y-83800000D03*
X122675000Y-82530000D03*
X121405000Y-82530000D03*
X122675000Y-81260000D03*
X121405000Y-81260000D03*
D62*
X165450000Y-48235000D03*
X165450000Y-47265000D03*
D30*
X134200000Y-96900000D03*
X135220000Y-96900000D03*
X162890000Y-51425000D03*
X163910000Y-51425000D03*
D63*
X105140000Y-117300000D03*
X105140000Y-110290000D03*
D64*
X102650000Y-116050000D03*
X102650000Y-111550000D03*
D31*
X134040000Y-54860000D03*
D41*
X136580000Y-54860000D03*
X139120000Y-54860000D03*
D29*
X108000000Y-107440000D03*
X108000000Y-108400000D03*
X133750000Y-104350000D03*
X133750000Y-105310000D03*
X128750000Y-104340000D03*
X128750000Y-105300000D03*
D65*
X132150000Y-105000000D03*
X132150000Y-102800000D03*
X130450000Y-102800000D03*
X130450000Y-105000000D03*
D36*
X122100000Y-135750000D03*
X122100000Y-134175000D03*
D50*
X141537500Y-108800000D03*
X139962500Y-108800000D03*
D18*
X141885000Y-110100000D03*
X140865000Y-110100000D03*
D29*
X126200000Y-81240000D03*
X126200000Y-82200000D03*
D15*
X126200000Y-84110000D03*
X126200000Y-83150000D03*
D55*
X139160000Y-86650000D03*
X138200000Y-86650000D03*
D17*
X136300000Y-86650000D03*
X137260000Y-86650000D03*
D66*
X128200000Y-81500000D03*
X128200000Y-84000000D03*
D65*
X138750000Y-84900000D03*
X138750000Y-82700000D03*
X137050000Y-82700000D03*
X137050000Y-84900000D03*
D67*
X131750000Y-81550000D03*
X130200000Y-81550000D03*
X131750000Y-83075000D03*
X130200000Y-83075000D03*
X131825000Y-85350000D03*
X130275000Y-85350000D03*
D68*
X133900000Y-84500000D03*
X133900000Y-82350000D03*
D55*
X133900000Y-80850000D03*
X132940000Y-80850000D03*
X135800000Y-80850000D03*
X134840000Y-80850000D03*
D69*
X204830000Y-43030000D03*
X204830000Y-143030000D03*
D70*
X104830000Y-143030000D03*
X104830000Y-43030000D03*
D71*
X144925000Y-126300000D03*
X144925000Y-124400000D03*
X142925000Y-125350000D03*
D18*
X140835000Y-127850000D03*
X139815000Y-127850000D03*
X140835000Y-126875000D03*
X139815000Y-126875000D03*
D30*
X144265000Y-127625000D03*
X145285000Y-127625000D03*
X138510000Y-50590000D03*
X139530000Y-50590000D03*
X138540000Y-49600000D03*
X139560000Y-49600000D03*
D51*
X142790000Y-50790000D03*
X142790000Y-50140000D03*
X142790000Y-49490000D03*
X140890000Y-49490000D03*
X140890000Y-50140000D03*
X140890000Y-50790000D03*
D24*
X119250000Y-113050000D03*
D72*
X122750000Y-113050000D03*
D17*
X123190000Y-76750000D03*
X124150000Y-76750000D03*
X142210000Y-87570000D03*
X143170000Y-87570000D03*
D24*
X110150000Y-113050000D03*
D72*
X113650000Y-113050000D03*
D21*
X134900000Y-110800000D03*
X134900000Y-110000000D03*
X134900000Y-109200000D03*
X134900000Y-108400000D03*
X133200000Y-108400000D03*
X133200000Y-109200000D03*
X133200000Y-110000000D03*
X133200000Y-110800000D03*
D50*
X190725000Y-143900000D03*
X189150000Y-143900000D03*
X193825000Y-143900000D03*
X192250000Y-143900000D03*
X196925000Y-143900000D03*
X195350000Y-143900000D03*
X200037500Y-143900000D03*
X198462500Y-143900000D03*
D30*
X182990000Y-146400000D03*
X184010000Y-146400000D03*
X189790000Y-146500000D03*
X190810000Y-146500000D03*
X194690000Y-146900000D03*
X195710000Y-146900000D03*
X197790000Y-146700000D03*
X198810000Y-146700000D03*
D50*
X187675000Y-143900000D03*
X186100000Y-143900000D03*
D30*
X173690000Y-144780000D03*
X174710000Y-144780000D03*
D50*
X184587500Y-143900000D03*
X183012500Y-143900000D03*
D30*
X177790000Y-144800000D03*
X178810000Y-144800000D03*
X175766000Y-144780000D03*
X176786000Y-144780000D03*
D50*
X181537500Y-143950000D03*
X179962500Y-143950000D03*
D73*
X115150000Y-121700000D03*
X115150000Y-119800000D03*
D74*
X171625000Y-97650000D03*
X171625000Y-100600000D03*
D75*
X113300000Y-121000000D03*
X111400000Y-121000000D03*
D76*
X121900000Y-49900000D03*
X123800000Y-49900000D03*
D77*
X159875000Y-56400000D03*
X159875000Y-58300000D03*
D19*
X109800000Y-121710000D03*
X109800000Y-120690000D03*
D18*
X124770000Y-47975000D03*
X123750000Y-47975000D03*
X161775000Y-60600000D03*
X160755000Y-60600000D03*
D78*
X113250000Y-122900000D03*
X112300000Y-122900000D03*
X111350000Y-122900000D03*
X111350000Y-125100000D03*
X113250000Y-125100000D03*
D57*
X161975000Y-57300000D03*
X161975000Y-58250000D03*
X161975000Y-59200000D03*
X164175000Y-59200000D03*
X164175000Y-57300000D03*
D77*
X166025000Y-59050000D03*
X166025000Y-60950000D03*
D78*
X123150000Y-51750000D03*
X122200000Y-51750000D03*
X121250000Y-51750000D03*
X121250000Y-53950000D03*
X123150000Y-53950000D03*
D77*
X118500000Y-58350000D03*
X118500000Y-60250000D03*
D75*
X122900000Y-56900000D03*
X121000000Y-56900000D03*
D20*
X135400000Y-117815000D03*
X135400000Y-118835000D03*
X133330000Y-117960000D03*
X133330000Y-118980000D03*
X138825000Y-126340000D03*
X138825000Y-127360000D03*
D79*
X143965000Y-83950000D03*
X144935000Y-83950000D03*
D80*
X144960000Y-89625000D03*
X143990000Y-89625000D03*
X144960000Y-88625000D03*
X143990000Y-88625000D03*
X144420000Y-95750000D03*
X143450000Y-95750000D03*
X144000000Y-97150000D03*
X143030000Y-97150000D03*
X144020000Y-98150000D03*
X143050000Y-98150000D03*
D21*
X117175000Y-76725000D03*
X117175000Y-77525000D03*
X117175000Y-78325000D03*
X117175000Y-79125000D03*
X118875000Y-79125000D03*
X118875000Y-78325000D03*
X118875000Y-77525000D03*
X118875000Y-76725000D03*
D81*
X138100000Y-109205000D03*
X138100000Y-110175000D03*
X137125000Y-109225000D03*
X137125000Y-110195000D03*
D79*
X138725000Y-101150000D03*
X139695000Y-101150000D03*
X140250000Y-99130000D03*
X141220000Y-99130000D03*
D81*
X136125000Y-109250000D03*
X136125000Y-110220000D03*
D80*
X144880000Y-99880000D03*
X143910000Y-99880000D03*
D19*
X141550000Y-101200000D03*
X141550000Y-100180000D03*
X142575000Y-101200000D03*
X142575000Y-100180000D03*
X159350000Y-64110000D03*
X159350000Y-63090000D03*
D20*
X120825000Y-73005000D03*
X120825000Y-74025000D03*
D19*
X120050000Y-68370000D03*
X120050000Y-67350000D03*
D20*
X137025000Y-111315000D03*
X137025000Y-112335000D03*
D31*
X122025000Y-126650000D03*
D41*
X124565000Y-126650000D03*
D31*
X133650000Y-126525000D03*
D41*
X136190000Y-126525000D03*
D82*
X128300000Y-117800000D03*
X126400000Y-117800000D03*
X127350000Y-119800000D03*
D17*
X132995000Y-115925000D03*
X133955000Y-115925000D03*
D82*
X131875000Y-117825000D03*
X129975000Y-117825000D03*
X130925000Y-119825000D03*
D20*
X125150000Y-64205000D03*
X125150000Y-65225000D03*
D83*
X142450000Y-113250000D03*
X138350000Y-113250000D03*
X142450000Y-111650000D03*
X138350000Y-111650000D03*
D30*
X127080000Y-51750000D03*
X128100000Y-51750000D03*
D20*
X159350000Y-60505000D03*
X159350000Y-61525000D03*
D84*
X104490000Y-76300000D03*
X104490000Y-84300000D03*
D85*
X115306200Y-83495280D03*
X115306200Y-82395280D03*
X115306200Y-81295280D03*
X115306200Y-80195280D03*
X115306200Y-79095280D03*
X115306200Y-77995280D03*
X115306200Y-76895280D03*
X115306200Y-75795280D03*
X115306200Y-74695280D03*
D86*
X114506200Y-73595280D03*
D87*
X104670000Y-89080000D03*
X104680000Y-73594000D03*
D86*
X114500000Y-88170000D03*
D88*
X119600000Y-74950000D03*
X117500000Y-74950000D03*
D29*
X159500000Y-95550000D03*
X159500000Y-96510000D03*
D77*
X175800000Y-89475000D03*
X175800000Y-91375000D03*
D75*
X162375000Y-78950000D03*
X160475000Y-78950000D03*
D89*
X165550000Y-93450000D03*
X161550000Y-93450000D03*
D90*
X171225000Y-89725000D03*
X171225000Y-95425000D03*
D20*
X159400000Y-98780000D03*
X159400000Y-99800000D03*
D30*
X160855000Y-101500000D03*
X161875000Y-101500000D03*
D91*
X161200000Y-96120000D03*
X161200000Y-97390000D03*
X161200000Y-98660000D03*
X161200000Y-99930000D03*
X166600000Y-99930000D03*
X166600000Y-98660000D03*
X166600000Y-97390000D03*
X166600000Y-96120000D03*
D92*
X163900000Y-98025000D03*
D74*
X169175000Y-97650000D03*
X169175000Y-100600000D03*
D57*
X171250000Y-85675000D03*
X171250000Y-86625000D03*
X171250000Y-87575000D03*
X173450000Y-87575000D03*
X173450000Y-85675000D03*
D42*
X155150000Y-133045000D03*
X155150000Y-133685000D03*
X155150000Y-134345000D03*
X155150000Y-134985000D03*
D43*
X156500000Y-133405000D03*
X156500000Y-134625000D03*
X157450000Y-133405000D03*
X157450000Y-134625000D03*
D42*
X158030000Y-133045000D03*
X158030000Y-133685000D03*
X158030000Y-134345000D03*
X158030000Y-134985000D03*
D57*
X163485000Y-77010000D03*
X163485000Y-76060000D03*
X163485000Y-75110000D03*
X161285000Y-75110000D03*
X161285000Y-77010000D03*
D76*
X161375000Y-70325000D03*
X163275000Y-70325000D03*
D93*
X161275000Y-72825000D03*
X163425000Y-72825000D03*
D15*
X159350000Y-73705000D03*
X159350000Y-72745000D03*
D20*
X159550000Y-76490000D03*
X159550000Y-77510000D03*
X160000000Y-74605000D03*
X160000000Y-75625000D03*
D77*
X118550000Y-67200000D03*
X118550000Y-69100000D03*
D38*
X163100000Y-82325000D03*
X163100000Y-89275000D03*
D80*
X144935000Y-82950000D03*
X143965000Y-82950000D03*
D73*
X175800000Y-87720000D03*
X175800000Y-85820000D03*
D19*
X109800000Y-124010000D03*
X109800000Y-122990000D03*
D76*
X161400000Y-68275000D03*
X163300000Y-68275000D03*
D31*
X161900000Y-63600000D03*
D41*
X164440000Y-63600000D03*
D94*
X124775000Y-106400000D03*
X123975000Y-106400000D03*
X123175000Y-106400000D03*
X122375000Y-106400000D03*
X122375000Y-108100000D03*
X123175000Y-108100000D03*
X123975000Y-108100000D03*
X124775000Y-108100000D03*
X144650000Y-115200000D03*
X143850000Y-115200000D03*
X143050000Y-115200000D03*
X142250000Y-115200000D03*
X142250000Y-116900000D03*
X143050000Y-116900000D03*
X143850000Y-116900000D03*
X144650000Y-116900000D03*
D56*
X136825000Y-121012500D03*
X137475000Y-121012500D03*
X138125000Y-121012500D03*
X138775000Y-121012500D03*
X139425000Y-121012500D03*
X140075000Y-121012500D03*
X140725000Y-121012500D03*
X140725000Y-115287500D03*
X140075000Y-115287500D03*
X139425000Y-115287500D03*
X138775000Y-115287500D03*
X138125000Y-115287500D03*
X137475000Y-115287500D03*
X136825000Y-115287500D03*
D21*
X140650000Y-125125000D03*
X140650000Y-124325000D03*
X140650000Y-123525000D03*
X140650000Y-122725000D03*
X138950000Y-122725000D03*
X138950000Y-123525000D03*
X138950000Y-124325000D03*
X138950000Y-125125000D03*
D95*
X166550000Y-102575000D03*
D96*
X165100000Y-102575000D03*
D20*
X168850000Y-55605000D03*
X168850000Y-56625000D03*
X163025000Y-52455000D03*
X163025000Y-53475000D03*
D78*
X161550000Y-52175000D03*
X160600000Y-52175000D03*
X159650000Y-52175000D03*
X159650000Y-54375000D03*
X161550000Y-54375000D03*
D29*
X187500000Y-52020000D03*
X187500000Y-52980000D03*
D97*
X172500000Y-49825000D03*
X172500000Y-48275000D03*
D29*
X187250000Y-55820000D03*
X187250000Y-56780000D03*
D98*
X190750000Y-48725000D03*
X190750000Y-45775000D03*
D74*
X184300000Y-61025000D03*
X184300000Y-63975000D03*
D20*
X173800000Y-47190000D03*
X173800000Y-48210000D03*
D19*
X172750000Y-58410000D03*
X172750000Y-57390000D03*
D99*
X183062500Y-43700000D03*
X177137500Y-43700000D03*
D29*
X188350000Y-55820000D03*
X188350000Y-56780000D03*
D100*
X172950000Y-65712500D03*
X172950000Y-59787500D03*
D29*
X187700000Y-72840000D03*
X187700000Y-73800000D03*
D97*
X172750000Y-70075000D03*
X172750000Y-68525000D03*
D29*
X188600000Y-76070000D03*
X188600000Y-77030000D03*
X187500000Y-76070000D03*
X187500000Y-77030000D03*
D101*
X186575000Y-67850000D03*
X189525000Y-67850000D03*
X185800000Y-80250000D03*
X188750000Y-80250000D03*
D29*
X192400000Y-108350000D03*
X192400000Y-109310000D03*
D97*
X177500000Y-106375000D03*
X177500000Y-104825000D03*
D29*
X193350000Y-112370000D03*
X193350000Y-113330000D03*
X192250000Y-112370000D03*
X192250000Y-113330000D03*
D98*
X190150000Y-102475000D03*
X190150000Y-99525000D03*
D101*
X192675000Y-115000000D03*
X195625000Y-115000000D03*
D20*
X174050000Y-67440000D03*
X174050000Y-68460000D03*
D19*
X174200000Y-79810000D03*
X174200000Y-78790000D03*
D20*
X178800000Y-103740000D03*
X178800000Y-104760000D03*
D30*
X176480000Y-113800000D03*
X177500000Y-113800000D03*
D99*
X188062500Y-100250000D03*
X182137500Y-100250000D03*
D102*
X172937500Y-116600000D03*
X178862500Y-116600000D03*
D18*
X172510000Y-120550000D03*
X171490000Y-120550000D03*
X174500000Y-120550000D03*
X173480000Y-120550000D03*
D30*
X172630000Y-119400000D03*
X173650000Y-119400000D03*
D103*
X184300000Y-67987500D03*
X183500000Y-67987500D03*
X182700000Y-67987500D03*
X181900000Y-67987500D03*
X181100000Y-67987500D03*
X180300000Y-67987500D03*
X179500000Y-67987500D03*
X178700000Y-67987500D03*
X177900000Y-67987500D03*
X177100000Y-67987500D03*
X176300000Y-67987500D03*
D104*
X174637500Y-69650000D03*
X174637500Y-70450000D03*
X174637500Y-71250000D03*
X174637500Y-72050000D03*
X174637500Y-72850000D03*
X174637500Y-73650000D03*
X174637500Y-74450000D03*
X174637500Y-75250000D03*
X174637500Y-76050000D03*
X174637500Y-76850000D03*
X174637500Y-77650000D03*
D103*
X176300000Y-79312500D03*
X177100000Y-79312500D03*
X177900000Y-79312500D03*
X178700000Y-79312500D03*
X179500000Y-79312500D03*
X180300000Y-79312500D03*
X181100000Y-79312500D03*
X181900000Y-79312500D03*
X182700000Y-79312500D03*
X183500000Y-79312500D03*
X184300000Y-79312500D03*
D104*
X185962500Y-77650000D03*
X185962500Y-76850000D03*
X185962500Y-76050000D03*
X185962500Y-75250000D03*
X185962500Y-74450000D03*
X185962500Y-73650000D03*
X185962500Y-72850000D03*
X185962500Y-72050000D03*
X185962500Y-71250000D03*
X185962500Y-70450000D03*
X185962500Y-69650000D03*
D103*
X189050000Y-104287500D03*
X188250000Y-104287500D03*
X187450000Y-104287500D03*
X186650000Y-104287500D03*
X185850000Y-104287500D03*
X185050000Y-104287500D03*
X184250000Y-104287500D03*
X183450000Y-104287500D03*
X182650000Y-104287500D03*
X181850000Y-104287500D03*
X181050000Y-104287500D03*
D104*
X179387500Y-105950000D03*
X179387500Y-106750000D03*
X179387500Y-107550000D03*
X179387500Y-108350000D03*
X179387500Y-109150000D03*
X179387500Y-109950000D03*
X179387500Y-110750000D03*
X179387500Y-111550000D03*
X179387500Y-112350000D03*
X179387500Y-113150000D03*
X179387500Y-113950000D03*
D103*
X181050000Y-115612500D03*
X181850000Y-115612500D03*
X182650000Y-115612500D03*
X183450000Y-115612500D03*
X184250000Y-115612500D03*
X185050000Y-115612500D03*
X185850000Y-115612500D03*
X186650000Y-115612500D03*
X187450000Y-115612500D03*
X188250000Y-115612500D03*
X189050000Y-115612500D03*
D104*
X190712500Y-113950000D03*
X190712500Y-113150000D03*
X190712500Y-112350000D03*
X190712500Y-111550000D03*
X190712500Y-110750000D03*
X190712500Y-109950000D03*
X190712500Y-109150000D03*
X190712500Y-108350000D03*
X190712500Y-107550000D03*
X190712500Y-106750000D03*
X190712500Y-105950000D03*
D103*
X186500000Y-124637500D03*
X185700000Y-124637500D03*
X184900000Y-124637500D03*
X184100000Y-124637500D03*
X183300000Y-124637500D03*
X182500000Y-124637500D03*
X181700000Y-124637500D03*
X180900000Y-124637500D03*
X180100000Y-124637500D03*
X179300000Y-124637500D03*
X178500000Y-124637500D03*
D104*
X176837500Y-126300000D03*
X176837500Y-127100000D03*
X176837500Y-127900000D03*
X176837500Y-128700000D03*
X176837500Y-129500000D03*
X176837500Y-130300000D03*
X176837500Y-131100000D03*
X176837500Y-131900000D03*
X176837500Y-132700000D03*
X176837500Y-133500000D03*
X176837500Y-134300000D03*
D103*
X178500000Y-135962500D03*
X179300000Y-135962500D03*
X180100000Y-135962500D03*
X180900000Y-135962500D03*
X181700000Y-135962500D03*
X182500000Y-135962500D03*
X183300000Y-135962500D03*
X184100000Y-135962500D03*
X184900000Y-135962500D03*
X185700000Y-135962500D03*
X186500000Y-135962500D03*
D104*
X188162500Y-134300000D03*
X188162500Y-133500000D03*
X188162500Y-132700000D03*
X188162500Y-131900000D03*
X188162500Y-131100000D03*
X188162500Y-130300000D03*
X188162500Y-129500000D03*
X188162500Y-128700000D03*
X188162500Y-127900000D03*
X188162500Y-127100000D03*
X188162500Y-126300000D03*
D99*
X185762500Y-140250000D03*
X179837500Y-140250000D03*
X185512500Y-120600000D03*
X179587500Y-120600000D03*
D19*
X176400000Y-136460000D03*
X176400000Y-135440000D03*
D20*
X176250000Y-124090000D03*
X176250000Y-125110000D03*
D97*
X174950000Y-126725000D03*
X174950000Y-125175000D03*
D29*
X189900000Y-129490000D03*
X189900000Y-130450000D03*
X190800000Y-132720000D03*
X190800000Y-133680000D03*
X189700000Y-132720000D03*
X189700000Y-133680000D03*
D98*
X187600000Y-122825000D03*
X187600000Y-119875000D03*
D101*
X188000000Y-136900000D03*
X190950000Y-136900000D03*
D99*
X182062500Y-63900000D03*
X176137500Y-63900000D03*
D28*
X206250000Y-97500000D03*
D99*
X183662500Y-83600000D03*
X177737500Y-83600000D03*
D105*
X194925000Y-62150000D03*
X187975000Y-62150000D03*
X198225000Y-120700000D03*
X191275000Y-120700000D03*
D103*
X184050000Y-47737500D03*
X183250000Y-47737500D03*
X182450000Y-47737500D03*
X181650000Y-47737500D03*
X180850000Y-47737500D03*
X180050000Y-47737500D03*
X179250000Y-47737500D03*
X178450000Y-47737500D03*
X177650000Y-47737500D03*
X176850000Y-47737500D03*
X176050000Y-47737500D03*
D104*
X174387500Y-49400000D03*
X174387500Y-50200000D03*
X174387500Y-51000000D03*
X174387500Y-51800000D03*
X174387500Y-52600000D03*
X174387500Y-53400000D03*
X174387500Y-54200000D03*
X174387500Y-55000000D03*
X174387500Y-55800000D03*
X174387500Y-56600000D03*
X174387500Y-57400000D03*
D103*
X176050000Y-59062500D03*
X176850000Y-59062500D03*
X177650000Y-59062500D03*
X178450000Y-59062500D03*
X179250000Y-59062500D03*
X180050000Y-59062500D03*
X180850000Y-59062500D03*
X181650000Y-59062500D03*
X182450000Y-59062500D03*
X183250000Y-59062500D03*
X184050000Y-59062500D03*
D104*
X185712500Y-57400000D03*
X185712500Y-56600000D03*
X185712500Y-55800000D03*
X185712500Y-55000000D03*
X185712500Y-54200000D03*
X185712500Y-53400000D03*
X185712500Y-52600000D03*
X185712500Y-51800000D03*
X185712500Y-51000000D03*
X185712500Y-50200000D03*
X185712500Y-49400000D03*
D20*
X160600000Y-107694000D03*
X160600000Y-108714000D03*
D19*
X159600000Y-108714000D03*
X159600000Y-107694000D03*
D78*
X160750000Y-106400000D03*
X161700000Y-106400000D03*
X162650000Y-106400000D03*
X162650000Y-104200000D03*
X160750000Y-104200000D03*
D18*
X127820000Y-105500000D03*
X126800000Y-105500000D03*
D19*
X126800000Y-107475000D03*
X126800000Y-106455000D03*
D37*
X114950000Y-128050000D03*
X115600000Y-128050000D03*
X116250000Y-128050000D03*
X116250000Y-126150000D03*
X115600000Y-126150000D03*
X114950000Y-126150000D03*
D106*
X111350000Y-128960000D03*
X112300000Y-128960000D03*
X113250000Y-128960000D03*
X113250000Y-126640000D03*
X112300000Y-126640000D03*
X111350000Y-126640000D03*
D37*
X121650000Y-124050000D03*
X122300000Y-124050000D03*
X122950000Y-124050000D03*
X122950000Y-122150000D03*
X122300000Y-122150000D03*
X121650000Y-122150000D03*
D106*
X117000000Y-121660000D03*
X117950000Y-121660000D03*
X118900000Y-121660000D03*
X118900000Y-119340000D03*
X117950000Y-119340000D03*
X117000000Y-119340000D03*
D37*
X168450000Y-78850000D03*
X167800000Y-78850000D03*
X167150000Y-78850000D03*
X167150000Y-80750000D03*
X167800000Y-80750000D03*
X168450000Y-80750000D03*
D107*
X170460000Y-84350000D03*
X170460000Y-83400000D03*
X170460000Y-82450000D03*
X168140000Y-82450000D03*
X168140000Y-83400000D03*
X168140000Y-84350000D03*
D19*
X161600000Y-108760000D03*
X161600000Y-107740000D03*
X162600000Y-108714000D03*
X162600000Y-107694000D03*
D30*
X117540000Y-126800000D03*
X118560000Y-126800000D03*
X117550000Y-127950000D03*
X118570000Y-127950000D03*
X113290000Y-130150000D03*
X114310000Y-130150000D03*
D18*
X119310000Y-123900000D03*
X118290000Y-123900000D03*
D19*
X124300000Y-122410000D03*
X124300000Y-121390000D03*
D18*
X119320000Y-122900000D03*
X118300000Y-122900000D03*
X165910000Y-80800000D03*
X164890000Y-80800000D03*
D19*
X166100000Y-76710000D03*
X166100000Y-75690000D03*
X167100000Y-76720000D03*
X167100000Y-75700000D03*
D39*
X145375000Y-139675000D03*
X146677082Y-140131497D03*
X144131497Y-140272918D03*
X147275000Y-141375000D03*
D40*
X145475000Y-141475000D03*
D39*
X143675000Y-141575000D03*
X146818503Y-142677082D03*
X144272918Y-142818503D03*
X145575000Y-143275000D03*
X145575000Y-134775000D03*
X144343629Y-135202208D03*
X146747792Y-135343629D03*
X143775000Y-136375000D03*
D40*
X145475000Y-136475000D03*
D39*
X147175000Y-136575000D03*
X144202208Y-137606371D03*
X146606371Y-137747792D03*
X145375000Y-138175000D03*
D27*
X109040000Y-39560000D03*
X201320000Y-146220000D03*
D108*
X162776500Y-55753000D03*
X161581500Y-55753000D03*
D19*
X164147500Y-48137000D03*
X164147500Y-47117000D03*
M02*
